<?xml version="1.0" standalone="no"?>
<!DOCTYPE svg PUBLIC "-//W3C//DTD SVG 1.1//EN" "http://www.w3.org/Graphics/SVG/1.1/DTD/svg11.dtd">
<svg xmlns="http://www.w3.org/2000/svg">
<metadata>Copyright (C) 2021 by original authors @ fontello.com</metadata>
<defs>
<font id="frilea-icon" horiz-adv-x="1000" >
<font-face font-family="frilea-icon" font-weight="400" font-stretch="normal" units-per-em="1000" ascent="850" descent="-150" />
<missing-glyph horiz-adv-x="1000" />
<glyph glyph-name="manana" unicode="&#xe800;" d="M500 850a42 42 0 0 0 41-41v-100a41 41 0 0 0-82 0v100a42 42 0 0 0 41 41z m298-147a40 40 0 0 0 57-57l-72-71a40 40 0 1 0-57 57z m-652 0a40 40 0 0 0 56 0l72-71a40 40 0 1 0-57-57l-71 71a40 40 0 0 0 0 57z m354-98a250 250 0 0 0 180-75 255 255 0 0 0-180-435 250 250 0 0 0-180 75 256 256 0 0 0-75 180 250 250 0 0 0 75 180 256 256 0 0 0 180 75z m123-132a176 176 0 1 1 50-123 173 173 0 0 1-50 123z m336-82a42 42 0 0 0 41-41 41 41 0 0 0-41-41h-100a41 41 0 0 0 0 82z m-818 0a41 41 0 0 0 0-82h-100a41 41 0 0 0 0 82z m134-266a40 40 0 0 1-57 0l-71-71a40 40 0 0 1 57-57l71 72a40 40 0 0 1 0 56z m508 0a40 40 0 1 1-57-57l72-71a40 40 0 0 1 57 57z m-283-93a42 42 0 0 0 41-41v-100a41 41 0 0 0-82 0v100a42 42 0 0 0 41 41z" horiz-adv-x="1000" />

<glyph glyph-name="candado-abierto" unicode="&#xe801;" d="M574 546c-36 0-71-6-104-16v122c0 108-86 196-192 196s-193-88-193-196v-191c0-25 20-46 44-46 25 0 45 21 45 46v191c0 58 46 106 104 106 57 0 103-48 103-106v-167c-89-62-148-167-148-286 0-191 153-347 341-347 188 0 341 156 341 347 0 192-153 347-341 347z m0-604c-139 0-252 116-252 257s113 257 252 257c139 0 252-115 252-257s-113-257-252-257z m59 302c0-15-5-29-14-39v-66c0-25-20-46-45-46-24 0-44 21-44 46v66c-10 10-15 24-15 39 0 34 26 61 59 61 33 0 59-27 59-61z" horiz-adv-x="1000" />

<glyph glyph-name="mas-o" unicode="&#xe802;" d="M500 848c-275 0-498-223-498-498 0-275 223-498 498-498 275 0 498 223 498 498 0 275-223 498-498 498z m0-919c-232 0-421 189-421 421s189 421 421 421 421-189 421-421-189-421-421-421z m232 425c0-22-18-39-39-39h-154v-154c0-22-18-39-39-39s-39 17-39 39v154h-154c-21 0-38 17-38 39 0 21 17 38 38 38h154v154c0 22 18 39 39 39s39-17 39-39v-154h154c21 0 39-17 39-38z" horiz-adv-x="1000" />

<glyph glyph-name="menos-o" unicode="&#xe803;" d="M500 848c-275 0-498-223-498-498 0-275 223-498 498-498 275 0 498 223 498 498 0 275-223 498-498 498z m0-919c-232 0-421 189-421 421s189 421 421 421 421-189 421-421-189-421-421-421z m232 425c0-22-18-39-39-39h-386c-21 0-38 17-38 39 0 21 17 38 38 38h386c21 0 39-17 39-38z" horiz-adv-x="1000" />

<glyph glyph-name="info-dark-1" unicode="&#xe804;" d="M0 350q0 95 37 182t100 149 149 100 183 37q95 0 182-37t149-100 100-149 37-182q0-95-37-182t-100-150-149-100-182-37q-96 0-183 37t-149 100-100 150-37 182z m398 170q0-29 20-46t51-17q32 0 51 17t19 46-19 45-51 17q-32 0-51-17t-20-45z m5-402h132v299h-132v-299z" horiz-adv-x="937.5" />

<glyph glyph-name="descarga-documento" unicode="&#xe805;" d="M479 173c12-11 30-11 42 0l125 125c11 12 11 30 0 41-12 12-30 12-42 0l-75-75v211c0 16-13 29-29 29-16 0-29-13-29-29v-211l-75 75c-12 12-30 12-42 0-11-11-11-29 0-41l125-125z m146-75h-250c-16 0-29-13-29-29 0-16 13-29 29-29h250c16 0 29 13 29 29 0 16-13 29-29 29z m156 750h-437c-8 0-15-3-21-8l-187-188c-6-5-9-13-9-21v-687c0-51 41-92 92-92h562c51 0 92 41 92 92v812c0 51-41 92-92 92z m-435-68v-117c0-19-15-34-33-34h-118l151 151z m469-836c0-19-15-34-34-34h-562c-19 0-34 15-34 34v627h128c50 0 91 41 91 92v127h377c19 0 34-15 34-34v-812z" horiz-adv-x="1000" />

<glyph glyph-name="angulo-abajo" unicode="&#xe806;" d="M38 612c-8-8-15-17-19-28-5-10-7-22-7-33 0-12 2-23 7-33 4-11 11-20 19-28l402-402c8-8 17-15 28-19 10-5 21-7 33-7 11 0 23 2 33 7 11 4 20 11 28 19l402 402c16 16 24 38 24 61 0 23-9 44-25 60-16 17-38 26-61 26-22 0-44-9-61-25l-340-341-341 341c-8 8-17 15-28 19-10 5-21 7-33 7-11 0-23-2-33-7-11-4-20-11-28-19z" horiz-adv-x="1000" />

<glyph glyph-name="angulo-arriba" unicode="&#xe807;" d="M38 88c-8 8-15 17-19 28-5 10-7 22-7 33 0 12 2 23 7 33 4 11 11 20 19 28l402 402c8 8 17 15 28 19 10 5 21 7 33 7 11 0 23-2 33-7 11-4 20-11 28-19l402-402c16-16 24-38 24-61 0-22-9-44-25-60-16-16-38-26-61-26-22 0-44 9-61 25l-340 341-341-341c-8-8-17-15-28-19-10-5-21-7-33-7-11 0-23 2-33 7-11 4-20 11-28 19z" horiz-adv-x="1000" />

<glyph glyph-name="flechas" unicode="&#xe808;" d="M305 848c-21 0-42-6-58-19l-117-90c-26-20-31-50-15-74 8-12 23-16 38-16h86v-731c0-36 29-66 66-66h0c37 0 67 30 67 66v731h85c15 0 31 4 39 16 15 24 10 54-16 74l-117 90c-16 13-37 19-58 19l0 0z m390 0c-37 0-66-30-66-66v-731h-86c-15 0-30-4-38-16-16-24-11-54 15-74l117-90c16-13 37-19 58-19 21 0 42 6 59 19l116 90c26 20 31 50 16 74-8 12-24 16-38 16h-86v731c-1 36-30 66-67 66l0 0z" horiz-adv-x="1000" />

<glyph glyph-name="angulo-derecha" unicode="&#xe809;" d="M238 812c8 8 17 15 28 20 10 4 22 6 33 6 12 0 23-2 33-6 11-5 20-12 28-20l402-402c8-7 15-17 19-27 5-11 7-22 7-34 0-11-2-22-7-33-4-10-11-20-19-28l-402-402c-16-16-38-24-61-24-22 0-44 9-60 25-16 16-26 38-26 61 0 22 9 44 25 61l341 340-341 341c-8 8-15 17-19 28-5 10-7 22-7 33 0 11 2 23 7 33 4 11 11 20 19 28z" horiz-adv-x="1000" />

<glyph glyph-name="angulo-izquierda" unicode="&#xe80a;" d="M762 812c-8 8-17 15-28 20-10 4-22 6-33 6-12 0-23-2-33-6-11-5-20-12-28-20l-402-402c-8-7-15-17-19-27-5-11-7-22-7-34 0-11 2-22 7-33 4-10 11-20 19-28l402-402c16-16 38-24 61-24 23 0 44 9 60 25 17 16 26 38 26 61 0 22-9 44-25 61l-341 340 341 341c8 8 15 17 19 28 5 10 7 22 7 33 0 11-2 23-7 33-4 11-11 20-19 28z" horiz-adv-x="1000" />

<glyph glyph-name="checkbox" unicode="&#xe80b;" d="M880 838l-760 0c-29 0-56-11-76-31-21-21-32-48-32-77l0-760c0-29 11-56 32-77 20-20 47-31 76-31l760 0c29 0 56 11 77 31 20 21 31 48 31 77l0 760c0 29-11 56-31 77-21 20-48 31-77 31z m-488-759l-272 271 77 77 195-195 411 412 77-77-488-488z" horiz-adv-x="1000" />

<glyph glyph-name="checkbox-o" unicode="&#xe80c;" d="M881 836c55-2 103-50 105-105 3-254 3-508 0-762-2-55-50-103-105-105-254-3-508-3-762 0-55 2-103 50-105 105-3 254-3 508 0 762 2 55 50 103 105 105 254 3 508 3 762 0z m-759-54c-28 0-53-24-54-53-3-253-9-507 0-760 2-26 24-49 51-51 254-10 508-10 762 0 26 2 49 24 51 51 10 254 10 508 0 762-2 26-24 49-51 51-253 10-506 0-759 0z" horiz-adv-x="1000" />

<glyph glyph-name="basura" unicode="&#xe80d;" d="M616 777l0 61-247 0 0-61-309 0 0-124 865 0 0 124-309 0z m-494-778c0-33 13-64 36-87 23-24 55-37 87-37l495 0c32 0 64 13 87 37 23 23 36 54 36 87l0 618-741 0 0-618z" horiz-adv-x="1000" />

<glyph glyph-name="nube" unicode="&#xe80e;" d="M800 549c-33 158-193 260-359 229-121-23-216-113-240-228-117-13-201-114-188-226 13-103 104-180 213-180l153 0c16 0 30 13 30 29 0 16-14 29-30 29l-153 0c-85 0-153 66-152 146 0 81 69 145 154 145 15 0 28 11 30 26 16 127 137 219 271 204 113-12 202-97 215-204 2-15 16-26 32-26 84 0 153-65 153-146 0-80-69-145-153-145l-153 0c-17 0-31-13-31-29 0-16 14-29 31-29l153 0c118 0 213 92 212 205 0 102-81 188-188 200z m-191-459l-78-74 0 366c0 16-13 29-30 29-17 0-31-13-31-29l0-366-77 74c-12 11-31 11-43 0-13-11-13-29-1-41 0 0 0 0 1-1l129-123c3-3 6-5 10-6 8-3 16-3 24 0 3 1 7 3 9 6l130 123c12 12 12 30 1 42-12 11-31 11-43 0-1 0-1 0-1 0z" horiz-adv-x="1000" />

<glyph glyph-name="candado" unicode="&#xe80f;" d="M697 488v167c0 108-88 196-197 196-109 0-197-88-197-196v-167c-91-63-152-168-152-286 0-192 157-347 349-347s349 155 349 347c0 118-60 223-152 286z m-303 167c0 58 48 105 106 105s106-47 106-105v-122c-33 10-69 16-106 16-37 0-73-6-106-16v122z m106-710c-142 0-258 115-258 257 0 141 116 256 258 256 142 0 258-115 258-256 0-142-116-257-258-257z m0 363c-33 0-61-28-61-61 0-15 6-29 16-40v-66c0-25 20-45 45-45 25 0 46 20 46 45v66c9 11 15 25 15 40 0 33-28 61-61 61z" horiz-adv-x="1000" />

<glyph glyph-name="menu" unicode="&#xe810;" d="M650 400q22 0 36-15t14-35-15-35-35-15l-600 0q-20 0-35 15t-15 35 14 35 36 15l600 0z m-600 100q-20 0-35 15t-15 35 14 35 36 15l600 0q22 0 36-15t14-35-15-35-35-15l-600 0z m600-300q22 0 36-15t14-35-15-35-35-15l-600 0q-20 0-35 15t-15 35 14 35 36 15l600 0z" horiz-adv-x="700" />

<glyph glyph-name="lupa" unicode="&#xe811;" d="M387 208c-52 0-103 16-146 44-43 29-77 70-97 118-20 49-25 101-15 152 11 51 36 98 72 135s84 62 135 72c51 10 104 5 152-15 48-20 89-54 118-97 29-43 44-94 44-146 1-34-6-69-19-101-13-32-33-61-57-85-25-25-54-44-86-57-32-13-66-20-101-20z m351 0h-47l-17 18c36 42 62 91 78 145 15 53 18 109 9 164-14 80-53 154-112 209-59 56-134 91-215 101-98 12-198-14-277-74-79-60-132-148-147-246-15-98 8-198 66-279 57-81 144-137 241-155 55-8 111-5 165 10 53 15 103 42 145 78l18-18v-46l245-246c12-11 27-17 44-17 16 0 31 7 43 18 11 12 18 27 18 43 0 16-6 32-17 44l-240 251z" horiz-adv-x="1000" />

<glyph glyph-name="flecha-derecha" unicode="&#xe812;" d="M91 439h622l-169 169c-33 33-33 85 0 118 32 32 85 32 117 0l302-302c20-20 35-45 35-75 0-34-15-53-35-73l-302-302c-32-32-85-32-117 0-33 33-33 85 0 118l169 169h-622c-49 0-89 40-89 89 0 49 40 89 89 89z" horiz-adv-x="1000" />

<glyph glyph-name="flecha-izquierda" unicode="&#xe813;" d="M998 350c0-49-40-89-89-89h-622l169-169c33-33 33-85 0-118-32-32-85-32-117 0l-302 302c-20 20-35 39-35 73 0 30 15 55 35 75l302 302c32 32 85 32 117 0 33-33 33-85 0-118l-169-169h622c49 0 89-40 89-89z" horiz-adv-x="1000" />

<glyph glyph-name="flecha-arriba" unicode="&#xe814;" d="M411-59v622l-169-169c-33-33-85-33-118 0-32 32-32 85 0 117l302 302c20 20 45 35 76 35 33 0 52-15 72-35l302-302c32-32 32-85 0-117-33-33-85-33-118 0l-169 169v-622c0-49-40-89-89-89-49 0-89 40-89 89z" horiz-adv-x="1000" />

<glyph glyph-name="lapiz" unicode="&#xe815;" d="M940 790c-38 37-88 58-141 58s-103-21-141-58l-557-557c-5-5-8-11-10-17l-88-315c-3-13 0-28 10-38 8-7 18-11 28-11 3 0 7 0 11 1l314 90c13 3 23 14 27 27 3 14 0 28-10 38l-198 198 461 462 172-172-353-352c-16-15-16-40 0-55 15-15 39-15 55 0l420 419c37 38 58 88 58 141s-21 103-58 141z m-659-791l-184-52 52 185 132-133z m604 564l-12-12-172 172 12 12c23 23 53 35 86 35s63-12 86-35c23-23 35-54 35-86s-12-63-35-86z" horiz-adv-x="1000" />

<glyph glyph-name="flecha-abajo" unicode="&#xe816;" d="M589 759v-622l169 169c33 33 85 33 118 0 32-32 32-85 0-117l-302-302c-20-20-45-35-75-35-34 0-53 15-73 35l-302 302c-32 32-32 85 0 117 33 33 85 33 118 0l169-169v622c0 49 40 89 89 89 49 0 89-40 89-89z" horiz-adv-x="1000" />

<glyph glyph-name="info-light-1" unicode="&#xe817;" d="M0 350q0 95 37 182t100 149 149 100 183 37q95 0 182-37t149-100 100-149 37-182q0-95-37-182t-100-150-149-100-182-37q-96 0-183 37t-149 100-100 150-37 182z m117 0q0-71 28-137t75-112 112-75 137-28 136 28 112 75 75 112 28 137-28 136-75 112-112 75-136 28-137-28-112-75-75-112-28-136z m281 170q0 28 20 45t51 17q32 0 51-17t19-45-19-46-51-17q-32 0-51 17t-20 46z m5-402v299h132v-299h-132z" horiz-adv-x="937.5" />

<glyph glyph-name="mas" unicode="&#xe818;" d="M915 433l-332 0 0 332c0 46-37 83-83 83-46 0-83-37-83-83l0-332-332 0c-46 0-83-37-83-83 0-46 37-83 83-83l332 0 0-332c0-46 37-83 83-83 46 0 83 37 83 83l0 332 332 0c46 0 83 37 83 83 0 46-37 83-83 83z" horiz-adv-x="1000" />

<glyph glyph-name="menos" unicode="&#xe819;" d="M915 433l-830 0c-46 0-83-37-83-83 0-46 37-83 83-83l830 0c46 0 83 37 83 83 0 46-37 83-83 83z" horiz-adv-x="1000" />

<glyph glyph-name="info-dark-2" unicode="&#xe81a;" d="M0 350q0 95 37 182t100 149 149 100 183 37q95 0 182-37t149-100 100-149 37-182q0-95-37-182t-100-150-149-100-182-37q-96 0-183 37t-149 100-100 150-37 182z m398 170q0-29 20-46t51-17q32 0 51 17t19 46-19 45-51 17q-32 0-51-17t-20-45z m5-402h132v299h-132v-299z" horiz-adv-x="937.5" />

<glyph glyph-name="info-light-2" unicode="&#xe81b;" d="M0 350q0 95 37 182t100 149 149 100 183 37q95 0 182-37t149-100 100-149 37-182q0-95-37-182t-100-150-149-100-182-37q-96 0-183 37t-149 100-100 150-37 182z m117 0q0-71 28-137t75-112 112-75 137-28 136 28 112 75 75 112 28 137-28 136-75 112-112 75-136 28-137-28-112-75-75-112-28-136z m281 170q0 28 20 45t51 17q32 0 51-17t19-45-19-46-51-17q-32 0-51 17t-20 46z m5-402v299h132v-299h-132z" horiz-adv-x="937.5" />

<glyph glyph-name="controles" unicode="&#xe81d;" d="M127 817c-69 0-125-56-125-125 0-46 25-85 62-107v-640c0-34 28-62 63-62 34 0 62 28 62 62v640c37 22 62 61 62 107 0 69-56 125-124 125z m435-391v329c0 34-28 62-62 62-34 0-62-28-62-62v-329c-37-21-62-61-62-107s25-86 62-107v-267c0-34 28-62 62-62 34 0 62 28 62 62v267c37 21 63 61 63 107s-26 86-63 107z m374-311v640c0 34-28 62-62 62-35 0-63-28-63-62v-640c-37-22-62-61-62-107 0-69 56-125 125-125 68 0 124 56 124 125 0 46-25 85-62 107z" horiz-adv-x="1000" />

<glyph glyph-name="vector" unicode="&#xe81e;" d="M659 850h-439c-8 0-16-3-21-9l-188-188c-6-5-9-13-9-21v-690c0-51 41-92 92-92h565c51 0 92 41 92 92v816c0 51-41 92-92 92z m-437-69v-117c0-19-15-34-34-34h-117l151 151z m470-839c0-18-14-33-33-33h-565c-18 0-33 15-33 33v630h127c51 0 92 41 92 92v127h379c18 0 33-14 33-33v-816z" horiz-adv-x="775" />

<glyph glyph-name="cancel-1" unicode="&#xe81f;" d="M854 704c-195 195-513 195-708 0-195-195-195-513 0-708 98-97 226-146 354-146s256 49 354 146c195 195 195 513 0 708z m-148-501c17-17 17-43 0-59-8-8-18-13-29-13-11 0-21 5-30 13l-147 147-147-147c-8-8-19-12-30-12-10 0-21 4-29 12-17 16-17 42 0 59l147 147-147 147c-17 17-17 43 0 59 16 17 42 17 59 0l147-147 147 147c17 17 43 17 59 0 17-16 17-42 0-59l-147-147 147-147z" horiz-adv-x="1000" />

<glyph glyph-name="alerta" unicode="&#xe820;" d="M500 850c-276 0-500-224-500-500s224-500 500-500 500 224 500 500-224 500-500 500z m0-792c-23 0-42 19-42 42s19 42 42 42 42-19 42-42-19-42-42-42z m42 209c0-23-19-42-42-42s-42 19-42 42v333c0 23 19 42 42 42s42-19 42-42z m0 0" horiz-adv-x="1000" />

<glyph glyph-name="menu-1" unicode="&#xe821;" d="M192-30c0-52-43-94-95-94s-95 42-95 94c0 53 42 95 95 95s95-42 95-95z m711 854h-806c-53 0-95-42-95-94s42-95 95-95h806c53 0 95 42 95 95s-42 94-95 94z m-474-379h-332c-53 0-95-43-95-95s42-95 95-95h332c52 0 95 43 95 95s-43 95-95 95z m332 0c-52 0-95-43-95-95s43-95 95-95c52 0 95 43 95 95s-43 95-95 95z" horiz-adv-x="1000" />

<glyph glyph-name="radio-o" unicode="&#xe822;" d="M500-148c-275 0-498 223-498 498s223 498 498 498 498-223 498-498-223-498-498-498z m0 941c-244 0-443-199-443-443s199-443 443-443 443 199 443 443-199 443-443 443z" horiz-adv-x="1000" />

<glyph glyph-name="radio" unicode="&#xe823;" d="M500 848c-275 0-498-223-498-498s223-498 498-498 498 223 498 498-223 498-498 498z m0-941c-244 0-443 199-443 443s199 443 443 443 443-199 443-443-199-443-443-443z m277 443c0-153-124-277-277-277s-277 124-277 277 124 277 277 277 277-124 277-277z" horiz-adv-x="1000" />

<glyph glyph-name="cancel" unicode="&#xe825;" d="M77 656l306-306-306-306 0 0 0 0c-15-15-23-36-23-58 0-21 8-42 24-58 15-15 36-23 57-24 22 0 43 9 58 24l0 0 1 0 306 306 305-306c0 0 0 0 0 0 8-8 17-14 27-18 10-4 21-6 32-6 11-1 21 2 31 6 10 4 20 10 27 18l-12 12 12-12c8 7 14 16 18 26 4 10 6 21 6 32 0 11-2 22-6 32-4 10-11 19-18 26 0 0 0 0 0 0l-306 306 306 305c7 8 14 17 18 27 4 10 6 21 6 32 0 11-2 21-6 31-4 10-10 19-18 27-8 8-17 14-27 18l-7-16 7 16c-10 4-20 6-31 6-11 0-22-2-32-6-10-4-19-11-27-18l-305-306-306 306 0 0-1 0c-15 15-36 23-58 23-21 0-42-8-57-24-16-15-24-36-24-57 0-22 8-43 23-58l0 0 0 0z" horiz-adv-x="1000" />

<glyph glyph-name="calendario" unicode="&#xe826;" d="M750-50h-600c-13 1-25 6-34 16-10 9-15 21-16 34v500h700v-500c0-13-5-26-15-35-9-10-22-15-35-15z m-100 850v-50h-400v50c0 13-5 26-15 35-9 10-22 15-35 15-13 0-26-5-35-15-10-9-15-22-15-35v-50h-50c-26 0-52-11-71-29-18-19-29-44-29-71v-700c0-27 11-52 29-71 19-18 45-29 71-29h700c27 0 52 11 71 29 18 19 29 44 29 71v700c0 27-11 52-29 71-19 18-44 29-71 29h-50v50c0 13-5 26-15 35-9 10-22 15-35 15-13 0-26-5-35-15-10-9-15-22-15-35z m0-500h-150c-13-1-25-6-34-16-10-9-15-21-16-34v-150c1-13 6-25 16-34 9-10 21-15 34-16h150c13 1 25 6 34 16 10 9 15 21 16 34v150c0 13-5 26-15 35-9 10-22 15-35 15z" horiz-adv-x="900" />

<glyph glyph-name="presupuesto" unicode="&#xe827;" d="M275 850a47 47 0 0 1-48-47v-1a340 340 0 0 1 50-178h-2a47 47 0 0 1-32-82l-92-62a341 341 0 0 1 145-620 1146 1146 0 0 1 296 0 341 341 0 0 1 145 620l-92 62a47 47 0 0 1-32 83h-3a340 340 0 0 1 50 178v0a47 47 0 0 1-47 47z m123-225a245 245 0 0 0-71 130h234a245 245 0 0 0-72-130z m-194-223l190 128h99l191-128a246 246 0 0 0-105-448 1051 1051 0 0 0-271 0 246 246 0 0 0-104 448z m240 52a47 47 0 0 1-48-48v-20a104 104 0 0 1 48-196 9 9 0 1 0 0-18h-57a47 47 0 1 1 0-95h9v-9a47 47 0 0 1 95 0v21a104 104 0 0 1-47 196 9 9 0 1 0 0 18h56a47 47 0 1 1 0 94h-9v9a47 47 0 0 1-47 48z" horiz-adv-x="887" />

<glyph glyph-name="campana" unicode="&#xe828;" d="M346 696v26 64 26c0 21 17 38 39 38 21 0 38-17 38-38v-26-64-26c0-21-17-38-38-38-22 0-39 17-39 38z m235-85l17 17 43 43 17 17c17 17 17 38 0 55-17 17-38 17-55 0l-17-17-43-43-17-17c-17-17-17-38 0-55 17-17 42-17 55 0z m-457 60l43-43 17-17c17-17 43-17 55 0 17 13 17 38 0 55l-17 17-42 43-22 21c-17 18-38 18-55 0-17-17-17-38 0-55l21-21z m645-714v-22c0-47-38-85-85-85h-598c-47 0-86 38-86 85v22c0 47 39 85 86 85h260v52 25h-260c-47 0-86 39-86 86 0 175 137 320 308 337v0c0 43 34 77 77 77 42 0 77-34 77-77v0c171-17 307-162 307-337 0-47-38-86-85-86h-261v-25-52h261c47 0 85-38 85-85z m-85 248c0 141-116 252-252 252h-94c-137 0-252-111-252-252h598z m0-248h-598v-22h598v22z" horiz-adv-x="769" />

<glyph glyph-name="circular" unicode="&#xe829;" d="M933 601c-45 77-105 137-182 182-77 45-160 67-251 67-91 0-174-22-251-67-77-45-137-105-182-182-45-77-67-160-67-251 0-91 22-174 67-251 45-77 105-137 182-182 77-45 160-67 251-67s174 22 251 67c77 45 137 105 182 182 45 77 67 160 67 251 0 91-22 174-67 251z" horiz-adv-x="1000" />

<glyph glyph-name="check" unicode="&#xe82a;" d="M1000 350c0-99-29-196-84-278-55-82-133-146-225-184-91-38-192-48-288-28-97 19-187 66-257 136-69 70-117 160-136 257-20 96-10 197 28 288 38 92 102 170 184 225 82 55 179 84 278 84 133 0 260-53 354-146 93-94 146-221 146-354z m-558-265l371 371c3 3 6 7 7 11 2 3 3 8 3 12 0 4-1 8-3 12-1 4-4 8-7 11l-46 45c-3 3-6 5-10 7-4 2-8 2-12 2-5 0-9 0-13-2-4-2-7-4-10-7l-303-302-141 141c-6 6-14 10-23 10-8 0-17-4-23-10l-45-46c-6-6-10-14-10-23 0-8 4-16 10-22l210-210c3-3 6-5 10-7 4-1 8-2 12-2 5 0 9 1 13 2 4 2 7 4 10 7h0z" horiz-adv-x="1000" />

<glyph glyph-name="noche" unicode="&#xe82b;" d="M961 610c-111 0-201 90-201 201 0 22-17 39-39 39-22 0-39-17-39-39 0-111-90-201-201-201-22 0-39-17-39-39 0-22 17-39 39-39 111 0 201-90 201-201 0-22 17-39 39-39 22 0 39 17 39 39 0 111 90 201 201 201 22 0 39 17 39 39 0 22-17 39-39 39z m-240-137c-24 40-58 74-98 98 40 24 74 58 98 98 24-40 58-74 98-98-40-24-74-58-98-98z m172-297c-160-82-358-54-489 78-131 131-160 329-78 489 17 34-19 70-53 53-305-155-365-561-127-800 239-238 644-178 800 127 17 34-19 70-53 53z m-691-124c-168 168-166 443 12 608-35-158 7-334 134-462 127-126 304-169 462-134-164-177-439-181-608-12z" horiz-adv-x="1000" />

<glyph glyph-name="tarde" unicode="&#xe82c;" d="M920 370h80c23 0 41-18 41-40 0-23-18-41-41-41h-80c-22 0-41 18-41 41 0 22 19 40 41 40z m-879-81h80c22 0 40 18 40 41 0 22-18 40-40 40h-80c-23 0-41-18-41-40 0-23 18-41 41-41z m479 400c23 0 41 18 41 40v80c0 23-18 41-41 41-22 0-40-18-40-41v-80c0-22 18-40 40-40z m-311-105c16-16 42-16 57 0 16 16 16 41 0 57l-56 57c-16 16-42 16-58 0-15-16-15-42 0-58l57-56z m623 0l56 56c16 16 16 42 0 58-16 16-41 16-57 0l-57-57c-16-16-16-41 0-57 16-16 42-16 58 0z m209-494c0-23-18-41-41-41-47 0-949 0-959 0-23 0-41 18-41 41 0 22 18 41 41 41h282c-52 50-83 121-83 199 0 155 126 281 280 281 155 0 281-126 281-281 0-78-32-149-83-199h282c23 0 41-19 41-41z m-532 41h23c105 6 188 93 188 199 0 110-90 199-200 199-110 0-199-89-199-199 0-106 83-193 188-199z m331-200h-639c-23 0-41-18-41-40 0-23 18-41 41-41h639c23 0 41 18 41 41 0 22-18 40-41 40z" horiz-adv-x="1050" />

<glyph glyph-name="nav" unicode="&#xe82d;" d="M997 730c0 52-42 94-95 94l-805 0c-53 0-95-42-95-94 0-53 42-95 95-95l805 0c53 0 95 42 95 95z m0-379c0 52-42 94-95 94l-805 0c-53 0-95-42-95-94 0-53 42-95 95-95l805 0c53 0 95 42 95 95z m0-380c0 53-42 95-95 95l-805 0c-53 0-95-42-95-95 0-52 42-94 95-94l805 0c53 0 95 42 95 94z" horiz-adv-x="1000" />

<glyph glyph-name="telefono" unicode="&#xe82e;" d="M218 754c-7 2-18 3-37-15-39-37-63-74-76-112-12-38-14-78-4-124 20-92 86-201 196-330 76-89 144-143 209-176 64-32 129-44 202-44 68 0 117 22 148 48 30 25 40 50 42 60-1 0-1 1-1 1-2 4-6 9-12 16-13 14-32 30-53 45-21 15-43 29-63 38-10 5-18 8-25 10-6 2-9 3-9 3 0 0 0 0-1 0-1-1-6-2-15-7-11-5-24-13-38-23-27-21-55-45-71-62l-20-20-28 9c-35 12-115 55-203 143-88 88-131 168-143 203l-9 27 20 21c10 10 26 20 38 28 2 1 3 2 4 3 15 10 30 20 43 31 30 25 32 39 29 48-13 37-42 102-78 145-18 22-34 32-45 34z m680-695c0 0 0 0 0 0l0 0z m-563 722c48-56 81-134 95-176 24-70-24-123-56-150-18-15-38-28-53-38 0 0 0-1-1-1 18-31 51-80 106-135 59-59 111-93 141-109 17 15 37 33 58 48 16 12 33 23 51 32 16 8 37 17 59 17 24 0 52-11 75-22 25-12 52-29 77-47 25-17 49-38 68-58 9-10 18-22 25-34 6-11 13-27 13-45 0-45-31-97-77-135-48-40-118-70-208-70-84 0-164 14-245 54-79 40-156 104-238 199-113 132-192 256-217 373-12 59-11 117 7 172 18 56 52 106 101 152 38 35 81 49 125 39 39-10 71-38 94-66z" horiz-adv-x="1000" />

<glyph glyph-name="correo" unicode="&#xe82f;" d="M116 816c-64 0-116-52-116-117v-688c0-64 52-116 116-116h969c64 0 116 52 116 116v688c0 64-52 117-116 117h-969z m487-531l-440 436h876l-436-436z m-508-228v597l300-297-300-300z m1011 0l-298 298 298 298v-596z m-944-67l300 300 107-106c19-19 49-19 67 0l104 104 299-298h-877z" horiz-adv-x="1211" />

<glyph glyph-name="saludo" unicode="&#xe830;" d="M870 572h-33c-50 0-92-36-100-84h-72c-2 2-4 5-7 7l-1 1 0 0c-24 24-46 46-63 61-9 8-18 16-27 21-7 4-19 11-33 11h-135c-27 0-48-18-74-44l-41-40h-19c0 56-46 101-101 101h-34c-56 0-101-45-101-101v-236c0-56 45-101 101-101h34c37 0 69 21 87 51l2 0c9-1 26-2 45 3l94-94c14-14 33-23 51-28 19-5 40-7 61-5 41 2 88 17 121 50l57 57h59c14-39 52-67 96-67h33c56 0 101 45 101 101v235c0 56-45 101-101 101z m-673-303c0-18-15-33-33-33h-34c-19 0-34 15-34 33v236c0 18 15 33 34 33h34c18 0 33-15 33-33v-236z m84 18v150h17c9 0 18 4 24 10l50 51c13 13 21 19 26 22 1 1 2 1 2 1h130c0 0 1 0 1-1 5-2 10-7 18-14 16-13 36-33 62-59 1-1 3-4 3-8-5-13-16-29-39-37-8-1-18 2-32 11-14 9-25 20-34 29l-2 2 0 0c-13 13-34 13-48 0l-134-134c-15-15-30-21-44-23z m438-18h-51c-9 0-17-3-23-10l-68-67c-18-18-46-28-77-30-15-1-28 1-39 3-12 4-18 8-21 10l-77 77 9 10 111 111c7-6 14-12 22-17 21-14 53-29 89-18 41 10 70 35 82 67 2 5 3 10 4 16h39v-152z m185-33c0-19-15-34-34-34h-33c-19 0-34 15-34 34v235c0 19 15 34 34 34h33c19 0 34-15 34-34v-235z" horiz-adv-x="1000" />

<glyph glyph-name="clip" unicode="&#xe831;" d="M325-150c-179 0-325 140-325 313v437c0 23 19 42 43 42 24 0 44-19 44-42v-437c0-127 107-230 238-230 131 0 238 103 238 230v458c0 80-68 146-151 146-84 0-152-66-152-146v-417c0-34 29-62 65-62 36 0 65 28 65 62v396c0 23 19 42 43 42 24 0 44-19 44-42v-396c0-80-68-146-152-146-84 0-152 66-152 146v417c0 126 107 229 239 229 131 0 238-103 238-229v-458c0-173-146-313-325-313z" horiz-adv-x="650" />

<glyph glyph-name="nota" unicode="&#xe832;" d="M660 744l-50 51c-14 13-39 13-52-1l-33-33-32 33c-14 14-38 14-52 0l-32-33-30 30c-14 14-37 14-51 0l-30-30-30 30c-13 14-37 14-51 0l-29-30-30 30c-14 14-37 14-52 0l-47-47c-9-9-13-21-13-33v-746c0-13 4-24 13-33l48-48c13-13 37-13 51 1l30 29 29-30c14-13 38-13 52 1l29 29 30-30c14-13 37-13 51 1l30 29 32-32c14-14 38-14 52 0l32 32 33-33c7-6 16-10 26-10 10 0 19 3 26 10l50 51c9 9 14 20 14 33v746c0 12-5 24-14 33z m-48-773l-23-22c-1-1-3-2-5-2-2 0-3 1-5 2l-28 28c-7 7-16 11-26 11-9 0-19-4-25-11l-28-28c-1-1-3-2-5-2-2 0-3 1-5 2l-27 28c-14 14-38 14-52 0l-25-25c-2-2-7-2-9 0l-25 25c-14 14-37 14-52 0l-24-25c-3-2-7-2-10 0l-25 25c-14 14-37 14-51 0l-25-25c-3-2-7-2-10 0l-19 19v733l19 19c2 2 3 2 5 2 2 0 4 0 5-2l25-25c14-13 37-13 51 1l25 24c3 3 7 3 10 0l25-25c13-13 37-13 51 1l25 24c2 3 7 3 9 0l25-25c14-13 38-13 52 1l27 27c2 2 3 2 5 2 2 0 4 0 5-2l28-27c13-14 37-14 51 0l28 28c2 1 3 2 5 2 2 0 4-1 5-2l23-23 0-733z m-419 568h167c17 0 31 14 31 31 0 17-14 31-31 31h-167c-17 0-31-14-31-31 0-17 14-31 31-31z m323-94h-323c-17 0-31-14-31-32 0-17 14-31 31-31h323c18 0 32 14 32 31 0 18-14 32-32 32z m-323-220h229c18 0 32 14 32 32 0 17-14 31-32 31h-229c-17 0-31-14-31-31 0-18 14-32 31-32z m323-94h-323c-17 0-31-14-31-31 0-17 14-31 31-31h323c18 0 32 14 32 31 0 17-14 31-32 31z" horiz-adv-x="727" />

<glyph glyph-name="estrella-o" unicode="&#xe833;" d="M1035 473c-8 19-27 35-46 39l-300 27-120 276c-7 24-27 35-50 35-23 0-42-11-50-35l-119-276-300-27c-23-4-42-16-46-39-8-23 0-46 15-58l227-200-65-296c-4-23 4-42 23-58 8-7 15-11 27-11 11 0 19 4 27 8l257 154 258-154c19-12 42-12 62 3 19 12 27 35 23 58l-66 296 227 200c16 12 23 35 16 58z m-289-215c-15-12-23-35-19-54l62-281-243 146c-7 8-15 12-27 12-11 0-19-4-27-8l-246-146 62 281c4 19-4 42-19 54l-212 184 285 27c19 0 38 16 46 35l111 261 112-261c8-19 27-31 46-35l285-27-216-188z m-400 273c0 0 0 0 0 0l0 0z m346 0l0 0c0 0 0 0 0 0z" horiz-adv-x="1038" />

<glyph glyph-name="estrella" unicode="&#xe834;" d="M1035 473c-8 19-27 35-46 39l-300 27-120 276c-7 24-27 35-50 35-23 0-42-11-50-35l-119-276-300-27c-23-4-42-16-46-39-8-23 0-46 15-58l227-200-65-296c-4-23 4-42 23-58 8-7 15-11 27-11 11 0 19 4 27 8l257 154 258-154c19-12 42-12 62 3 19 12 27 35 23 58l-66 296 227 200c16 12 23 35 16 58z m-689 58c0 0 0 0 0 0l0 0z m346 0l0 0c0 0 0 0 0 0z" horiz-adv-x="1038" />

<glyph glyph-name="linkedin-1" unicode="&#xe838;" d="M914 764c-41 41-96 63-150 63h-528c-54 0-109-22-150-63-40-41-63-96-63-150v-528c0-59 23-109 63-150 41-41 96-63 150-63h528c59 0 109 22 150 63 41 41 63 96 63 150v528c0 54-22 109-63 150z m-150-810h-528c-36 0-68 14-95 37-23 27-41 59-41 95v528c0 36 14 68 36 95 28 23 60 41 96 41h527c37 0 68-14 91-36 23-28 41-59 41-96v-527c0-36-14-68-36-91-23-32-55-46-91-46z m-423 614c0-32-27-54-55-54s-59 22-59 54c0 32 28 55 59 55s55-23 55-55z m0-95h-114v-350h114v350z m182 0h-114v-350h114v182c0 100 136 109 136 0v-182h114v218c0 173-205 164-250 82v50z" horiz-adv-x="1000" />

<glyph glyph-name="facebook-1" unicode="&#xe839;" d="M396-141h-241v414h-141v236h141l0 105c0 27 4 63 18 95 18 41 45 73 77 96 50 31 118 36 186 36h0c46 0 91-5 91-5l32-4v-218h-141c-13 0-18-9-18-23v-55c0-9 0-22 0-31h159l-32-232h-131v-414z m-173 68h104v414h137l13 100h-150l0 32c0 9 0 18 0 27 0 14 0 23 0 36l0 60c0 50 41 90 87 90h63c5 0 5 0 9 0v82c-13 0-36 0-54 0-55 0-114-4-150-27-14-14-36-36-46-64-9-18-13-45-13-68l0-18 0-150h-141v-95h141v-419z" horiz-adv-x="591" />

<glyph glyph-name="instagram" unicode="&#xe83a;" d="M777 686c-27 0-50-22-50-50 0-27 23-50 50-50s50 23 50 50c0 28-22 50-50 50z m141 82c-41 41-95 64-154 64h-528c-59 0-113-23-154-64-41-41-64-95-64-154v-528c0-59 23-113 64-154 41-41 95-64 154-64h528c59 0 113 23 154 64 41 41 64 95 64 154v528c0 59-23 113-64 154z m-32-154v-528c0-31-13-63-36-86-23-23-54-36-86-36h-528c-31 0-63 13-86 36-23 23-36 55-36 86v528c0 36 13 63 36 86s55 36 86 36h528c32 0 63-13 86-36 23-23 36-54 36-86z m-386 18c-154 0-282-127-282-282 0-154 128-282 282-282 155 0 282 128 282 282 0 155-127 282-282 282z m0-468c-104 0-186 86-186 186s82 186 186 186 186-86 186-186-81-186-186-186z" horiz-adv-x="1000" />

<glyph glyph-name="horario-flexible" unicode="&#xe83b;" d="M500 695c-210 0-381-171-381-381 0-211 171-382 381-382 210 0 381 171 381 382 0 210-171 381-381 381z m0-682c-172 0-294 129-294 301 0 172 122 299 294 299 172 0 294-127 294-299 0-172-122-301-294-301z m106 312h-92v134c0 19-16 34-35 34-19 0-34-15-34-34v-168c0-19 15-35 34-35h127c19 0 35 16 35 35 0 19-16 34-35 34z m-302-259c-14 13-36 12-49-2l-103-116c-13-14-12-36 2-48 7-6 15-9 23-9 10 0 19 4 26 11l104 116c13 14 11 36-3 48z m544-118l-103 116c-13 14-35 15-49 2-14-12-15-34-3-48l104-116c7-7 16-11 26-11 8 0 16 3 23 9 14 12 15 34 2 48z m-550 802c-68 67-179 67-246-1-34-33-52-77-52-124 0-47 19-90 52-123 7-6 15-10 24-10 9 0 18 4 25 10l198 199c6 6 10 15 10 24 0 9-4 18-11 25z m-218-170c-7 13-11 29-11 45 0 28 11 55 32 76 20 20 47 30 74 30 16 0 31-3 46-10l-141-141z m868 169c-67 68-178 68-246 1-7-7-11-16-11-25 0-9 4-18 10-24l199-199c6-6 15-10 24-10 9 0 17 4 24 10 33 33 52 76 52 123 0 47-18 91-52 124z m-28-169l-141 141c40 18 88 12 121-20 20-21 31-48 31-76 0-16-4-32-11-45z" horiz-adv-x="1000" />

<glyph glyph-name="heart-full" unicode="&#xe83c;" d="M517-90c11-9 25-15 39-15 15 0 29 6 40 15 41 36 81 70 116 100l0 0c103 88 192 164 254 239 69 83 101 162 101 249 0 83-28 161-81 218-53 57-125 89-204 89-59 0-113-19-161-56-24-18-45-41-65-68-19 27-40 50-64 68-48 37-102 56-161 56-79 0-152-32-204-89-53-57-81-135-81-218 0-87 32-166 101-249 62-75 151-151 254-239l0 0c35-30 75-64 116-100z" horiz-adv-x="1091" />

<glyph glyph-name="heart-empty" unicode="&#xe83d;" d="M556-105c-14 0-28 6-39 15-41 36-81 70-116 100l0 0c-103 88-192 164-254 239-69 83-101 162-101 249 0 83 28 161 81 218 52 57 125 89 204 89 59 0 113-19 161-56 24-18 45-41 64-68 20 27 41 50 65 68 48 37 102 56 161 56 79 0 151-32 204-89 53-57 81-135 81-218 0-87-32-166-101-249-62-75-151-151-254-239-35-30-75-64-116-100-11-9-25-15-40-15z m-225 850c-62 0-119-25-160-70-42-46-66-109-66-177 0-73 27-138 88-211 58-71 146-145 246-231l1 0c35-30 75-64 116-101 42 37 82 71 117 101 101 86 188 160 247 231 60 73 87 138 87 211 0 68-23 131-65 177-41 45-98 70-160 70-46 0-87-15-124-43-33-26-56-58-69-80-7-12-19-19-33-19-13 0-25 7-32 19-13 22-36 54-69 80-37 28-79 43-124 43z" horiz-adv-x="1091" />

<glyph glyph-name="seen" unicode="&#xe83e;" d="M750 550c-40 0-80-12-114-34-33-22-59-53-75-89-15-37-19-77-12-116 8-39 28-74 56-102 29-28 65-47 105-55 40-8 81-4 118 11 38 15 70 41 92 74 23 33 35 71 35 111 0 26-5 53-15 77-10 25-25 47-44 66-19 18-42 33-67 43-25 10-52 15-79 14z m0-533c-67 0-133 19-189 56-56 36-100 89-126 149-26 61-32 128-19 193 13 65 45 124 93 171 48 46 108 78 175 91 66 13 134 6 197-19 62-25 115-68 153-123 37-55 57-119 57-185 0-44-8-87-25-128-17-41-42-78-74-109-32-31-69-55-111-72-42-16-86-25-131-24z m0 833c-162 0-320-47-454-136-134-90-237-216-296-364 59-147 162-274 296-363 134-89 292-137 454-137 162 0 320 48 454 137 134 89 237 216 296 363-59 148-162 274-296 364-134 89-292 136-454 136z" horiz-adv-x="1500" />

<glyph glyph-name="share" unicode="&#xe83f;" d="M750 225c-45 0-85-15-117-40l-200 125c5 28 5 55 0 83l200 125c32-25 72-40 117-40 103 0 188 85 188 187s-85 185-188 185-187-85-187-187c0-15 2-28 5-40l-200-125c-33 25-73 40-118 40-102 0-187-85-187-188s85-187 187-187c45 0 85 15 118 40l200-125c-3-13-5-28-5-40 0-103 85-188 187-188s188 85 188 188-85 187-188 187z m0 533c53 0 95-43 95-95 0-53-42-95-95-95-52 0-95 42-95 95-2 52 43 95 95 95z m-507-498c-50 0-93 40-93 90s40 93 93 93c50 0 92-40 92-93s-40-90-92-90z m507-320c-52 0-95 42-95 95 0 53 43 95 95 95 53 0 95-42 95-95 0-53-42-95-95-95z" horiz-adv-x="1000" />

<glyph glyph-name="info-bubble" unicode="&#xe842;" d="M1125 708c-8 25-25 46-42 63s-41 33-62 42c-25 8-50 16-75 16l-704 4c-25 0-50-4-75-16-25-9-46-21-67-42s-33-42-42-62c-8-25-16-50-16-75l0-400c0-25 4-50 16-75s25-46 42-63 42-33 63-42c25-8 50-16 75-16l729-4 166-167 0 167 5 595c0 25-5 50-13 75z m-487-16l-13-296h-92l-12 296h117z m-55-454c-37 0-62 25-62 58 0 33 25 58 62 58 9 0 17 0 25-4 9-4 17-8 21-12s13-13 13-21c4-9 4-17 4-25 0-29-25-54-63-54z" horiz-adv-x="1179" />

<glyph glyph-name="message" unicode="&#xe843;" d="M493 837c-265 0-480-215-480-480 0-84 22-167 64-239l-62-192c-4-14-1-28 9-38 10-10 25-14 38-10l192 62c73-41 155-63 239-63 266 0 480 214 480 480 0 265-214 480-480 480z m47-480c0-26-21-47-47-47-25 0-46 21-46 47 0 26 21 47 46 47 26 0 47-21 47-47z m188 0c0-26-21-47-47-47-26 0-47 21-47 47 0 26 21 47 47 47 26 0 47-21 47-47z m-375 0c0-26-21-47-47-47-26 0-47 21-47 47 0 26 21 47 47 47 26 0 47-21 47-47z" horiz-adv-x="1000" />

<glyph glyph-name="world-vector" unicode="&#xe844;" d="M115 214h211c-5 43-7 89-7 136 0 47 2 93 7 136h-211c-15-42-23-88-23-136 0-48 8-93 23-136z m19-45c54-109 155-190 277-218-36 49-63 125-78 218h-199z m751 45c15 43 23 88 23 136 0 48-8 94-23 136h-211c5-43 8-89 8-136 0-47-3-93-8-136h211z m-19-45h-199c-15-93-42-169-77-218 121 28 222 109 276 218z m-494 45h256c5 42 8 88 8 136 0 48-3 94-8 136h-256c-5-42-8-88-8-136 0-48 3-94 8-136z m7-45c24-135 72-227 121-227 49 0 97 92 121 227h-242z m-245 363h199c15 92 42 168 78 217-122-28-223-109-277-217z m732 0c-54 108-155 189-276 217 35-49 62-125 77-217h199z m-487 0h242c-24 134-72 226-121 226-49 0-97-92-121-226z m121-636c-251 0-454 203-454 454 0 251 203 454 454 454 251 0 454-203 454-454 0-251-203-454-454-454z" horiz-adv-x="1000" />

<glyph glyph-name="download" unicode="&#xe845;" d="M459 159c22-22 58-22 80 0l242 242c22 22 22 58 0 80-22 22-58 22-80 0l-146-146v409c0 31-25 56-56 56-31 0-57-25-57-56v-409l-145 146c-22 22-58 22-80 0-22-22-22-58 0-80l242-242z m282-146h-484c-32 0-57-25-57-57 0-31 25-56 57-56h484c31 0 56 25 56 56 0 32-25 57-56 57z" horiz-adv-x="1000" />

<glyph glyph-name="escudo" unicode="&#xe846;" d="M919 593c0 27-1 52-1 77 0 19-16 35-35 35-150 0-264 43-359 135-13 13-35 13-48 0-95-92-209-135-359-135-19 0-35-16-35-35 0-25 0-50-1-77-5-252-11-596 408-741 3-1 7-2 11-2 4 0 8 1 11 2 419 145 413 489 408 741z m-419-671c-359 131-354 417-349 669 0 15 1 30 1 44 140 6 252 49 348 132 96-83 208-126 348-132 1-14 1-29 1-44 5-252 10-538-349-669z m121 550l-169-169-72 72c-14 13-36 13-50 0-14-14-14-36 0-50l97-97c7-6 16-10 25-10 9 0 18 4 24 10l194 194c14 14 14 36 0 50-14 13-36 13-49 0z" horiz-adv-x="1000" />

<glyph glyph-name="copiar" unicode="&#xe847;" d="M896 647l-99 0 0 99c0 26-10 51-29 70-19 19-44 29-70 29l-594 0c-26 0-51-10-70-29-18-19-29-44-29-70l0-594c0-26 11-51 29-70 19-18 44-29 70-29l99 0 0-99c0-26 11-51 29-70 19-19 44-29 70-29l594 0c26 0 51 10 70 29 19 19 29 44 29 70l0 594c0 26-10 51-29 70-19 19-44 29-70 29z m-825-495l0 594c0 9 4 17 10 23 6 7 14 10 23 10l594 0c9 0 17-3 23-10 7-6 10-14 10-23l0-594c0-9-3-17-10-23-6-6-14-10-23-10l-594 0c-9 0-17 4-23 10-6 6-10 14-10 23z m858-198c0-9-3-17-10-23-6-7-14-10-23-10l-594 0c-9 0-17 3-23 10-6 6-10 14-10 23l0 99 429 0c26 0 51 11 70 29 19 19 29 44 29 70l0 429 99 0c9 0 17-3 23-10 7-6 10-14 10-23l0-594z" horiz-adv-x="1000" />

<glyph glyph-name="not-seen" unicode="&#xe848;" d="M1233 670l-200-173c20-47 34-100 34-147 0-47-7-87-27-127-13-40-40-80-73-106-34-34-67-54-107-74-40-13-87-26-127-26-66 0-126 20-180 53l-160-140c107-53 220-80 340-80 160 0 314 47 447 140 133 87 233 213 287 360-47 127-127 233-234 320z m-540-513c40-7 80-7 114 13s66 40 86 73c27 27 40 67 40 107 0 13 0 33-6 47l-267-234c13-6 20-6 33-6z m-480-107l214 187c-27 53-34 120-20 180 13 66 46 126 93 173s107 73 167 87c66 13 133 6 193-20 13-7 20-7 27-14l166 140c-100 47-206 67-320 67-160 0-313-47-446-133-127-94-227-220-287-367 47-113 120-220 213-300z m520 500c-40 0-80-13-113-33s-53-54-73-94c-14-26-14-60-14-93l247 213c-13 7-33 7-47 7z m-460-700l1134 993-7 7-247 0-1140-1000z" horiz-adv-x="1467" />

<glyph glyph-name="bell" unicode="&#xe849;" d="M300 775c17 46 63 75 117 75 54 0 100-29 121-75 112-42 195-150 195-267 0-145 30-291 92-425 8-16 8-37-4-54-13-16-29-25-50-25h-708c-21 0-38 9-50 25-13 17-13 38-5 54 63 138 92 280 92 425v9c0 71 33 141 88 196 33 29 70 50 112 62z m-12-804h258c0-67-58-121-129-121-71 0-129 54-129 121z" horiz-adv-x="833" />

<glyph glyph-name="info-dark" unicode="&#xf085;" d="M0 350q0 95 37 182t100 149 149 100 183 37q95 0 182-37t149-100 100-149 37-182q0-95-37-182t-100-150-149-100-182-37q-96 0-183 37t-149 100-100 150-37 182z m398 170q0-29 20-46t51-17q32 0 51 17t19 46-19 45-51 17q-32 0-51-17t-20-45z m5-402h132v299h-132v-299z" horiz-adv-x="937.5" />

<glyph glyph-name="info-light" unicode="&#xf086;" d="M0 350q0 95 37 182t100 149 149 100 183 37q95 0 182-37t149-100 100-149 37-182q0-95-37-182t-100-150-149-100-182-37q-96 0-183 37t-149 100-100 150-37 182z m117 0q0-71 28-137t75-112 112-75 137-28 136 28 112 75 75 112 28 137-28 136-75 112-112 75-136 28-137-28-112-75-75-112-28-136z m281 170q0 28 20 45t51 17q32 0 51-17t19-45-19-46-51-17q-32 0-51 17t-20 46z m5-402v299h132v-299h-132z" horiz-adv-x="937.5" />

<glyph glyph-name="twitter" unicode="&#xf099;" d="M904 622q-37-54-90-93 0-8 0-23 0-73-21-145t-64-139-103-117-144-82-181-30q-151 0-276 81 19-2 43-2 126 0 224 77-59 1-105 36t-64 89q19-3 34-3 24 0 48 6-63 13-104 62t-41 115v2q38-21 82-23-37 25-59 64t-22 86q0 49 25 91 68-83 164-133t208-55q-5 21-5 41 0 75 53 127t127 53q79 0 132-57 61 12 115 44-21-64-80-100 52 6 104 28z" horiz-adv-x="928.6" />

<glyph glyph-name="facebook" unicode="&#xf09a;" d="M535 843v-147h-87q-48 0-65-20t-17-60v-106h164l-22-165h-142v-424h-171v424h-142v165h142v122q0 104 58 161t155 57q82 0 127-7z" horiz-adv-x="571.4" />

<glyph glyph-name="linkedin" unicode="&#xf0e1;" d="M195 501v-553h-184v553h184z m12 171q0-41-29-68t-75-27h-1q-46 0-74 27t-28 68q0 41 29 68t75 27 74-27 29-68z m650-407v-317h-183v296q0 59-23 92t-71 33q-35 0-58-19t-36-48q-6-17-6-45v-309h-184q1 223 1 361t0 165l-1 27h184v-80h-1q11 18 23 31t31 29 49 24 64 9q95 0 153-63t58-186z" horiz-adv-x="857.1" />

<glyph glyph-name="behance" unicode="&#xf1b4;" d="M1031 661h-285v-69h285v69z m-140-238q-51 0-82-29t-34-80h227q-10 109-111 109z m9-326q35 0 68 18t42 48h123q-55-171-238-171-119 0-190 73t-70 194q0 116 72 193t188 77q77 0 134-38t86-100 28-139q0-9-1-26h-367q0-62 32-96t93-33z m-745 28h165q114 0 114 93 0 100-111 100h-168v-193z m0 299h156q44 0 69 21t26 63q0 80-106 80h-145v-164z m-155 284h332q48 0 86-8t71-26 50-54 17-86q0-101-96-147 64-17 96-64t33-114q0-41-14-76t-37-58-55-39-67-24-75-7h-341v703z" horiz-adv-x="1142.9" />

<glyph glyph-name="whatsapp" unicode="&#xf232;" d="M550 307q7 0 54-25t50-30q1-2 1-8 0-18-9-42-9-22-40-37t-57-15q-32 0-106 35-55 25-95 66t-82 103q-41 60-40 108v5q2 50 41 88 14 12 29 12 4 0 10-1t11-1q11 0 15-3t8-16q5-11 19-49t14-41q0-12-19-33t-20-26q0-3 3-8 19-41 57-76 31-30 84-57 7-4 13-4 8 0 30 27t29 28z m-114-296q71 0 136 28t112 74 75 112 28 136-28 136-75 112-112 75-136 28-135-28-112-75-75-112-28-136q0-113 67-205l-44-130 135 43q88-58 192-58z m0 771q86 0 164-34t134-89 90-135 33-163-33-163-90-134-134-90-164-34q-108 0-203 53l-233-75 76 226q-60 99-60 217 0 86 33 163t90 135 134 89 163 34z" horiz-adv-x="857.1" />
</font>
</defs>
</svg>
