<?xml version="1.0" encoding="UTF-8" standalone="no"?><!DOCTYPE svg PUBLIC "-//W3C//DTD SVG 1.1//EN" "http://www.w3.org/Graphics/SVG/1.1/DTD/svg11.dtd"><svg width="100%" height="100%" viewBox="0 0 512 512" version="1.1" xmlns="http://www.w3.org/2000/svg" xmlns:xlink="http://www.w3.org/1999/xlink" xml:space="preserve" xmlns:serif="http://www.serif.com/" style="fill-rule:evenodd;clip-rule:evenodd;stroke-linejoin:round;stroke-miterlimit:2;"><g><path d="M256,512c141.385,0 256,-114.615 256,-256c0,-141.385 -114.615,-256 -256,-256c-141.385,0 -256,114.615 -256,256c0,141.385 114.615,256 256,256Z" style="fill:#3a67fa;fill-rule:nonzero;"/><path d="M497.223,341.857l-116.136,-116.134l-88.314,13.575l-68.391,-61.263l-93.657,13.032l-19.725,151.09l159.634,169.419c104.87,-5.916 192.856,-74.948 226.589,-169.719Z" style="fill:#2451d1;fill-rule:nonzero;"/><path d="M233.492,241.567c5.071,-7.898 7.969,-17.316 7.801,-27.416c-0.446,-27.026 -22.938,-48.5 -49.968,-48.5l-75.462,0c-3.534,0 -6.399,2.865 -6.399,6.399l0,165.952c0,3.535 2.865,6.398 6.399,6.398l84.296,0c31.285,0 57.203,-25.077 57.328,-56.362c0.08,-19.172 -9.432,-36.171 -23.995,-46.471Zm-90.923,-42.81l49.402,0c8.945,0 16.225,7.279 16.225,16.224c0,8.946 -7.28,16.225 -16.225,16.225l-49.402,0l0,-32.449Zm58.323,112.539l-58.323,0l0,-46.983l58.323,0c12.954,0 23.492,10.541 23.492,23.491c-0.002,12.954 -10.538,23.492 -23.492,23.492Z" style="fill:#fff;fill-rule:nonzero;"/><path d="M402.534,276.27c0,-38.64 -30.454,-70.078 -67.891,-70.078c-37.438,0 -67.893,31.438 -67.893,70.078c0,38.643 30.459,70.078 67.893,70.078c22.715,0 43.822,-11.643 56.463,-31.148c1.574,-2.434 3.008,-4.976 4.277,-7.594c0.921,-1.902 -0.477,-4.114 -2.591,-4.116l-33.373,-0.084c-0.736,0 -1.44,0.3 -1.966,0.813c-6.303,6.128 -14.027,9.026 -22.808,9.026c-16.587,0 -30.49,-12.405 -33.951,-28.941l95.199,0c3.668,0 6.641,-2.975 6.641,-6.646l0,-1.388Zm-67.891,-36.972c12.146,0 22.852,6.658 29.074,16.715l-58.154,0c6.227,-10.056 16.931,-16.715 29.08,-16.715Z" style="fill:#fff;fill-rule:nonzero;"/><path d="M362.858,197.968l-60.217,0c-2.808,0 -5.087,-2.278 -5.087,-5.087l0,-15.105c0,-2.808 2.279,-5.087 5.087,-5.087l60.217,0c2.809,0 5.085,2.279 5.085,5.087l0,15.105c0,2.813 -2.276,5.087 -5.085,5.087Z" style="fill:#fff;fill-rule:nonzero;"/></g></svg>