<?xml version="1.0" encoding="utf-8"?>
<!-- Generator: Adobe Illustrator 24.0.2, SVG Export Plug-In . SVG Version: 6.00 Build 0)  -->
<svg version="1.0" id="Capa_1" xmlns="http://www.w3.org/2000/svg" xmlns:xlink="http://www.w3.org/1999/xlink" x="0px" y="0px"
	 viewBox="0 0 1920 460" style="enable-background:new 0 0 1920 460;" xml:space="preserve">
<style type="text/css">
	.st0{fill:#F8F8F8;}
	.st1{opacity:0.4;fill:#7561E5;enable-background:new    ;}
</style>
<rect class="st0" width="1920" height="227.6"/>
<path class="st1" d="M1920,51.9v490.9c-61.3,18.7-168.2,38.4-289.8,38.4c-215.8,0-270.6-25.3-596.9-25.3
	c-326.3,0-365.1,25.3-639.5,25.3c-181.2,0-343.1-18.7-393.8-38.4V42.5c28.4,5.6,95.3-19.7,324.5-19.7C591,22.9,588.3,50,910.7,50
	c322.4,0,405-30.9,631.6-30.9C1768.8,19.1,1861.4,42.5,1920,51.9z"/>
<path class="st1" d="M0,600V41.1c50.7,11.5,169.2,23.9,290.8,23.9c216,0,270.8-43.9,597.3-43.9s365.3,43.9,640,43.9
	c237.3,0,323.4-46.8,391.8-64.9v562.8c-28.4-5.7-135.8-28.6-322.5-17.2c-233.9,14.4-264,54.4-586.7,54.4
	c-322.7,0-405.3-50.6-632-50.6S54.2,582.8,0,600z"/>
</svg>
