<svg width="56" height="56" viewBox="0 0 56 56" fill="none" xmlns="http://www.w3.org/2000/svg">
<path d="M28 56C43.464 56 56 43.464 56 28C56 12.536 43.464 0 28 0C12.536 0 0 12.536 0 28C0 43.464 12.536 56 28 56Z" fill="#FFE588"/>
<path opacity="0.5" d="M11.8049 37.6298L30.097 55.9219C44.5815 54.8495 56 42.7585 56 28C56 27.2136 55.9659 26.4352 55.9024 25.6652L46.5001 17L11.8049 37.6298Z" fill="#E59405"/>
<path d="M50 27.9899C50 29.8326 46.9896 31.2552 46.5354 32.9547C46.0654 34.7132 47.9473 37.4477 47.0564 38.9873C46.1529 40.5491 42.8356 40.2803 41.5681 41.5478C40.3006 42.8152 40.5694 46.1326 39.0076 47.0362C37.4679 47.9269 34.7336 46.045 32.975 46.515C31.2755 46.9692 29.8529 49.9796 28.0101 49.9796C26.1674 49.9796 24.7448 46.9692 23.0453 46.515C21.2868 46.045 18.5523 47.9269 17.0127 47.0361C15.4509 46.1325 15.7197 42.8152 14.4522 41.5477C13.1847 40.2802 9.86742 40.549 8.96384 38.9872C8.07311 37.4475 9.95501 34.7132 9.48503 32.9546C9.0308 31.2551 6.02039 29.8325 6.02039 27.9898C6.02039 26.147 9.0308 24.7244 9.48503 23.0249C9.95501 21.2664 8.07311 18.532 8.96394 16.9923C9.86752 15.4305 13.1848 15.6993 14.4523 14.4318C15.7198 13.1643 15.451 9.84703 17.0128 8.94345C18.5524 8.05273 21.2868 9.93462 23.0454 9.46464C24.7449 9.01042 26.1675 6 28.0102 6C29.853 6 31.2756 9.01042 32.9751 9.46464C34.7336 9.93462 37.468 8.05273 39.0077 8.94356C40.5695 9.84714 40.3007 13.1644 41.5682 14.4319C42.8357 15.6994 46.153 15.4306 47.0565 16.9924C47.9473 18.5321 46.0654 21.2664 46.5354 23.025C46.9896 24.7246 50 26.1471 50 27.9899Z" fill="#8B74FF"/>
<path d="M46.5354 23.0252C46.0654 21.2667 47.9473 18.5322 47.0565 16.9926C46.153 15.4308 42.8357 15.6996 41.5682 14.4321C40.3007 13.1646 40.5695 9.84731 39.0077 8.94373C38.0485 8.38875 36.6257 8.90983 35.2641 9.26807C36.3853 10.4672 36.2764 13.2866 37.4219 14.4321C38.6893 15.6996 42.0067 15.4308 42.9103 16.9926C43.8011 18.5322 41.9191 21.2666 42.3891 23.0252C42.8433 24.7247 45.8537 26.1473 45.8537 27.99C45.8537 29.8327 42.8433 31.2553 42.3891 32.9549C41.9191 34.7133 43.801 37.4478 42.9101 38.9874C42.0066 40.5493 38.6893 40.2805 37.4218 41.548C36.2763 42.6935 36.3852 45.5129 35.264 46.712C36.6256 47.0702 38.0484 47.5913 39.0076 47.0363C40.5694 46.1328 40.3006 42.8155 41.5681 41.548C42.8356 40.2805 46.1529 40.5493 47.0564 38.9874C47.9473 37.4478 46.0653 34.7135 46.5354 32.9549C46.9896 31.2553 50 29.8327 50 27.99C50 26.1472 46.9896 24.7246 46.5354 23.0252V23.0252Z" fill="#5944C1"/>
<path d="M28.0103 42.5023C36.0253 42.5023 42.5226 36.0049 42.5226 27.9899C42.5226 19.975 36.0253 13.4776 28.0103 13.4776C19.9954 13.4776 13.498 19.975 13.498 27.9899C13.498 36.0049 19.9954 42.5023 28.0103 42.5023Z" fill="#E1EBF0"/>
<path d="M34.2049 23.6428L23.6632 34.1846C23.153 34.6948 22.3258 34.6948 21.8156 34.1846C21.3054 33.6744 21.3054 32.8473 21.8156 32.337L32.3573 21.7953C32.8675 21.285 33.6947 21.285 34.2049 21.7953C34.7151 22.3056 34.7151 23.1327 34.2049 23.6428V23.6428Z" fill="#6FA5AA"/>
<path d="M23.26 25.2178C24.3525 25.2178 25.238 24.3322 25.238 23.2398C25.238 22.1474 24.3525 21.2618 23.26 21.2618C22.1676 21.2618 21.282 22.1474 21.282 23.2398C21.282 24.3322 22.1676 25.2178 23.26 25.2178Z" fill="#6FA5AA"/>
<path d="M32.7603 34.718C33.8528 34.718 34.7383 33.8324 34.7383 32.74C34.7383 31.6475 33.8528 30.762 32.7603 30.762C31.6679 30.762 30.7823 31.6475 30.7823 32.74C30.7823 33.8324 31.6679 34.718 32.7603 34.718Z" fill="#6FA5AA"/>
</svg>
