<?xml version="1.0" encoding="utf-8"?>
<!-- Generator: Adobe Illustrator 24.0.2, SVG Export Plug-In . SVG Version: 6.00 Build 0)  -->
<svg version="1.0" id="Capa_1" xmlns="http://www.w3.org/2000/svg" xmlns:xlink="http://www.w3.org/1999/xlink" x="0px" y="0px"
	 viewBox="0 0 480 203" style="enable-background:new 0 0 480 203;" xml:space="preserve">
<style type="text/css">
	.st0{fill:#F8F8F8;}
	.st1{opacity:0.4;fill:#7561E5;enable-background:new    ;}
</style>
<rect class="st0" width="480" height="77.4"/>
<g>
	<path class="st1" d="M480,0c-7.9,4.7-16.7,12.8-29.8,20.2C463.9,24,473,28.3,480,30.8V0z"/>
	<path class="st1" d="M304.1,23.3c-20.5-5.8-43-11.5-82.1-11.5c-35.2,0-57.8,4.6-76.4,9.7c19.2,4,39.1,8.3,81.7,8.3
		C261.1,29.8,284.3,26.8,304.1,23.3z"/>
	<path class="st1" d="M6.1,25.5c-2.3-0.9-4.4-1.8-6.1-2.6v2.7C1.5,26.3,3.4,26.1,6.1,25.5z"/>
	<path class="st1" d="M145.6,21.5c-17.1-3.6-33.5-6.9-64.9-6.9c-45.1,0-64.8,8.7-74.6,10.9c14.7,5.5,40.3,10.8,66.6,10.8
		C103.4,36.3,121.1,28.4,145.6,21.5z"/>
	<path class="st1" d="M450.2,20.2c-14.9-4.1-35.4-7.7-64.8-7.7c-33,0-53.8,5.9-81.3,10.8c22.3,6.4,42.1,13,77.9,13
		C413.9,36.3,434.9,28.7,450.2,20.2z"/>
	<path class="st1" d="M480,30.8c-7-2.5-16.1-6.8-29.8-10.6c-15.2,8.6-36.2,16.1-68.2,16.1c-35.8,0-55.6-6.7-77.9-13
		c-19.8,3.5-43,6.5-76.7,6.5c-42.7,0-62.6-4.3-81.7-8.3c-24.5,6.8-42.2,14.8-72.9,14.8c-26.3,0-51.9-5.2-66.6-10.8
		c-2.7,0.6-4.6,0.7-6.1,0.1v177.1h480V30.8z"/>
	<path class="st1" d="M480,30.8c-7-2.5-16.1-6.8-29.8-10.6c-15.2,8.6-36.2,16.1-68.2,16.1c-35.8,0-55.6-6.7-77.9-13
		c-19.8,3.5-43,6.5-76.7,6.5c-42.7,0-62.6-4.3-81.7-8.3c-24.5,6.8-42.2,14.8-72.9,14.8c-26.3,0-51.9-5.2-66.6-10.8
		c-2.7,0.6-4.6,0.7-6.1,0.1v177.1h480V30.8z"/>
</g>
</svg>
