<?xml version="1.0" encoding="utf-8"?>
<!-- Generator: Adobe Illustrator 24.0.2, SVG Export Plug-In . SVG Version: 6.00 Build 0)  -->
<svg version="1.0" id="Capa_1" xmlns="http://www.w3.org/2000/svg" xmlns:xlink="http://www.w3.org/1999/xlink" x="0px" y="0px"
	 viewBox="0 0 480 203" style="enable-background:new 0 0 480 203;" xml:space="preserve">
<style type="text/css">
	.st0{fill:#F8F8F8;}
	.st1{opacity:0.4;fill:#7561E5;enable-background:new    ;}
</style>
<g>
	
		<rect x="-0.4" y="125.6" transform="matrix(-1 -8.979363e-11 8.979363e-11 -1 479.2088 328.57)" class="st0" width="480" height="77.4"/>
	<g>
		<path class="st1" d="M-0.4,203c7.9-4.7,16.7-12.8,29.8-20.2c-13.8-3.8-22.8-8.1-29.8-10.6V203z"/>
		<path class="st1" d="M175.5,179.7c20.5,5.8,43,11.5,82.1,11.5c35.2,0,57.8-4.6,76.4-9.7c-19.2-4-39.1-8.3-81.7-8.3
			C218.5,173.2,195.3,176.2,175.5,179.7z"/>
		<path class="st1" d="M473.5,177.5c2.3,0.9,4.4,1.8,6.1,2.6v-2.7C478.1,176.7,476.2,176.9,473.5,177.5z"/>
		<path class="st1" d="M334,181.5c17.1,3.6,33.5,6.9,64.9,6.9c45.1,0,64.8-8.7,74.6-10.9c-14.7-5.5-40.3-10.8-66.6-10.8
			C376.2,166.7,358.5,174.6,334,181.5z"/>
		<path class="st1" d="M29.4,182.8c14.9,4.1,35.4,7.7,64.8,7.7c33,0,53.8-5.9,81.3-10.8c-22.3-6.4-42.1-13-77.9-13
			C65.7,166.7,44.7,174.3,29.4,182.8z"/>
		<path class="st1" d="M-0.4,172.2c7,2.5,16.1,6.8,29.8,10.6c15.2-8.6,36.2-16.1,68.2-16.1c35.8,0,55.6,6.7,77.9,13
			c19.8-3.5,43-6.5,76.7-6.5c42.7,0,62.6,4.3,81.7,8.3c24.5-6.8,42.2-14.8,72.9-14.8c26.3,0,51.9,5.2,66.6,10.8
			c2.7-0.6,4.6-0.7,6.1-0.1V0.3l-480,0L-0.4,172.2z"/>
		<path class="st1" d="M-0.4,172.2c7,2.5,16.1,6.8,29.8,10.6c15.2-8.6,36.2-16.1,68.2-16.1c35.8,0,55.6,6.7,77.9,13
			c19.8-3.5,43-6.5,76.7-6.5c42.7,0,62.6,4.3,81.7,8.3c24.5-6.8,42.2-14.8,72.9-14.8c26.3,0,51.9,5.2,66.6,10.8
			c2.7-0.6,4.6-0.7,6.1-0.1V0.3l-480,0L-0.4,172.2z"/>
	</g>
</g>
</svg>
