<?xml version="1.0" encoding="utf-8"?>
<!-- Generator: Adobe Illustrator 24.0.2, SVG Export Plug-In . SVG Version: 6.00 Build 0)  -->
<svg version="1.0" id="Capa_1" xmlns="http://www.w3.org/2000/svg" xmlns:xlink="http://www.w3.org/1999/xlink" x="0px" y="0px"
	 viewBox="0 0 1920 460" style="enable-background:new 0 0 1920 460;" xml:space="preserve">
<style type="text/css">
	.st0{fill:#F8F8F8;}
	.st1{opacity:0.4;fill:#7561E5;enable-background:new    ;}
</style>
<path class="st0" d="M1630.2,422.1c-100.6,0-166.3-5.5-240.7-11.4c-92.5,15-180.3,30.1-378.7,30.1c-171.2,0-274.8-14.2-368.2-27.6
	c-67.6,4.8-139.5,8.8-248.8,8.8c-98.7,0-191.8-5.6-264.2-13.8C67.2,418.9,27.8,432,0,440.8V460h1920v-56.4
	c-8.3-1.7-23.3-4.8-44.9-8.1C1812.6,409.8,1726,422.1,1630.2,422.1z"/>
<path class="st0" d="M642.6,432.4c-82.7-11.8-157.4-23-263.8-23c-110.3,0-190.1,7.9-249.2,18c72.4,8.3,165.4,13.8,264.2,13.8
	C503.1,441.2,575,437.2,642.6,432.4z"/>
<path class="st1" d="M642.6,432.4c-82.7-11.8-157.4-23-263.8-23c-110.3,0-190.1,7.9-249.2,18c72.4,8.3,165.4,13.8,264.2,13.8
	C503.1,441.2,575,437.2,642.6,432.4z"/>
<path class="st0" d="M1875.1,414.7c-52.8-8.1-145.2-17.2-277.6-9.1c-90.1,5.5-150,14.9-208,24.3c74.4,5.9,140.1,11.4,240.7,11.4
	C1726,441.2,1812.6,429,1875.1,414.7z"/>
<path class="st1" d="M1875.1,414.7c-52.8-8.1-145.2-17.2-277.6-9.1c-90.1,5.5-150,14.9-208,24.3c74.4,5.9,140.1,11.4,240.7,11.4
	C1726,441.2,1812.6,429,1875.1,414.7z"/>
<path class="st0" d="M1920,422.8v-20c-13,4-28.1,8-44.9,11.9C1896.7,418,1911.7,421.1,1920,422.8z"/>
<path class="st1" d="M1920,422.8v-20c-13,4-28.1,8-44.9,11.9C1896.7,418,1911.7,421.1,1920,422.8z"/>
<path class="st0" d="M0,402.8V460c27.8-8.8,67.2-21.9,129.6-32.6C69.1,420.5,23,411.8,0,402.8z"/>
<path class="st1" d="M0,402.8V460c27.8-8.8,67.2-21.9,129.6-32.6C69.1,420.5,23,411.8,0,402.8z"/>
<path class="st0" d="M1389.5,429.9c-85.2-6.7-182-13.9-356.2-13.9c-196.3,0-288.6,9.2-390.7,16.5C736,445.8,839.7,460,1010.8,460
	C1209.2,460,1297,444.9,1389.5,429.9z"/>
<path class="st1" d="M1389.5,429.9c-85.2-6.7-182-13.9-356.2-13.9c-196.3,0-288.6,9.2-390.7,16.5C736,445.8,839.7,460,1010.8,460
	C1209.2,460,1297,444.9,1389.5,429.9z"/>
<path class="st0" d="M0,402.8c23,9,69.1,17.7,129.6,24.6c59.1-10.1,138.9-18,249.2-18c106.4,0,181.1,11.2,263.8,23
	c102.1-7.3,194.4-16.5,390.7-16.5c174.2,0,271,7.2,356.2,13.9c58-9.4,117.9-18.7,208-24.3c132.3-8.1,224.8,1,277.6,9.1
	c16.8-3.9,31.9-7.9,44.9-11.9V2.1H0V402.8z"/>
<path class="st1" d="M0,402.8c23,9,69.1,17.7,129.6,24.6c59.1-10.1,138.9-18,249.2-18c106.4,0,181.1,11.2,263.8,23
	c102.1-7.3,194.4-16.5,390.7-16.5c174.2,0,271,7.2,356.2,13.9c58-9.4,117.9-18.7,208-24.3c132.3-8.1,224.8,1,277.6,9.1
	c16.8-3.9,31.9-7.9,44.9-11.9V2.1H0V402.8z"/>
<path class="st1" d="M0,402c23,9.2,69.1,18.2,129.6,25.3c59.1-10.4,138.9-18.5,249.2-18.5c106.4,0,181.1,11.5,263.8,23.6
	c102.1-7.5,194.4-16.9,390.7-16.9c174.2,0,271,7.4,356.2,14.3c58-9.7,117.9-19.3,208-24.9c132.3-8.3,224.8,1.1,277.6,9.3
	c16.8-4,31.9-8.1,44.9-12.2V-9.8H0V402z"/>
</svg>
