<svg width="217" height="211" viewBox="0 0 217 211" fill="none" xmlns="http://www.w3.org/2000/svg">
<path d="M64.8823 42.1179C64.8823 42.1179 64.3257 45.4913 65.05 47.6677C65.7744 49.8441 66.4988 50.5696 68.3097 51.2951C70.1207 52.0205 75.5535 52.746 78.0888 53.1087C80.6241 53.4715 59.9794 82.1274 59.9794 82.1274L33.5396 56.0106C33.5396 56.0106 33.1774 54.1969 36.7993 52.746C40.4212 51.2951 47.238 50.4209 48.6867 48.9699C48.6867 47.6677 47.3509 42.1179 47.3509 42.1179H64.8823Z" fill="#EEA886"/>
<path d="M78.0887 53.1087C75.5534 52.746 70.1206 52.0205 68.3096 51.2951C66.4987 50.5696 65.7743 49.8441 65.0499 47.6677C64.3256 45.4913 64.8822 42.1179 64.8822 42.1179H47.3523C47.3523 42.1179 47.3632 42.1948 47.3791 42.3316C47.8173 42.9337 50.1643 46.0354 53.0991 47.6685C56.3588 49.4821 58.532 50.2076 60.3429 51.6585C62.1539 53.1095 61.7917 53.1095 62.1539 55.2859C62.5161 57.4623 64.6892 60.0014 64.327 62.1778C63.9648 64.3542 60.3429 68.707 61.0673 71.2461C61.7917 73.7852 61.4295 75.5989 60.3429 76.3244C59.2564 77.0498 57.428 79.6067 57.428 79.6067L59.9793 82.1274C59.9793 82.1274 80.6241 53.4715 78.0887 53.1087Z" fill="#D38B75"/>
<path d="M35.7125 52.7456C33.5394 53.471 22.6738 54.9219 20.5006 61.4511C18.3275 67.9803 15.7922 76.6859 15.43 81.4015C15.0678 86.117 15.0678 100.626 16.5165 102.44C17.9653 104.254 27.0859 97.6468 28.1725 98.3722C29.2591 99.0977 32.4528 115.136 32.4528 115.136C32.4528 115.136 34.2638 118.763 33.5394 124.204C32.815 129.645 28.1066 139.802 27.3822 147.056C26.6578 154.311 27.3822 167.007 27.3822 167.007H92.5762V148.144C92.5762 140.89 86.0568 128.92 86.0568 126.018V123.116C86.0568 123.116 104.363 124.502 104.725 117.973C105.088 111.444 103.08 99.1754 102.355 95.1853C101.631 91.1953 103.442 91.558 101.631 83.5779C99.82 75.5977 98.3712 72.6959 97.6468 69.4313C96.9224 66.1667 94.3871 63.9903 92.5762 60.3629C90.7652 56.7356 88.5921 54.1965 85.6946 53.8338C82.7971 53.471 81.7105 53.471 78.4508 53.1083C75.1911 52.7456 72.9274 52.3375 72.9274 52.3375C72.9274 52.3375 69.3961 65.4412 65.0498 70.5195C62.6927 73.2737 59.2548 77.4114 59.2548 77.4114C59.2548 77.4114 53.4598 71.9704 52.3732 70.5195C49.5398 66.7358 41.5076 50.9319 41.5076 50.9319C41.5076 50.9319 37.8857 52.0201 35.7125 52.7456Z" fill="#FFC800"/>
<path d="M16.7081 69.896C18.1874 69.5262 18.1874 69.896 18.5572 68.4167C20.1597 78.7717 22.995 99.8515 21.5157 101.331C19.6666 103.18 16.7081 103.18 14.1193 102.81C11.5305 102.44 11.1607 105.769 8.57203 104.659C5.98334 103.55 7.09274 102.07 2.65489 97.2628C-1.78295 92.4551 0.43597 85.0587 1.54543 80.9907C2.433 77.7362 6.59965 76.183 8.57203 75.8132C10.6677 74.4572 15.0069 71.7451 15.5986 71.7451C16.3383 71.7451 15.2288 70.2659 16.7081 69.896Z" fill="#FFC800"/>
<path d="M6.50985 47.4735C6.93425 49.4363 8.00303 51.2015 9.54606 52.4881C12.0819 54.5302 13.229 55.6509 15.3737 54.71C17.5184 53.7691 17.3655 52.3616 17.3655 52.3616C18.4225 51.2906 19.3687 50.1157 20.1897 48.8547C21.5636 46.7494 21.0166 46.63 21.9198 45.1091C22.823 43.5883 27.2543 38.485 27.7674 36.65C28.2805 34.8149 28.0855 34.6578 27.1483 34.2243C26.2112 33.7908 24.9178 34.9975 23.7008 36.908C22.4838 38.8185 19.4264 41.8164 19.4264 41.8164C19.4264 41.8164 18.5274 41.7348 18.4511 41.031C18.3747 40.3272 19.3246 35.9532 19.5239 34.5078C19.7232 33.0624 20.0836 29.8197 20.3211 28.7262C20.5586 27.6327 19.9352 26.8096 18.8412 26.5709C17.7471 26.3322 16.8057 27.5011 16.8015 29.1036C16.7972 30.7061 15.4191 34.414 14.7873 36.7958C14.1554 39.1776 14.0367 39.7243 14.0367 39.7243C14.0367 39.7243 13.019 40.1894 11.3779 39.8314C9.73685 39.4733 7.93888 39.3101 7.11622 39.9323C6.29357 40.5546 5.42428 44.0299 5.772 45.5946C6.11973 47.1594 6.50985 47.4735 6.50985 47.4735Z" fill="#EEA886"/>
<path d="M21.8853 76.183C19.5185 74.4078 15.7216 73.964 14.1191 73.964C12.27 74.4571 9.68122 75.5912 14.1191 76.183C19.6664 76.9226 23.3646 81.3605 24.1042 82.8397C24.6959 84.0232 26.0766 85.3052 26.693 85.7983C26.4464 85.4285 25.8054 84.319 25.2137 82.8397C24.4741 80.9906 24.8439 78.4019 21.8853 76.183Z" fill="#EFA903"/>
<path d="M18.6849 72.5384C17.8003 72.6319 16.9701 72.7492 16.3381 72.8546C17.1407 72.6316 17.9254 72.5347 18.6849 72.5384C20.9056 72.3038 23.4695 72.2198 24.1042 72.8546C24.9918 73.7421 26.9396 76.4295 27.8025 77.6623C26.4415 75.7778 22.9643 72.5595 18.6849 72.5384Z" fill="#EFA903"/>
<path d="M6.72297 54.3636C4.94783 51.7008 5.98333 46.5973 6.72297 44.3784C10.5445 43.8853 17.5957 45.118 15.2289 53.9937C12.2703 65.0884 17.078 82.4699 16.3383 87.2776C15.5987 92.0853 11.1608 95.7835 9.31173 95.4137C7.46263 95.0438 3.76443 95.0438 1.91532 84.6889C0.0662183 74.3339 6.72297 60.6505 6.72297 54.3636Z" fill="#EEA886"/>
<path d="M7.97241 41.2644L7.13705 46.6941L6.50946 47.4734L6.05507 46.6077L6.67059 45.6761L7.97241 41.2644Z" fill="#A77860"/>
<path d="M11.2885 43.9349L10.6609 44.7142L12.4589 44.8774C12.6804 45.0642 12.8344 45.3186 12.8973 45.6013C12.9601 45.8841 12.9283 46.1795 12.8066 46.4422C12.4716 47.2772 12.2078 48.1392 12.0179 49.0188L13.3833 50.1184L14.6343 50.1623C14.6343 50.1623 13.6971 49.7287 13.659 49.3768C13.6208 49.0249 14.0533 48.0885 14.4053 48.0508C14.7573 48.013 15.7182 46.8406 16.4908 46.6694C17.2634 46.4983 17.8867 47.3215 17.8867 47.3215C17.8867 47.3215 17.2634 46.4983 17.1871 45.7945L17.1107 45.0906C17.1107 45.0906 16.3644 46.4167 15.4273 45.9832C14.4901 45.5496 14.1381 45.5874 14.2569 45.0406C14.3756 44.4939 14.1042 43.633 14.3798 42.8914C14.6555 42.1498 13.7141 43.3188 13.4003 43.7084C13.0865 44.0981 11.5599 44.7958 11.2885 43.9349Z" fill="#A77860"/>
<path d="M10.6611 44.7139L9.48228 46.9763L11.0428 48.233L9.99114 46.7437L10.6611 44.7139Z" fill="#A77860"/>
<path d="M9.48217 46.9768C9.48217 46.9768 8.70191 46.3485 8.34995 46.3862C7.93961 46.4634 7.53456 46.5663 7.13717 46.6942C7.13717 46.6942 7.5697 45.7578 8.11672 45.8772C8.66375 45.9965 9.48217 46.9768 9.48217 46.9768Z" fill="#A77860"/>
<path d="M48.041 42.9157C48.041 42.9157 52.011 48.393 58.1682 48.7557C64.3254 49.1184 64.8712 46.9823 64.8712 46.9823C64.8712 46.9823 64.7452 44.7508 64.7166 43.6698C64.6745 43.1464 64.7307 42.6197 64.8821 42.1169L48.041 42.9157Z" fill="#A77860"/>
<path d="M50.5623 12.1197L49.4758 9.58057L45.4917 8.12964C44.2787 9.57008 42.9459 10.9049 41.5076 12.1197C38.9723 14.2961 34.9882 19.0116 36.0748 21.5508C37.1614 24.0899 40.7832 26.2663 39.6967 28.08C38.6101 29.8936 33.5395 31.3446 34.9882 34.6092C36.437 37.8738 39.3345 38.2365 37.8857 40.7756C36.437 43.3148 37.1614 45.1284 39.6967 46.2166C42.232 47.3048 43.0377 48.9342 45.573 50.3851C46.9883 50.1021 48.4037 49.2529 48.6867 48.9698L48.0411 42.9157L48.027 21.5508L50.5623 12.1197Z" fill="#1E2E4C"/>
<path d="M55.6936 10.6463C55.6936 10.6463 61.5973 13.147 63.6867 13.9029C65.7762 14.6588 68.5513 19.1857 68.4314 25.0838C68.3115 30.9818 66.7998 39.1941 66.1065 40.3476C65.4133 41.5011 61.4281 44.403 63.6013 49.1185C65.7744 53.834 73.3804 60.3632 73.3804 60.3632L70.4829 46.9421L75.1913 35.3346L72.656 24.0899L66.861 13.5706L63.6013 6.67871L55.6936 10.6463Z" fill="#1E2E4C"/>
<path d="M54.5463 10.6685C59.9672 10.3058 66.8608 14.2958 67.9473 21.5505C69.0339 28.8052 67.9473 32.4325 67.9473 32.4325C67.9473 32.4325 67.2229 39.3244 65.412 41.5008C63.6011 43.6772 60.3414 46.9418 56.7195 46.9418C53.0976 46.9418 48.3891 44.0399 46.9404 41.5008C45.4916 38.9617 42.9563 33.158 42.9563 27.717C42.9563 22.276 43.6807 11.394 54.5463 10.6685Z" fill="#EEA886"/>
<path d="M50.4637 11.565C50.4637 11.565 47.6647 12.1196 46.5781 10.6687C45.4916 9.21773 44.405 4.86493 48.0269 2.68853C51.6488 0.512135 55.995 -1.30153 61.4279 1.2376C66.8607 3.77673 66.1363 5.5904 69.7582 9.58046C73.3801 13.5705 78.0886 15.3842 79.5373 19.0115C80.9861 22.6389 80.6239 23.3643 79.5373 25.9035C78.4507 28.4426 75.191 28.8053 76.6398 30.2563C78.0886 31.7072 82.4348 30.9817 80.6239 35.3345C78.8129 39.6873 77.002 42.9519 74.8288 44.0401C72.6557 45.1283 70.1204 48.7556 73.7423 50.2066C77.3642 51.6575 84.2458 53.1084 80.9861 57.4612C77.7264 61.814 79.5373 65.8041 80.2617 68.3432C80.9861 70.8824 79.5373 74.147 75.191 74.5097C70.8448 74.8724 61.4279 74.5097 64.6876 69.0687C67.9473 63.6277 67.2229 60.3631 66.1363 58.9122C65.0497 57.4612 62.5144 54.9221 63.601 51.2948C64.6876 47.6674 67.2229 46.5792 68.3095 45.1283C69.396 43.6774 65.7741 40.4128 68.3095 35.3345C70.8448 30.2563 70.1204 28.8053 70.1204 28.8053C68.2759 26.5141 66.8087 23.9426 65.7741 21.1879C63.9632 16.4724 65.0497 10.3059 61.7901 9.9432C58.5304 9.58046 52.9005 11.7362 50.4637 11.565Z" fill="#1E2E4C"/>
<path d="M46.578 13.5706C46.578 13.5706 43.8935 19.2568 43.6059 20.7665C43.3183 22.2762 44.7671 23.3644 44.4049 25.178C44.0427 26.9917 43.6805 26.9917 43.6805 29.8935C43.6805 32.7954 43.3422 33.9221 44.2357 35.1724C45.1293 36.4227 46.2158 37.5109 45.1293 38.9619C44.0427 40.4128 48.0268 44.4029 48.0268 45.8538V46.942C48.0268 46.942 44.7671 45.8538 43.6805 44.7656C42.594 43.6774 42.2318 40.4128 42.9561 38.9619C43.6805 37.5109 38.6099 37.1482 39.3343 34.6091C40.0586 32.0699 41.5074 30.2563 41.5074 28.8053C41.5074 27.3544 37.8855 24.4525 39.3343 21.188C40.783 17.9234 46.578 13.5706 46.578 13.5706Z" fill="#1E2E4C"/>
<path opacity="0.6" d="M67.2227 104.254C67.2227 104.254 69.758 106.067 72.6555 105.705C74.3027 105.524 75.9005 105.032 77.3639 104.254C77.3639 104.254 77.0018 101.715 75.9152 101.715C74.8286 101.715 71.5689 103.891 69.758 103.891C67.947 103.891 67.2227 104.254 67.2227 104.254Z" fill="#E59405"/>
<path opacity="0.6" d="M86.9739 106.508C86.9739 106.508 84.9506 106.014 84.6081 105.769C84.4269 105.639 83.5216 105.316 83.5215 104.617C83.5215 104.617 83.8837 98.4501 84.6081 95.9109C85.3324 93.3718 85.6946 90.8327 85.3324 89.019C84.9702 87.2053 86.6042 89.0191 88.0835 89.8664C89.193 90.5018 88.4457 94.8227 88.0835 95.9109C87.7213 96.9991 86.9739 106.508 86.9739 106.508Z" fill="#E59405"/>
<path d="M54.9087 117.675L52.7356 106.067H57.0819L57.8062 119.126L54.9087 117.675Z" fill="#FFC800"/>
<path opacity="0.6" d="M84.9705 75.9606C84.9705 75.9606 85.3326 67.9805 86.057 66.1668C86.7814 64.3532 87.868 64.3532 87.5058 65.4414C87.1436 66.5296 84.9705 74.5097 84.9705 75.9606Z" fill="#E59405"/>
<path opacity="0.6" d="M87.5053 74.5099C87.5053 74.5099 88.2297 68.7061 88.9541 67.6179C89.6785 66.5297 89.6785 63.6279 90.0407 62.1769C90.4028 60.726 90.0407 60.3633 90.0407 60.3633C90.0407 60.3633 91.1272 65.8043 90.765 67.6179C90.4028 69.4316 87.1431 73.7844 87.5053 74.5099Z" fill="#E59405"/>
<path opacity="0.6" d="M24.9605 61.0101C25.3227 59.5592 25.6849 62.8238 26.4093 65.0002L27.1336 67.1766C27.1336 67.1766 24.2361 63.912 24.9605 61.0101Z" fill="#E59405"/>
<path opacity="0.6" d="M61.0659 104.979C61.0659 104.979 64.6878 98.0875 69.3963 95.5484C72.1022 94.0891 72.8443 92.2406 72.656 93.372C72.2938 95.5484 61.0659 104.979 61.0659 104.979Z" fill="#E59405"/>
<path d="M83.6455 117.973V103.92C84.755 103.673 86.9739 103.772 86.9739 106.139C86.9739 108.506 86.2343 118.959 85.8644 123.89C85.1248 122.657 83.6455 119.748 83.6455 117.973Z" fill="#EFA903"/>
<path opacity="0.6" d="M84.0156 106.508C84.0156 106.508 87.8875 98.9807 90.4687 98.443C93.0499 97.9053 89.6083 100.594 88.7479 101.131C87.8875 101.669 84.0156 106.508 84.0156 106.508Z" fill="#E59405"/>
<path opacity="0.6" d="M83.538 107.122C83.538 107.122 89.8619 101.494 92.4635 101.923C95.0651 102.351 90.886 103.619 89.8896 103.811C88.8933 104.002 83.538 107.122 83.538 107.122Z" fill="#E59405"/>
<path d="M165.04 158.491C165.04 158.491 167.396 161.188 167.781 161.244C168.166 161.3 177.133 159.076 179.008 156.995C180.882 154.914 186.527 149.066 186.527 149.066L185.668 141.485C185.668 141.485 182.478 141.805 181.709 141.693C180.94 141.581 168.105 142.85 168.105 142.85L164.355 147.012L162.742 154.036L165.04 158.491Z" fill="#EEA886"/>
<path d="M98.2957 215.396L152.512 223.297C152.512 223.297 158.486 197.878 157.825 183.728C157.164 169.579 108.132 169.687 104.497 175.957C100.862 182.226 98.2957 215.396 98.2957 215.396Z" fill="#1E2E4C"/>
<path d="M136.527 190.597L136.208 191.91L130.431 191.069L127.214 206.918L129.218 189.532L136.527 190.597Z" fill="#0C1937"/>
<path d="M129.349 192.271L125.329 219.335L120.927 218.667L129.349 192.271Z" fill="#0C1937"/>
<path opacity="0.35" d="M156.807 199.898C156.807 199.898 158.218 191.236 157.859 188.594C157.5 185.952 102.887 180.583 102.887 180.583C102.887 180.583 101.272 188.73 100.725 192.633C100.71 192.732 115.192 189.755 129.348 192.271C143.505 194.788 156.807 199.898 156.807 199.898Z" fill="#0C1937"/>
<path d="M158.341 74.9699L160.074 86.8793L156.126 99.9529L147.018 104.69L139.618 93.5571L139.804 88.1241L158.341 74.9699Z" fill="#EEA886"/>
<path d="M158.495 76.8782L158.653 78.8483C158.653 78.8483 157.151 81.3399 156.697 83.2671C156.243 85.1942 154.151 88.4373 151.998 89.9044C149.01 91.9383 141.657 96.5398 141.657 96.5398L139.62 93.5558L139.689 91.5318L156.107 77.8054L156.924 76.6689L158.495 76.8782Z" fill="#A77860"/>
<path d="M159.375 87.0364C159.375 87.0364 155.439 96.8609 154.117 97.8454C152.795 98.8299 146.577 101.063 146.577 101.063C146.577 101.063 140.111 95.7528 139.56 94.7176C139.228 94.0646 139.092 93.3301 139.167 92.6018L134.142 83.9478L104.469 182.427C104.469 182.427 117.261 189 127.207 190.842C137.153 192.684 149.142 191.292 149.142 191.292L162.972 96.3892L159.375 87.0364Z" fill="white"/>
<path d="M139.615 93.5737C137.244 89.9487 133.184 83.9328 133.184 83.9328C133.184 83.9328 121.007 82.4258 116.656 85.3232C112.305 88.2206 106.341 139.93 106.341 139.93C106.341 139.93 102.066 155.787 100.457 161.439C98.8473 167.09 95.1881 178.72 94.7961 181.41C94.4042 184.1 94.4456 189.207 94.4456 189.207C94.4456 189.207 100.265 192.409 103.965 185.885C107.666 179.362 113.256 165.266 116.852 156.765C120.448 148.264 122.61 141.517 125.212 134.441C127.815 127.365 132.292 118.208 135.552 112.012C137.41 108.482 138.932 103.25 140.915 100.826C142.349 99.0732 141.987 97.199 139.615 93.5737Z" fill="#8B74FF"/>
<path d="M153.942 101.744C155.435 100.443 159.308 89.185 159.308 89.185C159.308 89.185 161.238 86.7197 162.777 86.944C164.316 87.1682 170.568 92.788 173.149 93.9489C175.73 95.1097 182.046 97.5997 183.57 103.315C185.094 109.031 185.8 112.273 184.359 116.771C182.918 121.27 184.456 121.494 184.288 122.647C184.12 123.799 182.686 125.552 182.574 126.321C182.414 127.616 182.097 128.888 181.63 130.107C181.021 131.588 181.398 134.389 181.559 135.982C181.72 137.575 181.489 141.858 181.489 141.858C181.489 141.858 173.956 142.329 171.864 143.202C169.773 144.074 164.485 148.012 163.876 149.493C163.267 150.974 163.092 154.872 163.092 154.872L165.064 157.514C165.064 157.514 165.532 167.784 165.252 169.705C164.972 171.626 165.454 176.405 165.607 180.743C165.761 185.082 164.186 198.586 164.186 198.586C164.186 198.586 139.51 195.382 143.135 175.899C146.76 156.416 149.083 151.261 149.083 151.261C149.083 151.261 145.847 127.639 146.574 122.644C147.302 117.649 149.177 115.568 149.072 113.591C148.968 111.613 151.242 104.097 153.942 101.744Z" fill="#8B74FF"/>
<path d="M159.899 84.0522C159.899 84.0522 162.777 86.9437 162.994 88.1525C163.211 89.3612 164.189 93.4276 164.021 94.5803L162.79 103.033C162.79 103.033 161.412 104.402 160.321 101.104C159.23 97.8059 159.51 95.8847 158.461 97.6937C157.411 99.5027 158.013 100.768 156.747 101.368C155.481 101.968 153.221 103.993 152.669 105.09C152.116 106.186 152.549 108.604 151.556 110.028L149.073 113.59C149.073 113.59 148.695 110.789 149.8 108.595C150.906 106.402 153.284 100.863 154.278 99.4384C155.271 98.0137 155.868 95.2171 156.623 93.4334C157.377 91.6497 158.274 86.0501 159.899 84.0522Z" fill="#6457BC"/>
<path d="M168.292 121.885C168.292 121.885 162.863 137.574 162.583 139.495C162.303 141.416 161.896 149.597 161.896 149.597L163.477 154.928C163.477 154.928 163.065 144.274 163.674 142.793C164.282 141.312 166.71 138.134 169.459 138.142C171.111 138.148 172.751 137.855 174.299 137.278C174.299 137.278 168.2 135.997 167.214 134.676C166.228 133.355 168.292 121.885 168.292 121.885Z" fill="#6457BC"/>
<path d="M140.826 95.6039C140.826 95.6039 138.625 93.6257 137.688 94.6663C136.75 95.7068 133.281 97.9479 132.456 98.22C131.941 98.3838 131.398 98.4383 130.861 98.3799C130.861 98.3799 134.345 90.6477 134.457 89.8792C134.569 89.1108 132.989 83.7795 132.989 83.7795C132.989 83.7795 141.109 94.5555 140.826 95.6039Z" fill="#6457BC"/>
<path d="M163.096 72.4139C164.487 65.857 160.935 67.2889 160.935 67.2889L156.724 53.9345L135.355 53.1994C133.746 55.4457 132.843 58.1194 132.759 60.8806C132.6 65.5374 132.185 66.3001 132.494 68.6417C132.803 70.9834 131.558 73.2716 131.505 74.824C131.452 76.3764 133.373 88.4862 135.262 90.105C137.152 91.7239 143.355 92.3262 146.918 90.5061C150.481 88.6859 154.432 86.8796 155.303 84.1899C156.174 81.5003 157.081 77.6464 157.081 77.6464C157.081 77.6464 161.705 78.9708 163.096 72.4139Z" fill="#EEA886"/>
<path d="M156.022 68.8683C156.022 68.8683 155.912 60.706 154.786 59.5018C153.66 58.2975 149.643 62.0443 143.064 61.0409C136.486 60.0375 131.126 57.5225 130.51 52.839C129.893 48.1555 133.883 45.1847 136.951 46.4559C140.019 47.727 147.883 45.2779 151.004 44.9967C154.125 44.7155 163.304 49.3048 163.481 55.5259C163.56 59.5093 163.256 63.491 162.573 67.4161L160.751 67.0875C160.751 67.0875 158.769 68.1849 157.951 69.322C157.132 70.4592 156.882 77.8328 156.882 77.8328C156.882 77.8328 155.693 83.8816 156.155 84.7376C156.618 85.5937 152.652 87.7888 151.059 88.8997C149.465 90.0106 142.754 92.8877 142.754 92.8877C142.754 92.8877 139.659 92.3927 138.105 92.3393L133.832 92.1924L131.642 76.5771C131.642 76.5771 133.571 77.032 134.71 77.8482L135.848 78.6643C136.876 78.4598 137.922 78.3655 138.97 78.383C140.524 78.4365 146.714 79.4265 146.714 79.4265C146.714 79.4265 149.888 77.5933 152.232 77.2855C154.577 76.9778 155.729 77.4055 155.729 77.4055L156.022 68.8683Z" fill="#0C1937"/>
<path d="M184.293 141.481C184.293 141.481 180.663 142.129 180.383 144.051C180.103 145.972 180.865 148.829 181.082 150.038C181.299 151.247 180.739 155.089 180.739 155.089L186.363 148.846L184.293 141.481Z" fill="#A77860"/>
<path d="M182.154 148.752C181.574 148.018 181.163 147.167 180.95 146.257C180.736 145.347 180.725 144.402 180.918 143.487C181.466 140.92 182.044 138.502 184.359 136.124C186.675 133.747 189.899 129.653 190.975 128.289C192.051 126.925 194.075 122.11 195.957 123.369C197.84 124.627 196.766 125.993 196.023 128.06C195.279 130.126 192.944 133.372 192.758 133.889C192.572 134.406 193.069 135.46 193.069 135.46C194.104 135.831 208.752 134.09 208.752 134.09C208.752 134.09 210.138 134.296 210.284 135.515C210.43 136.734 206.066 137.501 206.066 137.501L201.329 139.301C201.329 139.301 208.487 138.079 208.799 139.649C208.887 140.09 208.827 140.548 208.63 140.952C208.432 141.355 208.106 141.683 207.704 141.883L201.229 143.642C201.229 143.642 204.539 143.372 204.333 144.757C204.127 146.142 201.499 146.949 199.928 147.259C198.356 147.57 192.624 147.262 192.624 147.262C192.624 147.262 191.735 148.11 192.252 148.295C192.77 148.481 193.97 149.204 194.673 148.873C195.376 148.543 196.246 148.563 196.226 149.431C196.206 150.299 195.058 151.053 193.485 151.364C192.723 151.515 189.605 149.97 188.385 150.116C187.164 150.261 184.018 150.88 182.154 148.752Z" fill="#EEA886"/>
<path d="M118.729 84.5776C118.729 84.5776 108.791 88.8855 104.223 90.5742C99.6556 92.2628 88.2539 100.411 88.2539 100.411L78.4469 108.399L73.8794 110.087L77.4877 117.676C77.4877 117.676 78.844 124.544 78.1793 126.409C77.5147 128.274 81.5782 130.044 81.5782 130.044C81.5782 130.044 92.8679 122.664 96.2254 121.192C99.5829 119.719 104.038 118.799 104.038 118.799L110.257 116.566L118.729 84.5776Z" fill="#8B74FF"/>
<path d="M110.803 116.32C110.803 116.32 105.17 119.792 103.275 120.37C101.379 120.949 95.9941 125.474 95.9941 125.474L90.9786 130.237L88.9704 129.166C88.9704 129.166 83.8415 128.547 86.0677 126.944C88.294 125.34 90.117 121.339 90.117 121.339L90.3334 117.675C90.3334 117.675 94.567 119.61 95.427 119.739C97.3487 120.028 107.722 117.977 110.803 116.32Z" fill="#6457BC"/>
<path d="M90.8937 130.089C90.8937 130.089 85.7735 132.874 80.9406 130.992C76.1076 129.111 72.7087 125.477 73.1006 122.787L73.8286 117.792L86.3916 107.067L91.7772 107.852C91.7772 107.852 94.6378 118.606 94.1338 122.064C93.6299 125.522 90.8937 130.089 90.8937 130.089Z" fill="#EEA886"/>
<path d="M90.4297 118.446L75.5951 116.284L73.8286 117.792L73.1007 122.787C72.7087 125.476 76.1076 129.111 80.9406 130.992C83.2686 131.899 85.6616 131.72 87.5185 131.295C87.2731 130.644 87.0608 129.98 86.8825 129.308C86.3931 127.274 86.9458 126.178 87.5544 124.697C88.1631 123.216 90.4297 118.446 90.4297 118.446Z" fill="#A77860"/>
<path d="M72.1256 117.348C74.2415 119.636 77.063 121.152 80.1407 121.655C85.1416 122.384 87.5593 122.976 89.6836 120.026C91.8079 117.077 90.4931 115.316 90.4931 115.316C91.0608 113.05 91.3985 110.733 91.501 108.4C91.6762 104.502 90.8508 104.774 90.8581 102.028C90.8654 99.2824 92.7619 88.9645 91.9998 86.1067C91.2377 83.249 90.853 83.1929 89.2583 83.3529C87.6635 83.5129 86.8869 86.1464 86.7676 89.6604C86.6484 93.1745 84.9271 99.5941 84.9271 99.5941C84.9271 99.5941 83.661 100.194 83.0037 99.3138C82.3463 98.4333 80.1647 91.8372 79.2906 89.7479C78.4165 87.6586 76.3396 83.0398 75.7942 81.3908C75.2488 79.7418 73.7661 79.1333 72.1153 79.6775C70.4646 80.2217 70.1286 82.527 71.3874 84.6724C72.6462 86.8177 73.7297 92.8613 74.7645 96.5436C75.7993 100.226 76.072 101.05 76.072 101.05C76.072 101.05 75.0787 102.475 72.6026 103.291C70.1265 104.108 67.5944 105.308 66.9857 106.789C66.3771 108.27 67.9573 113.601 69.6567 115.418C71.3562 117.235 72.1256 117.348 72.1256 117.348Z" fill="#EEA886"/>
<path d="M69.1819 107.894L72.3496 115.811L72.1256 117.348L70.8351 116.549L70.9228 114.818L69.1819 107.894Z" fill="#A77860"/>
<path d="M75.7214 108.847L75.4975 110.384L78.0296 109.183C78.4731 109.258 78.8796 109.477 79.1867 109.805C79.4938 110.134 79.6843 110.554 79.729 111.001C79.9402 112.381 80.2676 113.741 80.7078 115.067L83.4006 115.459L85.1074 114.531C85.1074 114.531 83.5126 114.691 83.1839 114.251C82.8552 113.81 82.6945 112.218 83.1352 111.889C83.5759 111.561 83.9352 109.236 84.8329 108.397C85.7306 107.559 87.2133 108.167 87.2133 108.167C87.2133 108.167 85.7306 107.559 85.0732 106.678L84.4158 105.798C84.4158 105.798 84.4645 108.159 82.8698 108.319C81.275 108.479 80.8343 108.807 80.5616 107.983C80.2889 107.158 79.2469 106.222 79.0302 105.013C78.8135 103.804 78.4775 106.11 78.3655 106.878C78.2535 107.647 76.7635 109.784 75.7214 108.847Z" fill="#A77860"/>
<path d="M75.4976 110.384L75.707 114.338L78.7845 114.787L76.2037 113.626L75.4976 110.384Z" fill="#A77860"/>
<path d="M75.7069 114.338C75.7069 114.338 74.1681 114.114 73.7275 114.442C73.2399 114.869 72.7796 115.326 72.3494 115.811C72.3494 115.811 72.1887 114.218 73.0141 113.946C73.8394 113.674 75.7069 114.338 75.7069 114.338Z" fill="#A77860"/>
<path d="M104.039 118.799C104.039 118.799 110.271 111.075 111.985 107.401C113.699 103.727 113.059 105.988 113.059 105.988C113.059 105.988 115.146 118.063 113.6 120.585C112.054 123.106 107.537 130.295 107.537 130.295L109.145 118.23L104.039 118.799Z" fill="#6457BC"/>
</svg>
