<svg width="68" height="64" viewBox="0 0 68 64" fill="none" xmlns="http://www.w3.org/2000/svg">
<path d="M12.1893 12.1893V6.09467C12.1893 2.72736 14.9106 0 18.2871 0H60.9436C62.56 0.00120946 64.1098 0.643616 65.253 1.78624C66.3962 2.92886 67.0393 4.47835 67.0414 6.09467V35.0443C67.0414 38.4071 64.3109 41.139 60.9497 41.139H57.8994V51.8047C57.8994 54.5199 54.6174 55.879 52.6976 53.9592L49.0133 50.2765C48.928 50.2797 48.8427 50.2813 48.7574 50.281H27.1639L14.3438 63.1012C12.424 65.021 9.142 63.6619 9.142 60.9467V50.281H6.09162C4.47694 50.2806 2.92844 49.6393 1.78626 48.498C0.644073 47.3567 0.00161504 45.8087 0 44.194V18.2764C0 14.9243 2.73498 12.1893 6.09772 12.1893H12.1893ZM51.8047 38.0917C51.8047 37.2835 52.1257 36.5084 52.6972 35.9369C53.2687 35.3654 54.0438 35.0443 54.852 35.0443H60.9497C60.9436 35.0443 60.9467 6.09467 60.9467 6.09467H18.2871L18.284 35.0443H41.139C41.9472 35.0445 42.7221 35.3657 43.2935 35.9372L51.8047 44.4484V38.0917ZM12.1893 18.284H6.09772L6.09467 44.1863H12.1893C12.9975 44.1863 13.7726 44.5074 14.3441 45.0789C14.9156 45.6504 15.2367 46.4255 15.2367 47.2337V53.5904L23.7479 45.0792C24.3192 44.5077 25.0942 44.1865 25.9023 44.1863H42.9248L39.8774 41.139H18.284C14.9197 41.139 12.1893 38.4025 12.1893 35.0443V18.284Z" fill="#7561E5"/>
</svg>
