<svg width="84" height="80" viewBox="0 0 84 80" fill="none" xmlns="http://www.w3.org/2000/svg">
<path d="M15.2367 15.2367V7.61834C15.2367 3.40921 18.6383 0 22.8588 0H76.1796C78.2 0.00151183 80.1372 0.80452 81.5662 2.2328C82.9952 3.66108 83.7992 5.59794 83.8017 7.61834V43.8054C83.8017 48.0089 80.3887 51.4238 76.1872 51.4238H72.3742V64.7559C72.3742 68.1498 68.2717 69.8487 65.8719 67.4489L61.2667 62.8456C61.1601 62.8497 61.0534 62.8516 60.9467 62.8513H33.9549L17.9298 78.8764C15.53 81.2762 11.4275 79.5773 11.4275 76.1834V62.8513H7.61453C5.59617 62.8508 3.66055 62.0491 2.23282 60.6225C0.805092 59.1958 0.0020188 57.2608 0 55.2425V22.8455C0 18.6554 3.41873 15.2367 7.62215 15.2367H15.2367ZM64.7559 47.6146C64.7559 46.6043 65.1572 45.6355 65.8715 44.9211C66.5859 44.2068 67.5548 43.8054 68.565 43.8054H76.1872C76.1796 43.8054 76.1834 7.61834 76.1834 7.61834H22.8588L22.855 43.8054H51.4238C52.4339 43.8056 53.4027 44.2071 54.1169 44.9215L64.7559 55.5605V47.6146ZM15.2367 22.855H7.62215L7.61834 55.2329H15.2367C16.2469 55.2329 17.2158 55.6343 17.9302 56.3486C18.6445 57.063 19.0458 58.0319 19.0458 59.0421V66.988L29.6848 56.349C30.399 55.6346 31.3678 55.2332 32.3779 55.2329H53.6559L49.8468 51.4238H22.855C18.6497 51.4238 15.2367 48.0031 15.2367 43.8054V22.855Z" fill="#7561E5"/>
</svg>
