<svg width="14" height="13" viewBox="0 0 14 13" fill="none" xmlns="http://www.w3.org/2000/svg">
<path d="M13.8416 6.5C13.8416 7.78558 13.4615 9.04229 12.7495 10.1112C12.0375 11.1801 11.0255 12.0132 9.84148 12.5052C8.65745 12.9972 7.35458 13.1259 6.09762 12.8751C4.84066 12.6243 3.68608 12.0052 2.77987 11.0962C1.87365 10.1872 1.25649 9.02895 1.00646 7.76808C0.756439 6.5072 0.884779 5.20027 1.37522 4.01255C1.86566 2.82483 2.69617 1.80969 3.76177 1.09546C4.82737 0.381234 6.08018 0 7.36176 0C9.08031 0 10.7285 0.68482 11.9437 1.9038C13.1589 3.12279 13.8416 4.77609 13.8416 6.5ZM6.61235 9.94312L11.419 5.12151C11.4579 5.0826 11.4888 5.03634 11.5099 4.98542C11.531 4.93449 11.5419 4.87989 11.5419 4.82473C11.5419 4.76958 11.531 4.71498 11.5099 4.66405C11.4888 4.61312 11.4579 4.56686 11.419 4.52796L10.8273 3.93925C10.7885 3.90029 10.7425 3.86938 10.6919 3.84829C10.6412 3.82719 10.587 3.81632 10.5321 3.81632C10.4773 3.81632 10.423 3.82719 10.3723 3.84829C10.3217 3.86938 10.2756 3.90029 10.2369 3.93925L6.31612 7.8702L4.48524 6.02945C4.40664 5.95101 4.30026 5.90697 4.18939 5.90697C4.07851 5.90697 3.97214 5.95101 3.89353 6.02945L3.30183 6.62646C3.22363 6.70531 3.17973 6.81199 3.17973 6.92321C3.17973 7.03443 3.22363 7.14114 3.30183 7.21999L6.02131 9.94312C6.0601 9.98221 6.10621 10.0132 6.15698 10.0344C6.20776 10.0556 6.26219 10.0665 6.31717 10.0665C6.37215 10.0665 6.42658 10.0556 6.47735 10.0344C6.52812 10.0132 6.57423 9.98221 6.61302 9.94312H6.61235Z" fill="#0C1937"/>
</svg>
