<svg width="70" height="80" viewBox="0 0 70 80" fill="none" xmlns="http://www.w3.org/2000/svg">
<circle opacity="0.6" cx="27.6471" cy="27.6471" r="27.6471" fill="#C6BBFF"/>
<path d="M49 21.8182H35.914C35.1046 21.8182 34.4545 22.467 34.4545 23.2671V61.0966C34.4545 61.9036 35.0964 62.5455 35.8961 62.5455H62.1039C62.8957 62.5455 63.5455 61.8939 63.5455 61.0889V36.3636H51.9091C50.3024 36.3636 49 35.0612 49 33.4545V21.8182ZM28.6364 27.6364V23.2671C28.6364 19.2512 31.8937 16 35.914 16H51.9091C52.6806 16 53.4206 16.3065 53.9661 16.8521L68.5116 31.3975C69.0571 31.9431 69.3636 32.683 69.3636 33.4545V61.0889C69.3636 65.1035 66.1127 68.3636 62.1039 68.3636H57.7273V72.7253C57.7273 76.7398 54.4763 80 50.4675 80H24.2598C20.2467 80 17 76.7532 17 72.7329V34.9034C17 30.8876 20.2574 27.6364 24.2776 27.6364H28.6364ZM28.6364 33.4545H24.2776C23.4682 33.4545 22.8182 34.1033 22.8182 34.9034V72.7329C22.8182 73.54 23.46 74.1818 24.2598 74.1818H50.4675C51.2593 74.1818 51.9091 73.5302 51.9091 72.7253V68.3636H35.8961C31.8831 68.3636 28.6364 65.1168 28.6364 61.0966V33.4545ZM41.7273 48C40.1206 48 38.8182 46.6976 38.8182 45.0909C38.8182 43.4843 40.1206 42.1818 41.7273 42.1818H56.2727C57.8794 42.1818 59.1818 43.4843 59.1818 45.0909C59.1818 46.6976 57.8794 48 56.2727 48H41.7273ZM41.7273 56.7273C40.1206 56.7273 38.8182 55.4248 38.8182 53.8182C38.8182 52.2115 40.1206 50.9091 41.7273 50.9091H50.4545C52.0612 50.9091 53.3636 52.2115 53.3636 53.8182C53.3636 55.4248 52.0612 56.7273 50.4545 56.7273H41.7273ZM54.8182 30.5455H59.4314L54.8182 25.9323V30.5455Z" fill="#7561E5"/>
</svg>
