<svg width="552" height="269" viewBox="0 0 552 269" fill="none" xmlns="http://www.w3.org/2000/svg">
<path opacity="0.6" d="M8.45645 193.108H526.259C526.259 193.108 567.03 191.106 545.949 212.219C524.869 233.327 443.728 228.29 393.429 258.518C343.134 288.745 351.216 244.243 285.2 241.724C219.179 239.206 17.6351 235.005 15.8127 216.534C14.0007 198.068 -13.4889 193.542 8.45645 193.108Z" fill="#8B74FF"/>
<path d="M255.713 190.089C255.466 191.839 244.975 199.203 242.911 200.674C241.253 201.856 239.812 202.398 237.305 203.342C231.611 204.844 195.885 215.532 195.885 215.532C195.792 215.171 195.741 214.851 195.53 214.444C194.196 214.975 192.822 215.321 191.952 215.594C190.624 216.012 180.066 216.343 177.903 216.761C175.741 217.179 171.417 217.845 169.672 216.178C167.927 214.511 170.753 210.929 173.162 210.01C175.571 209.092 184.385 208.844 185.965 208.679C187.545 208.514 189.625 207.93 190.619 208.261C190.933 208.364 192.328 207.956 194.083 207.347C194.042 206.697 194.032 206.289 194.032 206.289L203.411 203.58L201.676 186.931C201.676 186.931 205.758 171.51 222.062 183.277C222.062 183.277 225.701 184.35 226.947 184.68C227.035 184.706 227.174 184.706 227.364 184.691C229.85 184.5 240.543 181.264 244.403 181.264C248.563 181.264 249.891 181.011 251.389 181.764C252.887 182.508 255.96 188.34 255.713 190.089Z" fill="#FFC800"/>
<path d="M239.008 216.178C237.263 217.845 232.939 217.179 230.777 216.761C228.615 216.343 218.057 216.007 216.728 215.594C215.4 215.176 212.904 214.593 211.158 213.427C211.019 213.334 210.695 213.195 210.227 213.019L207.586 214.929L170.876 203.213C168.678 202.609 166.933 201.691 165.77 200.674C163.855 199.007 153.219 191.839 152.967 190.089C152.72 188.34 155.793 182.503 157.291 181.754C158.789 181.001 160.117 181.254 164.277 181.254C168.431 181.254 180.488 185.006 181.733 184.67C182.3 184.52 183.473 183.917 184.585 183.313C185.918 182.58 187.164 181.837 187.164 181.837C205.017 173.848 207.004 186.92 207.004 186.92L205.949 203.058C205.949 203.058 207.437 203.796 209.372 204.72L218.221 207.229L217.063 208.065C217.562 208.225 217.918 208.302 218.062 208.25C219.06 207.92 221.135 208.503 222.715 208.668C224.296 208.834 233.104 209.086 235.518 210C237.927 210.929 240.753 214.511 239.008 216.178Z" fill="#FFC800"/>
<path d="M184.585 183.313C185.816 183.401 194.135 188.231 196.111 189.382C193.11 187.813 181.733 184.67 181.733 184.67C182.3 184.52 183.473 183.922 184.585 183.313Z" fill="#5478B3"/>
<path d="M227.369 184.686C227.369 184.686 213.037 188.169 210.417 189.63C210.536 189.542 217.969 183.88 221.871 183.127C221.871 183.127 225.706 184.34 226.952 184.675C227.04 184.696 227.179 184.701 227.369 184.686Z" fill="#5478B3"/>
<path d="M239.008 216.178C237.263 217.845 232.939 217.179 230.777 216.761C228.615 216.343 218.057 216.007 216.729 215.594C216.348 215.476 215.869 215.342 215.339 215.182C214.026 214.794 212.404 214.258 211.159 213.427C211.02 213.334 210.695 213.195 210.227 213.019L216.868 208.214L217.058 208.075C217.557 208.235 217.913 208.312 218.057 208.261C219.055 207.93 221.13 208.514 222.71 208.679C224.291 208.844 233.099 209.097 235.513 210.01C237.927 210.929 240.754 214.511 239.008 216.178Z" fill="#EEA886"/>
<path d="M239.009 216.178C237.263 217.845 232.939 217.179 230.777 216.761C228.615 216.343 218.057 216.007 216.729 215.594C216.348 215.476 215.869 215.342 215.339 215.182C215.339 215.182 218.247 212.302 216.873 208.209L217.063 208.07C217.563 208.23 217.918 208.307 218.062 208.256C219.061 207.925 221.135 208.508 222.716 208.674C224.296 208.839 233.104 209.092 235.518 210.005C237.927 210.929 240.754 214.511 239.009 216.178Z" fill="white"/>
<path d="M188.23 186.993C188.251 187.039 188.245 187.07 188.215 187.091C188.05 187.214 188.081 187.163 188.23 186.993Z" fill="#E55353"/>
<path d="M236.275 167.505C236.136 167.226 228.563 155.284 226.509 149.839C224.46 144.394 219.529 141.891 217.197 141.117C216.368 140.838 214.885 140.358 213.326 139.847C210.515 138.934 207.442 137.948 207.442 137.948H197.743C197.743 137.948 194.382 139.078 190.814 140.333H190.809C187.519 141.489 184.06 142.753 182.886 143.341C180.446 144.565 176.349 153.286 175.515 154.288C174.686 155.289 168.292 167.169 167.371 171.732C166.655 175.277 187.648 185.666 188.22 186.998C188.884 186.26 191.941 183.318 191.941 183.318C191.941 183.318 190.963 182.699 189.584 181.79C195.21 182.048 208.95 181.563 210.922 181.661C211.318 181.682 211.75 181.672 212.193 181.635C212.801 182.079 216.739 185.563 216.739 185.563C216.739 185.563 226.437 181.527 230.895 177.006C237.237 170.591 236.97 168.924 236.275 167.505ZM181.131 175.406C179.051 172.908 176.194 171.391 176.91 170.281C177.63 169.172 183.726 158.613 183.726 158.613C183.726 158.613 186.886 165.559 187.772 169.172C188.657 172.784 188.59 174.436 188.214 175.561C187.88 176.567 187.612 177.254 187.308 180.252C184.827 178.554 182.083 176.552 181.131 175.406ZM224.013 174.214C223.199 175.143 219.972 177.197 217.073 178.885C216.852 176.872 216.517 173.698 216.481 172.557C216.425 170.834 217.145 165.889 218.031 164.001C218.916 162.112 219.529 156.946 219.529 156.946C219.529 156.946 226.87 166.947 228.033 168C229.202 169.063 226.767 171.081 224.013 174.214Z" fill="#8B74FF"/>
<path d="M203.756 111.225C203.756 111.225 211.339 112.422 210.186 124.318C209.032 136.214 202.335 135.239 201.887 135.228C201.439 135.213 195.169 135.445 194.68 120.917C194.68 120.917 194.464 110.177 203.756 111.225Z" fill="#EEA886"/>
<path d="M210.304 120.958C210.304 120.958 211.133 120.071 211.436 120.969C211.74 121.867 210.304 125.887 210.252 126.073C210.252 126.073 210.103 126.424 209.902 126.228C209.702 126.037 210.304 120.958 210.304 120.958Z" fill="#EEA886"/>
<path d="M194.881 120.809C194.881 120.809 194.068 119.9 193.743 120.798C193.424 121.691 194.768 125.732 194.829 125.923C194.829 125.923 194.974 126.274 195.18 126.088C195.385 125.897 194.881 120.809 194.881 120.809Z" fill="#EEA886"/>
<path d="M210.299 122.785L209.213 124.241C209.213 124.241 209.243 121.051 209.068 120.551C208.893 120.05 208.626 118.522 208.482 118.161C208.337 117.8 201.97 116.009 196.343 118.682C196.343 118.682 196.59 120.979 196.05 121.18C195.509 121.387 195.777 124.917 195.777 124.917L194.886 123.905C194.886 123.905 193.522 114.75 193.857 113.8C194.196 112.845 195.272 107.112 206.809 110.518C206.809 110.518 210.407 109.754 211.128 112.242C211.848 114.729 210.299 122.785 210.299 122.785Z" fill="#31425E"/>
<path d="M192.595 198.858C192.595 198.858 180.987 191.88 175.916 190.786C171.124 189.748 169.378 187.952 169.378 187.952C169.378 187.952 176.997 187.952 182.068 191.565C185.507 194.017 192.595 198.858 192.595 198.858Z" fill="#E59405"/>
<path d="M202.911 203.719C202.911 203.719 223.107 193.088 231.348 190.786C236.069 189.465 237.886 187.952 237.886 187.952C237.886 187.952 225.402 189.176 217.809 193.759C214.19 195.942 202.911 203.719 202.911 203.719Z" fill="#E59405"/>
<path d="M195.53 214.444C194.196 214.975 192.822 215.321 191.952 215.594C190.624 216.012 180.066 216.343 177.903 216.761C175.741 217.179 171.417 217.845 169.672 216.178C167.927 214.511 170.753 210.929 173.162 210.01C175.571 209.092 184.385 208.844 185.965 208.679C187.545 208.514 189.625 207.93 190.619 208.261C190.933 208.364 192.328 207.956 194.083 207.347C194.145 208.405 195.53 214.444 195.53 214.444Z" fill="#EEA886"/>
<path d="M202.911 213.432L222.762 207.543L218.839 206.341C218.839 206.341 202.973 212.106 202.911 213.432Z" fill="#FFC800"/>
<path d="M202.911 213.432L212.198 210.593L205.758 214.34L202.911 213.432Z" fill="#E59405"/>
<path d="M196.528 189.635C196.508 189.625 196.364 189.537 196.111 189.387C196.276 189.475 196.415 189.558 196.528 189.635Z" fill="#525252"/>
<path d="M191.952 215.594C190.624 216.012 180.066 216.343 177.903 216.761C175.741 217.179 171.417 217.845 169.672 216.178C167.927 214.511 170.753 210.929 173.162 210.01C175.571 209.092 184.385 208.844 185.965 208.679C187.545 208.514 189.625 207.93 190.619 208.261C190.624 208.261 187.957 212.343 191.952 215.594Z" fill="white"/>
<path d="M185.388 187.952L182.331 170.509L221.882 169.59L219.333 186.755C219.333 186.755 206.711 191.384 202.423 194.089C202.428 194.094 191.597 189.635 185.388 187.952Z" fill="#0C1937"/>
<path d="M204.755 181.026C204.755 182.466 203.761 183.638 202.536 183.638C201.311 183.638 200.322 182.466 200.322 181.026C200.322 179.587 201.316 178.415 202.536 178.415C203.761 178.415 204.755 179.587 204.755 181.026Z" fill="#7561E5"/>
<path d="M207.55 137.979C207.545 137.969 207.545 137.959 207.54 137.948C207.066 136.89 207.298 131.724 207.298 131.724C207.298 131.724 197.635 129.257 197.913 131.146C198.191 133.03 197.079 138.175 197.079 138.175L192.122 139.873C192.122 139.873 197.403 154.086 203.473 152.254C209.542 150.422 211.833 139.362 211.833 139.362L207.55 137.979Z" fill="#EEA886"/>
<path d="M198.093 133.283C198.093 133.283 199.607 135.254 202.309 135.254C204.085 135.254 205.3 134.816 207.071 133.087C207.071 133.087 206.366 136.312 202.325 136.617C202.32 136.612 199.426 137.035 198.093 133.283Z" fill="#A77860"/>
<path d="M123.81 206.3L116.345 156.533L117.781 156.316L125.246 206.078L123.81 206.3Z" fill="#BC8551"/>
<path d="M114.693 206.3L107.234 156.533L108.67 156.316L116.134 206.078L114.693 206.3Z" fill="#BC8551"/>
<path d="M69.8034 206.3L68.3672 206.078L75.8316 156.316L77.2678 156.533L69.8034 206.3Z" fill="#BC8551"/>
<path d="M118.682 157.044L124.53 95.3756C124.53 95.3756 114.307 94.0338 108.124 94.3641L98.8373 157.044H118.682Z" fill="#FAB46C"/>
<path d="M118.682 153.906H98.8373V157.038H118.682V153.906Z" fill="#FAB46C"/>
<path d="M85.8545 154.53L82.7504 95.7627C82.7504 95.7627 108.629 92.9448 124.525 95.3756L85.8545 154.53Z" fill="#FAB46C"/>
<path d="M106.518 76.7344C106.518 76.7344 110.513 64.9881 102.889 61.3445C95.2648 57.7008 88.7888 62.965 87.5636 65.8138C86.3384 68.6627 86.6627 73.8442 87.7077 77.4569C88.7527 81.0695 88.5983 86.5711 86.3332 88.4084C84.0682 90.2508 81.2574 93.3009 81.3964 99.5199C81.484 103.375 96.5363 89.6522 96.5363 89.6522L106.518 76.7344Z" fill="#8B74FF"/>
<path d="M96.3458 203.162C96.3458 203.162 96.109 211.466 97.293 211.961C98.477 212.462 102.95 209.572 104.927 206.718C106.904 203.864 102.451 197.216 101.725 193.552C101.422 192.014 97.9416 189.253 96.248 190.048C94.5492 190.837 93.3137 192.866 93.3137 192.866C93.3137 192.866 97.6225 195.833 96.3458 203.162Z" fill="#8B74FF"/>
<path d="M93.3033 192.866C93.3033 192.866 94.7705 195.699 95.5272 197.898C96.284 200.096 96.4229 206.186 96.8965 206.609C97.3701 207.032 101.123 205.133 101.622 202.857C102.122 200.581 100.603 196.029 99.1565 193.64C97.7099 191.25 96.2376 190.048 96.2376 190.048C96.2376 190.048 93.6791 190.548 93.3033 192.866Z" fill="#DE9673"/>
<path d="M101.72 193.552L105.751 199.451L104.984 199.972L101.869 195.415L101.72 193.552Z" fill="#D4C3BD"/>
<path d="M87.2083 128.349C87.2083 128.349 89.18 131.683 87.2083 134.114C85.2367 136.544 71.9861 143.217 72.0839 147.073C72.1817 150.928 74.6064 156.961 75.4815 158.489C76.3515 160.021 79.5741 166.369 81.242 170.085C82.915 173.801 92.5827 191.586 94.4719 195.591C96.3612 199.601 95.1978 179.561 95.1978 179.561L85.5301 151.139L108.119 129.077C108.124 129.077 105.391 122.976 87.2083 128.349Z" fill="#DE9673"/>
<path d="M95.8053 90.7102C95.8053 90.7102 89.5352 92.1036 87.0488 93.5642C84.5624 95.0195 79.0387 101.729 79.0387 104.609C79.0387 107.494 103.198 110.188 103.198 110.188L107.779 126.95C107.779 126.95 119.99 123.962 121.447 121.485C122.898 119.008 116.639 101.373 115.764 97.6516C114.894 93.9357 110.322 91.4275 105.236 90.7153C100.145 89.998 95.8053 90.7102 95.8053 90.7102Z" fill="#E8E8E8"/>
<path d="M110.621 128.901C110.621 128.901 110.183 131.765 111.347 132.983C112.51 134.201 117.869 141.282 115.033 148.239C112.428 154.628 107.373 154.504 107.373 154.504H99.553C99.553 154.504 101.823 166.008 101.092 173.584C100.356 181.166 96.9122 198.47 96.8401 199.348C96.768 200.225 93.5352 202.955 92.588 201.572C92.588 201.572 92.5005 191.152 91.9908 187.214C91.4812 183.277 89.3191 167.536 88.6602 165.203C88.0064 162.87 84.1558 155.8 84.1558 155.072C84.1558 154.344 80.3927 142.934 88.6087 140.018C96.8195 137.107 99.7229 128.963 110.621 128.901Z" fill="#EEA886"/>
<path d="M88.6909 209.608C88.6909 209.608 83.296 215.914 83.9034 217.05C84.5109 218.185 89.8029 218.763 93.1284 217.788C96.4539 216.812 97.1643 208.839 98.8991 205.531C99.625 204.147 98.652 199.807 96.84 199.348C95.0228 198.894 92.7886 199.694 92.7886 199.694C92.7886 199.694 94.2815 204.715 88.6909 209.608Z" fill="#8B74FF"/>
<path d="M92.7886 199.688C92.7886 199.688 92.1554 202.816 91.3626 205.004C90.5698 207.192 86.8634 212.013 86.9663 212.642C87.0693 213.272 91.1773 214.16 92.9945 212.709C94.8117 211.254 96.4847 206.759 96.8605 203.982C97.2363 201.211 96.8399 199.348 96.8399 199.348C96.8399 199.348 94.5337 198.125 92.7886 199.688Z" fill="#EEA886"/>
<path d="M98.8991 205.525L98.3329 212.653L97.4114 212.58L97.849 207.074L98.8991 205.525Z" fill="#E6D3CC"/>
<path d="M115.027 148.239C112.567 154.711 107.367 154.504 107.367 154.504H99.5478C99.5478 154.504 96.284 149.323 88.2997 148.435C86.5289 148.239 84.5263 148.249 82.2767 148.58C82.251 148.585 82.2201 148.585 82.1944 148.59C71.5846 150.164 73.6335 154.071 73.6644 154.174C72.7841 152.017 71.8575 148.58 72.0788 146.732C73.0981 138.309 85.2316 136.544 87.2032 134.114C89.1748 131.683 87.2032 128.349 87.2032 128.349C105.38 122.976 108.114 129.077 108.114 129.077C108.912 128.968 110.955 127.786 111.82 127.781C111.82 127.781 112.731 129.773 113.37 131.569C113.946 133.159 117.699 141.21 115.027 148.239Z" fill="#E8E8E8"/>
<path d="M107.486 101.873L110.178 126.945H74.7762L72.0839 101.873H107.486Z" fill="#DED1C5"/>
<path d="M112.994 124.69H107.079V126.945H112.994V124.69Z" fill="#DED1C5"/>
<path d="M147.886 126.945H50.3755V130.356H147.886V126.945Z" fill="#BC8551"/>
<path d="M99.7228 63.3469C99.7228 63.3469 107.656 65.7003 106.523 76.7344C105.391 87.7684 100.212 87.2007 99.7228 87.2833C99.2389 87.3659 93.0872 87.7684 91.1413 74.381C89.2006 60.9935 99.7228 63.3469 99.7228 63.3469Z" fill="#EEA886"/>
<path d="M103.501 85.2499C103.501 85.2499 103.079 88.9038 103.784 91.1746C104.485 93.4455 94.544 93.5074 94.5543 91.6391C94.5595 89.518 95.5684 87.7426 94.6161 84.1093C93.6637 80.4709 103.501 85.2499 103.501 85.2499Z" fill="#EEA886"/>
<path d="M97.674 68.2653C97.674 68.2653 101.983 75.1396 106.518 76.7344C106.518 76.7344 108.994 65.2048 98.7653 62.7844C88.5365 60.3691 90.1375 74.4326 90.8994 78.1846C90.9045 78.1846 93.0357 72.6675 97.674 68.2653Z" fill="#8B74FF"/>
<path d="M95.7898 85.7195C95.7898 85.7195 98.93 88.9967 102.94 86.0602C102.94 86.0602 102.611 88.1555 99.7227 88.429C96.84 88.6974 95.7898 85.7195 95.7898 85.7195Z" fill="#A77860"/>
<path d="M91.8928 67.2279C91.8928 67.2279 94.163 62.8256 97.993 62.6295C101.823 62.4334 104.104 65.7674 104.104 65.7674C104.104 65.7674 102.611 62.0154 97.9982 62.0154C93.3908 62.0154 91.8928 67.2279 91.8928 67.2279Z" fill="#23344A"/>
<path d="M104.799 90.6534C104.799 90.6534 104.66 98.2916 98.6161 98.5186C92.5725 98.7457 93.8337 91.1901 93.8337 91.1901C93.8337 91.1901 98.2506 89.3941 104.799 90.6534Z" fill="#EEA886"/>
<path d="M147.891 130.356H145.384V208.741H147.891V130.356Z" fill="#BC8551"/>
<path d="M52.8773 130.356H50.3755V208.741H52.8773V130.356Z" fill="#BC8551"/>
<path d="M354.094 27.1017C354.094 27.1017 359.705 26.5133 361.733 31.9478C363.756 37.3822 365.661 39.1628 365.898 42.0168C366.861 53.5669 372.24 50.9555 370.727 57.6079C369.213 64.2655 368.168 65.2719 368.168 65.2719L355.309 62.743L342.28 62.7843C342.28 62.7843 347.376 60.2348 346.243 54.7952C345.106 49.3608 342.28 40.453 343.875 34.3837C345.471 28.3196 350.737 27.5661 354.094 27.1017Z" fill="#31425E"/>
<path d="M350.542 205.546C350.542 205.546 346.511 211.099 347.082 211.992C347.659 212.885 352.055 213.014 354.732 211.992C357.409 210.97 357.476 204.354 358.686 201.51C359.195 200.318 358.109 196.809 356.58 196.55C355.056 196.298 353.265 197.098 353.265 197.098C353.265 197.098 354.825 201.149 350.542 205.546Z" fill="#FFC800"/>
<path d="M353.265 197.103C353.265 197.103 352.946 199.724 352.436 201.577C351.927 203.43 349.188 207.646 349.311 208.163C349.44 208.674 352.884 209.138 354.284 207.817C355.684 206.501 356.771 202.682 356.899 200.37C357.028 198.057 356.58 196.556 356.58 196.556C356.58 196.556 354.603 195.694 353.265 197.103Z" fill="#EEA886"/>
<path d="M358.686 201.515V207.425H357.919V202.857L358.686 201.515Z" fill="#FFC800"/>
<path d="M361.09 205.546C361.09 205.546 357.059 211.099 357.63 211.992C358.202 212.885 362.603 213.014 365.28 211.992C367.957 210.97 368.019 204.354 369.234 201.51C369.738 200.318 368.657 196.809 367.128 196.55C365.604 196.298 363.813 197.098 363.813 197.098C363.813 197.098 365.378 201.149 361.09 205.546Z" fill="#FFC800"/>
<path d="M363.818 197.103C363.818 197.103 363.499 199.724 362.989 201.577C362.48 203.43 359.736 207.646 359.865 208.163C359.993 208.674 363.437 209.138 364.837 207.817C366.238 206.501 367.324 202.682 367.453 200.37C367.581 198.057 367.133 196.556 367.133 196.556C367.133 196.556 365.157 195.694 363.818 197.103Z" fill="#EEA886"/>
<path d="M369.239 201.515V207.425H368.472V202.857L369.239 201.515Z" fill="#FFC800"/>
<path d="M343.129 105.083C343.129 105.083 340.076 121.934 339.253 126.145C338.429 130.362 336.118 150.773 335.871 154.246C335.623 157.72 343.392 174.415 343.875 175.566C352.004 194.847 352.941 199.208 352.941 199.208C352.941 199.208 355.607 200.886 356.843 198.883C357.219 198.274 351.839 176.17 350.954 170.034C350.13 164.331 347.983 155.521 348.565 153.519C349.142 151.516 354.418 123.931 355.407 122.775C356.395 121.619 357.878 123.436 358.454 126.001C359.031 128.56 360.266 150.711 361.008 153.519C361.749 156.326 361.172 165.833 361.584 170.627C361.996 175.422 363.715 197.794 363.715 197.794C363.715 197.794 367.036 198.388 367.365 197.856C367.695 197.325 370.572 173.006 370.655 167.304C370.737 161.601 370.824 153.735 370.984 151.268C372.513 127.637 375.396 124.545 370.351 107.54C358.022 65.9222 343.129 105.083 343.129 105.083Z" fill="#EEA886"/>
<path d="M343.129 105.083C343.129 105.083 340.076 121.934 339.253 126.145C338.429 130.362 336.118 150.773 335.87 154.246C335.623 157.72 343.124 174.41 343.289 175.654C343.453 176.893 349.631 194.641 349.631 194.641C349.631 194.641 355.87 194.533 357.574 192.912C357.914 192.587 351.844 176.17 350.959 170.039C350.135 164.336 347.988 155.526 348.57 153.524C349.147 151.521 354.423 123.936 355.412 122.78C356.4 121.624 357.883 123.441 358.459 126.006C359.036 128.566 360.271 150.716 361.013 153.524C361.754 156.331 361.177 165.838 361.589 170.632C362.001 175.427 361.131 192.458 361.131 192.458C361.131 192.458 369.306 192.886 369.635 192.355C369.965 191.823 370.572 173.011 370.654 167.309C370.737 161.606 370.824 153.741 370.984 151.274C372.513 127.642 375.396 124.55 370.351 107.545C358.022 65.9222 343.129 105.083 343.129 105.083Z" fill="#5779D4"/>
<path d="M371.586 110.75C372.06 110.559 368.245 97.9045 367.489 94.1215C366.804 90.7101 364.482 87.5878 366.752 81.7766C368.05 78.4478 367.967 74.5151 367.967 74.5151C367.967 74.5151 371.442 82.1998 371.772 84.1816C372.101 86.1634 359.762 82.5559 359.592 82.8294C359.267 83.3507 358.907 86.7001 358.907 87.8561C358.907 88.8109 376.816 93.0584 378.937 89.296C379.54 88.2277 375.648 67.8214 373.136 65.1068C369.012 60.6426 358.186 56.8441 358.186 56.8441C358.186 56.8441 355.216 55.2494 349.996 56.9009C344.776 58.5575 337.466 63.6204 336.2 64.9468C334.939 66.268 329.878 86.1943 329.436 88.7748C329.019 91.2004 329.183 96.3097 334.712 95.6543L349.631 92.2274L348.704 87.6652L337.518 88.5529C335.232 88.9451 336.329 86.9323 336.622 85.8176C336.905 84.7235 339.716 74.5822 339.716 74.5822C339.551 77.3898 341.667 86.6175 342.769 89.8121C343.87 93.0068 341.44 110.11 341.271 111.978C341.281 111.989 350.264 119.389 371.586 110.75Z" fill="#FFC800"/>
<path d="M360.626 57.7834C360.626 57.7834 356.946 65.4009 353.872 67.6305C353.872 67.6305 348.338 59.3162 348.622 57.3963C348.616 57.4015 354.748 54.6714 360.626 57.7834Z" fill="#EEA886"/>
<path d="M360.755 83.459C360.755 83.459 359.051 82.7675 358.598 82.1481C358.145 81.5288 356.632 81.1572 355.515 81.4927C354.397 81.8282 355.015 86.6485 355.015 86.6485L360.92 87.4175L360.755 83.459Z" fill="#EEA886"/>
<path d="M350.068 87.1439C350.068 87.1439 350.634 84.0319 350.501 83.4539C350.367 82.881 351.51 82.303 351.669 83.7222C351.829 85.1415 351.911 86.0447 351.911 86.0447L350.068 87.1439Z" fill="#EEA886"/>
<path d="M352.524 89.3063L356.822 89.1309C357.373 89.1102 357.811 88.6612 357.816 88.109L357.929 78.6748C357.939 78.0865 357.45 77.6065 356.858 77.6272L351.71 77.7975C351.118 77.8181 350.665 78.3239 350.712 78.9174L351.443 88.3567C351.494 88.9038 351.968 89.327 352.524 89.3063Z" fill="#51578C"/>
<path d="M349.976 87.3968C349.976 87.3968 349.898 86.5143 351.592 85.704C353.842 84.6306 356.843 83.5364 357.358 83.8151C358.099 84.2228 357.713 84.7854 356.292 85.255C354.871 85.7247 354.403 85.8743 354.403 85.8743C354.403 85.8743 357.183 85.6111 357.811 85.9414C358.433 86.2769 358.469 87.0459 358.011 87.1749C357.553 87.2988 356.477 87.3762 356.477 87.3762C356.477 87.3762 357.656 87.4226 357.775 87.8974C357.862 88.2484 357.903 88.7541 356.786 88.9606C356.786 88.9606 357.543 89.8018 356.41 90.3437C355.273 90.8856 353.219 91.3759 352.184 91.5462C350.037 91.8971 345.183 91.6339 345.183 91.6339L347.175 88.2535C347.175 88.2535 348.282 88.3413 349.049 88.0832C350.078 87.7271 349.976 87.3968 349.976 87.3968Z" fill="#EEA886"/>
<path d="M348.714 87.6755L349.641 92.2326L340.133 94.4157L339.767 88.3825L348.714 87.6755Z" fill="#FFC800"/>
<path d="M361.229 83.1803C361.229 83.1803 358.804 84.5222 358.902 87.8613C358.902 87.8613 364.801 90.0186 364.317 102.394V96.5936L361.229 83.1803Z" fill="#FFC800"/>
<path d="M349.641 92.2326L342.974 95.9485C343.021 95.1743 343.052 94.4312 343.067 93.7396L349.641 92.2326Z" fill="#E59405"/>
<path d="M367.159 92.728C361.81 90.5966 359.669 88.6767 359.082 88.0677C358.953 87.9387 358.902 87.8665 358.902 87.8665L366.495 90.0857C366.691 91.0095 366.938 91.8713 367.159 92.728Z" fill="#E59405"/>
<path d="M354.83 30.2808C354.83 30.2808 362.263 31.3594 361.177 42.3574C360.091 53.3605 353.528 52.4883 353.09 52.4779C352.652 52.4676 346.506 52.705 345.976 39.2814C345.976 39.2814 345.729 29.3518 354.83 30.2808Z" fill="#EEA886"/>
<path d="M358.135 50.5271C358.135 50.5271 357.677 56.2506 358.773 57.964C359.87 59.6775 357.831 62.005 353.63 61.2103C349.43 60.4155 349.672 58.026 349.672 58.026C349.672 58.026 350.851 54.4907 350.506 51.6625C350.161 48.8395 358.135 50.5271 358.135 50.5271Z" fill="#EEA886"/>
<path d="M353.981 34.265C353.981 34.265 357.455 37.9241 359.067 39.7821C360.678 41.6348 360.863 45.2165 360.863 45.2165C360.863 45.2165 363.581 41.8877 362.444 38.0119C361.306 34.136 358.619 26.5959 351.808 28.908C344.998 31.2252 344.745 41.4232 345.543 46.481C345.554 46.481 348.611 35.3179 353.981 34.265Z" fill="#31425E"/>
<path d="M351.052 51.9825C351.052 51.9825 354.217 53.4843 357.301 51.2651C357.301 51.2651 356.446 53.0405 354.176 53.2882C351.906 53.5411 351.052 51.9825 351.052 51.9825Z" fill="#A77860"/>
<path d="M349.97 53.9746C349.97 53.9746 339.741 63.0992 342.393 68.7917C344.658 73.6481 352.694 70.6702 351.365 65.5816C350.048 60.4929 349.97 53.9746 349.97 53.9746Z" fill="#31425E"/>
<path d="M352.755 79.609C352.755 79.9651 352.467 80.2489 352.117 80.2489C351.762 80.2489 351.479 79.9599 351.479 79.609C351.479 79.2529 351.767 78.969 352.117 78.969C352.472 78.9638 352.755 79.2529 352.755 79.609Z" fill="#48484D"/>
<path d="M298.379 61.1226C298.379 61.1226 306.136 63.4037 305.663 73.9785C305.184 84.5532 298.379 61.1226 298.379 61.1226Z" fill="#EEA886"/>
<path d="M297.663 61.1226C297.663 61.1226 298.26 61.938 297.514 67.197C296.767 72.456 298.183 74.6597 298.353 76.8479C298.523 79.0362 301.086 93.1771 301.153 93.8016C301.225 94.4261 301.565 101.951 302.564 103.948C303.562 105.945 310.903 117.263 311.006 117.826C311.104 118.393 314.574 115.854 314.574 115.854C314.574 115.854 307.979 102.1 307.552 100.748C307.022 99.0657 305.4 94.8957 305.297 92.7126C305.055 87.3762 305.534 74.99 305.349 72.2908C304.999 67.2434 301.03 61.9277 297.663 61.1226Z" fill="#EEA886"/>
<path d="M307.552 106.265C307.552 106.265 308.705 108.81 309.39 108.97C310.069 109.13 310.883 109.976 311.47 110.234C312.051 110.492 313.894 110.637 314.388 111.117C314.589 111.313 315.367 113.011 315.82 113.367C316.273 113.723 317.276 114.332 316.968 114.714C316.659 115.096 315.614 114.796 315.614 114.796C315.614 114.796 316.005 115.147 315.84 115.57C315.511 116.391 314.96 116.432 314.96 116.432C314.96 116.432 315.135 117.052 314.914 117.356C314.424 118.032 313.889 118.053 313.889 118.053C313.889 118.053 313.843 118.528 313.416 118.904C312.87 119.379 312.195 119.111 312.195 119.111C312.195 119.111 311.65 119.869 311.145 119.72C310.641 119.575 310.347 119.193 309.987 118.977C309.627 118.755 307.109 115.849 306.178 113.134C305.246 110.415 303.635 108.206 303.635 108.206L307.552 106.265Z" fill="#EEA987"/>
<path d="M328.79 102.826L315.022 85.8061L286.694 108.838L300.462 125.859L328.79 102.826Z" fill="#5779D4"/>
<path d="M315.474 114.461C315.474 114.461 313.276 112.015 312.185 112.061C311.088 112.107 311.835 113.036 311.835 113.036C311.835 113.036 311.114 112.107 310.337 112.598C309.56 113.088 310.486 114.125 310.486 114.125C310.486 114.125 309.755 113.568 309.179 114.342C308.602 115.116 309.565 115.803 309.565 115.803C309.565 115.803 308.118 115.586 308.427 116.773C308.952 118.775 311.109 119.751 311.109 119.751C311.109 119.751 311.711 119.921 312.216 119.137C312.216 119.137 313.57 119.658 313.94 118.084C313.94 118.084 315.526 117.717 315.021 116.448C315.016 116.458 316.684 115.87 315.474 114.461Z" fill="#DB9C7C"/>
<path d="M291.29 30.2344C291.29 30.2344 280.073 29.3003 280.376 41.1291C280.685 52.958 282.554 54.7385 280.371 63.0992C278.189 71.4599 291.31 58.3512 291.31 58.3512L291.29 30.2344Z" fill="#8B74FF"/>
<path d="M279.064 103.349C279.064 103.349 274.935 108.629 273.473 112.123C272.016 115.612 269.587 123.271 269.911 129.195C270.235 135.125 272.176 146.252 271.61 148.766C271.043 151.284 270.477 156.481 269.87 158.267C269.262 160.052 266.832 165.25 266.591 170.612C266.349 175.974 269.993 199.523 269.829 201.717C269.669 203.91 273.962 202.609 273.962 202.609C273.962 202.609 275.419 181.331 276.232 177.677C277.041 174.023 278.014 161.596 278.745 160.703C279.476 159.81 281.468 150.551 281.159 149.091C280.85 147.63 289.112 125.701 289.601 121.315C290.085 116.928 302.27 103.344 302.27 103.344C302.27 103.344 291.619 99.267 279.064 103.349Z" fill="#EEA987"/>
<path d="M298.78 103.349C298.78 103.349 298.991 105.563 299.233 106.374C299.475 107.184 305.066 127.895 305.632 135.853C306.198 143.811 307.655 150.562 307.902 152.259C308.144 153.963 307.66 159.645 307.171 161.105C306.687 162.566 309.601 197.082 309.843 197.892C310.085 198.703 307.897 198.945 306.358 198.703C304.819 198.46 297.04 173.368 297.529 169.141C298.013 164.919 298.502 155.913 297.122 152.254C295.748 148.595 283.352 122.12 283.27 120.494C283.192 118.879 277.911 90.9063 298.78 103.349Z" fill="#EEA987"/>
<path d="M273.885 200.024C273.885 200.024 274.287 202.826 274.719 203.59C275.157 204.354 276.351 208.25 276.897 208.978C277.442 209.706 278.642 215.166 276.897 215.821C275.151 216.477 271.049 217.571 269.669 215.383C268.289 213.2 268.109 211.011 268.325 209.339C268.542 207.662 270.199 199.977 270.179 199.219C270.153 198.46 273.885 200.024 273.885 200.024Z" fill="#EEA987"/>
<path d="M276.196 207.358C276.196 207.358 276.356 211.6 273.159 211.584C269.962 211.564 268.572 207.693 268.572 207.693C268.572 207.693 267.471 209.582 268.536 213.633C269.602 217.679 274.148 216.874 275.162 216.73C276.181 216.59 281.01 215.342 276.196 207.358Z" fill="#8B74FF"/>
<path d="M309.503 196.21C309.503 196.21 311.763 200.261 313.101 201.082C314.774 202.104 318.017 205.386 319.15 205.536C320.283 205.685 324.36 206.413 323.572 208.72C322.929 210.609 313.209 210.341 312.113 209.391C311.016 208.441 307.737 205.045 306.414 205.118C305.091 205.195 305.585 210.021 305.585 210.021H304.149C304.149 210.021 303.645 205.324 303.588 204.514C303.408 202.124 305.107 200.364 305.184 199.002C305.261 197.64 305.338 196.618 305.338 196.618L309.503 196.21Z" fill="#8B74FF"/>
<path d="M318.831 205.587C318.831 205.587 315.619 206.676 313.163 205.242C310.708 203.807 305.987 201.619 304.314 201.593C304.314 201.593 305.241 198.801 305.266 198.486C305.287 198.171 305.395 196.7 305.395 196.7L309.534 196.06C309.534 196.06 312.19 200.024 313.369 200.963C314.553 201.902 317.57 204.24 318.831 205.587Z" fill="#EEA987"/>
<path d="M302.332 102.983C302.332 102.983 303.485 107.793 303.912 109.197C304.34 110.595 307.068 132.333 307.737 145.927C307.737 145.927 291.393 152.141 268.917 151.103C268.917 151.103 268.372 126.13 270.436 119.064C272.5 111.999 276.243 105.388 279.064 103.349C281.576 101.533 302.332 102.983 302.332 102.983Z" fill="#31425E"/>
<path d="M305.143 74.5358C304.963 77.4001 303.794 79.2323 303.547 80.2645C303.305 81.3018 303.547 83.6758 303.243 86.0499C302.94 88.4239 302.028 99.7521 302.332 102.983C302.636 106.208 280.232 104.753 278.528 103.778C278.528 103.778 282.302 97.0117 282.405 94.2093C282.441 93.2494 283.012 90.2509 281.432 88.0575C280.598 86.9014 279.053 83.2165 277.509 80.5225C277.509 80.5225 277.797 79.9651 277.509 80.5225C276.912 79.48 276.284 78.4375 275.846 77.6634C275.275 76.6518 274.956 75.4493 274.956 75.4493C274.956 75.4493 273.957 63.0218 276.691 61.6232C279.424 60.2194 280.881 59.9768 283.558 59.8581C286.23 59.7343 287.995 59.1872 287.995 59.1872L294.255 59.8581C294.255 59.8581 296.463 60.8955 298.044 61.0194C299.624 61.1432 301.555 64.5804 302.507 67.0731C303.295 69.1272 305.323 71.6715 305.143 74.5358Z" fill="#31425E"/>
<path d="M280.088 60.3278C280.088 60.3278 275.136 60.7407 273.272 65.3029C271.409 69.8652 271.568 74.4997 271.162 76.1822C270.76 77.8698 270.168 87.6291 269.741 89.0742C269.319 90.5141 267.857 97.2078 267.533 102.616C267.208 108.025 268.011 119.431 268.011 119.431L270.755 118.094C270.755 118.094 273.2 101.182 274.256 97.6052C275.162 94.5499 275.162 89.3477 275.671 87.4691C276.181 85.5905 279.29 74.2881 279.79 73.1424C280.567 71.3928 284.345 60.271 280.088 60.3278Z" fill="#EEA886"/>
<path d="M290.188 31.4317C292.968 30.9776 299.331 31.6743 301.138 38.9925C301.138 38.9925 301.143 41.0207 300.834 42.6516C300.53 44.2824 302.466 48.7621 302.126 49.0305C301.786 49.2989 300.304 49.7685 300.304 49.7685C300.304 49.7685 299.248 55.0223 297.472 55.1823C295.691 55.3423 288.814 54.723 284.932 48.7776C281.04 42.8374 278.961 33.2742 290.188 31.4317Z" fill="#EEA886"/>
<path d="M294.806 53.1489C294.806 53.1489 294.667 53.8818 294.543 54.9656C294.476 55.5178 294.415 56.1629 294.373 56.8442C294.26 58.7331 294.322 60.9161 294.96 62.2993C294.96 62.2993 291.47 64.4256 287.738 59.2234C287.738 59.2234 288.108 52.767 285.962 49.3299C283.815 45.8978 294.806 53.1489 294.806 53.1489Z" fill="#EEA886"/>
<path d="M301.138 38.9977C301.138 38.9977 296.952 42.6206 292.52 43.7664C288.088 44.9121 285.74 49.9027 285.74 49.9027C285.74 49.9027 277.895 42.0581 282.631 34.4457C287.362 26.8282 301.127 30.2241 301.138 38.9977Z" fill="#8B74FF"/>
<path d="M294.543 54.9656C294.476 55.5178 294.415 56.1629 294.374 56.8442C290.461 54.9449 288.309 52.3387 288.309 52.3387C290.605 53.985 294.543 54.9656 294.543 54.9656Z" fill="#A77860"/>
<path d="M291.702 44.0244C291.702 44.0244 287.167 56.2506 287.712 59.1924C287.712 59.1924 285.313 58.7795 281.035 60.0904C281.035 60.0852 283.105 38.2751 291.702 44.0244Z" fill="#8B74FF"/>
<path d="M286.199 59.5846C286.199 59.5846 287.692 68.7504 293.22 67.7182C298.749 66.6809 294.554 59.9665 294.554 59.9665C294.554 59.9665 292.098 57.9022 286.199 59.5846Z" fill="#EEA886"/>
<path d="M270.827 117.635C270.827 117.635 271.26 119.085 271.944 120.546C272.279 121.258 272.773 126.063 272.794 126.687C272.809 127.213 272.438 126.93 272.238 126.599C272.119 126.408 271.682 124.767 271.306 123.905C270.992 123.183 270.75 122.92 270.637 123.172C270.523 123.425 270.518 126.532 270.899 127.833C271.28 129.133 271.213 132.199 270.487 131.812C269.762 131.425 267.723 126.037 267.702 123.957C267.682 121.872 268.001 119.353 268.001 119.353L270.827 117.635Z" fill="#EEA886"/>
<path d="M531.736 129.257C531.716 180.732 530.279 190.812 517.384 202.341C512.334 206.857 503.047 216.239 476.253 220.915C468.206 222.319 458.59 223.294 447.033 223.594C442.318 223.713 437.994 223.542 434.035 223.109C430.715 222.753 427.657 222.206 424.846 221.498C395.4 214.103 393.197 188.804 406.077 167.525C409.49 161.89 413.387 156.708 417.474 151.883C423.78 144.425 430.545 137.798 436.671 131.616C442.313 125.918 447.419 120.592 451.126 115.338C452.691 113.124 454.009 110.92 455.012 108.706C455.249 108.18 455.491 107.664 455.733 107.153C456.526 105.481 457.339 103.871 458.163 102.333C459.712 99.4425 461.283 96.8052 462.806 94.4415C464.016 92.5526 465.195 90.8443 466.286 89.327C470.049 84.1145 472.84 81.1882 472.84 81.1882C472.84 81.1882 473.19 81.0231 473.833 80.7547C474.173 80.6102 474.6 80.4399 475.105 80.2438C475.305 80.1664 475.522 80.0838 475.748 80.0012C475.969 79.9186 476.206 79.8309 476.453 79.7432C476.68 79.6658 476.917 79.578 477.159 79.4955C477.442 79.3974 477.74 79.2993 478.049 79.1961C478.229 79.1393 478.415 79.0774 478.605 79.0206C478.718 78.9845 478.832 78.9484 478.945 78.9123C478.986 78.9019 479.032 78.8865 479.074 78.871C482.898 77.6943 488.139 76.4711 493.848 76.2699C510.774 75.666 531.757 84.0319 531.736 129.257Z" fill="#FFC800"/>
<path d="M463.233 206.754C463.233 206.754 463.656 210.206 464.217 211.724C464.778 213.246 467.815 216.761 466.528 220.136C465.138 223.795 459.069 220.27 456.588 219.15C454.112 218.035 454.678 216.007 454.41 213.525C454.142 211.042 452.938 210.975 453.386 209.231C453.828 207.487 456.541 204.147 456.541 204.147L463.233 206.754Z" fill="#B7CEFF"/>
<path d="M457.705 202.341C457.705 202.341 456.15 204.524 456.191 204.581C456.232 204.638 462.848 208.679 463.311 207.368C463.676 206.325 463.831 204.818 463.831 204.818L457.705 202.341Z" fill="#EEA886"/>
<path d="M435.286 209.19C435.286 209.19 433.268 210.96 431.456 213.69C429.644 216.415 424.83 216.559 424.63 220.28C424.424 224.002 431.167 224.115 434.709 222.902C438.251 221.695 438.786 218.061 440.928 217.148C443.069 216.239 444.181 215.507 444.016 213.731C443.852 211.956 442.668 209.081 442.668 209.081C442.668 209.081 441.334 209.504 440.552 209.592C439.769 209.68 437.139 209.711 435.286 209.19Z" fill="#B7CEFF"/>
<path d="M459.563 108.407C459.563 108.407 458.204 116.499 457.113 121.846C456.67 124.014 456.268 125.732 456.021 126.269C455.707 126.95 453.159 129.691 450.039 132.911C444.567 138.557 437.34 145.669 437.34 145.669L434.514 140.291C434.514 140.291 440.933 132.746 445.288 127.709C447.301 125.381 448.876 123.585 449.164 123.327C450.075 122.512 451.131 114.471 452.613 107.844C454.096 101.218 457.071 97.5535 457.071 97.5535L459.563 108.407Z" fill="#E8E8E8"/>
<path d="M450.039 132.911C444.567 138.557 437.34 145.669 437.34 145.669L434.514 140.291C434.514 140.291 440.933 132.746 445.288 127.709C446.621 128.364 449.072 129.933 450.039 132.911Z" fill="#EEA886"/>
<path d="M435.6 206.712L435.281 209.19C435.281 209.19 438.791 210.433 442.663 209.081L442.74 206.878L435.6 206.712Z" fill="#EEA886"/>
<path d="M485.457 144.575C485.658 145.297 448.258 144.575 448.258 144.575C448.258 144.575 458.606 137.024 459.275 135.012C459.944 132.994 456.639 120.891 456.207 116.959C455.862 113.805 454.997 99.7108 457.072 97.5587C459.239 95.3085 467.033 92.95 467.033 92.95L478.399 93.3732C478.399 93.3732 480.273 93.7654 481.617 94.3899C482.96 95.0144 490.625 97.7548 491.871 101.595C493.117 105.439 484.216 117.79 484.216 117.79C484.216 117.79 484.201 118.347 484.17 119.255C484.134 120.468 484.082 122.311 484.036 124.313C483.974 126.904 483.923 129.753 483.923 131.838C483.933 136.725 485.256 143.857 485.457 144.575Z" fill="#E8E8E8"/>
<path d="M485.457 144.58C485.457 144.58 490.543 152.068 490.615 157.183C490.687 162.297 481.586 179.427 480.211 181.873C476.072 189.237 464.716 205.128 464.716 205.128C464.716 205.128 462.76 205.076 456.654 202.702C456.654 202.702 464.206 181.713 465.164 179.535C469.226 170.292 471.491 163.737 470.126 162.153C468.762 160.569 465.04 158.979 463.964 158.045C462.889 157.111 444.114 161.601 442.143 162.112C437.051 163.433 439.373 172.32 440.495 176.304C442.379 182.967 444.027 207.038 444.027 207.038C444.027 207.038 440.398 208.586 434.323 207.28C434.323 207.28 422.39 163.82 422.009 159.5C421.628 155.181 421.438 148.053 450.848 142.634L485.457 144.58Z" fill="#31425E"/>
<path d="M470.152 68.1827C470.152 68.1827 460.284 65.9532 462.539 78.4013C464.793 90.8495 467.167 91.8301 473.117 89.2548C479.073 86.6795 478.538 78.7007 478.837 74.7887C479.14 70.8767 473.303 68.322 470.152 68.1827Z" fill="#EEA886"/>
<path d="M467.542 96.1394C467.542 96.1394 471.913 100.784 478.821 96.5626C478.821 96.5626 477.277 86.4937 478.09 81.596C478.903 76.6931 469.076 89.1928 469.076 89.1928C469.205 89.2599 469.292 89.7296 469.313 90.3953C469.328 90.9579 469.303 91.6649 469.21 92.3874C469.004 94.0183 468.5 95.7421 467.542 96.1394Z" fill="#EEA886"/>
<path d="M478.358 81.1779C478.358 81.1779 478.1 77.2556 476.675 77.1317C475.243 77.0079 475.027 78.5871 475.027 78.5871L473.586 78.8607C473.586 78.8607 474.044 75.4235 472.613 74.8196C471.187 74.221 463.367 76.7137 462.224 75.7022C461.076 74.6958 461.617 67.7182 463.692 66.7634C465.761 65.8087 471.485 63.672 475.676 66.5157C475.676 66.5157 478.945 66.1441 479.429 68.7865C479.907 71.4392 479.248 79.2116 478.358 81.1779Z" fill="#8B74FF"/>
<path d="M469.205 92.3875C476.33 90.1837 476.87 85.8847 476.875 85.8176C474.528 89.8586 469.308 90.3953 469.308 90.3953C469.328 90.9579 469.298 91.6649 469.205 92.3875Z" fill="#A77860"/>
<path d="M481.735 94.4415C481.735 94.4415 476.515 104.856 468.088 104.185C459.656 103.514 466.652 93.0429 467.033 92.95C467.455 92.8416 475.681 90.7876 481.735 94.4415Z" fill="#EEA886"/>
<path d="M443.981 144.048C443.981 144.048 469.807 147.238 485.457 144.575L455.558 140.828C455.558 140.833 455.378 141.597 443.981 144.048Z" fill="#E8E8E8"/>
<path d="M463.3 139.651L461.375 140.627C461.375 140.627 461.813 143.692 462.868 144.621L465.03 144.069C465.025 144.069 464.577 140.709 463.3 139.651Z" fill="#EEA886"/>
<path d="M493.184 133.376C492.798 133.825 487.722 135.868 481.987 138.088C474.152 141.112 465.313 143.976 465.313 143.976L463.3 139.651C463.3 139.651 472.556 134.609 478.811 131.074C481.766 129.402 484.051 128.07 484.376 127.76C485.38 126.801 485.642 125.263 484.901 122.574C484.16 119.89 482.456 107.545 482.265 106.105C482.075 104.665 482.744 100.826 486.337 100.629C489.93 100.439 491.758 101.455 491.758 101.455C491.758 101.455 492.659 101.832 493.328 110.569C494.002 119.307 494.095 132.323 493.184 133.376Z" fill="#E8E8E8"/>
<path d="M484.18 119.25C484.144 120.463 484.093 122.305 484.046 124.308C480.541 115.694 482.564 108.815 482.6 108.701C482.224 111.034 484.149 119.137 484.18 119.25Z" fill="#B0B0B0"/>
<path d="M457.113 121.846C456.67 124.014 456.268 125.732 456.021 126.269C454.822 120.458 455.903 113.021 455.903 113.021C456.063 116.577 457.113 121.846 457.113 121.846Z" fill="#B0B0B0"/>
<path d="M481.987 138.087C474.152 141.117 465.025 144.069 465.025 144.069L463.295 139.651C463.295 139.651 472.551 134.609 478.806 131.074C478.811 131.074 481.086 132.183 481.987 138.087Z" fill="#EEA886"/>
<path d="M462.739 144.327L426.03 143.785L444.562 153.219L462.739 144.327Z" fill="#8B74FF"/>
<path d="M444.562 153.219L462.739 146.159V144.327L443.126 151.418L444.562 153.219Z" fill="#1E2E4C"/>
<path d="M461.787 140.699C461.787 140.699 459.496 140.343 457.911 139.971C456.685 139.682 453.633 140.08 452.855 140.869C452.078 141.659 449.607 147.155 449.139 147.491C448.67 147.826 449.375 148.605 450.199 148.213C450.199 148.213 450.951 150.618 452.814 149.72C454.673 148.817 455.934 146.851 456.912 146.505C457.885 146.159 463.558 144.41 463.558 144.41C463.558 144.41 463.249 140.111 461.787 140.699Z" fill="#EEA886"/>
<path d="M453.416 140.508C453.416 140.508 451.944 141.22 451.558 141.54C451.172 141.86 449.612 143.026 449.236 143.305C448.861 143.579 449.808 144.363 452.593 143.156C455.383 141.938 453.416 140.508 453.416 140.508Z" fill="#EEA886"/>
<path d="M444.562 153.219L433.644 123.327L398.443 123.905L408.846 151.449L444.562 153.219Z" fill="#1E2E4C"/>
<path d="M422.38 136.555C423.456 138.707 423.132 141.05 421.654 141.793C420.182 142.531 418.113 141.385 417.042 139.233C415.966 137.081 416.29 134.738 417.768 133.995C419.24 133.252 421.304 134.397 422.38 136.555Z" fill="#8B74FF"/>
<path d="M475.058 76.9305C475.187 75.8312 477.354 75.4286 477.529 77.075C477.704 78.7213 476.546 81.6114 475.722 81.3276C474.899 81.0437 474.878 78.4426 475.058 76.9305Z" fill="#EEA886"/>
<path d="M155.181 35.8083L124.937 35.9476C120.268 35.9683 116.5 39.7822 116.525 44.4632L116.644 70.2472L116.675 77.4622L123.841 70.2111L155.335 70.0666C160.004 70.0459 163.772 66.232 163.747 61.551L163.669 44.2413C163.654 39.5655 159.85 35.7877 155.181 35.8083Z" fill="#FFC800"/>
<path d="M143.747 54.367C143.753 56.3591 142.146 57.9797 140.159 57.99C138.172 57.9951 136.556 56.3849 136.546 54.3928C136.54 52.4007 138.147 50.7802 140.134 50.7698C142.121 50.7595 143.742 52.3749 143.747 54.367Z" fill="white"/>
<path d="M155.572 54.3309C155.577 56.323 153.971 57.9435 151.984 57.9538C149.997 57.959 148.38 56.3488 148.37 54.3567C148.365 52.3646 149.971 50.744 151.958 50.7337C153.95 50.7234 155.567 52.3336 155.572 54.3309Z" fill="white"/>
<path d="M132.19 54.4031C132.196 56.3952 130.589 58.0158 128.602 58.0261C126.615 58.0313 124.999 56.421 124.989 54.4289C124.983 52.4368 126.59 50.8163 128.577 50.806C130.569 50.8008 132.185 52.411 132.19 54.4031Z" fill="white"/>
<path d="M319.047 0.187563L337.307 0.270138C340.128 0.285621 342.398 2.58223 342.388 5.41042L342.315 20.981L342.295 25.3368L337.971 20.9603L318.955 20.8726C316.134 20.8571 313.863 18.5605 313.874 15.7323L313.92 5.2814C313.93 2.45321 316.226 0.17208 319.047 0.187563Z" fill="#8B74FF"/>
<path d="M325.95 11.3919C325.945 12.5944 326.918 13.575 328.118 13.5802C329.317 13.5853 330.295 12.6099 330.3 11.4074C330.305 10.2049 329.332 9.22434 328.133 9.21918C326.928 9.21402 325.955 10.1894 325.95 11.3919Z" fill="white"/>
<path d="M318.81 11.3713C318.805 12.5738 319.778 13.5544 320.978 13.5595C322.177 13.5647 323.155 12.5893 323.16 11.3868C323.165 10.1843 322.193 9.20371 320.993 9.19854C319.789 9.19338 318.816 10.1636 318.81 11.3713Z" fill="white"/>
<path d="M332.926 11.4126C332.921 12.6151 333.894 13.5957 335.093 13.6008C336.293 13.606 337.271 12.6306 337.276 11.4281C337.281 10.2256 336.308 9.24499 335.109 9.23983C333.909 9.23983 332.931 10.2101 332.926 11.4126Z" fill="white"/>
<path d="M429.726 53.345L447.985 53.4276C450.807 53.4431 453.077 55.7397 453.066 58.5679L452.994 74.1384L452.974 78.4942L448.65 74.1178L429.633 74.03C426.812 74.0145 424.542 71.7179 424.552 68.8897L424.599 58.4388C424.609 55.6107 426.905 53.3295 429.726 53.345Z" fill="#FFC800"/>
<path d="M436.629 64.5494C436.624 65.7519 437.597 66.7325 438.797 66.7376C439.996 66.7428 440.974 65.7674 440.979 64.5649C440.984 63.3624 440.011 62.3818 438.812 62.3766C437.607 62.3715 436.634 63.3469 436.629 64.5494Z" fill="white"/>
<path d="M429.489 64.5287C429.484 65.7312 430.457 66.7118 431.657 66.717C432.856 66.7221 433.834 65.7467 433.839 64.5442C433.844 63.3417 432.871 62.3612 431.672 62.356C430.467 62.3508 429.494 63.3211 429.489 64.5287Z" fill="white"/>
<path d="M443.605 64.57C443.599 65.7725 444.572 66.7531 445.772 66.7583C446.971 66.7634 447.949 65.788 447.955 64.5855C447.96 63.383 446.987 62.4024 445.787 62.3973C444.588 62.3973 443.61 63.3675 443.605 64.57Z" fill="white"/>
</svg>
