<svg width="85" height="79" viewBox="0 0 85 79" fill="none" xmlns="http://www.w3.org/2000/svg">
<circle opacity="0.6" cx="55.6926" cy="28.9231" r="28.9231" fill="#C6BBFF"/>
<path d="M63.9942 58.4696C64.0432 59.2419 63.7857 60.0458 63.1422 60.6892L45.6892 78.1422C45.0458 78.7857 44.2419 79.0432 43.4696 78.9942H7.26696C3.25004 78.9942 0 75.7361 0 71.7127V22.2815C0 18.2587 3.25592 15 7.28152 15H56.7127C60.7288 15 63.9942 18.2612 63.9942 22.267V58.4696ZM40.7236 73.1765V65.9076C40.7236 60.2788 45.2721 55.7236 50.9076 55.7236H58.1765V22.267C58.1765 21.4759 57.5175 20.8177 56.7127 20.8177H7.28152C6.47004 20.8177 5.81765 21.4706 5.81765 22.2815V71.7127C5.81765 72.5263 6.46626 73.1765 7.26696 73.1765H40.7236ZM21.8162 38.2706C19.4064 38.2706 17.453 36.3171 17.453 33.9074C17.453 31.4976 19.4064 29.5441 21.8162 29.5441C24.2259 29.5441 26.1794 31.4976 26.1794 33.9074C26.1794 36.3171 24.2259 38.2706 21.8162 38.2706ZM15.9976 49.6161C15.158 47.6944 16.5661 45.5427 18.6632 45.5427H45.331C47.4281 45.5427 48.8361 47.6944 47.9965 49.6161C45.2409 55.923 39.0003 60.0868 31.9971 60.0868C24.9939 60.0868 18.7533 55.923 15.9976 49.6161ZM31.9971 54.2691C34.9076 54.2691 37.6202 53.191 39.6959 51.3603H24.2982C26.374 53.191 29.0866 54.2691 31.9971 54.2691ZM42.178 38.2706C39.7682 38.2706 37.8147 36.3171 37.8147 33.9074C37.8147 31.4976 39.7682 29.5441 42.178 29.5441C44.5877 29.5441 46.5412 31.4976 46.5412 33.9074C46.5412 36.3171 44.5877 38.2706 42.178 38.2706ZM50.9076 61.5412C48.487 61.5412 46.5412 63.4899 46.5412 65.9076V69.0628L54.0628 61.5412H50.9076Z" fill="#7561E5"/>
</svg>
