<svg width="80" height="80" viewBox="0 0 80 80" fill="none" xmlns="http://www.w3.org/2000/svg">
<path d="M79.9927 54.337C80.0539 55.3024 79.7321 56.3072 78.9277 57.1115L57.1115 78.9277C56.3072 79.7321 55.3024 80.0539 54.337 79.9927H9.0837C4.06255 79.9927 0 75.9201 0 70.8908V9.1019C0 4.07341 4.0699 0 9.1019 0H70.8908C75.911 0 79.9927 4.07649 79.9927 9.0837V54.337ZM50.9045 72.7206V63.6345C50.9045 56.5984 56.5901 50.9045 63.6345 50.9045H72.7206V9.0837C72.7206 8.09482 71.8968 7.27206 70.8908 7.27206H9.1019C8.08755 7.27206 7.27206 8.08825 7.27206 9.1019V70.8908C7.27206 71.9079 8.08283 72.7206 9.0837 72.7206H50.9045ZM27.2702 29.0883C24.2581 29.0883 21.8162 26.6464 21.8162 23.6342C21.8162 20.622 24.2581 18.1802 27.2702 18.1802C30.2824 18.1802 32.7243 20.622 32.7243 23.6342C32.7243 26.6464 30.2824 29.0883 27.2702 29.0883ZM19.9971 43.2701C18.9475 40.868 20.7076 38.1783 23.3289 38.1783H56.6638C59.2851 38.1783 61.0452 40.868 59.9957 43.2701C56.5511 51.1538 48.7503 56.3585 39.9964 56.3585C31.2424 56.3585 23.4416 51.1538 19.9971 43.2701ZM39.9964 49.0864C43.6345 49.0864 47.0252 47.7387 49.6199 45.4504H30.3728C32.9675 47.7387 36.3582 49.0864 39.9964 49.0864ZM52.7225 29.0883C49.7103 29.0883 47.2684 26.6464 47.2684 23.6342C47.2684 20.622 49.7103 18.1802 52.7225 18.1802C55.7347 18.1802 58.1765 20.622 58.1765 23.6342C58.1765 26.6464 55.7347 29.0883 52.7225 29.0883ZM63.6345 58.1765C60.6088 58.1765 58.1765 60.6123 58.1765 63.6345V67.5785L67.5785 58.1765H63.6345Z" fill="#7561E5"/>
</svg>
