<?xml version="1.0" encoding="UTF-8" standalone="no"?>
<!DOCTYPE svg PUBLIC "-//W3C//DTD SVG 1.1//EN" "http://www.w3.org/Graphics/SVG/1.1/DTD/svg11.dtd">
<svg width="100%" height="100%" viewBox="0 0 238 88" version="1.1" xmlns="http://www.w3.org/2000/svg" xmlns:xlink="http://www.w3.org/1999/xlink" xml:space="preserve" xmlns:serif="http://www.serif.com/" style="fill-rule:evenodd;clip-rule:evenodd;stroke-linejoin:round;stroke-miterlimit:2;">
    <g>
        <path d="M109.2,10.8C112.4,11.6 115.7,12.4 118.9,13.3L119.2,12.3C116,11.4 112.7,10.6 109.5,9.8L109.2,10.8Z" style="fill:rgb(117,97,229);fill-rule:nonzero;"/>
        <path d="M89.7,6.7C92.9,7.2 96.2,7.9 99.5,8.5L99.7,7.5C96.4,6.8 93.1,6.2 89.9,5.7L89.7,6.7Z" style="fill:rgb(117,97,229);fill-rule:nonzero;"/>
        <path d="M128.5,16.1C131.6,17.1 134.8,18.2 138,19.3L138.3,18.4C135.2,17.3 132,16.2 128.8,15.2L128.5,16.1Z" style="fill:rgb(117,97,229);fill-rule:nonzero;"/>
        <path d="M20,3.9C17.6,4.2 15.2,4.6 12.8,4.9C12.1,2.1 9.6,0 6.5,0C2.9,0 0,2.9 0,6.5C0,10.1 2.9,13 6.5,13C10.1,13 13,10.1 13,6.5L13,5.9C15.4,5.5 17.7,5.2 20.1,4.9L20,3.9Z" style="fill:rgb(117,97,229);fill-rule:nonzero;"/>
        <path d="M50,3.2C53.3,3.2 56.6,3.3 60,3.5L60,2.5C56.6,2.3 53.3,2.2 50,2.2L50,3.2Z" style="fill:rgb(117,97,229);fill-rule:nonzero;"/>
        <path d="M29.9,2.9L30,3.9C33.3,3.6 36.6,3.4 40,3.3L40,2.3C36.6,2.4 33.2,2.6 29.9,2.9Z" style="fill:rgb(117,97,229);fill-rule:nonzero;"/>
        <path d="M69.9,4.2C73.2,4.5 76.5,4.9 79.8,5.3L79.9,4.3C76.6,3.9 73.2,3.5 69.9,3.2L69.9,4.2Z" style="fill:rgb(117,97,229);fill-rule:nonzero;"/>
        <path d="M199.9,51C202.6,53 205.2,55 207.8,57.1L208.4,56.3C205.8,54.2 203.2,52.2 200.5,50.2L199.9,51Z" style="fill:rgb(117,97,229);fill-rule:nonzero;"/>
        <path d="M147.3,22.8C150.4,24 153.5,25.3 156.5,26.6L156.9,25.7C153.9,24.4 150.8,23.1 147.6,21.9L147.3,22.8Z" style="fill:rgb(117,97,229);fill-rule:nonzero;"/>
        <g transform="matrix(1,0,0,1,-1,-1)">
            <path d="M230.1,77.2L229.3,77.9C231.5,80.4 233.6,82.9 235.7,85.6L236.5,85C234.4,82.2 232.3,79.7 230.1,77.2Z" style="fill:rgb(117,97,229);fill-rule:nonzero;"/>
        </g>
        <path d="M215.4,63.6C217.9,65.8 220.3,68.2 222.6,70.5L223.3,69.8C221,67.4 218.5,65.1 216.1,62.9L215.4,63.6Z" style="fill:rgb(117,97,229);fill-rule:nonzero;"/>
        <path d="M183.2,40.1C186.1,41.8 188.9,43.6 191.7,45.4L192.2,44.6C189.4,42.8 186.6,41 183.7,39.3L183.2,40.1Z" style="fill:rgb(117,97,229);fill-rule:nonzero;"/>
        <path d="M166,29.8L165.6,30.7C166.4,31.1 167.1,31.4 167.9,31.8C170.1,32.9 172.3,34 174.5,35.2L175,34.3C172.8,33.1 170.6,32 168.4,30.9C167.6,30.6 166.8,30.2 166,29.8Z" style="fill:rgb(117,97,229);fill-rule:nonzero;"/>
        <g transform="matrix(-0.622205,-0.782854,0.782854,-0.622205,229.969,89.8205)">
            <path d="M13,6.5C13,6.3 12.993,5.674 12.8,4.9C12.1,2.1 9.6,0 6.5,0C2.9,0 0,2.9 0,6.5C0,10.1 2.9,13 6.5,13C10.1,13 13,10.1 13,6.5Z" style="fill:rgb(117,97,229);"/>
        </g>
    </g>
</svg>
