<svg width="20" height="20" viewBox="0 0 20 20" fill="none" xmlns="http://www.w3.org/2000/svg">
<path d="M9.17508 13.826C9.61663 14.2679 10.3322 14.2676 10.7735 13.826L15.6164 8.98315C16.0579 8.5419 16.0579 7.826 15.6164 7.38475C15.1751 6.94321 14.4595 6.94321 14.018 7.38475L11.1046 10.2981V2.13036C11.1046 1.50601 10.5983 1 9.97428 1C9.34994 1 8.84392 1.50601 8.84392 2.13036V10.2981L5.93061 7.38475C5.48906 6.94321 4.77346 6.94321 4.33192 7.38475C3.89066 7.826 3.89066 8.5419 4.33192 8.98315L9.17508 13.826Z" fill="#0C1937"/>
<path d="M14.8164 16.7393H5.13036C4.50631 16.7393 4 17.2453 4 17.8696C4 18.4937 4.50631 19 5.13036 19H14.8164C15.4405 19 15.9468 18.4937 15.9468 17.8696C15.9468 17.2453 15.4407 16.7393 14.8164 16.7393Z" fill="#0C1937"/>
</svg>
