<svg width="67" height="111" viewBox="0 0 67 111" fill="none" xmlns="http://www.w3.org/2000/svg">
<path d="M32.4336 2.08652C31.4424 2.04915 30.4651 2.32577 29.6441 2.87608C28.8162 3.43099 28.1916 4.23454 27.8622 5.16729C27.5328 6.1 27.5159 7.11273 27.814 8.05564C28.1122 8.99858 28.7097 9.82197 29.5186 10.4035L29.5687 10.4395C29.6072 10.467 29.637 10.5049 29.6548 10.5487L29.6773 10.6043C30.1234 11.6568 30.424 12.764 30.5707 13.896L30.572 13.9056L30.5718 13.9057L30.5733 13.9224L30.5744 13.9343L30.5741 13.9343C30.5821 14.124 30.6324 14.3097 30.7214 14.4782C30.8105 14.6467 30.9362 14.7939 31.0897 14.9092L31.0924 14.9112L31.0924 14.9112C31.4649 15.1988 31.929 15.3466 32.402 15.3277L32.4058 15.3275L32.4058 15.3276C33.4433 15.3017 34.1825 14.5956 34.1643 13.85L34.1642 13.8439H34.1642V13.8274C34.1642 13.8214 34.1644 13.8155 34.1649 13.8095C34.2431 12.7212 34.4699 11.6484 34.8389 10.6203L34.8598 10.5578C34.8764 10.5082 34.9081 10.465 34.9506 10.4343L35.0062 10.3942L32.4336 2.08652ZM32.4336 2.08652C32.4416 2.08764 32.4497 2.08838 32.4578 2.08873C33.4215 2.13014 34.3481 2.4665 35.1097 3.05097C35.8712 3.63542 36.43 4.43899 36.7093 5.35037C36.9887 6.26172 36.9749 7.23631 36.67 8.13965C36.3652 9.04288 35.7841 9.83069 35.0065 10.3939L32.4336 2.08652ZM29.8888 14.9066C30.0403 15.1945 30.2536 15.4459 30.5134 15.6433L32.4235 16.0091L32.4297 16.259C32.43 16.259 32.4303 16.259 32.4306 16.259C33.8908 16.2222 35.1227 15.1767 35.102 13.8466C35.1729 12.8958 35.3669 11.9579 35.6793 11.056C36.5859 10.3613 37.2555 9.40683 37.5959 8.32135C37.944 7.21136 37.93 6.02111 37.5559 4.91945C37.1819 3.81782 36.4669 2.86105 35.5129 2.18444C34.559 1.50786 33.4142 1.1456 32.2409 1.14861C31.0676 1.15162 29.9248 1.51977 28.9743 2.20124C28.0239 2.88275 27.3139 3.84316 26.9457 4.9467C26.5774 6.05028 26.5697 7.24058 26.9236 8.34876C27.2704 9.43473 27.9471 10.3874 28.8602 11.0779C29.2447 12.0102 29.5059 12.9878 29.6374 13.9864C29.653 14.3076 29.7388 14.6215 29.8888 14.9066Z" fill="#E59405" stroke="#FFC800" stroke-width="0.5" stroke-linejoin="round"/>
<path d="M32.5211 1.83775C31.4684 1.79244 30.4288 2.0837 29.5566 2.6684C28.6843 3.2531 28.0256 4.10014 27.6781 5.08403C27.3306 6.06791 27.3128 7.13632 27.6273 8.131C27.9419 9.12567 28.572 9.99369 29.4243 10.6065L29.4748 10.6427L29.498 10.7001C29.9358 11.7322 30.2306 12.818 30.3745 13.9282L30.376 13.9449C30.3856 14.1718 30.4457 14.3938 30.5521 14.595C30.6584 14.7962 30.8084 14.9718 30.9913 15.1091C31.4105 15.4327 31.9323 15.5987 32.4637 15.5775C33.5919 15.5494 34.4886 14.7705 34.4659 13.8439V13.8274C34.5426 12.7609 34.7649 11.7096 35.1269 10.7021L35.1486 10.637L35.2045 10.5966C36.024 10.0031 36.6369 9.17249 36.9586 8.21959C37.2802 7.26668 37.2947 6.23849 37 5.27709C36.7054 4.3157 36.1161 3.46853 35.3136 2.85264C34.5111 2.23675 33.535 1.88255 32.5202 1.83895L32.5211 1.83775Z" fill="#FFC800"/>
<path d="M34.3016 15.4363L30.5132 15.53L30.5514 17.0397L34.3397 16.946L34.3016 15.4363Z" fill="#0C1937"/>
<path d="M34.8699 13.8779L29.8647 14.0035L29.927 16.4331L34.9323 16.3074L34.8699 13.8779Z" fill="#0C1937"/>
<path d="M51.3792 1.01072C51.3792 1.01072 54.6734 0.66939 55.8629 3.81708C57.0524 6.96477 58.1688 7.99567 58.3087 9.64947C58.8742 16.3376 62.0327 14.8249 61.1442 18.6801C60.2556 22.5352 59.6409 23.1196 59.6409 23.1196L52.0909 21.655L44.4415 21.6795C44.4415 21.6795 47.4334 20.2017 46.7685 17.0538C46.1037 13.9058 44.4415 8.7465 45.3798 5.23236C46.3182 1.71822 49.4096 1.27943 51.3792 1.01072Z" fill="#1E2E4C"/>
<path d="M49.2945 104.36C49.2945 104.36 46.9269 107.575 47.2633 108.094C47.5996 108.612 50.1833 108.686 51.7548 108.094C53.3264 107.502 53.3641 103.67 54.0753 102.023C54.3732 101.333 53.7362 99.299 52.8404 99.1514C52.1751 99.0959 51.5062 99.205 50.8941 99.4688C50.8941 99.4688 51.811 101.811 49.2945 104.36Z" fill="#8B74FF"/>
<path d="M50.8941 99.4685C50.7845 100.341 50.622 101.207 50.4076 102.06C50.1081 103.133 48.4991 105.576 48.5734 105.873C48.6478 106.169 50.6696 106.436 51.4931 105.674C52.3167 104.911 52.9526 102.699 53.0275 101.361C53.0827 100.619 53.0196 99.8726 52.8404 99.1496C52.8404 99.1496 51.6799 98.6537 50.8941 99.4685Z" fill="#EEA886"/>
<path d="M54.0753 102.023V105.446H53.6265V102.8L54.0753 102.023Z" fill="#8B74FF"/>
<path d="M55.4885 104.36C55.4885 104.36 53.1218 107.575 53.4582 108.094C53.7946 108.612 56.3779 108.686 57.9498 108.094C59.5216 107.502 59.5588 103.67 60.2705 102.023C60.5679 101.333 59.9308 99.299 59.035 99.1514C58.3698 99.0959 57.7011 99.205 57.0891 99.4688C57.0891 99.4688 58.0057 101.811 55.4885 104.36Z" fill="#8B74FF"/>
<path d="M57.0891 99.4685C56.9795 100.341 56.817 101.207 56.6025 102.06C56.303 103.133 54.6937 105.576 54.7681 105.873C54.8424 106.169 56.8646 106.436 57.6878 105.674C58.511 104.911 59.1475 102.699 59.2225 101.361C59.2775 100.619 59.2143 99.8726 59.0351 99.1496C59.0351 99.1496 57.8746 98.6537 57.0891 99.4685Z" fill="#EEA886"/>
<path d="M60.2705 102.023V105.446H59.8211V102.8L60.2705 102.023Z" fill="#8B74FF"/>
<path d="M44.9432 46.1748C44.9432 46.1748 43.1522 55.9326 42.6687 58.3734C42.1851 60.8142 40.8294 72.6365 40.6843 74.6474C40.5392 76.6584 45.0997 86.3269 45.3856 86.994C50.1579 98.1596 50.7086 100.686 50.7086 100.686C50.7086 100.686 52.2753 101.657 52.9994 100.498C53.2194 100.145 50.0621 87.3425 49.5414 83.7898C49.0579 80.4867 47.7991 75.3857 48.1382 74.2251C48.4773 73.0645 51.5744 57.0896 52.1559 56.4192C52.7374 55.7487 53.6065 56.8024 53.9462 58.2864C54.2859 59.7704 55.0107 72.5976 55.4462 74.2251C55.8816 75.8526 55.5435 81.3571 55.7852 84.1333C56.027 86.9094 57.0352 99.8681 57.0352 99.8681C57.0352 99.8681 58.9845 100.213 59.1782 99.9043C59.372 99.5958 61.0602 85.5115 61.1082 82.2095C61.1563 78.9076 61.2083 74.3518 61.3022 72.9231C62.1986 59.2372 63.8923 57.4471 60.9317 47.5966C53.6869 23.4956 44.9432 46.1748 44.9432 46.1748Z" fill="#EEA886"/>
<path d="M44.9432 46.1748C44.9432 46.1748 43.1522 55.9326 42.6687 58.3734C42.1851 60.8142 40.8294 72.6365 40.6843 74.6474C40.5392 76.6584 44.9432 86.3266 45.0399 87.0442C45.1366 87.7619 48.7635 98.0398 48.7635 98.0398C48.7635 98.0398 52.4273 97.9779 53.4255 97.0385C53.6265 96.8501 50.0612 87.3422 49.5405 83.7901C49.0569 80.487 47.7982 75.386 48.1373 74.2254C48.4764 73.0648 51.5735 57.0899 52.155 56.4195C52.7365 55.749 53.6056 56.8027 53.9453 58.2867C54.285 59.7707 55.0097 72.5979 55.4452 74.2254C55.8807 75.8529 55.5426 81.3574 55.7843 84.1336C56.0261 86.9097 55.5163 96.7736 55.5163 96.7736C55.5163 96.7736 60.3149 97.0226 60.5083 96.7138C60.7017 96.4051 61.0593 85.5115 61.1073 82.2095C61.1554 78.9076 61.2073 74.3518 61.3013 72.9231C62.1977 59.2372 63.8913 57.4471 60.9308 47.5966C53.6869 23.4956 44.9432 46.1748 44.9432 46.1748Z" fill="#0C1937"/>
<path d="M61.6504 49.4584C61.9296 49.3466 59.689 42.0192 59.2448 39.8291C58.844 37.8537 57.4786 36.0442 58.812 32.6792C59.2907 31.3283 59.5317 29.9061 59.5246 28.4746C59.5246 28.4746 61.564 32.9252 61.7577 34.0745C61.9514 35.2237 54.7075 33.1329 54.6072 33.292C54.4162 33.5944 54.2047 35.5337 54.2047 36.2035C54.2047 36.7574 64.7203 39.2149 65.9646 37.0374C66.3176 36.4193 64.0337 24.6009 62.5601 23.0266C60.1402 20.4421 53.784 18.2398 53.784 18.2398C53.784 18.2398 52.0417 17.3147 48.9766 18.272C45.9115 19.2294 41.6203 22.1643 40.8771 22.9304C40.134 23.6964 37.1662 35.2372 36.9069 36.732C36.6633 38.1368 36.7591 41.0959 40.0046 40.7175L48.7644 38.7337L48.2204 36.0929L41.6547 36.6064C40.3144 36.8327 40.9569 35.6694 41.128 35.0223C41.2954 34.3883 42.9434 28.515 42.9434 28.515C42.8476 30.1419 44.0885 35.4853 44.7343 37.3363C45.3802 39.1874 43.9531 49.0908 43.8558 50.1752C43.8558 50.1752 49.131 54.4596 61.6504 49.4584Z" fill="#7561E5"/>
<path d="M55.2141 18.782C55.2141 18.782 53.0529 23.1922 51.2487 24.4849C51.2487 24.4849 47.9995 19.6691 48.166 18.5587C48.166 18.5587 51.7643 16.9802 55.2141 18.782Z" fill="#EEA886"/>
<path d="M55.2917 33.6524C55.2917 33.6524 54.2911 33.2534 54.0251 32.8938C53.7592 32.5343 52.8716 32.3203 52.2151 32.5134C51.5587 32.7064 51.9217 35.4984 51.9217 35.4984L55.3891 35.9423L55.2917 33.6524Z" fill="#EEA886"/>
<path d="M49.0174 35.7842C49.0174 35.7842 49.3498 33.9806 49.2707 33.648C49.1915 33.3153 49.8633 32.9811 49.9567 33.804C50.0501 34.6269 50.0999 35.149 50.0999 35.149L49.0174 35.7842Z" fill="#EEA886"/>
<path d="M50.4587 37.0366L52.9825 36.9343C53.138 36.9282 53.2851 36.8633 53.3936 36.753C53.5021 36.6428 53.5636 36.4955 53.5655 36.3416L53.6329 30.8766C53.6339 30.7955 53.6182 30.7149 53.5869 30.6399C53.5555 30.565 53.5091 30.497 53.4505 30.4403C53.3918 30.3835 53.3222 30.3391 53.2457 30.3097C53.1692 30.2803 53.0875 30.2665 53.0055 30.2692L49.9833 30.3667C49.9012 30.3694 49.8206 30.3885 49.7462 30.4228C49.6718 30.4572 49.6052 30.506 49.5504 30.5665C49.4956 30.6269 49.4538 30.6977 49.4273 30.7746C49.4009 30.8515 49.3905 30.9328 49.3967 31.0138L49.8283 36.4821C49.8404 36.6372 49.9129 36.7817 50.0304 36.8851C50.148 36.9885 50.3015 37.0428 50.4587 37.0366Z" fill="#F8F8F8"/>
<path d="M48.9615 35.9313C48.9615 35.9313 48.9153 35.4186 49.9099 34.9494C51.2306 34.3262 52.9925 33.694 53.2947 33.8563C53.7284 34.0918 53.5063 34.4182 52.6703 34.6902C51.8344 34.9622 51.56 35.0489 51.56 35.0489C51.56 35.0489 53.1919 34.8953 53.5597 35.0881C53.9275 35.2808 53.9463 35.728 53.6785 35.8015C53.3818 35.8601 53.0814 35.8992 52.7794 35.9187C52.7794 35.9187 53.4724 35.9447 53.5416 36.2197C53.5927 36.4238 53.6184 36.7156 52.9626 36.8357C52.9626 36.8357 53.4077 37.3238 52.7404 37.6371C51.9423 37.9597 51.1103 38.1933 50.2598 38.3335C48.999 38.5379 46.1497 38.3855 46.1497 38.3855L47.3189 36.4286C47.6883 36.4555 48.0596 36.4216 48.4178 36.3285C49.0228 36.1243 48.9615 35.9313 48.9615 35.9313Z" fill="#EEA886"/>
<path d="M48.2217 36.0917L48.7657 38.7325L43.184 39.9968L42.9685 36.5027L48.2217 36.0917Z" fill="#7561E5"/>
<path d="M55.5704 33.4913C55.1193 33.7823 54.7548 34.187 54.5147 34.6638C54.2747 35.1406 54.1676 35.6721 54.2047 36.2035C54.2047 36.2035 57.6669 37.4538 57.3837 44.619V41.2603L55.5704 33.4913Z" fill="#7561E5"/>
<path d="M48.7657 38.7337L44.8525 40.8858C44.88 40.4374 44.8991 40.0073 44.9081 39.6077L48.7657 38.7337Z" fill="#6554E2"/>
<path d="M59.052 39.0209C55.9122 37.7871 54.6559 36.6743 54.3108 36.321C54.2733 36.2841 54.2379 36.2452 54.2047 36.2044L58.663 37.4897C58.7739 38.0235 58.9202 38.5248 59.052 39.0209Z" fill="#6554E2"/>
<path d="M51.8138 2.85194C51.8138 2.85194 56.179 3.47545 55.5401 9.84615C54.9012 16.2169 51.0488 15.7138 50.7913 15.7084C50.5339 15.703 46.9263 15.8414 46.6138 8.06443C46.6138 8.06532 46.469 2.31632 51.8138 2.85194Z" fill="#EEA886"/>
<path d="M53.7531 14.5789C53.7531 14.5789 53.4833 17.894 54.1291 18.8869C54.7749 19.8798 53.5766 21.2285 51.1087 20.767C48.6408 20.3055 48.785 18.9228 48.785 18.9228C48.785 18.9228 49.4755 16.8765 49.2734 15.2389C49.0712 13.6012 53.7531 14.5789 53.7531 14.5789Z" fill="#EEA886"/>
<path d="M51.3149 5.16181C51.3149 5.16181 53.3543 7.2822 54.3017 8.35613C55.2492 9.43007 55.358 11.5038 55.358 11.5038C55.358 11.5038 56.954 9.57594 56.2864 7.33092C55.6188 5.0859 54.0397 0.71812 50.0432 2.05927C46.0466 3.40043 45.8979 9.30753 46.3664 12.2355C46.3664 12.2355 48.161 5.77127 51.3149 5.16181Z" fill="#1E2E4C"/>
<path d="M49.5945 15.4203C50.1916 15.6644 50.8417 15.7544 51.4836 15.6819C52.1255 15.6094 52.7383 15.3767 53.2644 15.0057C53.0766 15.333 52.8118 15.6105 52.4923 15.8148C52.1728 16.019 51.8081 16.1439 51.4293 16.1789C50.0974 16.3247 49.5945 15.4203 49.5945 15.4203Z" fill="#A77860"/>
<path d="M48.9612 16.5767C48.9612 16.5767 42.9552 21.8609 44.5138 25.1583C45.8435 27.9719 50.5609 26.246 49.7824 23.298C49.0038 20.35 48.9612 16.5767 48.9612 16.5767Z" fill="#1E2E4C"/>
<path d="M50.5962 31.4203C50.5962 31.4937 50.5741 31.5655 50.5329 31.6266C50.4916 31.6876 50.433 31.7352 50.3644 31.7633C50.2958 31.7914 50.2203 31.7987 50.1475 31.7844C50.0747 31.77 50.0078 31.7346 49.9553 31.6827C49.9028 31.6307 49.8671 31.5645 49.8526 31.4925C49.8382 31.4205 49.8457 31.3458 49.8741 31.278C49.9026 31.2102 49.9507 31.1522 50.0125 31.1115C50.0743 31.0707 50.1469 31.049 50.2211 31.049C50.3206 31.0491 50.416 31.0883 50.4863 31.1579C50.5566 31.2275 50.5962 31.3219 50.5962 31.4203Z" fill="#48484D"/>
<path d="M18.6722 20.7152C18.6722 20.7152 23.2267 22.0379 22.9477 28.1611C22.6688 34.2843 18.6722 20.7152 18.6722 20.7152Z" fill="#EEA886"/>
<path d="M18.2527 20.7152C18.2527 20.7152 18.6039 21.1878 18.1648 24.2348C17.7257 27.2817 18.5577 28.5556 18.6571 29.8242C18.7565 31.0927 20.2589 39.281 20.3009 39.6426C20.3429 40.0043 20.5426 44.3637 21.1298 45.5202C21.7171 46.6766 26.0273 53.2317 26.0862 53.5581C26.1452 53.8845 28.1794 52.4169 28.1794 52.4169C28.1794 52.4169 24.3089 44.4525 24.0581 43.6673C23.7465 42.6926 22.7936 40.2772 22.7352 39.0134C22.592 35.924 22.8755 28.7496 22.7655 27.1867C22.5587 24.2602 20.2274 21.1806 18.2527 20.7152Z" fill="#EEA886"/>
<path d="M24.0577 46.8604C24.0577 46.8604 24.7356 48.3343 25.1367 48.4255C25.5377 48.5166 26.0131 49.008 26.3582 49.1587C26.7034 49.3093 27.7817 49.3915 28.0724 49.6704C28.1906 49.7849 28.6466 50.7676 28.9123 50.9736C29.1779 51.1795 29.7682 51.5334 29.5856 51.7549C29.4031 51.9764 28.7908 51.8027 28.7908 51.8027C28.8536 51.857 28.8994 51.9279 28.9228 52.0071C28.9462 52.0862 28.9462 52.1704 28.9229 52.2496C28.7304 52.7257 28.4073 52.7472 28.4073 52.7472C28.4073 52.7472 28.5109 53.1059 28.3801 53.2819C28.3153 53.3879 28.228 53.4788 28.1244 53.5483C28.0207 53.6178 27.9031 53.6643 27.7796 53.6846C27.7486 53.8759 27.6501 54.0502 27.5015 54.1766C27.4026 54.2561 27.2846 54.3089 27.1589 54.3299C27.0332 54.3508 26.9042 54.3392 26.7844 54.2961C26.7844 54.2961 26.4637 54.7346 26.1672 54.6491C25.9194 54.5404 25.6898 54.3947 25.4866 54.2172C24.516 53.2513 23.755 52.0997 23.2502 50.8328C22.8831 49.82 22.3807 48.8603 21.7563 47.9792L24.0577 46.8604Z" fill="#EEA987"/>
<path d="M36.5258 44.8694L28.4417 35.0085L11.8033 48.3509L19.8874 58.2118L36.5258 44.8694Z" fill="#3E36B2"/>
<path d="M28.7081 51.6075C28.7081 51.6075 27.4185 50.1907 26.7763 50.2176C26.1341 50.2445 26.5717 50.7813 26.5717 50.7813C26.5717 50.7813 26.1486 50.2433 25.6907 50.5285C25.2328 50.8136 25.7792 51.4147 25.7792 51.4147C25.7215 51.3706 25.6552 51.3387 25.5845 51.321C25.5138 51.3033 25.4401 51.3002 25.3682 51.3119C25.2962 51.3236 25.2274 51.3498 25.1661 51.3889C25.1048 51.4281 25.0523 51.4793 25.0119 51.5394C24.6734 51.9877 25.2371 52.3855 25.2371 52.3855C25.2371 52.3855 24.3869 52.2615 24.5689 52.9484C24.8765 54.1078 26.1425 54.6745 26.1425 54.6745C26.1425 54.6745 26.4964 54.7719 26.792 54.3179C26.8989 54.3599 27.0142 54.3768 27.1288 54.3673C27.2434 54.3577 27.3542 54.322 27.4525 54.2628C27.5507 54.2036 27.6338 54.1227 27.695 54.0264C27.7562 53.9301 27.794 53.8211 27.8053 53.7079C27.8053 53.7079 28.7356 53.4959 28.44 52.7615C28.44 52.7615 29.4192 52.4229 28.7081 51.6075Z" fill="#DB9C7C"/>
<path d="M14.5082 2.82683C14.5082 2.82683 7.92196 2.28462 8.10117 9.13745C8.28039 15.9903 9.37865 17.0206 8.09694 21.8627C6.81523 26.7049 14.5188 19.1129 14.5188 19.1129L14.5082 2.82683Z" fill="#7561E5"/>
<path d="M7.33178 45.1708C7.33178 45.1708 4.90648 48.2273 4.05029 50.252C3.19411 52.2768 1.76764 56.7067 1.95803 60.1401C2.14843 63.5736 3.28779 70.0175 2.95535 71.4755C2.62291 72.9336 2.29048 75.9447 1.93356 76.9788C1.57664 78.013 0.150466 81.0232 0.00691187 84.1276C-0.136642 87.2319 2.00457 100.872 1.90907 102.142C1.81357 103.411 4.33498 102.66 4.33498 102.66C4.33498 102.66 5.19056 90.3366 5.66656 88.2198C6.14255 86.103 6.71223 78.9073 7.14078 78.3897C7.56932 77.872 8.73921 72.5106 8.55788 71.6645C8.37655 70.8183 13.2281 58.1181 13.5143 55.5787C13.8005 53.0392 20.9525 45.1723 20.9525 45.1723C16.5242 43.7624 11.7604 43.7619 7.33178 45.1708Z" fill="#EEA987"/>
<path d="M18.9071 45.1708C18.9594 45.7596 19.0484 46.3446 19.1737 46.9226C19.3166 47.3925 22.5978 59.3866 22.9305 63.9968C23.2633 68.607 24.1195 72.5154 24.2621 73.5C24.4048 74.4845 24.1195 77.7775 23.8342 78.6243C23.5489 79.4711 25.2609 99.4601 25.4036 99.9309C25.5462 100.402 24.2621 100.542 23.3588 100.4C22.4554 100.259 17.8886 85.7246 18.1751 83.2808C18.4616 80.837 18.7454 75.6201 17.937 73.5C17.1285 71.3799 9.85233 56.0473 9.80488 55.107C9.75743 54.1667 6.65667 37.9631 18.9071 45.1708Z" fill="#EEA987"/>
<path d="M4.29027 101.159C4.29027 101.159 4.52509 102.783 4.78107 103.226C5.03705 103.669 5.74031 105.925 6.06066 106.347C6.38101 106.769 7.08427 109.931 6.06066 110.311C5.03704 110.691 2.62716 111.323 1.81782 110.058C1.14368 109.021 0.86393 107.78 1.02843 106.557C1.15626 105.588 2.1291 101.135 2.11641 100.695C2.10371 100.254 4.29027 101.159 4.29027 101.159Z" fill="#EEA987"/>
<path d="M5.65206 105.47C5.65206 105.47 5.76176 107.928 3.88559 107.928C2.00942 107.928 1.17771 105.691 1.17771 105.691C1.17771 105.691 0.538219 106.789 1.17771 109.131C1.81721 111.472 4.48278 110.986 5.07966 110.901C5.67654 110.817 8.50621 110.076 5.65206 105.47Z" fill="white"/>
<path d="M25.201 98.9499C25.201 98.9499 26.5275 101.297 27.3147 101.772C28.2963 102.365 30.2015 104.265 30.8664 104.353C31.5313 104.441 33.9243 104.861 33.4622 106.196C33.0835 107.29 27.3782 107.133 26.7351 106.584C26.092 106.035 24.1662 104.067 23.391 104.111C22.6159 104.155 22.903 106.95 22.903 106.95H22.0601C22.0601 106.95 21.7654 104.23 21.73 103.762C21.6249 102.378 22.6228 101.359 22.6669 100.57C22.7111 99.7812 22.7576 99.1908 22.7576 99.1908L25.201 98.9499Z" fill="white"/>
<path d="M30.6763 104.29C30.6763 104.29 28.7953 104.932 27.348 104.111C25.9007 103.289 23.123 102.039 22.1407 102.029C22.1407 102.029 22.6757 100.409 22.6872 100.227C22.6986 100.046 22.757 99.1935 22.757 99.1935L25.1856 98.8088C25.1856 98.8088 26.7611 101.095 27.455 101.634C28.1488 102.173 29.928 103.515 30.6763 104.29Z" fill="#EEA987"/>
<path d="M20.993 44.9594C20.993 44.9594 21.6699 47.7458 21.9202 48.5576C22.1704 49.3694 23.7728 61.956 24.1668 69.8292C24.1668 69.8292 14.5723 73.4265 1.37533 72.8269C1.37533 72.8269 1.05408 58.3641 2.26658 54.2722C3.47908 50.1803 5.6753 46.3514 7.33176 45.1708C8.80599 44.1198 20.993 44.9594 20.993 44.9594Z" fill="#FFC800"/>
<path d="M22.6416 28.4821C22.5346 30.1407 21.8486 31.2021 21.7047 31.7999C21.5608 32.3977 21.7047 33.7756 21.527 35.1517C21.3493 36.5278 20.8135 43.0886 20.9921 44.9585C21.1707 46.8284 8.01631 45.9835 7.01808 45.4192C7.01808 45.4192 9.23335 41.5012 9.29288 39.8782C9.31313 39.321 9.6498 37.5853 8.72199 36.3159C8.2324 35.6455 7.32423 33.5117 6.41788 31.952C6.0661 31.347 5.69861 30.7439 5.44172 30.2949C5.2206 29.8882 5.04565 29.4586 4.92009 29.0139C4.92009 29.0139 4.33499 21.8176 5.93977 21.0064C7.54455 20.1952 8.40074 20.0538 9.97046 19.9833C10.8507 19.9536 11.7245 19.8232 12.5744 19.5947L16.2481 19.9833C16.9533 20.3103 17.702 20.5364 18.4716 20.6546C19.3988 20.7248 20.5318 22.717 21.093 24.1607C21.5563 25.3509 22.7495 26.8241 22.6416 28.4821Z" fill="#FFC800"/>
<path d="M7.93474 20.2558C7.93474 20.2558 5.0274 20.495 3.93397 23.1375C2.84054 25.7801 2.93272 28.4636 2.69487 29.4395C2.45703 30.4154 2.11069 36.0702 1.86166 36.9062C1.20769 39.4797 0.774487 42.1032 0.566651 44.7487C0.375347 47.8812 0.847113 54.4874 0.847113 54.4874L2.45824 53.7132C2.45824 53.7132 3.89256 43.9175 4.51332 41.847C5.04492 40.0763 5.04493 37.0646 5.34352 35.9767C5.64211 34.8887 7.46781 28.3437 7.76127 27.6805C8.21278 26.6636 10.4332 20.2227 7.93474 20.2558Z" fill="#EEA886"/>
<path d="M13.8642 3.52086C15.4962 3.25633 19.2322 3.66105 20.2912 7.90032C20.2886 8.61002 20.2294 9.3184 20.1141 10.0189C19.9352 10.9622 21.0715 13.5566 20.8715 13.7136C20.5291 13.8894 20.1704 14.0324 19.8004 14.1404C19.8004 14.1404 19.182 17.1844 18.1367 17.277C17.0913 17.3697 13.054 17.0107 10.7743 13.5686C8.49469 10.1265 7.27191 4.58792 13.8642 3.52086Z" fill="#EEA886"/>
<path d="M16.5743 16.0973C16.5743 16.0973 16.4939 16.5232 16.4189 17.1503C16.3806 17.4713 16.3437 17.8434 16.3201 18.2377C16.2551 19.3307 16.2899 20.5951 16.6655 21.3973C16.6655 21.3973 14.6162 22.6297 12.4242 19.615C12.4242 19.615 12.6409 15.8743 11.3819 13.8857C10.1228 11.8972 16.5743 16.0973 16.5743 16.0973Z" fill="#EEA886"/>
<path d="M20.2912 7.90033C20.2912 7.90033 17.8333 9.99888 15.2312 10.6609C12.6291 11.323 11.2504 14.2139 11.2504 14.2139C11.2504 14.2139 6.64516 9.6707 9.42467 5.26316C12.2042 0.855614 20.2864 2.82057 20.2912 7.90033Z" fill="#7561E5"/>
<path d="M16.4188 17.1503C16.3805 17.4713 16.3436 17.8434 16.32 18.2377C14.973 17.6043 13.7636 16.7176 12.7593 15.6271C14.1087 16.5821 16.4188 17.1503 16.4188 17.1503Z" fill="#A77860"/>
<path d="M14.7524 10.8116C14.7524 10.8116 12.0902 17.8916 12.409 19.5956C12.409 19.5956 10.9998 19.3565 8.49048 20.1145C8.49048 20.1145 9.70358 7.48365 14.7524 10.8116Z" fill="#7561E5"/>
<path d="M11.52 19.8242C11.52 19.8242 12.3964 25.1338 15.6425 24.5346C18.8887 23.9353 16.4265 20.0439 16.4265 20.0439C16.4265 20.0439 14.9852 18.8492 11.52 19.8242Z" fill="#EEA886"/>
<path d="M2.49721 53.4445C2.67906 54.0201 2.89832 54.5835 3.15362 55.1312C3.34916 55.5446 3.6414 58.3258 3.65259 58.6881C3.66196 58.9918 3.44557 58.828 3.32679 58.6367C3.25849 58.5264 3.0004 57.5768 2.7828 57.0776C2.59875 56.6592 2.4555 56.5073 2.38991 56.652C2.30991 57.5547 2.36212 58.464 2.54495 59.3519C2.7689 60.1052 2.72991 61.8821 2.30318 61.6576C1.87645 61.4332 0.680875 58.3136 0.671204 57.1069C0.678678 56.2156 0.7373 55.3255 0.846791 54.4407L2.49721 53.4445Z" fill="#EEA886"/>
</svg>
