<svg width="8" height="8" viewBox="0 0 8 8" fill="none" xmlns="http://www.w3.org/2000/svg">
<path d="M7.81804 0.18177C7.76323 0.124328 7.69732 0.0785999 7.6243 0.0473552C7.55128 0.0161105 7.47267 0 7.39324 0C7.3138 0 7.23519 0.0161105 7.16217 0.0473552C7.08915 0.0785999 7.02325 0.124328 6.96844 0.18177L3.99486 3.15216L1.02129 0.18177C0.908238 0.0710991 0.756033 0.00946665 0.597748 0.0102652C0.439464 0.0110638 0.287893 0.074229 0.175968 0.186035C0.0640421 0.29784 0.00080711 0.449252 7.67318e-06 0.607367C-0.000791764 0.765481 0.0609049 0.917523 0.171694 1.03045L3.14527 4.00084L0.171694 6.97123C0.0609049 7.08416 -0.000791764 7.2362 7.67318e-06 7.39432C0.00080711 7.55243 0.0640421 7.70384 0.175968 7.81565C0.287893 7.92746 0.439464 7.99062 0.597748 7.99142C0.756033 7.99222 0.908238 7.93059 1.02129 7.81991L3.99486 4.84953L6.96844 7.81991C7.02402 7.87657 7.09029 7.92165 7.16342 7.95256C7.23655 7.98347 7.31509 7.99959 7.3945 7.99999C7.4739 8.00039 7.5526 7.98507 7.62604 7.9549C7.69948 7.92473 7.7662 7.88031 7.82235 7.82422C7.87849 7.76813 7.92296 7.70148 7.95316 7.62812C7.98336 7.55476 7.99871 7.47615 7.99831 7.39683C7.9979 7.31751 7.98176 7.23905 7.95082 7.166C7.91988 7.09295 7.87475 7.02675 7.81804 6.97123L4.84446 4.00084L7.81804 1.03045C7.87554 0.975707 7.92131 0.909869 7.95259 0.836928C7.98387 0.763987 8 0.685462 8 0.606111C8 0.52676 7.98387 0.448235 7.95259 0.375294C7.92131 0.302353 7.87554 0.236515 7.81804 0.18177Z" fill="#0C1937"/>
</svg>
