<svg width="96" height="121" viewBox="0 0 96 121" fill="none" xmlns="http://www.w3.org/2000/svg">
<path d="M7.62939e-06 46.1376C0.0147476 82.6775 1.04405 89.8303 10.2746 98.0169C13.8894 101.224 20.5373 107.884 39.7199 111.2C46.6362 112.339 53.627 112.974 60.6364 113.099C63.7428 113.191 66.8519 113.076 69.9428 112.756C72.1593 112.526 74.3571 112.144 76.5207 111.613C97.6005 106.361 99.1766 88.4056 89.9568 73.3014C87.5358 69.3917 84.8078 65.6782 81.7983 62.1958C77.2828 56.9014 72.4418 52.1979 68.0575 47.8081C64.0166 43.7629 60.3633 39.9834 57.7073 36.2519C56.6335 34.773 55.7021 33.1969 54.9257 31.5444C54.7537 31.1724 54.5817 30.8044 54.4098 30.4402C53.8422 29.2525 53.2589 28.111 52.67 27.0193C51.5622 24.9678 50.4352 23.0944 49.347 21.4169C48.4798 20.0772 47.6377 18.8635 46.8546 17.7868C45.412 15.7672 43.8451 13.8383 42.1629 12.0111C42.1629 12.0111 41.913 11.8946 41.452 11.7048C41.208 11.603 40.9014 11.4799 40.5402 11.3432C40.3958 11.2876 40.2428 11.2302 40.0814 11.1711C39.9211 11.1124 39.7527 11.0516 39.5751 10.9879C39.4133 10.9315 39.2434 10.8725 39.0713 10.8135C38.8671 10.7439 38.6541 10.6739 38.4326 10.6018C38.3029 10.56 38.171 10.5175 38.035 10.4758C37.9554 10.4501 37.8736 10.4248 37.7922 10.4003L37.6993 10.3717C34.2681 9.30695 30.7133 8.68589 27.1225 8.52389C15.0057 8.09637 -0.0147324 14.0344 7.62939e-06 46.1376Z" fill="#7561E5"/>
<path d="M41.3071 108.145C41.3071 108.145 40.9821 110.78 40.5516 111.941C40.1212 113.103 37.783 115.786 38.7711 118.364C39.8413 121.158 44.516 118.465 46.4234 117.612C48.3307 116.759 47.8954 115.213 48.0984 113.317C48.3013 111.421 49.2332 111.372 48.8911 110.04C48.549 108.707 46.463 106.157 46.463 106.157L41.3071 108.145Z" fill="#BDBDBD"/>
<path d="M45.5607 104.779C45.5607 104.779 46.7577 106.443 46.7244 106.489C46.6911 106.535 41.5986 109.617 41.2439 108.617C41.0478 107.983 40.9138 107.331 40.8439 106.671L45.5607 104.779Z" fill="#EEA886"/>
<path d="M62.8253 110.008C63.9411 111.033 64.9308 112.186 65.7739 113.442C67.1699 115.522 70.8735 115.633 71.0313 118.473C71.189 121.314 65.9974 121.4 63.2693 120.476C60.5411 119.551 60.1301 116.778 58.4812 116.083C56.8323 115.389 55.975 114.829 56.103 113.475C56.231 112.122 57.1418 109.923 57.1418 109.923C57.6739 110.093 58.2179 110.224 58.7693 110.315C60.1291 110.417 61.4967 110.313 62.8253 110.008Z" fill="#BDBDBD"/>
<path d="M44.1323 33.0645C44.1323 33.0645 45.1775 39.243 46.0198 43.3242C46.2191 44.4685 46.5002 45.5972 46.8609 46.7017C47.1027 47.221 49.0639 49.3148 51.4651 51.773C55.6776 56.0839 61.2442 61.5131 61.2442 61.5131L63.4207 57.4067C63.4207 57.4067 58.4764 51.6454 55.1243 47.8006C53.5729 46.022 52.3628 44.654 52.1413 44.4562C51.4405 43.8337 50.6275 37.693 49.4856 32.6358C48.3437 27.5786 46.0511 24.7808 46.0511 24.7808L44.1323 33.0645Z" fill="#E8E8E8"/>
<path d="M51.4651 51.7731C55.6776 56.084 61.2442 61.5131 61.2442 61.5131L63.4207 57.4067C63.4207 57.4067 58.4764 51.6454 55.1243 47.8007C54.0973 48.3018 52.211 49.4965 51.4651 51.7731Z" fill="#EEA886"/>
<path d="M62.5813 108.116L62.8254 110.007C60.9675 110.563 58.9819 110.534 57.1416 109.922L57.0813 108.24L62.5813 108.116Z" fill="#EEA886"/>
<path d="M24.1954 60.6773C24.0392 61.2289 52.8363 60.6773 52.8363 60.6773C52.8363 60.6773 44.8694 54.9137 44.3541 53.3747C43.8388 51.8356 46.3827 42.596 46.7149 39.5905C46.98 37.187 47.6455 26.4225 46.0501 24.7791C44.383 23.0604 38.3801 21.2594 38.3801 21.2594L29.6267 21.5833C28.7782 21.7633 27.9489 22.0232 27.1499 22.3595C26.117 22.8362 20.2135 24.9269 19.2535 27.8595C18.2935 30.7922 25.1455 40.2221 25.1455 40.2221C25.1455 40.2221 25.1589 40.646 25.1795 41.3407C25.2061 42.2662 25.2453 43.674 25.281 45.202C25.3266 47.1788 25.3666 49.3553 25.3666 50.9456C25.3666 54.6848 24.35 60.128 24.1954 60.6773Z" fill="#E8E8E8"/>
<path d="M24.194 60.6785C24.194 60.6785 20.2771 66.3972 20.222 70.3011C20.1669 74.205 27.1731 87.2831 28.233 89.1523C31.4209 94.7764 40.1636 106.907 40.1636 106.907C40.1636 106.907 41.6697 106.867 46.3718 105.055C46.3718 105.055 40.5567 89.0317 39.8199 87.3686C36.6941 80.3134 34.949 75.3117 35.9997 74.0994C37.0505 72.887 39.9162 71.6766 40.7458 70.9614C41.5754 70.2463 56.0305 73.6774 57.5458 74.0675C61.4698 75.0781 59.6798 81.8626 58.8141 84.9028C57.3614 89.9903 56.0931 108.365 56.0931 108.365C56.0931 108.365 58.8866 109.549 63.5661 108.549C63.5661 108.549 72.7543 75.3709 73.0492 72.0714C73.3441 68.7719 73.4888 63.3314 50.8468 59.1958L24.194 60.6785Z" fill="#31425E"/>
<path d="M35.9778 2.35509C35.9778 2.35509 43.5754 0.652158 41.8401 10.1566C40.1048 19.6609 38.2768 20.4088 33.6936 18.4415C29.1104 16.4742 29.5195 10.3847 29.2892 7.39887C29.0589 4.41303 33.5549 2.45832 35.9778 2.35509Z" fill="#EEA886"/>
<path d="M37.9888 23.6997C37.9888 23.6997 34.6233 27.2458 29.3052 24.0232C29.3052 24.0232 30.4943 16.3371 29.8685 12.5948C29.2426 8.85246 36.8072 18.3939 36.8072 18.3939C36.7077 18.4463 36.6419 18.8036 36.6265 19.3123C36.6146 19.8211 36.6411 20.33 36.7058 20.8348C36.8619 22.0803 37.2507 23.3939 37.9888 23.6997Z" fill="#EEA886"/>
<path d="M29.6594 12.2764C29.6594 12.2764 29.8556 9.28187 30.9559 9.1881C32.0562 9.09432 32.2243 10.3004 32.2243 10.3004L33.3341 10.5092C33.3341 10.5092 32.9829 7.8843 34.082 7.42567C35.1812 6.96703 41.2011 8.87052 42.0823 8.09944C42.9634 7.32835 42.5524 2.00522 40.9562 1.2763C39.36 0.547374 34.9564 -1.08503 31.7292 1.08677C31.7292 1.08677 29.2131 0.801516 28.8401 2.82044C28.4671 4.83937 28.9753 10.7756 29.6594 12.2764Z" fill="#8B74FF"/>
<path d="M36.7062 20.8346C31.2193 19.1529 30.8059 15.87 30.8003 15.818C32.6062 18.9035 36.6269 19.3121 36.6269 19.3121C36.6151 19.8208 36.6416 20.3298 36.7062 20.8346Z" fill="#A77860"/>
<path d="M27.0593 22.401C27.0593 22.401 31.0773 30.351 37.5678 29.8383C44.0582 29.3257 38.6745 21.3332 38.3796 21.2595C38.0549 21.1783 31.7226 19.6102 27.0593 22.401Z" fill="#EEA886"/>
<path d="M56.1305 60.275C56.1305 60.275 36.2429 62.712 24.1942 60.6785L47.2162 57.8184C47.2162 57.8184 47.3526 58.4019 56.1305 60.275Z" fill="#E8E8E8"/>
<path d="M41.2555 56.9181L42.7367 57.6643C42.7367 57.6643 42.399 60.0036 41.5872 60.7128L39.9225 60.2904C39.9225 60.2904 40.2721 57.7254 41.2555 56.9181Z" fill="#EEA886"/>
<path d="M18.2433 52.1276C18.539 52.4688 22.4495 54.0323 26.8662 55.7234C32.8997 58.0339 39.7061 60.2203 39.7061 60.2203L41.2555 56.9176C41.2555 56.9176 34.128 53.0674 29.3118 50.3676C27.0363 49.0921 25.2776 48.0736 25.0283 47.8384C24.2538 47.1051 24.0532 45.9294 24.6224 43.8789C25.1916 41.8285 26.5044 32.4037 26.6518 31.304C26.7993 30.2043 26.2828 27.2717 23.5169 27.1247C20.7511 26.9777 19.3424 27.7551 19.3424 27.7551C19.3424 27.7551 18.6488 28.042 18.1319 34.7138C17.615 41.3856 17.5421 51.3219 18.2433 52.1276Z" fill="#E8E8E8"/>
<path d="M25.1791 41.3407C25.2057 42.2662 25.2449 43.674 25.2806 45.202C27.9802 38.6244 26.4202 33.3741 26.3936 33.2859C26.6854 35.0704 25.1998 41.2532 25.1791 41.3407Z" fill="#B0B0B0"/>
<path d="M46.0201 43.324C46.2194 44.4683 46.5004 45.597 46.8611 46.7015C47.7839 42.2661 46.9539 36.5872 46.9539 36.5872C46.7777 38.8492 46.4659 41.0989 46.0201 43.324Z" fill="#B0B0B0"/>
<path d="M26.8662 55.7235C32.8997 58.034 39.9253 60.2901 39.9253 60.2901L41.2555 56.9177C41.2555 56.9177 34.128 53.0675 29.3118 50.3677C29.3122 50.3681 27.5598 51.2168 26.8662 55.7235Z" fill="#EEA886"/>
<path d="M41.6848 60.4871L69.9519 60.073L55.6804 67.276L41.6848 60.4871Z" fill="#8B74FF"/>
<path d="M55.6803 67.2763L41.6846 61.8874V60.4871L56.7861 65.9016L55.6803 67.2763Z" fill="#1E2E4C"/>
<path d="M42.4174 57.7154C42.4174 57.7154 44.1828 57.4424 45.4032 57.1599C46.3478 56.9408 48.6963 57.2422 49.294 57.8443C49.8917 58.4463 51.7946 62.6453 52.1541 62.901C52.5136 63.1568 51.9698 63.7505 51.3384 63.4527C51.3384 63.4527 50.7581 65.2895 49.3264 64.602C47.8948 63.9144 46.9229 62.4125 46.173 62.1485C45.4231 61.8845 41.0571 60.5504 41.0571 60.5504C41.0571 60.5504 41.2922 57.2682 42.4174 57.7154Z" fill="#EEA886"/>
<path d="M48.8627 57.5696C49.3564 57.8006 49.8341 58.0638 50.2928 58.3576C50.5889 58.6003 51.7899 59.4939 52.08 59.7039C52.3701 59.9139 51.6416 60.5109 49.4953 59.5857C47.349 58.6606 48.8627 57.5696 48.8627 57.5696Z" fill="#EEA886"/>
<path d="M55.6801 67.2761L64.0875 44.4561L91.1929 44.8962L83.18 65.9259L55.6801 67.2761Z" fill="#1E2E4C"/>
<path d="M72.7608 54.5519C71.9335 56.1958 72.1836 57.9857 73.3192 58.5504C74.4548 59.115 76.0451 58.2395 76.8723 56.5957C77.6995 54.9518 77.449 53.1626 76.3138 52.5976C75.1786 52.0326 73.588 52.9077 72.7608 54.5519Z" fill="#8B74FF"/>
<path d="M32.202 9.03198C32.1021 8.19313 30.435 7.8854 30.2995 9.1427C30.1639 10.4 31.0569 12.6069 31.6899 12.3898C32.3229 12.1727 32.3399 10.1876 32.202 9.03198Z" fill="#EEA886"/>
</svg>
