<svg width="29" height="29" viewBox="0 0 29 29" fill="none" xmlns="http://www.w3.org/2000/svg">
<path d="M29 14.5C29 22.5082 22.5082 29 14.5 29C6.49177 29 0 22.5082 0 14.5C0 6.49177 6.49177 0 14.5 0C22.5082 0 29 6.49177 29 14.5Z" fill="#4A7AFF"/>
<path d="M15.1363 28.9853C22.8492 28.6523 29 22.2948 29 14.5001C29 14.4437 28.9985 14.3875 28.9978 14.3311L18.9328 4.26587L8.17108 15.5143L14.1504 21.4937L11.3934 25.2424L15.1363 28.9853Z" fill="#0053BF"/>
<path d="M18.9328 4.26581V7.5492C18.9328 7.5492 15.1631 7.00204 15.1631 9.43405V11.8661H18.5679L18.1425 15.5749H15.1631V25.2423H11.3934V15.5749L8.17084 15.5141V11.8661H11.3325V9.0692C11.3325 9.0692 11.1239 4.90855 15.2239 4.14434C16.9265 3.82685 18.9328 4.26581 18.9328 4.26581Z" fill="white"/>
<path d="M18.9328 7.5492V4.26581C18.9328 4.26581 16.9265 3.82685 15.2239 4.14434C14.958 4.1939 14.7106 4.25807 14.4799 4.33396V25.2423H15.1631V15.5749H18.1423L18.5679 11.8661H15.1631C15.1631 11.8661 15.1631 11.8661 15.1631 9.43405C15.1631 7.00204 18.9328 7.5492 18.9328 7.5492Z" fill="#DCE1EB"/>
</svg>
