<?xml version="1.0" encoding="utf-8"?>
<!-- Generator: Adobe Illustrator 24.0.2, SVG Export Plug-In . SVG Version: 6.00 Build 0)  -->
<svg version="1.0" id="Capa_1" xmlns="http://www.w3.org/2000/svg" xmlns:xlink="http://www.w3.org/1999/xlink" x="0px" y="0px"
	 viewBox="0 0 360 127.8" style="enable-background:new 0 0 360 127.8;" xml:space="preserve">
<style type="text/css">
	.st0{opacity:0.6;fill:#7561E5;enable-background:new    ;}
	.st1{fill:#0C1937;}
</style>
<path class="st0" d="M335.3,21.8c-11-3.8-25.7-6.8-46.3-6.8c-23.1,0-38.2,5.1-56.9,9.8c15.2,5.9,29.7,11.5,54.4,11.5
	C308.8,36.3,324,29.7,335.3,21.8z"/>
<path class="st0" d="M105.4,23c-11.5-3.1-23.7-5.9-44.9-5.9c-29.8,0-44.7,6.8-52.9,9.9c11.3,5,28.9,9.3,46.9,9.3
	C75.9,36.3,88.9,29.4,105.4,23z"/>
<path class="st1" d="M335.3,21.8c-11.2,7.8-26.4,14.4-48.8,14.4c-24.7,0-39.2-5.6-54.4-11.5c-16.5-6.4-33.7-13-65.6-13
	c-28.9,0-46.4,5.5-61.1,11.2c-16.5,6.5-29.5,13.3-50.9,13.3c-18,0-35.6-4.3-46.9-9.3c-3-1.3-5.6-2.7-7.6-4v106.8h360V0
	C353.6,5,346.4,14.1,335.3,21.8z"/>
</svg>
