<?xml version="1.0" encoding="utf-8"?>
<!-- Generator: Adobe Illustrator 24.0.2, SVG Export Plug-In . SVG Version: 6.00 Build 0)  -->
<svg version="1.0" id="Capa_1" xmlns="http://www.w3.org/2000/svg" xmlns:xlink="http://www.w3.org/1999/xlink" x="0px" y="0px"
	 viewBox="0 0 1920 407.4" style="enable-background:new 0 0 1920 407.4;" xml:space="preserve">
<style type="text/css">
	.st0{fill:#F8F8F8;}
	.st1{opacity:0.4;fill:#7561E5;enable-background:new    ;}
	.st2{fill:#0C1937;}
</style>
<rect class="st0" width="1920" height="77.4"/>
<path class="st1" d="M1919.8,32.8c-58.7-7.7-152-26.8-378.6-26.8c-226.7,0-309.3,25.3-632,25.3c-322.6,0-320-22.2-586.6-22.2
	C93.3,9.1,28.4,29.8,0,25.2v52.3h1920L1919.8,32.8z"/>
<path class="st2" d="M1920,0c-68.4,14.8-154.7,53.1-392,53.1c-274.7,0-313.5-35.9-640-35.9S506.7,53.1,290.7,53.1
	C169.1,53.1,50.7,43,0,33.6v383.8h1920V0z"/>
</svg>
