<svg width="21" height="16" viewBox="0 0 21 16" fill="none" xmlns="http://www.w3.org/2000/svg">
<path d="M18.7118 0H3.27429V14.7482H18.7118V0Z" fill="#ECEFF1"/>
<path d="M10.9318 9.12986L18.4086 15.0527V3.35742L10.9318 9.12986Z" fill="#CFD8DC"/>
<path d="M19.0313 0.0501709H18.4079L10.9317 5.97304L3.45482 0.0501709H2.83218C2.33644 0.0503663 1.86106 0.247995 1.51052 0.599627C1.15998 0.951258 0.962963 1.42812 0.962769 1.9254V13.1761C0.962963 13.6733 1.15998 14.1502 1.51052 14.5018C1.86106 14.8534 2.33644 15.0511 2.83218 15.0513H3.45482V3.35745L10.9317 9.1262L18.4086 3.35598V15.0505H19.032C19.5275 15.0502 20.0025 14.8525 20.3529 14.5011C20.7033 14.1496 20.9003 13.6731 20.9007 13.1761V1.9254C20.9005 1.42812 20.7034 0.951258 20.3529 0.599627C20.0024 0.247995 19.527 0.0503663 19.0313 0.0501709Z" fill="#FB5643"/>
</svg>
