<svg width="205" height="260" viewBox="0 0 205 260" fill="none" xmlns="http://www.w3.org/2000/svg">
<path opacity="0.95" d="M142.668 140.371H54.5248C48.8485 140.371 44.2549 135.765 44.2549 130.086V22.8995C44.2549 17.2148 48.8549 12.6145 54.5248 12.6145H142.668C148.344 12.6145 152.938 17.2212 152.938 22.8995V130.086C152.944 135.765 148.344 140.371 142.668 140.371Z" fill="url(#paint0_linear)"/>
<path d="M102.158 87.984H93.5342V89.5816H102.158V87.984Z" fill="#8B74FF"/>
<g opacity="0.6">
<path opacity="0.6" d="M110.973 102.632H60.8086V105.725H110.973V102.632Z" fill="#8B74FF"/>
<path opacity="0.6" d="M101.369 117.498H60.8086V120.591H101.369V117.498Z" fill="#8B74FF"/>
<path opacity="0.6" d="M84.5902 110.062H60.8086V113.154H84.5902V110.062Z" fill="#8B74FF"/>
</g>
<path d="M124.089 25.3503V26.9159H133.283V35.5583H134.846V25.3568H124.089V25.3503ZM61.6689 35.5519H63.2322V26.9159H72.4257V25.3503H61.6689V35.5519ZM133.283 80.1308V88.7732H124.089V90.3388H134.84V80.1308H133.283ZM63.2322 80.1308H61.6689V90.3388H72.4193V88.7732H63.2322V80.1308Z" fill="#8B74FF"/>
<path d="M129.976 120.815C124.908 120.815 120.782 116.683 120.782 111.608C120.782 106.533 124.908 102.401 129.976 102.401C135.043 102.401 139.169 106.533 139.169 111.608C139.169 116.69 135.043 120.815 129.976 120.815ZM129.976 104.185C125.888 104.185 122.563 107.515 122.563 111.608C122.563 115.702 125.888 119.031 129.976 119.031C134.063 119.031 137.388 115.702 137.388 111.608C137.388 107.515 134.063 104.185 129.976 104.185Z" fill="#59BC2B"/>
<path d="M129.393 115.233L125.216 111.05L126.472 109.792L129.393 112.718L133.48 108.618L134.743 109.876L129.393 115.233Z" fill="#59BC2B"/>
<path d="M105.689 1.91243C105.689 1.91243 112.749 5.79415 110.507 15.3477C108.264 24.8948 107.412 26.1588 109.232 30.0148C111.051 33.8709 112.653 50.0458 110.712 53.0036C108.77 55.9614 89.0698 38.5739 86.8787 24.6638C84.6876 10.7538 89.6144 4.84457 91.3634 2.63744C93.1188 0.436731 99.4614 -1.63566 105.689 1.91243Z" fill="#8B74FF"/>
<path d="M118.951 80.8428H111.391C111.026 77.1087 110.686 74.5102 110.757 74.1252C110.866 73.49 103.235 53.4334 102.518 51.7716C101.8 50.1163 99.0005 45.6699 98.6353 41.4802C98.2637 37.2905 103.722 35.5967 103.722 35.5967C111.083 36.9184 113.576 47.1199 113.576 47.1199C113.576 47.1199 116.67 67.8054 118.233 73.6247C118.637 75.1133 118.855 77.7503 118.951 80.8428Z" fill="#EEA886"/>
<path d="M115.145 52.099L103.888 56.8533C103.888 56.8533 93.5413 31.1312 102.216 34.0056C110.859 36.8672 114.747 42.2503 115.145 52.099Z" fill="#EB4747"/>
<path d="M112.64 64.2125C112.313 66.7661 110.967 75.8128 111.262 78.2573C111.313 78.6615 111.48 79.5854 111.73 80.8494H84.5784C85.3023 78.2701 85.9558 75.986 86.353 74.6515C87.6728 70.2693 86.4107 69.1016 85.7444 65.5984C85.4881 64.2254 84.572 61.6204 83.5789 58.6819C83.2458 57.7002 82.9062 56.6737 82.5731 55.6471C81.3814 51.9386 80.824 48.1467 80.4845 45.946C78.8444 35.4878 86.8784 34.4805 86.8784 34.4805C89.8639 33.9287 95.0789 32.3182 95.0789 32.3182L103.247 34.0057C103.247 34.0057 104.023 34.3008 105.157 35.1349C105.157 35.1349 105.163 35.1349 105.163 35.1413C105.708 35.5455 106.335 36.0716 107.002 36.7517C107.892 37.6692 109.673 40.2998 111.442 43.1871C111.986 44.0725 112.531 44.9836 113.043 45.8754C114.703 48.7562 115.881 51.0724 115.849 53.6902C115.817 56.2694 112.966 61.6589 112.64 64.2125Z" fill="#FFC800"/>
<path d="M103.248 34.0057C103.248 34.0057 108.367 42.7636 106.464 43.4181C104.562 44.0725 94.5351 41.859 90.6143 33.5887C90.6143 33.5887 97.2003 30.5924 103.248 34.0057Z" fill="#EEA886"/>
<path d="M102.517 38.0091C102.517 38.0091 97.9748 39.9339 93.8553 33.5948C93.8553 33.5948 94.9637 26.396 92.6253 22.232C90.2868 18.0679 102.844 27.2237 102.844 27.2237C102.844 27.2237 102.639 28.0834 102.427 29.3474C102.319 29.9954 102.21 30.7525 102.126 31.5545C102.056 32.2218 101.998 32.9212 101.979 33.6205C101.928 35.2374 102.043 36.8414 102.517 38.0091Z" fill="#EEA886"/>
<path d="M91.2287 47.8131C90.2933 52.6316 83.5791 58.6691 83.5791 58.6691C83.2459 57.681 82.9064 56.6609 82.5732 55.6343C87.2117 52.6765 91.2287 47.8131 91.2287 47.8131Z" fill="#393D63"/>
<path d="M89.55 51.6498C89.1272 53.4078 87.1667 71.1995 87.3781 71.8027C87.4999 72.1491 88.4545 76.2682 89.4026 80.8429H80.6383C79.7414 77.8979 79.2096 75.447 79.3378 74.0611C79.8951 68.0621 77.8642 48.9293 77.8642 48.9293C77.8642 48.9293 76.0447 37.3547 85.6355 35.9111C85.6355 35.9111 91.299 36.6554 91.645 40.8451C91.9845 45.0412 89.9728 49.8982 89.55 51.6498Z" fill="#EEA886"/>
<path d="M77.1534 54.1071L89.0506 56.8917C89.0506 56.8917 98.4876 38.5353 89.986 35.1861C81.0294 31.6573 75.0072 44.098 77.1534 54.1071Z" fill="#FFC800"/>
<path d="M104.593 2.93252C104.593 2.93252 114.933 6.73083 108.379 24.606C101.825 42.4812 88.4416 21.5584 90.4661 10.5741C92.4842 -0.410259 104.593 2.93252 104.593 2.93252Z" fill="#EEA987"/>
<path d="M109.961 13.795C109.961 13.795 104.503 18.6712 95.7451 18.9022C95.7451 18.9022 93.6949 23.9003 93.3682 25.4337C93.3682 25.4337 84.7128 10.5549 94.6623 3.03522C104.612 -4.478 113.639 10.6768 109.961 13.795Z" fill="#8B74FF"/>
<path d="M96.931 19.9737C96.9246 18.652 96.2583 15.6044 94.2595 16.3551C92.2606 17.1057 94.048 23.3229 95.3678 23.0085C95.3614 23.0085 96.9438 23.1048 96.931 19.9737Z" fill="#EEA987"/>
<path d="M101.992 33.3127C97.1292 31.9653 95.252 27.3265 95.1943 27.1725C99.1473 32.2861 102.126 31.5547 102.126 31.5547C102.056 32.2155 102.049 32.6326 101.992 33.3127Z" fill="#A77860"/>
<path d="M38.6923 38.7599C38.6923 38.7599 45.7268 42.2053 43.9842 51.5792C42.248 60.9531 41.4728 62.217 43.4204 65.8806C45.3681 69.5442 47.6616 85.1673 45.9126 88.1316C44.1636 91.0958 24.2388 75.1198 21.4776 61.7166C18.7227 48.307 23.233 42.3465 24.8283 40.1265C26.4235 37.9001 32.4842 35.6032 38.6923 38.7599Z" fill="#1E2E4C"/>
<path d="M36.0402 256.303H37.6354V248.771C37.6354 248.771 40.7619 250.856 42.7223 253.743C44.6828 256.631 47.38 256.387 51.4867 256.201C55.5933 256.015 55.4075 254.359 55.0424 252.024C54.6772 249.688 50.5064 248.957 49.1546 248.585C47.8028 248.219 44.7468 242.932 43.7602 241.649C42.4148 239.897 41.7037 238.21 41.7037 238.21C41.7037 238.21 40.9349 235.079 37.1357 238.21C33.3365 241.341 34.4385 247.359 34.8677 247.911C35.3034 248.463 36.0402 256.303 36.0402 256.303Z" fill="#8B74FF"/>
<path d="M44.0743 248.585C45.4837 249.509 49.1612 248.585 49.1612 248.585C48.1169 247.237 41.7102 238.21 41.7102 238.21C37.8149 235.939 36.2773 239.063 36.2773 239.063C37.8662 239.551 42.6648 247.667 44.0743 248.585Z" fill="#EEA886"/>
<path d="M85.0712 109.69C85.0712 109.69 87.6211 110.177 88.4924 108.977C89.2356 107.957 90.9269 107.174 91.4523 106.931C92.1506 106.603 93.9188 104.813 94.3353 105.692C94.7517 106.571 91.5612 108.791 90.9846 109.388C90.408 109.985 94.1175 110.254 94.7581 110.838C95.3988 111.422 94.6108 117.549 92.0865 117.068C89.5623 116.593 87.179 114.412 86.7177 114.418C86.2565 114.425 84.8662 114.142 84.8662 114.142L85.0712 109.69Z" fill="#EEA886"/>
<path d="M94.1867 110.581C94.1867 110.581 101.817 112.558 102.214 113.116C102.611 113.674 102.483 114.078 101.759 113.924C101.035 113.77 94.334 112.23 94.334 112.23C94.334 112.23 102.97 116.086 103.399 116.471C103.649 116.696 103.444 117.504 103.047 117.453C102.656 117.408 93.8728 114.072 93.8728 114.072C93.8728 114.072 101.932 117.684 102.195 118.114C102.426 118.492 102.048 119.179 101.433 118.954C100.818 118.73 93.1488 115.798 93.1488 115.798C93.1488 115.798 98.8508 118.8 98.8572 119.294C98.8636 119.596 98.7162 120.302 97.2683 119.481C95.8204 118.659 92.207 117.081 92.207 117.081L94.1867 110.581Z" fill="#EEA886"/>
<path d="M15.3854 256.817H16.3656V251.292C16.3656 251.292 18.1082 253.089 18.9091 255.732C19.7035 258.369 22.5609 259.158 26.911 259.03C31.2611 258.908 31.3252 257.189 30.96 254.609C30.5948 252.03 26.911 250.683 26.911 250.683C25.2581 249.207 21.145 243.099 21.145 243.099C21.145 243.099 18.5054 242.393 16.4425 244.068C14.3731 245.742 15.0138 249.515 15.0779 250.497C15.1419 251.472 15.3854 256.817 15.3854 256.817Z" fill="#8B74FF"/>
<path d="M18.3898 125.172C18.3898 125.172 13.2004 131.928 11.7973 139.941C10.3879 147.955 12.6302 174.845 12.5661 178.81C12.5021 182.769 8.82462 192.624 9.56139 200.086C10.2982 207.548 13.2004 244.677 13.2004 244.677L21.1511 243.099C21.1511 243.099 20.6898 205.244 21.1511 202.113C21.6123 198.982 22.5349 187.568 22.7207 186.278C22.9065 184.989 34.4001 151.131 34.4001 145.357C34.3937 139.569 30.8956 115.746 18.3898 125.172Z" fill="#1E2E4C"/>
<path d="M44.4454 127.808C44.4454 127.808 52.9663 160.383 53.9785 164.893C54.9908 169.404 56.4579 173.132 56.4579 175.044C56.4579 179.49 54.8114 186.631 54.8114 186.631L43.9905 238.467H33.6758C33.6758 238.467 39.4162 207.368 39.5699 201.292C39.7237 195.197 44.407 186.541 43.4908 183.962C42.5682 181.383 28.685 151.631 28.685 151.631C28.685 151.631 18.1716 118.358 44.4454 127.808Z" fill="#1E2E4C"/>
<path d="M26.9109 250.676L21.1449 243.093L16.4424 244.061C16.4424 244.061 17.7109 247.455 19.9981 250.009C22.7081 253.031 26.9109 250.676 26.9109 250.676Z" fill="#EEA886"/>
<path d="M40.9292 72.4572C40.9292 72.4572 44.4401 72.7908 47.0988 75.6395C49.7512 78.4883 52.2434 83.0308 52.9417 84.5514C53.64 86.0721 63.3846 100.149 63.8907 100.47C64.3968 100.784 69.2979 102.427 72.5397 103.517C77.5497 105.205 87.589 108.862 87.589 108.862L85.5965 115.188C85.5965 115.188 66.7161 109.003 61.9815 107.835C56.1963 106.411 42.8832 89.3058 42.8832 89.3058C42.8832 89.3058 32.9657 77.6478 40.9292 72.4572Z" fill="#31425E"/>
<path d="M34.797 69.9868C34.797 69.9868 39.3457 72.1362 40.9282 72.457C42.5106 72.7714 48.6418 80.753 49.7117 83.6595C50.7881 86.5724 49.7117 90.9417 47.5014 96.0682C45.2911 101.195 47.3733 102.908 46.361 108.034C45.3488 113.161 45.6755 132.345 45.8677 135.193C46.0599 138.042 16.2817 142.36 10.4004 137.17C10.4004 137.17 14.3789 119.878 19.0942 114.944C20.1129 113.879 20.004 106.764 19.3121 104.993C18.6137 103.222 10.7784 89.9921 10.7784 89.9921C10.7784 89.9921 10.2018 76.5697 13.6229 73.9135C16.5956 71.6037 24.6937 70.776 26.148 70.2756C27.5959 69.7623 31.8243 69.5441 34.797 69.9868Z" fill="#FFC800"/>
<path d="M36.9699 64.7256C36.9699 64.7256 36.8353 65.9832 36.6752 67.677C36.6175 68.3507 36.547 69.0885 36.4894 69.8456C36.31 72.1169 36.1626 74.5615 36.2523 75.8062C36.2523 75.8062 31.5242 80.5541 26.1426 70.2691C26.1426 70.2691 28.4041 66.0281 26.7 60.2536C24.9958 54.4792 36.9699 64.7256 36.9699 64.7256Z" fill="#EEA886"/>
<path d="M50.2062 97.961C50.2062 97.961 51.3466 90.3772 50.1357 85.764C50.1357 85.764 50.1357 89.7292 47.9639 95.3625L50.2062 97.961Z" fill="#183C59"/>
<path d="M22.5098 71.0007C22.5098 71.0007 25.7644 80.6248 34.6953 79.9126C43.6262 79.2069 38.9301 71.7899 38.9301 71.7899C38.9301 71.7899 36.707 70.5131 36.0791 70.3912C35.4512 70.2693 26.2064 70.1538 26.2064 70.1538L22.5098 71.0007Z" fill="#EEA886"/>
<path d="M38.9307 71.7899C38.9307 71.7899 43.6075 84.7504 43.6075 97.9611C43.6075 111.172 43.9855 132.685 45.6192 139.479C47.2529 146.274 51.9042 167.287 51.9042 167.287L55.5496 165.4C55.5496 165.4 46.7852 131.864 46.1254 129.445C45.4655 127.026 46.6251 101.477 47.2593 99.3405C47.8872 97.204 50.5588 87.6825 50.1423 85.0391C49.617 81.7092 46.5098 76.7816 41.4805 72.547L38.9307 71.7899Z" fill="#31425E"/>
<path d="M24.2708 70.5963C24.2708 70.5963 27.1794 79.9189 28.6529 91.8592C30.1265 103.799 24.1298 159.228 20.1064 171.816L4.52539 169.301C4.52539 169.301 7.87608 130.118 12.4312 122.99C16.9864 115.862 18.4343 109.548 13.5204 94.6694C8.60644 79.7841 15.673 72.4185 15.673 72.4185C15.673 72.4185 22.9061 70.7503 24.2708 70.5963Z" fill="#31425E"/>
<path d="M41.0828 110.139L22.1896 142.906L1.18848 130.76L19.2617 97.5183L41.0828 110.139Z" fill="#8B74FF"/>
<path d="M38.802 111.261L22.0293 140.365L3.37305 129.579L19.4218 100.059L38.802 111.261Z" fill="#E0CEC7"/>
<path d="M32.6127 108.65L33.7915 106.61L26.2509 102.247L24.7773 104.121L32.6127 108.65Z" fill="#8B74FF"/>
<path d="M31.7171 131.902C31.7171 131.902 30.8586 131.908 30.4806 131.722C30.4806 131.722 29.8207 131.337 29.3338 131.093C29.18 131.017 29.0455 130.952 28.9494 130.92C28.565 130.786 27.6809 130.612 26.8416 130.028C26.0087 129.451 23.0488 126.018 23.0488 126.018L24.4455 123.888L25.4706 121.707C25.4706 121.707 31.6786 122.111 32.5243 122.56C32.6076 122.605 32.6845 122.65 32.7549 122.701C33.4276 123.15 33.7416 123.773 34.0683 124.049C34.19 124.151 35.3048 125.248 35.2664 125.717C35.2151 126.365 34.914 126.795 34.5232 127.006C34.5232 127.006 34.363 128.27 33.7416 128.861C33.7416 128.861 33.6327 130.035 32.646 130.548C32.6524 130.555 32.409 131.729 31.7171 131.902Z" fill="#EEA886"/>
<path d="M18.9155 72.457C18.9155 72.457 13.1815 70.8081 9.89493 77.1408C6.6083 83.4734 6.62111 86.1746 6.18546 89.2607C5.76903 92.18 3.89828 100.149 3.70608 100.97C3.51388 101.791 -0.72734 111.608 1.22029 115.034C3.17432 118.48 23.0286 128.63 22.9069 129.387C22.7787 130.144 26.3473 121.713 26.3473 121.713C26.3473 121.713 18.3133 117.228 16.9999 115.849C14.8601 113.603 10.3562 111.191 11.2788 108.406C12.3679 105.141 15.6353 94.1113 16.3913 92.4944C17.1409 90.8904 23.7462 74.5102 18.9155 72.457Z" fill="#31425E"/>
<path d="M37.6741 39.7993C37.6741 39.7993 47.8863 43.0138 42.3445 60.6644C36.8028 78.315 22.8554 58.6177 24.3097 47.8643C25.7705 37.111 37.6741 39.7993 37.6741 39.7993Z" fill="#EEA987"/>
<path d="M43.3886 50.0971C43.3886 50.0971 38.3145 55.0824 29.8193 55.7048C29.8193 55.7048 26.5583 59.5352 26.302 61.043C26.302 61.043 18.7229 48.1082 28.0382 40.3575C37.3535 32.6069 46.8098 46.9019 43.3886 50.0971Z" fill="#1E2E4C"/>
<path d="M29.9213 56.0576C29.8572 54.7744 29.0628 51.8487 27.16 52.67C25.2508 53.4912 27.2753 59.4389 28.5438 59.0732C28.5374 59.0732 30.075 59.0989 29.9213 56.0576Z" fill="#EEA987"/>
<path d="M36.675 67.6772C36.6173 68.3509 36.5469 69.0888 36.4892 69.8459C36.4892 69.8459 31.9789 69.5764 28.9678 62.8588C29.1664 63.1603 32.4658 68.0173 36.675 67.6772Z" fill="#A77860"/>
<path d="M152.451 92.7639L132.007 104.018L111.48 71.6614L136.313 63.0254L152.451 92.7639Z" fill="#1E2E4C"/>
<path d="M151.157 91.7951L132.04 102.317L112.839 72.0593L136.063 63.9814L151.157 91.7951Z" fill="white"/>
<path d="M158.159 86.1362C158.159 86.1362 154.604 84.4295 153.04 83.5441C151.477 82.6522 147.46 81.4332 147.133 81.138C146.807 80.8493 135.223 80.1307 134.519 79.5276C133.814 78.9181 133.135 80.952 136.133 81.6064C139.138 82.2673 143.315 83.8777 143.546 85.0518C143.776 86.226 140.464 86.5083 140.124 87.4707C139.791 88.4395 140.221 88.2214 140.695 88.4267C141.169 88.632 144.635 86.7136 146.16 87.259C147.684 87.8043 150.01 87.0472 151.182 87.4515C152.348 87.8493 158.031 89.7677 158.031 89.7677L158.159 86.1362Z" fill="#EEA886"/>
<path d="M131.015 99.9564C131.015 99.9564 128.023 97.2616 126.582 96.1324C125.134 95.0032 122.417 91.6925 122.02 91.4936C121.623 91.3011 116.433 80.644 115.588 80.2205C114.742 79.7907 116.389 78.3599 118.176 80.9327C119.963 83.512 123.109 86.8291 124.301 86.5853C125.499 86.3415 124.467 83.1078 125.249 82.4148C126.031 81.7219 125.992 82.2095 126.37 82.5817C126.748 82.9474 126.293 86.9703 127.395 88.1957C128.504 89.4212 128.696 91.917 129.529 92.8602C130.362 93.8034 134.372 98.4229 134.372 98.4229L131.015 99.9564Z" fill="#EEA886"/>
<path d="M195.396 243.978C195.396 243.978 196.043 248.476 196.126 249.149C196.209 249.823 203.321 248.751 203.321 248.751L203.897 243.4C203.891 243.4 196.28 243.343 195.396 243.978Z" fill="#424773"/>
<path d="M196.041 248.578C196.041 248.578 193.786 251.286 191.608 252.466C189.429 253.647 186.002 254.115 184.714 255.334C183.785 256.22 181.325 260.012 190.378 259.935C199.43 259.858 203.793 260.474 204.767 259.017C205.734 257.561 203.364 248.27 203.364 248.27C203.364 248.27 201.218 249.047 196.041 248.578Z" fill="#1E2E4C"/>
<path d="M144.431 243.978C144.431 243.978 145.078 248.476 145.161 249.149C145.244 249.823 152.356 248.751 152.356 248.751L152.932 243.4C152.926 243.4 145.321 243.343 144.431 243.978Z" fill="#424773"/>
<path d="M145.083 248.578C145.083 248.578 142.828 251.286 140.649 252.466C138.471 253.647 130.45 254.616 129.162 255.841C128.233 256.727 126.683 260.275 139.419 259.941C148.465 259.704 152.835 260.48 153.809 259.024C154.776 257.567 152.406 248.277 152.406 248.277C152.406 248.277 150.381 249.098 145.083 248.578Z" fill="#1E2E4C"/>
<path d="M189.501 128.476C189.501 128.476 196.183 139.107 195.683 148.725C195.184 158.336 198.105 168.833 199.111 178.874C200.232 190.07 204.813 216.569 204.979 222.555C205.146 228.541 204.268 247.661 204.268 247.661L195.1 247.873C195.1 247.873 187.4 201.542 185.407 196.813C183.415 192.085 173.523 158.381 173.19 154.602C172.856 150.823 189.501 128.476 189.501 128.476Z" fill="#1E2E4C"/>
<path d="M154.322 129.913C154.322 129.913 149.287 156.257 148.62 162.141C147.954 168.025 147.512 190.609 147.179 194.292C146.846 197.968 144.962 242.406 143.188 247.873H154.912C154.912 247.873 163.907 215.568 163.907 200.278C163.907 184.995 170.858 167.049 175.343 156.963C179.827 146.877 190.104 146.64 192.858 127.93C192.865 127.93 158.057 123.978 154.322 129.913Z" fill="#1E2E4C"/>
<path d="M178.354 39.0742C178.354 39.0742 169.385 35.7186 165.246 42.5581C161.107 49.3976 161.511 63.0895 166.028 64.7706C170.551 66.4516 177.342 65.5726 179.655 61.293C181.968 57.0135 184.063 50.8284 183.96 46.6965C183.864 42.5581 180.705 40.2676 178.354 39.0742Z" fill="#EEA886"/>
<path d="M167.001 65.0786C167.001 65.0786 167.373 67.5039 166.758 68.6973C166.143 69.8907 178.379 69.9228 178.379 69.9228C178.379 69.9228 179.373 63.4233 181.256 57.9311C183.14 52.4454 167.001 65.0786 167.001 65.0786Z" fill="#EEA886"/>
<path d="M181.255 57.9375C181.255 57.9375 180.409 59.3362 176.962 58.7909C173.516 58.2519 169.306 53.658 167.865 53.1511C166.423 52.6443 166.411 51.7973 166.411 51.7973L165.507 53.119L163.976 53.2153C163.976 53.2153 165.373 49.109 163.265 47.428C161.163 45.7534 165.45 34.1275 176.507 37.9964C176.507 37.9964 185.003 40.3382 184.689 45.176C184.394 50.0201 183.158 55.5251 181.255 57.9375Z" fill="#1E2E4C"/>
<path d="M166.033 68.5561C166.033 68.5561 166.072 66.272 167.103 66.0538C168.135 65.8357 178.507 64.8348 179.776 65.3352V67.9915C179.776 67.9979 177.335 69.4992 166.033 68.5561Z" fill="#E2D2CA"/>
<path d="M166.641 50.0394C166.833 49.231 168.896 46.9084 169.684 49.3914C170.472 51.8744 168.493 55.2108 167.384 54.9285C166.282 54.6462 166.154 52.099 166.641 50.0394Z" fill="#EEA886"/>
<path d="M124.87 95.5293C124.876 95.5293 124.883 95.5293 124.889 95.5293C124.812 95.5614 124.806 95.5614 124.87 95.5293Z" fill="#323657"/>
<path d="M197.042 153.807C197.042 153.807 191.539 155.43 182.159 156.463C172.78 157.496 149.338 156.091 149.191 154.981C149.043 153.871 154.233 113.648 153.938 111.576C153.643 109.504 153.483 102.125 153.483 102.125C153.368 104.146 151.311 112.41 148.826 116.908C147.929 118.537 144.917 123.632 143.47 122.477C136.448 116.863 125.576 95.7026 124.884 95.523C125.46 95.2727 130.035 93.1618 130.675 92.9501C131.239 92.764 136.3 98.1343 139.376 101.464C140.747 102.946 141.714 104.024 141.714 104.024C142.598 102.029 145.827 89.4469 146.833 85.0904C149.095 75.2674 148.749 74.8632 148.749 74.8632C155.61 72.7844 166.027 68.5498 166.027 68.5498L179.776 67.9916C179.776 67.9916 192.391 70.7697 197.362 73.0218C197.837 73.2335 197.837 84.2948 199.131 87.1949L195.011 95.8951C195.011 95.8951 192.634 113.135 192.141 120.802C191.91 124.325 197.042 153.807 197.042 153.807Z" fill="#8B74FF"/>
<path d="M199.7 101.554C199.341 102.715 197.714 103.697 196.651 104.12C195.971 104.396 195.215 104.486 194.453 104.345L193.915 104.242L184.497 102.491C184.497 102.491 182.434 78.7191 197.368 73.0216C197.752 73.1563 202.993 90.9096 199.7 101.554Z" fill="#8B74FF"/>
<path d="M196.651 104.12C195.972 104.396 195.216 104.486 194.453 104.345L193.915 104.242L194.844 92.0967L196.651 104.12Z" fill="#6457BC"/>
<path d="M141.72 104.031L140.567 108.913C140.567 108.913 139.317 104.011 139.375 101.471C140.746 102.953 141.72 104.031 141.72 104.031Z" fill="#6457BC"/>
<path d="M180.902 39.8763C180.902 39.8763 192.659 38.4006 181.101 58.0659L180.902 39.8763Z" fill="#1E2E4C"/>
<path d="M120.93 69.9292L119.732 67.8697L129.15 64.6167L130.342 66.6634L120.93 69.9292Z" fill="#1E2E4C"/>
<defs>
<linearGradient id="paint0_linear" x1="98.5983" y1="159.131" x2="98.5983" y2="43.2411" gradientUnits="userSpaceOnUse">
<stop stop-color="#D1D7E0"/>
<stop offset="1" stop-color="#EBEBFF"/>
</linearGradient>
</defs>
</svg>
