<svg width="133" height="156" viewBox="0 0 133 156" fill="none" xmlns="http://www.w3.org/2000/svg">
<path d="M26.5875 1.08304C26.5875 1.08304 31.5116 3.4948 30.2918 10.0564C29.0765 16.618 28.5339 17.5027 29.8972 20.0672C31.2605 22.6317 32.866 33.5676 31.6417 35.6426C30.4174 37.7175 16.4703 26.5345 14.5375 17.1524C12.6091 7.7659 15.7662 3.5936 16.8829 2.03966C17.9996 0.481223 22.242 -1.12661 26.5875 1.08304Z" fill="#1E2E4C"/>
<path d="M24.731 153.361H25.8476V148.088C25.8476 148.088 28.0361 149.548 29.4084 151.569C30.7807 153.59 32.6687 153.419 35.5433 153.289C38.4179 153.159 38.2879 152 38.0323 150.365C37.7766 148.73 34.8572 148.218 33.9109 147.958C32.9647 147.702 30.8255 144.001 30.1349 143.103C29.1931 141.877 28.6953 140.696 28.6953 140.696C28.6953 140.696 28.1572 138.504 25.4978 140.696C22.8385 142.887 23.6098 147.1 23.9103 147.486C24.2152 147.872 24.731 153.361 24.731 153.361Z" fill="#8B74FF"/>
<path d="M30.3547 147.958C31.3413 148.604 33.9155 147.958 33.9155 147.958C33.1845 147.015 28.6999 140.695 28.6999 140.695C25.9733 139.106 24.897 141.293 24.897 141.293C26.0092 141.634 29.3681 147.315 30.3547 147.958Z" fill="#EEA886"/>
<path d="M59.0515 50.7329C59.0515 50.7329 60.8363 51.0742 61.4462 50.2344C61.9664 49.5203 63.1504 48.9723 63.5181 48.8017C64.0069 48.5726 65.2447 47.3196 65.5362 47.9349C65.8277 48.5502 63.5944 50.1041 63.1907 50.5218C62.7871 50.9395 65.3837 51.1281 65.8322 51.5368C66.2806 51.9455 65.729 56.2346 63.9621 55.8977C62.1952 55.5654 60.5269 54.0384 60.204 54.0429C59.8811 54.0474 58.908 53.8497 58.908 53.8497L59.0515 50.7329Z" fill="#EEA886"/>
<path d="M65.4331 51.3572C65.4331 51.3572 70.7742 52.7405 71.0523 53.1312C71.3303 53.5219 71.2406 53.8049 70.7339 53.6971C70.2271 53.5893 65.5362 52.5114 65.5362 52.5114C65.5362 52.5114 71.5815 55.2106 71.8819 55.4801C72.0568 55.6373 71.9133 56.2031 71.6353 56.1672C71.3617 56.1358 65.2134 53.8004 65.2134 53.8004C65.2134 53.8004 70.855 56.3289 71.0388 56.6298C71.2003 56.8948 70.9357 57.3753 70.5052 57.2181C70.0747 57.061 64.7066 55.0085 64.7066 55.0085C64.7066 55.0085 68.6979 57.1104 68.7024 57.4562C68.7068 57.6673 68.6037 58.1613 67.5902 57.5864C66.5767 57.0116 64.0474 55.9067 64.0474 55.9067L65.4331 51.3572Z" fill="#EEA886"/>
<path d="M10.2726 153.72H10.9587V149.853C10.9587 149.853 12.1786 151.111 12.7391 152.961C13.2952 154.807 15.2953 155.359 18.3404 155.269C21.3854 155.184 21.4303 153.98 21.1746 152.175C20.919 150.369 18.3404 149.426 18.3404 149.426C17.1834 148.393 14.3042 144.118 14.3042 144.118C14.3042 144.118 12.4566 143.624 11.0126 144.796C9.56404 145.968 10.0125 148.609 10.0573 149.296C10.1022 149.979 10.2726 153.72 10.2726 153.72Z" fill="#8B74FF"/>
<path d="M12.376 61.5701C12.376 61.5701 8.74344 66.2993 7.76132 71.9088C6.77471 77.5183 8.34431 96.3407 8.29947 99.1163C8.25462 101.887 5.68047 108.786 6.1962 114.009C6.71192 119.232 8.74344 145.223 8.74344 145.223L14.3088 144.118C14.3088 144.118 13.9859 117.62 14.3088 115.428C14.6317 113.237 15.2775 105.247 15.4075 104.344C15.5376 103.441 23.5829 79.7414 23.5829 75.6993C23.5785 71.6483 21.1299 54.9726 12.376 61.5701Z" fill="#1E2E4C"/>
<path d="M30.6148 63.416C30.6148 63.416 36.5793 86.2177 37.2878 89.375C37.9964 92.5322 39.0234 95.1416 39.0234 96.48C39.0234 99.5924 37.8708 104.591 37.8708 104.591L30.2964 140.875H23.0762C23.0762 140.875 27.0944 119.106 27.202 114.853C27.3096 110.587 30.5879 104.528 29.9466 102.723C29.3008 100.917 19.5827 80.0917 19.5827 80.0917C19.5827 80.0917 12.2235 56.8005 30.6148 63.416Z" fill="#1E2E4C"/>
<path d="M18.3403 149.422L14.3041 144.113L11.0125 144.791C11.0125 144.791 11.9004 147.167 13.5014 148.955C15.3984 151.07 18.3403 149.422 18.3403 149.422Z" fill="#EEA886"/>
<path d="M28.1527 24.6707C28.1527 24.6707 30.6102 24.9042 32.4713 26.8983C34.328 28.8923 36.0725 32.0721 36.5613 33.1365C37.0501 34.2009 43.8712 44.0545 44.2254 44.2791C44.5797 44.4991 48.0104 45.6489 50.2796 46.4124C53.7866 47.5936 60.8139 50.1535 60.8139 50.1535L59.4192 54.5818C59.4192 54.5818 46.2031 50.2523 42.889 49.4349C38.8395 48.4379 29.5205 36.4645 29.5205 36.4645C29.5205 36.4645 22.5783 28.304 28.1527 24.6707Z" fill="#31425E"/>
<path d="M23.861 22.9416C23.861 22.9416 27.0451 24.4462 28.1527 24.6707C29.2604 24.8908 33.5522 30.4778 34.3011 32.5123C35.0545 34.5513 34.3011 37.6098 32.7539 41.1982C31.2068 44.7867 32.6642 45.9858 31.9557 49.5743C31.2471 53.1627 31.4758 66.5913 31.6104 68.5854C31.7449 70.5794 10.9005 73.602 6.78369 69.9686C6.78369 69.9686 9.56862 57.8649 12.8693 54.4112C13.5823 53.6657 13.5061 48.685 13.0218 47.4454C12.5329 46.2059 7.04828 36.9451 7.04828 36.9451C7.04828 36.9451 6.64467 27.5496 9.03944 25.6902C11.1203 24.0734 16.7888 23.494 17.8068 23.1437C18.8203 22.7844 21.7801 22.6317 23.861 22.9416Z" fill="#FFC800"/>
<path d="M25.3812 19.2588C25.3812 19.2588 25.287 20.1391 25.1749 21.3248C25.1345 21.7964 25.0852 22.3128 25.0449 22.8428C24.9193 24.4327 24.8161 26.1438 24.8789 27.0151C24.8789 27.0151 21.5693 30.3386 17.8022 23.1392C17.8022 23.1392 19.3853 20.1706 18.1924 16.1285C16.9995 12.0865 25.3812 19.2588 25.3812 19.2588Z" fill="#EEA886"/>
<path d="M34.6463 42.5231C34.6463 42.5231 35.4445 37.2145 34.5969 33.9854C34.5969 33.9854 34.5969 36.7609 33.0767 40.7041L34.6463 42.5231Z" fill="#183C59"/>
<path d="M15.2595 23.6512C15.2595 23.6512 17.5377 30.3879 23.7892 29.8894C30.0407 29.3954 26.7535 24.2036 26.7535 24.2036C26.7535 24.2036 25.1974 23.3099 24.7579 23.2245C24.3184 23.1392 17.8471 23.0583 17.8471 23.0583L15.2595 23.6512Z" fill="#EEA886"/>
<path d="M26.7534 24.2036C26.7534 24.2036 30.0272 33.2758 30.0272 42.5231C30.0272 51.7704 30.2918 66.8293 31.4353 71.5854C32.5789 76.3416 35.8347 91.0501 35.8347 91.0501L38.3864 89.7297C38.3864 89.7297 32.2515 66.2544 31.7896 64.5612C31.3277 62.8681 32.1394 44.9842 32.5834 43.4887C33.0229 41.9931 34.8929 35.3282 34.6014 33.4779C34.2337 31.147 32.0587 27.6977 28.5383 24.7336L26.7534 24.2036Z" fill="#31425E"/>
<path d="M16.4929 23.3682C16.4929 23.3682 18.5289 29.8938 19.5603 38.2519C20.5918 46.6099 16.3942 85.4091 13.5779 94.2208L2.67139 92.4603C2.67139 92.4603 5.01682 65.0327 8.20537 60.043C11.3939 55.0533 12.4074 50.634 8.96775 40.219C5.52807 29.7995 10.4746 24.6437 10.4746 24.6437C10.4746 24.6437 15.5377 23.476 16.4929 23.3682Z" fill="#31425E"/>
<path d="M28.2602 51.0473L15.0352 73.9836L0.334717 65.4819L12.9857 42.2131L28.2602 51.0473Z" fill="#8B74FF"/>
<path d="M26.6638 51.8333L14.9231 72.2052L1.86401 64.6556L13.0979 43.9917L26.6638 51.8333Z" fill="#E0CEC7"/>
<path d="M22.3316 50.0054L23.1567 48.5772L17.8784 45.5232L16.8469 46.8346L22.3316 50.0054Z" fill="#8B74FF"/>
<path d="M21.7039 66.2812C21.7039 66.2812 21.1029 66.2857 20.8384 66.1555C20.8384 66.1555 20.3764 65.886 20.0356 65.7153C19.928 65.6615 19.8338 65.6165 19.7665 65.5941C19.4975 65.4998 18.8786 65.3785 18.2911 64.9698C17.7081 64.5656 15.6362 62.1628 15.6362 62.1628L16.6139 60.6718L17.3314 59.1448C17.3314 59.1448 21.677 59.4277 22.2689 59.7421C22.3272 59.7735 22.381 59.805 22.4304 59.8409C22.9013 60.1553 23.121 60.5909 23.3497 60.784C23.4349 60.8559 24.2152 61.6239 24.1883 61.9518C24.1525 62.4054 23.9417 62.7063 23.6681 62.8545C23.6681 62.8545 23.556 63.7392 23.121 64.1524C23.121 64.1524 23.0448 64.9743 22.3541 65.3336C22.3586 65.3381 22.1882 66.16 21.7039 66.2812Z" fill="#EEA886"/>
<path d="M12.7436 24.6707C12.7436 24.6707 8.72995 23.5165 6.42935 27.9493C4.12876 32.3821 4.13773 34.2729 3.83278 36.4331C3.54128 38.4766 2.23178 44.0546 2.09724 44.6295C1.9627 45.2044 -1.00609 52.0758 0.357223 54.4741C1.72502 56.8859 15.6228 63.9909 15.5375 64.5209C15.4479 65.0508 17.9458 59.1494 17.9458 59.1494C17.9458 59.1494 12.3221 56.0101 11.4028 55.0445C9.90491 53.4726 6.75224 51.7839 7.39802 49.8348C8.1604 47.5487 10.4475 39.8284 10.9767 38.6967C11.5014 37.5739 16.125 26.1079 12.7436 24.6707Z" fill="#31425E"/>
<path d="M25.8746 1.81065C25.8746 1.81065 33.023 4.06073 29.1439 16.4159C25.2647 28.7711 15.5018 14.9832 16.5198 7.45605C17.5422 -0.071147 25.8746 1.81065 25.8746 1.81065Z" fill="#EEA987"/>
<path d="M29.8748 9.01899C29.8748 9.01899 26.323 12.5086 20.3764 12.9443C20.3764 12.9443 18.0937 15.6255 17.9144 16.6809C17.9144 16.6809 12.6091 7.62673 19.1297 2.2014C25.6503 -3.22393 32.2695 6.78239 29.8748 9.01899Z" fill="#1E2E4C"/>
<path d="M20.4483 13.1912C20.4034 12.293 19.8473 10.245 18.5154 10.8199C17.179 11.3948 18.5961 15.5581 19.4841 15.3021C19.4796 15.3021 20.5559 15.32 20.4483 13.1912Z" fill="#EEA987"/>
<path d="M25.175 21.3248C25.1346 21.7963 25.0853 22.3128 25.0449 22.8428C25.0449 22.8428 21.8878 22.6542 19.78 17.9519C19.9191 18.163 22.2286 21.5628 25.175 21.3248Z" fill="#A77860"/>
<path d="M95.2175 38.8852L80.9072 46.7627L66.5386 24.1137L83.9208 18.0686L95.2175 38.8852Z" fill="#1E2E4C"/>
<path d="M94.3116 38.207L80.9296 45.5725L67.4893 24.3922L83.7459 18.7378L94.3116 38.207Z" fill="white"/>
<path d="M99.2133 34.2457C99.2133 34.2457 96.7243 33.0511 95.6301 32.4313C94.5358 31.807 91.724 30.9537 91.4953 30.7471C91.2666 30.545 83.1584 30.042 82.6651 29.6198C82.1718 29.1931 81.6965 30.6169 83.7953 31.075C85.8985 31.5375 88.8225 32.6648 88.9839 33.4867C89.1454 34.3086 86.8268 34.5062 86.5891 35.1799C86.356 35.858 86.6564 35.7053 86.9883 35.8491C87.3201 35.9928 89.7463 34.6499 90.8136 35.0317C91.881 35.4134 93.5089 34.8835 94.3295 35.1664C95.1457 35.4449 99.1236 36.7877 99.1236 36.7877L99.2133 34.2457Z" fill="#EEA886"/>
<path d="M80.2121 43.9198C80.2121 43.9198 78.1178 42.0335 77.1088 41.2431C76.0953 40.4526 74.1938 38.1352 73.9158 37.996C73.6377 37.8612 70.0052 30.4014 69.4133 30.105C68.8213 29.8041 69.9738 28.8026 71.225 30.6035C72.4762 32.409 74.6782 34.7309 75.5123 34.5602C76.3509 34.3896 75.6289 32.126 76.176 31.641C76.7231 31.1559 76.6962 31.4973 76.9608 31.7577C77.2254 32.0137 76.907 34.8297 77.6784 35.6875C78.4542 36.5453 78.5887 38.2924 79.1717 38.9526C79.7547 39.6128 82.5621 42.8464 82.5621 42.8464L80.2121 43.9198Z" fill="#EEA886"/>
<path d="M125.278 144.733C125.278 144.733 125.731 147.881 125.789 148.353C125.847 148.824 130.825 148.074 130.825 148.074L131.229 144.329C131.224 144.329 125.897 144.288 125.278 144.733Z" fill="#424773"/>
<path d="M125.731 147.953C125.731 147.953 124.152 149.848 122.627 150.675C121.103 151.501 118.703 151.829 117.802 152.682C117.152 153.302 115.43 155.956 121.766 155.902C128.103 155.849 131.157 156.28 131.839 155.26C132.516 154.241 130.857 147.738 130.857 147.738C130.857 147.738 129.354 148.281 125.731 147.953Z" fill="#1E2E4C"/>
<path d="M89.6028 144.733C89.6028 144.733 90.0557 147.881 90.114 148.353C90.1723 148.824 95.1502 148.074 95.1502 148.074L95.5538 144.329C95.5493 144.329 90.2261 144.288 89.6028 144.733Z" fill="#424773"/>
<path d="M90.0602 147.953C90.0602 147.953 88.4816 149.849 86.9569 150.675C85.4321 151.501 79.8174 152.179 78.916 153.037C78.2658 153.657 77.1805 156.141 86.0958 155.907C92.4281 155.741 95.4866 156.284 96.1682 155.265C96.8454 154.245 95.1861 147.742 95.1861 147.742C95.1861 147.742 93.769 148.317 90.0602 147.953Z" fill="#1E2E4C"/>
<path d="M121.152 63.8831C121.152 63.8831 125.829 71.3249 125.479 78.0572C125.129 84.7849 127.174 92.1325 127.879 99.1612C128.663 106.998 131.87 125.547 131.986 129.737C132.103 133.927 131.489 147.311 131.489 147.311L125.071 147.459C125.071 147.459 119.681 115.028 118.286 111.718C116.891 108.408 109.967 84.8164 109.734 82.1711C109.501 79.5258 121.152 63.8831 121.152 63.8831Z" fill="#1E2E4C"/>
<path d="M96.5271 64.8889C96.5271 64.8889 93.0022 83.3297 92.5358 87.4481C92.0694 91.5665 91.76 107.375 91.5268 109.953C91.2936 112.527 89.9751 143.633 88.7329 147.459H96.9397C96.9397 147.459 103.236 124.846 103.236 114.144C103.236 103.446 108.102 90.8838 111.241 83.8237C114.38 76.7636 121.574 76.5974 123.502 63.5012C123.506 63.5012 99.1416 60.7346 96.5271 64.8889Z" fill="#1E2E4C"/>
<path d="M113.349 1.3032C113.349 1.3032 107.07 -1.04568 104.173 3.7419C101.276 8.52949 101.559 18.1136 104.721 19.2903C107.887 20.467 112.64 19.8517 114.259 16.8561C115.878 13.8605 117.345 9.53102 117.273 6.63871C117.206 3.7419 114.995 2.13856 113.349 1.3032Z" fill="#EEA886"/>
<path d="M105.402 19.5057C105.402 19.5057 105.662 21.2033 105.232 22.0387C104.801 22.8741 113.367 22.8965 113.367 22.8965C113.367 22.8965 114.062 18.347 115.38 14.5025C116.699 10.6626 105.402 19.5057 105.402 19.5057Z" fill="#EEA886"/>
<path d="M115.38 14.5071C115.38 14.5071 114.788 15.4862 112.376 15.1045C109.963 14.7272 107.016 11.5115 106.007 11.1567C104.998 10.8019 104.989 10.2091 104.989 10.2091L104.357 11.1343L103.285 11.2016C103.285 11.2016 104.263 8.32729 102.788 7.1506C101.317 5.97841 104.317 -2.15958 112.057 0.548591C112.057 0.548591 118.004 2.18787 117.784 5.57421C117.578 8.96504 116.712 12.8185 115.38 14.5071Z" fill="#1E2E4C"/>
<path d="M104.725 21.9401C104.725 21.9401 104.752 20.3412 105.474 20.1885C106.196 20.0358 113.456 19.3352 114.344 19.6855V21.5449C114.344 21.5494 112.636 22.6003 104.725 21.9401Z" fill="#E2D2CA"/>
<path d="M105.151 8.97844C105.285 8.41256 106.729 6.78676 107.281 8.52484C107.832 10.2629 106.447 12.5983 105.671 12.4007C104.9 12.2031 104.81 10.4201 105.151 8.97844Z" fill="#EEA886"/>
<path d="M75.9114 40.8208C75.9159 40.8208 75.9204 40.8208 75.9249 40.8208C75.8711 40.8433 75.8666 40.8433 75.9114 40.8208Z" fill="#323657"/>
<path d="M126.43 81.6143C126.43 81.6143 122.578 82.7505 116.013 83.4736C109.447 84.1967 93.0381 83.2131 92.9349 82.4361C92.8318 81.6592 96.4643 53.5041 96.258 52.0534C96.0517 50.6028 95.9396 45.4379 95.9396 45.4379C95.8589 46.8526 94.4193 52.6373 92.6793 55.7856C92.0515 56.9263 89.9437 60.4923 88.9302 59.6839C84.0151 55.7541 76.4047 40.9423 75.9204 40.8165C76.324 40.6414 79.526 39.1638 79.9745 39.0156C80.3691 38.8853 83.9119 42.6444 86.0645 44.9753C87.0242 46.0128 87.7014 46.7673 87.7014 46.7673C88.3203 45.3706 90.5805 36.5634 91.2846 33.5139C92.8677 26.6379 92.6255 26.355 92.6255 26.355C97.4285 24.8998 104.72 21.9357 104.72 21.9357L114.344 21.5449C114.344 21.5449 123.174 23.4896 126.655 25.066C126.986 25.2142 126.986 32.957 127.892 34.987L125.009 41.077C125.009 41.077 123.345 53.1448 123 58.5117C122.838 60.9774 126.43 81.6143 126.43 81.6143Z" fill="#8B74FF"/>
<path d="M128.291 45.0381C128.04 45.851 126.901 46.5382 126.156 46.8346C125.681 47.0277 125.152 47.0906 124.618 46.9918L124.242 46.9199L117.649 45.6938C117.649 45.6938 116.205 29.0541 126.659 25.0659C126.928 25.1602 130.596 37.5873 128.291 45.0381Z" fill="#8B74FF"/>
<path d="M126.157 46.8344C125.681 47.0275 125.152 47.0904 124.618 46.9916L124.242 46.9197L124.892 38.418L126.157 46.8344Z" fill="#6457BC"/>
<path d="M87.7057 46.7717L86.8985 50.1895C86.8985 50.1895 86.024 46.7582 86.0643 44.9797C87.024 46.0172 87.7057 46.7717 87.7057 46.7717Z" fill="#6457BC"/>
<path d="M115.134 1.86451C115.134 1.86451 123.363 0.831546 115.273 14.597L115.134 1.86451Z" fill="#1E2E4C"/>
<path d="M73.1533 22.9011L72.3147 21.4594L78.907 19.1824L79.7412 20.6151L73.1533 22.9011Z" fill="#1E2E4C"/>
</svg>
