<svg width="220" height="179" viewBox="0 0 220 179" fill="none" xmlns="http://www.w3.org/2000/svg">
<g clip-path="url(#clip0)">
<path d="M80.7235 25.527H32.074C26.9577 25.527 22.7988 29.6965 22.7988 34.8259V145.633C22.7988 150.763 26.9577 154.932 32.074 154.932H80.7235C85.8398 154.932 89.9986 150.763 89.9986 145.633V34.8259C89.9986 29.6965 85.8398 25.527 80.7235 25.527Z" fill="#E2E2E2"/>
<path d="M191.726 25.527H143.076C137.96 25.527 133.801 29.6965 133.801 34.8259V145.633C133.801 150.763 137.96 154.932 143.076 154.932H191.726C196.842 154.932 201.001 150.763 201.001 145.633V34.8259C201.001 29.6965 196.842 25.527 191.726 25.527Z" fill="#E2E2E2"/>
<path opacity="0.6" d="M4.9068 146.473H205.04C205.04 146.473 228.737 145.303 216.499 157.572C204.262 169.841 162.375 163.871 127.847 174.67C95.3243 184.839 103.313 173.5 64.9558 172.03C26.5986 170.561 10.2624 170.83 9.21525 160.092C8.13814 149.353 -7.83902 146.713 4.9068 146.473Z" fill="#8B74FF"/>
<path d="M80.1849 151.993H26.449C22.739 151.993 19.7171 148.963 19.7171 145.243V29.3366C19.7171 25.6171 22.739 22.5874 26.449 22.5874H80.1849C83.895 22.5874 86.9169 25.6171 86.9169 29.3366V145.273C86.9169 148.993 83.895 151.993 80.1849 151.993Z" fill="#31425E"/>
<path d="M79.2874 149.053H27.3168C24.5043 149.053 22.2304 146.773 22.2304 143.953V30.6264C22.2304 27.8067 24.5043 25.527 27.3168 25.527H79.2874C82.0999 25.527 84.3738 27.8067 84.3738 30.6264V143.953C84.4037 146.773 82.0999 149.053 79.2874 149.053Z" fill="#8B74FF"/>
<path d="M62.9512 29.8767H43.6828C42.1869 29.8767 40.9601 28.6468 40.9601 27.147V24.5673H65.6739V27.147C65.6739 28.6768 64.4472 29.8767 62.9512 29.8767Z" fill="#31425E"/>
<path d="M56.3987 26.1572H46.1661V26.9971H56.3987V26.1572Z" fill="#9878EF"/>
<path d="M60.4678 26.5771C60.4678 26.9071 60.1986 27.177 59.8694 27.177C59.5403 27.177 59.2711 26.9071 59.2711 26.5771C59.2711 26.2471 59.5403 25.9772 59.8694 25.9772C60.1986 25.9772 60.4678 26.2471 60.4678 26.5771Z" fill="#9878EF"/>
<path d="M29.441 29.0668C29.441 29.3667 29.2017 29.5467 28.7828 29.5467C28.3938 29.5467 28.1246 29.3667 28.1246 29.0668C28.1246 28.8568 28.2443 28.7368 28.4537 28.6468C28.2742 28.5868 28.1844 28.4668 28.1844 28.2869C28.1844 28.0169 28.4238 27.8369 28.7828 27.8369C29.1418 27.8369 29.3812 28.0169 29.3812 28.2869C29.3812 28.4668 29.2914 28.5868 29.1119 28.6468C29.3214 28.7368 29.441 28.8868 29.441 29.0668ZM29.2615 29.0668C29.2615 28.8568 29.082 28.7368 28.7828 28.7368C28.4836 28.7368 28.3041 28.8568 28.3041 29.0668C28.3041 29.2767 28.4836 29.3967 28.7828 29.3967C29.082 29.3967 29.2615 29.2767 29.2615 29.0668ZM28.7828 28.5868C29.0521 28.5868 29.2017 28.4668 29.2017 28.2869C29.2017 28.1069 29.0521 27.9869 28.7828 27.9869C28.5434 27.9869 28.3639 28.1069 28.3639 28.2869C28.3639 28.4668 28.5135 28.5868 28.7828 28.5868Z" fill="#321F6A"/>
<path d="M30.1591 28.4068C30.1591 28.3469 30.2189 28.2869 30.2787 28.2869C30.3386 28.2869 30.3984 28.3469 30.3984 28.4068C30.3984 28.4668 30.3386 28.5268 30.2787 28.5268C30.2189 28.5268 30.1591 28.4668 30.1591 28.4068ZM30.1591 29.4267C30.1591 29.3667 30.2189 29.3067 30.2787 29.3067C30.3386 29.3067 30.3984 29.3667 30.3984 29.4267C30.3984 29.4867 30.3386 29.5467 30.2787 29.5467C30.2189 29.5467 30.1591 29.4867 30.1591 29.4267Z" fill="#321F6A"/>
<path d="M32.2236 29.0667C32.2236 29.3367 32.0141 29.5466 31.6252 29.5466C31.3858 29.5466 31.1465 29.4566 31.0268 29.3367L31.1166 29.1867C31.2362 29.3067 31.4158 29.3666 31.6252 29.3666C31.8945 29.3666 32.0441 29.2467 32.0441 29.0367C32.0441 28.8267 31.8945 28.7067 31.5953 28.7067H31.4756V28.5867L31.9244 28.0168H31.0567V27.8668H32.1338V27.9868L31.6551 28.5867C32.0441 28.5867 32.2236 28.7967 32.2236 29.0667Z" fill="#321F6A"/>
<path d="M32.9417 28.7067C32.9417 28.1668 33.2109 27.8668 33.5999 27.8668C33.9888 27.8668 34.2581 28.1968 34.2581 28.7067C34.2581 29.2467 33.9888 29.5466 33.5999 29.5466C33.2408 29.5466 32.9417 29.2467 32.9417 28.7067ZM34.1085 28.7067C34.1085 28.2568 33.8991 28.0168 33.6298 28.0168C33.3306 28.0168 33.1511 28.2568 33.1511 28.7067C33.1511 29.1567 33.3605 29.3966 33.6298 29.3966C33.8991 29.3966 34.1085 29.1567 34.1085 28.7067Z" fill="#321F6A"/>
<path d="M69.0249 28.7966H68.5461V29.6065H69.0249V28.7966Z" fill="#321F6A"/>
<path d="M69.713 28.4668H69.2343V29.5767H69.713V28.4668Z" fill="#321F6A"/>
<path d="M70.4012 28.1669H69.9224V29.6067H70.4012V28.1669Z" fill="#321F6A"/>
<path d="M71.1193 27.8069H70.6406V29.6067H71.1193V27.8069Z" fill="#321F6A"/>
<path d="M72.1665 28.7068C72.4357 28.4368 72.8247 28.2568 73.2436 28.2568C73.6625 28.2568 74.0514 28.4368 74.3207 28.7068L74.6498 28.3768C74.2908 28.0169 73.7821 27.8069 73.2436 27.8069C72.705 27.8069 72.1964 28.0169 71.8373 28.3768L72.1665 28.7068Z" fill="#321F6A"/>
<path d="M72.6152 29.1568C72.7947 29.0068 73.0041 28.8868 73.2734 28.8868C73.5128 28.8868 73.7521 28.9768 73.9317 29.1568L74.2608 28.8268C74.0214 28.5869 73.6624 28.4369 73.2734 28.4369C72.8845 28.4369 72.5554 28.5869 72.2861 28.8268L72.6152 29.1568Z" fill="#321F6A"/>
<path d="M73.064 29.6067C73.1239 29.5467 73.1837 29.5167 73.2735 29.5167C73.3632 29.5167 73.4231 29.5467 73.4829 29.6067L73.812 29.2767C73.6624 29.1568 73.4829 29.0668 73.2735 29.0668C73.064 29.0668 72.8845 29.1568 72.7349 29.2767L73.064 29.6067Z" fill="#321F6A"/>
<path d="M78.3898 29.3667H75.4277C75.3978 29.3667 75.3679 29.3367 75.3679 29.3067V28.0768C75.3679 28.0468 75.3978 28.0168 75.4277 28.0168H78.3898C78.4197 28.0168 78.4496 28.0468 78.4496 28.0768V29.3067C78.4496 29.3367 78.4197 29.3667 78.3898 29.3667Z" fill="#321F6A"/>
<path d="M78.719 28.9766H78.5993C78.5694 28.9766 78.5394 28.9466 78.5394 28.9166V28.4666C78.5394 28.4366 78.5694 28.4066 78.5993 28.4066H78.719C78.7489 28.4066 78.7788 28.4366 78.7788 28.4666V28.9166C78.7788 28.9766 78.7489 28.9766 78.719 28.9766Z" fill="#321F6A"/>
<path d="M70.6107 114.587L38.2076 113.087C38.2076 113.087 30.219 125.566 30.6379 148.303C30.7276 148.213 79.796 146.413 79.796 146.413C76.8041 136.214 75.9065 132.705 74.7097 128.415C73.483 124.126 72.6153 118.786 70.6107 114.587Z" fill="#FFC800"/>
<path d="M78.7788 149.173H27.8254C24.7736 149.173 22.3202 146.713 22.3202 143.654V138.074H84.2541V143.654C84.2541 146.713 81.8007 149.173 78.7788 149.173Z" fill="#6457BC"/>
<path d="M81.8723 129.161C81.8723 129.161 81.7762 132.467 81.1357 133.174C80.4953 133.88 82.3206 140.686 82.4807 141.489C82.6408 142.163 83.2813 142.709 83.4734 142.516C83.6655 142.356 83.1532 138.664 83.3133 137.444C83.4414 136.416 83.6335 135.999 83.8577 136.32C84.0818 136.609 84.7863 140.365 85.1386 142.388C85.4909 144.186 87.4122 149.644 88.1167 148.937C88.8212 148.231 88.0847 139.274 87.4763 136.545C86.8358 133.816 84.4981 129 84.4981 129L81.8723 129.161Z" fill="#EEA886"/>
<path d="M39.1949 78.5011C39.1949 78.5011 39.7933 80.091 40.7208 87.2901C41.3192 91.8796 41.2295 95.4192 40.9901 100.819C40.8704 104.388 40.1224 107.898 38.776 111.197L70.9099 117.017C70.6705 116.177 69.9524 110.837 69.6233 105.078C69.5934 104.418 69.5635 103.758 69.5336 103.068C69.4438 101.119 69.5934 97.459 69.5934 95.1792C69.5934 95.0292 70.3414 94.4293 70.3414 94.4293C72.5854 92.1496 73.2436 91.7596 74.1113 90.6498C77.8812 85.3704 74.7097 79.0711 74.5002 75.4115C74.5002 75.4115 76.1758 83.4806 76.3852 85.7603C76.1332 94.0694 76.1332 98.5988 76.8812 107.688L80.3519 132.065L86.6177 131.315L84.643 87.2901C84.643 82.7607 83.9549 76.0114 83.1471 71.8719C82.3991 68.0923 80.6936 64.8527 79.078 63.1429C77.4324 61.4331 70.6107 57.4735 63.8488 55.3438C59.8396 54.0539 55.591 53.814 51.4919 54.6239C51.4919 54.6239 43.264 56.1837 36.8612 58.7334C32.7023 60.3832 28.6332 65.4526 31.5355 71.8719" fill="#FFC800"/>
<path d="M191.187 151.993H137.451C133.741 151.993 130.72 148.963 130.72 145.243V29.3366C130.72 25.6171 133.741 22.5874 137.451 22.5874H191.187C194.897 22.5874 197.919 25.6171 197.919 29.3366V145.273C197.919 148.993 194.897 151.993 191.187 151.993Z" fill="#31425E"/>
<path d="M190.29 149.053H138.319C135.507 149.053 133.233 146.773 133.233 143.953V30.6264C133.233 27.8067 135.507 25.527 138.319 25.527H190.29C193.102 25.527 195.376 27.8067 195.376 30.6264V143.953C195.406 146.773 193.102 149.053 190.29 149.053Z" fill="#FFC800"/>
<path d="M173.954 29.8767H154.685C153.189 29.8767 151.963 28.6468 151.963 27.147V24.5673H176.676V27.147C176.676 28.6768 175.45 29.8767 173.954 29.8767Z" fill="#31425E"/>
<path d="M167.401 26.1572H157.169V26.9971H167.401V26.1572Z" fill="#9878EF"/>
<path d="M171.47 26.5771C171.47 26.9071 171.201 27.177 170.872 27.177C170.543 27.177 170.273 26.9071 170.273 26.5771C170.273 26.2471 170.543 25.9772 170.872 25.9772C171.201 25.9772 171.47 26.2471 171.47 26.5771Z" fill="#9878EF"/>
<path d="M180.027 28.5869H179.549V29.3968H180.027V28.5869Z" fill="#321F6A"/>
<path d="M180.715 28.2568H180.237V29.3667H180.715V28.2568Z" fill="#321F6A"/>
<path d="M181.404 27.9569H180.925V29.3968H181.404V27.9569Z" fill="#321F6A"/>
<path d="M182.122 27.5969H181.643V29.3967H182.122V27.5969Z" fill="#321F6A"/>
<path d="M183.169 28.4968C183.438 28.2269 183.827 28.0469 184.246 28.0469C184.665 28.0469 185.054 28.2269 185.323 28.4968L185.652 28.1669C185.293 27.8069 184.785 27.5969 184.246 27.5969C183.707 27.5969 183.199 27.8069 182.84 28.1669L183.169 28.4968Z" fill="#321F6A"/>
<path d="M183.618 28.9468C183.797 28.7969 184.007 28.6769 184.276 28.6769C184.515 28.6769 184.755 28.7669 184.934 28.9468L185.263 28.6169C185.024 28.3769 184.665 28.2269 184.276 28.2269C183.887 28.2269 183.558 28.3769 183.289 28.6169L183.618 28.9468Z" fill="#321F6A"/>
<path d="M184.066 29.3667C184.126 29.3067 184.186 29.2767 184.276 29.2767C184.366 29.2767 184.426 29.3067 184.485 29.3667L184.814 29.0368C184.665 28.9168 184.485 28.8268 184.276 28.8268C184.066 28.8268 183.887 28.9168 183.737 29.0368L184.066 29.3667Z" fill="#321F6A"/>
<path d="M189.392 29.1567H186.43C186.4 29.1567 186.37 29.1267 186.37 29.0967V27.8669C186.37 27.8369 186.4 27.8069 186.43 27.8069H189.392C189.422 27.8069 189.452 27.8369 189.452 27.8669V29.0967C189.452 29.1267 189.422 29.1567 189.392 29.1567Z" fill="#321F6A"/>
<path d="M189.721 28.7666H189.602C189.572 28.7666 189.542 28.7366 189.542 28.7066V28.2566C189.542 28.2267 189.572 28.1967 189.602 28.1967H189.721C189.751 28.1967 189.781 28.2267 189.781 28.2566V28.7066C189.781 28.7366 189.751 28.7666 189.721 28.7666Z" fill="#321F6A"/>
<path d="M141.102 28.8567C141.102 29.1567 140.862 29.3366 140.443 29.3366C140.054 29.3366 139.785 29.1567 139.785 28.8567C139.785 28.6467 139.905 28.5267 140.114 28.4367C139.935 28.3767 139.845 28.2568 139.845 28.0768C139.845 27.8068 140.084 27.6268 140.443 27.6268C140.802 27.6268 141.042 27.8068 141.042 28.0768C141.042 28.2568 140.952 28.3767 140.772 28.4367C140.982 28.5267 141.102 28.6467 141.102 28.8567ZM140.922 28.8567C140.922 28.6467 140.743 28.5267 140.443 28.5267C140.144 28.5267 139.965 28.6467 139.965 28.8567C139.965 29.0667 140.144 29.1867 140.443 29.1867C140.743 29.1867 140.922 29.0667 140.922 28.8567ZM140.443 28.3767C140.713 28.3767 140.862 28.2568 140.862 28.0768C140.862 27.8968 140.713 27.7768 140.443 27.7768C140.204 27.7768 140.024 27.8968 140.024 28.0768C140.024 28.2568 140.204 28.3767 140.443 28.3767Z" fill="#321F6A"/>
<path d="M141.82 28.1968C141.82 28.1368 141.879 28.0768 141.939 28.0768C141.999 28.0768 142.059 28.1368 142.059 28.1968C142.059 28.2568 141.999 28.3168 141.939 28.3168C141.879 28.3168 141.82 28.2568 141.82 28.1968ZM141.82 29.2167C141.82 29.1567 141.879 29.0967 141.939 29.0967C141.999 29.0967 142.059 29.1567 142.059 29.2167C142.059 29.2766 141.999 29.3366 141.939 29.3366C141.879 29.3366 141.82 29.2766 141.82 29.2167Z" fill="#321F6A"/>
<path d="M143.884 28.8567C143.884 29.1267 143.675 29.3367 143.286 29.3367C143.046 29.3367 142.807 29.2467 142.687 29.1267L142.777 28.9767C142.897 29.0967 143.076 29.1567 143.286 29.1567C143.555 29.1567 143.705 29.0367 143.705 28.8267C143.705 28.6168 143.555 28.4968 143.256 28.4968H143.136V28.3768L143.585 27.8068H142.717V27.6569H143.794V27.7768L143.316 28.3768C143.735 28.3768 143.884 28.5868 143.884 28.8567Z" fill="#321F6A"/>
<path d="M144.632 28.4968C144.632 27.9568 144.901 27.6569 145.29 27.6569C145.679 27.6569 145.949 27.9868 145.949 28.4968C145.949 29.0367 145.679 29.3367 145.29 29.3367C144.901 29.3367 144.632 29.0067 144.632 28.4968ZM145.769 28.4968C145.769 28.0468 145.56 27.8068 145.29 27.8068C144.991 27.8068 144.812 28.0468 144.812 28.4968C144.812 28.9467 145.021 29.1867 145.29 29.1867C145.56 29.1867 145.769 28.9467 145.769 28.4968Z" fill="#321F6A"/>
<path d="M126.471 0L144.034 0.0899897C146.756 0.0899897 148.941 2.30974 148.911 5.03942L148.851 20.0377L148.821 24.2372L144.662 20.0377L126.351 19.9477C123.629 19.9477 121.444 17.728 121.474 14.9983L121.534 4.94943C121.534 2.18975 123.748 0 126.471 0Z" fill="#8B74FF"/>
<path d="M133.113 10.7987C133.113 11.9686 134.041 12.8985 135.208 12.8985C136.374 12.8985 137.302 11.9686 137.302 10.7987C137.302 9.62887 136.374 8.69897 135.208 8.69897C134.071 8.69897 133.113 9.62887 133.113 10.7987Z" fill="white"/>
<path d="M126.232 10.7687C126.232 11.9386 127.159 12.8685 128.326 12.8685C129.493 12.8685 130.42 11.9386 130.42 10.7687C130.42 9.59884 129.493 8.66895 128.326 8.66895C127.189 8.66895 126.261 9.59884 126.232 10.7687Z" fill="white"/>
<path d="M139.845 10.7987C139.845 11.9686 140.773 12.8985 141.939 12.8985C143.106 12.8985 144.034 11.9686 144.034 10.7987C144.034 9.62887 143.106 8.69897 141.939 8.69897C140.773 8.69897 139.845 9.65887 139.845 10.7987Z" fill="white"/>
<path d="M102.056 11.0988L84.4934 11.1887C81.7707 11.1887 79.5866 13.4085 79.6165 16.1382L79.6763 31.1365L79.7063 35.336L83.8651 31.1365L102.176 31.0465C104.899 31.0465 107.083 28.8267 107.053 26.097L106.993 16.0482C106.993 13.2885 104.779 11.0988 102.056 11.0988Z" fill="#FFC800"/>
<path d="M95.4141 21.8975C95.4141 23.0674 94.4866 23.9973 93.3197 23.9973C92.1529 23.9973 91.2253 23.0674 91.2253 21.8975C91.2253 20.7276 92.1529 19.7977 93.3197 19.7977C94.4866 19.7977 95.4141 20.7276 95.4141 21.8975Z" fill="white"/>
<path d="M102.296 21.8675C102.296 23.0373 101.368 23.9672 100.201 23.9672C99.0344 23.9672 98.1069 23.0373 98.1069 21.8675C98.1069 20.6976 99.0344 19.7677 100.201 19.7677C101.338 19.7677 102.296 20.6976 102.296 21.8675Z" fill="white"/>
<path d="M88.7121 21.8975C88.7121 23.0674 87.7846 23.9973 86.6177 23.9973C85.4508 23.9973 84.5233 23.0674 84.5233 21.8975C84.5233 20.7276 85.4508 19.7977 86.6177 19.7977C87.7547 19.7977 88.7121 20.7576 88.7121 21.8975Z" fill="white"/>
<path d="M70.491 40.3154C70.491 40.3154 73.6924 34.2261 72.1365 27.7468C70.5807 21.2676 62.7417 14.2184 54.0351 17.368C47.8417 19.5878 45.2985 27.5068 46.226 31.7364C48.2905 41.0353 41.3192 45.8348 42.9648 50.7542C44.371 55.0737 44.5505 58.4633 43.4734 59.3332C42.3963 60.2031 38.8957 63.3228 39.2847 67.0423C39.6736 70.7319 56.3389 56.2736 56.3389 56.2736C56.3389 56.2736 65.3747 37.9457 70.491 40.3154Z" fill="#1E2E4C"/>
<path d="M38.6264 79.4909C38.6264 79.4909 39.2248 81.1408 40.1822 88.5199C40.7806 93.2294 40.6909 96.859 40.4515 102.408C40.2421 107.298 39.165 110.747 38.1776 113.057L71.239 119.056C70.9697 118.187 70.2516 112.697 69.9225 106.788C69.8926 106.098 69.8327 105.408 69.8327 104.718C69.5934 98.9887 69.8028 93.2894 71.209 91.4596C74.8293 86.7201 75.1584 80.0309 74.949 76.2813C74.949 76.2813 81.3219 65.3926 79.6464 63.6528C77.9709 61.883 70.9398 57.8334 63.9685 55.6137C57.0271 53.4239 51.2526 54.8938 51.2526 54.8938C51.2526 54.8938 42.7853 56.4836 36.2029 59.1233C31.9244 60.8331 27.7356 66.0525 30.7276 72.6517" fill="#FFC800"/>
<path d="M48.1409 55.5837C48.1409 55.5837 51.9706 72.4118 58.9419 75.6214C58.9419 75.6214 66.5715 65.9025 63.9385 55.6437C63.9684 55.6737 55.8602 52.4941 48.1409 55.5837Z" fill="#EEA886"/>
<path d="M57.8349 60.6531C63.4 59.6032 62.2331 56.4835 62.2331 56.4835C62.2331 56.4835 61.9639 54.7437 61.8741 52.524C61.8442 51.954 61.8442 51.3541 61.8442 50.7542C61.8442 49.8243 61.904 48.8944 61.9938 47.9945C62.4426 44.2449 51.8809 46.4947 51.8809 46.4947C51.8809 46.4947 52.4793 54.0838 51.0432 56.3635C49.5771 58.6133 52.2699 61.7029 57.8349 60.6531Z" fill="#EEA886"/>
<path d="M68.1572 25.1671C68.1572 25.1671 73.9915 36.4459 68.217 47.1246C62.4425 57.8034 51.073 42.4752 50.325 40.6754C49.577 38.8756 45.6874 28.7067 53.4367 25.6171C61.1859 22.4974 66.5116 22.1075 68.1572 25.1671Z" fill="#EEA886"/>
<path d="M60.019 97.5789C60.019 97.5789 56.9672 94.4592 56.5184 94.6392C56.0696 94.8192 57.805 98.0888 57.805 98.0888L60.019 97.5789Z" fill="#EEA886"/>
<path d="M66.2124 29.1568C66.2124 29.1568 70.2217 34.4362 70.7004 38.3657C70.7004 38.3657 72.3161 30.9865 67.7683 23.8774C63.2504 16.7682 51.7612 23.5474 50.2054 26.3671C48.6795 29.2168 44.1616 31.7065 51.7313 43.8851C51.7612 43.8851 65.4046 34.3762 66.2124 29.1568Z" fill="#1E2E4C"/>
<path d="M56.9074 48.2344C56.9074 48.2344 57.9247 50.4541 61.8741 52.5239C61.8442 51.9539 61.8442 51.354 61.8442 50.7541C61.8143 50.7541 59.1514 50.4241 56.9074 48.2344Z" fill="#A77860"/>
<path d="M56.0696 36.3858C56.0696 36.3858 53.8256 39.8954 55.8901 42.8951C57.9545 45.9247 55.3814 48.8944 54.9326 52.074C54.4838 55.2537 63.1606 65.6625 53.0477 69.922C42.9348 74.1815 41.0499 63.6527 42.5758 59.2132C44.0119 54.9837 47.1236 54.2938 47.3629 48.7444C47.5425 43.225 49.3676 34.586 56.0696 36.3858Z" fill="#1E2E4C"/>
<path opacity="0.6" d="M31.2961 75.6214C31.2961 75.6214 42.0672 94.2192 47.1536 97.5189C53.7957 101.808 80.9629 102.618 80.9629 102.618C80.9629 102.618 83.3565 102.318 84.2541 102.018C85.8996 101.478 86.9468 100.818 86.9468 100.818C86.9468 100.818 56.3389 98.8987 49.2479 92.1195C43.8624 86.9601 30.6977 72.6217 30.6977 72.6217L31.2961 75.6214Z" fill="#E59405"/>
<path opacity="0.6" d="M63.3102 97.3987L69.8926 96.9787L70.1918 95.4789L68.6958 95.179L63.3102 97.3987Z" fill="#E59405"/>
<path d="M54.1248 94.1892C54.1248 94.6092 54.4539 94.9391 54.8728 94.9391C55.2917 94.9391 55.6208 94.6092 55.6208 94.1892C55.6208 93.7693 55.2917 93.4393 54.8728 93.4393C54.4839 93.4393 54.1248 93.7693 54.1248 94.1892Z" fill="#48484D"/>
<path d="M168.059 134.475C168.059 134.475 168.209 134.325 169.525 144.913C169.825 147.313 169.525 144.703 169.825 147.013C169.825 147.013 169.436 147.973 169.825 149.113L188.375 147.913C188.524 146.173 187.537 122.926 187.537 122.926C187.537 122.926 168.628 131.655 168.059 134.475Z" fill="#1E2E4C"/>
<path d="M157.617 119.626C157.617 119.626 152.8 142.574 151.933 146.263C151.065 149.923 167.999 149.263 168.927 147.523C172.517 140.714 179.548 131.835 181.284 127.096C183.019 122.386 187.806 117.587 187.806 117.587C187.806 117.587 175.27 110.237 157.617 119.626Z" fill="#1E2E4C"/>
<path d="M119.739 92.8994C119.739 92.8994 110.434 94.6692 109.955 95.2991C109.476 95.9291 109.626 96.439 110.524 96.319C111.391 96.199 119.559 94.8792 119.559 94.8792C119.559 94.8792 109.028 98.8087 108.519 99.2587C108.22 99.4986 108.459 100.489 108.938 100.459C109.417 100.429 120.128 97.1289 120.128 97.1289C120.128 97.1289 110.314 100.818 109.985 101.328C109.716 101.748 110.165 102.618 110.913 102.408C111.661 102.198 120.996 99.2887 120.996 99.2887C120.996 99.2887 114.054 102.438 114.054 103.038C114.054 103.398 114.234 104.268 115.999 103.398C117.764 102.528 122.162 100.938 122.162 100.938L119.739 92.8994Z" fill="#EEA886"/>
<path d="M130.869 92.5394C130.869 92.5394 127.757 92.9294 126.68 91.3995C125.783 90.1097 123.718 89.0298 123.06 88.6998C122.222 88.2499 120.038 85.9402 119.53 86.96C119.021 87.9799 122.91 90.9196 123.629 91.6695C124.347 92.4494 119.829 92.4494 119.021 93.1093C118.243 93.7693 119.2 101.178 122.282 100.818C125.364 100.459 128.266 98.0288 128.805 98.0588C129.373 98.0888 131.049 97.8788 131.049 97.8788L130.869 92.5394Z" fill="#EEA886"/>
<path d="M160.669 64.7026C160.669 64.7026 156.331 85.7002 155.313 86.4501C154.326 87.2 126.471 92.7794 126.471 92.7794C126.471 92.7794 126.89 98.4487 128.116 98.3288C129.822 98.1488 162.764 96.8889 163.721 94.8492C164.678 92.7794 173.355 74.6615 173.355 74.6615C173.355 74.6615 165.995 61.223 160.669 64.7026Z" fill="#EEA886"/>
<path d="M163.841 47.5745C163.841 47.5745 163.871 48.0844 163.871 48.8643C163.871 49.4343 163.871 50.1842 163.871 50.9641C163.871 53.0939 163.751 55.6736 163.422 56.8134C162.793 58.9732 173.026 50.5441 173.026 50.5441C173.026 50.5441 172.846 43.315 173.954 35.2759C175.061 27.2368 163.841 47.5745 163.841 47.5745Z" fill="#EEA886"/>
<path d="M157.049 91.4596C157.228 92.3895 157.438 93.3194 157.647 94.3393C157.737 94.7892 157.827 95.2692 157.887 95.7791C158.934 102.828 157.228 114.107 155.643 125.416C155.643 125.416 162.105 129.165 188.046 134.535C190.559 100.609 184.455 65.4826 184.455 65.4826C182.84 58.0134 178.92 55.1937 173.056 50.3043C173.056 50.3043 172.398 50.1843 163.9 55.7637C163.302 56.1536 160.16 61.403 158.246 67.3123C154.775 77.7212 155.313 83.2105 157.049 91.4596Z" fill="#8B74FF"/>
<path d="M163.87 48.8643C163.87 49.4342 163.87 50.5741 163.87 51.354C167.192 49.2543 168.777 47.2145 169.615 46.3446C168.089 47.7544 163.87 48.8643 163.87 48.8643Z" fill="#A77860"/>
<path d="M166.264 63.3827C166.264 63.3827 168.987 55.3137 177.424 59.3632C182.062 61.5829 181.882 67.5823 173.475 87.9799C173.475 87.9799 167.64 101.868 166.264 103.398C161.297 108.888 140.503 127.905 138.08 127.395L133.412 125.206C133.412 125.206 143.764 113.537 147.564 108.948C151.394 104.358 158.066 94.4292 158.066 94.4292L166.264 63.3827Z" fill="#EEA886"/>
<path d="M175.09 140.114C175.39 142.514 174.941 145.004 175.24 147.313L176.018 147.283C179.698 137.984 178.89 133.635 178.98 133.305C178.441 134.685 175.09 140.114 175.09 140.114Z" fill="#0C1937"/>
<path d="M173.026 50.3041C173.026 50.3041 162.464 61.0429 157.617 68.962C157.617 68.962 158.425 64.4925 163.631 55.7935C163.631 55.7635 167.73 50.1541 173.026 50.3041Z" fill="#EEA886"/>
<path d="M158.605 26.967C158.605 26.967 154.955 32.5764 154.895 33.7763C154.835 34.9761 156.301 35.0361 155.463 36.266C154.655 37.4958 152.98 39.8056 153.698 40.5855C154.416 41.3954 156.211 41.0954 156.51 42.7452C156.81 44.395 158.665 49.4944 160.938 49.5844C163.212 49.6744 171.231 46.0748 171.799 44.485C172.398 42.8952 175.749 34.0462 176.766 32.3364C177.783 30.6566 161.657 21.5976 160.131 24.2673C158.605 26.967 158.605 26.967 158.605 26.967Z" fill="#EEA886"/>
<path d="M158.934 26.397C158.934 26.397 156.54 25.1071 157.527 22.7074C158.515 20.3077 160.729 17.188 165.456 18.9278C170.184 20.6976 173.654 24.1172 176.945 24.8071C180.237 25.4971 180.865 28.7667 177.693 34.646C174.522 40.5254 173.235 43.465 173.235 43.465C173.235 43.465 172.457 38.2156 171.201 38.3656C169.944 38.5156 168.059 35.006 168.059 35.006L167.7 35.8759L165.486 35.6359C165.486 35.6359 168.688 29.4566 167.162 28.5867C165.606 27.7168 159.143 27.1169 158.934 26.397Z" fill="#0C1937"/>
<path d="M165.426 35.6359C165.426 35.6359 163.721 40.9753 162.494 40.9753C161.268 40.9753 157.049 41.4852 156.241 42.0551C156.241 42.0551 155.613 42.5051 155.822 43.285C156.032 44.0649 156.57 48.7744 155.044 50.2742C155.044 50.2742 156.032 51.984 161.387 50.3642C166.743 48.7444 169.645 46.3446 169.645 46.3446C169.645 46.3446 166.174 38.9655 167.67 35.8758L165.426 35.6359Z" fill="#0C1937"/>
<path d="M168.059 34.1061C168.059 34.1061 169.735 31.2564 172.428 33.4161C174.402 34.976 171.47 39.7754 169.376 39.5954C167.281 39.3555 166.803 36.5958 168.059 34.1061Z" fill="#EEA886"/>
<path d="M178.471 78.2311L161.866 74.4815C161.866 74.4815 163.661 55.4337 173.505 56.6635C183.348 57.8934 181.613 67.0123 178.471 78.2311Z" fill="#8B74FF"/>
<path d="M134.19 124.456C134.19 124.456 132.335 125.176 131.497 125.086C130.66 124.996 125.513 124.276 124.795 125.116C124.077 125.986 118.901 130.785 119.529 131.565C120.158 132.345 120.696 131.985 121.055 131.625C121.414 131.265 125.364 128.205 125.842 128.175C125.842 128.175 122.282 131.865 122.821 133.035C123.359 134.205 124.406 134.025 125.035 134.265C125.663 134.505 126.68 135.344 127.817 134.894C128.984 134.445 133.801 129.975 134.878 129.345C135.955 128.715 140.772 126.285 140.802 126.016C140.892 125.806 134.19 124.456 134.19 124.456Z" fill="#EEA886"/>
<path d="M189.781 149.173H138.828C135.776 149.173 133.322 146.713 133.322 143.654V138.074H195.256V143.654C195.256 146.713 192.803 149.173 189.781 149.173Z" fill="#E59405"/>
<path d="M44.6702 62.3928C44.6702 62.3928 53.0477 86.2101 54.1248 87.05C55.2019 87.8899 88.8318 94.7591 88.8318 94.7591C88.8318 94.7591 88.2035 100.938 86.887 100.758C85.0619 100.518 49.218 98.1787 48.2606 95.899C47.2732 93.6192 30.7276 72.6516 30.7276 72.6516C30.7276 72.6516 30.0693 69.052 31.6252 66.9523C34.4975 63.0527 40.9901 59.8131 44.6702 62.3928Z" fill="#FFC800"/>
<path d="M97.5385 95.1492C97.5385 95.1492 106.844 96.919 107.322 97.5489C107.801 98.1788 107.651 98.6888 106.754 98.5688C105.886 98.4488 97.718 97.1289 97.718 97.1289C97.718 97.1289 108.25 101.058 108.758 101.508C109.058 101.748 108.818 102.738 108.34 102.708C107.861 102.678 97.1495 99.3787 97.1495 99.3787C97.1495 99.3787 106.963 103.068 107.292 103.578C107.562 103.998 107.113 104.868 106.365 104.658C105.617 104.448 96.2819 101.538 96.2819 101.538C96.2819 101.538 103.223 104.688 103.223 105.288C103.223 105.648 103.044 106.518 101.278 105.648C99.5132 104.778 95.115 103.188 95.115 103.188L97.5385 95.1492Z" fill="#EEA886"/>
<path d="M86.4083 94.8193C86.4083 94.8193 89.5199 95.2093 90.597 93.6794C91.4946 92.3896 93.5591 91.3097 94.2173 90.9797C95.0551 90.5298 97.2393 88.2201 97.7479 89.2399C98.2565 90.2598 94.3669 93.1995 93.6489 93.9494C92.9308 94.7293 97.4487 94.7293 98.2565 95.3892C99.0344 96.0492 98.077 103.458 94.9953 103.098C91.9135 102.738 89.0113 100.309 88.4727 100.339C87.9043 100.369 86.2288 100.159 86.2288 100.159L86.4083 94.8193Z" fill="#EEA886"/>
</g>
<defs>
<clipPath id="clip0">
<rect width="220" height="178.87" fill="white"/>
</clipPath>
</defs>
</svg>
