<?xml version="1.0" encoding="UTF-8" standalone="no"?><!DOCTYPE svg PUBLIC "-//W3C//DTD SVG 1.1//EN" "http://www.w3.org/Graphics/SVG/1.1/DTD/svg11.dtd"><svg width="100%" height="100%" viewBox="0 0 512 512" version="1.1" xmlns="http://www.w3.org/2000/svg" xmlns:xlink="http://www.w3.org/1999/xlink" xml:space="preserve" xmlns:serif="http://www.serif.com/" style="fill-rule:evenodd;clip-rule:evenodd;stroke-linejoin:round;stroke-miterlimit:2;"><g><path d="M256,512c141.385,0 256,-114.617 256,-256c0,-141.385 -114.615,-256 -256,-256c-141.385,0 -256,114.615 -256,256c0,141.383 114.615,256 256,256Z" style="fill:#4376b1;fill-rule:nonzero;"/><path d="M496.814,342.78l-112.814,-109.147l-112.814,0c-23.864,-23.192 -39.051,-42.717 -80.27,-92.616c-29.307,0 -71.106,-0.517 -65.934,32.237c0,69.73 0,45.866 0,102.271c0,17.357 0,91.12 0,114.985l108.497,120.493c7.421,0.648 14.929,0.997 22.519,0.997c143.188,-0.997 214.782,-104.135 234.308,-151.865c3.112,-7.608 4.339,-10.847 6.508,-17.355Z" style="fill:#369;fill-rule:nonzero;"/><path d="M175.633,372.902c0,5.345 -4.292,9.673 -9.59,9.673l-40.807,0c-5.297,0 -9.588,-4.331 -9.588,-9.673l0,-172.549c0,-5.343 4.293,-9.672 9.588,-9.672l40.81,0c5.297,0 9.588,4.331 9.588,9.672l-0.001,172.549Zm-29.994,-198.488c-21.412,0 -38.767,-17.509 -38.767,-39.108c0,-21.596 17.354,-39.102 38.767,-39.102c21.414,0 38.771,17.509 38.771,39.102c0,21.602 -17.358,39.108 -38.771,39.108Zm243.264,199.269c0,4.912 -3.947,8.894 -8.811,8.894l-43.796,0c-4.865,0 -8.813,-3.982 -8.813,-8.894l0,-80.94c0,-12.07 3.512,-52.908 -31.282,-52.908c-26.989,0 -32.464,27.952 -33.561,40.492l0,93.352c0,4.912 -3.946,8.896 -8.818,8.896l-42.353,0c-4.87,0 -8.817,-3.982 -8.817,-8.896l0,-174.105c0,-4.912 3.947,-8.894 8.817,-8.894l42.353,0c4.87,0 8.818,3.98 8.818,8.894l0,15.053c10.007,-15.148 24.881,-26.844 56.545,-26.844c70.12,0 69.721,66.077 69.721,102.387l-0.003,83.513Z" style="fill:#fff;fill-rule:nonzero;"/></g></svg>