<svg width="1589" height="227" viewBox="0 0 1589 227" fill="none" xmlns="http://www.w3.org/2000/svg">
<path d="M1480.84 145.614C1480.91 146.668 1480.78 147.726 1480.43 148.723C1480.09 149.721 1479.54 150.637 1478.83 151.415C1477.15 152.831 1474.99 153.538 1472.8 153.384H1472.78C1470.55 153.506 1468.34 152.926 1466.46 151.725C1465.71 151.197 1465.11 150.492 1464.7 149.672C1464.29 148.852 1464.09 147.943 1464.11 147.026C1464.04 146.048 1464.26 145.071 1464.73 144.211C1465.19 143.351 1465.9 142.643 1466.75 142.171C1468.66 141.101 1471.61 140.589 1476.14 140.574H1480.85V145.614H1480.84ZM1471.41 113.742C1464.82 113.742 1460.49 115.51 1457.48 117.899V125.529C1461.28 123.719 1465.44 122.806 1469.64 122.862C1473.2 122.862 1476.29 123.358 1478.12 124.816C1479.94 126.274 1480.78 128.631 1480.76 132.028V133.129H1476.14C1458.78 133.191 1453.06 139.364 1453.03 147.475C1453.03 155.835 1460.45 161.992 1471.55 162.008H1473.93C1484.27 161.977 1491.36 155.292 1491.4 145.552V134.664C1491.4 118.069 1481.81 113.82 1471.41 113.742ZM1427.74 152.764H1427.72C1426.07 152.872 1424.42 152.6 1422.89 151.968C1421.36 151.337 1419.99 150.362 1418.89 149.119C1416.79 146.514 1415.79 142.435 1415.79 136.929C1415.8 129.391 1420.32 123.203 1426.55 123.203C1430.15 123.203 1433.13 124.196 1435.13 126.755C1437.14 129.283 1438.14 133.238 1438.14 139.038C1438.13 146.824 1433.87 152.764 1427.74 152.764ZM1428.77 113.742C1426.32 113.777 1423.91 114.437 1421.77 115.66C1419.64 116.884 1417.85 118.631 1416.58 120.737L1415.69 122.024L1415.73 101.862H1404.98V138.635C1404.98 154.269 1414.35 162.008 1426.53 162.008C1440.4 162.008 1449.15 151.043 1449.16 137.037C1449.16 123.296 1440.32 113.742 1428.77 113.742ZM1519.03 113.742C1504.5 113.758 1498.17 123.73 1498.13 133.517L1498.2 161.186H1508.96V134.308C1508.81 131.378 1509.69 128.489 1511.46 126.15C1512.27 125.195 1513.29 124.435 1514.43 123.925C1515.57 123.415 1516.81 123.168 1518.06 123.203C1519.44 123.114 1520.82 123.329 1522.1 123.832C1523.39 124.336 1524.55 125.117 1525.5 126.119C1527.24 128.119 1528.14 131.128 1528.14 135.176L1528.17 161.186H1538.98V134.137C1538.95 120.954 1529.99 113.758 1519.03 113.742ZM1313.34 101.846H1302.57L1302.6 144.668C1302.66 155.54 1308.12 161.946 1319.88 161.992C1324.89 161.992 1327.89 160.364 1329.13 157.743V150.996C1326.62 151.929 1323.96 152.351 1321.29 152.237C1320.22 152.315 1319.14 152.168 1318.13 151.805C1317.12 151.441 1316.19 150.87 1315.42 150.127C1313.87 148.185 1313.12 145.72 1313.33 143.241V123.203H1322.77C1327.38 123.203 1329.31 120.241 1329.33 118.069V113.727H1313.33V101.846H1313.34ZM1274.3 113.742C1259.77 113.758 1253.43 123.73 1253.4 133.517V161.186H1264.22V134.308C1264.07 131.378 1264.96 128.489 1266.72 126.15C1267.53 125.195 1268.55 124.435 1269.69 123.925C1270.83 123.415 1272.07 123.168 1273.32 123.203C1274.7 123.114 1276.08 123.329 1277.36 123.832C1278.65 124.336 1279.81 125.117 1280.76 126.119C1282.5 128.135 1283.39 131.128 1283.39 135.176L1283.4 161.186H1294.21V134.137C1294.19 120.954 1285.24 113.758 1274.3 113.742ZM1234.04 161.186H1244.93V101.846H1234.04V161.186ZM1377.45 131.733V161.186H1388.35V133.842C1388.35 130.182 1389.08 127.546 1390.57 125.778C1391.4 124.905 1392.4 124.228 1393.52 123.793C1394.63 123.358 1395.83 123.178 1397.02 123.265C1398.02 123.261 1399.01 123.344 1399.99 123.513V114.843C1398.26 114.035 1396.37 113.647 1394.47 113.711C1382.26 113.727 1377.5 122.412 1377.45 131.733ZM1358.62 134.168C1356.47 134.928 1353.01 135.223 1347.4 135.223H1341.6L1341.63 134.711L1341.71 133.129C1341.73 130.352 1342.84 127.694 1344.79 125.723C1346.74 123.752 1349.38 122.625 1352.15 122.583C1354.56 122.461 1356.96 123.119 1358.98 124.459C1359.84 125.127 1360.53 125.995 1360.99 126.989C1361.45 127.983 1361.66 129.073 1361.61 130.167C1361.66 131.08 1361.39 131.982 1360.84 132.714C1360.3 133.446 1359.51 133.961 1358.62 134.168ZM1353.21 113.742C1339.92 113.758 1330.49 123.358 1330.46 138.961C1330.41 141.987 1330.97 144.991 1332.1 147.797C1333.23 150.603 1334.91 153.154 1337.04 155.3C1339.17 157.446 1341.7 159.144 1344.49 160.293C1347.28 161.442 1350.27 162.02 1353.29 161.992C1360.15 161.992 1364.43 160.922 1366.91 158.89V150.996C1363.32 152.611 1359.42 153.395 1355.48 153.291C1348.37 153.307 1342.64 149.399 1341.71 143.148L1341.63 142.59H1349.93C1357.74 142.59 1363.26 141.876 1366.72 140.155C1370.19 138.433 1371.68 135.812 1371.7 131.578C1371.72 120.566 1362.84 113.742 1353.21 113.742Z" fill="black"/>
<path d="M1569.88 136.557L1569.63 136.246L1569.88 135.952C1575.79 128.577 1582.08 121.521 1588.74 114.812H1582.75C1578.98 114.828 1576.39 115.231 1573.67 117.744C1568.4 123.066 1563.56 128.796 1559.2 134.882L1558.33 136.029L1558.38 101.846H1547.42L1547.43 161.093L1558.33 161.124V137.084L1559.21 138.247C1564.28 145.298 1569.79 152.017 1575.71 158.363C1577.7 160.282 1580.34 161.388 1583.11 161.465C1586.11 161.449 1587.81 160.705 1589 159.263C1585.99 155.664 1573.56 141.07 1569.88 136.557Z" fill="black"/>
<path d="M1188.86 150.298L1143.83 158.456V112.874L1188.86 104.716V150.298ZM1135.39 89.1287C1133.9 89.1321 1132.43 89.429 1131.06 90.0023C1129.69 90.5756 1128.45 91.4141 1127.4 92.4699C1126.36 93.5257 1125.53 94.778 1124.96 96.1554C1124.4 97.5328 1124.11 99.0081 1124.12 100.497V173.857H1197.3C1198.78 173.854 1200.25 173.558 1201.62 172.985C1202.99 172.412 1204.24 171.573 1205.29 170.518C1206.33 169.462 1207.16 168.21 1207.73 166.832C1208.3 165.454 1208.59 163.979 1208.58 162.489L1208.6 89.1287H1135.39Z" fill="black"/>
<path d="M1128.47 44.2556H1132.11V30.2928H1141.27L1151.05 44.2556H1155.36L1145.26 29.9336C1150.02 29.0357 1152.58 25.7583 1152.58 21.4482C1152.58 16.3749 1148.9 12.8281 1142.57 12.8281H1128.47V44.2556ZM1132.11 27.0154V16.1505H1142.34C1146.52 16.1505 1148.9 18.1259 1148.9 21.5829C1148.9 25.0848 1146.52 27.0154 1142.34 27.0154H1132.11ZM1161.49 44.2556H1183.84V40.9332H1165.12V29.0806H1179.89V25.7583H1165.12V16.1505H1183.17V12.8281H1161.49V44.2556ZM1199.63 44.7943C1205.96 44.7943 1211.4 41.6067 1211.4 35.6804C1211.4 29.7091 1206.05 27.8235 1200.98 26.297C1196.49 24.9501 1192.27 24.2318 1192.27 20.5952C1192.27 18.0361 1194.38 15.7015 1199.63 15.7015C1203.36 15.7015 1206.82 17.0035 1209.38 18.6197V14.8934C1206.86 13.322 1203.49 12.2894 1199.54 12.2894C1192.49 12.2894 1188.54 15.8362 1188.54 20.5054C1188.54 26.2521 1193.26 27.7786 1199 29.3949C1204.08 30.8316 1207.67 31.9091 1207.67 35.7253C1207.67 39.317 1204.03 41.3822 1199.41 41.3822C1194.69 41.3822 1190.11 39.3619 1187.96 37.4313V41.472C1190.52 43.3127 1194.78 44.7943 1199.63 44.7943ZM1218.4 44.2556H1222.03V30.5622H1231.64C1238.11 30.5622 1241.79 26.8807 1241.79 21.6278C1241.79 16.4647 1238.11 12.8281 1231.64 12.8281H1218.4V44.2556ZM1222.03 27.2398V16.1505H1231.37C1235.68 16.1505 1238.15 18.081 1238.15 21.7176C1238.15 25.3093 1235.68 27.2398 1231.37 27.2398H1222.03ZM1241.96 44.2556H1245.77L1249.5 35.7701H1265.66L1269.48 44.2556H1273.34L1259.38 12.6485H1255.92L1241.96 44.2556ZM1250.76 32.5376L1257.62 17.228L1264.49 32.5376H1250.76ZM1278.94 44.2556H1299.96V40.9332H1282.58V12.8281H1278.94V44.2556ZM1305.78 44.2556H1316.19C1326.29 44.2556 1333.25 37.8803 1333.25 28.5418C1333.25 19.2034 1326.29 12.8281 1316.19 12.8281H1305.78V44.2556ZM1309.41 40.9332V16.1505H1315.79C1324.36 16.1505 1329.53 20.9993 1329.53 28.5418C1329.53 36.0844 1324.36 40.9332 1315.79 40.9332H1309.41ZM1335.39 44.2556H1339.2L1342.93 35.7701H1359.09L1362.91 44.2556H1366.77L1352.81 12.6485H1349.35L1335.39 44.2556ZM1344.19 32.5376L1351.06 17.228L1357.93 32.5376H1344.19ZM1372.38 44.2556H1382.79C1392.89 44.2556 1399.85 37.8803 1399.85 28.5418C1399.85 19.2034 1392.89 12.8281 1382.79 12.8281H1372.38V44.2556ZM1376.01 40.9332V16.1505H1382.39C1390.96 16.1505 1396.13 20.9993 1396.13 28.5418C1396.13 36.0844 1390.96 40.9332 1382.39 40.9332H1376.01ZM1421.87 12.2894C1412.84 12.2894 1406.02 19.2932 1406.02 28.5418C1406.02 37.7905 1412.84 44.7943 1421.87 44.7943C1430.94 44.7943 1437.76 37.7905 1437.76 28.5418C1437.76 19.2932 1430.94 12.2894 1421.87 12.2894ZM1421.87 41.3822C1415.09 41.3822 1409.74 35.9048 1409.74 28.5418C1409.74 21.1788 1415.09 15.7015 1421.87 15.7015C1428.69 15.7015 1434.03 21.1788 1434.03 28.5418C1434.03 35.9048 1428.69 41.3822 1421.87 41.3822ZM1457 44.2556H1460.63V30.5622H1470.24C1476.7 30.5622 1480.39 26.8807 1480.39 21.6278C1480.39 16.4647 1476.7 12.8281 1470.24 12.8281H1457V44.2556ZM1460.63 27.2398V16.1505H1469.97C1474.28 16.1505 1476.75 18.081 1476.75 21.7176C1476.75 25.3093 1474.28 27.2398 1469.97 27.2398H1460.63ZM1501.36 12.2894C1492.33 12.2894 1485.51 19.2932 1485.51 28.5418C1485.51 37.7905 1492.33 44.7943 1501.36 44.7943C1510.42 44.7943 1517.25 37.7905 1517.25 28.5418C1517.25 19.2932 1510.42 12.2894 1501.36 12.2894ZM1501.36 41.3822C1494.58 41.3822 1489.23 35.9048 1489.23 28.5418C1489.23 21.1788 1494.58 15.7015 1501.36 15.7015C1508.18 15.7015 1513.52 21.1788 1513.52 28.5418C1513.52 35.9048 1508.18 41.3822 1501.36 41.3822ZM1524.69 44.2556H1528.33V30.2928H1537.49L1547.27 44.2556H1551.58L1541.48 29.9336C1546.24 29.0357 1548.8 25.7583 1548.8 21.4482C1548.8 16.3749 1545.12 12.8281 1538.79 12.8281H1524.69V44.2556ZM1528.33 27.0154V16.1505H1538.56C1542.74 16.1505 1545.12 18.1259 1545.12 21.5829C1545.12 25.0848 1542.74 27.0154 1538.56 27.0154H1528.33ZM1556.22 25.5338C1556.22 26.9256 1557.3 28.0031 1558.74 28.0031C1560.13 28.0031 1561.21 26.9256 1561.21 25.5338C1561.21 24.142 1560.13 23.0196 1558.74 23.0196C1557.3 23.0196 1556.22 24.142 1556.22 25.5338ZM1556.22 42.0556C1556.22 43.4474 1557.3 44.5249 1558.74 44.5249C1560.13 44.5249 1561.21 43.4474 1561.21 42.0556C1561.21 40.6638 1560.13 39.5414 1558.74 39.5414C1557.3 39.5414 1556.22 40.6638 1556.22 42.0556Z" fill="black"/>
<path d="M47.3462 23.6723C47.3462 36.7092 36.7108 47.2588 23.6739 47.2588C10.637 47.2588 0.0873413 36.6235 0.0873413 23.5865C0.0873413 10.5496 10.7227 0 23.7596 0C36.7966 0 47.3462 10.6354 47.3462 23.6723Z" fill="#FFC800"/>
<path d="M150.44 23.8439C150.44 36.8809 139.804 47.4305 126.768 47.4305C113.731 47.4305 103.181 36.7951 103.181 23.7582C103.181 10.7212 113.816 0.171631 126.853 0.171631C139.89 0.171631 150.526 10.7212 150.44 23.8439Z" fill="#7561E5"/>
<path d="M126.767 74.791C114.845 74.791 104.981 83.6252 103.352 95.0325C103.18 96.1475 103.094 97.2625 103.094 98.3775C103.094 120.163 91.0008 137.746 75.0478 146.666C67.0712 151.126 57.9797 153.613 48.202 153.613C34.9935 153.613 22.8143 148.981 13.3797 141.262C26.9312 160.817 49.4885 173.683 75.0478 173.683C100.693 173.683 123.422 160.818 137.059 141.176C145.464 129.083 150.353 114.331 150.353 98.4633C150.353 85.4263 139.804 74.791 126.767 74.791Z" fill="#7561E5"/>
<path d="M23.6723 74.6193C35.5942 74.6193 45.4577 83.4535 47.0015 94.9466C47.1731 96.0616 47.2588 97.1766 47.2588 98.2916C47.2588 120.077 59.1808 137.66 75.2196 146.665C83.1962 151.125 92.2877 153.699 102.065 153.699C115.274 153.699 127.453 149.153 136.973 141.433C123.336 160.989 100.779 173.769 75.1339 173.683C49.4031 173.683 26.76 160.732 13.2942 141.005C4.88885 128.825 0 114.073 0 98.2058C0 85.1689 10.6354 74.6193 23.6723 74.6193Z" fill="#FFC800"/>
<path d="M64.5834 172.91C64.9265 172.996 65.2696 172.996 65.6127 173.082C66.0415 173.168 66.4703 173.168 66.8992 173.254C67.2423 173.254 67.5853 173.339 67.9284 173.339C68.3573 173.425 68.8719 173.425 69.3007 173.425C69.6438 173.425 69.9011 173.511 70.2442 173.511C70.7588 173.511 71.2734 173.597 71.788 173.597C72.0453 173.597 72.3027 173.597 72.6457 173.597C73.4177 173.597 74.2753 173.597 75.0473 173.597C75.8192 173.597 76.6769 173.597 77.4488 173.597C77.7061 173.597 77.9634 173.597 78.3065 173.597C78.8211 173.597 79.3357 173.597 79.8503 173.511C80.1934 173.511 80.4507 173.425 80.7938 173.425C81.2227 173.425 81.7373 173.339 82.1661 173.339C82.5092 173.339 82.8523 173.254 83.1954 173.254C83.6242 173.168 84.053 173.168 84.4819 173.082C84.825 172.996 85.168 172.996 85.5111 172.91C85.94 172.825 86.3688 172.825 86.7977 172.739C87.1407 172.653 87.4838 172.653 87.8269 172.567C88.2557 172.482 88.6846 172.396 89.0277 172.396C89.3707 172.31 89.7138 172.224 90.0569 172.139C90.4857 172.053 90.8288 171.967 91.2577 171.881C91.6007 171.795 91.9438 171.71 92.2869 171.624C92.7157 171.538 93.0588 171.452 93.4877 171.367C93.8307 171.281 94.1738 171.195 94.5169 171.109C94.86 171.024 95.2888 170.938 95.6319 170.766C95.975 170.68 96.318 170.509 96.7469 170.423C97.09 170.337 97.5188 170.166 97.8619 170.08C98.205 169.994 98.548 169.823 98.8911 169.737C99.2342 169.651 99.663 169.48 100.006 169.394C100.349 169.308 100.692 169.137 101.035 168.965C101.378 168.794 101.722 168.708 102.15 168.536C102.493 168.365 102.837 168.279 103.18 168.107C103.523 167.936 103.866 167.85 104.209 167.679C104.552 167.507 104.895 167.335 105.238 167.25C105.581 167.078 105.924 166.992 106.267 166.821C106.61 166.649 106.953 166.478 107.297 166.306C107.64 166.135 107.983 165.963 108.326 165.792C108.669 165.62 109.012 165.449 109.355 165.277C109.698 165.105 110.041 164.934 110.384 164.762C110.727 164.591 111.07 164.419 111.328 164.248C111.671 164.076 112.014 163.905 112.357 163.733C112.7 163.562 112.957 163.39 113.3 163.133C113.643 162.961 113.987 162.79 114.244 162.532C114.587 162.361 114.844 162.104 115.187 161.932C115.53 161.76 115.788 161.503 116.131 161.332C116.474 161.16 116.731 160.903 117.074 160.731C117.417 160.56 117.675 160.302 118.018 160.131C118.361 159.959 118.618 159.702 118.961 159.445C119.304 159.187 119.562 159.016 119.905 158.759C120.162 158.501 120.505 158.33 120.762 158.072C121.02 157.815 121.363 157.644 121.62 157.386C121.877 157.129 122.22 156.957 122.478 156.7C122.735 156.443 123.078 156.271 123.335 156.014C123.593 155.757 123.936 155.499 124.193 155.328C124.45 155.07 124.793 154.813 125.051 154.556C125.308 154.299 125.565 154.041 125.908 153.784C126.166 153.527 126.423 153.269 126.766 153.012C127.023 152.755 127.281 152.497 127.538 152.24C127.795 151.983 128.053 151.725 128.31 151.468C128.567 151.211 128.825 150.954 129.082 150.696C129.339 150.439 129.596 150.182 129.854 149.924C130.111 149.667 130.368 149.41 130.626 149.067C130.883 148.809 131.14 148.552 131.398 148.209C131.655 147.952 131.912 147.609 132.084 147.351C132.341 147.094 132.598 146.751 132.856 146.494C133.113 146.236 133.285 145.893 133.542 145.636C133.799 145.379 134.057 145.035 134.228 144.778C134.485 144.521 134.657 144.178 134.914 143.92C135.172 143.663 135.343 143.32 135.6 143.063C135.858 142.805 136.029 142.462 136.201 142.205C136.372 141.948 136.544 141.69 136.801 141.433C127.281 149.152 115.187 153.698 101.979 153.698C92.2011 153.698 83.1096 151.125 75.133 146.665C75.133 146.665 75.133 146.665 75.0473 146.665C75.0473 146.665 75.0473 146.665 74.9615 146.665C66.985 151.125 57.8934 153.612 48.1157 153.612C34.9073 153.612 22.8138 148.981 13.2934 141.262C13.465 141.519 13.6365 141.776 13.8938 142.034C14.0654 142.291 14.3227 142.634 14.4942 142.891C14.7515 143.234 14.923 143.492 15.1804 143.835C15.4377 144.092 15.6092 144.435 15.8665 144.692C16.1238 144.95 16.2953 145.293 16.5527 145.55C16.81 145.807 16.9815 146.15 17.2388 146.408C17.4961 146.665 17.7534 147.008 18.0107 147.265C18.268 147.523 18.5253 147.866 18.6969 148.123C18.9542 148.38 19.2115 148.638 19.4688 148.981C19.7261 149.238 19.9834 149.495 20.2407 149.839C20.498 150.096 20.7553 150.353 21.0127 150.61C21.27 150.868 21.5273 151.125 21.7846 151.382C22.0419 151.64 22.2992 151.897 22.5565 152.154C22.8138 152.412 23.0711 152.669 23.3284 152.926C23.5857 153.184 23.843 153.441 24.1861 153.698C24.4434 153.955 24.7007 154.213 24.958 154.47C25.2154 154.727 25.5584 154.985 25.8157 155.242C26.073 155.499 26.3303 155.757 26.6734 155.928C26.9307 156.185 27.2738 156.443 27.5311 156.614C27.7884 156.872 28.1315 157.129 28.3888 157.3C28.6461 157.558 28.9892 157.729 29.2465 157.987C29.5038 158.244 29.8469 158.415 30.1042 158.673C30.3615 158.93 30.7046 159.102 31.0477 159.359C31.3907 159.616 31.648 159.788 31.9911 160.045C32.3342 160.217 32.5915 160.474 32.9346 160.645C33.2777 160.817 33.535 161.074 33.878 161.246C34.2211 161.417 34.4784 161.675 34.8215 161.846C35.1646 162.018 35.4219 162.275 35.765 162.447C36.108 162.618 36.4511 162.875 36.7084 163.047C37.0515 163.219 37.3088 163.39 37.6519 163.647C37.995 163.819 38.338 163.99 38.5954 164.162C38.9384 164.334 39.2815 164.505 39.5388 164.677C39.8819 164.848 40.225 165.02 40.568 165.191C40.9111 165.363 41.2542 165.534 41.5973 165.706C41.9403 165.877 42.2834 166.049 42.6265 166.22C42.9696 166.392 43.3127 166.564 43.6557 166.735C43.9988 166.907 44.3419 167.078 44.685 167.164C45.028 167.335 45.3711 167.507 45.7142 167.593C46.0573 167.764 46.4003 167.85 46.7434 168.022C47.0865 168.193 47.4296 168.279 47.7727 168.45C48.1157 168.622 48.4588 168.708 48.8877 168.879C49.2307 169.051 49.5738 169.137 49.9169 169.308C50.26 169.48 50.6888 169.565 51.0319 169.651C51.375 169.737 51.718 169.909 52.0611 169.994C52.4042 170.08 52.833 170.252 53.1761 170.337C53.5192 170.423 53.8623 170.595 54.2911 170.68C54.6342 170.766 55.063 170.852 55.4061 171.024C55.7492 171.109 56.0923 171.195 56.4354 171.281C56.8642 171.367 57.2073 171.452 57.6361 171.538C57.9792 171.624 58.3223 171.71 58.6654 171.795C59.0942 171.881 59.4373 171.967 59.8661 172.053C60.2092 172.139 60.5523 172.224 60.8953 172.31C61.3242 172.396 61.753 172.482 62.0961 172.567" fill="#0C1937"/>
<path d="M469.588 0H440.641V173.683H469.588V0Z" fill="#0C1937"/>
<path d="M408.477 53.0699H379.53V173.683H408.477V53.0699Z" fill="#0C1937"/>
<path d="M695.807 53.0699V68.7534C685.632 59.5114 672.317 54.0035 657.767 54.0035C625.813 54.0035 599.851 80.7961 599.851 113.843C599.851 146.891 625.718 173.683 657.767 173.683C672.317 173.683 685.632 168.082 695.807 158.933V173.403H725.289V53.0699H695.807ZM657.672 144.37C640.459 144.37 626.479 130.647 626.479 113.75C626.479 96.853 640.459 83.1299 657.672 83.1299C674.885 83.1299 688.865 96.853 688.865 113.75C688.865 130.647 674.98 144.37 657.672 144.37Z" fill="#0C1937"/>
<path d="M414.91 20.9063C414.91 32.4048 405.597 41.8126 394.004 41.8126C382.41 41.8126 373.097 32.4998 373.097 20.9063C373.097 9.40784 382.41 0 394.004 0C405.597 0 414.91 9.40784 414.91 20.9063Z" fill="#0C1937"/>
<path d="M569.856 132.005C564.155 139.437 555.129 144.236 544.963 144.236C543.253 144.236 541.543 144.047 539.928 143.859L556.744 122.126L573.371 100.581L574.606 98.9821L592.563 75.7438C586.387 68.1231 578.406 62.0078 569.191 58.0563C561.78 54.8575 553.609 53.0699 544.963 53.0699C536.317 53.0699 528.051 54.8575 520.641 58.0563C511.14 62.1959 502.969 68.5935 496.698 76.5905C488.812 86.7514 484.062 99.5466 484.062 113.377C484.062 127.583 489.002 140.66 497.363 151.01C503.539 158.63 511.52 164.746 520.736 168.697C528.146 171.896 536.317 173.683 544.963 173.683C564.725 173.683 582.302 164.369 593.418 149.881L569.856 132.005ZM513.8 113.283C513.8 106.132 516.27 99.6406 520.261 94.372C525.961 87.0336 534.892 82.3295 544.963 82.3295C546.673 82.3295 548.383 82.5177 549.999 82.7058L533.372 104.251L516.555 125.984C514.845 122.22 513.8 117.893 513.8 113.283Z" fill="#0C1937"/>
<path d="M328.587 67.6527V53.0699H299.121V173.683H328.587V159.101V116.481C328.587 115.635 328.587 114.788 328.682 113.941C329.918 97.6649 342.465 84.5875 358.624 82.5177V53.3522C347.218 55.0457 336.857 60.1261 328.587 67.6527Z" fill="#0C1937"/>
<path d="M268.7 0C248.792 0 220.826 13.7144 220.826 51.7363V52.2092H205.847V81.5296H220.826V173.683H250.214V98.4597V81.435H279.602V52.1146H250.214V48.3313C250.214 38.4948 259.694 29.6041 269.648 29.6041H294.297V4.72909V0H268.7Z" fill="#0C1937"/>
<path d="M1015.32 132.005C1009.62 139.437 1000.59 144.236 990.429 144.236C988.718 144.236 987.008 144.047 985.393 143.859L1002.21 122.126L1018.84 100.581L1020.07 98.9821L1038.03 75.7438C1031.85 68.1231 1023.87 62.0078 1014.66 58.0563C1007.25 54.8575 999.074 53.0699 990.429 53.0699C981.783 53.0699 973.517 54.8575 966.106 58.0563C956.605 62.1959 948.434 68.5935 942.164 76.5905C934.278 86.7514 929.527 99.5466 929.527 113.377C929.527 127.583 934.468 140.66 942.829 151.01C949.004 158.63 956.985 164.746 966.201 168.697C973.612 171.896 981.783 173.683 990.429 173.683C1010.19 173.683 1027.77 164.369 1038.88 149.881L1015.32 132.005ZM959.265 113.377C959.265 106.226 961.736 99.7347 965.726 94.4661C971.427 87.1277 980.358 82.4236 990.429 82.4236C992.139 82.4236 993.849 82.6118 995.464 82.7999L978.837 104.345L962.021 126.078C960.311 122.314 959.265 117.987 959.265 113.377Z" fill="#0C1937"/>
<path d="M783.183 146.344C783.183 157.843 773.87 167.251 762.277 167.251C750.778 167.251 741.37 157.938 741.37 146.344C741.37 134.846 750.683 125.438 762.277 125.438C773.87 125.438 783.183 134.751 783.183 146.344Z" fill="#0C1937"/>
<path d="M827.989 172.666V158.191C837.881 167.394 850.912 172.954 865.084 172.954C896.186 172.954 921.486 146.113 921.486 113.041C921.486 79.9693 896.281 53.1285 865.084 53.1285C850.912 53.1285 837.881 58.6884 827.989 67.8909V52.2657H799.265V226.753H827.989V172.666ZM865.084 143.716C848.249 143.716 834.647 130.008 834.647 113.041C834.647 96.0738 848.249 82.3658 865.084 82.3658C881.919 82.3658 895.52 96.0738 895.52 113.041C895.52 130.008 881.919 143.716 865.084 143.716Z" fill="#0C1937"/>
</svg>
