<svg width="178" height="26" viewBox="0 0 178 26" fill="none" xmlns="http://www.w3.org/2000/svg">
<path d="M165.884 16.3118C165.893 16.4298 165.878 16.5484 165.839 16.6601C165.8 16.7719 165.739 16.8745 165.659 16.9616C165.471 17.1203 165.229 17.1994 164.984 17.1823H164.982C164.733 17.1959 164.485 17.1309 164.274 16.9964C164.19 16.9372 164.122 16.8582 164.076 16.7663C164.03 16.6745 164.008 16.5727 164.011 16.4699C164.003 16.3604 164.027 16.251 164.08 16.1546C164.132 16.0583 164.211 15.979 164.307 15.9261C164.52 15.8063 164.851 15.7489 165.358 15.7472H165.886V16.3118H165.884ZM164.828 12.7415C164.09 12.7415 163.605 12.9396 163.268 13.2071V14.0619C163.693 13.8591 164.16 13.7569 164.631 13.7631C165.029 13.7631 165.375 13.8187 165.58 13.982C165.784 14.1453 165.877 14.4094 165.876 14.7899V14.9132H165.358C163.413 14.9202 162.773 15.6117 162.769 16.5203C162.769 17.4568 163.6 18.1465 164.844 18.1483H165.11C166.269 18.1448 167.064 17.396 167.067 16.3049V15.0852C167.067 13.2262 165.993 12.7502 164.828 12.7415V12.7415ZM159.936 17.1128H159.934C159.749 17.1249 159.564 17.0944 159.393 17.0236C159.221 16.9529 159.068 16.8437 158.946 16.7045C158.71 16.4126 158.597 15.9557 158.597 15.3389C158.599 14.4945 159.105 13.8013 159.803 13.8013C160.206 13.8013 160.54 13.9125 160.764 14.1992C160.989 14.4824 161.101 14.9254 161.101 15.5752C161.1 16.4474 160.624 17.1128 159.936 17.1128V17.1128ZM160.052 12.7415C159.777 12.7454 159.507 12.8194 159.268 12.9564C159.029 13.0935 158.829 13.2891 158.686 13.5251L158.587 13.6693L158.591 11.4107H157.387V15.53C157.387 17.2813 158.436 18.1483 159.801 18.1483C161.354 18.1483 162.334 16.9199 162.336 15.3511C162.336 13.8117 161.346 12.7415 160.052 12.7415V12.7415ZM170.163 12.7415C168.536 12.7432 167.826 13.8604 167.822 14.9567L167.829 18.0562H169.034V15.0453C169.018 14.717 169.117 14.3934 169.315 14.1314C169.406 14.0245 169.519 13.9393 169.647 13.8822C169.775 13.8251 169.914 13.7974 170.054 13.8013C170.208 13.7913 170.363 13.8154 170.507 13.8718C170.651 13.9283 170.781 14.0157 170.887 14.1279C171.083 14.3521 171.183 14.6891 171.183 15.1426L171.187 18.0562H172.397V15.0262C172.394 13.5494 171.391 12.7432 170.163 12.7415ZM147.122 11.4089H145.915L145.918 16.2059C145.925 17.4238 146.536 18.1413 147.854 18.1465C148.415 18.1465 148.751 17.9641 148.89 17.6705V16.9147C148.609 17.0193 148.311 17.0665 148.012 17.0537C147.892 17.0625 147.771 17.046 147.658 17.0053C147.545 16.9646 147.441 16.9006 147.354 16.8174C147.18 16.5999 147.096 16.3237 147.12 16.046V13.8013H148.178C148.694 13.8013 148.911 13.4695 148.912 13.2262V12.7398H147.12V11.4089H147.122ZM142.748 12.7415C141.12 12.7432 140.41 13.8604 140.406 14.9567V18.0562H141.618V15.0453C141.602 14.717 141.701 14.3934 141.899 14.1314C141.99 14.0245 142.103 13.9393 142.231 13.8822C142.359 13.8251 142.498 13.7974 142.638 13.8013C142.793 13.7913 142.947 13.8154 143.091 13.8718C143.235 13.9283 143.365 14.0157 143.471 14.1279C143.667 14.3538 143.766 14.6891 143.766 15.1426L143.767 18.0562H144.978V15.0262C144.976 13.5494 143.974 12.7432 142.748 12.7415ZM138.238 18.0562H139.457V11.4089H138.238V18.0562ZM154.303 14.7569V18.0562H155.524V14.9932C155.524 14.5831 155.605 14.2878 155.773 14.0897C155.865 13.992 155.978 13.9161 156.103 13.8674C156.227 13.8187 156.362 13.7985 156.495 13.8083C156.607 13.8078 156.718 13.8171 156.828 13.8361V12.8649C156.634 12.7744 156.423 12.7309 156.21 12.738C154.841 12.7398 154.308 13.7127 154.303 14.7569V14.7569ZM152.194 15.0296C151.953 15.1148 151.565 15.1478 150.937 15.1478H150.287L150.291 15.0905L150.299 14.9132C150.302 14.6022 150.425 14.3044 150.644 14.0836C150.862 13.8628 151.158 13.7366 151.468 13.7318C151.739 13.7182 152.007 13.7919 152.234 13.942C152.33 14.0169 152.408 14.1141 152.459 14.2254C152.51 14.3368 152.534 14.4589 152.528 14.5814C152.534 14.6837 152.504 14.7847 152.442 14.8667C152.381 14.9488 152.293 15.0065 152.194 15.0296V15.0296ZM151.588 12.7415C150.098 12.7432 149.042 13.8187 149.039 15.5665C149.034 15.9055 149.096 16.2421 149.223 16.5564C149.35 16.8707 149.538 17.1565 149.776 17.3969C150.014 17.6373 150.298 17.8274 150.611 17.9561C150.923 18.0849 151.258 18.1496 151.596 18.1465C152.365 18.1465 152.845 18.0266 153.122 17.799V16.9147C152.72 17.0956 152.283 17.1834 151.842 17.1718C151.046 17.1736 150.403 16.7358 150.299 16.0356L150.291 15.973H151.221C152.095 15.973 152.713 15.8931 153.101 15.7003C153.489 15.5074 153.657 15.2138 153.659 14.7395C153.66 13.506 152.667 12.7415 151.588 12.7415" fill="white"/>
<path d="M175.858 15.2972L175.83 15.2625L175.858 15.2294C176.52 14.4033 177.225 13.6129 177.971 12.8614H177.3C176.878 12.8631 176.587 12.9083 176.282 13.1898C175.692 13.786 175.15 14.4279 174.661 15.1096L174.564 15.2381L174.57 11.4089H173.342L173.344 18.0457L174.564 18.0492V15.3563L174.663 15.4866C175.23 16.2764 175.848 17.0291 176.511 17.74C176.735 17.955 177.03 18.0788 177.34 18.0874C177.676 18.0857 177.867 18.0023 178 17.8407C177.662 17.4377 176.27 15.8028 175.858 15.2972" fill="white"/>
<path d="M133.176 16.8365L128.132 17.7504V12.6442L133.176 11.7303V16.8365ZM127.186 9.98425C127.02 9.98464 126.855 10.0179 126.702 10.0821C126.549 10.1463 126.409 10.2403 126.292 10.3585C126.175 10.4768 126.082 10.6171 126.019 10.7714C125.956 10.9257 125.923 11.091 125.924 11.2578V19.4756H134.122C134.288 19.4752 134.453 19.442 134.606 19.3778C134.76 19.3137 134.899 19.2198 135.016 19.1015C135.134 18.9832 135.227 18.843 135.29 18.6886C135.354 18.5343 135.386 18.369 135.386 18.2021L135.387 9.98425H127.186Z" fill="white"/>
<path d="M129.178 5.25256H128.74L128.298 4.06062C128.244 3.91309 128.169 3.81418 128.071 3.76389C127.977 3.7136 127.843 3.68845 127.669 3.68845H126.774V5.25256H126.366V1.6717H127.79C128.175 1.6717 128.47 1.75719 128.675 1.92819C128.883 2.09919 128.987 2.34562 128.987 2.6675C128.987 2.9022 128.925 3.10002 128.801 3.26096C128.68 3.41854 128.504 3.53086 128.273 3.59792C128.376 3.61469 128.465 3.65995 128.539 3.73371C128.613 3.80412 128.675 3.90639 128.725 4.0405L129.178 5.25256ZM127.754 3.34646C128.304 3.34646 128.579 3.12181 128.579 2.67253C128.579 2.45124 128.512 2.28695 128.378 2.17966C128.244 2.06901 128.036 2.01369 127.754 2.01369H126.774V3.34646H127.754ZM129.854 1.6717H132.117V2.01369H130.261V3.26096H132.016V3.60798H130.261V4.91057H132.117V5.25256H129.854V1.6717ZM133.898 5.2928C133.338 5.2928 132.892 5.14192 132.56 4.84016L132.716 4.52331C132.894 4.67419 133.075 4.78148 133.259 4.84519C133.443 4.90889 133.658 4.94075 133.903 4.94075C134.191 4.94075 134.412 4.88542 134.567 4.77478C134.724 4.66078 134.803 4.50152 134.803 4.29699C134.803 4.17629 134.764 4.07906 134.687 4.00529C134.614 3.92818 134.515 3.86783 134.391 3.82424C134.27 3.78065 134.107 3.73539 133.903 3.68845C133.628 3.6281 133.401 3.56272 133.224 3.49231C133.046 3.4219 132.902 3.32131 132.791 3.19055C132.681 3.05643 132.625 2.88208 132.625 2.6675C132.625 2.46297 132.679 2.28359 132.786 2.12936C132.894 1.97178 133.044 1.8494 133.239 1.76222C133.437 1.67505 133.666 1.63146 133.928 1.63146C134.176 1.63146 134.407 1.67002 134.622 1.74714C134.837 1.82425 135.018 1.93657 135.165 2.0841L135.004 2.40095C134.837 2.25677 134.666 2.15116 134.491 2.0841C134.32 2.01704 134.132 1.98351 133.928 1.98351C133.65 1.98351 133.432 2.04386 133.274 2.16457C133.116 2.28192 133.038 2.44453 133.038 2.65241C133.038 2.83347 133.106 2.96926 133.244 3.05978C133.381 3.15031 133.593 3.22911 133.878 3.29616C134.186 3.36993 134.427 3.43866 134.602 3.50236C134.78 3.56272 134.927 3.6566 135.044 3.78401C135.162 3.90806 135.22 4.07403 135.22 4.28191C135.22 4.48308 135.167 4.66078 135.059 4.81501C134.952 4.96589 134.798 5.08324 134.597 5.16707C134.399 5.25089 134.166 5.2928 133.898 5.2928ZM135.895 1.6717H137.323C137.692 1.6717 137.978 1.76055 138.183 1.93825C138.391 2.11595 138.495 2.36071 138.495 2.67253C138.495 2.98435 138.391 3.23078 138.183 3.41184C137.975 3.58954 137.688 3.67839 137.323 3.67839H136.307V5.25256H135.895V1.6717ZM137.288 3.3364C137.553 3.3364 137.752 3.2794 137.886 3.1654C138.02 3.0514 138.087 2.88711 138.087 2.67253C138.087 2.45794 138.02 2.29533 137.886 2.18469C137.752 2.07069 137.553 2.01369 137.288 2.01369H136.307V3.3364H137.288ZM141.131 4.3322H139.26L138.863 5.25256H138.435L140.01 1.6717H140.372L141.946 5.25256H141.523L141.131 4.3322ZM140.985 3.99021L140.196 2.14948L139.406 3.99021H140.985ZM142.481 1.6717H142.893V4.90051H144.689V5.25256H142.481V1.6717ZM145.221 1.6717H146.423C146.997 1.6717 147.439 1.8276 147.751 2.13942C148.066 2.44789 148.224 2.88711 148.224 3.4571C148.224 4.03044 148.066 4.47302 147.751 4.78484C147.439 5.09665 146.997 5.25256 146.423 5.25256H145.221V1.6717ZM146.398 4.90051C146.861 4.90051 147.208 4.77981 147.439 4.5384C147.674 4.29699 147.791 3.93656 147.791 3.4571C147.791 2.50153 147.327 2.02375 146.398 2.02375H145.634V4.90051H146.398ZM151.239 4.3322H149.368L148.971 5.25256H148.543L150.117 1.6717H150.479L152.054 5.25256H151.631L151.239 4.3322ZM151.093 3.99021L150.303 2.14948L149.514 3.99021H151.093ZM152.589 1.6717H153.791C154.364 1.6717 154.806 1.8276 155.118 2.13942C155.433 2.44789 155.591 2.88711 155.591 3.4571C155.591 4.03044 155.433 4.47302 155.118 4.78484C154.806 5.09665 154.364 5.25256 153.791 5.25256H152.589V1.6717ZM153.765 4.90051C154.228 4.90051 154.575 4.77981 154.806 4.5384C155.041 4.29699 155.159 3.93656 155.159 3.4571C155.159 2.50153 154.694 2.02375 153.765 2.02375H153.001V4.90051H153.765ZM157.84 5.2928C157.508 5.2928 157.219 5.21903 156.975 5.07151C156.73 4.92398 156.54 4.71275 156.406 4.43782C156.276 4.15953 156.21 3.8343 156.21 3.46213C156.21 3.08661 156.276 2.76138 156.406 2.48644C156.537 2.21151 156.725 2.00028 156.97 1.85275C157.214 1.70522 157.504 1.63146 157.84 1.63146C158.175 1.63146 158.465 1.70522 158.71 1.85275C158.954 2.00028 159.142 2.21151 159.273 2.48644C159.404 2.76138 159.469 3.08493 159.469 3.4571C159.469 3.83262 159.402 4.15785 159.268 4.43279C159.137 4.70772 158.949 4.92063 158.705 5.07151C158.46 5.21903 158.172 5.2928 157.84 5.2928ZM157.84 4.94075C158.218 4.94075 158.514 4.81166 158.725 4.55349C158.936 4.29532 159.042 3.92986 159.042 3.4571C159.042 2.98435 158.936 2.62056 158.725 2.36574C158.517 2.11092 158.222 1.98351 157.84 1.98351C157.457 1.98351 157.161 2.1126 156.949 2.37077C156.738 2.62559 156.633 2.9877 156.633 3.4571C156.633 3.92986 156.738 4.29532 156.949 4.55349C157.161 4.81166 157.457 4.94075 157.84 4.94075ZM161.537 1.6717H162.966C163.334 1.6717 163.621 1.76055 163.826 1.93825C164.033 2.11595 164.137 2.36071 164.137 2.67253C164.137 2.98435 164.033 3.23078 163.826 3.41184C163.618 3.58954 163.331 3.67839 162.966 3.67839H161.95V5.25256H161.537V1.6717ZM162.93 3.3364C163.195 3.3364 163.395 3.2794 163.529 3.1654C163.663 3.0514 163.73 2.88711 163.73 2.67253C163.73 2.45794 163.663 2.29533 163.529 2.18469C163.395 2.07069 163.195 2.01369 162.93 2.01369H161.95V3.3364H162.93ZM166.277 5.2928C165.946 5.2928 165.657 5.21903 165.412 5.07151C165.168 4.92398 164.978 4.71275 164.844 4.43782C164.713 4.15953 164.648 3.8343 164.648 3.46213C164.648 3.08661 164.713 2.76138 164.844 2.48644C164.975 2.21151 165.163 2.00028 165.407 1.85275C165.652 1.70522 165.942 1.63146 166.277 1.63146C166.613 1.63146 166.903 1.70522 167.148 1.85275C167.392 2.00028 167.58 2.21151 167.711 2.48644C167.842 2.76138 167.907 3.08493 167.907 3.4571C167.907 3.83262 167.84 4.15785 167.706 4.43279C167.575 4.70772 167.387 4.92063 167.143 5.07151C166.898 5.21903 166.609 5.2928 166.277 5.2928ZM166.277 4.94075C166.656 4.94075 166.951 4.81166 167.163 4.55349C167.374 4.29532 167.479 3.92986 167.479 3.4571C167.479 2.98435 167.374 2.62056 167.163 2.36574C166.955 2.11092 166.66 1.98351 166.277 1.98351C165.895 1.98351 165.599 2.1126 165.387 2.37077C165.176 2.62559 165.07 2.9877 165.07 3.4571C165.07 3.92986 165.176 4.29532 165.387 4.55349C165.599 4.81166 165.895 4.94075 166.277 4.94075ZM171.475 5.25256H171.038L170.595 4.06062C170.541 3.91309 170.466 3.81418 170.369 3.76389C170.275 3.7136 170.141 3.68845 169.966 3.68845H169.071V5.25256H168.664V1.6717H170.087C170.473 1.6717 170.768 1.75719 170.972 1.92819C171.18 2.09919 171.284 2.34562 171.284 2.6675C171.284 2.9022 171.222 3.10002 171.098 3.26096C170.977 3.41854 170.801 3.53086 170.57 3.59792C170.674 3.61469 170.763 3.65995 170.836 3.73371C170.91 3.80412 170.972 3.90639 171.022 4.0405L171.475 5.25256ZM170.052 3.34646C170.602 3.34646 170.877 3.12181 170.877 2.67253C170.877 2.45124 170.81 2.28695 170.675 2.17966C170.541 2.06901 170.333 2.01369 170.052 2.01369H169.071V3.34646H170.052ZM172.548 2.77814V3.30119H172.03V2.77814H172.548ZM172.548 4.73454V5.25256H172.03V4.73454H172.548Z" fill="white"/>
<path d="M5.30568 2.65178C5.30568 4.11219 4.1143 5.29396 2.65389 5.29396C1.19349 5.29396 0.0117188 4.10258 0.0117188 2.64218C0.0117187 1.18177 1.2031 0 2.6635 0C4.12391 0 5.30568 1.19138 5.30568 2.65178Z" fill="white"/>
<path d="M16.8526 2.67107C16.8526 4.13147 15.6612 5.31325 14.2008 5.31325C12.7404 5.31325 11.5586 4.12187 11.5586 2.66146C11.5586 1.20106 12.75 0.0192871 14.2104 0.0192871C15.6708 0.0192871 16.8622 1.20106 16.8526 2.67107Z" fill="#EFEFEF"/>
<path d="M14.2017 8.37781C12.8662 8.37781 11.7613 9.36742 11.5787 10.6453C11.5595 10.7702 11.5499 10.8951 11.5499 11.02C11.5499 13.4604 10.1952 15.43 8.40809 16.4292C7.51455 16.9289 6.49611 17.2075 5.40081 17.2075C3.92119 17.2075 2.55687 16.6887 1.5 15.8239C3.01805 18.0145 5.54493 19.4557 8.40809 19.4557C11.2809 19.4557 13.827 18.0145 15.3546 15.8143C16.2962 14.4596 16.8438 12.8071 16.8438 11.0296C16.8438 9.56919 15.6621 8.37781 14.2017 8.37781Z" fill="#EFEFEF"/>
<path d="M2.65178 8.35876C3.98728 8.35876 5.09219 9.34838 5.26514 10.6358C5.28435 10.7607 5.29396 10.8856 5.29396 11.0105C5.29396 13.451 6.62946 15.4206 8.42614 16.4294C9.31968 16.929 10.3381 17.2173 11.4334 17.2173C12.913 17.2173 14.2774 16.708 15.3438 15.8433C13.8162 18.0339 11.2893 19.4655 8.41653 19.4559C5.53416 19.4559 2.99767 18.0051 1.48923 15.7953C0.547651 14.431 0 12.7784 0 11.0009C0 9.54054 1.19138 8.35876 2.65178 8.35876Z" fill="white"/>
<path d="M7.23479 19.3697C7.27322 19.3793 7.31165 19.3793 7.35008 19.3889C7.39812 19.3985 7.44616 19.3985 7.4942 19.4081C7.53264 19.4081 7.57107 19.4177 7.6095 19.4177C7.65754 19.4273 7.71519 19.4273 7.76323 19.4273C7.80166 19.4273 7.83048 19.4369 7.86891 19.4369C7.92656 19.4369 7.98421 19.4465 8.04185 19.4465C8.07068 19.4465 8.0995 19.4465 8.13793 19.4465C8.2244 19.4465 8.32048 19.4465 8.40696 19.4465C8.49343 19.4465 8.58951 19.4465 8.67598 19.4465C8.7048 19.4465 8.73362 19.4465 8.77206 19.4465C8.8297 19.4465 8.88735 19.4465 8.945 19.4369C8.98343 19.4369 9.01225 19.4273 9.05069 19.4273C9.09872 19.4273 9.15637 19.4177 9.20441 19.4177C9.24284 19.4177 9.28128 19.4081 9.31971 19.4081C9.36775 19.3985 9.41579 19.3985 9.46383 19.3889C9.50226 19.3793 9.54069 19.3793 9.57912 19.3697C9.62716 19.3601 9.6752 19.3601 9.72324 19.3504C9.76167 19.3408 9.8001 19.3408 9.83853 19.3312C9.88657 19.3216 9.93461 19.312 9.97305 19.312C10.0115 19.3024 10.0499 19.2928 10.0883 19.2832C10.1364 19.2736 10.1748 19.264 10.2229 19.2544C10.2613 19.2448 10.2997 19.2352 10.3381 19.2255C10.3862 19.2159 10.4246 19.2063 10.4727 19.1967C10.5111 19.1871 10.5495 19.1775 10.588 19.1679C10.6264 19.1583 10.6744 19.1487 10.7129 19.1295C10.7513 19.1199 10.7897 19.1006 10.8378 19.091C10.8762 19.0814 10.9242 19.0622 10.9627 19.0526C11.0011 19.043 11.0395 19.0238 11.078 19.0142C11.1164 19.0046 11.1644 18.9853 11.2029 18.9757C11.2413 18.9661 11.2797 18.9469 11.3182 18.9277C11.3566 18.9085 11.395 18.8989 11.4431 18.8797C11.4815 18.8604 11.5199 18.8508 11.5584 18.8316C11.5968 18.8124 11.6352 18.8028 11.6736 18.7836C11.7121 18.7644 11.7505 18.7451 11.7889 18.7355C11.8274 18.7163 11.8658 18.7067 11.9042 18.6875C11.9427 18.6683 11.9811 18.6491 12.0195 18.6299C12.058 18.6106 12.0964 18.5914 12.1348 18.5722C12.1733 18.553 12.2117 18.5338 12.2501 18.5146C12.2886 18.4953 12.327 18.4761 12.3654 18.4569C12.4038 18.4377 12.4423 18.4185 12.4711 18.3993C12.5095 18.38 12.548 18.3608 12.5864 18.3416C12.6248 18.3224 12.6537 18.3032 12.6921 18.2744C12.7305 18.2551 12.7689 18.2359 12.7978 18.2071C12.8362 18.1879 12.865 18.1591 12.9035 18.1398C12.9419 18.1206 12.9707 18.0918 13.0091 18.0726C13.0476 18.0534 13.0764 18.0246 13.1148 18.0053C13.1533 17.9861 13.1821 17.9573 13.2205 17.9381C13.259 17.9189 13.2878 17.89 13.3262 17.8612C13.3646 17.8324 13.3935 17.8132 13.4319 17.7844C13.4607 17.7555 13.4991 17.7363 13.528 17.7075C13.5568 17.6787 13.5952 17.6595 13.6241 17.6306C13.6529 17.6018 13.6913 17.5826 13.7201 17.5538C13.749 17.5249 13.7874 17.5057 13.8162 17.4769C13.845 17.4481 13.8835 17.4193 13.9123 17.4C13.9411 17.3712 13.9795 17.3424 14.0084 17.3136C14.0372 17.2847 14.066 17.2559 14.1044 17.2271C14.1333 17.1983 14.1621 17.1694 14.2005 17.1406C14.2294 17.1118 14.2582 17.083 14.287 17.0542C14.3158 17.0253 14.3446 16.9965 14.3735 16.9677C14.4023 16.9389 14.4311 16.91 14.4599 16.8812C14.4888 16.8524 14.5176 16.8236 14.5464 16.7947C14.5752 16.7659 14.6041 16.7371 14.6329 16.6987C14.6617 16.6698 14.6905 16.641 14.7194 16.6026C14.7482 16.5738 14.777 16.5353 14.7962 16.5065C14.825 16.4777 14.8539 16.4392 14.8827 16.4104C14.9115 16.3816 14.9307 16.3432 14.9596 16.3143C14.9884 16.2855 15.0172 16.2471 15.0364 16.2183C15.0652 16.1894 15.0845 16.151 15.1133 16.1222C15.1421 16.0934 15.1613 16.0549 15.1901 16.0261C15.219 15.9973 15.2382 15.9589 15.2574 15.93C15.2766 15.9012 15.2958 15.8724 15.3247 15.8436C14.2582 16.7083 12.9035 17.2175 11.4238 17.2175C10.3285 17.2175 9.3101 16.9293 8.41656 16.4296C8.41656 16.4296 8.41656 16.4296 8.40696 16.4296C8.40696 16.4296 8.40696 16.4296 8.39735 16.4296C7.50381 16.9293 6.48537 17.2079 5.39007 17.2079C3.91045 17.2079 2.55574 16.6891 1.48926 15.8243C1.50847 15.8532 1.52769 15.882 1.55651 15.9108C1.57573 15.9396 1.60455 15.9781 1.62377 16.0069C1.65259 16.0453 1.67181 16.0741 1.70063 16.1126C1.72946 16.1414 1.74867 16.1798 1.7775 16.2087C1.80632 16.2375 1.82553 16.2759 1.85436 16.3047C1.88318 16.3336 1.9024 16.372 1.93122 16.4008C1.96005 16.4296 1.98887 16.4681 2.01769 16.4969C2.04652 16.5257 2.07534 16.5641 2.09456 16.593C2.12338 16.6218 2.1522 16.6506 2.18103 16.6891C2.20985 16.7179 2.23868 16.7467 2.2675 16.7851C2.29632 16.814 2.32515 16.8428 2.35397 16.8716C2.38279 16.9004 2.41162 16.9293 2.44044 16.9581C2.46926 16.9869 2.49809 17.0157 2.52691 17.0445C2.55574 17.0734 2.58456 17.1022 2.61338 17.131C2.64221 17.1598 2.67103 17.1887 2.70946 17.2175C2.73829 17.2463 2.76711 17.2751 2.79593 17.304C2.82476 17.3328 2.86319 17.3616 2.89201 17.3904C2.92084 17.4193 2.94966 17.4481 2.98809 17.4673C3.01692 17.4961 3.05535 17.5249 3.08417 17.5442C3.113 17.573 3.15143 17.6018 3.18025 17.621C3.20907 17.6498 3.24751 17.6691 3.27633 17.6979C3.30515 17.7267 3.34358 17.7459 3.37241 17.7747C3.40123 17.8036 3.43966 17.8228 3.4781 17.8516C3.51653 17.8804 3.54535 17.8997 3.58378 17.9285C3.62221 17.9477 3.65104 17.9765 3.68947 17.9957C3.7279 18.0149 3.75673 18.0438 3.79516 18.063C3.83359 18.0822 3.86241 18.111 3.90084 18.1302C3.93928 18.1495 3.9681 18.1783 4.00653 18.1975C4.04496 18.2167 4.08339 18.2455 4.11222 18.2648C4.15065 18.284 4.17947 18.3032 4.21791 18.332C4.25634 18.3512 4.29477 18.3704 4.32359 18.3897C4.36202 18.4089 4.40046 18.4281 4.42928 18.4473C4.46771 18.4665 4.50614 18.4857 4.54457 18.5049C4.58301 18.5242 4.62144 18.5434 4.65987 18.5626C4.6983 18.5818 4.73673 18.601 4.77516 18.6202C4.8136 18.6395 4.85203 18.6587 4.89046 18.6779C4.92889 18.6971 4.96732 18.7163 5.00575 18.7259C5.04419 18.7451 5.08262 18.7644 5.12105 18.774C5.15948 18.7932 5.19791 18.8028 5.23634 18.822C5.27478 18.8412 5.31321 18.8508 5.35164 18.87C5.39007 18.8893 5.4285 18.8989 5.47654 18.9181C5.51497 18.9373 5.55341 18.9469 5.59184 18.9661C5.63027 18.9853 5.67831 18.995 5.71674 19.0046C5.75517 19.0142 5.7936 19.0334 5.83203 19.043C5.87047 19.0526 5.91851 19.0718 5.95694 19.0814C5.99537 19.091 6.0338 19.1102 6.08184 19.1199C6.12027 19.1295 6.16831 19.1391 6.20674 19.1583C6.24517 19.1679 6.28361 19.1775 6.32204 19.1871C6.37008 19.1967 6.40851 19.2063 6.45655 19.2159C6.49498 19.2255 6.53341 19.2351 6.57184 19.2448C6.61988 19.2544 6.65832 19.264 6.70636 19.2736C6.74479 19.2832 6.78322 19.2928 6.82165 19.3024C6.86969 19.312 6.91773 19.3216 6.95616 19.3312" fill="white"/>
<path d="M52.603 0H49.3604V19.4561H52.603V0Z" fill="white"/>
<path d="M45.7583 5.94482H42.5156V19.456H45.7583V5.94482Z" fill="white"/>
<path d="M77.9435 5.94482V7.70169C76.8036 6.6664 75.3121 6.0494 73.6822 6.0494C70.1027 6.0494 67.1943 9.05072 67.1943 12.7527C67.1943 16.4547 70.092 19.456 73.6822 19.456C75.3121 19.456 76.8036 18.8285 77.9435 17.8037V19.4246H81.246V5.94482H77.9435ZM73.6715 16.1723C71.7433 16.1723 70.1772 14.6351 70.1772 12.7422C70.1772 10.8494 71.7433 9.31216 73.6715 9.31216C75.5997 9.31216 77.1658 10.8494 77.1658 12.7422C77.1658 14.6351 75.6104 16.1723 73.6715 16.1723Z" fill="white"/>
<path d="M46.4788 2.34194C46.4788 3.63 45.4356 4.68387 44.1369 4.68387C42.8381 4.68387 41.7949 3.64065 41.7949 2.34194C41.7949 1.05387 42.8381 0 44.1369 0C45.4356 0 46.4788 1.05387 46.4788 2.34194Z" fill="white"/>
<path d="M63.8353 14.7872C63.1967 15.6198 62.1856 16.1572 61.0468 16.1572C60.8552 16.1572 60.6636 16.1362 60.4827 16.1151L62.3665 13.6806L64.2291 11.2671L64.3674 11.0879L66.379 8.48476C65.6872 7.63109 64.7931 6.94604 63.7608 6.5034C62.9306 6.14507 62.0153 5.94482 61.0468 5.94482C60.0783 5.94482 59.1523 6.14507 58.3222 6.5034C57.2579 6.96712 56.3426 7.68378 55.6401 8.57961C54.7568 9.71784 54.2246 11.1512 54.2246 12.7004C54.2246 14.2918 54.778 15.7568 55.7146 16.9161C56.4064 17.7697 57.3004 18.4548 58.3328 18.8974C59.163 19.2558 60.0783 19.456 61.0468 19.456C63.2605 19.456 65.2295 18.4126 66.4747 16.7896L63.8353 14.7872ZM57.5559 12.6899C57.5559 11.8889 57.8326 11.1617 58.2796 10.5715C58.9182 9.74945 59.9186 9.2225 61.0468 9.2225C61.2384 9.2225 61.4299 9.24357 61.6109 9.26465L59.7483 11.6781L57.8645 14.1127C57.6729 13.6911 57.5559 13.2063 57.5559 12.6899Z" fill="white"/>
<path d="M36.8086 7.57839V5.94482H33.5078V19.456H36.8086V17.8224V13.0482C36.8086 12.9534 36.8086 12.8585 36.8193 12.7636C36.9577 10.9404 38.3632 9.47544 40.1733 9.24357V5.97644C38.8956 6.16615 37.735 6.73526 36.8086 7.57839Z" fill="white"/>
<path d="M30.1004 0C27.8703 0 24.7375 1.53629 24.7375 5.79552V5.8485H23.0596V9.13298H24.7375V19.4561H28.0296V11.0295V9.12239H31.3217V5.83791H28.0296V5.4141C28.0296 4.31221 29.0916 3.31627 30.2066 3.31627H32.9678V0.529755V0H30.1004Z" fill="white"/>
<path d="M113.739 14.7872C113.1 15.6198 112.089 16.1572 110.95 16.1572C110.759 16.1572 110.567 16.1362 110.386 16.1151L112.27 13.6806L114.132 11.2671L114.271 11.0879L116.282 8.48476C115.59 7.63109 114.696 6.94604 113.664 6.5034C112.834 6.14507 111.919 5.94482 110.95 5.94482C109.982 5.94482 109.056 6.14507 108.225 6.5034C107.161 6.96712 106.246 7.68378 105.543 8.57961C104.66 9.71784 104.128 11.1512 104.128 12.7004C104.128 14.2918 104.681 15.7568 105.618 16.9161C106.31 17.7697 107.204 18.4548 108.236 18.8974C109.066 19.2558 109.982 19.456 110.95 19.456C113.164 19.456 115.133 18.4126 116.378 16.7896L113.739 14.7872ZM107.459 12.7004C107.459 11.8994 107.736 11.1722 108.183 10.582C108.822 9.75999 109.822 9.23303 110.95 9.23303C111.142 9.23303 111.333 9.25411 111.514 9.27519L109.652 11.6887L107.768 14.1232C107.576 13.7016 107.459 13.2168 107.459 12.7004Z" fill="white"/>
<path d="M87.7327 16.3933C87.7327 17.6814 86.6895 18.7353 85.3908 18.7353C84.1027 18.7353 83.0488 17.692 83.0488 16.3933C83.0488 15.1053 84.0921 14.0514 85.3908 14.0514C86.6895 14.0514 87.7327 15.0946 87.7327 16.3933Z" fill="white"/>
<path d="M92.7519 19.3422V17.7207C93.86 18.7515 95.3197 19.3744 96.9073 19.3744C100.391 19.3744 103.226 16.3676 103.226 12.6629C103.226 8.95822 100.402 5.9515 96.9073 5.9515C95.3197 5.9515 93.86 6.57432 92.7519 7.6052V5.85486H89.5342V25.401H92.7519V19.3422ZM96.9073 16.0992C95.0214 16.0992 93.4977 14.5636 93.4977 12.6629C93.4977 10.7623 95.0214 9.22668 96.9073 9.22668C98.7931 9.22668 100.317 10.7623 100.317 12.6629C100.317 14.5636 98.7931 16.0992 96.9073 16.0992Z" fill="white"/>
</svg>
