<?xml version="1.0" encoding="utf-8"?>
<!-- Generator: Adobe Illustrator 24.1.2, SVG Export Plug-In . SVG Version: 6.00 Build 0)  -->
<svg version="1.1" id="Capa_1" xmlns="http://www.w3.org/2000/svg" xmlns:xlink="http://www.w3.org/1999/xlink" x="0px" y="0px"
	 viewBox="0 0 726.2 255.4" style="enable-background:new 0 0 726.2 255.4;" xml:space="preserve">
<style type="text/css">
	.st0{fill:#0C1937;}
	.st1{fill:#FFC800;}
	.st2{fill:#8B74FF;}
	.st3{fill:#8C8C8C;}
</style>
<g id="logo_frilea" transform="translate(0)">
	<g id="Grupo_3">
		<g id="Grupo_1">
			<rect id="Rectángulo_1" x="442.3" y="1.2" class="st0" width="29.2" height="173.5"/>
			<rect id="Rectángulo_2" x="381.1" y="53.2" class="st0" width="29.2" height="121.5"/>
			<path id="Trazado_1" class="st0" d="M697,53.2V69c-10.3-9.6-23.7-14.9-37.8-14.9c-31.7,0-57.4,27.1-57.4,60.5
				s25.7,60.5,57.4,60.5c14,0,27.5-5.4,37.8-14.9v14.6h29.2V53.2H697z M659.2,145.5c-17.1,0-31-13.9-31-31s13.9-31,31-31
				c17.1,0,31,13.9,31,31C690.2,131.7,676.3,145.5,659.2,145.5C659.2,145.5,659.2,145.5,659.2,145.5z"/>
			<circle id="Elipse_1" class="st0" cx="395.7" cy="22" r="20.7"/>
			<path id="Trazado_2" class="st0" d="M571.5,132.7c-5.8,7.7-15,12.3-24.7,12.3c-1.7,0-3.3-0.1-5-0.4l16.7-21.8l16.5-21.6l1.2-1.6
				l17.8-23.3c-20.8-26.1-58.9-30.4-85-9.5s-30.4,58.9-9.5,85c20.8,26.1,58.9,30.4,85,9.5c3.9-3.1,7.4-6.7,10.4-10.6L571.5,132.7z
				 M515.9,114c0-17.1,13.9-31,31-31c1.7,0,3.3,0.1,5,0.4L535.3,105l-16.7,21.8C516.8,122.8,515.9,118.4,515.9,114z"/>
			<path id="Trazado_3" class="st0" d="M330.3,68.1V53.5h-29.2v120.9h29.2v-57.4c0-0.8,0-1.7,0.1-2.5c1.2-16.2,13.6-29.4,29.7-31.5
				V53.8C349,55.5,338.6,60.5,330.3,68.1z"/>
			<path id="Trazado_4" class="st0" d="M270.3,1.2c-19.8,0-47.6,13.7-47.6,51.5v0.4h-14.9v29.2h14.9v92.3h29.2V82.4h29.3V53.2h-29.3
				v-3.8c0-9.8,9.5-18.7,19.4-18.7h24.5V1.2H270.3z"/>
		</g>
		<g id="Grupo_2">
			<circle id="Elipse_2" class="st1" cx="23.9" cy="23.8" r="23.8"/>
			<circle id="Elipse_3" class="st2" cx="127.8" cy="23.9" r="23.8"/>
			<path id="Trazado_5" class="st2" d="M127.7,75.3c-11.8,0-21.9,8.7-23.6,20.4c-0.2,1.1-0.2,2.2-0.2,3.3
				c0.1,30.6-24.6,55.5-55.2,55.6c-12.8,0-25.3-4.4-35.2-12.5c23.8,34.4,71,43,105.4,19.2c20.4-14.1,32.6-37.4,32.6-62.2
				C151.5,86,140.9,75.4,127.7,75.3C127.7,75.3,127.7,75.3,127.7,75.3z"/>
			<path id="Trazado_6" class="st1" d="M23.8,75.2c11.8,0,21.9,8.7,23.5,20.5c0.2,1.1,0.2,2.2,0.2,3.3c-0.2,30.6,24.4,55.6,55,55.8
				c12.8,0.1,25.3-4.3,35.3-12.4c-23.9,34.3-71.1,42.8-105.4,18.9C12.1,147.1-0.1,123.8,0,98.9C0,85.8,10.7,75.2,23.8,75.2z"/>
			<path id="Trazado_7" class="st0" d="M65,174.2c0.3,0.1,0.7,0.1,1.1,0.1l1.3,0.1l1.1,0.1c0.5,0.1,0.9,0.1,1.4,0.1
				c0.3,0,0.6,0.1,0.9,0.1c0.5,0,1,0.1,1.6,0.1c0.3,0,0.6,0,0.8,0c0.8,0,1.6,0,2.4,0s1.6,0,2.4,0c0.3,0,0.6,0,0.8,0
				c0.5,0,1.1,0,1.6-0.1c0.3,0,0.6-0.1,0.9-0.1c0.5,0,0.9-0.1,1.4-0.1c0.3,0,0.7-0.1,1.1-0.1c0.4-0.1,0.9-0.1,1.3-0.1
				c0.4,0,0.7-0.1,1.1-0.1c0.4-0.1,0.8-0.1,1.3-0.2l1.1-0.2l1.2-0.2c0.4-0.1,0.7-0.1,1.1-0.2c0.4-0.1,0.8-0.2,1.2-0.3
				c0.3-0.1,0.7-0.2,1.1-0.3c0.4-0.1,0.8-0.2,1.2-0.3c0.4-0.1,0.7-0.2,1.1-0.3c0.4-0.1,0.8-0.2,1.2-0.3c0.4-0.1,0.7-0.2,1.1-0.3
				s0.8-0.2,1.1-0.3s0.7-0.2,1.1-0.4s0.7-0.2,1.1-0.4c0.3-0.1,0.7-0.3,1.1-0.4s0.7-0.3,1.1-0.4s0.7-0.3,1.1-0.4s0.7-0.3,1.1-0.4
				s0.7-0.3,1-0.5s0.7-0.3,1-0.5s0.7-0.3,1-0.5s0.7-0.3,1-0.5s0.7-0.3,1-0.5s0.7-0.3,1-0.5s0.7-0.4,1-0.5s0.7-0.4,1-0.6
				s0.6-0.4,1-0.6s0.7-0.4,1-0.6s0.6-0.4,0.9-0.6s0.6-0.4,1-0.6l0.9-0.6l0.9-0.6c0.3-0.2,0.6-0.4,0.9-0.7s0.6-0.4,0.9-0.7
				s0.6-0.4,0.9-0.7s0.6-0.4,0.9-0.7s0.6-0.5,0.9-0.7s0.6-0.5,0.9-0.7s0.6-0.5,0.8-0.7s0.6-0.5,0.8-0.7s0.6-0.5,0.8-0.8
				s0.6-0.5,0.8-0.8s0.5-0.5,0.8-0.8s0.5-0.5,0.8-0.8s0.5-0.5,0.8-0.8s0.5-0.5,0.8-0.8s0.5-0.6,0.8-0.8s0.5-0.6,0.8-0.8
				s0.5-0.6,0.7-0.8s0.5-0.6,0.7-0.9s0.5-0.6,0.7-0.9s0.5-0.6,0.7-0.9s0.4-0.6,0.7-0.9s0.5-0.6,0.7-0.9s0.4-0.6,0.6-0.9
				c0.2-0.3,0.4-0.5,0.6-0.8c-17.7,14.3-42.3,16.4-62.2,5.3l-0.1,0l-0.1,0c-19.9,11-44.5,8.9-62.1-5.5c0.2,0.3,0.4,0.5,0.6,0.8
				c0.2,0.3,0.4,0.6,0.6,0.9s0.5,0.6,0.7,0.9s0.4,0.6,0.7,0.9c0.2,0.3,0.5,0.6,0.7,0.9s0.5,0.6,0.7,0.9s0.5,0.6,0.7,0.9
				s0.5,0.6,0.7,0.9s0.5,0.6,0.8,0.8s0.5,0.6,0.8,0.8s0.5,0.6,0.8,0.8s0.5,0.5,0.8,0.8s0.5,0.5,0.8,0.8s0.5,0.5,0.8,0.8
				s0.5,0.5,0.8,0.8s0.5,0.5,0.8,0.8s0.6,0.5,0.9,0.7s0.6,0.5,0.8,0.7s0.6,0.5,0.9,0.7s0.6,0.5,0.9,0.7s0.6,0.5,0.9,0.7
				s0.6,0.5,0.9,0.7s0.6,0.4,0.9,0.7s0.6,0.4,0.9,0.7c0.3,0.2,0.6,0.4,0.9,0.6s0.6,0.4,0.9,0.6s0.6,0.4,1,0.6s0.6,0.4,0.9,0.6
				s0.7,0.4,1,0.6s0.6,0.4,1,0.6s0.7,0.4,1,0.6s0.7,0.4,1,0.6s0.7,0.4,1,0.5s0.7,0.4,1,0.5s0.7,0.3,1,0.5s0.7,0.3,1,0.5
				s0.7,0.3,1,0.5s0.7,0.3,1,0.5s0.7,0.3,1.1,0.4s0.7,0.3,1,0.4s0.7,0.3,1.1,0.4s0.7,0.3,1,0.4c0.4,0.1,0.7,0.3,1.1,0.4
				c0.3,0.1,0.7,0.3,1.1,0.4c0.4,0.1,0.8,0.2,1.1,0.3s0.7,0.2,1.1,0.3c0.4,0.1,0.8,0.2,1.2,0.3c0.4,0.1,0.7,0.2,1.1,0.3
				c0.4,0.1,0.8,0.2,1.2,0.3c0.3,0.1,0.7,0.2,1,0.3c0.4,0.1,0.8,0.2,1.2,0.3c0.3,0.1,0.7,0.1,1.1,0.2c0.4,0.1,0.8,0.1,1.2,0.2"/>
		</g>
	</g>
	<g id="Grupo_4">
		<path id="Trazado_8" class="st3" d="M654.5,236.8c0.1,1.4-0.4,2.8-1.3,3.8c-1.1,0.9-2.5,1.4-4,1.3h0c-1.5,0.1-2.9-0.3-4.2-1.1
			c-1-0.7-1.6-1.9-1.6-3.1c-0.1-1.3,0.6-2.6,1.7-3.2c1.3-0.7,3.2-1,6.2-1.1h3.1L654.5,236.8L654.5,236.8z M648.3,215.8
			c-4.4,0-7.2,1.2-9.2,2.7v5c2.5-1.2,5.3-1.8,8-1.8c2.3,0,4.4,0.3,5.6,1.3s1.8,2.5,1.7,4.7v0.7h-3.1c-11.5,0-15.2,4.1-15.3,9.4
			c0,5.5,4.9,9.6,12.2,9.6h1.6c6.8,0,11.5-4.4,11.5-10.8v-7.2C661.5,218.7,655.2,215.9,648.3,215.8 M619.4,241.5L619.4,241.5
			c-2.2,0.1-4.4-0.7-5.8-2.4c-1.4-1.7-2.1-4.4-2.1-8c0-5,3-9,7.1-9c2.4,0,4.4,0.7,5.7,2.3c1.3,1.7,2,4.3,2,8.1
			C626.3,237.6,623.5,241.5,619.4,241.5 M620.1,215.8c-3.3,0-6.3,1.8-8.1,4.6l-0.6,0.8l0-13.3h-7.1v24.2c0,10.3,6.2,15.4,14.2,15.4
			c9.2,0,14.9-7.2,15-16.4C633.6,222.1,627.8,215.8,620.1,215.8 M679.8,215.8c-9.6,0-13.8,6.6-13.8,13l0,18.2h7.1v-17.7
			c-0.1-1.9,0.5-3.8,1.7-5.4c1.1-1.3,2.7-2,4.4-1.9c1.8-0.1,3.6,0.6,4.9,1.9c1.2,1.3,1.7,3.3,1.7,6l0,17.1h7.1v-17.8
			C692.9,220.6,687,215.8,679.8,215.8 M543.9,208h-7.1l0,28.2c0,7.2,3.6,11.4,11.4,11.4c3.3,0,5.3-1.1,6.1-2.8v-4.4
			c-1.7,0.6-3.4,0.9-5.2,0.8c-1.4,0.1-2.8-0.4-3.9-1.4c-1-1.3-1.5-2.9-1.4-4.5V222h6.2c3,0,4.3-2,4.3-3.4v-2.9h-10.6L543.9,208
			L543.9,208z M518.1,215.8c-9.6,0-13.8,6.6-13.8,13v18.2h7.1v-17.7c-0.1-1.9,0.5-3.8,1.7-5.4c1.1-1.3,2.7-2,4.4-1.9
			c1.8-0.1,3.6,0.6,4.9,1.9c1.2,1.3,1.7,3.3,1.7,6l0,17.1h7.1v-17.8C531.2,220.6,525.3,215.8,518.1,215.8 M491.5,247.1h7.2V208h-7.2
			V247.1z M586.2,227.7v19.4h7.2v-18c0-2.4,0.5-4.1,1.5-5.3c1.1-1.2,2.7-1.8,4.3-1.7c0.7,0,1.3,0.1,2,0.2v-5.7
			c-1.1-0.5-2.4-0.8-3.6-0.7C589.4,215.8,586.3,221.5,586.2,227.7 M573.8,229.3c-1.4,0.5-3.7,0.7-7.4,0.7h-3.8l0-0.3l0.1-1
			c0-3.8,3.1-6.9,6.9-6.9c1.6-0.1,3.2,0.4,4.5,1.2c1.2,0.9,1.8,2.3,1.7,3.8C575.8,227.9,575,229,573.8,229.3 M570.2,215.8
			c-8.8,0-15,6.3-15,16.6c-0.1,8.3,6.5,15,14.7,15.2c0.1,0,0.2,0,0.4,0c4.5,0,7.4-0.7,9-2v-5.2c-2.4,1.1-5,1.6-7.5,1.5
			c-4.7,0-8.5-2.6-9.1-6.7l-0.1-0.4h5.5c5.2,0,8.8-0.5,11.1-1.6c2.3-1.1,3.3-2.9,3.3-5.6C582.4,220.3,576.6,215.8,570.2,215.8"/>
		<path id="Trazado_9" class="st3" d="M713.4,230.8l-0.2-0.2l0.2-0.2c3.9-4.9,8.1-9.5,12.5-13.9h-4c-2.5,0-4.2,0.3-6,1.9
			c-3.5,3.5-6.7,7.3-9.6,11.3l-0.6,0.8l0-22.5h-7.2l0,39l7.2,0v-15.8l0.6,0.8c3.3,4.6,7,9.1,10.9,13.2c1.3,1.3,3.1,2,4.9,2
			c2,0,3.1-0.5,3.9-1.5C724,243.4,715.8,233.8,713.4,230.8"/>
		<path id="Trazado_10" class="st3" d="M461.6,239.9l-29.8,5.4v-30l29.8-5.4V239.9z M426.3,199.6c-4.1,0-7.5,3.4-7.4,7.5
			c0,0,0,0,0,0v48.3h48.4c4.1,0,7.5-3.4,7.5-7.5v0l0-48.3H426.3z"/>
	</g>
	<g id="Grupo_5">
		<path id="Trazado_11" class="st3" d="M232.5,201.7l-0.1,2.6c-0.6-0.2-1.2-0.3-1.9-0.3c-1.5-0.1-2.9,0.5-3.9,1.6
			c-0.9,1.1-1.3,2.5-1.3,3.9v10.2h-2.9V207c0-1.7-0.1-3.3-0.3-5h2.7l0.3,3.3c0.4-1.1,1.2-2.1,2.2-2.8c1-0.6,2.2-1,3.4-1
			C231.5,201.5,232,201.6,232.5,201.7z"/>
		<path id="Trazado_12" class="st3" d="M250,210.8H237c-0.1,1.8,0.4,3.7,1.6,5.1c1.2,1.2,2.8,1.8,4.5,1.7c2.1,0,4.1-0.7,5.7-2.1
			l1,2.1c-0.9,0.8-1.9,1.4-3,1.7c-1.2,0.4-2.5,0.6-3.7,0.6c-2.4,0.1-4.8-0.8-6.6-2.5c-1.7-1.8-2.5-4.3-2.4-6.7
			c0-1.7,0.3-3.3,1.1-4.8c0.7-1.4,1.7-2.5,3-3.3c1.3-0.8,2.8-1.2,4.4-1.2c2.1-0.1,4.2,0.7,5.6,2.3c1.4,1.8,2.2,4.1,2,6.4L250,210.8
			L250,210.8z M238.8,205.1c-1,1-1.6,2.4-1.8,3.8h10.4c0-1.4-0.6-2.8-1.5-3.8c-0.9-0.9-2.2-1.4-3.5-1.3
			C241.1,203.7,239.8,204.2,238.8,205.1L238.8,205.1z"/>
		<path id="Trazado_13" class="st3" d="M253.3,217.7l1-2.1c0.9,0.7,1.9,1.3,2.9,1.6c1.1,0.3,2.2,0.5,3.3,0.5
			c1.1,0.1,2.1-0.2,3.1-0.7c0.7-0.4,1.1-1.2,1.1-2c0-0.6-0.2-1.3-0.7-1.7c-0.7-0.5-1.5-0.9-2.3-1l-3-0.7c-1.3-0.2-2.5-0.8-3.5-1.8
			c-0.8-0.8-1.2-1.9-1.2-3c0-1.5,0.7-2.9,1.9-3.8c1.4-1,3.2-1.6,5-1.5c1.2,0,2.4,0.2,3.6,0.6c1.1,0.4,2,1,2.8,1.7l-1,2.1
			c-1.5-1.3-3.4-2.1-5.4-2.1c-1-0.1-2.1,0.2-3,0.7c-0.7,0.4-1.1,1.2-1.1,2c0,0.6,0.2,1.3,0.7,1.7c0.6,0.5,1.3,0.8,2.1,1l3,0.7
			c1.4,0.2,2.6,0.8,3.7,1.7c0.8,0.8,1.2,1.9,1.2,3.1c0,1.5-0.7,2.8-1.9,3.7c-1.5,1-3.3,1.5-5.1,1.4
			C257.8,220.2,255.3,219.4,253.3,217.7z"/>
		<path id="Trazado_14" class="st3" d="M285,202.7c1.2,0.8,2.2,1.9,2.8,3.3c0.7,1.5,1,3.2,1,4.9c0,1.7-0.3,3.3-1,4.8
			c-0.6,1.3-1.6,2.4-2.8,3.2c-1.3,0.8-2.7,1.2-4.2,1.1c-1.3,0-2.5-0.3-3.6-0.9c-1-0.6-1.9-1.5-2.4-2.6v11h-2.9V207
			c0-1.7-0.1-3.3-0.3-5h2.7l0.3,3.4c0.5-1.2,1.3-2.2,2.4-2.9c1.1-0.7,2.5-1,3.8-1C282.3,201.5,283.7,201.9,285,202.7z M284.4,215.9
			c1-1.5,1.5-3.2,1.4-5c0.1-1.8-0.4-3.6-1.4-5.1c-2-2.3-5.5-2.5-7.7-0.4c-0.1,0.1-0.3,0.3-0.4,0.4c-1.9,3.1-1.9,7,0,10.1
			c2.1,2.2,5.6,2.4,7.8,0.3C284.1,216.1,284.3,216,284.4,215.9z"/>
		<path id="Trazado_15" class="st3" d="M308.9,202v17.8h-2.8v-3.2c-0.5,1.1-1.3,2-2.4,2.6c-1.1,0.6-2.4,0.9-3.7,0.9
			c-1.5,0-2.9-0.4-4.2-1.1c-1.2-0.8-2.2-1.9-2.8-3.2c-1.3-3.1-1.3-6.6,0-9.7c0.6-1.3,1.6-2.5,2.8-3.3c1.2-0.8,2.7-1.2,4.1-1.2
			c1.3,0,2.5,0.3,3.6,0.9c1,0.6,1.9,1.5,2.4,2.6v-3.1L308.9,202L308.9,202z M304.6,215.9c1.9-3.1,1.9-7,0-10.1c-1-1.2-2.5-1.9-4-1.8
			c-1.6-0.1-3.1,0.6-4.1,1.8c-1.1,1.5-1.6,3.3-1.5,5.1c-0.1,1.8,0.4,3.6,1.4,5c1,1.2,2.5,1.9,4.1,1.8
			C302.1,217.7,303.6,217.1,304.6,215.9z"/>
		<path id="Trazado_16" class="st3" d="M314.5,193.7h2.9v26.1h-2.9V193.7z"/>
		<path id="Trazado_17" class="st3" d="M338.6,193.7v26.1h-2.8v-3.2c-0.5,1.1-1.3,2-2.4,2.6c-1.1,0.6-2.4,0.9-3.7,0.9
			c-1.5,0-2.9-0.4-4.1-1.2c-1.2-0.8-2.2-1.9-2.8-3.3c-1.3-3.1-1.3-6.6,0-9.7c0.6-1.3,1.6-2.4,2.8-3.2c1.2-0.8,2.7-1.2,4.2-1.1
			c1.3,0,2.5,0.3,3.6,0.9c1,0.6,1.8,1.5,2.3,2.5v-11.3L338.6,193.7L338.6,193.7z M334.3,215.9c1.9-3.1,1.9-7,0-10.1
			c-1-1.2-2.5-1.9-4-1.8c-1.6-0.1-3.1,0.6-4.1,1.8c-1.1,1.4-1.6,3.2-1.5,5c-0.1,1.8,0.4,3.6,1.5,5.1c2,2.3,5.5,2.5,7.7,0.5
			C334.1,216.2,334.2,216,334.3,215.9L334.3,215.9z"/>
		<path id="Trazado_18" class="st3" d="M359.8,202v17.8H357v-3.2c-0.5,1.1-1.3,2-2.4,2.6c-1.1,0.6-2.4,0.9-3.7,0.9
			c-1.5,0-2.9-0.4-4.2-1.1c-1.2-0.8-2.2-1.9-2.8-3.2c-1.3-3.1-1.3-6.6,0-9.7c0.6-1.3,1.6-2.5,2.8-3.3c1.2-0.8,2.7-1.2,4.1-1.2
			c1.3,0,2.5,0.3,3.6,0.9c1,0.6,1.9,1.5,2.4,2.6v-3.1L359.8,202L359.8,202z M355.6,215.9c1.9-3.1,1.9-7,0-10.1c-1-1.2-2.5-1.9-4-1.8
			c-1.6-0.1-3.1,0.6-4.1,1.8c-1.1,1.5-1.6,3.3-1.5,5.1c-0.1,1.8,0.4,3.6,1.4,5c1,1.2,2.5,1.9,4.1,1.8
			C353.1,217.7,354.6,217.1,355.6,215.9z"/>
		<path id="Trazado_19" class="st3" d="M381.1,193.7v26.1h-2.8v-3.2c-0.5,1.1-1.3,2-2.4,2.6c-1.1,0.6-2.4,0.9-3.7,0.9
			c-1.5,0-2.9-0.4-4.1-1.2c-1.2-0.8-2.2-1.9-2.8-3.3c-1.3-3.1-1.3-6.6,0-9.7c0.6-1.3,1.6-2.4,2.8-3.2c1.2-0.8,2.7-1.2,4.2-1.1
			c1.3,0,2.5,0.3,3.6,0.9c1,0.6,1.8,1.5,2.3,2.5v-11.3L381.1,193.7L381.1,193.7z M376.8,215.9c1.9-3.1,1.9-7,0-10.1
			c-1-1.2-2.5-1.9-4-1.8c-1.6-0.1-3.1,0.6-4.1,1.8c-1.1,1.4-1.6,3.2-1.5,5c-0.1,1.8,0.4,3.6,1.5,5.1c1,1.2,2.5,1.9,4.1,1.8
			C374.4,217.7,375.8,217.1,376.8,215.9z"/>
		<path id="Trazado_20" class="st3" d="M389.6,218.9c-1.3-0.8-2.3-1.9-3-3.2c-0.7-1.5-1.1-3.2-1.1-4.9c0-1.7,0.3-3.4,1.1-4.9
			c0.6-1.3,1.7-2.5,3-3.2c2.8-1.5,6.1-1.5,8.8,0c1.3,0.8,2.3,1.9,3,3.2c1.4,3.1,1.4,6.7,0,9.8c-0.6,1.3-1.7,2.5-3,3.2
			C395.7,220.4,392.3,220.4,389.6,218.9z M398.1,215.9c1-1.5,1.5-3.3,1.4-5.1c0.1-1.8-0.4-3.6-1.4-5.1c-2-2.2-5.5-2.4-7.8-0.4
			c-0.1,0.1-0.2,0.2-0.4,0.4c-1.1,1.5-1.6,3.3-1.4,5.1c-0.1,1.8,0.4,3.6,1.4,5.1c2.1,2.3,5.7,2.3,8,0.2C398,216,398,216,398.1,215.9
			z"/>
		<path id="Trazado_21" class="st3" d="M364.1,230.4c1.2,0.8,2.2,1.9,2.8,3.3c0.7,1.5,1,3.2,1,4.9c0,1.7-0.3,3.3-1,4.8
			c-0.6,1.3-1.6,2.4-2.8,3.2c-1.3,0.8-2.7,1.2-4.2,1.1c-1.3,0-2.5-0.3-3.6-0.9c-1-0.6-1.9-1.5-2.4-2.6v11H351v-20.5
			c0-1.7-0.1-3.3-0.3-5h2.7l0.3,3.4c0.5-1.2,1.3-2.2,2.4-2.9c1.1-0.7,2.5-1,3.8-1C361.4,229.2,362.8,229.6,364.1,230.4z
			 M363.4,243.6c1-1.5,1.5-3.2,1.4-5c0.1-1.8-0.4-3.6-1.4-5.1c-2-2.3-5.5-2.5-7.7-0.4c-0.1,0.1-0.3,0.3-0.4,0.4
			c-1.9,3.1-1.9,7,0,10.1c2.1,2.2,5.6,2.4,7.8,0.3C363.2,243.8,363.3,243.7,363.4,243.6z"/>
		<path id="Trazado_22" class="st3" d="M375.2,246.6c-1.3-0.8-2.3-1.9-3-3.2c-0.7-1.5-1.1-3.2-1.1-4.9c0-1.7,0.3-3.4,1.1-4.9
			c0.6-1.3,1.7-2.5,3-3.2c2.8-1.5,6.1-1.5,8.8,0c1.3,0.8,2.3,1.9,3,3.2c1.4,3.1,1.4,6.7,0,9.8c-0.6,1.3-1.7,2.5-3,3.2
			C381.3,248.1,378,248.1,375.2,246.6z M383.7,243.6c1-1.5,1.5-3.3,1.4-5.1c0.1-1.8-0.4-3.6-1.4-5.1c-2-2.2-5.5-2.4-7.8-0.4
			c-0.1,0.1-0.2,0.2-0.4,0.4c-1.1,1.5-1.6,3.3-1.4,5.1c-0.1,1.8,0.4,3.6,1.4,5.1c2.1,2.3,5.7,2.3,8,0.2
			C383.6,243.7,383.7,243.7,383.7,243.6z"/>
		<path id="Trazado_23" class="st3" d="M402.5,229.4l-0.1,2.6c-0.6-0.2-1.2-0.3-1.9-0.3c-1.5-0.1-2.9,0.5-3.9,1.6
			c-0.9,1.1-1.3,2.5-1.3,3.9v10.2h-2.9v-12.8c0-1.7-0.1-3.3-0.3-5h2.7l0.3,3.3c0.4-1.1,1.2-2.1,2.2-2.8c1-0.6,2.2-1,3.4-1
			C401.4,229.2,401.9,229.3,402.5,229.4z"/>
	</g>
</g>
</svg>
