<svg width="327" height="45" viewBox="0 0 327 45" fill="none" xmlns="http://www.w3.org/2000/svg">
<path d="M302.246 30.2229C302.264 30.4566 302.233 30.6915 302.156 30.9129C302.08 31.1343 301.958 31.3375 301.8 31.5101C301.428 31.8245 300.948 31.9812 300.463 31.9472H300.459C299.965 31.9743 299.474 31.8455 299.056 31.579C298.89 31.4618 298.756 31.3053 298.665 31.1233C298.574 30.9413 298.529 30.7396 298.535 30.5361C298.52 30.3191 298.567 30.1024 298.671 29.9115C298.775 29.7206 298.931 29.5635 299.121 29.4588C299.543 29.2213 300.198 29.1078 301.204 29.1043H302.25V30.2229H302.246ZM300.154 23.15C298.692 23.15 297.732 23.5424 297.063 24.0724V25.7658C297.906 25.364 298.83 25.1615 299.763 25.1738C300.552 25.1738 301.238 25.2839 301.643 25.6074C302.047 25.931 302.233 26.4541 302.229 27.2079V27.4522H301.204C297.351 27.466 296.082 28.8359 296.075 30.6359C296.075 32.491 297.722 33.8574 300.185 33.8609H300.713C303.008 33.854 304.583 32.3706 304.589 30.2091V27.793C304.589 24.1103 302.463 23.1672 300.154 23.15ZM290.463 31.8096H290.459C290.093 31.8336 289.726 31.7732 289.386 31.633C289.047 31.4928 288.744 31.2765 288.5 31.0007C288.034 30.4225 287.811 29.5173 287.811 28.2955C287.814 26.6228 288.816 25.2495 290.199 25.2495C290.998 25.2495 291.66 25.4698 292.102 26.0377C292.548 26.5987 292.771 27.4763 292.771 28.7636C292.768 30.4914 291.825 31.8096 290.463 31.8096ZM290.693 23.15C290.147 23.1577 289.613 23.3042 289.14 23.5757C288.666 23.8472 288.269 24.2348 287.986 24.7022L287.79 24.9879L287.797 20.5136H285.413V28.6741C285.413 32.1434 287.492 33.8609 290.195 33.8609C293.272 33.8609 295.214 31.4275 295.217 28.3196C295.217 25.2701 293.255 23.15 290.693 23.15ZM310.723 23.15C307.498 23.1534 306.092 25.3665 306.085 27.5383L306.099 33.6785H308.486V27.7138C308.454 27.0636 308.65 26.4225 309.042 25.9034C309.222 25.6916 309.447 25.5229 309.701 25.4097C309.954 25.2965 310.23 25.2418 310.507 25.2495C310.812 25.2297 311.119 25.2774 311.404 25.3892C311.689 25.501 311.946 25.6742 312.157 25.8966C312.545 26.3405 312.744 27.0083 312.744 27.9066L312.751 33.6785H315.148V27.676C315.142 24.7504 313.155 23.1534 310.723 23.15ZM265.077 20.5101H262.686L262.693 30.013C262.707 32.4257 263.918 33.8471 266.528 33.8574C267.64 33.8574 268.305 33.4961 268.58 32.9144V31.4172C268.024 31.6243 267.433 31.718 266.84 31.6926C266.603 31.7099 266.364 31.6772 266.139 31.5966C265.915 31.516 265.71 31.3893 265.537 31.2245C265.193 30.7935 265.027 30.2464 265.074 29.6963V25.2495H267.17C268.192 25.2495 268.621 24.5921 268.624 24.1103V23.1466H265.074V20.5101H265.077ZM256.412 23.15C253.187 23.1534 251.781 25.3665 251.774 27.5383V33.6785H254.175V27.7138C254.142 27.0636 254.339 26.4225 254.731 25.9034C254.911 25.6916 255.136 25.5229 255.389 25.4097C255.643 25.2965 255.918 25.2418 256.196 25.2495C256.501 25.2297 256.807 25.2774 257.092 25.3892C257.377 25.501 257.635 25.6742 257.846 25.8966C258.233 26.344 258.429 27.0083 258.429 27.9066L258.432 33.6785H260.83V27.676C260.827 24.7504 258.841 23.1534 256.412 23.15ZM247.479 33.6785H249.894V20.5101H247.479V33.6785ZM279.303 27.1425V33.6785H281.722V27.6106C281.722 26.7983 281.883 26.2132 282.216 25.8208C282.398 25.6273 282.621 25.4769 282.869 25.3804C283.116 25.284 283.382 25.244 283.646 25.2633C283.867 25.2623 284.087 25.2807 284.305 25.3183V23.3944C283.922 23.2151 283.503 23.129 283.08 23.1431C280.37 23.1466 279.314 25.074 279.303 27.1425ZM275.125 27.6828C274.648 27.8515 273.88 27.9169 272.635 27.9169H271.348L271.355 27.8033L271.372 27.4522C271.377 26.836 271.622 26.2461 272.055 25.8088C272.487 25.3714 273.074 25.1212 273.688 25.1118C274.224 25.0849 274.756 25.2308 275.204 25.5283C275.396 25.6765 275.549 25.8691 275.651 26.0897C275.752 26.3102 275.799 26.5522 275.787 26.7949C275.799 26.9974 275.739 27.1977 275.618 27.3601C275.497 27.5226 275.322 27.6369 275.125 27.6828ZM273.924 23.15C270.974 23.1534 268.882 25.2839 268.875 28.7464C268.865 29.4179 268.989 30.0847 269.24 30.7074C269.491 31.3301 269.863 31.8962 270.335 32.3724C270.808 32.8486 271.37 33.2253 271.989 33.4803C272.608 33.7354 273.272 33.8636 273.942 33.8574C275.465 33.8574 276.415 33.62 276.964 33.1691V31.4172C276.168 31.7755 275.301 31.9496 274.429 31.9266C272.851 31.93 271.578 31.0627 271.372 29.6757L271.355 29.5518H273.197C274.93 29.5518 276.154 29.3934 276.923 29.0114C277.691 28.6293 278.024 28.0477 278.027 27.1081C278.031 24.6644 276.062 23.15 273.924 23.15Z" fill="white"/>
<path d="M322.006 28.2129L321.951 28.1441L322.006 28.0787C323.318 26.4421 324.715 24.8762 326.191 23.3875H324.864C324.027 23.3909 323.45 23.4804 322.846 24.038C321.678 25.2191 320.605 26.4908 319.636 27.8412L319.443 28.0959L319.454 20.5101H317.022L317.025 33.6578L319.443 33.6647V28.3299L319.639 28.588C320.763 30.1528 321.986 31.6438 323.299 33.0521C323.743 33.478 324.329 33.7234 324.943 33.7404C325.608 33.737 325.985 33.5718 326.25 33.2517C325.581 32.4532 322.822 29.2145 322.006 28.2129Z" fill="white"/>
<path d="M237.452 31.2624L227.459 33.0728V22.9574L237.452 21.147V31.2624ZM225.586 17.688C225.256 17.6887 224.93 17.7546 224.626 17.8818C224.322 18.0091 224.046 18.1951 223.814 18.4294C223.582 18.6637 223.398 18.9416 223.273 19.2473C223.148 19.553 223.084 19.8804 223.085 20.2108V36.4905H239.325C239.654 36.4898 239.981 36.4241 240.285 36.2969C240.589 36.1698 240.865 35.9837 241.098 35.7495C241.33 35.5152 241.514 35.2373 241.64 34.9315C241.765 34.6258 241.83 34.2983 241.829 33.9677L241.832 17.688H225.586Z" fill="white"/>
<path d="M229.555 10.4475H228.685L227.805 8.07754C227.698 7.78421 227.548 7.58754 227.355 7.48754C227.168 7.38754 226.902 7.33754 226.555 7.33754H224.775V10.4475H223.965V3.32754H226.795C227.562 3.32754 228.148 3.49754 228.555 3.83754C228.968 4.17754 229.175 4.66754 229.175 5.30754C229.175 5.77421 229.052 6.16754 228.805 6.48754C228.565 6.80087 228.215 7.02421 227.755 7.15754C227.962 7.19087 228.138 7.28087 228.285 7.42754C228.432 7.56754 228.555 7.77087 228.655 8.03754L229.555 10.4475ZM226.725 6.65754C227.818 6.65754 228.365 6.21087 228.365 5.31754C228.365 4.87754 228.232 4.55087 227.965 4.33754C227.698 4.11754 227.285 4.00754 226.725 4.00754H224.775V6.65754H226.725ZM230.898 3.32754H235.398V4.00754H231.708V6.48754H235.198V7.17754H231.708V9.76754H235.398V10.4475H230.898V3.32754ZM238.94 10.5275C237.826 10.5275 236.94 10.2275 236.28 9.62754L236.59 8.99754C236.943 9.29754 237.303 9.51087 237.67 9.63754C238.036 9.76421 238.463 9.82754 238.95 9.82754C239.523 9.82754 239.963 9.71754 240.27 9.49754C240.583 9.27087 240.74 8.95421 240.74 8.54754C240.74 8.30754 240.663 8.11421 240.51 7.96754C240.363 7.81421 240.166 7.69421 239.92 7.60754C239.68 7.52087 239.356 7.43087 238.95 7.33754C238.403 7.21754 237.953 7.08754 237.6 6.94754C237.246 6.80754 236.96 6.60754 236.74 6.34754C236.52 6.08087 236.41 5.73421 236.41 5.30754C236.41 4.90087 236.516 4.54421 236.73 4.23754C236.943 3.92421 237.243 3.68087 237.63 3.50754C238.023 3.33421 238.48 3.24754 239 3.24754C239.493 3.24754 239.953 3.32421 240.38 3.47754C240.806 3.63087 241.166 3.85421 241.46 4.14754L241.14 4.77754C240.806 4.49087 240.466 4.28087 240.12 4.14754C239.78 4.01421 239.406 3.94754 239 3.94754C238.446 3.94754 238.013 4.06754 237.7 4.30754C237.386 4.54087 237.23 4.86421 237.23 5.27754C237.23 5.63754 237.366 5.90754 237.64 6.08754C237.913 6.26754 238.333 6.42421 238.9 6.55754C239.513 6.70421 239.993 6.84087 240.34 6.96754C240.693 7.08754 240.986 7.27421 241.22 7.52754C241.453 7.77421 241.57 8.10421 241.57 8.51754C241.57 8.91754 241.463 9.27087 241.25 9.57754C241.036 9.87754 240.73 10.1109 240.33 10.2775C239.936 10.4442 239.473 10.5275 238.94 10.5275ZM242.91 3.32754H245.75C246.484 3.32754 247.054 3.50421 247.46 3.85754C247.874 4.21087 248.08 4.69754 248.08 5.31754C248.08 5.93754 247.874 6.42754 247.46 6.78754C247.047 7.14087 246.477 7.31754 245.75 7.31754H243.73V10.4475H242.91V3.32754ZM245.68 6.63754C246.207 6.63754 246.604 6.52421 246.87 6.29754C247.137 6.07087 247.27 5.74421 247.27 5.31754C247.27 4.89087 247.137 4.56754 246.87 4.34754C246.604 4.12087 246.207 4.00754 245.68 4.00754H243.73V6.63754H245.68ZM253.322 8.61754H249.602L248.812 10.4475H247.962L251.092 3.32754H251.812L254.942 10.4475H254.102L253.322 8.61754ZM253.032 7.93754L251.462 4.27754L249.892 7.93754H253.032ZM256.006 3.32754H256.826V9.74754H260.396V10.4475H256.006V3.32754ZM261.455 3.32754H263.845C264.985 3.32754 265.865 3.63754 266.485 4.25754C267.112 4.87087 267.425 5.74421 267.425 6.87754C267.425 8.01754 267.112 8.89754 266.485 9.51754C265.865 10.1375 264.985 10.4475 263.845 10.4475H261.455V3.32754ZM263.795 9.74754C264.715 9.74754 265.405 9.50754 265.865 9.02754C266.332 8.54754 266.565 7.83087 266.565 6.87754C266.565 4.97754 265.642 4.02754 263.795 4.02754H262.275V9.74754H263.795ZM273.42 8.61754H269.7L268.91 10.4475H268.06L271.19 3.32754H271.91L275.04 10.4475H274.2L273.42 8.61754ZM273.13 7.93754L271.56 4.27754L269.99 7.93754H273.13ZM276.104 3.32754H278.494C279.634 3.32754 280.514 3.63754 281.134 4.25754C281.76 4.87087 282.074 5.74421 282.074 6.87754C282.074 8.01754 281.76 8.89754 281.134 9.51754C280.514 10.1375 279.634 10.4475 278.494 10.4475H276.104V3.32754ZM278.444 9.74754C279.364 9.74754 280.054 9.50754 280.514 9.02754C280.98 8.54754 281.214 7.83087 281.214 6.87754C281.214 4.97754 280.29 4.02754 278.444 4.02754H276.924V9.74754H278.444ZM286.545 10.5275C285.885 10.5275 285.311 10.3809 284.825 10.0875C284.338 9.79421 283.961 9.37421 283.695 8.82754C283.435 8.27421 283.305 7.62754 283.305 6.88754C283.305 6.14087 283.435 5.49421 283.695 4.94754C283.955 4.40087 284.328 3.98087 284.815 3.68754C285.301 3.39421 285.878 3.24754 286.545 3.24754C287.211 3.24754 287.788 3.39421 288.275 3.68754C288.761 3.98087 289.135 4.40087 289.395 4.94754C289.655 5.49421 289.785 6.13754 289.785 6.87754C289.785 7.62421 289.651 8.27087 289.385 8.81754C289.125 9.36421 288.751 9.78754 288.265 10.0875C287.778 10.3809 287.205 10.5275 286.545 10.5275ZM286.545 9.82754C287.298 9.82754 287.885 9.57087 288.305 9.05754C288.725 8.54421 288.935 7.81754 288.935 6.87754C288.935 5.93754 288.725 5.21421 288.305 4.70754C287.891 4.20087 287.305 3.94754 286.545 3.94754C285.785 3.94754 285.195 4.20421 284.775 4.71754C284.355 5.22421 284.145 5.94421 284.145 6.87754C284.145 7.81754 284.355 8.54421 284.775 9.05754C285.195 9.57087 285.785 9.82754 286.545 9.82754ZM293.897 3.32754H296.737C297.47 3.32754 298.04 3.50421 298.447 3.85754C298.86 4.21087 299.067 4.69754 299.067 5.31754C299.067 5.93754 298.86 6.42754 298.447 6.78754C298.033 7.14087 297.463 7.31754 296.737 7.31754H294.717V10.4475H293.897V3.32754ZM296.667 6.63754C297.193 6.63754 297.59 6.52421 297.857 6.29754C298.123 6.07087 298.257 5.74421 298.257 5.31754C298.257 4.89087 298.123 4.56754 297.857 4.34754C297.59 4.12087 297.193 4.00754 296.667 4.00754H294.717V6.63754H296.667ZM303.322 10.5275C302.662 10.5275 302.089 10.3809 301.602 10.0875C301.115 9.79421 300.739 9.37421 300.472 8.82754C300.212 8.27421 300.082 7.62754 300.082 6.88754C300.082 6.14087 300.212 5.49421 300.472 4.94754C300.732 4.40087 301.105 3.98087 301.592 3.68754C302.079 3.39421 302.655 3.24754 303.322 3.24754C303.989 3.24754 304.565 3.39421 305.052 3.68754C305.539 3.98087 305.912 4.40087 306.172 4.94754C306.432 5.49421 306.562 6.13754 306.562 6.87754C306.562 7.62421 306.429 8.27087 306.162 8.81754C305.902 9.36421 305.529 9.78754 305.042 10.0875C304.555 10.3809 303.982 10.5275 303.322 10.5275ZM303.322 9.82754C304.075 9.82754 304.662 9.57087 305.082 9.05754C305.502 8.54421 305.712 7.81754 305.712 6.87754C305.712 5.93754 305.502 5.21421 305.082 4.70754C304.669 4.20087 304.082 3.94754 303.322 3.94754C302.562 3.94754 301.972 4.20421 301.552 4.71754C301.132 5.22421 300.922 5.94421 300.922 6.87754C300.922 7.81754 301.132 8.54421 301.552 9.05754C301.972 9.57087 302.562 9.82754 303.322 9.82754ZM313.656 10.4475H312.786L311.906 8.07754C311.8 7.78421 311.65 7.58754 311.456 7.48754C311.27 7.38754 311.003 7.33754 310.656 7.33754H308.876V10.4475H308.066V3.32754H310.896C311.663 3.32754 312.25 3.49754 312.656 3.83754C313.07 4.17754 313.276 4.66754 313.276 5.30754C313.276 5.77421 313.153 6.16754 312.906 6.48754C312.666 6.80087 312.316 7.02421 311.856 7.15754C312.063 7.19087 312.24 7.28087 312.386 7.42754C312.533 7.56754 312.656 7.77087 312.756 8.03754L313.656 10.4475ZM310.826 6.65754C311.92 6.65754 312.466 6.21087 312.466 5.31754C312.466 4.87754 312.333 4.55087 312.066 4.33754C311.8 4.11754 311.386 4.00754 310.826 4.00754H308.876V6.65754H310.826ZM315.79 5.52754V6.56754H314.76V5.52754H315.79ZM315.79 9.41754V10.4475H314.76V9.41754H315.79Z" fill="white"/>
<path d="M9.3961 4.69785C9.3961 7.28507 7.28548 9.37868 4.69825 9.37868C2.11103 9.37868 0.0174255 7.26805 0.0174255 4.68083C0.0174255 2.09361 2.12805 0 4.71528 0C7.3025 0 9.3961 2.11063 9.3961 4.69785Z" fill="#FFC800"/>
<path d="M29.8553 4.73194C29.8553 7.31916 27.7447 9.41277 25.1575 9.41277C22.5703 9.41277 20.4767 7.30214 20.4767 4.71492C20.4767 2.1277 22.5873 0.0340881 25.1745 0.0340881C27.7617 0.0340881 29.8724 2.12769 29.8553 4.73194Z" fill="#7561E5"/>
<path d="M25.1573 14.8425C22.7913 14.8425 20.8339 16.5957 20.5105 18.8595C20.4764 19.0808 20.4594 19.3021 20.4594 19.5233C20.4594 23.8467 18.0594 27.3361 14.8935 29.1063C13.3105 29.9914 11.5063 30.485 9.56585 30.485C6.94458 30.485 4.52757 29.5658 2.65524 28.0339C5.34459 31.9148 9.82117 34.4679 14.8935 34.4679C19.9828 34.4679 24.4934 31.9148 27.1998 28.0169C28.8679 25.6169 29.8381 22.6893 29.8381 19.5403C29.8381 16.9531 27.7445 14.8425 25.1573 14.8425Z" fill="#7561E5"/>
<path d="M4.69785 14.8084C7.0638 14.8084 9.02123 16.5616 9.32761 18.8424C9.36166 19.0637 9.37868 19.285 9.37868 19.5063C9.37868 23.8296 11.7446 27.319 14.9276 29.1062C16.5106 29.9913 18.3148 30.502 20.2552 30.502C22.8765 30.502 25.2935 29.5998 27.1828 28.0679C24.4765 31.9488 19.9999 34.4849 14.9106 34.4679C9.80421 34.4679 5.31061 31.8977 2.63829 27.9828C0.970208 25.5658 0 22.6382 0 19.4892C0 16.902 2.11063 14.8084 4.69785 14.8084Z" fill="#FFC800"/>
<path d="M12.8169 34.3147C12.885 34.3317 12.9531 34.3317 13.0211 34.3487C13.1063 34.3657 13.1914 34.3657 13.2765 34.3828C13.3445 34.3828 13.4126 34.3998 13.4807 34.3998C13.5658 34.4168 13.668 34.4168 13.7531 34.4168C13.8211 34.4168 13.8722 34.4338 13.9403 34.4338C14.0424 34.4338 14.1445 34.4508 14.2467 34.4508C14.2977 34.4508 14.3488 34.4508 14.4169 34.4508C14.5701 34.4508 14.7403 34.4508 14.8935 34.4508C15.0467 34.4508 15.2169 34.4508 15.3701 34.4508C15.4211 34.4508 15.4722 34.4508 15.5403 34.4508C15.6424 34.4508 15.7445 34.4508 15.8467 34.4338C15.9147 34.4338 15.9658 34.4168 16.0339 34.4168C16.119 34.4168 16.2211 34.3998 16.3062 34.3998C16.3743 34.3998 16.4424 34.3828 16.5105 34.3828C16.5956 34.3657 16.6807 34.3657 16.7658 34.3487C16.8339 34.3317 16.902 34.3317 16.9701 34.3147C17.0552 34.2976 17.1403 34.2976 17.2254 34.2806C17.2935 34.2636 17.3615 34.2636 17.4296 34.2466C17.5147 34.2296 17.5998 34.2125 17.6679 34.2125C17.736 34.1955 17.8041 34.1785 17.8722 34.1615C17.9573 34.1445 18.0254 34.1274 18.1105 34.1104C18.1786 34.0934 18.2467 34.0764 18.3147 34.0593C18.3998 34.0423 18.4679 34.0253 18.553 34.0083C18.6211 33.9913 18.6892 33.9742 18.7573 33.9572C18.8254 33.9402 18.9105 33.9232 18.9786 33.8891C19.0466 33.8721 19.1147 33.8381 19.1998 33.8211C19.2679 33.804 19.353 33.77 19.4211 33.753C19.4892 33.7359 19.5573 33.7019 19.6254 33.6849C19.6935 33.6679 19.7786 33.6338 19.8466 33.6168C19.9147 33.5998 19.9828 33.5657 20.0509 33.5317C20.119 33.4976 20.1871 33.4806 20.2722 33.4466C20.3403 33.4125 20.4083 33.3955 20.4764 33.3615C20.5445 33.3274 20.6126 33.3104 20.6807 33.2764C20.7488 33.2423 20.8169 33.2083 20.8849 33.1913C20.953 33.1572 21.0211 33.1402 21.0892 33.1062C21.1573 33.0721 21.2254 33.0381 21.2934 33.004C21.3615 32.97 21.4296 32.9359 21.4977 32.9019C21.5658 32.8679 21.6339 32.8338 21.702 32.7998C21.77 32.7657 21.8381 32.7317 21.9062 32.6977C21.9743 32.6636 22.0424 32.6296 22.0934 32.5955C22.1615 32.5615 22.2296 32.5274 22.2977 32.4934C22.3658 32.4594 22.4168 32.4253 22.4849 32.3742C22.553 32.3402 22.6211 32.3062 22.6722 32.2551C22.7402 32.2211 22.7913 32.17 22.8594 32.136C22.9275 32.1019 22.9785 32.0508 23.0466 32.0168C23.1147 31.9828 23.1658 31.9317 23.2339 31.8977C23.3019 31.8636 23.353 31.8125 23.4211 31.7785C23.4892 31.7445 23.5402 31.6934 23.6083 31.6423C23.6764 31.5913 23.7275 31.5572 23.7956 31.5062C23.8466 31.4551 23.9147 31.4211 23.9658 31.37C24.0168 31.3189 24.0849 31.2849 24.136 31.2338C24.187 31.1828 24.2551 31.1487 24.3062 31.0977C24.3573 31.0466 24.4253 31.0126 24.4764 30.9615C24.5275 30.9104 24.5956 30.8594 24.6466 30.8253C24.6977 30.7743 24.7658 30.7232 24.8168 30.6721C24.8679 30.6211 24.919 30.57 24.987 30.5189C25.0381 30.4679 25.0892 30.4168 25.1573 30.3657C25.2083 30.3147 25.2594 30.2636 25.3104 30.2126C25.3615 30.1615 25.4126 30.1104 25.4636 30.0594C25.5147 30.0083 25.5658 29.9572 25.6168 29.9062C25.6679 29.8551 25.719 29.804 25.77 29.753C25.8211 29.7019 25.8721 29.6509 25.9232 29.5828C25.9743 29.5317 26.0253 29.4806 26.0764 29.4126C26.1275 29.3615 26.1785 29.2934 26.2126 29.2423C26.2636 29.1913 26.3147 29.1232 26.3658 29.0721C26.4168 29.0211 26.4509 28.953 26.5019 28.9019C26.553 28.8509 26.6041 28.7828 26.6381 28.7317C26.6892 28.6807 26.7232 28.6126 26.7743 28.5615C26.8253 28.5104 26.8594 28.4424 26.9104 28.3913C26.9615 28.3402 26.9955 28.2721 27.0296 28.2211C27.0636 28.17 27.0977 28.1189 27.1487 28.0679C25.2594 29.5998 22.8594 30.5019 20.2381 30.5019C18.2977 30.5019 16.4935 29.9913 14.9105 29.1062C14.9105 29.1062 14.9105 29.1062 14.8935 29.1062C14.8935 29.1062 14.8935 29.1062 14.8765 29.1062C13.2935 29.9913 11.4892 30.4849 9.54882 30.4849C6.92756 30.4849 4.52757 29.5658 2.63821 28.0338C2.67226 28.0849 2.7063 28.136 2.75736 28.187C2.79141 28.2381 2.84247 28.3062 2.87651 28.3572C2.92757 28.4253 2.96162 28.4764 3.01268 28.5445C3.06374 28.5955 3.09779 28.6636 3.14885 28.7147C3.19991 28.7658 3.23396 28.8338 3.28502 28.8849C3.33608 28.936 3.37013 29.0041 3.42119 29.0551C3.47225 29.1062 3.52332 29.1743 3.57438 29.2253C3.62544 29.2764 3.67651 29.3445 3.71055 29.3955C3.76161 29.4466 3.81268 29.4977 3.86374 29.5658C3.9148 29.6168 3.96587 29.6679 4.01693 29.736C4.06799 29.787 4.11906 29.8381 4.17012 29.8892C4.22119 29.9402 4.27225 29.9913 4.32331 30.0423C4.37438 30.0934 4.42544 30.1445 4.4765 30.1955C4.52757 30.2466 4.57863 30.2977 4.62969 30.3487C4.68076 30.3998 4.73182 30.4509 4.79991 30.5019C4.85097 30.553 4.90203 30.604 4.9531 30.6551C5.00416 30.7062 5.07225 30.7572 5.12331 30.8083C5.17437 30.8594 5.22544 30.9104 5.29352 30.9445C5.34458 30.9955 5.41267 31.0466 5.46373 31.0806C5.5148 31.1317 5.58288 31.1828 5.63394 31.2168C5.68501 31.2679 5.75309 31.3019 5.80416 31.353C5.85522 31.404 5.9233 31.4381 5.97437 31.4891C6.02543 31.5402 6.09352 31.5743 6.1616 31.6253C6.22969 31.6764 6.28075 31.7104 6.34883 31.7615C6.41692 31.7955 6.46798 31.8466 6.53607 31.8806C6.60415 31.9147 6.65522 31.9657 6.7233 31.9998C6.79139 32.0338 6.84245 32.0849 6.91053 32.1189C6.97862 32.153 7.02968 32.204 7.09777 32.2381C7.16585 32.2721 7.23394 32.3232 7.285 32.3572C7.35309 32.3913 7.40415 32.4253 7.47223 32.4764C7.54032 32.5104 7.6084 32.5445 7.65947 32.5785C7.72755 32.6125 7.79564 32.6466 7.8467 32.6806C7.91478 32.7147 7.98287 32.7487 8.05095 32.7828C8.11904 32.8168 8.18712 32.8508 8.25521 32.8849C8.32329 32.9189 8.39138 32.953 8.45946 32.987C8.52755 33.0211 8.59563 33.0551 8.66372 33.0891C8.7318 33.1232 8.79989 33.1572 8.86797 33.1742C8.93606 33.2083 9.00414 33.2423 9.07223 33.2594C9.14031 33.2934 9.2084 33.3104 9.27648 33.3445C9.34457 33.3785 9.41265 33.3955 9.48074 33.4296C9.54882 33.4636 9.6169 33.4806 9.70201 33.5147C9.7701 33.5487 9.83818 33.5657 9.90627 33.5998C9.97435 33.6338 10.0595 33.6508 10.1275 33.6679C10.1956 33.6849 10.2637 33.7189 10.3318 33.7359C10.3999 33.753 10.485 33.787 10.5531 33.804C10.6212 33.8211 10.6892 33.8551 10.7743 33.8721C10.8424 33.8891 10.9275 33.9062 10.9956 33.9402C11.0637 33.9572 11.1318 33.9742 11.1999 33.9913C11.285 34.0083 11.3531 34.0253 11.4382 34.0423C11.5063 34.0593 11.5743 34.0764 11.6424 34.0934C11.7275 34.1104 11.7956 34.1274 11.8807 34.1445C11.9488 34.1615 12.0169 34.1785 12.085 34.1955C12.1701 34.2125 12.2552 34.2296 12.3233 34.2466" fill="white"/>
<path d="M93.1914 0H87.4467V34.468H93.1914V0Z" fill="white"/>
<path d="M81.0638 10.532H75.3191V34.4681H81.0638V10.532Z" fill="white"/>
<path d="M138.085 10.532V13.6444C136.066 11.8103 133.424 10.7172 130.536 10.7172C124.195 10.7172 119.042 16.0343 119.042 22.5927C119.042 29.151 124.176 34.4681 130.536 34.4681C133.424 34.4681 136.066 33.3565 138.085 31.5409V34.4125H143.936V10.532H138.085ZM130.517 28.6508C127.101 28.6508 124.327 25.9274 124.327 22.5742C124.327 19.2209 127.101 16.4975 130.517 16.4975C133.933 16.4975 136.708 19.2209 136.708 22.5742C136.708 25.9274 133.952 28.6508 130.517 28.6508Z" fill="white"/>
<path d="M82.3403 4.14893C82.3403 6.43084 80.4922 8.29786 78.1914 8.29786C75.8906 8.29786 74.0425 6.4497 74.0425 4.14893C74.0425 1.86702 75.8906 0 78.1914 0C80.4922 0 82.3403 1.86702 82.3403 4.14893Z" fill="white"/>
<path d="M113.09 26.1969C111.959 27.6719 110.167 28.6241 108.15 28.6241C107.81 28.6241 107.471 28.5868 107.151 28.5494L110.488 24.2364L113.787 19.9608L114.033 19.6434L117.596 15.0317C116.371 13.5193 114.787 12.3057 112.958 11.5215C111.487 10.8867 109.866 10.532 108.15 10.532C106.434 10.532 104.794 10.8867 103.323 11.5215C101.437 12.3431 99.8159 13.6127 98.5715 15.1997C97.0065 17.2162 96.0638 19.7554 96.0638 22.5001C96.0638 25.3194 97.0442 27.9146 98.7035 29.9684C99.9291 31.4808 101.513 32.6944 103.342 33.4786C104.812 34.1134 106.434 34.4681 108.15 34.4681C112.072 34.4681 115.56 32.6197 117.766 29.7444L113.09 26.1969ZM101.965 22.4814C101.965 21.0624 102.456 19.7741 103.248 18.7285C104.379 17.2722 106.151 16.3386 108.15 16.3386C108.489 16.3386 108.829 16.376 109.149 16.4133L105.85 20.689L102.512 25.002C102.173 24.2551 101.965 23.3963 101.965 22.4814Z" fill="white"/>
<path d="M65.2092 13.426V10.532H59.3616V34.4681H65.2092V31.5741V23.1162C65.2092 22.9482 65.2092 22.7801 65.2281 22.6121C65.4733 19.382 67.9633 16.7867 71.1701 16.376V10.588C68.9065 10.9241 66.8503 11.9323 65.2092 13.426Z" fill="white"/>
<path d="M53.3245 0C49.3736 0 43.8236 2.72166 43.8236 10.2672V10.3611H40.851V16.1798H43.8236V34.468H49.6558V19.5397V16.1611H55.4881V10.3423H49.6558V9.59152C49.6558 7.63943 51.5372 5.87504 53.5126 5.87504H58.4042V0.938505V0H53.3245Z" fill="white"/>
<path d="M201.494 26.1969C200.363 27.6719 198.571 28.6241 196.554 28.6241C196.215 28.6241 195.875 28.5868 195.555 28.5494L198.892 24.2364L202.192 19.9608L202.437 19.6434L206 15.0317C204.775 13.5193 203.191 12.3057 201.362 11.5215C199.891 10.8867 198.27 10.532 196.554 10.532C194.838 10.532 193.198 10.8867 191.727 11.5215C189.842 12.3431 188.22 13.6127 186.976 15.1997C185.411 17.2162 184.468 19.7554 184.468 22.5001C184.468 25.3194 185.448 27.9146 187.108 29.9684C188.333 31.4808 189.917 32.6944 191.746 33.4786C193.217 34.1134 194.838 34.4681 196.554 34.4681C200.476 34.4681 203.964 32.6197 206.17 29.7444L201.494 26.1969ZM190.37 22.5001C190.37 21.0811 190.86 19.7928 191.652 18.7472C192.783 17.2909 194.555 16.3573 196.554 16.3573C196.893 16.3573 197.233 16.3947 197.553 16.432L194.254 20.7076L190.916 25.0206C190.577 24.2738 190.37 23.4149 190.37 22.5001Z" fill="white"/>
<path d="M155.425 29.0426C155.425 31.3245 153.577 33.1915 151.276 33.1915C148.995 33.1915 147.128 31.3434 147.128 29.0426C147.128 26.7607 148.976 24.8937 151.276 24.8937C153.577 24.8937 155.425 26.7418 155.425 29.0426Z" fill="white"/>
<path d="M164.317 34.2662V31.3936C166.28 33.2199 168.866 34.3233 171.679 34.3233C177.851 34.3233 182.872 28.9966 182.872 22.4334C182.872 15.8702 177.87 10.5436 171.679 10.5436C168.866 10.5436 166.28 11.647 164.317 13.4732V10.3724H158.617V45H164.317V34.2662ZM171.679 28.521C168.338 28.521 165.639 25.8006 165.639 22.4334C165.639 19.0662 168.338 16.3458 171.679 16.3458C175.02 16.3458 177.719 19.0662 177.719 22.4334C177.719 25.8006 175.02 28.521 171.679 28.521Z" fill="white"/>
</svg>
