<svg width="456" height="65" viewBox="0 0 456 65" fill="none" xmlns="http://www.w3.org/2000/svg">
<g clip-path="url(#clip0)">
<path d="M424.96 41.7873C424.982 42.0896 424.943 42.3932 424.844 42.6795C424.744 42.9658 424.588 43.2287 424.383 43.4519C423.902 43.8584 423.281 44.0611 422.653 44.0172H422.649C422.009 44.0522 421.375 43.8857 420.834 43.5409C420.62 43.3894 420.446 43.187 420.328 42.9517C420.211 42.7164 420.153 42.4555 420.16 42.1923C420.141 41.9117 420.202 41.6314 420.337 41.3846C420.471 41.1377 420.673 40.9346 420.919 40.7992C421.464 40.4921 422.312 40.3452 423.612 40.3408H424.965V41.7873H424.96ZM422.254 32.6409C420.364 32.6409 419.122 33.1483 418.257 33.8337V36.0235C419.347 35.504 420.542 35.2421 421.748 35.258C422.769 35.258 423.656 35.4004 424.179 35.8188C424.703 36.2371 424.942 36.9137 424.938 37.8884V38.2044H423.612C418.63 38.2222 416.988 39.9936 416.979 42.3214C416.979 44.7204 419.109 46.4874 422.294 46.4918H422.977C425.945 46.4829 427.981 44.5646 427.99 41.7695V38.645C427.99 33.8827 425.24 32.6631 422.254 32.6409ZM409.722 43.8391H409.717C409.244 43.8702 408.769 43.7921 408.33 43.6108C407.891 43.4295 407.499 43.1498 407.184 42.7932C406.581 42.0455 406.293 40.8749 406.293 39.2949C406.297 37.1318 407.593 35.3559 409.38 35.3559C410.414 35.3559 411.27 35.6407 411.842 36.3751C412.419 37.1006 412.707 38.2356 412.707 39.9002C412.703 42.1345 411.483 43.8391 409.722 43.8391ZM410.019 32.6409C409.314 32.6509 408.623 32.8403 408.011 33.1914C407.399 33.5425 406.885 34.0437 406.519 34.6482L406.266 35.0176L406.275 29.2316H403.192V39.7844C403.192 44.2709 405.88 46.4918 409.376 46.4918C413.355 46.4918 415.866 43.3451 415.87 39.326C415.87 35.3826 413.333 32.6409 410.019 32.6409ZM435.922 32.6409C431.752 32.6453 429.933 35.5072 429.924 38.3157L429.942 46.2559H433.029V38.5427C432.987 37.7018 433.242 36.8728 433.748 36.2015C433.981 35.9276 434.272 35.7094 434.6 35.5631C434.927 35.4167 435.284 35.3459 435.642 35.3559C436.037 35.3303 436.433 35.3919 436.802 35.5365C437.171 35.6811 437.503 35.9051 437.776 36.1926C438.277 36.7668 438.535 37.6303 438.535 38.7919L438.544 46.2559H441.645V38.4937C441.636 34.7105 439.067 32.6453 435.922 32.6409ZM376.894 29.2271H373.802L373.811 41.5158C373.829 44.6358 375.395 46.474 378.771 46.4874C380.208 46.4874 381.069 46.02 381.424 45.2678V43.3317C380.705 43.5996 379.94 43.7207 379.174 43.6878C378.867 43.7103 378.558 43.668 378.268 43.5638C377.978 43.4595 377.712 43.2956 377.489 43.0825C377.044 42.5252 376.83 41.8177 376.89 41.1063V35.3559H379.6C380.922 35.3559 381.477 34.5058 381.481 33.8827V32.6364H376.89V29.2271H376.894ZM365.689 32.6409C361.519 32.6453 359.7 35.5072 359.691 38.3157V46.2559H362.796V38.5427C362.754 37.7018 363.008 36.8728 363.515 36.2015C363.748 35.9276 364.038 35.7094 364.366 35.5631C364.694 35.4167 365.05 35.3459 365.409 35.3559C365.804 35.3303 366.2 35.3919 366.569 35.5365C366.937 35.6811 367.27 35.9051 367.543 36.1926C368.044 36.7712 368.297 37.6303 368.297 38.7919L368.301 46.2559H371.402V38.4937C371.398 34.7105 368.829 32.6453 365.689 32.6409ZM354.137 46.2559H357.26V29.2271H354.137V46.2559ZM395.291 37.8038V46.2559H398.419V38.4091C398.419 37.3588 398.627 36.6021 399.057 36.0947C399.293 35.8444 399.581 35.6499 399.901 35.5252C400.221 35.4005 400.565 35.3487 400.907 35.3737C401.193 35.3724 401.478 35.3963 401.759 35.4449V32.9569C401.264 32.725 400.721 32.6137 400.175 32.632C396.671 32.6364 395.304 35.1289 395.291 37.8038ZM389.888 38.5026C389.271 38.7207 388.277 38.8053 386.667 38.8053H385.004L385.012 38.6584L385.035 38.2044C385.041 37.4075 385.358 36.6447 385.917 36.0791C386.477 35.5135 387.235 35.19 388.029 35.1778C388.723 35.143 389.41 35.3317 389.99 35.7164C390.238 35.9081 390.436 36.1572 390.567 36.4424C390.699 36.7276 390.759 37.0405 390.744 37.3543C390.759 37.6163 390.682 37.8752 390.525 38.0853C390.368 38.2954 390.143 38.4432 389.888 38.5026ZM388.335 32.6409C384.52 32.6453 381.814 35.4004 381.805 39.8779C381.793 40.7464 381.953 41.6086 382.278 42.4138C382.602 43.2191 383.084 43.9511 383.694 44.567C384.304 45.1828 385.031 45.6699 385.832 45.9997C386.633 46.3295 387.492 46.4953 388.357 46.4874C390.327 46.4874 391.556 46.1803 392.266 45.5972V43.3317C391.236 43.7951 390.115 44.0202 388.987 43.9905C386.947 43.9949 385.301 42.8733 385.035 41.0796L385.012 40.9194H387.395C389.635 40.9194 391.219 40.7147 392.212 40.2206C393.206 39.7266 393.636 38.9744 393.641 37.7593C393.645 34.5992 391.099 32.6409 388.335 32.6409Z" fill="black"/>
<path d="M450.512 39.188L450.441 39.099L450.512 39.0145C452.209 36.8981 454.015 34.8731 455.925 32.948H454.208C453.125 32.9524 452.38 33.0682 451.599 33.7892C450.089 35.3166 448.7 36.961 447.447 38.7073L447.199 39.0367L447.212 29.2271H444.067L444.071 46.2292L447.199 46.2381V39.3394L447.451 39.6732C448.905 41.6966 450.486 43.6248 452.185 45.4459C452.759 45.9967 453.516 46.314 454.31 46.336C455.17 46.3316 455.658 46.118 456 45.704C455.135 44.6714 451.568 40.4832 450.512 39.188Z" fill="black"/>
<path d="M341.17 43.1315L328.247 45.4726V32.3917L341.17 30.0506V43.1315ZM325.825 25.5775C325.399 25.5785 324.978 25.6637 324.585 25.8282C324.192 25.9927 323.835 26.2334 323.534 26.5364C323.234 26.8393 322.996 27.1987 322.834 27.594C322.672 27.9893 322.59 28.4127 322.591 28.84V49.8923H343.592C344.018 49.8914 344.44 49.8064 344.833 49.6419C345.227 49.4775 345.584 49.2369 345.885 48.934C346.185 48.631 346.424 48.2716 346.586 47.8763C346.748 47.481 346.831 47.0574 346.83 46.6299L346.835 25.5775H325.825Z" fill="black"/>
<path d="M323.841 12.6473H324.885V8.64041H327.513L330.322 12.6473H331.558L328.66 8.53733C330.025 8.27965 330.76 7.33912 330.76 6.10225C330.76 4.64636 329.703 3.62852 327.886 3.62852H323.841V12.6473ZM324.885 7.69987V4.58194H327.822C329.02 4.58194 329.703 5.14883 329.703 6.1409C329.703 7.14586 329.02 7.69987 327.822 7.69987H324.885ZM333.315 12.6473H339.731V11.6939H334.359V8.29254H338.598V7.33912H334.359V4.58194H339.538V3.62852H333.315V12.6473ZM344.262 12.8019C346.079 12.8019 347.638 11.8872 347.638 10.1865C347.638 8.47291 346.105 7.93178 344.649 7.49373C343.36 7.10721 342.149 6.90106 342.149 5.85745C342.149 5.12306 342.755 4.4531 344.262 4.4531C345.331 4.4531 346.324 4.82673 347.058 5.29056V4.22118C346.336 3.77024 345.37 3.47391 344.236 3.47391C342.214 3.47391 341.08 4.49175 341.08 5.83169C341.08 7.48084 342.433 7.9189 344.082 8.38272C345.538 8.79501 346.568 9.10423 346.568 10.1994C346.568 11.2301 345.525 11.8228 344.198 11.8228C342.845 11.8228 341.531 11.243 340.912 10.689V11.8485C341.647 12.3768 342.871 12.8019 344.262 12.8019ZM349.647 12.6473H350.69V8.71771H353.448C355.303 8.71771 356.359 7.66122 356.359 6.15379C356.359 4.67212 355.303 3.62852 353.448 3.62852H349.647V12.6473ZM350.69 7.76429V4.58194H353.37C354.607 4.58194 355.316 5.13595 355.316 6.17956C355.316 7.21028 354.607 7.76429 353.37 7.76429H350.69ZM356.408 12.6473H357.503L358.572 10.2123H363.21L364.306 12.6473H365.414L361.407 3.57698H360.415L356.408 12.6473ZM358.933 9.28461L360.904 4.89115L362.875 9.28461H358.933ZM367.023 12.6473H373.052V11.6939H368.066V3.62852H367.023V12.6473ZM374.723 12.6473H377.712C380.611 12.6473 382.608 10.8178 382.608 8.13793C382.608 5.45805 380.611 3.62852 377.712 3.62852H374.723V12.6473ZM375.766 11.6939V4.58194H377.596C380.057 4.58194 381.538 5.97341 381.538 8.13793C381.538 10.3024 380.057 11.6939 377.596 11.6939H375.766ZM383.22 12.6473H384.315L385.384 10.2123H390.023L391.118 12.6473H392.226L388.219 3.57698H387.227L383.22 12.6473ZM385.745 9.28461L387.717 4.89115L389.688 9.28461H385.745ZM393.835 12.6473H396.824C399.723 12.6473 401.72 10.8178 401.72 8.13793C401.72 5.45805 399.723 3.62852 396.824 3.62852H393.835V12.6473ZM394.879 11.6939V4.58194H396.708C399.169 4.58194 400.651 5.97341 400.651 8.13793C400.651 10.3024 399.169 11.6939 396.708 11.6939H394.879ZM408.037 3.47391C405.448 3.47391 403.489 5.48382 403.489 8.13793C403.489 10.792 405.448 12.8019 408.037 12.8019C410.64 12.8019 412.598 10.792 412.598 8.13793C412.598 5.48382 410.64 3.47391 408.037 3.47391ZM408.037 11.8228C406.092 11.8228 404.559 10.2509 404.559 8.13793C404.559 6.02495 406.092 4.4531 408.037 4.4531C409.996 4.4531 411.529 6.02495 411.529 8.13793C411.529 10.2509 409.996 11.8228 408.037 11.8228ZM418.118 12.6473H419.162V8.71771H421.919C423.774 8.71771 424.831 7.66122 424.831 6.15379C424.831 4.67212 423.774 3.62852 421.919 3.62852H418.118V12.6473ZM419.162 7.76429V4.58194H421.842C423.079 4.58194 423.787 5.13595 423.787 6.17956C423.787 7.21028 423.079 7.76429 421.842 7.76429H419.162ZM430.849 3.47391C428.259 3.47391 426.3 5.48382 426.3 8.13793C426.3 10.792 428.259 12.8019 430.849 12.8019C433.451 12.8019 435.409 10.792 435.409 8.13793C435.409 5.48382 433.451 3.47391 430.849 3.47391ZM430.849 11.8228C428.903 11.8228 427.37 10.2509 427.37 8.13793C427.37 6.02495 428.903 4.4531 430.849 4.4531C432.807 4.4531 434.34 6.02495 434.34 8.13793C434.34 10.2509 432.807 11.8228 430.849 11.8228ZM437.545 12.6473H438.589V8.64041H441.217L444.026 12.6473H445.263L442.364 8.53733C443.729 8.27965 444.464 7.33912 444.464 6.10225C444.464 4.64636 443.407 3.62852 441.591 3.62852H437.545V12.6473ZM438.589 7.69987V4.58194H441.526C442.724 4.58194 443.407 5.14883 443.407 6.1409C443.407 7.14586 442.724 7.69987 441.526 7.69987H438.589ZM446.594 7.2747C446.594 7.6741 446.903 7.98332 447.316 7.98332C447.715 7.98332 448.024 7.6741 448.024 7.2747C448.024 6.87529 447.715 6.55319 447.316 6.55319C446.903 6.55319 446.594 6.87529 446.594 7.2747ZM446.594 12.016C446.594 12.4154 446.903 12.7246 447.316 12.7246C447.715 12.7246 448.024 12.4154 448.024 12.016C448.024 11.6166 447.715 11.2945 447.316 11.2945C446.903 11.2945 446.594 11.6166 446.594 12.016Z" fill="black"/>
<path d="M13.5869 6.79331C13.5869 10.5346 10.5348 13.562 6.79354 13.562C3.05229 13.562 0.0248413 10.5099 0.0248413 6.7687C0.0248413 3.02745 3.07691 0 6.81815 0C10.5594 0 13.5869 3.05207 13.5869 6.79331Z" fill="#FFC800"/>
<path d="M43.1722 6.84257C43.1722 10.5838 40.1201 13.6113 36.3789 13.6113C32.6376 13.6113 29.6102 10.5592 29.6102 6.81795C29.6102 3.07671 32.6622 0.0492554 36.4035 0.0492554C40.1447 0.0492554 43.1968 3.07671 43.1722 6.84257Z" fill="#7561E5"/>
<path d="M36.3786 21.463C32.9573 21.463 30.1268 23.9981 29.6591 27.2717C29.6099 27.5917 29.5853 27.9117 29.5853 28.2317C29.5853 34.4835 26.1148 39.5292 21.5367 42.089C19.2476 43.3689 16.6386 44.0827 13.8327 44.0827C10.0422 44.0827 6.54708 42.7536 3.8396 40.5384C7.72852 46.1502 14.2019 49.8423 21.5367 49.8423C28.8961 49.8423 35.4187 46.1502 39.3322 40.5138C41.7443 37.0433 43.1473 32.8098 43.1473 28.2563C43.1473 24.515 40.1198 21.463 36.3786 21.463Z" fill="#7561E5"/>
<path d="M6.79331 21.4137C10.2146 21.4137 13.0451 23.9489 13.4882 27.2471C13.5374 27.5671 13.562 27.887 13.562 28.207C13.562 34.4588 16.9833 39.5046 21.586 42.089C23.875 43.3689 26.4841 44.1073 29.29 44.1073C33.0805 44.1073 36.5756 42.8028 39.3077 40.5876C35.3941 46.1994 28.9208 49.8668 21.5614 49.8422C14.1773 49.8422 7.6794 46.1256 3.81508 40.4645C1.40297 36.9694 0 32.7359 0 28.1824C0 24.4412 3.05207 21.4137 6.79331 21.4137Z" fill="#FFC800"/>
<path d="M18.5337 49.6206C18.6321 49.6452 18.7306 49.6452 18.8291 49.6699C18.9521 49.6945 19.0752 49.6945 19.1983 49.7191C19.2967 49.7191 19.3952 49.7437 19.4936 49.7437C19.6167 49.7683 19.7644 49.7683 19.8874 49.7683C19.9859 49.7683 20.0597 49.7929 20.1582 49.7929C20.3059 49.7929 20.4535 49.8175 20.6012 49.8175C20.6751 49.8175 20.7489 49.8175 20.8474 49.8175C21.0689 49.8175 21.315 49.8175 21.5365 49.8175C21.7581 49.8175 22.0042 49.8175 22.2257 49.8175C22.2995 49.8175 22.3734 49.8175 22.4718 49.8175C22.6195 49.8175 22.7672 49.8175 22.9149 49.7929C23.0133 49.7929 23.0872 49.7683 23.1856 49.7683C23.3087 49.7683 23.4564 49.7437 23.5794 49.7437C23.6779 49.7437 23.7764 49.7191 23.8748 49.7191C23.9979 49.6945 24.1209 49.6945 24.244 49.6699C24.3425 49.6452 24.4409 49.6452 24.5394 49.6206C24.6624 49.596 24.7855 49.596 24.9086 49.5714C25.007 49.5468 25.1055 49.5468 25.2039 49.5222C25.327 49.4976 25.4501 49.473 25.5485 49.473C25.647 49.4483 25.7454 49.4237 25.8439 49.3991C25.967 49.3745 26.0654 49.3499 26.1885 49.3253C26.2869 49.3007 26.3854 49.276 26.4838 49.2514C26.6069 49.2268 26.7054 49.2022 26.8284 49.1776C26.9269 49.153 27.0253 49.1284 27.1238 49.1037C27.2222 49.0791 27.3453 49.0545 27.4438 49.0053C27.5422 48.9807 27.6407 48.9315 27.7637 48.9068C27.8622 48.8822 27.9853 48.833 28.0837 48.8084C28.1822 48.7838 28.2806 48.7345 28.3791 48.7099C28.4775 48.6853 28.6006 48.6361 28.699 48.6115C28.7975 48.5869 28.896 48.5376 28.9944 48.4884C29.0929 48.4392 29.1913 48.4146 29.3144 48.3653C29.4128 48.3161 29.5113 48.2915 29.6097 48.2423C29.7082 48.1931 29.8066 48.1684 29.9051 48.1192C30.0036 48.07 30.102 48.0208 30.2005 47.9961C30.2989 47.9469 30.3974 47.9223 30.4958 47.8731C30.5943 47.8238 30.6927 47.7746 30.7912 47.7254C30.8896 47.6762 30.9881 47.6269 31.0865 47.5777C31.185 47.5285 31.2835 47.4793 31.3819 47.43C31.4804 47.3808 31.5788 47.3316 31.6773 47.2824C31.7757 47.2331 31.8742 47.1839 31.948 47.1347C32.0465 47.0854 32.1449 47.0362 32.2434 46.987C32.3418 46.9378 32.4157 46.8885 32.5141 46.8147C32.6126 46.7655 32.711 46.7162 32.7849 46.6424C32.8833 46.5932 32.9572 46.5193 33.0556 46.4701C33.1541 46.4209 33.2279 46.347 33.3264 46.2978C33.4248 46.2486 33.4987 46.1747 33.5971 46.1255C33.6956 46.0763 33.7694 46.0025 33.8679 45.9532C33.9663 45.904 34.0402 45.8302 34.1386 45.7563C34.2371 45.6825 34.3109 45.6333 34.4094 45.5594C34.4832 45.4856 34.5817 45.4363 34.6555 45.3625C34.7293 45.2887 34.8278 45.2394 34.9016 45.1656C34.9755 45.0918 35.0739 45.0425 35.1478 44.9687C35.2216 44.8948 35.3201 44.8456 35.3939 44.7718C35.4677 44.6979 35.5662 44.6241 35.64 44.5749C35.7139 44.501 35.8123 44.4272 35.8862 44.3534C35.96 44.2795 36.0339 44.2057 36.1323 44.1318C36.2061 44.058 36.28 43.9842 36.3784 43.9103C36.4523 43.8365 36.5261 43.7626 36.6 43.6888C36.6738 43.615 36.7476 43.5411 36.8215 43.4673C36.8953 43.3934 36.9692 43.3196 37.043 43.2457C37.1168 43.1719 37.1907 43.0981 37.2645 43.0242C37.3384 42.9504 37.4122 42.8765 37.486 42.7781C37.5599 42.7043 37.6337 42.6304 37.7076 42.532C37.7814 42.4581 37.8552 42.3597 37.9045 42.2858C37.9783 42.212 38.0522 42.1135 38.126 42.0397C38.1998 41.9659 38.2491 41.8674 38.3229 41.7936C38.3967 41.7197 38.4706 41.6213 38.5198 41.5474C38.5937 41.4736 38.6429 41.3751 38.7167 41.3013C38.7906 41.2274 38.8398 41.129 38.9136 41.0552C38.9875 40.9813 39.0367 40.8829 39.0859 40.809C39.1351 40.7352 39.1844 40.6613 39.2582 40.5875C36.5261 42.8027 33.0556 44.1072 29.2652 44.1072C26.4592 44.1072 23.8502 43.3688 21.5611 42.0889C21.5611 42.0889 21.5611 42.0889 21.5365 42.0889C21.5365 42.0889 21.5365 42.0889 21.5119 42.0889C19.2229 43.3688 16.6138 44.0826 13.8079 44.0826C10.0174 44.0826 6.54694 42.7535 3.81485 40.5383C3.86408 40.6121 3.9133 40.686 3.98714 40.7598C4.03637 40.8336 4.11021 40.9321 4.15944 41.0059C4.23328 41.1044 4.28251 41.1782 4.35635 41.2767C4.43019 41.3505 4.47941 41.449 4.55325 41.5228C4.62709 41.5966 4.67632 41.6951 4.75016 41.7689C4.824 41.8428 4.87323 41.9412 4.94707 42.0151C5.02091 42.0889 5.09475 42.1874 5.16859 42.2612C5.24243 42.3351 5.31627 42.4335 5.3655 42.5073C5.43934 42.5812 5.51318 42.655 5.58702 42.7535C5.66086 42.8273 5.7347 42.9012 5.80854 42.9996C5.88238 43.0735 5.95622 43.1473 6.03006 43.2211C6.1039 43.295 6.17774 43.3688 6.25158 43.4427C6.32542 43.5165 6.39926 43.5903 6.4731 43.6642C6.54694 43.738 6.62078 43.8119 6.69462 43.8857C6.76846 43.9595 6.8423 44.0334 6.94076 44.1072C7.0146 44.1811 7.08844 44.2549 7.16228 44.3287C7.23612 44.4026 7.33457 44.4764 7.40841 44.5503C7.48225 44.6241 7.55609 44.6979 7.65455 44.7472C7.72839 44.821 7.82684 44.8949 7.90068 44.9441C7.97452 45.0179 8.07298 45.0918 8.14682 45.141C8.22066 45.2148 8.31911 45.2641 8.39295 45.3379C8.46679 45.4117 8.56524 45.461 8.63908 45.5348C8.71293 45.6086 8.81138 45.6579 8.90983 45.7317C9.00829 45.8055 9.08213 45.8548 9.18058 45.9286C9.27903 45.9778 9.35288 46.0517 9.45133 46.1009C9.54978 46.1501 9.62362 46.224 9.72208 46.2732C9.82053 46.3224 9.89437 46.3963 9.99282 46.4455C10.0913 46.4947 10.1651 46.5686 10.2636 46.6178C10.362 46.667 10.4605 46.7409 10.5343 46.7901C10.6328 46.8393 10.7066 46.8885 10.8051 46.9624C10.9035 47.0116 11.002 47.0608 11.0758 47.1101C11.1743 47.1593 11.2727 47.2085 11.3466 47.2577C11.445 47.307 11.5435 47.3562 11.6419 47.4054C11.7404 47.4546 11.8388 47.5039 11.9373 47.5531C12.0357 47.6023 12.1342 47.6516 12.2326 47.7008C12.3311 47.75 12.4296 47.7992 12.528 47.8485C12.6265 47.8977 12.7249 47.9469 12.8234 47.9715C12.9218 48.0208 13.0203 48.07 13.1187 48.0946C13.2172 48.1438 13.3156 48.1684 13.4141 48.2177C13.5125 48.2669 13.611 48.2915 13.7095 48.3407C13.8079 48.39 13.9064 48.4146 14.0294 48.4638C14.1279 48.513 14.2263 48.5376 14.3248 48.5869C14.4232 48.6361 14.5463 48.6607 14.6448 48.6853C14.7432 48.7099 14.8417 48.7592 14.9401 48.7838C15.0386 48.8084 15.1616 48.8576 15.2601 48.8822C15.3586 48.9068 15.457 48.9561 15.5801 48.9807C15.6785 49.0053 15.8016 49.0299 15.9001 49.0791C15.9985 49.1037 16.097 49.1284 16.1954 49.153C16.3185 49.1776 16.4169 49.2022 16.54 49.2268C16.6385 49.2514 16.7369 49.276 16.8354 49.3007C16.9584 49.3253 17.0569 49.3499 17.18 49.3745C17.2784 49.3991 17.3769 49.4237 17.4753 49.4483C17.5984 49.4729 17.7214 49.4976 17.8199 49.5222" fill="#0C1937"/>
<path d="M134.759 0H126.452V49.8424H134.759V0Z" fill="#0C1937"/>
<path d="M117.222 15.2296H108.915V49.8424H117.222V15.2296Z" fill="#0C1937"/>
<path d="M199.678 15.2296V19.7303C196.758 17.0781 192.937 15.4975 188.761 15.4975C179.591 15.4975 172.141 23.1863 172.141 32.67C172.141 42.1536 179.564 49.8424 188.761 49.8424C192.937 49.8424 196.758 48.235 199.678 45.6096V49.762H208.138V15.2296H199.678ZM188.734 41.4303C183.794 41.4303 179.783 37.4922 179.783 32.6432C179.783 27.7942 183.794 23.856 188.734 23.856C193.674 23.856 197.686 27.7942 197.686 32.6432C197.686 37.4922 193.701 41.4303 188.734 41.4303Z" fill="#0C1937"/>
<path d="M119.068 5.99955C119.068 9.2993 116.395 11.9991 113.068 11.9991C109.741 11.9991 107.069 9.32657 107.069 5.99955C107.069 2.6998 109.741 0 113.068 0C116.395 0 119.068 2.6998 119.068 5.99955Z" fill="#0C1937"/>
<path d="M163.533 37.8818C161.897 40.0147 159.307 41.3917 156.39 41.3917C155.899 41.3917 155.408 41.3377 154.945 41.2837L159.771 35.0469L164.542 28.8641L164.896 28.4051L170.049 21.7364C168.277 19.5495 165.987 17.7945 163.342 16.6606C161.216 15.7426 158.871 15.2296 156.39 15.2296C153.908 15.2296 151.536 15.7426 149.41 16.6606C146.683 17.8485 144.338 19.6845 142.539 21.9794C140.276 24.8953 138.913 28.5671 138.913 32.536C138.913 36.6129 140.33 40.3657 142.73 43.3356C144.502 45.5225 146.792 47.2775 149.437 48.4114C151.564 49.3294 153.908 49.8424 156.39 49.8424C162.061 49.8424 167.105 47.1695 170.295 43.0116L163.533 37.8818ZM147.447 32.509C147.447 30.4571 148.156 28.5941 149.301 27.0822C150.937 24.9763 153.5 23.6263 156.39 23.6263C156.88 23.6263 157.371 23.6803 157.835 23.7343L153.063 29.9171L148.237 36.1539C147.747 35.0739 147.447 33.832 147.447 32.509Z" fill="#0C1937"/>
<path d="M94.2957 19.4145V15.2296H85.8397V49.8424H94.2957V45.6575V33.427C94.2957 33.184 94.2957 32.941 94.323 32.698C94.6776 28.0272 98.2782 24.2743 102.915 23.6803V15.3106C99.6421 15.7966 96.6688 17.2545 94.2957 19.4145Z" fill="#0C1937"/>
<path d="M77.1097 0C71.3966 0 63.3709 3.93565 63.3709 14.8469V14.9826H59.0725V23.3968H63.3709V49.8424H71.8046V28.2553V23.3696H80.2383V14.9555H71.8046V13.8698C71.8046 11.047 74.5252 8.49558 77.3818 8.49558H84.4552V1.35712V0H77.1097Z" fill="#0C1937"/>
<path d="M291.37 37.8818C289.734 40.0147 287.144 41.3917 284.226 41.3917C283.735 41.3917 283.245 41.3377 282.781 41.2837L287.607 35.0469L292.379 28.8641L292.733 28.4052L297.886 21.7364C296.114 19.5495 293.824 17.7945 291.179 16.6606C289.052 15.7426 286.707 15.2296 284.226 15.2296C281.745 15.2296 279.373 15.7426 277.246 16.6606C274.52 17.8485 272.175 19.6845 270.375 21.9794C268.112 24.8953 266.749 28.5671 266.749 32.536C266.749 36.6129 268.167 40.3657 270.566 43.3356C272.339 45.5226 274.629 47.2775 277.274 48.4114C279.4 49.3294 281.745 49.8424 284.226 49.8424C289.897 49.8424 294.941 47.1695 298.131 43.0116L291.37 37.8818ZM275.283 32.536C275.283 30.4841 275.992 28.6211 277.137 27.1092C278.773 25.0033 281.336 23.6533 284.226 23.6533C284.717 23.6533 285.208 23.7073 285.671 23.7613L280.9 29.9441L276.074 36.1809C275.583 35.1009 275.283 33.859 275.283 32.536Z" fill="#0C1937"/>
<path d="M224.752 41.9969C224.752 45.2966 222.08 47.9964 218.753 47.9964C215.453 47.9964 212.753 45.3239 212.753 41.9969C212.753 38.6971 215.426 35.9973 218.753 35.9973C222.08 35.9973 224.752 38.6698 224.752 41.9969Z" fill="#0C1937"/>
<path d="M237.611 49.5505V45.3966C240.449 48.0374 244.189 49.633 248.256 49.633C257.181 49.633 264.442 41.9304 264.442 32.4397C264.442 22.949 257.208 15.2464 248.256 15.2464C244.189 15.2464 240.449 16.842 237.611 19.4828V14.9988H229.367V65.072H237.611V49.5505ZM248.256 41.2427C243.424 41.2427 239.521 37.3088 239.521 32.4397C239.521 27.5706 243.424 23.6367 248.256 23.6367C253.087 23.6367 256.99 27.5706 256.99 32.4397C256.99 37.3088 253.087 41.2427 248.256 41.2427Z" fill="#0C1937"/>
</g>
<defs>
<clipPath id="clip0">
<rect width="456" height="65" fill="white"/>
</clipPath>
</defs>
</svg>
