<svg width="97" height="24" viewBox="0 0 97 24" fill="none" xmlns="http://www.w3.org/2000/svg">
<path d="M62.7253 0H58.8151V23.2028H62.7253V0Z" fill="#0C1937"/>
<path d="M54.5326 6.95276H50.6223V23.2027H54.5326V6.95276Z" fill="#0C1937"/>
<path d="M92.9112 6.95276V9.06575C91.5605 7.82336 89.7921 7.07044 87.8577 7.07044C83.6141 7.07044 80.1737 10.6906 80.1737 15.156C80.1737 19.6213 83.6141 23.2415 87.8577 23.2415C89.7934 23.2415 91.5605 22.4886 92.9112 21.2462V23.2027H96.8215V6.95276H92.9112ZM87.8564 19.2964C85.5672 19.2964 83.7118 17.4428 83.7118 15.156C83.7118 12.8691 85.5672 11.0156 87.8564 11.0156C90.1455 11.0156 92.0009 12.8691 92.0009 15.156C92.0023 17.4428 90.1455 19.2964 87.8564 19.2964Z" fill="#0C1937"/>
<path d="M52.5781 5.54727C54.1115 5.54727 55.3545 4.30547 55.3545 2.77363C55.3545 1.2418 54.1115 0 52.5781 0C51.0447 0 49.8017 1.2418 49.8017 2.77363C49.8017 4.30547 51.0447 5.54727 52.5781 5.54727Z" fill="#0C1937"/>
<path d="M76.1121 17.5819C75.3558 18.5783 74.1577 19.2215 72.8096 19.2215C72.582 19.2215 72.3598 19.2028 72.1416 19.1667L74.3732 16.2526L76.582 13.368L76.748 13.15L79.1335 10.0354C78.3129 9.01096 77.25 8.18984 76.0291 7.66025C75.0425 7.23231 73.9528 6.99426 72.8083 6.99426C71.6583 6.99426 70.5646 7.23498 69.5727 7.66694C68.3116 8.21659 67.2193 9.07783 66.3906 10.153C65.3398 11.5171 64.7146 13.2262 64.7146 15.0798C64.7146 16.9882 65.3772 18.7414 66.483 20.1242C67.3036 21.1486 68.3665 21.9697 69.5874 22.4993C70.574 22.9273 71.6637 23.1653 72.8083 23.1653C75.4348 23.1653 77.7694 21.9149 79.2473 19.9784L76.1121 17.5819ZM68.665 15.0811C68.665 14.1276 68.9877 13.2516 69.5298 12.5509C70.2875 11.572 71.4749 10.9407 72.8096 10.9407C73.0372 10.9407 73.2594 10.9595 73.4776 10.9956L71.2688 13.8802L69.0372 16.7942C68.7989 16.2714 68.665 15.6923 68.665 15.0811Z" fill="#0C1937"/>
<path d="M43.8245 8.9481V6.99158H39.9155V23.1626H43.8258V21.2061V15.4917C43.8258 15.378 43.8312 15.2657 43.8392 15.1547C43.9972 12.9775 45.6719 11.2229 47.8137 10.9381V7.02903C46.2984 7.25102 44.9235 7.93841 43.8245 8.9481Z" fill="#0C1937"/>
<path d="M35.7884 0C33.1338 0 29.4176 1.82814 29.4176 6.89396V6.9528H27.427V10.8592H29.4176V23.2028H33.3279V13.1099V10.8592H37.2476V6.9528H33.3279V6.4513C33.3279 5.14339 34.5943 3.94915 35.9209 3.94915C37.1231 3.94915 39.2034 3.94915 39.2034 3.94915V0.631222V0H35.7884Z" fill="#0C1937"/>
<path d="M3.2271 6.4193C5.00153 6.4193 6.43998 4.98229 6.43998 3.20965C6.43998 1.43701 5.00153 0 3.2271 0C1.45268 0 0.0142212 1.43701 0.0142212 3.20965C0.0142212 4.98229 1.45268 6.4193 3.2271 6.4193Z" fill="#FFC800"/>
<path d="M17.2489 6.43914C19.0233 6.43914 20.4618 5.00213 20.4618 3.22949C20.4618 1.45685 19.0233 0.0198364 17.2489 0.0198364C15.4745 0.0198364 14.036 1.45685 14.036 3.22949C14.036 5.00213 15.4745 6.43914 17.2489 6.43914Z" fill="#7561E5"/>
<path d="M17.2394 10.1582C15.6188 10.1563 14.2773 11.3528 14.0549 12.9114C14.0341 13.0588 14.0218 13.21 14.0218 13.3631C14.018 16.3195 12.3823 18.7088 10.2063 19.9204C9.12492 20.5225 7.87988 20.8655 6.55443 20.8637C4.75593 20.8608 3.10786 20.2323 1.81647 19.1823C3.65943 21.8428 6.72945 23.5866 10.2082 23.5913C13.7011 23.596 16.7872 21.8466 18.6349 19.1728C19.774 17.5255 20.4428 15.5265 20.4457 13.3716C20.4504 11.6005 19.0133 10.161 17.2394 10.1582Z" fill="#7561E5"/>
<path d="M3.21762 10.1384C4.83825 10.1403 6.17601 11.3416 6.3936 12.9001C6.41442 13.0475 6.42577 13.1987 6.42482 13.3519C6.42104 16.3082 8.04924 18.7022 10.2214 19.9195C11.3009 20.5244 12.545 20.8713 13.8705 20.8732C15.669 20.876 17.3189 20.2513 18.6131 19.205C16.7626 21.8599 13.6879 23.5951 10.2091 23.5904C6.71622 23.5857 3.63484 21.8268 1.79472 19.1483C0.660372 17.4972 -0.00282916 15.4973 9.07294e-06 13.3415C0.00284731 11.5712 1.44278 10.1365 3.21762 10.1384Z" fill="#FFC800"/>
<path d="M8.77963 23.4892C8.82693 23.4958 8.87519 23.5034 8.92249 23.51C8.98115 23.5176 9.0398 23.5232 9.09751 23.5299C9.14482 23.5346 9.19212 23.5412 9.23943 23.5459C9.30281 23.5516 9.36715 23.5563 9.43053 23.5611C9.47311 23.5639 9.51663 23.5686 9.5592 23.5714C9.62921 23.5762 9.70017 23.579 9.77112 23.5818C9.80802 23.5837 9.84586 23.5856 9.88276 23.5875C9.99061 23.5913 10.0994 23.5932 10.2082 23.5932C10.317 23.5932 10.4258 23.5922 10.5337 23.5885C10.5706 23.5875 10.6084 23.5847 10.6453 23.5837C10.7163 23.5809 10.7863 23.5781 10.8572 23.5743C10.9007 23.5714 10.9433 23.5677 10.9859 23.5648C11.0502 23.5601 11.1136 23.5563 11.177 23.5497C11.2243 23.545 11.2716 23.5393 11.3189 23.5346C11.3776 23.528 11.4362 23.5223 11.4939 23.5157C11.5422 23.51 11.5895 23.5025 11.6368 23.4958C11.6936 23.4883 11.7513 23.4807 11.808 23.4722C11.8563 23.4647 11.9045 23.4561 11.9518 23.4476C12.0076 23.4382 12.0635 23.4297 12.1193 23.4193C12.1675 23.4098 12.2148 23.3994 12.2621 23.39C12.317 23.3786 12.3728 23.3682 12.4268 23.356C12.4741 23.3456 12.5214 23.3333 12.5687 23.3229C12.6226 23.3097 12.6775 23.2983 12.7314 23.2841C12.7797 23.2718 12.8279 23.2586 12.8762 23.2454C12.9282 23.2312 12.9802 23.218 13.0323 23.2029C13.0814 23.1887 13.1297 23.1736 13.1779 23.1584C13.2281 23.1433 13.2792 23.1282 13.3293 23.1121C13.3776 23.097 13.4249 23.08 13.4731 23.0639C13.5233 23.0469 13.5734 23.0308 13.6226 23.0138C13.6699 22.9968 13.7172 22.9789 13.7645 22.9609C13.8137 22.9429 13.8629 22.925 13.9121 22.9061C13.9594 22.8872 14.0067 22.8683 14.054 22.8484C14.1023 22.8295 14.1496 22.8106 14.1969 22.7898C14.2442 22.77 14.2905 22.7482 14.3378 22.7275C14.3842 22.7067 14.4315 22.6868 14.4779 22.6651C14.5242 22.6433 14.5696 22.6216 14.616 22.5989C14.6623 22.5772 14.7087 22.5554 14.7541 22.5328C14.7995 22.5101 14.844 22.4864 14.8894 22.4628C14.9348 22.4392 14.9802 22.4165 15.0256 22.3919C15.0701 22.3683 15.1136 22.3428 15.1581 22.3182C15.2026 22.2936 15.248 22.2691 15.2924 22.2435C15.336 22.219 15.3785 22.1925 15.422 22.167C15.4665 22.1405 15.511 22.115 15.5545 22.0876C15.5971 22.0611 15.6396 22.0337 15.6813 22.0073C15.7248 21.9799 15.7683 21.9524 15.8109 21.925C15.8535 21.8976 15.8951 21.8683 15.9367 21.84C15.9783 21.8116 16.0209 21.7833 16.0625 21.7549C16.1042 21.7256 16.1448 21.6954 16.1865 21.6661C16.2272 21.6368 16.2688 21.6075 16.3095 21.5772C16.3501 21.547 16.3899 21.5158 16.4296 21.4856C16.4703 21.4544 16.51 21.4241 16.5498 21.3929C16.5895 21.3617 16.6283 21.3296 16.6671 21.2975C16.7059 21.2653 16.7456 21.2342 16.7844 21.2011C16.8232 21.1689 16.861 21.1349 16.8989 21.1028C16.9377 21.0697 16.9765 21.0366 17.0143 21.0026C17.0521 20.9695 17.0881 20.9345 17.125 20.9015C17.1628 20.8674 17.2007 20.8334 17.2376 20.7984C17.2735 20.7644 17.3095 20.7285 17.3454 20.6935C17.3823 20.6576 17.4192 20.6227 17.4552 20.5867C17.4902 20.5518 17.5252 20.5149 17.5592 20.479C17.5952 20.4421 17.6302 20.4062 17.6652 20.3684C17.6993 20.3316 17.7333 20.2947 17.7674 20.2569C17.8014 20.2191 17.8364 20.1822 17.8696 20.1444C17.9027 20.1066 17.9348 20.0688 17.9679 20.031C18.0011 19.9923 18.0351 19.9545 18.0673 19.9148C18.0994 19.876 18.1307 19.8373 18.1619 19.7976C18.1941 19.7579 18.2262 19.7191 18.2574 19.6785C18.2887 19.6388 18.318 19.5991 18.3492 19.5594C18.3804 19.5187 18.4117 19.4781 18.4419 19.4375C18.4713 19.3978 18.4996 19.3571 18.529 19.3165C18.5545 19.2806 18.581 19.2447 18.6065 19.2078C17.3133 20.2531 15.6633 20.8769 13.8657 20.8741C12.5403 20.8722 11.2962 20.5253 10.2167 19.9204C10.2139 19.9185 10.212 19.9176 10.2092 19.9157C10.2063 19.9176 10.2044 19.9185 10.2016 19.9204C9.12022 20.5225 7.87518 20.8656 6.54973 20.8637C4.75218 20.8608 3.10411 20.2323 1.81366 19.1832C1.8392 19.2201 1.86475 19.256 1.89029 19.2919C1.91867 19.3326 1.948 19.3732 1.97733 19.4129C2.00761 19.4545 2.03883 19.4951 2.07005 19.5358C2.10032 19.5755 2.1306 19.6161 2.16087 19.6558C2.19209 19.6955 2.22426 19.7352 2.25642 19.7749C2.28764 19.8136 2.31886 19.8533 2.35103 19.8921C2.3832 19.9318 2.41726 19.9696 2.45037 20.0083C2.48254 20.0461 2.5147 20.0849 2.54782 20.1227C2.58093 20.1605 2.61593 20.1983 2.64999 20.2352C2.68405 20.272 2.71716 20.3098 2.75122 20.3467C2.78623 20.3835 2.82218 20.4204 2.85718 20.4573C2.89219 20.4932 2.92625 20.53 2.96125 20.565C2.9972 20.6009 3.0341 20.6368 3.07005 20.6727C3.106 20.7077 3.14101 20.7427 3.17696 20.7777C3.21385 20.8126 3.2517 20.8467 3.28859 20.8816C3.32549 20.9156 3.36144 20.9497 3.39929 20.9837C3.43713 21.0177 3.47592 21.0508 3.51376 21.0839C3.55161 21.117 3.58945 21.15 3.62824 21.1831C3.66703 21.2162 3.70676 21.2474 3.74555 21.2795C3.78434 21.3117 3.82313 21.3438 3.86286 21.375C3.9026 21.4062 3.94328 21.4374 3.98302 21.4676C4.02275 21.4988 4.06249 21.53 4.10317 21.5602C4.14385 21.5905 4.18453 21.6198 4.22616 21.6491C4.26684 21.6793 4.30752 21.7096 4.34915 21.7379C4.39078 21.7672 4.4324 21.7956 4.47498 21.8239C4.5166 21.8523 4.55823 21.8816 4.6008 21.909C4.64338 21.9373 4.6869 21.9647 4.73042 21.9921C4.77299 22.0196 4.81462 22.047 4.85719 22.0734C4.90071 22.1008 4.94518 22.1264 4.98964 22.1528C5.03222 22.1783 5.07574 22.2048 5.11831 22.2294C5.16278 22.2549 5.20724 22.2795 5.25171 22.304C5.29617 22.3286 5.33969 22.3541 5.3851 22.3778C5.42957 22.4014 5.47498 22.425 5.52039 22.4486C5.5658 22.4723 5.61027 22.4959 5.65663 22.5186C5.70204 22.5413 5.7484 22.563 5.79476 22.5857C5.84111 22.6074 5.88652 22.6301 5.93288 22.6518C5.97924 22.6736 6.02654 22.6934 6.0729 22.7142C6.12021 22.735 6.16656 22.7568 6.21387 22.7766C6.26117 22.7964 6.30942 22.8153 6.35673 22.8352C6.40403 22.8541 6.45133 22.8739 6.49864 22.8928C6.54783 22.9118 6.59703 22.9297 6.64623 22.9477C6.69353 22.9656 6.74083 22.9836 6.78814 23.0006C6.83733 23.0186 6.88748 23.0346 6.93762 23.0516C6.98587 23.0677 7.03317 23.0847 7.08142 23.0998C7.13156 23.1159 7.18265 23.131 7.23279 23.1461C7.28104 23.1613 7.32929 23.1764 7.37849 23.1906C7.43052 23.2057 7.48256 23.2189 7.53459 23.2331C7.58284 23.2463 7.63109 23.2605 7.67934 23.2728C7.73327 23.287 7.7872 23.2993 7.84207 23.3115C7.88937 23.3229 7.93668 23.3352 7.98398 23.3456C8.03885 23.3579 8.09372 23.3682 8.1486 23.3796C8.1959 23.389 8.24415 23.4004 8.29146 23.4089C8.34727 23.4193 8.40309 23.4287 8.45891 23.4382" fill="#0C1937"/>
</svg>
