<svg width="123" height="23" viewBox="0 0 123 23" fill="none" xmlns="http://www.w3.org/2000/svg">
<path d="M94.3823 14.996C94.3823 15.6586 94.2129 16.1814 93.8491 16.5365C93.4853 16.8887 92.9465 17.0593 92.255 17.0593H92.2495C91.5468 17.0593 90.9775 16.9083 90.5776 16.6203C90.1749 16.3352 89.9555 15.8963 89.9555 15.3707C89.95 14.8311 90.1471 14.3698 90.6554 14.0819C91.158 13.7967 91.9384 13.6597 93.1381 13.6569H94.3823V14.996ZM91.8829 6.53351C90.1416 6.53351 88.9974 7.00598 88.1976 7.63781V9.66188C89.0085 9.27328 90.0305 8.95178 91.4163 8.95178C92.3578 8.95178 93.1742 9.08317 93.6575 9.46898C94.1435 9.85478 94.3601 10.4838 94.3573 11.384V11.6748H93.1354C88.5447 11.6915 87.0312 13.3298 87.0201 15.4825C87.0229 17.7023 88.9835 19.3349 91.9217 19.3405H92.5522C95.2877 19.3349 97.1678 17.5597 97.1733 14.9709V12.0829C97.1733 7.67974 94.6378 6.55308 91.8829 6.53351ZM80.3327 16.8915H80.3271C79.394 16.8915 78.5442 16.6147 77.9916 15.9242C77.4361 15.2337 77.1695 14.149 77.1695 12.6896C77.1751 10.6879 78.3693 9.04683 80.0133 9.04403C80.9687 9.04403 81.7546 9.30962 82.2823 9.98618C82.8127 10.6599 83.0821 11.7083 83.0821 13.2459C83.0821 15.3175 81.9546 16.8887 80.3327 16.8915ZM80.6076 6.53072C78.9941 6.53072 77.986 7.49523 77.3806 8.38705L77.1501 8.72812L77.1584 3.37719H74.3146V13.1369C74.3146 17.2857 76.7946 19.3433 80.0161 19.3433C83.6819 19.3433 86.0009 16.433 86.0036 12.7176C85.9981 9.0692 83.6597 6.53351 80.6076 6.53072ZM104.486 6.53072C100.642 6.53631 98.9646 9.18102 98.9563 11.781L98.9729 19.1281H101.82V11.9935C101.82 11.0737 102.058 10.3384 102.483 9.82683C102.908 9.31801 103.522 9.04403 104.23 9.04403C105.055 9.04403 105.735 9.28446 106.196 9.81844C106.66 10.3496 106.896 11.1464 106.896 12.2227L106.902 19.1281H109.759V11.946C109.754 8.44855 107.388 6.5391 104.486 6.53072ZM50.0673 3.37439H47.218L47.2263 14.7416C47.2402 17.6268 48.6843 19.3266 51.8003 19.3433C53.1222 19.3405 53.9192 18.91 54.2469 18.2167V16.4246C53.7331 16.6539 53.0361 16.7545 52.1752 16.7545C51.5281 16.7545 50.9893 16.5896 50.62 16.1926C50.2506 15.7984 50.0673 15.2001 50.0673 14.367V9.04683H52.564C53.7831 9.04403 54.2941 8.26124 54.2969 7.68254V6.53072H50.0645V3.37439H50.0673ZM39.7335 6.53072C35.89 6.53631 34.2126 9.18102 34.2042 11.781V19.1281H37.0675V11.9935C37.0675 11.0737 37.3035 10.3384 37.7312 9.82683C38.1589 9.31801 38.7699 9.04403 39.478 9.04403C40.3056 9.04403 40.9833 9.28446 41.447 9.81564C41.908 10.3496 42.1441 11.1464 42.1441 12.2199L42.1469 19.1253H45.0073V11.9487C44.999 8.44855 42.6329 6.5391 39.7335 6.53072ZM29.0859 19.1281H31.9658V3.37439H29.0859V19.1281ZM67.0246 11.3085V19.1281H69.91V11.8677C69.9128 10.8948 70.1045 10.1931 70.4988 9.72898C70.8959 9.2621 71.4819 9.06081 72.204 9.06081C72.4983 9.06081 72.7566 9.08597 72.9899 9.12511V6.82426C72.6261 6.63975 72.1512 6.52233 71.5291 6.52233C68.2965 6.53072 67.0357 8.83436 67.0246 11.3085ZM62.0424 11.9571C61.4731 12.1584 60.5594 12.2367 59.0736 12.2367H57.5406L57.549 12.0997L57.5712 11.6804C57.6406 10.1847 58.7431 8.88188 60.3317 8.88188C61.0704 8.88188 61.6925 9.04403 62.1368 9.38231C62.5839 9.71779 62.8366 10.2406 62.8339 10.8948C62.8478 11.3728 62.6173 11.7614 62.0424 11.9571ZM60.6122 6.53072C57.0963 6.53631 54.6024 9.08597 54.5913 13.2236C54.5913 16.9922 57.5795 19.3377 60.6344 19.3405C62.4506 19.3405 63.5837 19.0554 64.2391 18.5158V16.419C63.3032 16.8831 62.1979 17.0313 61.2176 17.0313C59.3347 17.0369 57.8211 15.9997 57.5739 14.3391L57.5545 14.1909H59.7512C61.8174 14.1909 63.2754 14.0008 64.1919 13.5423C65.1056 13.081 65.5055 12.3877 65.511 11.2666C65.511 8.34232 63.1616 6.53351 60.6122 6.53072Z" fill="#05BE50"/>
<path d="M117.936 12.589L117.87 12.5079L117.936 12.4296C119.192 10.8389 121.908 7.74684 122.927 6.81588H121.344C120.347 6.81867 119.658 6.92491 118.939 7.59587C117.506 8.96016 116.323 10.5593 115.112 12.1444L114.882 12.4492L114.895 3.37439H111.996L111.999 19.1029L114.882 19.1113V12.7287L115.115 13.0391C116.49 14.8786 117.881 16.735 119.481 18.3788C119.986 18.8876 120.78 19.2063 121.441 19.2007C122.233 19.198 122.683 18.9967 122.999 18.6165C122.199 17.6603 118.911 13.7883 117.936 12.589Z" fill="#05BE50"/>
<path d="M17.1295 16.2345L5.21827 18.4012V6.30147L17.1295 4.13482V16.2345ZM2.98266 0C1.33581 0 0 1.35032 0 3.01934V22.4941H19.3623C21.0119 22.4941 22.3477 21.1437 22.3477 19.4747L22.3533 0H2.98266Z" fill="#0032A0"/>
</svg>
