<svg xmlns="http://www.w3.org/2000/svg" width="726.19" height="175.03" viewBox="0 0 726.19 175.03">
  <g id="logo_frilea_" data-name="logo frilea " transform="translate(0)">
    <g id="Grupo_3" data-name="Grupo 3">
      <g id="Grupo_1" data-name="Grupo 1">
        <rect id="Rect치ngulo_1" data-name="Rect치ngulo 1" width="29.21" height="173.5" transform="translate(442.28 1.24)" fill="#0c1937"/>
        <rect id="Rect치ngulo_2" data-name="Rect치ngulo 2" width="29.21" height="121.51" transform="translate(381.09 53.23)" fill="#0c1937"/>
        <path id="Trazado_1" data-name="Trazado 1" d="M696.98,53.23v15.8a55.537,55.537,0,0,0-37.75-14.92c-31.7,0-57.4,27.07-57.4,60.46s25.7,60.46,57.4,60.46a55.518,55.518,0,0,0,37.75-14.92v14.63h29.21V53.23Zm-37.75,92.3a30.96,30.96,0,1,1,30.96-30.96,30.96,30.96,0,0,1-30.96,30.96Z" fill="#0c1937"/>
        <circle id="Elipse_1" data-name="Elipse 1" cx="20.74" cy="20.74" r="20.74" transform="translate(374.95 1.24)" fill="#0c1937"/>
        <path id="Trazado_2" data-name="Trazado 2" d="M571.49,132.71a30.9,30.9,0,0,1-24.67,12.26,30.455,30.455,0,0,1-4.99-.41l16.67-21.79L575,101.2l1.24-1.63,17.82-23.29a60.46,60.46,0,1,0,.85,74.35Zm-55.63-18.7a30.972,30.972,0,0,1,30.96-30.96,30.454,30.454,0,0,1,4.99.41l-16.5,21.57-16.67,21.79A30.819,30.819,0,0,1,515.86,114.01Z" fill="#0c1937"/>
        <path id="Trazado_3" data-name="Trazado 3" d="M330.31,68.15V53.52H301.1V174.44h29.21V117.08c0-.85.04-1.69.1-2.52A34.355,34.355,0,0,1,360.1,83.03V53.81a55.88,55.88,0,0,0-29.79,14.34Z" fill="#0c1937"/>
        <path id="Trazado_4" data-name="Trazado 4" d="M270.27,1.24c-19.83,0-47.59,13.67-47.59,51.55v.44H207.81V82.44h14.87v92.3h29.21V82.44h29.28V53.23H251.89V49.48c0-9.78,9.46-18.71,19.37-18.71h24.52V1.24Z" fill="#0c1937"/>
      </g>
      <g id="Grupo_2" data-name="Grupo 2">
        <circle id="Elipse_2" data-name="Elipse 2" cx="23.8" cy="23.8" r="23.8" transform="translate(0.1 0)" fill="#ffc800"/>
        <circle id="Elipse_3" data-name="Elipse 3" cx="23.8" cy="23.8" r="23.8" transform="translate(103.97 0.14)" fill="#8b74ff"/>
        <path id="Trazado_5" data-name="Trazado 5" d="M127.7,75.33a23.806,23.806,0,0,0-23.59,20.41,23.176,23.176,0,0,0-.24,3.35,55.4,55.4,0,0,1-90.41,43.15,75.734,75.734,0,0,0,138-43.09A23.782,23.782,0,0,0,127.7,75.33Z" fill="#8b74ff"/>
        <path id="Trazado_6" data-name="Trazado 6" d="M23.83,75.18A23.8,23.8,0,0,1,47.36,95.66a23.178,23.178,0,0,1,.23,3.35,55.4,55.4,0,0,0,90.29,43.4A75.73,75.73,0,0,1,0,98.94,23.8,23.8,0,0,1,23.83,75.18Z" fill="#ffc800"/>
        <path id="Trazado_7" data-name="Trazado 7" d="M65.04,174.18c.35.05.71.11,1.06.15l1.3.15,1.05.12c.47.05.94.08,1.42.11.32.02.63.06.95.08.52.03,1.04.05,1.57.08.28.01.55.03.83.04.8.03,1.6.04,2.41.04s1.61-.01,2.41-.03c.28-.01.55-.03.83-.04.52-.02,1.05-.04,1.57-.07.32-.02.64-.05.95-.07.47-.03.95-.07,1.42-.11.35-.03.7-.08,1.05-.11.43-.05.87-.09,1.3-.14.36-.04.71-.1,1.06-.15.42-.06.85-.11,1.27-.18l1.07-.18,1.24-.21c.36-.07.71-.14,1.06-.22.41-.08.82-.16,1.22-.25.35-.08.7-.17,1.05-.25.4-.09.81-.18,1.2-.29.36-.09.72-.19,1.07-.29.39-.1.77-.2,1.16-.31.36-.1.72-.22,1.08-.33s.75-.22,1.12-.34.71-.24,1.07-.36.74-.24,1.11-.37c.35-.12.7-.26,1.05-.39s.73-.27,1.09-.41.7-.28,1.05-.43.71-.28,1.06-.43.7-.31,1.04-.46.69-.3,1.04-.46.68-.32,1.02-.49.69-.32,1.03-.49.67-.34,1-.52.68-.34,1.01-.52.66-.36.98-.54.67-.36,1-.55.64-.38.96-.57.66-.39.98-.59.63-.4.94-.6.64-.4.96-.61l.93-.63.93-.63c.31-.22.61-.44.92-.66s.61-.44.91-.66.59-.45.89-.68.6-.45.89-.69.58-.47.87-.71.58-.47.87-.71.56-.49.85-.73.57-.49.85-.74.55-.5.82-.75.56-.51.83-.77.53-.52.8-.77.54-.53.81-.79.52-.53.77-.8.53-.54.79-.82.5-.55.75-.83.51-.55.76-.83.49-.56.73-.84.5-.57.74-.86.47-.58.7-.87.48-.58.71-.88.45-.59.68-.89.46-.6.69-.91.43-.6.65-.9c.19-.27.38-.53.57-.8a55.7,55.7,0,0,1-62.15,5.29l-.06-.03-.06.03a55.676,55.676,0,0,1-62.13-5.46c.19.27.38.54.57.8.21.3.42.6.64.9s.46.61.69.91.45.59.67.89.47.59.71.88.46.58.7.87.49.58.73.86.48.57.73.85.5.56.76.84.5.55.75.83.52.55.78.82.51.54.77.8.54.53.81.8.53.52.79.78.55.51.83.77.54.51.82.75.57.5.85.74.56.49.84.73.58.48.87.71.58.48.87.71.59.46.89.69.59.46.89.68.61.44.91.66.61.45.91.66.62.42.93.64.62.43.93.63.64.41.96.62.62.4.94.6.65.39.98.59.63.38.96.57.66.37.99.55.65.37.99.55.67.35,1,.52.67.35,1.01.52.68.33,1.03.5.68.33,1.02.49.69.31,1.04.46.69.31,1.04.46.71.29,1.06.43.7.29,1.05.43.73.27,1.09.41.7.27,1.05.39c.37.13.74.25,1.11.38.35.12.71.25,1.06.36.37.12.75.23,1.12.34s.72.23,1.08.33c.38.11.77.21,1.15.32.36.1.71.2,1.07.29.4.1.8.19,1.2.29.35.08.7.17,1.05.25.41.09.81.17,1.22.25.35.07.71.15,1.06.22.41.08.83.15,1.24.22" fill="#0c1937"/>
      </g>
    </g>
  </g>
</svg>
