<svg width="22" height="15" viewBox="0 0 22 15" fill="none" xmlns="http://www.w3.org/2000/svg">
<path d="M11 4.50002C10.4067 4.50002 9.82664 4.67597 9.3333 5.00562C8.83995 5.33526 8.45543 5.8038 8.22836 6.35198C8.0013 6.90015 7.94189 7.50335 8.05765 8.08529C8.1734 8.66724 8.45914 9.20179 8.87869 9.62134C9.29825 10.0409 9.83279 10.3266 10.4147 10.4424C10.9967 10.5581 11.5999 10.4987 12.1481 10.2717C12.6962 10.0446 13.1648 9.66008 13.4944 9.16673C13.8241 8.67339 14 8.09337 14 7.50002C14.0073 7.10404 13.9347 6.71065 13.7866 6.34336C13.6384 5.97607 13.4177 5.64243 13.1376 5.36238C12.8576 5.08233 12.5239 4.86163 12.1567 4.71346C11.7894 4.56529 11.396 4.4927 11 4.50002ZM11 12.5C10.0111 12.5 9.0444 12.2068 8.22215 11.6574C7.39991 11.108 6.75905 10.3271 6.38062 9.41344C6.00218 8.49981 5.90316 7.49448 6.09608 6.52457C6.28901 5.55467 6.76521 4.66375 7.46448 3.96449C8.16374 3.26523 9.05465 2.78902 10.0246 2.5961C10.9945 2.40317 11.9998 2.50219 12.9134 2.88063C13.8271 3.25907 14.6079 3.89993 15.1573 4.72217C15.7068 5.54442 16 6.51112 16 7.50002C16.0065 8.15845 15.8817 8.81158 15.6328 9.42116C15.3838 10.0307 15.0157 10.5845 14.5501 11.0502C14.0845 11.5158 13.5307 11.8838 12.9211 12.1328C12.3116 12.3817 11.6584 12.5066 11 12.5ZM11 2.37531e-05C8.62406 -0.004746 6.3022 0.708933 4.33913 2.04739C2.37605 3.38585 0.863499 5.28654 0 7.50002C0.867671 9.71061 2.38125 11.6085 4.3434 12.9462C6.30555 14.2839 8.62523 14.9994 11 14.9994C13.3748 14.9994 15.6945 14.2839 17.6566 12.9462C19.6187 11.6085 21.1323 9.71061 22 7.50002C21.1365 5.28654 19.624 3.38585 17.6609 2.04739C15.6978 0.708933 13.3759 -0.004746 11 2.37531e-05Z" fill="#7561E5"/>
</svg>
