<svg width="56" height="56" viewBox="0 0 56 56" fill="none" xmlns="http://www.w3.org/2000/svg">
<path d="M28 56C43.464 56 56 43.464 56 28C56 12.536 43.464 0 28 0C12.536 0 0 12.536 0 28C0 43.464 12.536 56 28 56Z" fill="#FFE588"/>
<path opacity="0.5" d="M11.8049 37.6298L30.097 55.9219C44.5815 54.8495 56 42.7585 56 28C56 27.2136 55.9659 26.4352 55.9024 25.6652L44.0927 13.7329L11.8049 37.6298Z" fill="#E59405"/>
<path d="M45.9061 35.9108C44.655 39.3016 42.7628 42.25 40.2814 44.6731C37.457 47.4311 33.7586 49.6227 29.2888 51.186C29.1421 51.2372 28.989 51.2791 28.8353 51.31C28.6321 51.3501 28.4254 51.3718 28.2205 51.3746H28.1804C27.962 51.3746 27.7425 51.3526 27.5248 51.31C27.371 51.2791 27.2201 51.2372 27.0741 51.1871C22.599 49.6263 18.896 47.4358 16.0687 44.6777C13.5863 42.2546 11.6944 39.308 10.4451 35.9172C8.17323 29.7519 8.3025 22.9602 8.40656 17.5024L8.40833 17.4186C8.42929 16.968 8.44278 16.4946 8.45024 15.9718C8.48824 13.4052 10.5289 11.2818 13.0958 11.1387C18.4478 10.84 22.588 9.0945 26.1256 5.64645L26.1564 5.61804C26.7439 5.07929 27.484 4.81507 28.2205 4.82607C28.9308 4.83531 29.6382 5.09918 30.2047 5.61804L30.2349 5.64645C33.7731 9.0945 37.9134 10.84 43.2653 11.1387C45.8323 11.2818 47.8729 13.4052 47.9109 15.9718C47.9184 16.4981 47.9319 16.9708 47.9528 17.4186L47.9539 17.4541C48.0576 22.9222 48.1861 29.7274 45.9061 35.9108Z" fill="#8B74FF"/>
<path d="M45.9059 35.9108C44.6548 39.3017 42.7626 42.25 40.2812 44.6732C37.4568 47.4312 33.7584 49.6227 29.2886 51.1861C29.1419 51.2372 28.9889 51.2791 28.8351 51.31C28.6319 51.3501 28.4253 51.3718 28.2203 51.3746V4.82611C28.9306 4.83534 29.6381 5.09921 30.2045 5.61807L30.2347 5.64648C33.7729 9.09454 37.9132 10.84 43.2651 11.1387C45.8321 11.2818 47.8727 13.4052 47.9107 15.9718C47.9182 16.4981 47.9317 16.9708 47.9526 17.4187L47.9537 17.4542C48.0574 22.9223 48.1859 29.7275 45.9059 35.9108Z" fill="#7868CC"/>
<path d="M39.7806 28.1001C39.7806 34.4831 34.598 39.6788 28.2204 39.7015H28.1796C21.7832 39.7015 16.5782 34.4969 16.5782 28.1001C16.5782 21.7037 21.7832 16.4991 28.1796 16.4991H28.2204C34.598 16.5219 39.7806 21.7176 39.7806 28.1001Z" fill="white"/>
<path d="M39.7805 28.1001C39.7805 34.4831 34.5979 39.6788 28.2203 39.7015V16.4991C34.5979 16.5219 39.7805 21.7176 39.7805 28.1001Z" fill="#E1EBF0"/>
<path d="M33.4452 26.4296L28.2204 31.6551L27.0914 32.7841C26.8247 33.0508 26.4749 33.184 26.1254 33.184C25.7756 33.184 25.4262 33.0508 25.1591 32.7841L22.7317 30.3557C22.1983 29.8223 22.1983 28.9582 22.7317 28.4244C23.2644 27.891 24.1296 27.891 24.663 28.4244L26.1254 29.8869L31.514 24.4984C32.0474 23.9646 32.9125 23.9646 33.4452 24.4984C33.9787 25.0318 33.9787 25.8969 33.4452 26.4296Z" fill="#B4D2D7"/>
<path d="M33.4452 26.4296L28.2203 31.6551V27.7916L31.5139 24.4984C32.0473 23.9646 32.9124 23.9646 33.4452 24.4984C33.9786 25.0318 33.9786 25.8969 33.4452 26.4296Z" fill="#6FA5AA"/>
</svg>
