<svg width="12" height="12" viewBox="0 0 12 12" fill="none" xmlns="http://www.w3.org/2000/svg">
<path d="M5.99998 0.600345C5.92061 0.59848 5.84167 0.612751 5.76794 0.64229C5.69422 0.671829 5.62724 0.716023 5.57107 0.772193C5.5149 0.828363 5.47071 0.89534 5.44117 0.969066C5.41163 1.04279 5.39736 1.12173 5.39922 1.2011L5.39697 5.40412L1.19395 5.40637C1.03576 5.40805 0.884551 5.4721 0.773192 5.58459C0.661833 5.69708 0.599321 5.84892 0.599236 6.00712C0.599151 6.16532 0.661501 6.3171 0.77274 6.42947C0.883979 6.54184 1.03511 6.60572 1.19331 6.60723L5.39633 6.60498L5.39407 10.808C5.39559 10.9662 5.45947 11.1173 5.57184 11.2286C5.68421 11.3398 5.83599 11.4022 5.99419 11.4021C6.15239 11.402 6.30423 11.3395 6.41672 11.2281C6.52921 11.1168 6.59325 10.9655 6.59494 10.8074L6.59719 6.60434L10.8002 6.60208C10.8796 6.60284 10.9583 6.58786 11.0319 6.55801C11.1054 6.52815 11.1724 6.48402 11.2288 6.42815C11.2852 6.37229 11.33 6.3058 11.3606 6.23254C11.3912 6.15928 11.407 6.08069 11.4071 6.00133C11.4071 5.92196 11.3914 5.84339 11.3609 5.77016C11.3304 5.69694 11.2856 5.6305 11.2293 5.57469C11.1729 5.51889 11.106 5.47483 11.0325 5.44505C10.9589 5.41527 10.8802 5.40038 10.8009 5.40122L6.59783 5.40347L6.60009 1.20045C6.60204 1.12108 6.58785 1.04216 6.55839 0.968468C6.52893 0.894773 6.48481 0.827841 6.4287 0.771731C6.37259 0.715621 6.30566 0.671503 6.23196 0.642043C6.15827 0.612583 6.07935 0.598395 5.99998 0.600345Z" fill="#0C1937"/>
</svg>
