<?xml version="1.0" encoding="utf-8"?>
<!-- Generator: Adobe Illustrator 25.2.3, SVG Export Plug-In . SVG Version: 6.00 Build 0)  -->
<svg version="1.1" id="Capa_1" xmlns="http://www.w3.org/2000/svg" xmlns:xlink="http://www.w3.org/1999/xlink" x="0px" y="0px"
	 viewBox="0 0 87 82" style="enable-background:new 0 0 87 82;" xml:space="preserve">
<style type="text/css">
	.st0{opacity:0.6;fill:#C6BBFF;enable-background:new    ;}
	.st1{fill:#7561E5;stroke:#7561E5;stroke-width:0.3;}
</style>
<circle class="st0" cx="20" cy="44" r="20"/>
<g>
	<path class="st1" d="M86,47.5L86,47.5L86,47.5L86,47.5L86,47.5L86,47.5L86,47.5L86,47.5L86,47.5L86,47.5L86,47.5L86,47.5L86,47.5
		L86,47.5L86,47.5L86,47.5L86,47.5L86,47.5L86,47.5L86,47.5L86,47.5L86,47.5L86,47.5L86,47.5L86,47.5L86,47.5L86,47.5L86,47.5
		L86,47.5L86,47.5L86,47.5L86,47.5L86,47.5L86,47.5L86,47.5L86,47.5L86,47.5L86,47.5L86,47.5L86,47.5L86,47.5L86,47.5L86,47.5
		L86,47.5L86,47.5L86,47.5L86,47.5L86,47.5L86,47.5L86,47.5L86,47.5L86,47.5L86,47.5L86,47.5L86,47.5L86,47.5L86,47.5L86,47.5
		L86,47.5L86,47.5L86,47.5L86,47.5L86,47.5L86,47.5L86,47.5L86,47.5L86,47.5L86,47.5L86,47.5L86,47.5L86,47.5L86,47.5L86,47.5
		L86,47.5L86,47.5L86,47.5L86,47.5L86,47.5L86,47.5L86,47.5L86,47.5L86,47.5L86,47.5L86,47.5L86,47.5L86,47.5L86,47.5L86,47.5
		L86,47.5L86,47.5L86,47.5L86,47.5L86,47.5L86,47.5L86,47.5L86,47.5L86,47.5L86,47.5L86,47.5L86,47.5L86,47.5L86,47.5L86,47.5
		L86,47.5L86,47.5L86,47.5L86,47.5L86,47.5L86,47.5L86,47.5L86,47.5L86,47.5L86,47.5L86,47.5L86,47.5L86,47.5L86,47.5L86,47.5
		L86,47.5L86,47.5L86,47.5L86,47.5L86,47.5L86,47.5L86,47.5L86,47.5L86,47.5L86,47.5L86,47.5L86,47.5L86,47.5L86,47.5L86,47.5
		L86,47.5L86,47.5L86,47.5L86,47.5L86,47.5L86,47.5L86,47.5L86,47.5L86,47.5L86,47.5L86,47.5L86,47.5L86,47.5L86,47.5L86,47.5
		L86,47.5L86,47.5L86,47.5L86,47.5L86,47.5L86,47.5L86,47.5L86,47.5L86,47.5L86,47.5L86,47.5L86,47.5L86,47.5L86,47.5L86,47.5
		L86,47.5L86,47.5L86,47.5L86,47.5L86,47.5L86,47.5L86,47.5L86,47.5L86,47.5L86,47.5L86,47.5L86,47.5L86,47.5L86,47.5L86,47.5
		L86,47.5L86,47.5L86,47.5L86,47.5L86,47.5L86,47.5L86,47.5L86,47.5L86,47.5L86,47.5L86,47.5L86,47.5L86,47.5L86,47.5L86,47.5
		L86,47.5L86,47.5L86,47.5L86,47.5L86,47.5L86,47.5L86,47.5L86,47.5L86,47.5L86,47.5L86,47.5L86,47.5L86,47.5L86,47.5L86,47.5
		L86,47.5L86,47.5L86,47.5L86,47.5L86,47.5L86,47.5L86,47.5L86,47.5L86,47.5L86,47.5L86,47.5L86,47.5L86,47.5L86,47.5L86,47.5
		L86,47.5L86,47.5L86,47.5L86,47.5L86,47.5L86,47.5L86,47.5L86,47.5L86,47.5L86,47.5L86,47.5L86,47.5L86,47.5L86,47.5L86,47.5
		L86,47.5L86,47.5L86,47.5L86,47.5L86,47.5L86,47.5L86,47.5L86,47.5L86,47.5L86,47.5L86,47.5L86,47.5L86,47.5L86,47.5L86,47.5
		L86,47.5L86,47.5L86,47.5L86,47.5L86,47.5L86,47.5L86,47.5L86,47.5L86,47.5L86,47.5L86,47.5L86,47.5L86,47.5L86,47.5L86,47.5
		L86,47.5L86,47.5L86,47.5L86,47.5L86,47.5L86,47.5L86,47.5L86,47.5L86,47.5L86,47.5L86,47.5L86,47.5L86,47.5L86,47.5L86,47.5
		L86,47.5L86,47.5L86,47.5L86,47.5L86,47.5L86,47.5L86,47.5L86,47.5L86,47.5L86,47.5V9.2v0c0-2.2-0.9-4.3-2.4-5.9
		c-1.6-1.6-3.7-2.5-5.9-2.5l0,0.1V0.8H41.6h0c-2.2,0-4.4,0.9-5.9,2.5c-1.6,1.6-2.5,3.7-2.5,5.9v0v34c-3.5-1.5-7.3-1.9-11-1.3
		c-3.8,0.6-7.3,2.4-10.1,5c-2.8,2.6-4.8,6-5.7,9.7C5.5,60.4,5.7,64.4,7,68s3.6,6.8,6.6,9.1s6.7,3.7,10.6,4c3.8,0.3,7.7-0.6,11-2.4
		c3.3-1.9,6-4.6,7.8-8h19.9h0c0.3,0,0.6-0.1,0.8-0.3l0,0l22.1-22.1l0,0l0,0c0.1-0.1,0.2-0.2,0.2-0.4l0,0l0,0c0,0,0-0.1,0-0.1
		C86,47.6,86,47.6,86,47.5z M41.5,68.5L41.5,68.5c-0.2,0.3-0.3,0.6-0.5,1c-0.1,0.2-0.2,0.4-0.3,0.5c-0.1,0.1-0.2,0.3-0.2,0.4
		c-1.7,2.9-4.3,5.3-7.3,6.8c-3.1,1.5-6.5,2.1-9.9,1.6c-3.4-0.4-6.6-1.8-9.1-4c-2.6-2.2-4.5-5.1-5.4-8.4c-1-3.3-0.9-6.7,0-10
		c1-3.3,2.9-6.2,5.5-8.3s5.8-3.6,9.2-4c3.4-0.4,6.8,0.2,9.8,1.7c0.3,0.2,0.6,0.3,1,0.5l0,0c0.3,0.2,0.6,0.4,0.9,0.6
		c3.4,2.3,6,5.7,7.1,9.6C43.5,60.5,43.2,64.7,41.5,68.5z M64.2,66.8l0.1-12.2c0-1.7,0.7-3.2,1.8-4.4c1.2-1.2,2.8-1.8,4.4-1.8h11.9
		L64.2,66.8z M83.9,46.3H70.2h0c-2.2,0-4.4,0.9-5.9,2.5c-1.6,1.6-2.5,3.7-2.5,5.9v0v13.7H44c1.6-4.3,1.7-9.1,0.2-13.5
		c-1.6-4.4-4.6-8.1-8.7-10.5V9.2c0-1.6,0.6-3.2,1.8-4.3c1.2-1.2,2.7-1.8,4.3-1.8h36.1h0c0.8,0,1.6,0.2,2.4,0.5
		c0.7,0.3,1.4,0.8,2,1.3c0.6,0.6,1,1.2,1.3,2c0.3,0.7,0.5,1.5,0.5,2.4V46.3z"/>
</g>
<path class="st1" d="M59.6,24.1L59.6,24.1c1.7,0,3.4-0.5,4.9-1.5c1.4-1,2.6-2.3,3.2-3.9c0.7-1.6,0.8-3.4,0.5-5.1
	c-0.3-1.7-1.2-3.3-2.4-4.5c-1.2-1.2-2.8-2.1-4.5-2.4c-1.7-0.3-3.5-0.2-5.1,0.5c-1.6,0.7-3,1.8-3.9,3.2c-1,1.4-1.5,3.1-1.5,4.9v0
	c0,2.3,0.9,4.6,2.6,6.2C55.1,23.2,57.3,24.1,59.6,24.1z M59.6,8.8c1.3,0,2.6,0.4,3.6,1.1c1.1,0.7,1.9,1.7,2.4,2.9
	c0.5,1.2,0.6,2.5,0.4,3.8c-0.3,1.3-0.9,2.4-1.8,3.3c-0.9,0.9-2.1,1.5-3.3,1.8c-1.3,0.3-2.6,0.1-3.8-0.4c-1.2-0.5-2.2-1.3-2.9-2.4
	c-0.7-1.1-1.1-2.3-1.1-3.6c0-1.7,0.7-3.4,1.9-4.6C56.3,9.5,57.9,8.8,59.6,8.8z"/>
<path class="st1" d="M35.4,54.5L35.4,54.5L35.4,54.5l-0.2,0.1l-1,1l0,0L33.8,56l0,0l-0.6,0.6l0,0L23.6,66l-6.4-4.1l0,0l0,0l-0.7-0.4
	c-0.3-0.2-0.6-0.2-0.8-0.2c-0.3,0.1-0.5,0.2-0.7,0.5l0,0l0,0c-0.1,0.1-0.1,0.3-0.2,0.4c0,0.1,0,0.3,0,0.4c0,0.1,0.1,0.3,0.2,0.4
	l0.1-0.1L15,63.1c0.1,0.1,0.2,0.2,0.3,0.3c0,0,0,0,0,0l7.8,5l0,0c0.2,0.1,0.4,0.2,0.6,0.2h0c0.3,0,0.6-0.1,0.8-0.3c0,0,0,0,0,0
	l8.9-8.8l0,0l1-1l1-1l0,0l1.5-1.4l0,0l0,0c0.1-0.2,0.2-0.5,0.1-0.7c0-0.2-0.1-0.5-0.3-0.6c-0.2-0.2-0.4-0.3-0.6-0.3
	C35.8,54.4,35.6,54.4,35.4,54.5z"/>
<path class="st1" d="M74.5,38.8L74.5,38.8L74.5,38.8L70.9,28c-0.2-0.6-0.5-1.2-0.9-1.7c-0.4-0.5-1-0.8-1.6-1l0,0
	c-5.6-2-11.8-2-17.4,0l0,0c-0.6,0.2-1.1,0.6-1.6,1c-0.4,0.5-0.8,1-0.9,1.6L45,38.8l0,0l0,0c0,0.1,0,0.2,0,0.3c0,0.9,0.4,1.6,1.3,2.2
	c0.9,0.6,2.1,1.1,3.8,1.5l0,0c3.2,0.6,6.4,0.9,9.6,0.9c1.7,0,5.4-0.1,8.6-0.7c1.6-0.3,3.1-0.7,4.3-1.3c1.1-0.6,1.9-1.4,1.9-2.5
	C74.5,39,74.5,38.9,74.5,38.8z M71.8,39.5c-0.2,0.1-0.5,0.3-0.9,0.4c-0.7,0.3-1.7,0.6-3,0.8l-0.2,0l0.9-4.7l0-0.2c0,0,0,0,0,0
	c0-0.1,0.1-1.1-0.9-1.3c-1-0.2-1.3,0.9-1.3,0.9l-1.1,5.6c-0.4,0.1-0.9,0.1-1.4,0.2c-1.4,0.2-4.4,0.2-4.4,0.2c-2,0-3.9-0.1-5.9-0.3
	l-1.1-5.6c0,0-0.3-1.1-1.3-0.9c-1,0.2-0.9,1.2-0.9,1.3c0,0,0,0,0,0l0.9,4.8c-1.3-0.2-2.3-0.5-3-0.8c-0.4-0.1-0.7-0.3-0.9-0.4
	c-0.2-0.1-0.3-0.2-0.3-0.3l3.3-10.6l0,0c0.1-0.3,0.2-0.5,0.4-0.7c0.2-0.2,0.5-0.4,0.7-0.4l0,0c5.2-1.8,10.8-1.8,15.9,0
	c0.3,0.1,0.5,0.3,0.7,0.5c0.2,0.2,0.3,0.5,0.4,0.7l0,0l0,0l3.4,10.5C72.1,39.3,72,39.4,71.8,39.5z"/>
</svg>
