<svg width="154" height="162" viewBox="0 0 154 162" fill="none" xmlns="http://www.w3.org/2000/svg">
<path d="M153.979 120.835C153.609 123.457 137.888 134.492 134.795 136.696C132.311 138.467 130.151 139.279 126.395 140.694C117.863 142.945 64.3302 158.96 64.3302 158.96C64.1913 158.419 64.1142 157.939 63.7979 157.329C61.8001 158.125 59.7405 158.643 58.4369 159.053C56.4468 159.679 40.6259 160.174 37.3862 160.801C34.1464 161.427 27.6669 162.425 25.0519 159.927C22.437 157.429 26.6718 152.062 30.2818 150.686C33.8919 149.309 47.0977 148.938 49.4658 148.69C51.834 148.443 54.9503 147.569 56.439 148.064C56.9096 148.219 59 147.608 61.6304 146.695C61.5687 145.721 61.5532 145.11 61.5532 145.11L75.6076 141.05L73.0081 116.102C73.0081 116.102 79.1251 92.9951 103.554 110.627C103.554 110.627 109.008 112.236 110.875 112.731C111.006 112.769 111.214 112.769 111.5 112.746C115.225 112.46 131.247 107.611 137.032 107.611C143.265 107.611 145.255 107.232 147.499 108.361C149.744 109.475 154.349 118.213 153.979 120.835Z" fill="#FFC800"/>
<path d="M128.948 159.927C126.333 162.425 119.854 161.427 116.614 160.801C113.374 160.174 97.5533 159.672 95.5631 159.053C93.573 158.426 89.8319 157.553 87.2169 155.805C87.0086 155.666 86.5227 155.457 85.8207 155.194L81.8636 158.055L26.8571 140.501C23.5633 139.596 20.9484 138.219 19.2051 136.696C16.3356 134.198 0.399032 123.456 0.02106 120.835C-0.349198 118.213 4.25588 109.467 6.50058 108.346C8.74527 107.217 10.7354 107.595 16.9681 107.595C23.1931 107.595 41.2586 113.218 43.1253 112.715C43.9738 112.491 45.7325 111.586 47.3987 110.681C49.3966 109.583 51.2633 108.469 51.2633 108.469C78.0144 96.4982 80.9919 116.087 80.9919 116.087L79.4106 140.269C79.4106 140.269 81.6399 141.375 84.5402 142.759L97.8001 146.517L96.0645 147.77C96.8128 148.01 97.345 148.126 97.561 148.048C99.0575 147.553 102.166 148.427 104.534 148.675C106.902 148.922 120.1 149.301 123.718 150.67C127.328 152.062 131.563 157.429 128.948 159.927Z" fill="#FFC800"/>
<path d="M47.3985 110.681C49.2421 110.812 61.7074 118.051 64.6695 119.775C60.1724 117.424 43.1251 112.715 43.1251 112.715C43.9736 112.491 45.7324 111.593 47.3985 110.681Z" fill="#5478B3"/>
<path d="M111.507 112.738C111.507 112.738 90.0324 117.958 86.1062 120.147C86.2836 120.015 97.4222 111.532 103.269 110.403C103.269 110.403 109.016 112.22 110.883 112.723C111.014 112.754 111.222 112.761 111.507 112.738Z" fill="#5478B3"/>
<path d="M128.948 159.927C126.333 162.425 119.853 161.427 116.614 160.801C113.374 160.174 97.5532 159.671 95.563 159.053C94.9922 158.875 94.2748 158.674 93.4803 158.434C91.5133 157.854 89.0835 157.05 87.2168 155.805C87.0085 155.666 86.5226 155.457 85.8206 155.194L95.7713 147.994L96.0567 147.785C96.8049 148.025 97.3372 148.141 97.5532 148.064C99.0496 147.569 102.158 148.443 104.526 148.69C106.894 148.938 120.093 149.316 123.71 150.685C127.328 152.062 131.563 157.429 128.948 159.927Z" fill="#EEA886"/>
<path d="M128.948 159.927C126.333 162.425 119.854 161.427 116.614 160.801C113.374 160.174 97.5534 159.672 95.5632 159.053C94.9924 158.875 94.275 158.674 93.4805 158.434C93.4805 158.434 97.8388 154.119 95.7792 147.987L96.0646 147.778C96.8129 148.018 97.3451 148.134 97.5611 148.056C99.0576 147.561 102.166 148.435 104.534 148.683C106.902 148.93 120.101 149.309 123.718 150.678C127.328 152.062 131.563 157.429 128.948 159.927Z" fill="#0C1937"/>
<path d="M52.8598 116.195C52.8906 116.264 52.8829 116.311 52.8366 116.342C52.5898 116.527 52.6361 116.45 52.8598 116.195Z" fill="#E55353"/>
<path d="M124.852 86.9941C124.644 86.5765 113.297 68.6817 110.219 60.523C107.149 52.3644 99.7594 48.6137 96.2651 47.4537C95.0232 47.0361 92.8016 46.3169 90.4644 45.5513C86.2527 44.1825 81.6476 42.7055 81.6476 42.7055H67.115C67.115 42.7055 62.0779 44.3991 56.7323 46.2783H56.7246C51.7955 48.0105 46.6119 49.9052 44.8532 50.7868C41.1969 52.6196 35.0568 65.6889 33.8072 67.1891C32.5653 68.6894 22.9848 86.4915 21.6041 93.3277C20.5319 98.6405 51.9884 114.208 52.8446 116.203C53.8397 115.097 58.4216 110.689 58.4216 110.689C58.4216 110.689 56.956 109.761 54.8887 108.4C63.3198 108.787 83.9077 108.06 86.8621 108.207C87.456 108.238 88.104 108.222 88.7674 108.168C89.6776 108.833 95.5786 114.053 95.5786 114.053C95.5786 114.053 110.111 108.006 116.791 101.231C126.295 91.6186 125.893 89.1208 124.852 86.9941ZM42.2228 98.8338C39.1065 95.0909 34.8254 92.8173 35.8976 91.1546C36.9775 89.492 46.1105 73.6696 46.1105 73.6696C46.1105 73.6696 50.8468 84.0787 52.1735 89.492C53.5003 94.9053 53.4 97.38 52.8369 99.0658C52.3355 100.574 51.9344 101.602 51.4793 106.095C47.7613 103.551 43.6498 100.551 42.2228 98.8338ZM106.478 97.0474C105.259 98.4394 100.423 101.517 96.08 104.046C95.7483 101.03 95.2469 96.2741 95.1929 94.565C95.108 91.9821 96.188 84.5736 97.5147 81.7432C98.8415 78.9128 99.7594 71.1718 99.7594 71.1718C99.7594 71.1718 110.759 86.1589 112.502 87.7365C114.253 89.3296 110.605 92.3533 106.478 97.0474Z" fill="#8B74FF"/>
<path d="M76.1247 2.66201C76.1247 2.66201 87.487 4.45615 85.7591 22.2814C84.0313 40.1067 73.9957 38.6451 73.3246 38.6296C72.6535 38.6064 63.2582 38.9544 62.5254 17.1852C62.5254 17.1852 62.2014 1.09215 76.1247 2.66201Z" fill="#EEA886"/>
<path d="M85.9362 17.2475C85.9362 17.2475 87.1781 15.9174 87.6332 17.2629C88.0883 18.6085 85.9362 24.6328 85.8591 24.9112C85.8591 24.9112 85.6354 25.437 85.3345 25.1432C85.0337 24.857 85.9362 17.2475 85.9362 17.2475Z" fill="#EEA886"/>
<path d="M62.8262 17.0227C62.8262 17.0227 61.6074 15.6616 61.1214 17.0072C60.6432 18.3451 62.6565 24.4003 62.749 24.6864C62.749 24.6864 62.965 25.2123 63.2735 24.9339C63.5821 24.6477 62.8262 17.0227 62.8262 17.0227Z" fill="#EEA886"/>
<path d="M85.9289 19.9848L84.3014 22.1656C84.3014 22.1656 84.3476 17.3864 84.0854 16.6363C83.8231 15.8861 83.422 13.5971 83.206 13.0558C82.99 12.5144 73.4482 9.83097 65.0171 13.8368C65.0171 13.8368 65.3873 17.2781 64.5774 17.5797C63.7674 17.8891 64.1686 23.1786 64.1686 23.1786L62.8341 21.6629C62.8341 21.6629 60.7899 7.94404 61.2913 6.52111C61.8004 5.09045 63.4126 -3.50125 80.699 1.60273C80.699 1.60273 86.0909 0.458195 87.1709 4.18565C88.2508 7.9131 85.9289 19.9848 85.9289 19.9848Z" fill="#0C1937"/>
<path d="M59.4015 133.974C59.4015 133.974 42.0071 123.518 34.4091 121.879C27.2276 120.324 24.6127 117.633 24.6127 117.633C24.6127 117.633 36.0289 117.633 43.627 123.046C48.7797 126.72 59.4015 133.974 59.4015 133.974Z" fill="#E59405"/>
<path d="M74.8597 141.258C74.8597 141.258 105.121 125.328 117.47 121.879C124.544 119.899 127.267 117.633 127.267 117.633C127.267 117.633 108.561 119.466 97.1832 126.333C91.7605 129.604 74.8597 141.258 74.8597 141.258Z" fill="#E59405"/>
<path d="M63.7979 157.328C61.8001 158.125 59.7405 158.643 58.4369 159.053C56.4468 159.679 40.6259 160.174 37.3862 160.801C34.1464 161.427 27.6669 162.425 25.0519 159.927C22.437 157.429 26.6718 152.062 30.2818 150.686C33.8919 149.309 47.0977 148.938 49.4658 148.69C51.834 148.443 54.9503 147.569 56.439 148.064C56.9096 148.219 59 147.608 61.6304 146.695C61.7229 148.28 63.7979 157.328 63.7979 157.328Z" fill="#EEA886"/>
<path d="M74.8597 155.812L104.604 146.989L98.726 145.187C98.726 145.187 74.9523 153.825 74.8597 155.812Z" fill="#FFC800"/>
<path d="M74.8597 155.813L88.7753 151.559L79.1254 157.174L74.8597 155.813Z" fill="#E59405"/>
<path d="M65.2946 120.155C65.2638 120.139 65.0478 120.008 64.6698 119.783C64.9167 119.915 65.1249 120.039 65.2946 120.155Z" fill="#525252"/>
<path d="M58.4369 159.053C56.4468 159.679 40.6259 160.174 37.3862 160.801C34.1464 161.427 27.6669 162.425 25.0519 159.927C22.437 157.429 26.6718 152.062 30.2818 150.685C33.8919 149.309 47.0978 148.938 49.4659 148.69C51.834 148.443 54.9503 147.569 56.4391 148.064C56.4468 148.064 52.4511 154.181 58.4369 159.053Z" fill="#0C1937"/>
<path d="M48.6021 117.633L44.0202 91.4946L103.285 90.1181L99.4664 115.839C99.4664 115.839 80.5523 122.776 74.1268 126.828C74.1345 126.836 57.9049 120.154 48.6021 117.633Z" fill="#0C1937"/>
<path d="M77.6213 107.255C77.6213 109.413 76.1325 111.168 74.2967 111.168C72.4608 111.168 70.9798 109.413 70.9798 107.255C70.9798 105.098 72.4685 103.342 74.2967 103.342C76.1325 103.342 77.6213 105.098 77.6213 107.255Z" fill="#7561E5"/>
<path d="M81.8096 42.7517C81.8019 42.7363 81.8019 42.7208 81.7942 42.7053C81.0845 41.12 81.4317 33.379 81.4317 33.379C81.4317 33.379 66.953 29.6824 67.3695 32.5128C67.7861 35.3355 66.1199 43.0456 66.1199 43.0456L58.6916 45.5899C58.6916 45.5899 66.6059 66.8874 75.7004 64.142C84.7948 61.3967 88.2274 44.8243 88.2274 44.8243L81.8096 42.7517Z" fill="#EEA886"/>
<path d="M67.6394 35.7144C67.6394 35.7144 69.9073 38.6685 73.957 38.6685C76.6182 38.6685 78.4386 38.0111 81.0921 35.4205C81.0921 35.4205 80.0354 40.2538 73.9801 40.7101C73.9724 40.7023 69.6373 41.3365 67.6394 35.7144Z" fill="#A77860"/>
</svg>
