<svg width="112" height="105" viewBox="0 0 112 105" fill="none" xmlns="http://www.w3.org/2000/svg">
<path opacity="0.95" d="M39.2839 63.1953H4.63018C2.07242 63.1953 0 61.1256 0 58.5712V23.9627C0 21.4083 2.07242 19.3386 4.63018 19.3386H39.2839C41.8416 19.3386 43.9141 21.4083 43.9141 23.9627V58.5712C43.9141 61.1256 41.8416 63.1953 39.2839 63.1953Z" fill="url(#paint0_linear)"/>
<path d="M32.1208 53.2111H11.7898V54.2159H32.1208V53.2111Z" fill="#96BFE6"/>
<path d="M29.2406 56.3705H14.6699V57.3753H29.2406V56.3705Z" fill="#96BFE6"/>
<path opacity="0.95" d="M105.559 105H56.8162C53.6775 105 51.1375 102.46 51.1375 99.3286V40.2232C51.1375 37.0886 53.681 34.5518 56.8162 34.5518H105.555C108.694 34.5518 111.234 37.0921 111.234 40.2232V99.3286C111.238 102.46 108.694 105 105.559 105Z" fill="url(#paint1_linear)"/>
<path d="M83.1554 76.1124H78.3871V76.9934H83.1554V76.1124Z" fill="#4598E6"/>
<g opacity="0.6">
<path opacity="0.6" d="M88.0301 84.1896H60.2915V85.8949H88.0301V84.1896Z" fill="#8B74FF"/>
<path opacity="0.6" d="M82.7197 92.3871H60.2915V94.0924H82.7197V92.3871Z" fill="#8B74FF"/>
<path opacity="0.6" d="M73.4416 88.2866H60.2915V89.9919H73.4416V88.2866Z" fill="#8B74FF"/>
</g>
<path d="M95.2853 41.5747V42.438H100.369V47.2037H101.233V41.5783H95.2853V41.5747ZM60.7662 47.2001H61.6306V42.4345H66.7143V41.5712H60.7698V47.2001H60.7662ZM100.365 71.782V76.5476H95.2818V77.4109H101.226V71.782H100.365ZM61.6306 71.782H60.7662V77.4109H66.7107V76.5476H61.6271V71.782H61.6306Z" fill="#8B74FF"/>
<path d="M98.5374 94.2162C95.7352 94.2162 93.4537 91.9378 93.4537 89.1392C93.4537 86.3407 95.7352 84.0623 98.5374 84.0623C101.34 84.0623 103.621 86.3407 103.621 89.1392C103.621 91.9413 101.343 94.2162 98.5374 94.2162ZM98.5374 85.0458C96.2772 85.0458 94.4386 86.882 94.4386 89.1392C94.4386 91.3965 96.2772 93.2327 98.5374 93.2327C100.798 93.2327 102.636 91.3965 102.636 89.1392C102.64 86.882 100.798 85.0458 98.5374 85.0458Z" fill="#59BC2B"/>
<path d="M98.215 91.1382L95.9052 88.8314L96.5996 88.138L98.215 89.7513L100.475 87.4905L101.173 88.184L98.215 91.1382Z" fill="#59BC2B"/>
<path d="M99.0343 60.202C97.5453 56.2653 93.9663 54.4592 92.2769 53.8968C91.6759 53.6967 90.5984 53.3453 89.4668 52.983C87.4255 52.3232 85.1947 51.6095 85.1947 51.6095H78.1557C78.1557 51.6095 75.7192 52.426 73.1256 53.3344C70.7378 54.1726 68.2254 55.0811 67.3753 55.5083C65.6047 56.3897 62.6267 62.7002 62.0257 63.4249C61.7171 63.798 60.3364 66.253 58.9773 69H66.5631C67.3645 67.6265 67.9817 66.5558 67.9817 66.5558C67.9817 66.5558 68.4636 67.6049 69.043 69H93.3436C93.728 67.3832 93.9663 65.3499 93.9663 65.3499C93.9663 65.3499 95.2658 67.1182 96.6898 69H103.691C101.991 66.134 99.8736 62.4191 99.0343 60.202Z" fill="#1E2E4C"/>
<path d="M82.5145 32.2776C82.5145 32.2776 88.0211 33.1428 87.1819 41.7461C86.3426 50.3495 81.4857 49.6411 81.1608 49.6357C80.836 49.6249 76.2823 49.7925 75.9304 39.2911C75.9304 39.2911 75.7733 31.526 82.5145 32.2776Z" fill="#EEA886"/>
<path d="M87.2685 39.3182C87.2685 39.3182 87.8695 38.6747 88.0915 39.3236C88.3135 39.9725 87.2685 42.8763 87.2306 43.0115C87.2306 43.0115 87.1223 43.2657 86.9761 43.1251C86.8353 42.9899 87.2685 39.3182 87.2685 39.3182Z" fill="#EEA886"/>
<path d="M76.0766 39.21C76.0766 39.21 75.4864 38.5557 75.2535 39.2046C75.0207 39.8535 75.9953 42.7736 76.0441 42.9088C76.0441 42.9088 76.1469 43.1629 76.2985 43.0277C76.4393 42.8925 76.0766 39.21 76.0766 39.21Z" fill="#EEA886"/>
<path d="M87.2685 40.6376L86.4779 41.6921C86.4779 41.6921 86.4996 39.3831 86.3751 39.0208C86.2505 38.6585 86.0556 37.5553 85.9473 37.2958C85.839 37.0362 81.2204 35.7438 77.1378 37.6743C77.1378 37.6743 77.3165 39.3344 76.9266 39.4804C76.5368 39.6264 76.7263 42.1842 76.7263 42.1842L76.0765 41.4541C76.0765 41.4541 75.0857 34.8354 75.3293 34.1486C75.573 33.4564 76.3527 29.3089 84.729 31.7747C84.729 31.7747 87.3389 31.2231 87.8641 33.0238C88.3947 34.8137 87.2685 40.6376 87.2685 40.6376Z" fill="#8B74FF"/>
<path d="M85.8823 51.4472C85.8823 51.4418 85.1784 51.1012 85.1784 51.1012C84.8373 50.3333 85.0918 47.105 85.0918 47.105C85.0918 47.105 78.0799 45.3205 78.2803 46.6832C78.4806 48.0459 77.6738 51.2147 77.6738 51.2147L74.0786 52.9992C74.0786 52.9992 77.9121 63.2789 82.3141 61.9486C86.7216 60.6238 88.3839 52.6261 88.3839 52.6261L85.8823 51.4472Z" fill="#EEA886"/>
<path d="M78.3777 48.1973C78.3777 48.1973 79.5094 49.6519 81.4695 49.6519C82.7581 49.6519 83.684 49.2896 84.9727 48.0405C84.9727 48.0405 84.415 50.4144 81.4803 50.6361C81.4749 50.6415 79.347 50.9065 78.3777 48.1973Z" fill="#A77860"/>
<path opacity="0.95" d="M76.924 32.1177H51.7927C49.8231 32.1177 48.2289 30.5256 48.2289 28.5585V6.65846C48.2289 4.69135 49.8231 3.09926 51.7927 3.09926H76.9275C78.8972 3.09926 80.4914 4.69488 80.4914 6.65846V28.5585C80.4914 30.5221 78.8936 32.1177 76.924 32.1177Z" fill="url(#paint2_linear)"/>
<path d="M65.5133 26.6303H62.9556V27.1044H65.5133V26.6303Z" fill="#4598E6"/>
<path d="M66.5513 0.555459C66.5513 0.555459 68.6131 1.68761 67.9577 4.46492C67.3023 7.24577 67.0544 7.61372 67.5858 8.73526C68.1171 9.86033 68.5848 14.5658 68.0179 15.4291C67.4511 16.2888 61.7015 11.2295 61.0603 7.17855C60.4226 3.12757 61.8609 1.40811 62.3711 0.767737C62.8812 0.127364 64.7304 -0.474092 66.5513 0.555459Z" fill="#8B74FF"/>
<path d="M70.4199 23.5346H68.2128C68.1066 22.4484 68.0074 21.6913 68.0286 21.5781C68.0605 21.3941 65.8322 15.5529 65.6232 15.0718C65.4142 14.5906 64.5958 13.2957 64.4896 12.0751C64.3797 10.8545 65.9739 10.3627 65.9739 10.3627C68.1243 10.7484 68.8505 13.7167 68.8505 13.7167C68.8505 13.7167 69.7539 19.7384 70.2109 21.4331C70.3278 21.8682 70.3915 22.636 70.4199 23.5346Z" fill="#EEA886"/>
<path d="M69.311 15.1673L66.0235 16.5506C66.0235 16.5506 63.0016 9.06429 65.5346 9.89925C68.0605 10.7342 69.1941 12.298 69.311 15.1673Z" fill="#EB4747"/>
<path d="M68.5777 18.6911C68.482 19.4341 68.0888 22.0663 68.1774 22.7775C68.1916 22.8942 68.2411 23.1631 68.3155 23.5311H60.3908C60.5998 22.781 60.7946 22.1159 60.908 21.7267C61.2941 20.453 60.9257 20.1098 60.7308 19.0909C60.6564 18.6911 60.3908 17.934 60.1003 17.0778C60.0046 16.7912 59.9019 16.494 59.8062 16.1933C59.4591 15.1142 59.2961 14.0104 59.1969 13.37C58.7186 10.3238 61.0638 10.0337 61.0638 10.0337C61.9353 9.87448 63.4586 9.40393 63.4586 9.40393L65.8428 9.89925C65.8428 9.89925 66.0695 9.98416 66.399 10.2283C66.5584 10.345 66.7426 10.5007 66.9339 10.6988C67.1961 10.9677 67.7133 11.7319 68.2305 12.5704C68.3899 12.8287 68.5494 13.094 68.6981 13.3523C69.1835 14.1908 69.5271 14.8666 69.5165 15.6272C69.5059 16.3808 68.6733 17.9481 68.5777 18.6911Z" fill="#FFC800"/>
<path d="M65.8357 9.89924C65.8357 9.89924 67.3307 12.4501 66.7745 12.6376C66.2183 12.8287 63.2921 12.1848 62.1479 9.77541C62.1479 9.77895 64.0715 8.90507 65.8357 9.89924Z" fill="#EEA886"/>
<path d="M65.6232 11.0632C65.6232 11.0632 64.2947 11.6222 63.0937 9.77896C63.0937 9.77896 63.4161 7.68448 62.7324 6.47095C62.0487 5.25743 65.7153 7.92506 65.7153 7.92506C65.7153 7.92506 65.655 8.17626 65.5948 8.54421C65.5629 8.73172 65.531 8.95107 65.5062 9.18458C65.485 9.37917 65.4708 9.58437 65.4637 9.78604C65.4496 10.2566 65.485 10.7236 65.6232 11.0632Z" fill="#EEA886"/>
<path d="M62.3286 13.9184C62.0558 15.323 60.0967 17.0778 60.0967 17.0778C60.0011 16.7912 59.8983 16.494 59.8027 16.1933C61.1559 15.3371 62.3286 13.9184 62.3286 13.9184Z" fill="#393D63"/>
<path d="M61.8361 15.0364C61.7121 15.5494 61.1418 20.7255 61.202 20.9024C61.2374 21.005 61.5137 22.2008 61.7936 23.5346H59.2358C58.9737 22.6749 58.8178 21.9637 58.8568 21.5604C59.0197 19.8127 58.4281 14.2439 58.4281 14.2439C58.4281 14.2439 57.8967 10.8757 60.6954 10.4547C60.6954 10.4547 62.3498 10.6705 62.449 11.8911C62.5482 13.1117 61.9601 14.5269 61.8361 15.0364Z" fill="#EEA886"/>
<path d="M58.2191 15.7511L61.6944 16.5613C61.6944 16.5613 64.4506 11.2189 61.9672 10.2424C59.3528 9.21643 57.5921 12.8358 58.2191 15.7511Z" fill="#FFC800"/>
<path d="M66.229 0.852648C66.229 0.852648 69.2473 1.96003 67.3343 7.16086C65.4213 12.3652 61.5138 6.27282 62.1054 3.0745C62.6935 -0.120295 66.229 0.852648 66.229 0.852648Z" fill="#EEA987"/>
<path d="M67.7983 4.0156C67.7983 4.0156 66.2041 5.43433 63.6464 5.50155C63.6464 5.50155 63.0477 6.95566 62.952 7.40144C62.952 7.40144 60.4262 3.07096 63.3311 0.880953C66.236 -1.30551 68.8682 3.10988 67.7983 4.0156Z" fill="#8B74FF"/>
<path d="M63.9936 5.81289C63.9936 5.42725 63.7952 4.54276 63.2142 4.75857C62.6297 4.97793 63.154 6.78583 63.5366 6.69385C63.5366 6.69738 63.9971 6.72569 63.9936 5.81289Z" fill="#EEA987"/>
<path d="M65.4709 9.69758C64.0538 9.30487 63.5047 7.9569 63.487 7.9109C64.6419 9.40039 65.5098 9.18457 65.5098 9.18457C65.4886 9.37916 65.4886 9.49945 65.4709 9.69758Z" fill="#A77860"/>
<path d="M72.0282 8.34961V8.81308H74.756V11.371H75.22V8.34961H72.0282ZM53.4968 11.371H53.9609V8.81308H56.6887V8.34961H53.4968V11.371ZM74.756 24.5677V27.1256H72.0282V27.5891H75.22V24.5677H74.756ZM53.9609 24.5677H53.4968V27.5891H56.6887V27.1256H53.9609V24.5677Z" fill="#8B74FF"/>
<path d="M23.6646 48.311H20.246V48.9443H23.6646V48.311Z" fill="#4598E6"/>
<path d="M32.1987 23.8955V24.5146H35.844V27.9323H36.464V23.899H32.1987V23.8955ZM7.45007 27.9288H8.07003V24.5111H11.7154V23.8919H7.45007V27.9288ZM35.844 45.555V48.9726H32.1987V49.5918H36.4604V45.555H35.844ZM8.07003 45.555H7.45007V49.5918H11.7118V48.9726H8.07003V45.555Z" fill="#8B74FF"/>
<path d="M34.9434 44.7165H33.0198C32.9844 44.6388 32.9562 44.5729 32.9326 44.5187C32.3621 43.1721 29.4201 40.0856 29.4201 40.0856C29.4201 40.0856 29.4201 40.0879 29.4201 40.0926L29.4177 40.095V40.0973C29.4154 40.1021 29.4154 40.1068 29.413 40.1115C29.4107 40.1185 29.4107 40.1256 29.406 40.1374C29.4036 40.1421 29.4036 40.1491 29.4036 40.1538C29.4012 40.1586 29.4012 40.1633 29.3989 40.168C29.2787 40.6176 28.6846 42.8589 28.3899 44.7165H15.3725C15.3418 44.5446 15.3065 44.3798 15.2664 44.2291C15.1485 43.7677 15.066 43.311 15.0142 42.8848C15.0118 42.8636 15.0094 42.8425 15.0071 42.8213C14.9977 42.7436 14.9882 42.6635 14.9812 42.5882C14.868 41.4205 14.9529 40.5258 14.9599 40.4364C14.9222 40.5141 14.6606 41.477 14.3164 42.6659C14.1278 43.318 13.9133 44.0384 13.7011 44.7165H10.6271L14.4837 33.6018C14.5686 33.5359 15.5705 33.0509 16.3013 32.7048C17.0462 32.3493 17.9444 31.8314 18.7577 31.3864C19.1726 31.1581 19.5639 30.9532 19.9057 30.7979L19.9576 30.7743V30.772C20.5186 30.5153 20.8911 30.3482 20.8911 30.3482C20.8911 30.3482 20.8911 30.3482 20.8935 30.3482C20.9076 30.3458 20.9948 30.3388 21.1363 30.3246C21.9189 30.2493 24.3517 30.0209 25.165 29.9762C25.231 29.9715 25.29 29.9691 25.3324 29.9668C25.3701 29.9644 25.3984 29.9644 25.4149 29.9668C25.5163 29.9739 26.0184 30.1481 26.6785 30.3976C26.7044 30.407 26.728 30.4165 26.7539 30.4259C26.7869 30.4377 26.8152 30.4494 26.8482 30.4612C26.9048 30.4824 26.9637 30.5036 27.0226 30.5271C27.1405 30.5742 27.2631 30.6213 27.3833 30.6684C27.4258 30.6849 27.4682 30.7013 27.513 30.7178C28.8308 31.2405 30.3418 31.8855 30.7001 32.1445C30.9382 32.314 31.6761 33.7031 32.5318 35.4217C33.4465 38.3693 34.5733 42.6188 34.9434 44.7165Z" fill="#DECBC4"/>
<path d="M25.3913 29.5878C25.3559 31.3346 21.9684 32.2905 21.9684 32.2905C21.9684 32.2905 20.5516 30.5153 20.8887 30.3458C21.0207 30.2799 21.0749 30.0139 21.0914 29.7172C21.1079 29.4347 21.0891 29.1216 21.0726 28.9238C21.0632 28.7991 21.0537 28.7214 21.0537 28.7214C21.0537 28.7214 21.537 28.2105 22.1546 27.6031C23.2319 26.5413 24.71 25.1781 24.7124 25.7196C24.7124 25.7479 24.7077 25.7832 24.7006 25.8232C24.4389 27.0428 25.3913 29.5878 25.3913 29.5878Z" fill="#EEA886"/>
<path d="M24.0854 27.0263C24.0783 27.0357 23.9345 27.2523 23.6893 27.5607C23.1684 28.2152 22.1924 29.2864 21.0915 29.7196C21.108 29.4371 21.0891 29.124 21.0726 28.9262C20.9595 28.9238 20.8487 28.9097 20.7355 28.8862C21.0373 28.3612 21.471 27.8079 21.471 27.8079L22.1523 27.6054L24.0854 27.0263Z" fill="#A77860"/>
<path d="M24.736 25.7455C24.4437 26.3812 24.1655 26.845 24.0853 27.0263C24.0335 27.1463 23.8944 27.3394 23.6893 27.5584C23.1306 28.1587 22.0934 28.9521 21.0726 28.9238C20.9595 28.9215 20.8487 28.9074 20.7355 28.8838C20.323 28.7944 19.8373 28.6037 19.5686 28.0787C17.454 23.9445 18.9863 20.5661 18.9863 20.5661C18.9863 20.5661 24.7666 18.9345 25.6695 20.672C26.306 21.8915 25.4243 24.2482 24.736 25.7455Z" fill="#EEA886"/>
<path d="M18.9887 20.5661C18.9887 20.5661 18.4512 20.5355 18.3192 19.5208C18.1872 18.5155 18.4536 18.2377 18.4536 18.2377C18.4536 18.2377 20.8392 17.2394 21.6973 17.11C22.5554 16.9805 24.6605 16.8557 25.1556 17.4207C25.1556 17.4207 26.3555 17.1429 26.6832 19.1323C27.2018 22.2894 24.9151 25.3524 24.9151 25.3524C24.9151 25.3524 24.934 23.29 24.479 23.0169C24.024 22.7438 23.6304 23.3936 23.6304 23.3936L22.6992 23.5607C22.6992 23.5607 24.1136 20.5096 22.4163 20.3966C20.7166 20.2836 19.9599 20.745 18.9887 20.5661Z" fill="#8B74FF"/>
<path d="M23.6539 22.5719C23.7435 21.6632 25.3866 21.3171 25.2782 22.2682C25.1674 23.2194 24.3588 24.1352 23.984 24.1022C23.6092 24.0716 23.5856 23.2641 23.6539 22.5719Z" fill="#EEA886"/>
<path d="M33.2815 35.5065C32.7464 33.7925 32.282 32.4365 32.0769 32.2881C31.7162 32.0315 28.8638 31.2475 27.5083 30.7155C27.4658 30.699 27.4211 30.6825 27.3786 30.666C27.256 30.6166 27.1335 30.5719 27.0179 30.5248C26.959 30.5012 26.9001 30.48 26.8435 30.4588C26.8129 30.4471 26.7822 30.4353 26.7492 30.4235C26.7233 30.4141 26.6997 30.4023 26.6738 30.3953C26.6714 30.3976 26.6714 30.4 26.6667 30.4023C26.5465 30.5389 25.9194 31.2475 25.1721 32.3117C23.7718 34.2987 21.9496 37.517 22.2278 40.4882C22.3173 41.4417 22.4281 42.8119 22.6144 44.3469C22.6285 44.4693 22.6426 44.5917 22.6592 44.7141H28.9746C29.0524 43.1061 29.1891 40.9873 29.3965 40.1656C29.3989 40.1609 29.3989 40.1562 29.4012 40.1515C29.4012 40.1468 29.4036 40.1397 29.4036 40.135C29.406 40.1256 29.4083 40.1185 29.4107 40.1091C29.413 40.1044 29.413 40.0997 29.4154 40.095C29.4154 40.0926 29.4154 40.0926 29.4154 40.0926C29.4154 40.0903 29.4178 40.0903 29.4178 40.0903C29.4178 40.0903 30.9453 42.4775 31.0255 44.7141H35C34.8091 42.6376 34.2009 38.4493 33.2815 35.5065Z" fill="#1E2E4C"/>
<path d="M19.9293 30.8167C19.9293 30.8167 19.4531 32.4011 18.8355 36.3587C18.8355 36.3587 18.8355 36.3587 18.8355 36.3611C18.8142 36.4929 18.793 36.6295 18.7718 36.7684C18.7694 36.7825 18.7671 36.799 18.7647 36.8178C18.7506 36.9073 18.7364 37.0014 18.7223 37.0956C18.7199 37.1074 18.7199 37.1168 18.7176 37.1286C18.7082 37.1898 18.6964 37.2534 18.6893 37.3193C18.6657 37.4747 18.6421 37.6348 18.6186 37.7972C18.3876 39.4122 18.0787 41.9784 17.7652 44.7188H15.2687C15.132 43.9584 15.0071 43.2662 15.0165 42.7907C15.0118 42.8001 15.0071 42.8119 15.0047 42.8236C14.8043 43.3745 14.5851 43.9749 14.3635 44.5587C14.3423 44.6129 14.3234 44.6647 14.3022 44.7188H10L14.2857 33.5218C14.3706 33.4559 15.4738 32.8602 16.2046 32.5141C16.9661 32.1516 17.9302 31.7043 18.7836 31.3111C19.1914 31.1228 19.5757 30.9462 19.901 30.7979L19.9293 30.8167Z" fill="#1E2E4C"/>
<path d="M25.7355 34.7319L24.0854 35.6618L24.7902 36.3799L23.2438 44.7165H22.6615C22.447 43.0308 22.3244 41.517 22.2301 40.4905C21.7987 35.8949 26.3909 30.7131 26.6761 30.3976C26.8977 30.4824 27.1358 30.5742 27.381 30.6707L25.7355 34.7319Z" fill="#31425E"/>
<path d="M19.9552 30.772C19.9552 30.772 19.3399 32.7802 18.6233 37.7948C18.3922 39.4075 18.0834 41.9761 17.7699 44.7165H17.5271L17.2065 36.839L17.9915 35.9891L17.2937 35.118L18.7883 31.3087C19.1961 31.1204 19.5804 30.9438 19.9057 30.7955L19.9552 30.772Z" fill="#31425E"/>
<path d="M26.7586 30.4165L25.3913 29.5878C25.3913 29.5878 25.3536 30.3364 21.9684 32.2905L22.9302 34.9932L26.7586 30.4165Z" fill="#F5E2D9"/>
<path d="M21.0679 29.9644C21.0679 29.9644 21.1221 30.772 21.9684 32.2905L20.0919 34.7319L19.9552 30.772L21.0679 29.9644Z" fill="#F5E2D9"/>
<path d="M21.9731 32.2905C21.9731 32.2905 22.3362 33.7431 22.2065 34.1504C22.2065 34.1504 21.4074 34.44 20.8322 34.0774C20.8322 34.0774 21.24 33.0604 21.9731 32.2905Z" fill="#8B74FF"/>
<path d="M21.5323 37.2275C21.148 39.836 21.148 42.4752 21.2918 44.7141H19.6888C19.6676 44.3987 19.6464 44.0691 19.6275 43.7253C19.3305 38.56 21.1574 33.9456 21.1574 33.9456L21.9731 33.7407C21.9731 33.7407 21.7091 36.0244 21.5323 37.2275Z" fill="#8B74FF"/>
<path d="M15.0707 40.4458C15.0094 41.6841 15.0188 42.786 15.0188 42.786C15.0188 42.793 15.0165 42.826 15.0141 42.8801C15.0118 42.8589 15.0094 42.8378 15.0071 42.8189C14.809 43.3698 14.5874 43.9702 14.3658 44.554C14.314 43.8784 14.2998 43.2474 14.3163 42.6635C14.4059 39.1886 15.4997 37.3664 15.4997 37.3664C15.2499 37.9738 15.1296 39.2733 15.0707 40.4458Z" fill="#2D3133"/>
<defs>
<linearGradient id="paint0_linear" x1="25.0948" y1="98.0734" x2="21.6726" y2="35.9634" gradientUnits="userSpaceOnUse">
<stop stop-color="#D1D7E0"/>
<stop offset="1" stop-color="#EBEBFF"/>
</linearGradient>
<linearGradient id="paint1_linear" x1="81.1874" y1="115.345" x2="81.1874" y2="51.4401" gradientUnits="userSpaceOnUse">
<stop stop-color="#D1D7E0"/>
<stop offset="1" stop-color="#EBEBFF"/>
</linearGradient>
<linearGradient id="paint2_linear" x1="64.3582" y1="36.3778" x2="64.3582" y2="10.0556" gradientUnits="userSpaceOnUse">
<stop stop-color="#D1D7E0"/>
<stop offset="1" stop-color="#EBEBFF"/>
</linearGradient>
</defs>
</svg>
