<svg width="439" height="66" viewBox="0 0 439 66" fill="none" xmlns="http://www.w3.org/2000/svg">
<line x1="178.897" y1="15.4483" x2="256.138" y2="15.4483" stroke="#7561E5" stroke-width="2.2069" stroke-linecap="round"/>
<line x1="298.069" y1="15.4483" x2="375.31" y2="15.4483" stroke="#7561E5" stroke-width="2.2069" stroke-linecap="round"/>
<line x1="59.7241" y1="15.4483" x2="136.966" y2="15.4483" stroke="#7561E5" stroke-width="2.2069" stroke-linecap="round"/>
<circle cx="157.931" cy="15.4483" r="15.4483" fill="#7561E5"/>
<path fill-rule="evenodd" clip-rule="evenodd" d="M149.953 7.72415C148.877 7.72415 148 8.60001 148 9.67641V21.2202C148 22.2928 148.873 23.1724 149.953 23.1724H166.191C167.263 23.1724 168.143 22.2996 168.143 21.2202V9.67641C168.143 8.6038 167.27 7.72415 166.191 7.72415H149.953ZM158.108 16.6311L150.733 9.31991H165.419L158.108 16.6311ZM149.596 20.4483V10.4395L154.622 15.4224L149.596 20.4483ZM166.547 20.4483L161.547 15.4483L166.547 10.4482V20.4483ZM150.724 21.5767L155.755 16.5459L157.548 18.3236C157.86 18.6329 158.364 18.6319 158.674 18.3212L160.419 16.5767L165.419 21.5767H150.724Z" fill="white"/>
<circle cx="277.103" cy="15.4483" r="15.4483" fill="#7561E5"/>
<path d="M277.103 25.4676C276.821 25.4676 276.548 25.3647 276.336 25.1779C275.533 24.4734 274.76 23.8114 274.077 23.2274L274.074 23.2243C272.073 21.5121 270.345 20.0334 269.142 18.5768C267.798 16.9484 267.172 15.4045 267.172 13.7178C267.172 12.0791 267.732 10.5672 268.748 9.46058C269.776 8.34085 271.187 7.72415 272.721 7.72415C273.867 7.72415 274.917 8.08811 275.842 8.80584C276.308 9.16813 276.731 9.61152 277.103 10.1287C277.476 9.61152 277.899 9.16813 278.365 8.80584C279.289 8.08811 280.339 7.72415 281.486 7.72415C283.02 7.72415 284.431 8.34085 285.459 9.46058C286.475 10.5672 287.034 12.0791 287.034 13.7178C287.034 15.4045 286.409 16.9484 285.065 18.5767C283.862 20.0334 282.134 21.5119 280.134 23.224C279.45 23.8089 278.675 24.472 277.871 25.1782C277.659 25.3647 277.386 25.4676 277.103 25.4676ZM272.721 8.89242C271.516 8.89242 270.409 9.37537 269.603 10.2524C268.786 11.1427 268.336 12.3733 268.336 13.7178C268.336 15.1364 268.861 16.4051 270.038 17.8314C271.176 19.2101 272.868 20.6583 274.828 22.3353L274.832 22.3383C275.517 22.9246 276.293 23.5892 277.102 24.2989C277.915 23.5878 278.693 22.9221 279.379 22.335C281.339 20.658 283.031 19.2101 284.169 17.8314C285.346 16.4051 285.871 15.1364 285.871 13.7178C285.871 12.3733 285.421 11.1427 284.603 10.2524C283.798 9.37537 282.691 8.89242 281.486 8.89242C280.603 8.89242 279.793 9.17422 279.077 9.7299C278.439 10.2253 277.995 10.8516 277.734 11.2898C277.6 11.5152 277.364 11.6497 277.103 11.6497C276.842 11.6497 276.606 11.5152 276.473 11.2898C276.212 10.8516 275.768 10.2253 275.13 9.7299C274.414 9.17422 273.604 8.89242 272.721 8.89242Z" fill="white" stroke="white" stroke-width="1.10345"/>
<path d="M5.42241 46.82V45.4892H8.85991V48.6358C8.52586 48.959 8.04095 49.2446 7.40517 49.4924C6.77299 49.7367 6.13182 49.8588 5.48168 49.8588C4.65553 49.8588 3.93534 49.6864 3.32112 49.3416C2.7069 48.9932 2.24533 48.4975 1.93642 47.8545C1.62751 47.208 1.47306 46.5057 1.47306 45.7478C1.47306 44.9253 1.64547 44.1943 1.9903 43.5549C2.33513 42.9156 2.8398 42.4253 3.50431 42.084C4.01077 41.8218 4.64116 41.6907 5.39547 41.6907C6.37608 41.6907 7.14116 41.8973 7.69073 42.3103C8.24389 42.7198 8.5995 43.2873 8.75754 44.0129L7.17349 44.3093C7.06214 43.9213 6.85201 43.616 6.5431 43.3933C6.23779 43.167 5.85524 43.0539 5.39547 43.0539C4.69863 43.0539 4.14368 43.2748 3.7306 43.7166C3.32112 44.1584 3.11638 44.8139 3.11638 45.6832C3.11638 46.6207 3.32471 47.3247 3.74138 47.7952C4.15804 48.2622 4.70402 48.4957 5.37931 48.4957C5.71336 48.4957 6.04741 48.431 6.38146 48.3017C6.71911 48.1688 7.00826 48.009 7.24892 47.8222V46.82H5.42241ZM14.0916 49.7241V48.8674C13.8833 49.1728 13.6085 49.4134 13.2672 49.5894C12.9296 49.7654 12.5722 49.8534 12.195 49.8534C11.8107 49.8534 11.4659 49.769 11.1606 49.6002C10.8552 49.4314 10.6343 49.1943 10.4978 48.889C10.3613 48.5837 10.2931 48.1616 10.2931 47.6228V44.0021H11.8071V46.6314C11.8071 47.436 11.8341 47.9299 11.8879 48.1131C11.9454 48.2927 12.0478 48.4364 12.195 48.5442C12.3423 48.6483 12.5291 48.7004 12.7554 48.7004C13.014 48.7004 13.2457 48.6304 13.4504 48.4903C13.6552 48.3466 13.7953 48.1706 13.8707 47.9623C13.9461 47.7503 13.9838 47.2349 13.9838 46.4159V44.0021H15.4978V49.7241H14.0916ZM18.2026 45.7478L16.8287 45.5C16.9831 44.9468 17.2489 44.5373 17.6261 44.2715C18.0032 44.0057 18.5636 43.8728 19.3071 43.8728C19.9824 43.8728 20.4853 43.9536 20.8157 44.1153C21.1462 44.2733 21.3779 44.4763 21.5108 44.7241C21.6473 44.9684 21.7155 45.4192 21.7155 46.0765L21.6994 47.8437C21.6994 48.3466 21.7227 48.7184 21.7694 48.959C21.8197 49.1961 21.9113 49.4511 22.0442 49.7241H20.5463C20.5068 49.6235 20.4583 49.4745 20.4009 49.2769C20.3757 49.1871 20.3578 49.1279 20.347 49.0991C20.0884 49.3506 19.8118 49.5391 19.5172 49.6649C19.2227 49.7906 18.9084 49.8534 18.5744 49.8534C17.9853 49.8534 17.5201 49.6936 17.1789 49.3739C16.8412 49.0542 16.6724 48.6501 16.6724 48.1616C16.6724 47.8383 16.7496 47.551 16.9041 47.2996C17.0585 47.0445 17.2741 46.8506 17.5506 46.7177C17.8308 46.5812 18.2331 46.4626 18.7575 46.3621C19.4652 46.2291 19.9555 46.1052 20.2284 45.9903V45.8394C20.2284 45.5485 20.1566 45.3419 20.0129 45.2198C19.8693 45.0941 19.5981 45.0312 19.1994 45.0312C18.93 45.0312 18.7198 45.0851 18.569 45.1929C18.4181 45.297 18.296 45.482 18.2026 45.7478ZM20.2284 46.9763C20.0345 47.0409 19.7274 47.1182 19.3071 47.208C18.8869 47.2978 18.6121 47.3858 18.4828 47.472C18.2852 47.6121 18.1864 47.7899 18.1864 48.0054C18.1864 48.2173 18.2654 48.4005 18.4235 48.5549C18.5815 48.7094 18.7827 48.7866 19.0269 48.7866C19.2999 48.7866 19.5603 48.6968 19.8082 48.5172C19.9914 48.3807 20.1117 48.2137 20.1692 48.0161C20.2087 47.8868 20.2284 47.6408 20.2284 47.278V46.9763ZM24.6627 49.7241H23.1487V44.0021H24.555V44.8157C24.7956 44.4314 25.0111 44.1781 25.2015 44.056C25.3955 43.9339 25.6146 43.8728 25.8588 43.8728C26.2037 43.8728 26.5359 43.968 26.8556 44.1584L26.3869 45.4784C26.1318 45.3132 25.8948 45.2306 25.6756 45.2306C25.4637 45.2306 25.2841 45.2899 25.1369 45.4084C24.9896 45.5233 24.8728 45.7335 24.7866 46.0388C24.704 46.3441 24.6627 46.9835 24.6627 47.9569V49.7241ZM32.7608 49.7241H31.3545V48.8836C31.121 49.2105 30.8445 49.4547 30.5248 49.6164C30.2087 49.7744 29.889 49.8534 29.5657 49.8534C28.9084 49.8534 28.3445 49.5894 27.8739 49.0614C27.407 48.5298 27.1735 47.7899 27.1735 46.8416C27.1735 45.8718 27.4016 45.1354 27.8578 44.6325C28.3139 44.1261 28.8904 43.8728 29.5873 43.8728C30.2267 43.8728 30.7798 44.1386 31.2468 44.6702V41.8254H32.7608V49.7241ZM28.7198 46.7392C28.7198 47.3498 28.8042 47.7916 28.9731 48.0646C29.2173 48.4598 29.5585 48.6573 29.9968 48.6573C30.3452 48.6573 30.6415 48.51 30.8858 48.2155C31.13 47.9174 31.2522 47.4738 31.2522 46.8847C31.2522 46.2274 31.1336 45.755 30.8966 45.4677C30.6595 45.1767 30.356 45.0312 29.986 45.0312C29.6268 45.0312 29.3251 45.1749 29.0808 45.4623C28.8402 45.746 28.7198 46.1717 28.7198 46.7392ZM35.3901 45.7478L34.0162 45.5C34.1706 44.9468 34.4364 44.5373 34.8136 44.2715C35.1907 44.0057 35.7511 43.8728 36.4946 43.8728C37.1699 43.8728 37.6728 43.9536 38.0032 44.1153C38.3337 44.2733 38.5654 44.4763 38.6983 44.7241C38.8348 44.9684 38.903 45.4192 38.903 46.0765L38.8869 47.8437C38.8869 48.3466 38.9102 48.7184 38.9569 48.959C39.0072 49.1961 39.0988 49.4511 39.2317 49.7241H37.7338C37.6943 49.6235 37.6458 49.4745 37.5884 49.2769C37.5632 49.1871 37.5453 49.1279 37.5345 49.0991C37.2759 49.3506 36.9993 49.5391 36.7047 49.6649C36.4102 49.7906 36.0959 49.8534 35.7619 49.8534C35.1728 49.8534 34.7076 49.6936 34.3664 49.3739C34.0287 49.0542 33.8599 48.6501 33.8599 48.1616C33.8599 47.8383 33.9371 47.551 34.0916 47.2996C34.246 47.0445 34.4616 46.8506 34.7381 46.7177C35.0183 46.5812 35.4206 46.4626 35.945 46.3621C36.6527 46.2291 37.143 46.1052 37.4159 45.9903V45.8394C37.4159 45.5485 37.3441 45.3419 37.2004 45.2198C37.0568 45.0941 36.7856 45.0312 36.3869 45.0312C36.1175 45.0312 35.9073 45.0851 35.7565 45.1929C35.6056 45.297 35.4835 45.482 35.3901 45.7478ZM37.4159 46.9763C37.222 47.0409 36.9149 47.1182 36.4946 47.208C36.0744 47.2978 35.7996 47.3858 35.6703 47.472C35.4727 47.6121 35.3739 47.7899 35.3739 48.0054C35.3739 48.2173 35.4529 48.4005 35.611 48.5549C35.769 48.7094 35.9702 48.7866 36.2144 48.7866C36.4874 48.7866 36.7478 48.6968 36.9957 48.5172C37.1789 48.3807 37.2992 48.2137 37.3567 48.0161C37.3962 47.8868 37.4159 47.6408 37.4159 47.278V46.9763ZM40.2877 44.0021H41.6832V44.7834C42.1825 44.1763 42.7769 43.8728 43.4666 43.8728C43.833 43.8728 44.1509 43.9483 44.4203 44.0991C44.6897 44.25 44.9106 44.4781 45.083 44.7834C45.3344 44.4781 45.6056 44.25 45.8966 44.0991C46.1875 43.9483 46.4982 43.8728 46.8287 43.8728C47.2489 43.8728 47.6045 43.959 47.8955 44.1314C48.1864 44.3003 48.4037 44.5499 48.5474 44.8804C48.6516 45.1246 48.7037 45.5197 48.7037 46.0657V49.7241H47.1897V46.4536C47.1897 45.8861 47.1376 45.5197 47.0334 45.3545C46.8933 45.139 46.6778 45.0312 46.3869 45.0312C46.1749 45.0312 45.9756 45.0959 45.7888 45.2252C45.602 45.3545 45.4673 45.5449 45.3847 45.7963C45.3021 46.0442 45.2608 46.4375 45.2608 46.9763V49.7241H43.7468V46.5883C43.7468 46.0316 43.7198 45.6724 43.6659 45.5108C43.6121 45.3491 43.5277 45.2288 43.4127 45.1498C43.3014 45.0707 43.1487 45.0312 42.9547 45.0312C42.7213 45.0312 42.5111 45.0941 42.3244 45.2198C42.1376 45.3455 42.0029 45.5269 41.9203 45.764C41.8412 46.0011 41.8017 46.3944 41.8017 46.9439V49.7241H40.2877V44.0021ZM49.8675 46.7823C49.8675 46.2794 49.9914 45.7927 50.2392 45.3222C50.4871 44.8516 50.8373 44.4924 51.2899 44.2446C51.7461 43.9968 52.2543 43.8728 52.8147 43.8728C53.6803 43.8728 54.3897 44.1548 54.9429 44.7187C55.4961 45.2791 55.7726 45.9885 55.7726 46.847C55.7726 47.7126 55.4925 48.431 54.9321 49.0021C54.3754 49.5697 53.6731 49.8534 52.8254 49.8534C52.301 49.8534 51.7999 49.7349 51.3222 49.4978C50.8481 49.2608 50.4871 48.9141 50.2392 48.458C49.9914 47.9982 49.8675 47.4396 49.8675 46.7823ZM51.4192 46.8631C51.4192 47.4307 51.5539 47.8653 51.8233 48.167C52.0927 48.4687 52.4249 48.6196 52.82 48.6196C53.2152 48.6196 53.5456 48.4687 53.8114 48.167C54.0808 47.8653 54.2155 47.4271 54.2155 46.8524C54.2155 46.292 54.0808 45.861 53.8114 45.5593C53.5456 45.2575 53.2152 45.1067 52.82 45.1067C52.4249 45.1067 52.0927 45.2575 51.8233 45.5593C51.5539 45.861 51.4192 46.2956 51.4192 46.8631ZM56.43 48.0916L57.9494 47.8599C58.014 48.1544 58.1451 48.3789 58.3427 48.5334C58.5402 48.6843 58.8168 48.7597 59.1724 48.7597C59.5639 48.7597 59.8585 48.6878 60.056 48.5442C60.1889 48.4436 60.2554 48.3089 60.2554 48.1401C60.2554 48.0251 60.2195 47.9299 60.1476 47.8545C60.0722 47.7827 59.9034 47.7162 59.6412 47.6552C58.4199 47.3858 57.6458 47.1397 57.319 46.917C56.8664 46.6081 56.6401 46.1789 56.6401 45.6293C56.6401 45.1336 56.8358 44.7169 57.2274 44.3793C57.6189 44.0416 58.2259 43.8728 59.0485 43.8728C59.8315 43.8728 60.4134 44.0003 60.7942 44.2554C61.1749 44.5104 61.4371 44.8876 61.5808 45.3868L60.153 45.6508C60.092 45.4281 59.9752 45.2575 59.8028 45.139C59.634 45.0205 59.3915 44.9612 59.0754 44.9612C58.6767 44.9612 58.3912 45.0169 58.2188 45.1282C58.1038 45.2072 58.0463 45.3096 58.0463 45.4353C58.0463 45.5431 58.0966 45.6347 58.1972 45.7101C58.3337 45.8107 58.8042 45.9526 59.6088 46.1358C60.417 46.3189 60.981 46.5434 61.3006 46.8093C61.6167 47.0786 61.7748 47.454 61.7748 47.9353C61.7748 48.4598 61.5557 48.9105 61.1175 49.2877C60.6792 49.6649 60.0309 49.8534 59.1724 49.8534C58.393 49.8534 57.7751 49.6954 57.319 49.3793C56.8664 49.0632 56.57 48.634 56.43 48.0916ZM70.0291 47.8814L71.0313 48.0054C70.8732 48.5909 70.5805 49.0452 70.153 49.3685C69.7256 49.6918 69.1796 49.8534 68.5151 49.8534C67.6782 49.8534 67.0137 49.5966 66.5216 49.083C66.0331 48.5657 65.7888 47.8419 65.7888 46.9116C65.7888 45.949 66.0366 45.2019 66.5323 44.6702C67.028 44.1386 67.671 43.8728 68.4612 43.8728C69.2263 43.8728 69.8513 44.1332 70.3362 44.6541C70.8211 45.1749 71.0636 45.9077 71.0636 46.8524C71.0636 46.9098 71.0618 46.996 71.0582 47.111H66.791C66.8269 47.7396 67.0047 48.2209 67.3244 48.5549C67.644 48.889 68.0428 49.056 68.5205 49.056C68.8761 49.056 69.1796 48.9626 69.431 48.7758C69.6825 48.5891 69.8818 48.2909 70.0291 47.8814ZM66.8448 46.3136H70.0399C69.9968 45.8322 69.8746 45.4712 69.6735 45.2306C69.3646 44.857 68.9641 44.6702 68.472 44.6702C68.0266 44.6702 67.6512 44.8193 67.3459 45.1174C67.0442 45.4156 66.8772 45.8143 66.8448 46.3136ZM72.2328 49.7241V41.8254H73.2026V49.7241H72.2328ZM1.03664 64.917V57.0021H1.92026V57.7457C2.12859 57.4547 2.36386 57.2374 2.62608 57.0937C2.88829 56.9465 3.20618 56.8728 3.57974 56.8728C4.06825 56.8728 4.49928 56.9985 4.87284 57.25C5.24641 57.5014 5.52837 57.857 5.71875 58.3168C5.90912 58.773 6.00431 59.274 6.00431 59.82C6.00431 60.4055 5.89835 60.9335 5.68642 61.4041C5.47809 61.871 5.17277 62.2302 4.77047 62.4817C4.37177 62.7295 3.95151 62.8534 3.5097 62.8534C3.18642 62.8534 2.89547 62.7852 2.63685 62.6487C2.38182 62.5122 2.17169 62.3398 2.00646 62.1314V64.917H1.03664ZM1.91487 59.8955C1.91487 60.6318 2.06393 61.176 2.36207 61.528C2.6602 61.88 3.02119 62.056 3.44504 62.056C3.87608 62.056 4.24425 61.8746 4.54957 61.5118C4.85847 61.1455 5.01293 60.5797 5.01293 59.8146C5.01293 59.0855 4.86207 58.5395 4.56034 58.1767C4.26221 57.8139 3.90481 57.6325 3.48814 57.6325C3.07507 57.6325 2.70869 57.8265 2.38901 58.2144C2.07291 58.5988 1.91487 59.1591 1.91487 59.8955ZM10.9127 62.0183C10.5535 62.3236 10.2069 62.5391 9.87284 62.6649C9.54238 62.7906 9.18678 62.8534 8.80603 62.8534C8.17744 62.8534 7.69432 62.7008 7.35668 62.3955C7.01904 62.0865 6.85021 61.6932 6.85021 61.2155C6.85021 60.9353 6.91307 60.6803 7.03879 60.4504C7.1681 60.2169 7.33513 60.0302 7.53987 59.8901C7.7482 59.75 7.98168 59.644 8.2403 59.5722C8.43067 59.5219 8.71803 59.4734 9.10237 59.4267C9.88541 59.3333 10.4619 59.222 10.8319 59.0927C10.8355 58.9598 10.8373 58.8753 10.8373 58.8394C10.8373 58.4443 10.7457 58.1659 10.5625 58.0043C10.3147 57.7852 9.94648 57.6756 9.45797 57.6756C9.00179 57.6756 8.66415 57.7564 8.44504 57.9181C8.22952 58.0761 8.06968 58.3581 7.96552 58.764L7.01724 58.6347C7.10345 58.2288 7.24533 57.9019 7.44289 57.6541C7.64044 57.4026 7.926 57.2105 8.29957 57.0776C8.67313 56.9411 9.10596 56.8728 9.59806 56.8728C10.0866 56.8728 10.4835 56.9303 10.7888 57.0452C11.0941 57.1602 11.3186 57.3057 11.4623 57.4817C11.606 57.6541 11.7065 57.8732 11.764 58.139C11.7963 58.3042 11.8125 58.6024 11.8125 59.0334V60.3265C11.8125 61.2281 11.8323 61.7992 11.8718 62.0399C11.9149 62.2769 11.9975 62.505 12.1196 62.7241H11.1067C11.0061 62.523 10.9414 62.2877 10.9127 62.0183ZM10.8319 59.8524C10.4799 59.996 9.95187 60.1182 9.24784 60.2187C8.84914 60.2762 8.56717 60.3409 8.40194 60.4127C8.23671 60.4845 8.10919 60.5905 8.01939 60.7306C7.9296 60.8671 7.8847 61.0197 7.8847 61.1886C7.8847 61.4472 7.98168 61.6627 8.17564 61.8351C8.3732 62.0075 8.66056 62.0937 9.03771 62.0937C9.41128 62.0937 9.74353 62.0129 10.0345 61.8513C10.3254 61.686 10.5392 61.4615 10.6756 61.1778C10.7798 60.9587 10.8319 60.6354 10.8319 60.208V59.8524ZM13.1433 63.1983L14.0862 63.3383C14.1257 63.6293 14.2353 63.8412 14.4149 63.9741C14.6555 64.1537 14.9842 64.2435 15.4009 64.2435C15.8499 64.2435 16.1965 64.1537 16.4407 63.9741C16.685 63.7945 16.8502 63.5431 16.9364 63.2198C16.9867 63.0223 17.0101 62.6074 17.0065 61.9752C16.5826 62.4745 16.0546 62.7241 15.4224 62.7241C14.6358 62.7241 14.0269 62.4404 13.5959 61.8728C13.1649 61.3053 12.9494 60.6246 12.9494 59.8308C12.9494 59.2848 13.0481 58.782 13.2457 58.3222C13.4432 57.8588 13.7288 57.5014 14.1024 57.25C14.4795 56.9985 14.9213 56.8728 15.4278 56.8728C16.1031 56.8728 16.6598 57.1458 17.0981 57.6918V57.0021H17.9925V61.9483C17.9925 62.8391 17.9009 63.4695 17.7177 63.8394C17.5381 64.213 17.2507 64.5075 16.8556 64.723C16.4641 64.9386 15.981 65.0463 15.4062 65.0463C14.7238 65.0463 14.1724 64.8919 13.7522 64.583C13.3319 64.2776 13.1289 63.8161 13.1433 63.1983ZM13.9461 59.7608C13.9461 60.5115 14.0952 61.0593 14.3933 61.4041C14.6914 61.7489 15.065 61.9213 15.514 61.9213C15.9594 61.9213 16.333 61.7507 16.6347 61.4095C16.9364 61.0646 17.0873 60.5258 17.0873 59.7931C17.0873 59.0927 16.931 58.5646 16.6185 58.209C16.3096 57.8534 15.9361 57.6756 15.4978 57.6756C15.0668 57.6756 14.7004 57.8516 14.3987 58.2036C14.097 58.5521 13.9461 59.0711 13.9461 59.7608ZM19.1024 59.8631C19.1024 58.8035 19.3969 58.0187 19.986 57.5086C20.4781 57.0848 21.0779 56.8728 21.7856 56.8728C22.5722 56.8728 23.2152 57.1314 23.7144 57.6487C24.2137 58.1623 24.4634 58.8735 24.4634 59.7823C24.4634 60.5187 24.352 61.0988 24.1293 61.5226C23.9102 61.9429 23.5887 62.2697 23.1649 62.5032C22.7446 62.7367 22.2848 62.8534 21.7856 62.8534C20.9846 62.8534 20.3362 62.5966 19.8405 62.083C19.3484 61.5693 19.1024 60.8294 19.1024 59.8631ZM20.0991 59.8631C20.0991 60.5959 20.259 61.1455 20.5787 61.5118C20.8983 61.8746 21.3006 62.056 21.7856 62.056C22.2669 62.056 22.6674 61.8728 22.9871 61.5064C23.3068 61.1401 23.4666 60.5815 23.4666 59.8308C23.4666 59.1232 23.305 58.588 22.9817 58.2252C22.662 57.8588 22.2633 57.6756 21.7856 57.6756C21.3006 57.6756 20.8983 57.857 20.5787 58.2198C20.259 58.5826 20.0991 59.1304 20.0991 59.8631ZM32.389 62.7241V62.0021C32.0262 62.5697 31.4928 62.8534 30.7888 62.8534C30.3326 62.8534 29.9124 62.7277 29.528 62.4763C29.1473 62.2248 28.8509 61.8746 28.639 61.4256C28.4307 60.973 28.3265 60.454 28.3265 59.8685C28.3265 59.2974 28.4217 58.7802 28.6121 58.3168C28.8024 57.8498 29.088 57.4924 29.4687 57.2446C29.8495 56.9968 30.2751 56.8728 30.7457 56.8728C31.0905 56.8728 31.3976 56.9465 31.667 57.0937C31.9364 57.2374 32.1555 57.426 32.3244 57.6595V54.8254H33.2888V62.7241H32.389ZM29.3233 59.8685C29.3233 60.6013 29.4777 61.149 29.7866 61.5118C30.0955 61.8746 30.4601 62.056 30.8804 62.056C31.3042 62.056 31.6634 61.8836 31.958 61.5388C32.2561 61.1904 32.4052 60.6605 32.4052 59.9493C32.4052 59.1663 32.2543 58.5916 31.9526 58.2252C31.6509 57.8588 31.2791 57.6756 30.8373 57.6756C30.4062 57.6756 30.0453 57.8516 29.7543 58.2036C29.467 58.5557 29.3233 59.1106 29.3233 59.8685ZM38.736 60.8814L39.7381 61.0054C39.5801 61.5909 39.2874 62.0452 38.8599 62.3685C38.4325 62.6918 37.8865 62.8534 37.222 62.8534C36.3851 62.8534 35.7205 62.5966 35.2284 62.083C34.7399 61.5657 34.4957 60.8419 34.4957 59.9116C34.4957 58.949 34.7435 58.2019 35.2392 57.6702C35.7349 57.1386 36.3779 56.8728 37.1681 56.8728C37.9332 56.8728 38.5582 57.1332 39.0431 57.6541C39.528 58.1749 39.7705 58.9077 39.7705 59.8524C39.7705 59.9098 39.7687 59.996 39.7651 60.111H35.4978C35.5338 60.7396 35.7116 61.2209 36.0312 61.5549C36.3509 61.889 36.7496 62.056 37.2274 62.056C37.583 62.056 37.8865 61.9626 38.1379 61.7758C38.3894 61.5891 38.5887 61.2909 38.736 60.8814ZM35.5517 59.3136H38.7468C38.7037 58.8322 38.5815 58.4712 38.3804 58.2306C38.0715 57.857 37.671 57.6702 37.1789 57.6702C36.7335 57.6702 36.3581 57.8193 36.0528 58.1174C35.7511 58.4156 35.5841 58.8143 35.5517 59.3136ZM40.9397 62.7241V54.8254H41.9095V62.7241H40.9397ZM50.2231 60.6282L51.1767 60.7521C51.0726 61.4095 50.805 61.9249 50.3739 62.2985C49.9465 62.6684 49.4203 62.8534 48.7953 62.8534C48.0122 62.8534 47.3818 62.5984 46.9041 62.0883C46.43 61.5747 46.1929 60.8401 46.1929 59.8847C46.1929 59.2669 46.2953 58.7263 46.5 58.2629C46.7047 57.7996 47.0154 57.4529 47.4321 57.223C47.8524 56.9896 48.3085 56.8728 48.8006 56.8728C49.4221 56.8728 49.9303 57.0309 50.3254 57.347C50.7205 57.6595 50.9738 58.1049 51.0851 58.6832L50.1422 58.8286C50.0524 58.4443 49.8926 58.1552 49.6627 57.9612C49.4364 57.7672 49.1616 57.6702 48.8384 57.6702C48.3499 57.6702 47.9529 57.8462 47.6476 58.1983C47.3423 58.5467 47.1897 59.0998 47.1897 59.8577C47.1897 60.6264 47.3369 61.185 47.6315 61.5334C47.926 61.8818 48.3103 62.056 48.7845 62.056C49.1652 62.056 49.4831 61.9393 49.7381 61.7058C49.9932 61.4723 50.1548 61.1131 50.2231 60.6282ZM51.9849 62.7241V54.8254H52.9547V62.7241H51.9849ZM54.4687 55.9407V54.8254H55.4386V55.9407H54.4687ZM54.4687 62.7241V57.0021H55.4386V62.7241H54.4687ZM60.8373 60.8814L61.8394 61.0054C61.6814 61.5909 61.3886 62.0452 60.9612 62.3685C60.5338 62.6918 59.9878 62.8534 59.3233 62.8534C58.4863 62.8534 57.8218 62.5966 57.3297 62.083C56.8412 61.5657 56.597 60.8419 56.597 59.9116C56.597 58.949 56.8448 58.2019 57.3405 57.6702C57.8362 57.1386 58.4792 56.8728 59.2694 56.8728C60.0345 56.8728 60.6595 57.1332 61.1444 57.6541C61.6293 58.1749 61.8718 58.9077 61.8718 59.8524C61.8718 59.9098 61.87 59.996 61.8664 60.111H57.5991C57.6351 60.7396 57.8129 61.2209 58.1325 61.5549C58.4522 61.889 58.8509 62.056 59.3287 62.056C59.6843 62.056 59.9878 61.9626 60.2392 61.7758C60.4907 61.5891 60.69 61.2909 60.8373 60.8814ZM57.653 59.3136H60.8481C60.805 58.8322 60.6828 58.4712 60.4817 58.2306C60.1728 57.857 59.7723 57.6702 59.2802 57.6702C58.8348 57.6702 58.4594 57.8193 58.1541 58.1174C57.8524 58.4156 57.6853 58.8143 57.653 59.3136ZM63.0625 62.7241V57.0021H63.9353V57.8157C64.3556 57.1871 64.9626 56.8728 65.7565 56.8728C66.1013 56.8728 66.4174 56.9357 66.7047 57.0614C66.9957 57.1835 67.213 57.3452 67.3567 57.5463C67.5004 57.7475 67.6009 57.9863 67.6584 58.2629C67.6943 58.4425 67.7123 58.7568 67.7123 59.2058V62.7241H66.7425V59.2435C66.7425 58.8484 66.7047 58.5539 66.6293 58.3599C66.5539 58.1623 66.4192 58.0061 66.2252 57.8911C66.0348 57.7726 65.8103 57.7133 65.5517 57.7133C65.1386 57.7133 64.7812 57.8445 64.4795 58.1067C64.1814 58.3689 64.0323 58.8664 64.0323 59.5991V62.7241H63.0625ZM71.3222 61.8567L71.4623 62.7133C71.1893 62.7708 70.945 62.7996 70.7295 62.7996C70.3775 62.7996 70.1045 62.7439 69.9106 62.6325C69.7166 62.5212 69.5801 62.3757 69.5011 62.1961C69.4221 62.0129 69.3825 61.6304 69.3825 61.0485V57.7564H68.6713V57.0021H69.3825V55.5851L70.347 55.0032V57.0021H71.3222V57.7564H70.347V61.1024C70.347 61.3789 70.3631 61.5567 70.3955 61.6358C70.4314 61.7148 70.4871 61.7776 70.5625 61.8243C70.6415 61.871 70.7529 61.8944 70.8966 61.8944C71.0043 61.8944 71.1462 61.8818 71.3222 61.8567ZM76.1929 60.8814L77.195 61.0054C77.037 61.5909 76.7443 62.0452 76.3168 62.3685C75.8894 62.6918 75.3434 62.8534 74.6789 62.8534C73.842 62.8534 73.1774 62.5966 72.6853 62.083C72.1968 61.5657 71.9526 60.8419 71.9526 59.9116C71.9526 58.949 72.2004 58.2019 72.6961 57.6702C73.1918 57.1386 73.8348 56.8728 74.625 56.8728C75.3901 56.8728 76.0151 57.1332 76.5 57.6541C76.9849 58.1749 77.2274 58.9077 77.2274 59.8524C77.2274 59.9098 77.2256 59.996 77.222 60.111H72.9547C72.9907 60.7396 73.1685 61.2209 73.4881 61.5549C73.8078 61.889 74.2065 62.056 74.6843 62.056C75.0399 62.056 75.3434 61.9626 75.5948 61.7758C75.8463 61.5891 76.0456 61.2909 76.1929 60.8814ZM73.0086 59.3136H76.2037C76.1606 58.8322 76.0384 58.4712 75.8373 58.2306C75.5284 57.857 75.1279 57.6702 74.6358 57.6702C74.1904 57.6702 73.815 57.8193 73.5097 58.1174C73.208 58.4156 73.0409 58.8143 73.0086 59.3136Z" fill="#7561E5"/>
<path d="M233.605 50V43.0334H231.002V42.1013H237.263V43.0334H234.65V50H233.605ZM241.557 50V49.1595C241.112 49.806 240.506 50.1293 239.741 50.1293C239.404 50.1293 239.088 50.0647 238.793 49.9353C238.502 49.806 238.285 49.6444 238.141 49.4504C238.001 49.2529 237.902 49.0122 237.845 48.7284C237.805 48.5381 237.786 48.2364 237.786 47.8233V44.278H238.755V47.4515C238.755 47.958 238.775 48.2992 238.815 48.4752C238.876 48.7302 239.005 48.9314 239.203 49.0787C239.4 49.2223 239.644 49.2942 239.935 49.2942C240.226 49.2942 240.499 49.2205 240.754 49.0733C241.009 48.9224 241.189 48.7195 241.293 48.4644C241.401 48.2058 241.455 47.8323 241.455 47.3437V44.278H242.425V50H241.557ZM250.754 47.9041L251.708 48.028C251.604 48.6853 251.336 49.2008 250.905 49.5744C250.478 49.9443 249.952 50.1293 249.327 50.1293C248.543 50.1293 247.913 49.8743 247.435 49.3642C246.961 48.8506 246.724 48.116 246.724 47.1606C246.724 46.5427 246.827 46.0022 247.031 45.5388C247.236 45.0754 247.547 44.7288 247.963 44.4989C248.384 44.2654 248.84 44.1487 249.332 44.1487C249.953 44.1487 250.462 44.3068 250.857 44.6228C251.252 44.9353 251.505 45.3807 251.616 45.9591L250.673 46.1045C250.584 45.7202 250.424 45.431 250.194 45.2371C249.968 45.0431 249.693 44.9461 249.37 44.9461C248.881 44.9461 248.484 45.1221 248.179 45.4741C247.874 45.8226 247.721 46.3757 247.721 47.1336C247.721 47.9023 247.868 48.4608 248.163 48.8093C248.457 49.1577 248.842 49.3319 249.316 49.3319C249.696 49.3319 250.014 49.2152 250.269 48.9817C250.524 48.7482 250.686 48.389 250.754 47.9041ZM252.516 50V42.1013H253.486V50H252.516ZM255 43.2166V42.1013H255.97V43.2166H255ZM255 50V44.278H255.97V50H255ZM261.369 48.1573L262.371 48.2812C262.213 48.8667 261.92 49.3211 261.492 49.6444C261.065 49.9677 260.519 50.1293 259.855 50.1293C259.018 50.1293 258.353 49.8725 257.861 49.3588C257.372 48.8416 257.128 48.1178 257.128 47.1875C257.128 46.2249 257.376 45.4777 257.872 44.9461C258.367 44.4145 259.01 44.1487 259.801 44.1487C260.566 44.1487 261.191 44.4091 261.676 44.93C262.161 45.4508 262.403 46.1835 262.403 47.1282C262.403 47.1857 262.401 47.2719 262.398 47.3869H258.13C258.166 48.0154 258.344 48.4968 258.664 48.8308C258.983 49.1649 259.382 49.3319 259.86 49.3319C260.216 49.3319 260.519 49.2385 260.77 49.0517C261.022 48.8649 261.221 48.5668 261.369 48.1573ZM258.184 46.5894H261.379C261.336 46.1081 261.214 45.7471 261.013 45.5065C260.704 45.1329 260.304 44.9461 259.811 44.9461C259.366 44.9461 258.991 45.0952 258.685 45.3933C258.384 45.6915 258.217 46.0902 258.184 46.5894ZM263.594 50V44.278H264.467V45.0916C264.887 44.463 265.494 44.1487 266.288 44.1487C266.633 44.1487 266.949 44.2116 267.236 44.3373C267.527 44.4594 267.744 44.621 267.888 44.8222C268.032 45.0233 268.132 45.2622 268.19 45.5388C268.226 45.7184 268.244 46.0327 268.244 46.4817V50H267.274V46.5194C267.274 46.1243 267.236 45.8297 267.161 45.6358C267.085 45.4382 266.95 45.282 266.756 45.167C266.566 45.0485 266.342 44.9892 266.083 44.9892C265.67 44.9892 265.312 45.1203 265.011 45.3825C264.713 45.6448 264.564 46.1422 264.564 46.875V50H263.594ZM271.853 49.1325L271.994 49.9892C271.721 50.0467 271.476 50.0754 271.261 50.0754C270.909 50.0754 270.636 50.0198 270.442 49.9084C270.248 49.7971 270.111 49.6516 270.032 49.472C269.953 49.2888 269.914 48.9062 269.914 48.3244V45.0323H269.203V44.278H269.914V42.861L270.878 42.2791V44.278H271.853V45.0323H270.878V48.3782C270.878 48.6548 270.894 48.8326 270.927 48.9116C270.963 48.9907 271.018 49.0535 271.094 49.1002C271.173 49.1469 271.284 49.1703 271.428 49.1703C271.536 49.1703 271.677 49.1577 271.853 49.1325ZM276.724 48.1573L277.726 48.2812C277.568 48.8667 277.276 49.3211 276.848 49.6444C276.421 49.9677 275.875 50.1293 275.21 50.1293C274.373 50.1293 273.709 49.8725 273.217 49.3588C272.728 48.8416 272.484 48.1178 272.484 47.1875C272.484 46.2249 272.732 45.4777 273.227 44.9461C273.723 44.4145 274.366 44.1487 275.156 44.1487C275.921 44.1487 276.546 44.4091 277.031 44.93C277.516 45.4508 277.759 46.1835 277.759 47.1282C277.759 47.1857 277.757 47.2719 277.753 47.3869H273.486C273.522 48.0154 273.7 48.4968 274.019 48.8308C274.339 49.1649 274.738 49.3319 275.216 49.3319C275.571 49.3319 275.875 49.2385 276.126 49.0517C276.378 48.8649 276.577 48.5668 276.724 48.1573ZM273.54 46.5894H276.735C276.692 46.1081 276.57 45.7471 276.369 45.5065C276.06 45.1329 275.659 44.9461 275.167 44.9461C274.722 44.9461 274.346 45.0952 274.041 45.3933C273.739 45.6915 273.572 46.0902 273.54 46.5894ZM283.217 46.0237L281.843 45.7759C281.997 45.2227 282.263 44.8132 282.64 44.5474C283.017 44.2816 283.578 44.1487 284.321 44.1487C284.996 44.1487 285.499 44.2295 285.83 44.3912C286.16 44.5492 286.392 44.7522 286.525 45C286.661 45.2443 286.73 45.695 286.73 46.3524L286.713 48.1196C286.713 48.6225 286.737 48.9943 286.783 49.2349C286.834 49.472 286.925 49.727 287.058 50H285.56C285.521 49.8994 285.472 49.7504 285.415 49.5528C285.39 49.463 285.372 49.4037 285.361 49.375C285.102 49.6264 284.826 49.815 284.531 49.9407C284.237 50.0665 283.922 50.1293 283.588 50.1293C282.999 50.1293 282.534 49.9695 282.193 49.6498C281.855 49.3301 281.686 48.926 281.686 48.4375C281.686 48.1142 281.764 47.8269 281.918 47.5754C282.073 47.3204 282.288 47.1264 282.565 46.9935C282.845 46.857 283.247 46.7385 283.772 46.6379C284.479 46.505 284.969 46.3811 285.242 46.2662V46.1153C285.242 45.8244 285.171 45.6178 285.027 45.4957C284.883 45.37 284.612 45.3071 284.213 45.3071C283.944 45.3071 283.734 45.361 283.583 45.4687C283.432 45.5729 283.31 45.7579 283.217 46.0237ZM285.242 47.2522C285.048 47.3168 284.741 47.394 284.321 47.4838C283.901 47.5736 283.626 47.6616 283.497 47.7478C283.299 47.8879 283.2 48.0657 283.2 48.2812C283.2 48.4932 283.279 48.6764 283.437 48.8308C283.596 48.9853 283.797 49.0625 284.041 49.0625C284.314 49.0625 284.574 48.9727 284.822 48.7931C285.005 48.6566 285.126 48.4896 285.183 48.292C285.223 48.1627 285.242 47.9167 285.242 47.5539V47.2522ZM288.184 44.278H289.596V45.1185C289.779 44.8312 290.027 44.5977 290.339 44.4181C290.652 44.2385 290.999 44.1487 291.379 44.1487C292.044 44.1487 292.608 44.4091 293.071 44.93C293.534 45.4508 293.766 46.1764 293.766 47.1067C293.766 48.0621 293.533 48.8057 293.066 49.3373C292.599 49.8653 292.033 50.1293 291.369 50.1293C291.052 50.1293 290.765 50.0665 290.506 49.9407C290.251 49.815 289.982 49.5995 289.698 49.2942V52.1767H288.184V44.278ZM289.682 47.042C289.682 47.685 289.81 48.1609 290.065 48.4698C290.32 48.7751 290.63 48.9278 290.997 48.9278C291.349 48.9278 291.642 48.7877 291.875 48.5075C292.108 48.2238 292.225 47.7604 292.225 47.1175C292.225 46.5176 292.105 46.0722 291.864 45.7812C291.624 45.4903 291.325 45.3448 290.97 45.3448C290.6 45.3448 290.293 45.4885 290.048 45.7759C289.804 46.0596 289.682 46.4817 289.682 47.042ZM296.422 50H294.908V44.278H296.315V45.0916C296.555 44.7073 296.771 44.454 296.961 44.3319C297.155 44.2098 297.374 44.1487 297.619 44.1487C297.963 44.1487 298.296 44.2439 298.615 44.4343L298.147 45.7543C297.892 45.5891 297.654 45.5065 297.435 45.5065C297.223 45.5065 297.044 45.5657 296.897 45.6843C296.749 45.7992 296.633 46.0093 296.546 46.3147C296.464 46.62 296.422 47.2593 296.422 48.2328V50ZM303.039 50V49.1433C302.83 49.4486 302.556 49.6893 302.214 49.8653C301.877 50.0413 301.519 50.1293 301.142 50.1293C300.758 50.1293 300.413 50.0449 300.108 49.8761C299.802 49.7073 299.582 49.4702 299.445 49.1649C299.309 48.8596 299.24 48.4375 299.24 47.8987V44.278H300.754V46.9073C300.754 47.7119 300.781 48.2058 300.835 48.389C300.893 48.5686 300.995 48.7123 301.142 48.82C301.29 48.9242 301.476 48.9763 301.703 48.9763C301.961 48.9763 302.193 48.9062 302.398 48.7662C302.602 48.6225 302.742 48.4465 302.818 48.2381C302.893 48.0262 302.931 47.5108 302.931 46.6918V44.278H304.445V50H303.039ZM309.332 48.1789L310.841 48.4321C310.647 48.9853 310.339 49.4073 309.919 49.6983C309.503 49.9856 308.98 50.1293 308.351 50.1293C307.356 50.1293 306.62 49.8042 306.142 49.1541C305.765 48.6333 305.577 47.9759 305.577 47.1821C305.577 46.2338 305.824 45.4921 306.32 44.9569C306.816 44.4181 307.443 44.1487 308.2 44.1487C309.052 44.1487 309.723 44.4307 310.216 44.9946C310.708 45.555 310.943 46.4152 310.921 47.5754H307.128C307.139 48.0244 307.261 48.3746 307.495 48.6261C307.728 48.8739 308.019 48.9978 308.367 48.9978C308.605 48.9978 308.804 48.9332 308.966 48.8039C309.127 48.6746 309.249 48.4662 309.332 48.1789ZM309.418 46.6487C309.407 46.2105 309.294 45.8782 309.079 45.6519C308.863 45.4221 308.601 45.3071 308.292 45.3071C307.962 45.3071 307.689 45.4274 307.473 45.6681C307.258 45.9088 307.152 46.2356 307.155 46.6487H309.418ZM312.096 50V42.1013H313.61V44.9461C314.077 44.4145 314.63 44.1487 315.269 44.1487C315.966 44.1487 316.543 44.4019 316.999 44.9084C317.455 45.4113 317.683 46.1351 317.683 47.0797C317.683 48.0568 317.45 48.8093 316.983 49.3373C316.519 49.8653 315.955 50.1293 315.291 50.1293C314.964 50.1293 314.641 50.0485 314.321 49.8869C314.005 49.7216 313.732 49.4792 313.502 49.1595V50H312.096ZM313.599 47.0151C313.599 47.6078 313.693 48.046 313.879 48.3297C314.142 48.732 314.49 48.9332 314.925 48.9332C315.259 48.9332 315.542 48.7913 315.776 48.5075C316.013 48.2202 316.131 47.7694 316.131 47.1552C316.131 46.5014 316.013 46.0309 315.776 45.7435C315.539 45.4526 315.235 45.3071 314.865 45.3071C314.503 45.3071 314.201 45.449 313.96 45.7328C313.719 46.0129 313.599 46.4404 313.599 47.0151ZM320.038 46.0237L318.664 45.7759C318.818 45.2227 319.084 44.8132 319.461 44.5474C319.838 44.2816 320.399 44.1487 321.142 44.1487C321.818 44.1487 322.32 44.2295 322.651 44.3912C322.981 44.5492 323.213 44.7522 323.346 45C323.482 45.2443 323.551 45.695 323.551 46.3524L323.534 48.1196C323.534 48.6225 323.558 48.9943 323.605 49.2349C323.655 49.472 323.746 49.727 323.879 50H322.381C322.342 49.8994 322.293 49.7504 322.236 49.5528C322.211 49.463 322.193 49.4037 322.182 49.375C321.923 49.6264 321.647 49.815 321.352 49.9407C321.058 50.0665 320.744 50.1293 320.409 50.1293C319.82 50.1293 319.355 49.9695 319.014 49.6498C318.676 49.3301 318.508 48.926 318.508 48.4375C318.508 48.1142 318.585 47.8269 318.739 47.5754C318.894 47.3204 319.109 47.1264 319.386 46.9935C319.666 46.857 320.068 46.7385 320.593 46.6379C321.3 46.505 321.791 46.3811 322.064 46.2662V46.1153C322.064 45.8244 321.992 45.6178 321.848 45.4957C321.704 45.37 321.433 45.3071 321.034 45.3071C320.765 45.3071 320.555 45.361 320.404 45.4687C320.253 45.5729 320.131 45.7579 320.038 46.0237ZM322.064 47.2522C321.87 47.3168 321.563 47.394 321.142 47.4838C320.722 47.5736 320.447 47.6616 320.318 47.7478C320.12 47.8879 320.022 48.0657 320.022 48.2812C320.022 48.4932 320.101 48.6764 320.259 48.8308C320.417 48.9853 320.618 49.0625 320.862 49.0625C321.135 49.0625 321.395 48.9727 321.643 48.7931C321.827 48.6566 321.947 48.4896 322.004 48.292C322.044 48.1627 322.064 47.9167 322.064 47.5539V47.2522ZM225.108 63V55.1013H226.078V63H225.108ZM227.225 60.139C227.225 59.0794 227.52 58.2945 228.109 57.7845C228.601 57.3606 229.201 57.1487 229.908 57.1487C230.695 57.1487 231.338 57.4073 231.837 57.9246C232.337 58.4382 232.586 59.1494 232.586 60.0582C232.586 60.7945 232.475 61.3746 232.252 61.7985C232.033 62.2187 231.712 62.5456 231.288 62.7791C230.867 63.0126 230.408 63.1293 229.908 63.1293C229.107 63.1293 228.459 62.8725 227.963 62.3588C227.471 61.8452 227.225 61.1052 227.225 60.139ZM228.222 60.139C228.222 60.8718 228.382 61.4213 228.702 61.7877C229.021 62.1505 229.423 62.3319 229.908 62.3319C230.39 62.3319 230.79 62.1487 231.11 61.7823C231.43 61.4159 231.589 60.8574 231.589 60.1067C231.589 59.3991 231.428 58.8639 231.105 58.5011C230.785 58.1347 230.386 57.9515 229.908 57.9515C229.423 57.9515 229.021 58.1329 228.702 58.4957C228.382 58.8585 228.222 59.4062 228.222 60.139ZM233.341 61.292L234.3 61.1412C234.353 61.5255 234.503 61.82 234.747 62.0248C234.995 62.2295 235.339 62.3319 235.781 62.3319C236.227 62.3319 236.557 62.2421 236.773 62.0625C236.988 61.8793 237.096 61.6656 237.096 61.4213C237.096 61.2022 237.001 61.0298 236.81 60.9041C236.677 60.8179 236.347 60.7083 235.819 60.5754C235.108 60.3958 234.614 60.2414 234.337 60.1121C234.064 59.9792 233.856 59.7978 233.712 59.5679C233.572 59.3344 233.502 59.0776 233.502 58.7974C233.502 58.5424 233.56 58.3071 233.675 58.0916C233.793 57.8725 233.953 57.6911 234.154 57.5474C234.305 57.4361 234.51 57.3427 234.768 57.2672C235.031 57.1882 235.311 57.1487 235.609 57.1487C236.058 57.1487 236.451 57.2134 236.789 57.3427C237.13 57.472 237.381 57.648 237.543 57.8707C237.705 58.0898 237.816 58.3843 237.877 58.7543L236.929 58.8836C236.886 58.5891 236.76 58.3592 236.552 58.194C236.347 58.0287 236.056 57.9461 235.679 57.9461C235.233 57.9461 234.916 58.0198 234.725 58.167C234.535 58.3143 234.44 58.4867 234.44 58.6843C234.44 58.81 234.479 58.9231 234.558 59.0237C234.637 59.1279 234.761 59.2141 234.93 59.2823C235.027 59.3182 235.313 59.4009 235.787 59.5302C236.473 59.7134 236.95 59.8642 237.22 59.9828C237.493 60.0977 237.707 60.2665 237.861 60.4892C238.015 60.7119 238.093 60.9885 238.093 61.319C238.093 61.6422 237.997 61.9476 237.807 62.2349C237.62 62.5187 237.349 62.7396 236.994 62.8976C236.638 63.0521 236.236 63.1293 235.787 63.1293C235.043 63.1293 234.476 62.9749 234.084 62.6659C233.696 62.357 233.448 61.8991 233.341 61.292ZM246.051 62.2942C245.691 62.5995 245.345 62.815 245.011 62.9407C244.68 63.0665 244.325 63.1293 243.944 63.1293C243.315 63.1293 242.832 62.9767 242.495 62.6713C242.157 62.3624 241.988 61.9691 241.988 61.4914C241.988 61.2112 242.051 60.9562 242.177 60.7263C242.306 60.4928 242.473 60.306 242.678 60.1659C242.886 60.0259 243.12 59.9199 243.378 59.8481C243.569 59.7978 243.856 59.7493 244.24 59.7026C245.023 59.6092 245.6 59.4978 245.97 59.3685C245.973 59.2356 245.975 59.1512 245.975 59.1153C245.975 58.7202 245.884 58.4418 245.7 58.2802C245.453 58.0611 245.084 57.9515 244.596 57.9515C244.14 57.9515 243.802 58.0323 243.583 58.194C243.367 58.352 243.208 58.634 243.103 59.0399L242.155 58.9106C242.241 58.5047 242.383 58.1778 242.581 57.93C242.778 57.6785 243.064 57.4864 243.437 57.3534C243.811 57.217 244.244 57.1487 244.736 57.1487C245.224 57.1487 245.621 57.2062 245.927 57.3211C246.232 57.4361 246.457 57.5815 246.6 57.7575C246.744 57.93 246.844 58.1491 246.902 58.4149C246.934 58.5801 246.95 58.8782 246.95 59.3093V60.6024C246.95 61.504 246.97 62.0751 247.01 62.3157C247.053 62.5528 247.135 62.7809 247.258 63H246.245C246.144 62.7989 246.079 62.5636 246.051 62.2942ZM245.97 60.1282C245.618 60.2719 245.09 60.394 244.386 60.4946C243.987 60.5521 243.705 60.6167 243.54 60.6886C243.375 60.7604 243.247 60.8664 243.157 61.0065C243.068 61.143 243.023 61.2956 243.023 61.4644C243.023 61.7231 243.12 61.9386 243.314 62.111C243.511 62.2834 243.798 62.3696 244.176 62.3696C244.549 62.3696 244.881 62.2888 245.172 62.1272C245.463 61.9619 245.677 61.7374 245.814 61.4537C245.918 61.2346 245.97 60.9113 245.97 60.4838V60.1282ZM250.048 63L247.872 57.278H248.895L250.124 60.7047C250.257 61.0747 250.379 61.4591 250.49 61.8578C250.577 61.556 250.697 61.1932 250.851 60.7694L252.123 57.278H253.12L250.954 63H250.048ZM257.71 62.2942C257.351 62.5995 257.004 62.815 256.67 62.9407C256.34 63.0665 255.984 63.1293 255.603 63.1293C254.975 63.1293 254.492 62.9767 254.154 62.6713C253.816 62.3624 253.648 61.9691 253.648 61.4914C253.648 61.2112 253.71 60.9562 253.836 60.7263C253.966 60.4928 254.133 60.306 254.337 60.1659C254.546 60.0259 254.779 59.9199 255.038 59.8481C255.228 59.7978 255.515 59.7493 255.9 59.7026C256.683 59.6092 257.259 59.4978 257.629 59.3685C257.633 59.2356 257.635 59.1512 257.635 59.1153C257.635 58.7202 257.543 58.4418 257.36 58.2802C257.112 58.0611 256.744 57.9515 256.255 57.9515C255.799 57.9515 255.462 58.0323 255.242 58.194C255.027 58.352 254.867 58.634 254.763 59.0399L253.815 58.9106C253.901 58.5047 254.043 58.1778 254.24 57.93C254.438 57.6785 254.723 57.4864 255.097 57.3534C255.471 57.217 255.903 57.1487 256.395 57.1487C256.884 57.1487 257.281 57.2062 257.586 57.3211C257.892 57.4361 258.116 57.5815 258.26 57.7575C258.403 57.93 258.504 58.1491 258.561 58.4149C258.594 58.5801 258.61 58.8782 258.61 59.3093V60.6024C258.61 61.504 258.63 62.0751 258.669 62.3157C258.712 62.5528 258.795 62.7809 258.917 63H257.904C257.804 62.7989 257.739 62.5636 257.71 62.2942ZM257.629 60.1282C257.277 60.2719 256.749 60.394 256.045 60.4946C255.647 60.5521 255.365 60.6167 255.199 60.6886C255.034 60.7604 254.907 60.8664 254.817 61.0065C254.727 61.143 254.682 61.2956 254.682 61.4644C254.682 61.7231 254.779 61.9386 254.973 62.111C255.171 62.2834 255.458 62.3696 255.835 62.3696C256.209 62.3696 256.541 62.2888 256.832 62.1272C257.123 61.9619 257.337 61.7374 257.473 61.4537C257.577 61.2346 257.629 60.9113 257.629 60.4838V60.1282ZM260.119 63V57.278H260.991V58.0916C261.412 57.463 262.019 57.1487 262.812 57.1487C263.157 57.1487 263.473 57.2116 263.761 57.3373C264.052 57.4594 264.269 57.621 264.413 57.8222C264.556 58.0233 264.657 58.2622 264.714 58.5388C264.75 58.7184 264.768 59.0327 264.768 59.4817V63H263.798V59.5194C263.798 59.1243 263.761 58.8297 263.685 58.6358C263.61 58.4382 263.475 58.282 263.281 58.167C263.091 58.0485 262.866 57.9892 262.608 57.9892C262.195 57.9892 261.837 58.1203 261.536 58.3825C261.237 58.6448 261.088 59.1422 261.088 59.875V63H260.119ZM269.995 60.9041L270.948 61.028C270.844 61.6853 270.577 62.2008 270.145 62.5744C269.718 62.9443 269.192 63.1293 268.567 63.1293C267.784 63.1293 267.153 62.8743 266.676 62.3642C266.202 61.8506 265.964 61.116 265.964 60.1606C265.964 59.5427 266.067 59.0022 266.272 58.5388C266.476 58.0754 266.787 57.7288 267.204 57.4989C267.624 57.2654 268.08 57.1487 268.572 57.1487C269.194 57.1487 269.702 57.3068 270.097 57.6228C270.492 57.9353 270.745 58.3807 270.857 58.9591L269.914 59.1045C269.824 58.7202 269.664 58.431 269.434 58.2371C269.208 58.0431 268.933 57.9461 268.61 57.9461C268.121 57.9461 267.724 58.1221 267.419 58.4741C267.114 58.8226 266.961 59.3757 266.961 60.1336C266.961 60.9023 267.108 61.4608 267.403 61.8093C267.698 62.1577 268.082 62.3319 268.556 62.3319C268.937 62.3319 269.255 62.2152 269.51 61.9817C269.765 61.7482 269.926 61.389 269.995 60.9041ZM275.695 61.1573L276.697 61.2812C276.539 61.8667 276.246 62.3211 275.819 62.6444C275.392 62.9677 274.846 63.1293 274.181 63.1293C273.344 63.1293 272.68 62.8725 272.188 62.3588C271.699 61.8416 271.455 61.1178 271.455 60.1875C271.455 59.2249 271.703 58.4777 272.198 57.9461C272.694 57.4145 273.337 57.1487 274.127 57.1487C274.892 57.1487 275.517 57.4091 276.002 57.93C276.487 58.4508 276.73 59.1835 276.73 60.1282C276.73 60.1857 276.728 60.2719 276.724 60.3869H272.457C272.493 61.0154 272.671 61.4968 272.99 61.8308C273.31 62.1649 273.709 62.3319 274.186 62.3319C274.542 62.3319 274.846 62.2385 275.097 62.0517C275.348 61.8649 275.548 61.5668 275.695 61.1573ZM272.511 59.5894H275.706C275.663 59.1081 275.541 58.7471 275.339 58.5065C275.031 58.1329 274.63 57.9461 274.138 57.9461C273.693 57.9461 273.317 58.0952 273.012 58.3933C272.71 58.6915 272.543 59.0902 272.511 59.5894ZM277.532 61.292L278.491 61.1412C278.545 61.5255 278.694 61.82 278.939 62.0248C279.186 62.2295 279.531 62.3319 279.973 62.3319C280.418 62.3319 280.749 62.2421 280.964 62.0625C281.18 61.8793 281.288 61.6656 281.288 61.4213C281.288 61.2022 281.193 61.0298 281.002 60.9041C280.869 60.8179 280.539 60.7083 280.011 60.5754C279.3 60.3958 278.806 60.2414 278.529 60.1121C278.256 59.9792 278.048 59.7978 277.904 59.5679C277.764 59.3344 277.694 59.0776 277.694 58.7974C277.694 58.5424 277.751 58.3071 277.866 58.0916C277.985 57.8725 278.145 57.6911 278.346 57.5474C278.497 57.4361 278.702 57.3427 278.96 57.2672C279.222 57.1882 279.503 57.1487 279.801 57.1487C280.25 57.1487 280.643 57.2134 280.981 57.3427C281.322 57.472 281.573 57.648 281.735 57.8707C281.897 58.0898 282.008 58.3843 282.069 58.7543L281.121 58.8836C281.078 58.5891 280.952 58.3592 280.744 58.194C280.539 58.0287 280.248 57.9461 279.871 57.9461C279.425 57.9461 279.107 58.0198 278.917 58.167C278.727 58.3143 278.631 58.4867 278.631 58.6843C278.631 58.81 278.671 58.9231 278.75 59.0237C278.829 59.1279 278.953 59.2141 279.122 59.2823C279.219 59.3182 279.504 59.4009 279.978 59.5302C280.665 59.7134 281.142 59.8642 281.412 59.9828C281.685 60.0977 281.898 60.2665 282.053 60.4892C282.207 60.7119 282.284 60.9885 282.284 61.319C282.284 61.6422 282.189 61.9476 281.999 62.2349C281.812 62.5187 281.541 62.7396 281.185 62.8976C280.83 63.0521 280.427 63.1293 279.978 63.1293C279.235 63.1293 278.667 62.9749 278.276 62.6659C277.888 62.357 277.64 61.8991 277.532 61.292ZM290.426 61.1573L291.428 61.2812C291.27 61.8667 290.977 62.3211 290.55 62.6444C290.122 62.9677 289.576 63.1293 288.912 63.1293C288.075 63.1293 287.41 62.8725 286.918 62.3588C286.43 61.8416 286.185 61.1178 286.185 60.1875C286.185 59.2249 286.433 58.4777 286.929 57.9461C287.425 57.4145 288.068 57.1487 288.858 57.1487C289.623 57.1487 290.248 57.4091 290.733 57.93C291.218 58.4508 291.46 59.1835 291.46 60.1282C291.46 60.1857 291.458 60.2719 291.455 60.3869H287.188C287.223 61.0154 287.401 61.4968 287.721 61.8308C288.041 62.1649 288.439 62.3319 288.917 62.3319C289.273 62.3319 289.576 62.2385 289.828 62.0517C290.079 61.8649 290.278 61.5668 290.426 61.1573ZM287.241 59.5894H290.436C290.393 59.1081 290.271 58.7471 290.07 58.5065C289.761 58.1329 289.361 57.9461 288.869 57.9461C288.423 57.9461 288.048 58.0952 287.742 58.3933C287.441 58.6915 287.274 59.0902 287.241 59.5894ZM292.651 63V57.278H293.524V58.0916C293.944 57.463 294.551 57.1487 295.345 57.1487C295.69 57.1487 296.006 57.2116 296.293 57.3373C296.584 57.4594 296.801 57.621 296.945 57.8222C297.089 58.0233 297.189 58.2622 297.247 58.5388C297.283 58.7184 297.301 59.0327 297.301 59.4817V63H296.331V59.5194C296.331 59.1243 296.293 58.8297 296.218 58.6358C296.142 58.4382 296.008 58.282 295.814 58.167C295.623 58.0485 295.399 57.9892 295.14 57.9892C294.727 57.9892 294.37 58.1203 294.068 58.3825C293.77 58.6448 293.621 59.1422 293.621 59.875V63H292.651ZM300.383 63L298.206 57.278H299.23L300.458 60.7047C300.591 61.0747 300.713 61.4591 300.824 61.8578C300.911 61.556 301.031 61.1932 301.185 60.7694L302.457 57.278H303.454L301.288 63H300.383ZM304.65 63V57.278H305.62V63H304.65ZM304.601 56.5668L305.318 55.0582H306.589L305.404 56.5668H304.601ZM311.115 62.2942C310.756 62.5995 310.409 62.815 310.075 62.9407C309.745 63.0665 309.389 63.1293 309.009 63.1293C308.38 63.1293 307.897 62.9767 307.559 62.6713C307.222 62.3624 307.053 61.9691 307.053 61.4914C307.053 61.2112 307.116 60.9562 307.241 60.7263C307.371 60.4928 307.538 60.306 307.742 60.1659C307.951 60.0259 308.184 59.9199 308.443 59.8481C308.633 59.7978 308.921 59.7493 309.305 59.7026C310.088 59.6092 310.665 59.4978 311.034 59.3685C311.038 59.2356 311.04 59.1512 311.04 59.1153C311.04 58.7202 310.948 58.4418 310.765 58.2802C310.517 58.0611 310.149 57.9515 309.661 57.9515C309.204 57.9515 308.867 58.0323 308.648 58.194C308.432 58.352 308.272 58.634 308.168 59.0399L307.22 58.9106C307.306 58.5047 307.448 58.1778 307.645 57.93C307.843 57.6785 308.129 57.4864 308.502 57.3534C308.876 57.217 309.309 57.1487 309.801 57.1487C310.289 57.1487 310.686 57.2062 310.991 57.3211C311.297 57.4361 311.521 57.5815 311.665 57.7575C311.809 57.93 311.909 58.1491 311.967 58.4149C311.999 58.5801 312.015 58.8782 312.015 59.3093V60.6024C312.015 61.504 312.035 62.0751 312.074 62.3157C312.117 62.5528 312.2 62.7809 312.322 63H311.309C311.209 62.7989 311.144 62.5636 311.115 62.2942ZM311.034 60.1282C310.682 60.2719 310.154 60.394 309.45 60.4946C309.052 60.5521 308.77 60.6167 308.605 60.6886C308.439 60.7604 308.312 60.8664 308.222 61.0065C308.132 61.143 308.087 61.2956 308.087 61.4644C308.087 61.7231 308.184 61.9386 308.378 62.111C308.576 62.2834 308.863 62.3696 309.24 62.3696C309.614 62.3696 309.946 62.2888 310.237 62.1272C310.528 61.9619 310.742 61.7374 310.878 61.4537C310.982 61.2346 311.034 60.9113 311.034 60.4838V60.1282ZM317.236 63V62.278C316.873 62.8455 316.34 63.1293 315.636 63.1293C315.18 63.1293 314.759 63.0036 314.375 62.7522C313.994 62.5007 313.698 62.1505 313.486 61.7015C313.278 61.2489 313.173 60.7299 313.173 60.1444C313.173 59.5733 313.269 59.056 313.459 58.5927C313.649 58.1257 313.935 57.7683 314.316 57.5205C314.696 57.2726 315.122 57.1487 315.593 57.1487C315.938 57.1487 316.245 57.2223 316.514 57.3696C316.783 57.5133 317.003 57.7019 317.171 57.9353V55.1013H318.136V63H317.236ZM314.17 60.1444C314.17 60.8772 314.325 61.4249 314.634 61.7877C314.943 62.1505 315.307 62.3319 315.727 62.3319C316.151 62.3319 316.51 62.1595 316.805 61.8147C317.103 61.4662 317.252 60.9364 317.252 60.2252C317.252 59.4422 317.101 58.8675 316.8 58.5011C316.498 58.1347 316.126 57.9515 315.684 57.9515C315.253 57.9515 314.892 58.1275 314.601 58.4795C314.314 58.8315 314.17 59.3865 314.17 60.1444ZM319.305 60.139C319.305 59.0794 319.599 58.2945 320.189 57.7845C320.681 57.3606 321.281 57.1487 321.988 57.1487C322.775 57.1487 323.418 57.4073 323.917 57.9246C324.416 58.4382 324.666 59.1494 324.666 60.0582C324.666 60.7945 324.555 61.3746 324.332 61.7985C324.113 62.2187 323.791 62.5456 323.367 62.7791C322.947 63.0126 322.487 63.1293 321.988 63.1293C321.187 63.1293 320.539 62.8725 320.043 62.3588C319.551 61.8452 319.305 61.1052 319.305 60.139ZM320.302 60.139C320.302 60.8718 320.462 61.4213 320.781 61.7877C321.101 62.1505 321.503 62.3319 321.988 62.3319C322.469 62.3319 322.87 62.1487 323.19 61.7823C323.509 61.4159 323.669 60.8574 323.669 60.1067C323.669 59.3991 323.508 58.8639 323.184 58.5011C322.865 58.1347 322.466 57.9515 321.988 57.9515C321.503 57.9515 321.101 58.1329 320.781 58.4957C320.462 58.8585 320.302 59.4062 320.302 60.139ZM325.42 61.292L326.379 61.1412C326.433 61.5255 326.582 61.82 326.827 62.0248C327.074 62.2295 327.419 62.3319 327.861 62.3319C328.306 62.3319 328.637 62.2421 328.852 62.0625C329.068 61.8793 329.176 61.6656 329.176 61.4213C329.176 61.2022 329.08 61.0298 328.89 60.9041C328.757 60.8179 328.427 60.7083 327.899 60.5754C327.187 60.3958 326.694 60.2414 326.417 60.1121C326.144 59.9792 325.936 59.7978 325.792 59.5679C325.652 59.3344 325.582 59.0776 325.582 58.7974C325.582 58.5424 325.639 58.3071 325.754 58.0916C325.873 57.8725 326.033 57.6911 326.234 57.5474C326.385 57.4361 326.589 57.3427 326.848 57.2672C327.11 57.1882 327.39 57.1487 327.689 57.1487C328.138 57.1487 328.531 57.2134 328.869 57.3427C329.21 57.472 329.461 57.648 329.623 57.8707C329.784 58.0898 329.896 58.3843 329.957 58.7543L329.009 58.8836C328.966 58.5891 328.84 58.3592 328.631 58.194C328.427 58.0287 328.136 57.9461 327.759 57.9461C327.313 57.9461 326.995 58.0198 326.805 58.167C326.615 58.3143 326.519 58.4867 326.519 58.6843C326.519 58.81 326.559 58.9231 326.638 59.0237C326.717 59.1279 326.841 59.2141 327.01 59.2823C327.107 59.3182 327.392 59.4009 327.866 59.5302C328.552 59.7134 329.03 59.8642 329.3 59.9828C329.573 60.0977 329.786 60.2665 329.941 60.4892C330.095 60.7119 330.172 60.9885 330.172 61.319C330.172 61.6422 330.077 61.9476 329.887 62.2349C329.7 62.5187 329.429 62.7396 329.073 62.8976C328.718 63.0521 328.315 63.1293 327.866 63.1293C327.123 63.1293 326.555 62.9749 326.164 62.6659C325.776 62.357 325.528 61.8991 325.42 61.292Z" fill="#7561E5"/>
<path d="M109.586 49.7241V41.8254H115.297V42.7575H110.631V45.1767H115.001V46.1034H110.631V48.792H115.481V49.7241H109.586ZM116.801 49.7241V44.0021H117.673V44.8157C118.094 44.1871 118.701 43.8728 119.495 43.8728C119.839 43.8728 120.156 43.9357 120.443 44.0614C120.734 44.1835 120.951 44.3452 121.095 44.5463C121.239 44.7475 121.339 44.9863 121.397 45.2629C121.432 45.4425 121.45 45.7568 121.45 46.2058V49.7241H120.481V46.2435C120.481 45.8484 120.443 45.5539 120.367 45.3599C120.292 45.1623 120.157 45.0061 119.963 44.8911C119.773 44.7726 119.548 44.7133 119.29 44.7133C118.877 44.7133 118.519 44.8445 118.218 45.1067C117.92 45.3689 117.77 45.8664 117.77 46.5991V49.7241H116.801ZM124.532 49.7241L122.356 44.0021H123.379L124.608 47.4289C124.741 47.7988 124.863 48.1832 124.974 48.5819C125.06 48.2802 125.181 47.9174 125.335 47.4935L126.607 44.0021H127.603L125.438 49.7241H124.532ZM128.8 49.7241V44.0021H129.769V49.7241H128.8ZM128.751 43.2909L129.468 41.7823H130.739L129.554 43.2909H128.751ZM135.265 49.0183C134.906 49.3236 134.559 49.5391 134.225 49.6649C133.895 49.7906 133.539 49.8534 133.158 49.8534C132.53 49.8534 132.047 49.7008 131.709 49.3955C131.371 49.0865 131.203 48.6932 131.203 48.2155C131.203 47.9353 131.265 47.6803 131.391 47.4504C131.52 47.2169 131.688 47.0302 131.892 46.8901C132.101 46.75 132.334 46.644 132.593 46.5722C132.783 46.5219 133.07 46.4734 133.455 46.4267C134.238 46.3333 134.814 46.222 135.184 46.0927C135.188 45.9598 135.19 45.8753 135.19 45.8394C135.19 45.4443 135.098 45.1659 134.915 45.0043C134.667 44.7852 134.299 44.6756 133.81 44.6756C133.354 44.6756 133.017 44.7564 132.797 44.9181C132.582 45.0761 132.422 45.3581 132.318 45.764L131.37 45.6347C131.456 45.2288 131.598 44.9019 131.795 44.6541C131.993 44.4026 132.278 44.2105 132.652 44.0776C133.026 43.9411 133.458 43.8728 133.95 43.8728C134.439 43.8728 134.836 43.9303 135.141 44.0452C135.446 44.1602 135.671 44.3057 135.815 44.4817C135.958 44.6541 136.059 44.8732 136.116 45.139C136.149 45.3042 136.165 45.6024 136.165 46.0334V47.3265C136.165 48.2281 136.185 48.7992 136.224 49.0399C136.267 49.2769 136.35 49.505 136.472 49.7241H135.459C135.358 49.523 135.294 49.2877 135.265 49.0183ZM135.184 46.8524C134.832 46.996 134.304 47.1182 133.6 47.2187C133.202 47.2762 132.92 47.3409 132.754 47.4127C132.589 47.4845 132.462 47.5905 132.372 47.7306C132.282 47.8671 132.237 48.0197 132.237 48.1886C132.237 48.4472 132.334 48.6627 132.528 48.8351C132.726 49.0075 133.013 49.0937 133.39 49.0937C133.764 49.0937 134.096 49.0129 134.387 48.8513C134.678 48.686 134.892 48.4615 135.028 48.1778C135.132 47.9587 135.184 47.6354 135.184 47.208V46.8524ZM137.286 48.0161L138.245 47.8653C138.298 48.2496 138.448 48.5442 138.692 48.7489C138.94 48.9536 139.284 49.056 139.726 49.056C140.172 49.056 140.502 48.9662 140.718 48.7866C140.933 48.6034 141.041 48.3897 141.041 48.1455C141.041 47.9263 140.946 47.7539 140.755 47.6282C140.622 47.542 140.292 47.4325 139.764 47.2996C139.053 47.12 138.559 46.9655 138.282 46.8362C138.009 46.7033 137.801 46.5219 137.657 46.292C137.517 46.0585 137.447 45.8017 137.447 45.5215C137.447 45.2665 137.505 45.0312 137.62 44.8157C137.738 44.5966 137.898 44.4152 138.099 44.2715C138.25 44.1602 138.455 44.0668 138.713 43.9914C138.976 43.9123 139.256 43.8728 139.554 43.8728C140.003 43.8728 140.396 43.9375 140.734 44.0668C141.075 44.1961 141.327 44.3721 141.488 44.5948C141.65 44.8139 141.761 45.1085 141.822 45.4784L140.874 45.6077C140.831 45.3132 140.705 45.0833 140.497 44.9181C140.292 44.7529 140.001 44.6702 139.624 44.6702C139.179 44.6702 138.861 44.7439 138.67 44.8911C138.48 45.0384 138.385 45.2108 138.385 45.4084C138.385 45.5341 138.424 45.6473 138.503 45.7478C138.582 45.852 138.706 45.9382 138.875 46.0064C138.972 46.0424 139.258 46.125 139.732 46.2543C140.418 46.4375 140.895 46.5883 141.165 46.7069C141.438 46.8218 141.652 46.9906 141.806 47.2133C141.96 47.436 142.038 47.7126 142.038 48.0431C142.038 48.3664 141.943 48.6717 141.752 48.959C141.565 49.2428 141.294 49.4637 140.939 49.6218C140.583 49.7762 140.181 49.8534 139.732 49.8534C138.988 49.8534 138.421 49.699 138.029 49.3901C137.641 49.0812 137.393 48.6232 137.286 48.0161ZM146.24 49.7241V41.8254H147.21V49.7241H146.24ZM148.358 46.8631C148.358 45.8035 148.652 45.0187 149.241 44.5086C149.733 44.0848 150.333 43.8728 151.041 43.8728C151.828 43.8728 152.471 44.1314 152.97 44.6487C153.469 45.1623 153.719 45.8735 153.719 46.7823C153.719 47.5187 153.607 48.0988 153.385 48.5226C153.166 48.9429 152.844 49.2697 152.42 49.5032C152 49.7367 151.54 49.8534 151.041 49.8534C150.24 49.8534 149.592 49.5966 149.096 49.083C148.604 48.5693 148.358 47.8294 148.358 46.8631ZM149.355 46.8631C149.355 47.5959 149.514 48.1455 149.834 48.5118C150.154 48.8746 150.556 49.056 151.041 49.056C151.522 49.056 151.923 48.8728 152.242 48.5064C152.562 48.1401 152.722 47.5815 152.722 46.8308C152.722 46.1232 152.56 45.588 152.237 45.2252C151.917 44.8588 151.519 44.6756 151.041 44.6756C150.556 44.6756 150.154 44.857 149.834 45.2198C149.514 45.5826 149.355 46.1304 149.355 46.8631ZM154.473 48.0161L155.432 47.8653C155.486 48.2496 155.635 48.5442 155.879 48.7489C156.127 48.9536 156.472 49.056 156.914 49.056C157.359 49.056 157.69 48.9662 157.905 48.7866C158.121 48.6034 158.228 48.3897 158.228 48.1455C158.228 47.9263 158.133 47.7539 157.943 47.6282C157.81 47.542 157.48 47.4325 156.952 47.2996C156.24 47.12 155.746 46.9655 155.47 46.8362C155.197 46.7033 154.989 46.5219 154.845 46.292C154.705 46.0585 154.635 45.8017 154.635 45.5215C154.635 45.2665 154.692 45.0312 154.807 44.8157C154.926 44.5966 155.085 44.4152 155.287 44.2715C155.438 44.1602 155.642 44.0668 155.901 43.9914C156.163 43.9123 156.443 43.8728 156.741 43.8728C157.19 43.8728 157.584 43.9375 157.921 44.0668C158.263 44.1961 158.514 44.3721 158.676 44.5948C158.837 44.8139 158.949 45.1085 159.01 45.4784L158.061 45.6077C158.018 45.3132 157.893 45.0833 157.684 44.9181C157.48 44.7529 157.189 44.6702 156.811 44.6702C156.366 44.6702 156.048 44.7439 155.858 44.8911C155.667 45.0384 155.572 45.2108 155.572 45.4084C155.572 45.5341 155.612 45.6473 155.691 45.7478C155.77 45.852 155.894 45.9382 156.063 46.0064C156.159 46.0424 156.445 46.125 156.919 46.2543C157.605 46.4375 158.083 46.5883 158.352 46.7069C158.625 46.8218 158.839 46.9906 158.994 47.2133C159.148 47.436 159.225 47.7126 159.225 48.0431C159.225 48.3664 159.13 48.6717 158.94 48.959C158.753 49.2428 158.482 49.4637 158.126 49.6218C157.77 49.7762 157.368 49.8534 156.919 49.8534C156.176 49.8534 155.608 49.699 155.217 49.3901C154.829 49.0812 154.581 48.6232 154.473 48.0161ZM164.645 45.7478L163.272 45.5C163.426 44.9468 163.692 44.5373 164.069 44.2715C164.446 44.0057 165.006 43.8728 165.75 43.8728C166.425 43.8728 166.928 43.9536 167.259 44.1153C167.589 44.2733 167.821 44.4763 167.954 44.7241C168.09 44.9684 168.158 45.4192 168.158 46.0765L168.142 47.8437C168.142 48.3466 168.166 48.7184 168.212 48.959C168.263 49.1961 168.354 49.4511 168.487 49.7241H166.989C166.95 49.6235 166.901 49.4745 166.844 49.2769C166.819 49.1871 166.801 49.1279 166.79 49.0991C166.531 49.3506 166.255 49.5391 165.96 49.6649C165.666 49.7906 165.351 49.8534 165.017 49.8534C164.428 49.8534 163.963 49.6936 163.622 49.3739C163.284 49.0542 163.115 48.6501 163.115 48.1616C163.115 47.8383 163.193 47.551 163.347 47.2996C163.501 47.0445 163.717 46.8506 163.994 46.7177C164.274 46.5812 164.676 46.4626 165.2 46.3621C165.908 46.2291 166.398 46.1052 166.671 45.9903V45.8394C166.671 45.5485 166.599 45.3419 166.456 45.2198C166.312 45.0941 166.041 45.0312 165.642 45.0312C165.373 45.0312 165.163 45.0851 165.012 45.1929C164.861 45.297 164.739 45.482 164.645 45.7478ZM166.671 46.9763C166.477 47.0409 166.17 47.1182 165.75 47.208C165.33 47.2978 165.055 47.3858 164.926 47.472C164.728 47.6121 164.629 47.7899 164.629 48.0054C164.629 48.2173 164.708 48.4005 164.866 48.5549C165.024 48.7094 165.226 48.7866 165.47 48.7866C165.743 48.7866 166.003 48.6968 166.251 48.5172C166.434 48.3807 166.555 48.2137 166.612 48.0161C166.652 47.8868 166.671 47.6408 166.671 47.278V46.9763ZM171.23 49.7241L168.923 44.0021H170.513L171.591 46.9224L171.903 47.8976C171.986 47.6498 172.038 47.4863 172.059 47.4073C172.11 47.2457 172.163 47.084 172.221 46.9224L173.309 44.0021H174.866L172.593 49.7241H171.23ZM176.93 45.7478L175.556 45.5C175.71 44.9468 175.976 44.5373 176.353 44.2715C176.731 44.0057 177.291 43.8728 178.034 43.8728C178.71 43.8728 179.213 43.9536 179.543 44.1153C179.874 44.2733 180.105 44.4763 180.238 44.7241C180.375 44.9684 180.443 45.4192 180.443 46.0765L180.427 47.8437C180.427 48.3466 180.45 48.7184 180.497 48.959C180.547 49.1961 180.639 49.4511 180.772 49.7241H179.274C179.234 49.6235 179.186 49.4745 179.128 49.2769C179.103 49.1871 179.085 49.1279 179.074 49.0991C178.816 49.3506 178.539 49.5391 178.245 49.6649C177.95 49.7906 177.636 49.8534 177.302 49.8534C176.713 49.8534 176.247 49.6936 175.906 49.3739C175.569 49.0542 175.4 48.6501 175.4 48.1616C175.4 47.8383 175.477 47.551 175.631 47.2996C175.786 47.0445 176.001 46.8506 176.278 46.7177C176.558 46.5812 176.96 46.4626 177.485 46.3621C178.193 46.2291 178.683 46.1052 178.956 45.9903V45.8394C178.956 45.5485 178.884 45.3419 178.74 45.2198C178.597 45.0941 178.325 45.0312 177.927 45.0312C177.657 45.0312 177.447 45.0851 177.296 45.1929C177.145 45.297 177.023 45.482 176.93 45.7478ZM178.956 46.9763C178.762 47.0409 178.455 47.1182 178.034 47.208C177.614 47.2978 177.339 47.3858 177.21 47.472C177.013 47.6121 176.914 47.7899 176.914 48.0054C176.914 48.2173 176.993 48.4005 177.151 48.5549C177.309 48.7094 177.51 48.7866 177.754 48.7866C178.027 48.7866 178.288 48.6968 178.536 48.5172C178.719 48.3807 178.839 48.2137 178.897 48.0161C178.936 47.8868 178.956 47.6408 178.956 47.278V46.9763ZM187.145 49.7241H185.631V46.8039C185.631 46.186 185.599 45.7873 185.534 45.6077C185.47 45.4246 185.364 45.2827 185.217 45.1821C185.073 45.0815 184.899 45.0312 184.694 45.0312C184.432 45.0312 184.196 45.1031 183.988 45.2468C183.78 45.3904 183.636 45.5808 183.557 45.8179C183.482 46.0549 183.444 46.4932 183.444 47.1325V49.7241H181.93V44.0021H183.336V44.8427C183.835 44.1961 184.464 43.8728 185.222 43.8728C185.556 43.8728 185.861 43.9339 186.138 44.056C186.415 44.1746 186.623 44.3272 186.763 44.514C186.907 44.7008 187.005 44.9127 187.059 45.1498C187.117 45.3868 187.145 45.7263 187.145 46.1681V49.7241ZM193.676 45.6939L192.183 45.9633C192.133 45.6652 192.018 45.4407 191.838 45.2899C191.662 45.139 191.432 45.0636 191.149 45.0636C190.772 45.0636 190.47 45.1947 190.244 45.4569C190.021 45.7155 189.909 46.1501 189.909 46.7608C189.909 47.4396 190.023 47.9192 190.249 48.1993C190.479 48.4795 190.786 48.6196 191.17 48.6196C191.458 48.6196 191.693 48.5388 191.876 48.3771C192.059 48.2119 192.189 47.9299 192.264 47.5312L193.751 47.7845C193.597 48.4669 193.3 48.9824 192.862 49.3308C192.424 49.6792 191.837 49.8534 191.1 49.8534C190.263 49.8534 189.595 49.5894 189.096 49.0614C188.6 48.5334 188.352 47.8024 188.352 46.8685C188.352 45.9238 188.602 45.1893 189.101 44.6649C189.601 44.1368 190.276 43.8728 191.127 43.8728C191.824 43.8728 192.377 44.0237 192.787 44.3254C193.2 44.6235 193.496 45.0797 193.676 45.6939ZM198.142 47.903L199.651 48.1562C199.457 48.7094 199.15 49.1314 198.73 49.4224C198.313 49.7098 197.79 49.8534 197.162 49.8534C196.167 49.8534 195.43 49.5284 194.953 48.8782C194.575 48.3574 194.387 47.7001 194.387 46.9062C194.387 45.958 194.635 45.2162 195.13 44.681C195.626 44.1422 196.253 43.8728 197.011 43.8728C197.862 43.8728 198.534 44.1548 199.026 44.7187C199.518 45.2791 199.753 46.1394 199.732 47.2996H195.939C195.949 47.7485 196.071 48.0988 196.305 48.3502C196.538 48.598 196.829 48.722 197.178 48.722C197.415 48.722 197.614 48.6573 197.776 48.528C197.938 48.3987 198.06 48.1904 198.142 47.903ZM198.228 46.3728C198.218 45.9346 198.105 45.6024 197.889 45.3761C197.673 45.1462 197.411 45.0312 197.102 45.0312C196.772 45.0312 196.499 45.1516 196.283 45.3922C196.068 45.6329 195.962 45.9598 195.966 46.3728H198.228ZM200.437 48.0916L201.957 47.8599C202.022 48.1544 202.153 48.3789 202.35 48.5334C202.548 48.6843 202.824 48.7597 203.18 48.7597C203.571 48.7597 203.866 48.6878 204.064 48.5442C204.196 48.4436 204.263 48.3089 204.263 48.1401C204.263 48.0251 204.227 47.9299 204.155 47.8545C204.08 47.7827 203.911 47.7162 203.649 47.6552C202.427 47.3858 201.653 47.1397 201.327 46.917C200.874 46.6081 200.648 46.1789 200.648 45.6293C200.648 45.1336 200.843 44.7169 201.235 44.3793C201.626 44.0416 202.233 43.8728 203.056 43.8728C203.839 43.8728 204.421 44.0003 204.802 44.2554C205.182 44.5104 205.445 44.8876 205.588 45.3868L204.161 45.6508C204.099 45.4281 203.983 45.2575 203.81 45.139C203.642 45.0205 203.399 44.9612 203.083 44.9612C202.684 44.9612 202.399 45.0169 202.226 45.1282C202.111 45.2072 202.054 45.3096 202.054 45.4353C202.054 45.5431 202.104 45.6347 202.205 45.7101C202.341 45.8107 202.812 45.9526 203.616 46.1358C204.425 46.3189 204.989 46.5434 205.308 46.8093C205.624 47.0786 205.782 47.454 205.782 47.9353C205.782 48.4598 205.563 48.9105 205.125 49.2877C204.687 49.6649 204.038 49.8534 203.18 49.8534C202.401 49.8534 201.783 49.6954 201.327 49.3793C200.874 49.0632 200.578 48.634 200.437 48.0916ZM131.876 62.7241V62.0021C131.513 62.5697 130.98 62.8534 130.276 62.8534C129.82 62.8534 129.399 62.7277 129.015 62.4763C128.634 62.2248 128.338 61.8746 128.126 61.4256C127.918 60.973 127.814 60.454 127.814 59.8685C127.814 59.2974 127.909 58.7802 128.099 58.3168C128.29 57.8498 128.575 57.4924 128.956 57.2446C129.337 56.9968 129.762 56.8728 130.233 56.8728C130.578 56.8728 130.885 56.9465 131.154 57.0937C131.423 57.2374 131.643 57.426 131.811 57.6595V54.8254H132.776V62.7241H131.876ZM128.81 59.8685C128.81 60.6013 128.965 61.149 129.274 61.5118C129.583 61.8746 129.947 62.056 130.367 62.056C130.791 62.056 131.151 61.8836 131.445 61.5388C131.743 61.1904 131.892 60.6605 131.892 59.9493C131.892 59.1663 131.741 58.5916 131.44 58.2252C131.138 57.8588 130.766 57.6756 130.324 57.6756C129.893 57.6756 129.532 57.8516 129.241 58.2036C128.954 58.5557 128.81 59.1106 128.81 59.8685ZM138.223 60.8814L139.225 61.0054C139.067 61.5909 138.774 62.0452 138.347 62.3685C137.92 62.6918 137.374 62.8534 136.709 62.8534C135.872 62.8534 135.208 62.5966 134.716 62.083C134.227 61.5657 133.983 60.8419 133.983 59.9116C133.983 58.949 134.231 58.2019 134.726 57.6702C135.222 57.1386 135.865 56.8728 136.655 56.8728C137.42 56.8728 138.045 57.1332 138.53 57.6541C139.015 58.1749 139.258 58.9077 139.258 59.8524C139.258 59.9098 139.256 59.996 139.252 60.111H134.985C135.021 60.7396 135.199 61.2209 135.518 61.5549C135.838 61.889 136.237 62.056 136.714 62.056C137.07 62.056 137.374 61.9626 137.625 61.7758C137.876 61.5891 138.076 61.2909 138.223 60.8814ZM135.039 59.3136H138.234C138.191 58.8322 138.069 58.4712 137.867 58.2306C137.559 57.857 137.158 57.6702 136.666 57.6702C136.221 57.6702 135.845 57.8193 135.54 58.1174C135.238 58.4156 135.071 58.8143 135.039 59.3136ZM140.427 62.7241V54.8254H141.397V62.7241H140.427ZM145.976 64.917V57.0021H146.86V57.7457C147.068 57.4547 147.304 57.2374 147.566 57.0937C147.828 56.9465 148.146 56.8728 148.519 56.8728C149.008 56.8728 149.439 56.9985 149.813 57.25C150.186 57.5014 150.468 57.857 150.658 58.3168C150.849 58.773 150.944 59.274 150.944 59.82C150.944 60.4055 150.838 60.9335 150.626 61.4041C150.418 61.871 150.112 62.2302 149.71 62.4817C149.311 62.7295 148.891 62.8534 148.449 62.8534C148.126 62.8534 147.835 62.7852 147.577 62.6487C147.321 62.5122 147.111 62.3398 146.946 62.1314V64.917H145.976ZM146.855 59.8955C146.855 60.6318 147.004 61.176 147.302 61.528C147.6 61.88 147.961 62.056 148.385 62.056C148.816 62.056 149.184 61.8746 149.489 61.5118C149.798 61.1455 149.953 60.5797 149.953 59.8146C149.953 59.0855 149.802 58.5395 149.5 58.1767C149.202 57.8139 148.844 57.6325 148.428 57.6325C148.015 57.6325 147.648 57.8265 147.329 58.2144C147.013 58.5988 146.855 59.1591 146.855 59.8955ZM152.108 62.7241V57.0021H152.981V57.8696C153.203 57.4637 153.408 57.1961 153.595 57.0668C153.785 56.9375 153.994 56.8728 154.22 56.8728C154.547 56.8728 154.879 56.977 155.217 57.1853L154.883 58.0851C154.645 57.945 154.408 57.875 154.171 57.875C153.959 57.875 153.769 57.9396 153.6 58.0689C153.431 58.1947 153.311 58.3707 153.239 58.597C153.131 58.9418 153.078 59.3189 153.078 59.7284V62.7241H152.108ZM155.432 59.8631C155.432 58.8035 155.727 58.0187 156.316 57.5086C156.808 57.0848 157.408 56.8728 158.115 56.8728C158.902 56.8728 159.545 57.1314 160.044 57.6487C160.543 58.1623 160.793 58.8735 160.793 59.7823C160.793 60.5187 160.682 61.0988 160.459 61.5226C160.24 61.9429 159.918 62.2697 159.495 62.5032C159.074 62.7367 158.615 62.8534 158.115 62.8534C157.314 62.8534 156.666 62.5966 156.17 62.083C155.678 61.5693 155.432 60.8294 155.432 59.8631ZM156.429 59.8631C156.429 60.5959 156.589 61.1455 156.908 61.5118C157.228 61.8746 157.63 62.056 158.115 62.056C158.597 62.056 158.997 61.8728 159.317 61.5064C159.636 61.1401 159.796 60.5815 159.796 59.8308C159.796 59.1232 159.635 58.588 159.311 58.2252C158.992 57.8588 158.593 57.6756 158.115 57.6756C157.63 57.6756 157.228 57.857 156.908 58.2198C156.589 58.5826 156.429 59.1304 156.429 59.8631ZM161.892 64.9278L161.784 64.0172C161.996 64.0747 162.181 64.1034 162.339 64.1034C162.555 64.1034 162.727 64.0675 162.857 63.9957C162.986 63.9238 163.092 63.8233 163.175 63.6939C163.236 63.597 163.334 63.3563 163.471 62.972C163.489 62.9181 163.518 62.8391 163.557 62.7349L161.386 57.0021H162.431L163.622 60.3157C163.776 60.736 163.915 61.1778 164.037 61.6411C164.148 61.1957 164.281 60.7611 164.435 60.3373L165.658 57.0021H166.628L164.452 62.8211C164.218 63.4497 164.037 63.8825 163.907 64.1196C163.735 64.4393 163.537 64.6728 163.315 64.82C163.092 64.9709 162.826 65.0463 162.517 65.0463C162.33 65.0463 162.122 65.0068 161.892 64.9278ZM171.37 60.8814L172.372 61.0054C172.214 61.5909 171.921 62.0452 171.494 62.3685C171.066 62.6918 170.52 62.8534 169.856 62.8534C169.019 62.8534 168.354 62.5966 167.862 62.083C167.374 61.5657 167.129 60.8419 167.129 59.9116C167.129 58.949 167.377 58.2019 167.873 57.6702C168.369 57.1386 169.011 56.8728 169.802 56.8728C170.567 56.8728 171.192 57.1332 171.677 57.6541C172.162 58.1749 172.404 58.9077 172.404 59.8524C172.404 59.9098 172.402 59.996 172.399 60.111H168.131C168.167 60.7396 168.345 61.2209 168.665 61.5549C168.985 61.889 169.383 62.056 169.861 62.056C170.217 62.056 170.52 61.9626 170.772 61.7758C171.023 61.5891 171.222 61.2909 171.37 60.8814ZM168.185 59.3136H171.38C171.337 58.8322 171.215 58.4712 171.014 58.2306C170.705 57.857 170.305 57.6702 169.813 57.6702C169.367 57.6702 168.992 57.8193 168.686 58.1174C168.385 58.4156 168.218 58.8143 168.185 59.3136ZM177.329 60.6282L178.282 60.7521C178.178 61.4095 177.911 61.9249 177.48 62.2985C177.052 62.6684 176.526 62.8534 175.901 62.8534C175.118 62.8534 174.487 62.5984 174.01 62.0883C173.536 61.5747 173.298 60.8401 173.298 59.8847C173.298 59.2669 173.401 58.7263 173.606 58.2629C173.81 57.7996 174.121 57.4529 174.538 57.223C174.958 56.9896 175.414 56.8728 175.906 56.8728C176.528 56.8728 177.036 57.0309 177.431 57.347C177.826 57.6595 178.079 58.1049 178.191 58.6832L177.248 58.8286C177.158 58.4443 176.998 58.1552 176.768 57.9612C176.542 57.7672 176.267 57.6702 175.944 57.6702C175.455 57.6702 175.059 57.8462 174.753 58.1983C174.448 58.5467 174.295 59.0998 174.295 59.8577C174.295 60.6264 174.443 61.185 174.737 61.5334C175.032 61.8818 175.416 62.056 175.89 62.056C176.271 62.056 176.589 61.9393 176.844 61.7058C177.099 61.4723 177.26 61.1131 177.329 60.6282ZM181.23 61.8567L181.37 62.7133C181.097 62.7708 180.852 62.7996 180.637 62.7996C180.285 62.7996 180.012 62.7439 179.818 62.6325C179.624 62.5212 179.487 62.3757 179.408 62.1961C179.329 62.0129 179.29 61.6304 179.29 61.0485V57.7564H178.579V57.0021H179.29V55.5851L180.254 55.0032V57.0021H181.23V57.7564H180.254V61.1024C180.254 61.3789 180.27 61.5567 180.303 61.6358C180.339 61.7148 180.394 61.7776 180.47 61.8243C180.549 61.871 180.66 61.8944 180.804 61.8944C180.912 61.8944 181.054 61.8818 181.23 61.8567ZM181.822 59.8631C181.822 58.8035 182.117 58.0187 182.706 57.5086C183.198 57.0848 183.798 56.8728 184.505 56.8728C185.292 56.8728 185.935 57.1314 186.434 57.6487C186.934 58.1623 187.183 58.8735 187.183 59.7823C187.183 60.5187 187.072 61.0988 186.849 61.5226C186.63 61.9429 186.309 62.2697 185.885 62.5032C185.464 62.7367 185.005 62.8534 184.505 62.8534C183.704 62.8534 183.056 62.5966 182.56 62.083C182.068 61.5693 181.822 60.8294 181.822 59.8631ZM182.819 59.8631C182.819 60.5959 182.979 61.1455 183.298 61.5118C183.618 61.8746 184.02 62.056 184.505 62.056C184.987 62.056 185.387 61.8728 185.707 61.5064C186.027 61.1401 186.186 60.5815 186.186 59.8308C186.186 59.1232 186.025 58.588 185.702 58.2252C185.382 57.8588 184.983 57.6756 184.505 57.6756C184.02 57.6756 183.618 57.857 183.298 58.2198C182.979 58.5826 182.819 59.1304 182.819 59.8631Z" fill="#7561E5"/>
<path d="M38.7586 30.8966C47.2905 30.8966 54.2069 23.9801 54.2069 15.4483C54.2069 6.91643 47.2905 0 38.7586 0C30.2268 0 23.3104 6.91643 23.3104 15.4483C23.3104 23.9801 30.2268 30.8966 38.7586 30.8966Z" fill="#7561E5"/>
<mask id="path-12-inside-1" fill="white">
<path fill-rule="evenodd" clip-rule="evenodd" d="M43.4752 22.1496C44.4422 21.2053 45.1796 20.0563 45.6672 18.7348C46.5557 16.3251 46.5056 13.6731 46.4652 11.5421L46.4648 11.5282C46.4566 11.3537 46.4514 11.1695 46.4485 10.9644C46.4337 9.96416 45.6384 9.13666 44.638 9.08088C42.5523 8.96449 40.9388 8.28424 39.5599 6.9405L39.5482 6.92942C39.3274 6.72722 39.0517 6.62439 38.7749 6.62079V6.62105C38.7747 6.62105 38.7744 6.62104 38.7741 6.62104C38.4871 6.61675 38.1987 6.71972 37.9698 6.92968L37.9577 6.94075C36.5791 8.28449 34.9656 8.96474 32.8799 9.08113C31.8795 9.13691 31.0843 9.96441 31.0695 10.9646C31.0665 11.1684 31.0613 11.3529 31.0531 11.5285L31.0524 11.5612C31.0119 13.6881 30.9615 16.3349 31.8469 18.7376C32.3338 20.059 33.071 21.2074 34.0384 22.1517C35.1403 23.2265 36.5834 24.0802 38.3274 24.6884C38.3843 24.708 38.4431 24.7243 38.503 24.7363C38.5879 24.7529 38.6734 24.7615 38.7585 24.7615H38.7741C38.854 24.7604 38.9346 24.752 39.0137 24.7363C39.0691 24.7252 39.1242 24.7104 39.1774 24.6925C39.182 24.6909 39.1866 24.6894 39.1912 24.6878C40.9331 24.0785 42.3745 23.2244 43.4752 22.1496Z"/>
</mask>
<path d="M45.6672 18.7348L47.7376 19.4988L47.7378 19.4983L45.6672 18.7348ZM43.4752 22.1496L45.017 23.7286L45.017 23.7286L43.4752 22.1496ZM46.4652 11.5421L48.6717 11.5002L48.6715 11.4881L48.6711 11.476L46.4652 11.5421ZM46.4648 11.5282L48.6707 11.4621L48.6701 11.4436L48.6693 11.4251L46.4648 11.5282ZM46.4485 10.9644L48.6551 10.9331L48.6551 10.9317L46.4485 10.9644ZM44.638 9.08088L44.5151 11.2844L44.5152 11.2844L44.638 9.08088ZM39.5599 6.9405L41.1002 5.35997L41.0864 5.34657L41.0724 5.33341L39.5599 6.9405ZM39.5482 6.92942L41.0607 5.32234L41.0498 5.31212L41.0388 5.30205L39.5482 6.92942ZM38.7749 6.62079L38.8036 4.41408L36.568 4.38502V6.62079H38.7749ZM38.7749 6.62105L38.7448 8.82774L40.9818 8.85827V6.62105H38.7749ZM38.7741 6.62104L38.7412 8.82769L38.7455 8.82775L38.7741 6.62104ZM37.9698 6.92968L36.4781 5.30326L36.4759 5.3052L37.9698 6.92968ZM37.9577 6.94075L36.4639 5.31627L36.4403 5.33799L36.4173 5.36037L37.9577 6.94075ZM32.8799 9.08113L33.0027 11.2846L33.0029 11.2846L32.8799 9.08113ZM31.0695 10.9646L28.8628 10.932L28.8628 10.9332L31.0695 10.9646ZM31.0531 11.5285L28.8486 11.426L28.8473 11.4539L28.8467 11.4817L31.0531 11.5285ZM31.0524 11.5612L28.846 11.5144L28.8459 11.5191L31.0524 11.5612ZM31.8469 18.7376L33.9177 17.9746L33.9176 17.9745L31.8469 18.7376ZM34.0384 22.1517L32.4969 23.7309L32.4974 23.7314L34.0384 22.1517ZM38.3274 24.6884L37.6006 26.7723L37.6113 26.7759L38.3274 24.6884ZM38.503 24.7363L38.0683 26.9L38.0791 26.9021L38.503 24.7363ZM38.7741 24.7615V26.9684H38.7895L38.8048 26.9682L38.7741 24.7615ZM39.0137 24.7363L39.4414 26.9014L39.4485 26.9L39.0137 24.7363ZM39.1774 24.6925L38.474 22.6007L38.4728 22.6011L39.1774 24.6925ZM39.1912 24.6878L39.9175 26.7717L39.9198 26.7709L39.1912 24.6878ZM43.5967 17.9709C43.2176 18.9983 42.6557 19.8653 41.9333 20.5707L45.017 23.7286C46.2287 22.5453 47.1416 21.1143 47.7376 19.4988L43.5967 17.9709ZM44.2587 11.5839C44.3004 13.7796 44.3186 16.0133 43.5966 17.9713L47.7378 19.4983C48.7929 16.6369 48.7109 13.5665 48.6717 11.5002L44.2587 11.5839ZM44.2589 11.5944L44.2593 11.6082L48.6711 11.476L48.6707 11.4621L44.2589 11.5944ZM44.2418 10.9957C44.245 11.2198 44.2508 11.4284 44.2603 11.6314L48.6693 11.4251C48.6624 11.279 48.6578 11.1192 48.6551 10.9331L44.2418 10.9957ZM44.5152 11.2844C44.4331 11.2798 44.3647 11.2425 44.3217 11.1978C44.2787 11.153 44.2431 11.082 44.2418 10.9971L48.6551 10.9317C48.6231 8.77054 46.9154 6.99753 44.7609 6.87741L44.5152 11.2844ZM38.0197 8.52103C39.8138 10.2694 41.9459 11.141 44.5151 11.2844L44.761 6.87741C43.1588 6.788 42.0638 6.29909 41.1002 5.35997L38.0197 8.52103ZM38.0357 8.53651L38.0474 8.54758L41.0724 5.33341L41.0607 5.32234L38.0357 8.53651ZM38.7462 8.8275C38.4921 8.82419 38.2444 8.72801 38.0575 8.5568L41.0388 5.30205C40.4104 4.72643 39.6114 4.42458 38.8036 4.41408L38.7462 8.8275ZM40.9818 6.62105V6.62079H36.568V6.62105H40.9818ZM38.7455 8.82775L38.7448 8.82774L38.805 4.41436C38.8043 4.41435 38.8036 4.41434 38.8028 4.41433L38.7455 8.82775ZM39.4615 8.55609C39.267 8.73448 39.0069 8.83166 38.7412 8.82769L38.8071 4.41439C37.9673 4.40184 37.1304 4.70496 36.4781 5.30326L39.4615 8.55609ZM39.4515 8.56522L39.4636 8.55415L36.4759 5.3052L36.4639 5.31627L39.4515 8.56522ZM33.0029 11.2846C35.572 11.1412 37.7042 10.2697 39.4981 8.52112L36.4173 5.36037C35.454 6.29932 34.3592 6.78825 32.7569 6.87767L33.0029 11.2846ZM33.2761 10.9973C33.2748 11.0822 33.2392 11.1533 33.1962 11.198C33.1532 11.2428 33.0849 11.28 33.0027 11.2846L32.757 6.87766C30.6025 6.99778 28.8948 8.77079 28.8628 10.932L33.2761 10.9973ZM33.2576 11.631C33.2671 11.4274 33.2729 11.2189 33.2761 10.9961L28.8628 10.9332C28.8601 11.1179 28.8555 11.2783 28.8486 11.426L33.2576 11.631ZM33.2588 11.6079L33.2595 11.5752L28.8467 11.4817L28.846 11.5144L33.2588 11.6079ZM33.9176 17.9745C33.1987 16.0236 33.2171 13.7953 33.2589 11.6032L28.8459 11.5191C28.8066 13.5809 28.7243 16.6463 29.7761 19.5006L33.9176 17.9745ZM35.58 20.5724C34.8572 19.8669 34.2958 19.001 33.9177 17.9746L29.7761 19.5006C30.3717 21.1171 31.2848 22.5478 32.4969 23.7309L35.58 20.5724ZM39.0542 22.6047C37.5552 22.0819 36.4085 21.3807 35.5795 20.5719L32.4974 23.7314C33.872 25.0723 35.6115 26.0785 37.6006 26.7722L39.0542 22.6047ZM38.9378 22.5727C38.9816 22.5815 39.0169 22.5918 39.0435 22.601L37.6113 26.7759C37.7517 26.8241 37.9046 26.8671 38.0683 26.9L38.9378 22.5727ZM38.7585 22.5546C38.8217 22.5546 38.8782 22.561 38.927 22.5705L38.0791 26.9021C38.2976 26.9449 38.5251 26.9684 38.7585 26.9684V22.5546ZM38.7741 22.5546H38.7585V26.9684H38.7741V22.5546ZM38.586 22.5713C38.6371 22.5612 38.6894 22.5556 38.7435 22.5548L38.8048 26.9682C39.0186 26.9652 39.232 26.9427 39.4414 26.9014L38.586 22.5713ZM38.4728 22.6011C38.5077 22.5894 38.5426 22.58 38.579 22.5727L39.4485 26.9C39.5956 26.8704 39.7408 26.8315 39.882 26.7839L38.4728 22.6011ZM38.465 22.6038C38.4681 22.6027 38.4711 22.6017 38.474 22.6007L39.8808 26.7843C39.893 26.7802 39.9052 26.776 39.9175 26.7717L38.465 22.6038ZM41.9333 20.5707C41.1049 21.3796 39.9596 22.081 38.4626 22.6046L39.9198 26.7709C41.9067 26.076 43.644 25.0693 45.017 23.7286L41.9333 20.5707Z" fill="white" mask="url(#path-12-inside-1)"/>
<path d="M41.8606 14.7743L38.5664 18.0689L37.8546 18.7807C37.6864 18.9489 37.4658 19.0329 37.2455 19.0329C37.025 19.0329 36.8046 18.9489 36.6363 18.7807L35.1058 17.2496C34.7695 16.9133 34.7695 16.3685 35.1058 16.032C35.4417 15.6957 35.9871 15.6957 36.3234 16.032L37.2455 16.9541L40.6429 13.5566C40.9793 13.2201 41.5247 13.2201 41.8606 13.5566C42.1969 13.893 42.1969 14.4384 41.8606 14.7743Z" fill="white"/>
<circle cx="396.276" cy="15.4483" r="15.4483" fill="#7561E5"/>
<path fill-rule="evenodd" clip-rule="evenodd" d="M392.903 5.51724C392.384 5.51724 391.962 5.93866 391.962 6.45872V6.46411C391.962 7.72645 392.311 8.94295 392.954 9.99322H392.903C392.384 9.99322 391.962 10.4149 391.962 10.9347C391.962 11.2105 392.081 11.4586 392.27 11.6308L390.441 12.8599C388.568 14.1197 387.449 16.2204 387.449 18.4783C387.449 20.1196 388.043 21.7042 389.123 22.9399C390.204 24.1783 391.696 24.9772 393.323 25.189C394.298 25.3159 395.279 25.3793 396.261 25.3793C397.242 25.3793 398.223 25.3159 399.198 25.189C400.825 24.9772 402.317 24.1783 403.399 22.9399C404.478 21.7042 405.072 20.1196 405.072 18.4783C405.072 16.2204 403.953 14.1197 402.08 12.8599L400.251 11.6308C400.44 11.4586 400.559 11.2105 400.559 10.9347C400.559 10.4149 400.138 9.99322 399.618 9.99322H399.568C400.21 8.94314 400.559 7.72648 400.559 6.46411V6.45872C400.559 5.93872 400.138 5.51724 399.618 5.51724H392.903ZM395.351 9.99322C394.617 9.29112 394.126 8.38584 393.935 7.4002H398.586C398.395 8.38631 397.903 9.29176 397.17 9.99322H395.351ZM391.492 14.4226L395.279 11.8762H397.242L401.029 14.4226C402.382 15.3322 403.189 16.8479 403.189 18.4783C403.189 20.9261 401.367 23.008 398.955 23.3218C397.167 23.5544 395.354 23.5546 393.566 23.3218C391.154 23.008 389.332 20.9261 389.332 18.4783C389.332 16.8479 390.139 15.3322 391.492 14.4226ZM396.26 13.3875C395.74 13.3875 395.319 13.809 395.319 14.329V14.7348C394.656 15.0768 394.2 15.7688 394.2 16.567C394.2 17.7036 395.124 18.6274 396.26 18.6274C396.358 18.6274 396.438 18.7075 396.438 18.805C396.438 18.9026 396.358 18.9825 396.26 18.9825H395.141C394.621 18.9825 394.2 19.404 394.2 19.924C394.2 20.444 394.621 20.8655 395.141 20.8655H395.319V21.043C395.319 21.563 395.74 21.9845 396.26 21.9845C396.78 21.9845 397.202 21.563 397.202 21.043V20.6372C397.865 20.2951 398.321 19.6033 398.321 18.805C398.321 17.6685 397.397 16.7445 396.26 16.7445C396.163 16.7445 396.083 16.6644 396.083 16.567C396.083 16.4694 396.163 16.3895 396.26 16.3895H397.379C397.899 16.3895 398.321 15.9679 398.321 15.448C398.321 14.928 397.899 14.5065 397.379 14.5065H397.202V14.329C397.202 13.809 396.78 13.3875 396.26 13.3875Z" fill="white"/>
<path d="M362.294 49.7241V41.8901H363.889V48.3933H367.855V49.7241H362.294ZM368.986 43.2263V41.8254H370.5V43.2263H368.986ZM368.986 49.7241V44.0021H370.5V49.7241H368.986ZM371.992 49.7241V41.8254H373.506V44.6702C373.973 44.1386 374.527 43.8728 375.166 43.8728C375.863 43.8728 376.439 44.1261 376.895 44.6325C377.352 45.1354 377.58 45.8592 377.58 46.8039C377.58 47.7809 377.346 48.5334 376.879 49.0614C376.416 49.5894 375.852 49.8534 375.188 49.8534C374.861 49.8534 374.537 49.7726 374.218 49.611C373.902 49.4457 373.629 49.2033 373.399 48.8836V49.7241H371.992ZM373.496 46.7392C373.496 47.3319 373.589 47.7701 373.776 48.0539C374.038 48.4562 374.386 48.6573 374.821 48.6573C375.155 48.6573 375.439 48.5154 375.672 48.2317C375.909 47.9443 376.028 47.4935 376.028 46.8793C376.028 46.2256 375.909 45.755 375.672 45.4677C375.435 45.1767 375.132 45.0312 374.762 45.0312C374.399 45.0312 374.097 45.1731 373.857 45.4569C373.616 45.7371 373.496 46.1645 373.496 46.7392ZM382.116 47.903L383.625 48.1562C383.431 48.7094 383.124 49.1314 382.704 49.4224C382.287 49.7098 381.764 49.8534 381.136 49.8534C380.141 49.8534 379.404 49.5284 378.927 48.8782C378.55 48.3574 378.361 47.7001 378.361 46.9062C378.361 45.958 378.609 45.2162 379.105 44.681C379.6 44.1422 380.227 43.8728 380.985 43.8728C381.836 43.8728 382.508 44.1548 383 44.7187C383.492 45.2791 383.727 46.1394 383.706 47.2996H379.913C379.923 47.7485 380.046 48.0988 380.279 48.3502C380.513 48.598 380.804 48.722 381.152 48.722C381.389 48.722 381.588 48.6573 381.75 48.528C381.912 48.3987 382.034 48.1904 382.116 47.903ZM382.203 46.3728C382.192 45.9346 382.079 45.6024 381.863 45.3761C381.648 45.1462 381.385 45.0312 381.077 45.0312C380.746 45.0312 380.473 45.1516 380.258 45.3922C380.042 45.6329 379.936 45.9598 379.94 46.3728H382.203ZM386.394 49.7241H384.88V44.0021H386.287V44.8157C386.527 44.4314 386.743 44.1781 386.933 44.056C387.127 43.9339 387.346 43.8728 387.591 43.8728C387.935 43.8728 388.268 43.968 388.587 44.1584L388.119 45.4784C387.864 45.3132 387.626 45.2306 387.407 45.2306C387.195 45.2306 387.016 45.2899 386.869 45.4084C386.721 45.5233 386.605 45.7335 386.518 46.0388C386.436 46.3441 386.394 46.9835 386.394 47.9569V49.7241ZM390.376 45.7478L389.002 45.5C389.157 44.9468 389.422 44.5373 389.8 44.2715C390.177 44.0057 390.737 43.8728 391.481 43.8728C392.156 43.8728 392.659 43.9536 392.989 44.1153C393.32 44.2733 393.551 44.4763 393.684 44.7241C393.821 44.9684 393.889 45.4192 393.889 46.0765L393.873 47.8437C393.873 48.3466 393.896 48.7184 393.943 48.959C393.993 49.1961 394.085 49.4511 394.218 49.7241H392.72C392.68 49.6235 392.632 49.4745 392.574 49.2769C392.549 49.1871 392.531 49.1279 392.52 49.0991C392.262 49.3506 391.985 49.5391 391.691 49.6649C391.396 49.7906 391.082 49.8534 390.748 49.8534C390.159 49.8534 389.694 49.6936 389.352 49.3739C389.015 49.0542 388.846 48.6501 388.846 48.1616C388.846 47.8383 388.923 47.551 389.078 47.2996C389.232 47.0445 389.448 46.8506 389.724 46.7177C390.004 46.5812 390.407 46.4626 390.931 46.3621C391.639 46.2291 392.129 46.1052 392.402 45.9903V45.8394C392.402 45.5485 392.33 45.3419 392.186 45.2198C392.043 45.0941 391.772 45.0312 391.373 45.0312C391.103 45.0312 390.893 45.0851 390.742 45.1929C390.592 45.297 390.469 45.482 390.376 45.7478ZM392.402 46.9763C392.208 47.0409 391.901 47.1182 391.481 47.208C391.06 47.2978 390.786 47.3858 390.656 47.472C390.459 47.6121 390.36 47.7899 390.36 48.0054C390.36 48.2173 390.439 48.4005 390.597 48.5549C390.755 48.7094 390.956 48.7866 391.2 48.7866C391.473 48.7866 391.734 48.6968 391.982 48.5172C392.165 48.3807 392.285 48.2137 392.343 48.0161C392.382 47.8868 392.402 47.6408 392.402 47.278V46.9763ZM395.274 44.0021H396.669V44.7834C397.168 44.1763 397.763 43.8728 398.453 43.8728C398.819 43.8728 399.137 43.9483 399.406 44.0991C399.676 44.25 399.897 44.4781 400.069 44.7834C400.32 44.4781 400.592 44.25 400.883 44.0991C401.173 43.9483 401.484 43.8728 401.815 43.8728C402.235 43.8728 402.591 43.959 402.881 44.1314C403.172 44.3003 403.39 44.5499 403.533 44.8804C403.638 45.1246 403.69 45.5197 403.69 46.0657V49.7241H402.176V46.4536C402.176 45.8861 402.124 45.5197 402.019 45.3545C401.879 45.139 401.664 45.0312 401.373 45.0312C401.161 45.0312 400.962 45.0959 400.775 45.2252C400.588 45.3545 400.453 45.5449 400.371 45.7963C400.288 46.0442 400.247 46.4375 400.247 46.9763V49.7241H398.733V46.5883C398.733 46.0316 398.706 45.6724 398.652 45.5108C398.598 45.3491 398.514 45.2288 398.399 45.1498C398.287 45.0707 398.135 45.0312 397.941 45.0312C397.707 45.0312 397.497 45.0941 397.31 45.2198C397.124 45.3455 396.989 45.5269 396.906 45.764C396.827 46.0011 396.788 46.3944 396.788 46.9439V49.7241H395.274V44.0021ZM404.853 46.7823C404.853 46.2794 404.977 45.7927 405.225 45.3222C405.473 44.8516 405.823 44.4924 406.276 44.2446C406.732 43.9968 407.24 43.8728 407.801 43.8728C408.666 43.8728 409.376 44.1548 409.929 44.7187C410.482 45.2791 410.759 45.9885 410.759 46.847C410.759 47.7126 410.478 48.431 409.918 49.0021C409.361 49.5697 408.659 49.8534 407.811 49.8534C407.287 49.8534 406.786 49.7349 406.308 49.4978C405.834 49.2608 405.473 48.9141 405.225 48.458C404.977 47.9982 404.853 47.4396 404.853 46.7823ZM406.405 46.8631C406.405 47.4307 406.54 47.8653 406.809 48.167C407.079 48.4687 407.411 48.6196 407.806 48.6196C408.201 48.6196 408.532 48.4687 408.797 48.167C409.067 47.8653 409.202 47.4271 409.202 46.8524C409.202 46.292 409.067 45.861 408.797 45.5593C408.532 45.2575 408.201 45.1067 407.806 45.1067C407.411 45.1067 407.079 45.2575 406.809 45.5593C406.54 45.861 406.405 46.2956 406.405 46.8631ZM411.416 48.0916L412.935 47.8599C413 48.1544 413.131 48.3789 413.329 48.5334C413.526 48.6843 413.803 48.7597 414.158 48.7597C414.55 48.7597 414.844 48.6878 415.042 48.5442C415.175 48.4436 415.241 48.3089 415.241 48.1401C415.241 48.0251 415.205 47.9299 415.134 47.8545C415.058 47.7827 414.889 47.7162 414.627 47.6552C413.406 47.3858 412.632 47.1397 412.305 46.917C411.852 46.6081 411.626 46.1789 411.626 45.6293C411.626 45.1336 411.822 44.7169 412.213 44.3793C412.605 44.0416 413.212 43.8728 414.034 43.8728C414.818 43.8728 415.399 44.0003 415.78 44.2554C416.161 44.5104 416.423 44.8876 416.567 45.3868L415.139 45.6508C415.078 45.4281 414.961 45.2575 414.789 45.139C414.62 45.0205 414.378 44.9612 414.061 44.9612C413.663 44.9612 413.377 45.0169 413.205 45.1282C413.09 45.2072 413.032 45.3096 413.032 45.4353C413.032 45.5431 413.083 45.6347 413.183 45.7101C413.32 45.8107 413.79 45.9526 414.595 46.1358C415.403 46.3189 415.967 46.5434 416.287 46.8093C416.603 47.0786 416.761 47.454 416.761 47.9353C416.761 48.4598 416.542 48.9105 416.103 49.2877C415.665 49.6649 415.017 49.8534 414.158 49.8534C413.379 49.8534 412.761 49.6954 412.305 49.3793C411.852 49.0632 411.556 48.634 411.416 48.0916ZM423.216 48.8567L423.356 49.7133C423.083 49.7708 422.838 49.7996 422.623 49.7996C422.271 49.7996 421.998 49.7439 421.804 49.6325C421.61 49.5212 421.473 49.3757 421.394 49.1961C421.315 49.0129 421.276 48.6304 421.276 48.0485V44.7564H420.565V44.0021H421.276V42.5851L422.24 42.0032V44.0021H423.216V44.7564H422.24V48.1024C422.24 48.3789 422.256 48.5567 422.289 48.6358C422.325 48.7148 422.38 48.7776 422.456 48.8243C422.535 48.871 422.646 48.8944 422.79 48.8944C422.898 48.8944 423.04 48.8818 423.216 48.8567ZM427.919 49.7241V48.8836C427.474 49.5302 426.869 49.8534 426.103 49.8534C425.766 49.8534 425.45 49.7888 425.155 49.6595C424.864 49.5302 424.647 49.3685 424.503 49.1746C424.363 48.977 424.264 48.7363 424.207 48.4526C424.167 48.2622 424.148 47.9605 424.148 47.5474V44.0021H425.117V47.1756C425.117 47.6821 425.137 48.0233 425.177 48.1993C425.238 48.4544 425.367 48.6555 425.565 48.8028C425.762 48.9465 426.006 49.0183 426.297 49.0183C426.588 49.0183 426.861 48.9447 427.116 48.7974C427.371 48.6465 427.551 48.4436 427.655 48.1886C427.763 47.9299 427.817 47.5564 427.817 47.0679V44.0021H428.787V49.7241H427.919ZM356.631 64.917V57.0021H357.515V57.7457C357.723 57.4547 357.959 57.2374 358.221 57.0937C358.483 56.9465 358.801 56.8728 359.175 56.8728C359.663 56.8728 360.094 56.9985 360.468 57.25C360.841 57.5014 361.123 57.857 361.314 58.3168C361.504 58.773 361.599 59.274 361.599 59.82C361.599 60.4055 361.493 60.9335 361.281 61.4041C361.073 61.871 360.768 62.2302 360.365 62.4817C359.967 62.7295 359.546 62.8534 359.105 62.8534C358.781 62.8534 358.49 62.7852 358.232 62.6487C357.977 62.5122 357.767 62.3398 357.601 62.1314V64.917H356.631ZM357.51 59.8955C357.51 60.6318 357.659 61.176 357.957 61.528C358.255 61.88 358.616 62.056 359.04 62.056C359.471 62.056 359.839 61.8746 360.144 61.5118C360.453 61.1455 360.608 60.5797 360.608 59.8146C360.608 59.0855 360.457 58.5395 360.155 58.1767C359.857 57.8139 359.5 57.6325 359.083 57.6325C358.67 57.6325 358.304 57.8265 357.984 58.2144C357.668 58.5988 357.51 59.1591 357.51 59.8955ZM366.508 62.0183C366.148 62.3236 365.802 62.5391 365.468 62.6649C365.137 62.7906 364.782 62.8534 364.401 62.8534C363.772 62.8534 363.289 62.7008 362.952 62.3955C362.614 62.0865 362.445 61.6932 362.445 61.2155C362.445 60.9353 362.508 60.6803 362.634 60.4504C362.763 60.2169 362.93 60.0302 363.135 59.8901C363.343 59.75 363.577 59.644 363.835 59.5722C364.026 59.5219 364.313 59.4734 364.697 59.4267C365.48 59.3333 366.057 59.222 366.427 59.0927C366.43 58.9598 366.432 58.8753 366.432 58.8394C366.432 58.4443 366.341 58.1659 366.157 58.0043C365.909 57.7852 365.541 57.6756 365.053 57.6756C364.597 57.6756 364.259 57.7564 364.04 57.9181C363.824 58.0761 363.665 58.3581 363.56 58.764L362.612 58.6347C362.698 58.2288 362.84 57.9019 363.038 57.6541C363.235 57.4026 363.521 57.2105 363.894 57.0776C364.268 56.9411 364.701 56.8728 365.193 56.8728C365.681 56.8728 366.078 56.9303 366.384 57.0452C366.689 57.1602 366.913 57.3057 367.057 57.4817C367.201 57.6541 367.301 57.8732 367.359 58.139C367.391 58.3042 367.407 58.6024 367.407 59.0334V60.3265C367.407 61.2281 367.427 61.7992 367.467 62.0399C367.51 62.2769 367.592 62.505 367.714 62.7241H366.702C366.601 62.523 366.536 62.2877 366.508 62.0183ZM366.427 59.8524C366.075 59.996 365.547 60.1182 364.843 60.2187C364.444 60.2762 364.162 60.3409 363.997 60.4127C363.832 60.4845 363.704 60.5905 363.614 60.7306C363.524 60.8671 363.48 61.0197 363.48 61.1886C363.48 61.4472 363.577 61.6627 363.77 61.8351C363.968 62.0075 364.255 62.0937 364.633 62.0937C365.006 62.0937 365.338 62.0129 365.629 61.8513C365.92 61.686 366.134 61.4615 366.27 61.1778C366.375 60.9587 366.427 60.6354 366.427 60.208V59.8524ZM368.738 63.1983L369.681 63.3383C369.721 63.6293 369.83 63.8412 370.01 63.9741C370.25 64.1537 370.579 64.2435 370.996 64.2435C371.445 64.2435 371.791 64.1537 372.036 63.9741C372.28 63.7945 372.445 63.5431 372.531 63.2198C372.582 63.0223 372.605 62.6074 372.601 61.9752C372.177 62.4745 371.649 62.7241 371.017 62.7241C370.231 62.7241 369.622 62.4404 369.191 61.8728C368.76 61.3053 368.544 60.6246 368.544 59.8308C368.544 59.2848 368.643 58.782 368.841 58.3222C369.038 57.8588 369.324 57.5014 369.697 57.25C370.074 56.9985 370.516 56.8728 371.023 56.8728C371.698 56.8728 372.255 57.1458 372.693 57.6918V57.0021H373.587V61.9483C373.587 62.8391 373.496 63.4695 373.313 63.8394C373.133 64.213 372.846 64.5075 372.45 64.723C372.059 64.9386 371.576 65.0463 371.001 65.0463C370.319 65.0463 369.767 64.8919 369.347 64.583C368.927 64.2776 368.724 63.8161 368.738 63.1983ZM369.541 59.7608C369.541 60.5115 369.69 61.0593 369.988 61.4041C370.286 61.7489 370.66 61.9213 371.109 61.9213C371.554 61.9213 371.928 61.7507 372.23 61.4095C372.531 61.0646 372.682 60.5258 372.682 59.7931C372.682 59.0927 372.526 58.5646 372.213 58.209C371.904 57.8534 371.531 57.6756 371.093 57.6756C370.662 57.6756 370.295 57.8516 369.994 58.2036C369.692 58.5521 369.541 59.0711 369.541 59.7608ZM374.697 59.8631C374.697 58.8035 374.992 58.0187 375.581 57.5086C376.073 57.0848 376.673 56.8728 377.38 56.8728C378.167 56.8728 378.81 57.1314 379.309 57.6487C379.809 58.1623 380.058 58.8735 380.058 59.7823C380.058 60.5187 379.947 61.0988 379.724 61.5226C379.505 61.9429 379.184 62.2697 378.76 62.5032C378.339 62.7367 377.88 62.8534 377.38 62.8534C376.579 62.8534 375.931 62.5966 375.435 62.083C374.943 61.5693 374.697 60.8294 374.697 59.8631ZM375.694 59.8631C375.694 60.5959 375.854 61.1455 376.173 61.5118C376.493 61.8746 376.895 62.056 377.38 62.056C377.862 62.056 378.262 61.8728 378.582 61.5064C378.902 61.1401 379.061 60.5815 379.061 59.8308C379.061 59.1232 378.9 58.588 378.577 58.2252C378.257 57.8588 377.858 57.6756 377.38 57.6756C376.895 57.6756 376.493 57.857 376.173 58.2198C375.854 58.5826 375.694 59.1304 375.694 59.8631ZM388.005 62.0183C387.646 62.3236 387.3 62.5391 386.966 62.6649C386.635 62.7906 386.279 62.8534 385.899 62.8534C385.27 62.8534 384.787 62.7008 384.449 62.3955C384.112 62.0865 383.943 61.6932 383.943 61.2155C383.943 60.9353 384.006 60.6803 384.131 60.4504C384.261 60.2169 384.428 60.0302 384.633 59.8901C384.841 59.75 385.074 59.644 385.333 59.5722C385.523 59.5219 385.811 59.4734 386.195 59.4267C386.978 59.3333 387.555 59.222 387.925 59.0927C387.928 58.9598 387.93 58.8753 387.93 58.8394C387.93 58.4443 387.838 58.1659 387.655 58.0043C387.407 57.7852 387.039 57.6756 386.551 57.6756C386.094 57.6756 385.757 57.7564 385.538 57.9181C385.322 58.0761 385.162 58.3581 385.058 58.764L384.11 58.6347C384.196 58.2288 384.338 57.9019 384.536 57.6541C384.733 57.4026 385.019 57.2105 385.392 57.0776C385.766 56.9411 386.199 56.8728 386.691 56.8728C387.179 56.8728 387.576 56.9303 387.881 57.0452C388.187 57.1602 388.411 57.3057 388.555 57.4817C388.699 57.6541 388.799 57.8732 388.857 58.139C388.889 58.3042 388.905 58.6024 388.905 59.0334V60.3265C388.905 61.2281 388.925 61.7992 388.964 62.0399C389.008 62.2769 389.09 62.505 389.212 62.7241H388.199C388.099 62.523 388.034 62.2877 388.005 62.0183ZM387.925 59.8524C387.573 59.996 387.045 60.1182 386.341 60.2187C385.942 60.2762 385.66 60.3409 385.495 60.4127C385.329 60.4845 385.202 60.5905 385.112 60.7306C385.022 60.8671 384.977 61.0197 384.977 61.1886C384.977 61.4472 385.074 61.6627 385.268 61.8351C385.466 62.0075 385.753 62.0937 386.13 62.0937C386.504 62.0937 386.836 62.0129 387.127 61.8513C387.418 61.686 387.632 61.4615 387.768 61.1778C387.872 60.9587 387.925 60.6354 387.925 60.208V59.8524ZM395.602 61.8567L395.742 62.7133C395.469 62.7708 395.225 62.7996 395.01 62.7996C394.658 62.7996 394.385 62.7439 394.191 62.6325C393.997 62.5212 393.86 62.3757 393.781 62.1961C393.702 62.0129 393.663 61.6304 393.663 61.0485V57.7564H392.952V57.0021H393.663V55.5851L394.627 55.0032V57.0021H395.602V57.7564H394.627V61.1024C394.627 61.3789 394.643 61.5567 394.676 61.6358C394.712 61.7148 394.767 61.7776 394.843 61.8243C394.922 61.871 395.033 61.8944 395.177 61.8944C395.284 61.8944 395.426 61.8818 395.602 61.8567ZM400.306 62.7241V61.8836C399.861 62.5302 399.255 62.8534 398.49 62.8534C398.153 62.8534 397.837 62.7888 397.542 62.6595C397.251 62.5302 397.034 62.3685 396.89 62.1746C396.75 61.977 396.651 61.7363 396.594 61.4526C396.554 61.2622 396.534 60.9605 396.534 60.5474V57.0021H397.504V60.1756C397.504 60.6821 397.524 61.0233 397.564 61.1993C397.625 61.4544 397.754 61.6555 397.952 61.8028C398.149 61.9465 398.393 62.0183 398.684 62.0183C398.975 62.0183 399.248 61.9447 399.503 61.7974C399.758 61.6465 399.938 61.4436 400.042 61.1886C400.15 60.9299 400.204 60.5564 400.204 60.0679V57.0021H401.173V62.7241H400.306ZM409.503 60.6282L410.457 60.7521C410.353 61.4095 410.085 61.9249 409.654 62.2985C409.227 62.6684 408.7 62.8534 408.075 62.8534C407.292 62.8534 406.662 62.5984 406.184 62.0883C405.71 61.5747 405.473 60.8401 405.473 59.8847C405.473 59.2669 405.575 58.7263 405.78 58.2629C405.985 57.7996 406.296 57.4529 406.712 57.223C407.133 56.9896 407.589 56.8728 408.081 56.8728C408.702 56.8728 409.21 57.0309 409.606 57.347C410.001 57.6595 410.254 58.1049 410.365 58.6832L409.422 58.8286C409.333 58.4443 409.173 58.1552 408.943 57.9612C408.717 57.7672 408.442 57.6702 408.119 57.6702C407.63 57.6702 407.233 57.8462 406.928 58.1983C406.622 58.5467 406.47 59.0998 406.47 59.8577C406.47 60.6264 406.617 61.185 406.912 61.5334C407.206 61.8818 407.591 62.056 408.065 62.056C408.445 62.056 408.763 61.9393 409.018 61.7058C409.273 61.4723 409.435 61.1131 409.503 60.6282ZM415.037 62.7241V61.8836C414.591 62.5302 413.986 62.8534 413.221 62.8534C412.883 62.8534 412.567 62.7888 412.273 62.6595C411.982 62.5302 411.764 62.3685 411.621 62.1746C411.481 61.977 411.382 61.7363 411.324 61.4526C411.285 61.2622 411.265 60.9605 411.265 60.5474V57.0021H412.235V60.1756C412.235 60.6821 412.255 61.0233 412.294 61.1993C412.355 61.4544 412.485 61.6555 412.682 61.8028C412.88 61.9465 413.124 62.0183 413.415 62.0183C413.706 62.0183 413.979 61.9447 414.234 61.7974C414.489 61.6465 414.668 61.4436 414.773 61.1886C414.88 60.9299 414.934 60.5564 414.934 60.0679V57.0021H415.904V62.7241H415.037ZM421.346 60.8814L422.348 61.0054C422.19 61.5909 421.897 62.0452 421.47 62.3685C421.042 62.6918 420.496 62.8534 419.832 62.8534C418.995 62.8534 418.33 62.5966 417.838 62.083C417.35 61.5657 417.106 60.8419 417.106 59.9116C417.106 58.949 417.353 58.2019 417.849 57.6702C418.345 57.1386 418.988 56.8728 419.778 56.8728C420.543 56.8728 421.168 57.1332 421.653 57.6541C422.138 58.1749 422.38 58.9077 422.38 59.8524C422.38 59.9098 422.379 59.996 422.375 60.111H418.108C418.144 60.7396 418.321 61.2209 418.641 61.5549C418.961 61.889 419.36 62.056 419.837 62.056C420.193 62.056 420.496 61.9626 420.748 61.7758C420.999 61.5891 421.199 61.2909 421.346 60.8814ZM418.162 59.3136H421.357C421.314 58.8322 421.191 58.4712 420.99 58.2306C420.681 57.857 420.281 57.6702 419.789 57.6702C419.343 57.6702 418.968 57.8193 418.663 58.1174C418.361 58.4156 418.194 58.8143 418.162 59.3136ZM423.571 62.7241V57.0021H424.444V57.8157C424.864 57.1871 425.471 56.8728 426.265 56.8728C426.61 56.8728 426.926 56.9357 427.213 57.0614C427.504 57.1835 427.722 57.3452 427.865 57.5463C428.009 57.7475 428.11 57.9863 428.167 58.2629C428.203 58.4425 428.221 58.7568 428.221 59.2058V62.7241H427.251V59.2435C427.251 58.8484 427.213 58.5539 427.138 58.3599C427.063 58.1623 426.928 58.0061 426.734 57.8911C426.543 57.7726 426.319 57.7133 426.06 57.7133C425.647 57.7133 425.29 57.8445 424.988 58.1067C424.69 58.3689 424.541 58.8664 424.541 59.5991V62.7241H423.571ZM431.831 61.8567L431.971 62.7133C431.698 62.7708 431.454 62.7996 431.238 62.7996C430.886 62.7996 430.613 62.7439 430.419 62.6325C430.225 62.5212 430.089 62.3757 430.01 62.1961C429.931 62.0129 429.891 61.6304 429.891 61.0485V57.7564H429.18V57.0021H429.891V55.5851L430.856 55.0032V57.0021H431.831V57.7564H430.856V61.1024C430.856 61.3789 430.872 61.5567 430.904 61.6358C430.94 61.7148 430.996 61.7776 431.071 61.8243C431.15 61.871 431.261 61.8944 431.405 61.8944C431.513 61.8944 431.655 61.8818 431.831 61.8567ZM436.518 62.0183C436.159 62.3236 435.813 62.5391 435.478 62.6649C435.148 62.7906 434.792 62.8534 434.412 62.8534C433.783 62.8534 433.3 62.7008 432.962 62.3955C432.625 62.0865 432.456 61.6932 432.456 61.2155C432.456 60.9353 432.519 60.6803 432.644 60.4504C432.774 60.2169 432.941 60.0302 433.145 59.8901C433.354 59.75 433.587 59.644 433.846 59.5722C434.036 59.5219 434.324 59.4734 434.708 59.4267C435.491 59.3333 436.068 59.222 436.438 59.0927C436.441 58.9598 436.443 58.8753 436.443 58.8394C436.443 58.4443 436.351 58.1659 436.168 58.0043C435.92 57.7852 435.552 57.6756 435.064 57.6756C434.607 57.6756 434.27 57.7564 434.051 57.9181C433.835 58.0761 433.675 58.3581 433.571 58.764L432.623 58.6347C432.709 58.2288 432.851 57.9019 433.048 57.6541C433.246 57.4026 433.532 57.2105 433.905 57.0776C434.279 56.9411 434.712 56.8728 435.204 56.8728C435.692 56.8728 436.089 56.9303 436.394 57.0452C436.7 57.1602 436.924 57.3057 437.068 57.4817C437.212 57.6541 437.312 57.8732 437.37 58.139C437.402 58.3042 437.418 58.6024 437.418 59.0334V60.3265C437.418 61.2281 437.438 61.7992 437.477 62.0399C437.52 62.2769 437.603 62.505 437.725 62.7241H436.712C436.612 62.523 436.547 62.2877 436.518 62.0183ZM436.438 59.8524C436.085 59.996 435.557 60.1182 434.853 60.2187C434.455 60.2762 434.173 60.3409 434.008 60.4127C433.842 60.4845 433.715 60.5905 433.625 60.7306C433.535 60.8671 433.49 61.0197 433.49 61.1886C433.49 61.4472 433.587 61.6627 433.781 61.8351C433.979 62.0075 434.266 62.0937 434.643 62.0937C435.017 62.0937 435.349 62.0129 435.64 61.8513C435.931 61.686 436.145 61.4615 436.281 61.1778C436.385 60.9587 436.438 60.6354 436.438 60.208V59.8524Z" fill="#7561E5"/>
</svg>
