<svg width="443" height="66" viewBox="0 0 443 66" fill="none" xmlns="http://www.w3.org/2000/svg">
<line x1="184.897" y1="15.4483" x2="262.138" y2="15.4483" stroke="#7561E5" stroke-width="2.2069" stroke-linecap="round"/>
<line x1="304.069" y1="15.4483" x2="381.31" y2="15.4483" stroke="#7561E5" stroke-width="2.2069" stroke-linecap="round"/>
<line x1="65.7241" y1="15.4483" x2="142.965" y2="15.4483" stroke="#7561E5" stroke-width="2.2069" stroke-linecap="round"/>
<circle cx="163.931" cy="15.4483" r="15.4483" fill="#7561E5"/>
<path fill-rule="evenodd" clip-rule="evenodd" d="M155.953 7.72415C154.877 7.72415 154 8.60001 154 9.67641V21.2202C154 22.2928 154.873 23.1724 155.953 23.1724H172.191C173.263 23.1724 174.143 22.2996 174.143 21.2202V9.67641C174.143 8.6038 173.27 7.72415 172.191 7.72415H155.953ZM164.108 16.6311L156.733 9.31991H171.419L164.108 16.6311ZM155.596 20.4483V10.4395L160.622 15.4224L155.596 20.4483ZM172.547 20.4483L167.547 15.4483L172.547 10.4482V20.4483ZM156.724 21.5767L161.755 16.5459L163.548 18.3236C163.86 18.6329 164.364 18.6319 164.674 18.3212L166.419 16.5767L171.419 21.5767H156.724Z" fill="white"/>
<circle cx="283.103" cy="15.4483" r="15.4483" fill="#7561E5"/>
<path d="M283.103 25.4676C282.821 25.4676 282.548 25.3647 282.336 25.1779C281.533 24.4734 280.76 23.8114 280.077 23.2274L280.074 23.2243C278.073 21.5121 276.345 20.0334 275.142 18.5768C273.798 16.9484 273.172 15.4045 273.172 13.7178C273.172 12.0791 273.732 10.5672 274.748 9.46058C275.776 8.34085 277.187 7.72415 278.721 7.72415C279.867 7.72415 280.917 8.08811 281.842 8.80584C282.308 9.16813 282.731 9.61152 283.103 10.1287C283.476 9.61152 283.899 9.16813 284.365 8.80584C285.289 8.08811 286.339 7.72415 287.486 7.72415C289.02 7.72415 290.431 8.34085 291.459 9.46058C292.475 10.5672 293.034 12.0791 293.034 13.7178C293.034 15.4045 292.409 16.9484 291.065 18.5767C289.862 20.0334 288.134 21.5119 286.134 23.224C285.45 23.8089 284.675 24.472 283.871 25.1782C283.659 25.3647 283.386 25.4676 283.103 25.4676ZM278.721 8.89242C277.516 8.89242 276.409 9.37537 275.603 10.2524C274.786 11.1427 274.336 12.3733 274.336 13.7178C274.336 15.1364 274.861 16.4051 276.038 17.8314C277.176 19.2101 278.868 20.6583 280.828 22.3353L280.832 22.3383C281.517 22.9246 282.293 23.5892 283.102 24.2989C283.915 23.5878 284.693 22.9221 285.379 22.335C287.339 20.658 289.031 19.2101 290.169 17.8314C291.346 16.4051 291.871 15.1364 291.871 13.7178C291.871 12.3733 291.421 11.1427 290.603 10.2524C289.798 9.37537 288.691 8.89242 287.486 8.89242C286.603 8.89242 285.792 9.17422 285.077 9.7299C284.439 10.2253 283.995 10.8516 283.734 11.2898C283.6 11.5152 283.364 11.6497 283.103 11.6497C282.842 11.6497 282.606 11.5152 282.472 11.2898C282.212 10.8516 281.768 10.2253 281.13 9.7299C280.414 9.17422 279.604 8.89242 278.721 8.89242Z" fill="white" stroke="white" stroke-width="1.10345"/>
<path d="M1.06142 49.7241V41.8254H4.56358C5.2676 41.8254 5.8028 41.8973 6.16918 42.0409C6.53556 42.181 6.82831 42.4307 7.04741 42.7899C7.26652 43.149 7.37608 43.546 7.37608 43.9806C7.37608 44.5409 7.19468 45.0133 6.8319 45.3976C6.46911 45.782 5.90876 46.0262 5.15086 46.1304C5.42744 46.2633 5.63757 46.3944 5.78125 46.5237C6.08657 46.8039 6.37572 47.1541 6.64871 47.5743L8.02263 49.7241H6.70797L5.66272 48.0808C5.3574 47.6067 5.10596 47.2439 4.90841 46.9924C4.71085 46.741 4.53305 46.565 4.375 46.4644C4.22055 46.3638 4.0625 46.2938 3.90086 46.2543C3.78233 46.2291 3.58836 46.2166 3.31897 46.2166H2.10668V49.7241H1.06142ZM2.10668 45.3114H4.35345C4.83118 45.3114 5.20474 45.2629 5.47414 45.1659C5.74353 45.0654 5.94828 44.9073 6.08836 44.6918C6.22845 44.4727 6.29849 44.2356 6.29849 43.9806C6.29849 43.607 6.162 43.2999 5.88901 43.0593C5.61961 42.8186 5.19217 42.6983 4.60668 42.6983H2.10668V45.3114ZM12.8125 47.8814L13.8147 48.0054C13.6566 48.5909 13.3639 49.0452 12.9364 49.3685C12.509 49.6918 11.963 49.8534 11.2985 49.8534C10.4616 49.8534 9.79706 49.5966 9.30496 49.083C8.81645 48.5657 8.5722 47.8419 8.5722 46.9116C8.5722 45.949 8.82004 45.2019 9.31573 44.6702C9.81142 44.1386 10.4544 43.8728 11.2446 43.8728C12.0097 43.8728 12.6347 44.1332 13.1196 44.6541C13.6045 45.1749 13.847 45.9077 13.847 46.8524C13.847 46.9098 13.8452 46.996 13.8416 47.111H9.57435C9.61027 47.7396 9.78808 48.2209 10.1078 48.5549C10.4274 48.889 10.8262 49.056 11.3039 49.056C11.6595 49.056 11.963 48.9626 12.2144 48.7758C12.4659 48.5891 12.6652 48.2909 12.8125 47.8814ZM9.62823 46.3136H12.8233C12.7802 45.8322 12.658 45.4712 12.4569 45.2306C12.148 44.857 11.7475 44.6702 11.2554 44.6702C10.81 44.6702 10.4346 44.8193 10.1293 45.1174C9.82759 45.4156 9.66056 45.8143 9.62823 46.3136ZM18.7716 49.0183C18.4124 49.3236 18.0657 49.5391 17.7317 49.6649C17.4012 49.7906 17.0456 49.8534 16.6649 49.8534C16.0363 49.8534 15.5532 49.7008 15.2155 49.3955C14.8779 49.0865 14.7091 48.6932 14.7091 48.2155C14.7091 47.9353 14.7719 47.6803 14.8976 47.4504C15.0269 47.2169 15.194 47.0302 15.3987 46.8901C15.607 46.75 15.8405 46.644 16.0991 46.5722C16.2895 46.5219 16.5769 46.4734 16.9612 46.4267C17.7443 46.3333 18.3208 46.222 18.6907 46.0927C18.6943 45.9598 18.6961 45.8753 18.6961 45.8394C18.6961 45.4443 18.6045 45.1659 18.4213 45.0043C18.1735 44.7852 17.8053 44.6756 17.3168 44.6756C16.8606 44.6756 16.523 44.7564 16.3039 44.9181C16.0884 45.0761 15.9285 45.3581 15.8244 45.764L14.8761 45.6347C14.9623 45.2288 15.1042 44.9019 15.3017 44.6541C15.4993 44.4026 15.7848 44.2105 16.1584 44.0776C16.532 43.9411 16.9648 43.8728 17.4569 43.8728C17.9454 43.8728 18.3423 43.9303 18.6476 44.0452C18.9529 44.1602 19.1774 44.3057 19.3211 44.4817C19.4648 44.6541 19.5654 44.8732 19.6228 45.139C19.6552 45.3042 19.6713 45.6024 19.6713 46.0334V47.3265C19.6713 48.2281 19.6911 48.7992 19.7306 49.0399C19.7737 49.2769 19.8563 49.505 19.9784 49.7241H18.9655C18.8649 49.523 18.8003 49.2877 18.7716 49.0183ZM18.6907 46.8524C18.3387 46.996 17.8107 47.1182 17.1067 47.2187C16.708 47.2762 16.426 47.3409 16.2608 47.4127C16.0955 47.4845 15.968 47.5905 15.8782 47.7306C15.7884 47.8671 15.7435 48.0197 15.7435 48.1886C15.7435 48.4472 15.8405 48.6627 16.0345 48.8351C16.232 49.0075 16.5194 49.0937 16.8966 49.0937C17.2701 49.0937 17.6024 49.0129 17.8933 48.8513C18.1843 48.686 18.398 48.4615 18.5345 48.1778C18.6387 47.9587 18.6907 47.6354 18.6907 47.208V46.8524ZM21.1584 49.7241V41.8254H22.1282V49.7241H21.1584ZM23.6422 42.9407V41.8254H24.6121V42.9407H23.6422ZM23.6422 49.7241V44.0021H24.6121V49.7241H23.6422ZM25.5819 49.7241V48.9375L29.2241 44.7564C28.8111 44.778 28.4465 44.7888 28.1304 44.7888H25.7974V44.0021H30.4741V44.6433L27.3761 48.2748L26.778 48.9375C27.2126 48.9052 27.6203 48.889 28.0011 48.889H30.6466V49.7241H25.5819ZM35.3448 49.0183C34.9856 49.3236 34.639 49.5391 34.305 49.6649C33.9745 49.7906 33.6189 49.8534 33.2381 49.8534C32.6096 49.8534 32.1264 49.7008 31.7888 49.3955C31.4511 49.0865 31.2823 48.6932 31.2823 48.2155C31.2823 47.9353 31.3452 47.6803 31.4709 47.4504C31.6002 47.2169 31.7672 47.0302 31.972 46.8901C32.1803 46.75 32.4138 46.644 32.6724 46.5722C32.8628 46.5219 33.1501 46.4734 33.5345 46.4267C34.3175 46.3333 34.894 46.222 35.264 46.0927C35.2676 45.9598 35.2694 45.8753 35.2694 45.8394C35.2694 45.4443 35.1778 45.1659 34.9946 45.0043C34.7468 44.7852 34.3786 44.6756 33.8901 44.6756C33.4339 44.6756 33.0963 44.7564 32.8772 44.9181C32.6616 45.0761 32.5018 45.3581 32.3976 45.764L31.4494 45.6347C31.5356 45.2288 31.6774 44.9019 31.875 44.6541C32.0726 44.4026 32.3581 44.2105 32.7317 44.0776C33.1052 43.9411 33.5381 43.8728 34.0302 43.8728C34.5187 43.8728 34.9156 43.9303 35.2209 44.0452C35.5262 44.1602 35.7507 44.3057 35.8944 44.4817C36.0381 44.6541 36.1387 44.8732 36.1961 45.139C36.2284 45.3042 36.2446 45.6024 36.2446 46.0334V47.3265C36.2446 48.2281 36.2644 48.7992 36.3039 49.0399C36.347 49.2769 36.4296 49.505 36.5517 49.7241H35.5388C35.4382 49.523 35.3736 49.2877 35.3448 49.0183ZM35.264 46.8524C34.912 46.996 34.384 47.1182 33.68 47.2187C33.2813 47.2762 32.9993 47.3409 32.8341 47.4127C32.6688 47.4845 32.5413 47.5905 32.4515 47.7306C32.3617 47.8671 32.3168 48.0197 32.3168 48.1886C32.3168 48.4472 32.4138 48.6627 32.6078 48.8351C32.8053 49.0075 33.0927 49.0937 33.4698 49.0937C33.8434 49.0937 34.1756 49.0129 34.4666 48.8513C34.7575 48.686 34.9713 48.4615 35.1078 48.1778C35.2119 47.9587 35.264 47.6354 35.264 47.208V46.8524ZM44.7414 47.8814L45.7435 48.0054C45.5855 48.5909 45.2927 49.0452 44.8653 49.3685C44.4379 49.6918 43.8919 49.8534 43.2274 49.8534C42.3904 49.8534 41.7259 49.5966 41.2338 49.083C40.7453 48.5657 40.5011 47.8419 40.5011 46.9116C40.5011 45.949 40.7489 45.2019 41.2446 44.6702C41.7403 44.1386 42.3833 43.8728 43.1735 43.8728C43.9386 43.8728 44.5636 44.1332 45.0485 44.6541C45.5334 45.1749 45.7759 45.9077 45.7759 46.8524C45.7759 46.9098 45.7741 46.996 45.7705 47.111H41.5032C41.5392 47.7396 41.717 48.2209 42.0366 48.5549C42.3563 48.889 42.755 49.056 43.2328 49.056C43.5884 49.056 43.8919 48.9626 44.1433 48.7758C44.3948 48.5891 44.5941 48.2909 44.7414 47.8814ZM41.5571 46.3136H44.7522C44.7091 45.8322 44.5869 45.4712 44.3858 45.2306C44.0769 44.857 43.6764 44.6702 43.1843 44.6702C42.7389 44.6702 42.3635 44.8193 42.0582 45.1174C41.7565 45.4156 41.5894 45.8143 41.5571 46.3136ZM46.945 49.7241V41.8254H47.9149V49.7241H46.945ZM52.5162 44.0021H53.9278V44.8427C54.111 44.5553 54.3588 44.3218 54.6713 44.1422C54.9838 43.9626 55.3305 43.8728 55.7112 43.8728C56.3757 43.8728 56.9397 44.1332 57.403 44.6541C57.8664 45.1749 58.0981 45.9005 58.0981 46.8308C58.0981 47.7863 57.8646 48.5298 57.3976 49.0614C56.9307 49.5894 56.3649 49.8534 55.7004 49.8534C55.3843 49.8534 55.097 49.7906 54.8384 49.6649C54.5833 49.5391 54.3139 49.3236 54.0302 49.0183V51.9008H52.5162V44.0021ZM54.014 46.7661C54.014 47.4091 54.1415 47.885 54.3966 48.1939C54.6516 48.4993 54.9623 48.6519 55.3287 48.6519C55.6807 48.6519 55.9734 48.5118 56.2069 48.2317C56.4404 47.9479 56.5571 47.4845 56.5571 46.8416C56.5571 46.2417 56.4368 45.7963 56.1961 45.5054C55.9555 45.2144 55.6573 45.0689 55.3017 45.0689C54.9318 45.0689 54.6246 45.2126 54.3804 45.5C54.1361 45.7837 54.014 46.2058 54.014 46.7661ZM60.4364 45.7478L59.0625 45.5C59.217 44.9468 59.4828 44.5373 59.8599 44.2715C60.2371 44.0057 60.7974 43.8728 61.5409 43.8728C62.2162 43.8728 62.7191 43.9536 63.0496 44.1153C63.38 44.2733 63.6117 44.4763 63.7446 44.7241C63.8811 44.9684 63.9494 45.4192 63.9494 46.0765L63.9332 47.8437C63.9332 48.3466 63.9565 48.7184 64.0032 48.959C64.0535 49.1961 64.1451 49.4511 64.278 49.7241H62.7802C62.7407 49.6235 62.6922 49.4745 62.6347 49.2769C62.6096 49.1871 62.5916 49.1279 62.5808 49.0991C62.3222 49.3506 62.0456 49.5391 61.7511 49.6649C61.4565 49.7906 61.1422 49.8534 60.8082 49.8534C60.2191 49.8534 59.754 49.6936 59.4127 49.3739C59.0751 49.0542 58.9063 48.6501 58.9063 48.1616C58.9063 47.8383 58.9835 47.551 59.1379 47.2996C59.2924 47.0445 59.5079 46.8506 59.7845 46.7177C60.0647 46.5812 60.467 46.4626 60.9914 46.3621C61.699 46.2291 62.1893 46.1052 62.4623 45.9903V45.8394C62.4623 45.5485 62.3904 45.3419 62.2468 45.2198C62.1031 45.0941 61.8319 45.0312 61.4332 45.0312C61.1638 45.0312 60.9537 45.0851 60.8028 45.1929C60.6519 45.297 60.5298 45.482 60.4364 45.7478ZM62.4623 46.9763C62.2683 47.0409 61.9612 47.1182 61.5409 47.208C61.1207 47.2978 60.8459 47.3858 60.7166 47.472C60.519 47.6121 60.4203 47.7899 60.4203 48.0054C60.4203 48.2173 60.4993 48.4005 60.6573 48.5549C60.8154 48.7094 61.0165 48.7866 61.2608 48.7866C61.5338 48.7866 61.7942 48.6968 62.042 48.5172C62.2252 48.3807 62.3455 48.2137 62.403 48.0161C62.4425 47.8868 62.4623 47.6408 62.4623 47.278V46.9763ZM65.3071 50.1013L67.0366 50.3114C67.0654 50.5126 67.1318 50.6508 67.236 50.7263C67.3797 50.834 67.606 50.8879 67.9149 50.8879C68.31 50.8879 68.6063 50.8286 68.8039 50.7101C68.9368 50.6311 69.0374 50.5036 69.1056 50.3276C69.1523 50.2019 69.1756 49.9702 69.1756 49.6325V48.7974C68.7231 49.4152 68.1519 49.7241 67.4623 49.7241C66.6936 49.7241 66.0848 49.399 65.6358 48.7489C65.2838 48.2353 65.1078 47.5959 65.1078 46.8308C65.1078 45.8718 65.3376 45.139 65.7974 44.6325C66.2608 44.1261 66.8355 43.8728 67.5215 43.8728C68.2292 43.8728 68.8129 44.1835 69.2726 44.8049V44.0021H70.6896V49.1368C70.6896 49.8121 70.634 50.3168 70.5226 50.6508C70.4113 50.9849 70.255 51.2471 70.0539 51.4375C69.8527 51.6279 69.5833 51.7769 69.2457 51.8847C68.9116 51.9924 68.4878 52.0463 67.9741 52.0463C67.0043 52.0463 66.3164 51.8793 65.9106 51.5452C65.5047 51.2148 65.3017 50.7945 65.3017 50.2845C65.3017 50.2342 65.3035 50.1731 65.3071 50.1013ZM66.6595 46.7446C66.6595 47.3516 66.7762 47.797 67.0097 48.0808C67.2468 48.361 67.5377 48.5011 67.8825 48.5011C68.2525 48.5011 68.565 48.3574 68.82 48.07C69.0751 47.7791 69.2026 47.3498 69.2026 46.7823C69.2026 46.1896 69.0805 45.7496 68.8362 45.4623C68.5919 45.1749 68.283 45.0312 67.9095 45.0312C67.5467 45.0312 67.2468 45.1731 67.0097 45.4569C66.7762 45.7371 66.6595 46.1663 66.6595 46.7446ZM71.8427 46.7823C71.8427 46.2794 71.9666 45.7927 72.2144 45.3222C72.4623 44.8516 72.8125 44.4924 73.2651 44.2446C73.7213 43.9968 74.2295 43.8728 74.7899 43.8728C75.6555 43.8728 76.3649 44.1548 76.9181 44.7187C77.4713 45.2791 77.7478 45.9885 77.7478 46.847C77.7478 47.7126 77.4677 48.431 76.9073 49.0021C76.3506 49.5697 75.6483 49.8534 74.8006 49.8534C74.2762 49.8534 73.7751 49.7349 73.2974 49.4978C72.8233 49.2608 72.4623 48.9141 72.2144 48.458C71.9666 47.9982 71.8427 47.4396 71.8427 46.7823ZM73.3944 46.8631C73.3944 47.4307 73.5291 47.8653 73.7985 48.167C74.0679 48.4687 74.4001 48.6196 74.7953 48.6196C75.1904 48.6196 75.5208 48.4687 75.7866 48.167C76.056 47.8653 76.1907 47.4271 76.1907 46.8524C76.1907 46.292 76.056 45.861 75.7866 45.5593C75.5208 45.2575 75.1904 45.1067 74.7953 45.1067C74.4001 45.1067 74.0679 45.2575 73.7985 45.5593C73.5291 45.861 73.3944 46.2956 73.3944 46.8631ZM81.9019 51.9278L81.7942 51.0172C82.0061 51.0747 82.1911 51.1034 82.3491 51.1034C82.5647 51.1034 82.7371 51.0675 82.8664 50.9957C82.9957 50.9238 83.1017 50.8233 83.1843 50.6939C83.2453 50.597 83.3441 50.3563 83.4806 49.972C83.4986 49.9181 83.5273 49.8391 83.5668 49.7349L81.3955 44.0021H82.4407L83.6315 47.3157C83.7859 47.736 83.9242 48.1778 84.0463 48.6411C84.1577 48.1957 84.2906 47.7611 84.4451 47.3373L85.6681 44.0021H86.6379L84.4612 49.8211C84.2277 50.4497 84.0463 50.8825 83.917 51.1196C83.7446 51.4393 83.5471 51.6728 83.3244 51.82C83.1017 51.9709 82.8359 52.0463 82.5269 52.0463C82.3402 52.0463 82.1318 52.0068 81.9019 51.9278ZM10.1078 62.7241V54.8254H11.0776V62.7241H10.1078ZM12.2252 59.8631C12.2252 58.8035 12.5198 58.0187 13.1088 57.5086C13.6009 57.0848 14.2008 56.8728 14.9084 56.8728C15.695 56.8728 16.338 57.1314 16.8373 57.6487C17.3366 58.1623 17.5862 58.8735 17.5862 59.7823C17.5862 60.5187 17.4749 61.0988 17.2522 61.5226C17.033 61.9429 16.7116 62.2697 16.2877 62.5032C15.8675 62.7367 15.4077 62.8534 14.9084 62.8534C14.1074 62.8534 13.4591 62.5966 12.9634 62.083C12.4713 61.5693 12.2252 60.8294 12.2252 59.8631ZM13.222 59.8631C13.222 60.5959 13.3818 61.1455 13.7015 61.5118C14.0212 61.8746 14.4235 62.056 14.9084 62.056C15.3897 62.056 15.7902 61.8728 16.1099 61.5064C16.4296 61.1401 16.5894 60.5815 16.5894 59.8308C16.5894 59.1232 16.4278 58.588 16.1045 58.2252C15.7848 57.8588 15.3861 57.6756 14.9084 57.6756C14.4235 57.6756 14.0212 57.857 13.7015 58.2198C13.3818 58.5826 13.222 59.1304 13.222 59.8631ZM21.7241 63.1013L23.4537 63.3114C23.4824 63.5126 23.5488 63.6508 23.653 63.7263C23.7967 63.834 24.023 63.8879 24.3319 63.8879C24.727 63.8879 25.0233 63.8286 25.2209 63.7101C25.3538 63.6311 25.4544 63.5036 25.5226 63.3276C25.5693 63.2019 25.5927 62.9702 25.5927 62.6325V61.7974C25.1401 62.4152 24.569 62.7241 23.8793 62.7241C23.1106 62.7241 22.5018 62.399 22.0528 61.7489C21.7008 61.2353 21.5248 60.5959 21.5248 59.8308C21.5248 58.8718 21.7547 58.139 22.2144 57.6325C22.6778 57.1261 23.2525 56.8728 23.9386 56.8728C24.6462 56.8728 25.2299 57.1835 25.6897 57.8049V57.0021H27.1067V62.1368C27.1067 62.8121 27.051 63.3168 26.9397 63.6508C26.8283 63.9849 26.6721 64.2471 26.4709 64.4375C26.2698 64.6279 26.0004 64.7769 25.6627 64.8847C25.3287 64.9924 24.9048 65.0463 24.3912 65.0463C23.4213 65.0463 22.7335 64.8793 22.3276 64.5452C21.9217 64.2148 21.7187 63.7945 21.7187 63.2845C21.7187 63.2342 21.7205 63.1731 21.7241 63.1013ZM23.0765 59.7446C23.0765 60.3516 23.1932 60.797 23.4267 61.0808C23.6638 61.361 23.9547 61.5011 24.2996 61.5011C24.6695 61.5011 24.982 61.3574 25.2371 61.07C25.4921 60.7791 25.6196 60.3498 25.6196 59.7823C25.6196 59.1896 25.4975 58.7496 25.2532 58.4623C25.009 58.1749 24.7001 58.0312 24.3265 58.0312C23.9637 58.0312 23.6638 58.1731 23.4267 58.4569C23.1932 58.7371 23.0765 59.1663 23.0765 59.7446ZM32.3761 62.7241V61.8674C32.1677 62.1728 31.893 62.4134 31.5517 62.5894C31.2141 62.7654 30.8567 62.8534 30.4795 62.8534C30.0952 62.8534 29.7504 62.769 29.445 62.6002C29.1397 62.4314 28.9188 62.1943 28.7823 61.889C28.6458 61.5837 28.5776 61.1616 28.5776 60.6228V57.0021H30.0916V59.6314C30.0916 60.436 30.1185 60.9299 30.1724 61.1131C30.2299 61.2927 30.3323 61.4364 30.4795 61.5442C30.6268 61.6483 30.8136 61.7004 31.0399 61.7004C31.2985 61.7004 31.5302 61.6304 31.7349 61.4903C31.9397 61.3466 32.0797 61.1706 32.1552 60.9623C32.2306 60.7503 32.2683 60.2349 32.2683 59.4159V57.0021H33.7823V62.7241H32.3761ZM36.4871 58.7478L35.1131 58.5C35.2676 57.9468 35.5334 57.5373 35.9106 57.2715C36.2877 57.0057 36.8481 56.8728 37.5916 56.8728C38.2669 56.8728 38.7698 56.9536 39.1002 57.1153C39.4307 57.2733 39.6624 57.4763 39.7953 57.7241C39.9318 57.9684 40 58.4192 40 59.0765L39.9838 60.8437C39.9838 61.3466 40.0072 61.7184 40.0539 61.959C40.1042 62.1961 40.1958 62.4511 40.3287 62.7241H38.8308C38.7913 62.6235 38.7428 62.4745 38.6853 62.2769C38.6602 62.1871 38.6422 62.1279 38.6315 62.0991C38.3728 62.3506 38.0963 62.5391 37.8017 62.6649C37.5072 62.7906 37.1929 62.8534 36.8588 62.8534C36.2698 62.8534 35.8046 62.6936 35.4634 62.3739C35.1257 62.0542 34.9569 61.6501 34.9569 61.1616C34.9569 60.8383 35.0341 60.551 35.1886 60.2996C35.343 60.0445 35.5585 59.8506 35.8351 59.7177C36.1153 59.5812 36.5176 59.4626 37.042 59.3621C37.7496 59.2291 38.2399 59.1052 38.5129 58.9903V58.8394C38.5129 58.5485 38.4411 58.3419 38.2974 58.2198C38.1537 58.0941 37.8825 58.0312 37.4838 58.0312C37.2144 58.0312 37.0043 58.0851 36.8534 58.1929C36.7026 58.297 36.5805 58.482 36.4871 58.7478ZM38.5129 59.9763C38.319 60.0409 38.0119 60.1182 37.5916 60.208C37.1713 60.2978 36.8965 60.3858 36.7672 60.472C36.5697 60.6121 36.4709 60.7899 36.4709 61.0054C36.4709 61.2173 36.5499 61.4005 36.708 61.5549C36.866 61.7094 37.0672 61.7866 37.3114 61.7866C37.5844 61.7866 37.8448 61.6968 38.0927 61.5172C38.2759 61.3807 38.3962 61.2137 38.4537 61.0161C38.4932 60.8868 38.5129 60.6408 38.5129 60.278V59.9763ZM42.9472 62.7241H41.4332V57.0021H42.8394V57.8157C43.0801 57.4314 43.2956 57.1781 43.486 57.056C43.68 56.9339 43.8991 56.8728 44.1433 56.8728C44.4881 56.8728 44.8204 56.968 45.1401 57.1584L44.6713 58.4784C44.4163 58.3132 44.1792 58.2306 43.9601 58.2306C43.7482 58.2306 43.5686 58.2899 43.4213 58.4084C43.2741 58.5233 43.1573 58.7335 43.0711 59.0388C42.9885 59.3441 42.9472 59.9835 42.9472 60.9569V62.7241ZM51.0453 62.7241H49.639V61.8836C49.4055 62.2105 49.129 62.4547 48.8093 62.6164C48.4932 62.7744 48.1735 62.8534 47.8502 62.8534C47.1929 62.8534 46.629 62.5894 46.1584 62.0614C45.6915 61.5298 45.458 60.7899 45.458 59.8416C45.458 58.8718 45.6861 58.1354 46.1422 57.6325C46.5984 57.1261 47.1749 56.8728 47.8718 56.8728C48.5111 56.8728 49.0643 57.1386 49.5313 57.6702V54.8254H51.0453V62.7241ZM47.0043 59.7392C47.0043 60.3498 47.0887 60.7916 47.2575 61.0646C47.5018 61.4598 47.843 61.6573 48.2813 61.6573C48.6297 61.6573 48.926 61.51 49.1703 61.2155C49.4145 60.9174 49.5366 60.4738 49.5366 59.8847C49.5366 59.2274 49.4181 58.755 49.181 58.4677C48.944 58.1767 48.6404 58.0312 48.2705 58.0312C47.9113 58.0312 47.6096 58.1749 47.3653 58.4623C47.1246 58.746 47.0043 59.1717 47.0043 59.7392ZM53.6746 58.7478L52.3006 58.5C52.4551 57.9468 52.7209 57.5373 53.0981 57.2715C53.4752 57.0057 54.0356 56.8728 54.7791 56.8728C55.4544 56.8728 55.9573 56.9536 56.2877 57.1153C56.6182 57.2733 56.8499 57.4763 56.9828 57.7241C57.1193 57.9684 57.1875 58.4192 57.1875 59.0765L57.1713 60.8437C57.1713 61.3466 57.1947 61.7184 57.2414 61.959C57.2917 62.1961 57.3833 62.4511 57.5162 62.7241H56.0183C55.9788 62.6235 55.9303 62.4745 55.8728 62.2769C55.8477 62.1871 55.8297 62.1279 55.819 62.0991C55.5603 62.3506 55.2838 62.5391 54.9892 62.6649C54.6947 62.7906 54.3804 62.8534 54.0463 62.8534C53.4573 62.8534 52.9921 62.6936 52.6509 62.3739C52.3132 62.0542 52.1444 61.6501 52.1444 61.1616C52.1444 60.8383 52.2216 60.551 52.3761 60.2996C52.5305 60.0445 52.7461 59.8506 53.0226 59.7177C53.3028 59.5812 53.7051 59.4626 54.2295 59.3621C54.9371 59.2291 55.4274 59.1052 55.7004 58.9903V58.8394C55.7004 58.5485 55.6286 58.3419 55.4849 58.2198C55.3412 58.0941 55.07 58.0312 54.6713 58.0312C54.4019 58.0312 54.1918 58.0851 54.041 58.1929C53.8901 58.297 53.768 58.482 53.6746 58.7478ZM55.7004 59.9763C55.5065 60.0409 55.1994 60.1182 54.7791 60.208C54.3588 60.2978 54.0841 60.3858 53.9547 60.472C53.7572 60.6121 53.6584 60.7899 53.6584 61.0054C53.6584 61.2173 53.7374 61.4005 53.8955 61.5549C54.0535 61.7094 54.2547 61.7866 54.4989 61.7866C54.7719 61.7866 55.0323 61.6968 55.2802 61.5172C55.4634 61.3807 55.5837 61.2137 55.6412 61.0161C55.6807 60.8868 55.7004 60.6408 55.7004 60.278V59.9763ZM58.5722 57.0021H59.9677V57.7834C60.467 57.1763 61.0614 56.8728 61.7511 56.8728C62.1175 56.8728 62.4353 56.9483 62.7047 57.0991C62.9741 57.25 63.195 57.4781 63.3675 57.7834C63.6189 57.4781 63.8901 57.25 64.181 57.0991C64.472 56.9483 64.7827 56.8728 65.1131 56.8728C65.5334 56.8728 65.889 56.959 66.18 57.1314C66.4709 57.3003 66.6882 57.5499 66.8319 57.8804C66.9361 58.1246 66.9881 58.5197 66.9881 59.0657V62.7241H65.4741V59.4536C65.4741 58.8861 65.4221 58.5197 65.3179 58.3545C65.1778 58.139 64.9623 58.0312 64.6713 58.0312C64.4594 58.0312 64.2601 58.0959 64.0733 58.2252C63.8865 58.3545 63.7518 58.5449 63.6692 58.7963C63.5866 59.0442 63.5453 59.4375 63.5453 59.9763V62.7241H62.0312V59.5883C62.0312 59.0316 62.0043 58.6724 61.9504 58.5108C61.8966 58.3491 61.8121 58.2288 61.6972 58.1498C61.5858 58.0707 61.4332 58.0312 61.2392 58.0312C61.0057 58.0312 60.7956 58.0941 60.6088 58.2198C60.4221 58.3455 60.2874 58.5269 60.2047 58.764C60.1257 59.0011 60.0862 59.3944 60.0862 59.9439V62.7241H58.5722V57.0021ZM68.1519 59.7823C68.1519 59.2794 68.2759 58.7927 68.5237 58.3222C68.7716 57.8516 69.1218 57.4924 69.5744 57.2446C70.0305 56.9968 70.5388 56.8728 71.0991 56.8728C71.9648 56.8728 72.6742 57.1548 73.2274 57.7187C73.7805 58.2791 74.0571 58.9885 74.0571 59.847C74.0571 60.7126 73.7769 61.431 73.2166 62.0021C72.6598 62.5697 71.9576 62.8534 71.1099 62.8534C70.5855 62.8534 70.0844 62.7349 69.6067 62.4978C69.1325 62.2608 68.7716 61.9141 68.5237 61.458C68.2759 60.9982 68.1519 60.4396 68.1519 59.7823ZM69.7037 59.8631C69.7037 60.4307 69.8384 60.8653 70.1078 61.167C70.3772 61.4687 70.7094 61.6196 71.1045 61.6196C71.4996 61.6196 71.8301 61.4687 72.0959 61.167C72.3653 60.8653 72.5 60.4271 72.5 59.8524C72.5 59.292 72.3653 58.861 72.0959 58.5593C71.8301 58.2575 71.4996 58.1067 71.1045 58.1067C70.7094 58.1067 70.3772 58.2575 70.1078 58.5593C69.8384 58.861 69.7037 59.2956 69.7037 59.8631ZM74.7144 61.0916L76.2338 60.8599C76.2985 61.1544 76.4296 61.3789 76.6272 61.5334C76.8247 61.6843 77.1013 61.7597 77.4569 61.7597C77.8484 61.7597 78.143 61.6878 78.3405 61.5442C78.4734 61.4436 78.5399 61.3089 78.5399 61.1401C78.5399 61.0251 78.504 60.9299 78.4321 60.8545C78.3567 60.7827 78.1879 60.7162 77.9256 60.6552C76.7044 60.3858 75.9303 60.1397 75.6034 59.917C75.1509 59.6081 74.9246 59.1789 74.9246 58.6293C74.9246 58.1336 75.1203 57.7169 75.5119 57.3793C75.9034 57.0416 76.5104 56.8728 77.333 56.8728C78.116 56.8728 78.6979 57.0003 79.0787 57.2554C79.4594 57.5104 79.7216 57.8876 79.8653 58.3868L78.4375 58.6508C78.3764 58.4281 78.2597 58.2575 78.0873 58.139C77.9185 58.0205 77.676 57.9612 77.3599 57.9612C76.9612 57.9612 76.6756 58.0169 76.5032 58.1282C76.3883 58.2072 76.3308 58.3096 76.3308 58.4353C76.3308 58.5431 76.3811 58.6347 76.4817 58.7101C76.6182 58.8107 77.0887 58.9526 77.8933 59.1358C78.7015 59.3189 79.2654 59.5434 79.5851 59.8093C79.9012 60.0786 80.0593 60.454 80.0593 60.9353C80.0593 61.4598 79.8402 61.9105 79.4019 62.2877C78.9637 62.6649 78.3154 62.8534 77.4569 62.8534C76.6774 62.8534 76.0596 62.6954 75.6034 62.3793C75.1509 62.0632 74.8545 61.634 74.7144 61.0916Z" fill="#7561E5"/>
<path d="M260.589 49.7241H258.855L258.165 47.9299H255.008L254.356 49.7241H252.664L255.74 41.8254H257.427L260.589 49.7241ZM257.653 46.5991L256.565 43.6681L255.498 46.5991H257.653ZM261.387 44.0021H262.799V44.8427C262.982 44.5553 263.23 44.3218 263.542 44.1422C263.855 43.9626 264.201 43.8728 264.582 43.8728C265.246 43.8728 265.81 44.1332 266.274 44.6541C266.737 45.1749 266.969 45.9005 266.969 46.8308C266.969 47.7863 266.735 48.5298 266.268 49.0614C265.801 49.5894 265.236 49.8534 264.571 49.8534C264.255 49.8534 263.968 49.7906 263.709 49.6649C263.454 49.5391 263.185 49.3236 262.901 49.0183V51.9008H261.387V44.0021ZM262.885 46.7661C262.885 47.4091 263.012 47.885 263.267 48.1939C263.522 48.4993 263.833 48.6519 264.199 48.6519C264.551 48.6519 264.844 48.5118 265.078 48.2317C265.311 47.9479 265.428 47.4845 265.428 46.8416C265.428 46.2417 265.307 45.7963 265.067 45.5054C264.826 45.2144 264.528 45.0689 264.172 45.0689C263.802 45.0689 263.495 45.2126 263.251 45.5C263.007 45.7837 262.885 46.2058 262.885 46.7661ZM269.625 49.7241H268.111V44.0021H269.517V44.8157C269.758 44.4314 269.973 44.1781 270.164 44.056C270.358 43.9339 270.577 43.8728 270.821 43.8728C271.166 43.8728 271.498 43.968 271.818 44.1584L271.349 45.4784C271.094 45.3132 270.857 45.2306 270.638 45.2306C270.426 45.2306 270.246 45.2899 270.099 45.4084C269.952 45.5233 269.835 45.7335 269.749 46.0388C269.666 46.3441 269.625 46.9835 269.625 47.9569V49.7241ZM276.241 49.7241V48.8674C276.033 49.1728 275.758 49.4134 275.417 49.5894C275.079 49.7654 274.722 49.8534 274.345 49.8534C273.961 49.8534 273.616 49.769 273.31 49.6002C273.005 49.4314 272.784 49.1943 272.648 48.889C272.511 48.5837 272.443 48.1616 272.443 47.6228V44.0021H273.957V46.6314C273.957 47.436 273.984 47.9299 274.038 48.1131C274.095 48.2927 274.198 48.4364 274.345 48.5442C274.492 48.6483 274.679 48.7004 274.905 48.7004C275.164 48.7004 275.395 48.6304 275.6 48.4903C275.805 48.3466 275.945 48.1706 276.02 47.9623C276.096 47.7503 276.134 47.2349 276.134 46.4159V44.0021H277.648V49.7241H276.241ZM282.534 47.903L284.043 48.1562C283.849 48.7094 283.542 49.1314 283.122 49.4224C282.705 49.7098 282.182 49.8534 281.554 49.8534C280.559 49.8534 279.823 49.5284 279.345 48.8782C278.968 48.3574 278.779 47.7001 278.779 46.9062C278.779 45.958 279.027 45.2162 279.523 44.681C280.018 44.1422 280.645 43.8728 281.403 43.8728C282.254 43.8728 282.926 44.1548 283.418 44.7187C283.91 45.2791 284.145 46.1394 284.124 47.2996H280.331C280.342 47.7485 280.464 48.0988 280.697 48.3502C280.931 48.598 281.222 48.722 281.57 48.722C281.807 48.722 282.006 48.6573 282.168 48.528C282.33 48.3987 282.452 48.1904 282.534 47.903ZM282.621 46.3728C282.61 45.9346 282.497 45.6024 282.281 45.3761C282.066 45.1462 281.804 45.0312 281.495 45.0312C281.164 45.0312 280.891 45.1516 280.676 45.3922C280.46 45.6329 280.354 45.9598 280.358 46.3728H282.621ZM285.299 49.7241V41.8254H286.813V44.6702C287.279 44.1386 287.833 43.8728 288.472 43.8728C289.169 43.8728 289.745 44.1261 290.202 44.6325C290.658 45.1354 290.886 45.8592 290.886 46.8039C290.886 47.7809 290.652 48.5334 290.185 49.0614C289.722 49.5894 289.158 49.8534 288.494 49.8534C288.167 49.8534 287.843 49.7726 287.524 49.611C287.208 49.4457 286.935 49.2033 286.705 48.8836V49.7241H285.299ZM286.802 46.7392C286.802 47.3319 286.895 47.7701 287.082 48.0539C287.344 48.4562 287.693 48.6573 288.127 48.6573C288.461 48.6573 288.745 48.5154 288.978 48.2317C289.216 47.9443 289.334 47.4935 289.334 46.8793C289.334 46.2256 289.216 45.755 288.978 45.4677C288.741 45.1767 288.438 45.0312 288.068 45.0312C287.705 45.0312 287.403 45.1731 287.163 45.4569C286.922 45.7371 286.802 46.1645 286.802 46.7392ZM293.24 45.7478L291.866 45.5C292.021 44.9468 292.287 44.5373 292.664 44.2715C293.041 44.0057 293.601 43.8728 294.345 43.8728C295.02 43.8728 295.523 43.9536 295.853 44.1153C296.184 44.2733 296.416 44.4763 296.549 44.7241C296.685 44.9684 296.753 45.4192 296.753 46.0765L296.737 47.8437C296.737 48.3466 296.76 48.7184 296.807 48.959C296.857 49.1961 296.949 49.4511 297.082 49.7241H295.584C295.545 49.6235 295.496 49.4745 295.439 49.2769C295.413 49.1871 295.395 49.1279 295.385 49.0991C295.126 49.3506 294.85 49.5391 294.555 49.6649C294.26 49.7906 293.946 49.8534 293.612 49.8534C293.023 49.8534 292.558 49.6936 292.217 49.3739C291.879 49.0542 291.71 48.6501 291.71 48.1616C291.71 47.8383 291.787 47.551 291.942 47.2996C292.096 47.0445 292.312 46.8506 292.588 46.7177C292.869 46.5812 293.271 46.4626 293.795 46.3621C294.503 46.2291 294.993 46.1052 295.266 45.9903V45.8394C295.266 45.5485 295.194 45.3419 295.051 45.2198C294.907 45.0941 294.636 45.0312 294.237 45.0312C293.968 45.0312 293.758 45.0851 293.607 45.1929C293.456 45.297 293.334 45.482 293.24 45.7478ZM295.266 46.9763C295.072 47.0409 294.765 47.1182 294.345 47.208C293.925 47.2978 293.65 47.3858 293.52 47.472C293.323 47.6121 293.224 47.7899 293.224 48.0054C293.224 48.2173 293.303 48.4005 293.461 48.5549C293.619 48.7094 293.82 48.7866 294.065 48.7866C294.338 48.7866 294.598 48.6968 294.846 48.5172C295.029 48.3807 295.149 48.2137 295.207 48.0161C295.246 47.8868 295.266 47.6408 295.266 47.278V46.9763ZM301.236 49.7241V41.8254H302.206V49.7241H301.236ZM303.353 46.8631C303.353 45.8035 303.648 45.0187 304.237 44.5086C304.729 44.0848 305.329 43.8728 306.037 43.8728C306.823 43.8728 307.466 44.1314 307.966 44.6487C308.465 45.1623 308.714 45.8735 308.714 46.7823C308.714 47.5187 308.603 48.0988 308.38 48.5226C308.161 48.9429 307.84 49.2697 307.416 49.5032C306.996 49.7367 306.536 49.8534 306.037 49.8534C305.236 49.8534 304.587 49.5966 304.092 49.083C303.6 48.5693 303.353 47.8294 303.353 46.8631ZM304.35 46.8631C304.35 47.5959 304.51 48.1455 304.83 48.5118C305.149 48.8746 305.552 49.056 306.037 49.056C306.518 49.056 306.918 48.8728 307.238 48.5064C307.558 48.1401 307.718 47.5815 307.718 46.8308C307.718 46.1232 307.556 45.588 307.233 45.2252C306.913 44.8588 306.514 44.6756 306.037 44.6756C305.552 44.6756 305.149 44.857 304.83 45.2198C304.51 45.5826 304.35 46.1304 304.35 46.8631ZM309.469 48.0161L310.428 47.8653C310.482 48.2496 310.631 48.5442 310.875 48.7489C311.123 48.9536 311.468 49.056 311.909 49.056C312.355 49.056 312.685 48.9662 312.901 48.7866C313.116 48.6034 313.224 48.3897 313.224 48.1455C313.224 47.9263 313.129 47.7539 312.939 47.6282C312.806 47.542 312.475 47.4325 311.947 47.2996C311.236 47.12 310.742 46.9655 310.466 46.8362C310.193 46.7033 309.984 46.5219 309.841 46.292C309.7 46.0585 309.63 45.8017 309.63 45.5215C309.63 45.2665 309.688 45.0312 309.803 44.8157C309.921 44.5966 310.081 44.4152 310.282 44.2715C310.433 44.1602 310.638 44.0668 310.897 43.9914C311.159 43.9123 311.439 43.8728 311.737 43.8728C312.186 43.8728 312.579 43.9375 312.917 44.0668C313.258 44.1961 313.51 44.3721 313.671 44.5948C313.833 44.8139 313.944 45.1085 314.005 45.4784L313.057 45.6077C313.014 45.3132 312.888 45.0833 312.68 44.9181C312.475 44.7529 312.184 44.6702 311.807 44.6702C311.362 44.6702 311.044 44.7439 310.853 44.8911C310.663 45.0384 310.568 45.2108 310.568 45.4084C310.568 45.5341 310.607 45.6473 310.686 45.7478C310.765 45.852 310.889 45.9382 311.058 46.0064C311.155 46.0424 311.441 46.125 311.915 46.2543C312.601 46.4375 313.079 46.5883 313.348 46.7069C313.621 46.8218 313.835 46.9906 313.989 47.2133C314.144 47.436 314.221 47.7126 314.221 48.0431C314.221 48.3664 314.126 48.6717 313.935 48.959C313.749 49.2428 313.477 49.4637 313.122 49.6218C312.766 49.7762 312.364 49.8534 311.915 49.8534C311.171 49.8534 310.604 49.699 310.212 49.3901C309.824 49.0812 309.577 48.6232 309.469 48.0161ZM243.612 62.0183C243.253 62.3236 242.906 62.5391 242.572 62.6649C242.242 62.7906 241.886 62.8534 241.505 62.8534C240.877 62.8534 240.394 62.7008 240.056 62.3955C239.718 62.0865 239.55 61.6932 239.55 61.2155C239.55 60.9353 239.612 60.6803 239.738 60.4504C239.867 60.2169 240.034 60.0302 240.239 59.8901C240.448 59.75 240.681 59.644 240.94 59.5722C241.13 59.5219 241.417 59.4734 241.802 59.4267C242.585 59.3333 243.161 59.222 243.531 59.0927C243.535 58.9598 243.537 58.8753 243.537 58.8394C243.537 58.4443 243.445 58.1659 243.262 58.0043C243.014 57.7852 242.646 57.6756 242.157 57.6756C241.701 57.6756 241.364 57.7564 241.144 57.9181C240.929 58.0761 240.769 58.3581 240.665 58.764L239.717 58.6347C239.803 58.2288 239.945 57.9019 240.142 57.6541C240.34 57.4026 240.625 57.2105 240.999 57.0776C241.372 56.9411 241.805 56.8728 242.297 56.8728C242.786 56.8728 243.183 56.9303 243.488 57.0452C243.793 57.1602 244.018 57.3057 244.162 57.4817C244.305 57.6541 244.406 57.8732 244.463 58.139C244.496 58.3042 244.512 58.6024 244.512 59.0334V60.3265C244.512 61.2281 244.532 61.7992 244.571 62.0399C244.614 62.2769 244.697 62.505 244.819 62.7241H243.806C243.705 62.523 243.641 62.2877 243.612 62.0183ZM243.531 59.8524C243.179 59.996 242.651 60.1182 241.947 60.2187C241.549 60.2762 241.267 60.3409 241.101 60.4127C240.936 60.4845 240.809 60.5905 240.719 60.7306C240.629 60.8671 240.584 61.0197 240.584 61.1886C240.584 61.4472 240.681 61.6627 240.875 61.8351C241.073 62.0075 241.36 62.0937 241.737 62.0937C242.111 62.0937 242.443 62.0129 242.734 61.8513C243.025 61.686 243.239 61.4615 243.375 61.1778C243.479 60.9587 243.531 60.6354 243.531 60.208V59.8524ZM247.61 62.7241L245.433 57.0021H246.457L247.685 60.4289C247.818 60.7988 247.94 61.1832 248.052 61.5819C248.138 61.2802 248.258 60.9174 248.413 60.4935L249.684 57.0021H250.681L248.515 62.7241H247.61ZM255.272 62.0183C254.912 62.3236 254.566 62.5391 254.232 62.6649C253.901 62.7906 253.546 62.8534 253.165 62.8534C252.536 62.8534 252.053 62.7008 251.716 62.3955C251.378 62.0865 251.209 61.6932 251.209 61.2155C251.209 60.9353 251.272 60.6803 251.398 60.4504C251.527 60.2169 251.694 60.0302 251.899 59.8901C252.107 59.75 252.341 59.644 252.599 59.5722C252.79 59.5219 253.077 59.4734 253.461 59.4267C254.244 59.3333 254.821 59.222 255.191 59.0927C255.194 58.9598 255.196 58.8753 255.196 58.8394C255.196 58.4443 255.105 58.1659 254.921 58.0043C254.674 57.7852 254.305 57.6756 253.817 57.6756C253.361 57.6756 253.023 57.7564 252.804 57.9181C252.588 58.0761 252.429 58.3581 252.324 58.764L251.376 58.6347C251.462 58.2288 251.604 57.9019 251.802 57.6541C251.999 57.4026 252.285 57.2105 252.658 57.0776C253.032 56.9411 253.465 56.8728 253.957 56.8728C254.445 56.8728 254.842 56.9303 255.148 57.0452C255.453 57.1602 255.677 57.3057 255.821 57.4817C255.965 57.6541 256.065 57.8732 256.123 58.139C256.155 58.3042 256.171 58.6024 256.171 59.0334V60.3265C256.171 61.2281 256.191 61.7992 256.231 62.0399C256.274 62.2769 256.356 62.505 256.478 62.7241H255.466C255.365 62.523 255.3 62.2877 255.272 62.0183ZM255.191 59.8524C254.839 59.996 254.311 60.1182 253.607 60.2187C253.208 60.2762 252.926 60.3409 252.761 60.4127C252.596 60.4845 252.468 60.5905 252.378 60.7306C252.288 60.8671 252.244 61.0197 252.244 61.1886C252.244 61.4472 252.341 61.6627 252.534 61.8351C252.732 62.0075 253.019 62.0937 253.397 62.0937C253.77 62.0937 254.102 62.0129 254.393 61.8513C254.684 61.686 254.898 61.4615 255.034 61.1778C255.139 60.9587 255.191 60.6354 255.191 60.208V59.8524ZM257.68 62.7241V57.0021H258.553V57.8157C258.973 57.1871 259.58 56.8728 260.374 56.8728C260.719 56.8728 261.035 56.9357 261.322 57.0614C261.613 57.1835 261.83 57.3452 261.974 57.5463C262.118 57.7475 262.218 57.9863 262.276 58.2629C262.312 58.4425 262.33 58.7568 262.33 59.2058V62.7241H261.36V59.2435C261.36 58.8484 261.322 58.5539 261.247 58.3599C261.171 58.1623 261.037 58.0061 260.843 57.8911C260.652 57.7726 260.428 57.7133 260.169 57.7133C259.756 57.7133 259.399 57.8445 259.097 58.1067C258.799 58.3689 258.65 58.8664 258.65 59.5991V62.7241H257.68ZM267.556 60.6282L268.51 60.7521C268.406 61.4095 268.138 61.9249 267.707 62.2985C267.279 62.6684 266.753 62.8534 266.128 62.8534C265.345 62.8534 264.715 62.5984 264.237 62.0883C263.763 61.5747 263.526 60.8401 263.526 59.8847C263.526 59.2669 263.628 58.7263 263.833 58.2629C264.038 57.7996 264.348 57.4529 264.765 57.223C265.185 56.9896 265.642 56.8728 266.134 56.8728C266.755 56.8728 267.263 57.0309 267.658 57.347C268.054 57.6595 268.307 58.1049 268.418 58.6832L267.475 58.8286C267.385 58.4443 267.226 58.1552 266.996 57.9612C266.769 57.7672 266.495 57.6702 266.171 57.6702C265.683 57.6702 265.286 57.8462 264.981 58.1983C264.675 58.5467 264.523 59.0998 264.523 59.8577C264.523 60.6264 264.67 61.185 264.964 61.5334C265.259 61.8818 265.643 62.056 266.117 62.056C266.498 62.056 266.816 61.9393 267.071 61.7058C267.326 61.4723 267.488 61.1131 267.556 60.6282ZM273.256 60.8814L274.259 61.0054C274.101 61.5909 273.808 62.0452 273.38 62.3685C272.953 62.6918 272.407 62.8534 271.742 62.8534C270.906 62.8534 270.241 62.5966 269.749 62.083C269.26 61.5657 269.016 60.8419 269.016 59.9116C269.016 58.949 269.264 58.2019 269.76 57.6702C270.255 57.1386 270.898 56.8728 271.689 56.8728C272.454 56.8728 273.079 57.1332 273.564 57.6541C274.049 58.1749 274.291 58.9077 274.291 59.8524C274.291 59.9098 274.289 59.996 274.286 60.111H270.018C270.054 60.7396 270.232 61.2209 270.552 61.5549C270.871 61.889 271.27 62.056 271.748 62.056C272.103 62.056 272.407 61.9626 272.658 61.7758C272.91 61.5891 273.109 61.2909 273.256 60.8814ZM270.072 59.3136H273.267C273.224 58.8322 273.102 58.4712 272.901 58.2306C272.592 57.857 272.191 57.6702 271.699 57.6702C271.254 57.6702 270.879 57.8193 270.573 58.1174C270.272 58.4156 270.105 58.8143 270.072 59.3136ZM275.094 61.0161L276.053 60.8653C276.107 61.2496 276.256 61.5442 276.5 61.7489C276.748 61.9536 277.093 62.056 277.534 62.056C277.98 62.056 278.31 61.9662 278.526 61.7866C278.741 61.6034 278.849 61.3897 278.849 61.1455C278.849 60.9263 278.754 60.7539 278.564 60.6282C278.431 60.542 278.1 60.4325 277.572 60.2996C276.861 60.12 276.367 59.9655 276.091 59.8362C275.818 59.7033 275.609 59.5219 275.466 59.292C275.325 59.0585 275.255 58.8017 275.255 58.5215C275.255 58.2665 275.313 58.0312 275.428 57.8157C275.546 57.5966 275.706 57.4152 275.907 57.2715C276.058 57.1602 276.263 57.0668 276.522 56.9914C276.784 56.9123 277.064 56.8728 277.362 56.8728C277.811 56.8728 278.204 56.9375 278.542 57.0668C278.883 57.1961 279.135 57.3721 279.296 57.5948C279.458 57.8139 279.569 58.1085 279.63 58.4784L278.682 58.6077C278.639 58.3132 278.513 58.0833 278.305 57.9181C278.1 57.7529 277.809 57.6702 277.432 57.6702C276.987 57.6702 276.669 57.7439 276.478 57.8911C276.288 58.0384 276.193 58.2108 276.193 58.4084C276.193 58.5341 276.232 58.6473 276.311 58.7478C276.39 58.852 276.514 58.9382 276.683 59.0064C276.78 59.0424 277.066 59.125 277.54 59.2543C278.226 59.4375 278.704 59.5883 278.973 59.7069C279.246 59.8218 279.46 59.9906 279.614 60.2133C279.769 60.436 279.846 60.7126 279.846 61.0431C279.846 61.3664 279.751 61.6717 279.56 61.959C279.374 62.2428 279.102 62.4637 278.747 62.6218C278.391 62.7762 277.989 62.8534 277.54 62.8534C276.796 62.8534 276.229 62.699 275.837 62.3901C275.449 62.0812 275.202 61.6232 275.094 61.0161ZM287.987 60.8814L288.989 61.0054C288.831 61.5909 288.538 62.0452 288.111 62.3685C287.684 62.6918 287.138 62.8534 286.473 62.8534C285.636 62.8534 284.972 62.5966 284.48 62.083C283.991 61.5657 283.747 60.8419 283.747 59.9116C283.747 58.949 283.995 58.2019 284.49 57.6702C284.986 57.1386 285.629 56.8728 286.419 56.8728C287.184 56.8728 287.809 57.1332 288.294 57.6541C288.779 58.1749 289.022 58.9077 289.022 59.8524C289.022 59.9098 289.02 59.996 289.016 60.111H284.749C284.785 60.7396 284.963 61.2209 285.282 61.5549C285.602 61.889 286.001 62.056 286.478 62.056C286.834 62.056 287.138 61.9626 287.389 61.7758C287.64 61.5891 287.84 61.2909 287.987 60.8814ZM284.803 59.3136H287.998C287.955 58.8322 287.833 58.4712 287.631 58.2306C287.323 57.857 286.922 57.6702 286.43 57.6702C285.985 57.6702 285.609 57.8193 285.304 58.1174C285.002 58.4156 284.835 58.8143 284.803 59.3136ZM290.212 62.7241V57.0021H291.085V57.8157C291.505 57.1871 292.112 56.8728 292.906 56.8728C293.251 56.8728 293.567 56.9357 293.855 57.0614C294.145 57.1835 294.363 57.3452 294.506 57.5463C294.65 57.7475 294.751 57.9863 294.808 58.2629C294.844 58.4425 294.862 58.7568 294.862 59.2058V62.7241H293.892V59.2435C293.892 58.8484 293.855 58.5539 293.779 58.3599C293.704 58.1623 293.569 58.0061 293.375 57.8911C293.185 57.7726 292.96 57.7133 292.702 57.7133C292.288 57.7133 291.931 57.8445 291.629 58.1067C291.331 58.3689 291.182 58.8664 291.182 59.5991V62.7241H290.212ZM297.944 62.7241L295.767 57.0021H296.791L298.019 60.4289C298.152 60.7988 298.274 61.1832 298.386 61.5819C298.472 61.2802 298.592 60.9174 298.747 60.4935L300.018 57.0021H301.015L298.849 62.7241H297.944ZM302.211 62.7241V57.0021H303.181V62.7241H302.211ZM302.163 56.2909L302.879 54.7823H304.151L302.966 56.2909H302.163ZM308.677 62.0183C308.318 62.3236 307.971 62.5391 307.637 62.6649C307.306 62.7906 306.951 62.8534 306.57 62.8534C305.941 62.8534 305.458 62.7008 305.121 62.3955C304.783 62.0865 304.614 61.6932 304.614 61.2155C304.614 60.9353 304.677 60.6803 304.803 60.4504C304.932 60.2169 305.099 60.0302 305.304 59.8901C305.512 59.75 305.746 59.644 306.004 59.5722C306.195 59.5219 306.482 59.4734 306.866 59.4267C307.649 59.3333 308.226 59.222 308.596 59.0927C308.6 58.9598 308.601 58.8753 308.601 58.8394C308.601 58.4443 308.51 58.1659 308.327 58.0043C308.079 57.7852 307.711 57.6756 307.222 57.6756C306.766 57.6756 306.428 57.7564 306.209 57.9181C305.994 58.0761 305.834 58.3581 305.73 58.764L304.781 58.6347C304.867 58.2288 305.009 57.9019 305.207 57.6541C305.404 57.4026 305.69 57.2105 306.064 57.0776C306.437 56.9411 306.87 56.8728 307.362 56.8728C307.851 56.8728 308.247 56.9303 308.553 57.0452C308.858 57.1602 309.083 57.3057 309.226 57.4817C309.37 57.6541 309.471 57.8732 309.528 58.139C309.56 58.3042 309.577 58.6024 309.577 59.0334V60.3265C309.577 61.2281 309.596 61.7992 309.636 62.0399C309.679 62.2769 309.762 62.505 309.884 62.7241H308.871C308.77 62.523 308.705 62.2877 308.677 62.0183ZM308.596 59.8524C308.244 59.996 307.716 60.1182 307.012 60.2187C306.613 60.2762 306.331 60.3409 306.166 60.4127C306.001 60.4845 305.873 60.5905 305.783 60.7306C305.694 60.8671 305.649 61.0197 305.649 61.1886C305.649 61.4472 305.746 61.6627 305.94 61.8351C306.137 62.0075 306.425 62.0937 306.802 62.0937C307.175 62.0937 307.508 62.0129 307.799 61.8513C308.089 61.686 308.303 61.4615 308.44 61.1778C308.544 60.9587 308.596 60.6354 308.596 60.208V59.8524ZM314.797 62.7241V62.0021C314.435 62.5697 313.901 62.8534 313.197 62.8534C312.741 62.8534 312.321 62.7277 311.936 62.4763C311.556 62.2248 311.259 61.8746 311.047 61.4256C310.839 60.973 310.735 60.454 310.735 59.8685C310.735 59.2974 310.83 58.7802 311.02 58.3168C311.211 57.8498 311.496 57.4924 311.877 57.2446C312.258 56.9968 312.684 56.8728 313.154 56.8728C313.499 56.8728 313.806 56.9465 314.075 57.0937C314.345 57.2374 314.564 57.426 314.733 57.6595V54.8254H315.697V62.7241H314.797ZM311.732 59.8685C311.732 60.6013 311.886 61.149 312.195 61.5118C312.504 61.8746 312.869 62.056 313.289 62.056C313.713 62.056 314.072 61.8836 314.366 61.5388C314.665 61.1904 314.814 60.6605 314.814 59.9493C314.814 59.1663 314.663 58.5916 314.361 58.2252C314.059 57.8588 313.688 57.6756 313.246 57.6756C312.815 57.6756 312.454 57.8516 312.163 58.2036C311.875 58.5557 311.732 59.1106 311.732 59.8685ZM316.866 59.8631C316.866 58.8035 317.161 58.0187 317.75 57.5086C318.242 57.0848 318.842 56.8728 319.55 56.8728C320.336 56.8728 320.979 57.1314 321.478 57.6487C321.978 58.1623 322.227 58.8735 322.227 59.7823C322.227 60.5187 322.116 61.0988 321.893 61.5226C321.674 61.9429 321.353 62.2697 320.929 62.5032C320.509 62.7367 320.049 62.8534 319.55 62.8534C318.749 62.8534 318.1 62.5966 317.605 62.083C317.112 61.5693 316.866 60.8294 316.866 59.8631ZM317.863 59.8631C317.863 60.5959 318.023 61.1455 318.343 61.5118C318.662 61.8746 319.065 62.056 319.55 62.056C320.031 62.056 320.431 61.8728 320.751 61.5064C321.071 61.1401 321.231 60.5815 321.231 59.8308C321.231 59.1232 321.069 58.588 320.746 58.2252C320.426 57.8588 320.027 57.6756 319.55 57.6756C319.065 57.6756 318.662 57.857 318.343 58.2198C318.023 58.5826 317.863 59.1304 317.863 59.8631ZM322.982 61.0161L323.941 60.8653C323.995 61.2496 324.144 61.5442 324.388 61.7489C324.636 61.9536 324.981 62.056 325.422 62.056C325.868 62.056 326.198 61.9662 326.414 61.7866C326.629 61.6034 326.737 61.3897 326.737 61.1455C326.737 60.9263 326.642 60.7539 326.452 60.6282C326.319 60.542 325.988 60.4325 325.46 60.2996C324.749 60.12 324.255 59.9655 323.978 59.8362C323.705 59.7033 323.497 59.5219 323.353 59.292C323.213 59.0585 323.143 58.8017 323.143 58.5215C323.143 58.2665 323.201 58.0312 323.316 57.8157C323.434 57.5966 323.594 57.4152 323.795 57.2715C323.946 57.1602 324.151 57.0668 324.409 56.9914C324.672 56.9123 324.952 56.8728 325.25 56.8728C325.699 56.8728 326.092 56.9375 326.43 57.0668C326.771 57.1961 327.023 57.3721 327.184 57.5948C327.346 57.8139 327.457 58.1085 327.518 58.4784L326.57 58.6077C326.527 58.3132 326.401 58.0833 326.193 57.9181C325.988 57.7529 325.697 57.6702 325.32 57.6702C324.875 57.6702 324.557 57.7439 324.366 57.8911C324.176 58.0384 324.081 58.2108 324.081 58.4084C324.081 58.5341 324.12 58.6473 324.199 58.7478C324.278 58.852 324.402 58.9382 324.571 59.0064C324.668 59.0424 324.954 59.125 325.428 59.2543C326.114 59.4375 326.592 59.5883 326.861 59.7069C327.134 59.8218 327.348 59.9906 327.502 60.2133C327.657 60.436 327.734 60.7126 327.734 61.0431C327.734 61.3664 327.639 61.6717 327.448 61.959C327.262 62.2428 326.99 62.4637 326.635 62.6218C326.279 62.7762 325.877 62.8534 325.428 62.8534C324.684 62.8534 324.117 62.699 323.725 62.3901C323.337 62.0812 323.089 61.6232 322.982 61.0161Z" fill="#7561E5"/>
<path d="M124.421 49.7241V42.7575H121.819V41.8254H128.08V42.7575H125.467V49.7241H124.421ZM132.374 49.7241V48.8836C131.928 49.5302 131.323 49.8534 130.558 49.8534C130.221 49.8534 129.904 49.7888 129.61 49.6595C129.319 49.5302 129.102 49.3685 128.958 49.1746C128.818 48.977 128.719 48.7363 128.662 48.4526C128.622 48.2622 128.602 47.9605 128.602 47.5474V44.0021H129.572V47.1756C129.572 47.6821 129.592 48.0233 129.631 48.1993C129.692 48.4544 129.822 48.6555 130.019 48.8028C130.217 48.9465 130.461 49.0183 130.752 49.0183C131.043 49.0183 131.316 48.9447 131.571 48.7974C131.826 48.6465 132.006 48.4436 132.11 48.1886C132.218 47.9299 132.272 47.5564 132.272 47.0679V44.0021H133.241V49.7241H132.374ZM138.069 49.7241V44.7564H137.212V44.0021H138.069V43.3933C138.069 43.009 138.103 42.7234 138.171 42.5366C138.265 42.2852 138.428 42.0822 138.662 41.9278C138.899 41.7697 139.229 41.6907 139.653 41.6907C139.926 41.6907 140.228 41.723 140.558 41.7877L140.413 42.6336C140.212 42.5977 140.021 42.5797 139.842 42.5797C139.547 42.5797 139.339 42.6426 139.217 42.7683C139.094 42.894 139.033 43.1293 139.033 43.4741V44.0021H140.149V44.7564H139.033V49.7241H138.069ZM140.898 49.7241V44.0021H141.77V44.8696C141.993 44.4637 142.198 44.1961 142.385 44.0668C142.575 43.9375 142.783 43.8728 143.01 43.8728C143.337 43.8728 143.669 43.977 144.006 44.1853L143.672 45.0851C143.435 44.945 143.198 44.875 142.961 44.875C142.749 44.875 142.559 44.9396 142.39 45.0689C142.221 45.1947 142.101 45.3707 142.029 45.597C141.921 45.9418 141.867 46.3189 141.867 46.7284V49.7241H140.898ZM144.588 42.9407V41.8254H145.558V42.9407H144.588ZM144.588 49.7241V44.0021H145.558V49.7241H144.588ZM147.018 49.7241V41.8254H147.988V49.7241H147.018ZM153.231 49.0183C152.871 49.3236 152.525 49.5391 152.191 49.6649C151.86 49.7906 151.505 49.8534 151.124 49.8534C150.495 49.8534 150.012 49.7008 149.675 49.3955C149.337 49.0865 149.168 48.6932 149.168 48.2155C149.168 47.9353 149.231 47.6803 149.357 47.4504C149.486 47.2169 149.653 47.0302 149.858 46.8901C150.066 46.75 150.3 46.644 150.558 46.5722C150.749 46.5219 151.036 46.4734 151.42 46.4267C152.203 46.3333 152.78 46.222 153.15 46.0927C153.153 45.9598 153.155 45.8753 153.155 45.8394C153.155 45.4443 153.064 45.1659 152.88 45.0043C152.633 44.7852 152.264 44.6756 151.776 44.6756C151.32 44.6756 150.982 44.7564 150.763 44.9181C150.547 45.0761 150.388 45.3581 150.283 45.764L149.335 45.6347C149.421 45.2288 149.563 44.9019 149.761 44.6541C149.958 44.4026 150.244 44.2105 150.617 44.0776C150.991 43.9411 151.424 43.8728 151.916 43.8728C152.404 43.8728 152.801 43.9303 153.107 44.0452C153.412 44.1602 153.636 44.3057 153.78 44.4817C153.924 44.6541 154.024 44.8732 154.082 45.139C154.114 45.3042 154.13 45.6024 154.13 46.0334V47.3265C154.13 48.2281 154.15 48.7992 154.19 49.0399C154.233 49.2769 154.315 49.505 154.437 49.7241H153.425C153.324 49.523 153.259 49.2877 153.231 49.0183ZM153.15 46.8524C152.798 46.996 152.27 47.1182 151.566 47.2187C151.167 47.2762 150.885 47.3409 150.72 47.4127C150.555 47.4845 150.427 47.5905 150.337 47.7306C150.247 47.8671 150.203 48.0197 150.203 48.1886C150.203 48.4472 150.3 48.6627 150.494 48.8351C150.691 49.0075 150.978 49.0937 151.356 49.0937C151.729 49.0937 152.061 49.0129 152.352 48.8513C152.643 48.686 152.857 48.4615 152.994 48.1778C153.098 47.9587 153.15 47.6354 153.15 47.208V46.8524ZM155.639 49.7241V44.0021H156.512V44.8157C156.932 44.1871 157.539 43.8728 158.333 43.8728C158.678 43.8728 158.994 43.9357 159.281 44.0614C159.572 44.1835 159.789 44.3452 159.933 44.5463C160.077 44.7475 160.177 44.9863 160.235 45.2629C160.271 45.4425 160.289 45.7568 160.289 46.2058V49.7241H159.319V46.2435C159.319 45.8484 159.281 45.5539 159.206 45.3599C159.13 45.1623 158.996 45.0061 158.802 44.8911C158.611 44.7726 158.387 44.7133 158.128 44.7133C157.715 44.7133 157.358 44.8445 157.056 45.1067C156.758 45.3689 156.609 45.8664 156.609 46.5991V49.7241H155.639ZM165.515 47.6282L166.469 47.7521C166.365 48.4095 166.097 48.9249 165.666 49.2985C165.238 49.6684 164.712 49.8534 164.087 49.8534C163.304 49.8534 162.674 49.5984 162.196 49.0883C161.722 48.5747 161.485 47.8401 161.485 46.8847C161.485 46.2669 161.587 45.7263 161.792 45.2629C161.997 44.7996 162.307 44.4529 162.724 44.223C163.144 43.9896 163.601 43.8728 164.093 43.8728C164.714 43.8728 165.222 44.0309 165.617 44.347C166.013 44.6595 166.266 45.1049 166.377 45.6832L165.434 45.8286C165.344 45.4443 165.185 45.1552 164.955 44.9612C164.728 44.7672 164.454 44.6702 164.13 44.6702C163.642 44.6702 163.245 44.8462 162.94 45.1983C162.634 45.5467 162.482 46.0998 162.482 46.8577C162.482 47.6264 162.629 48.185 162.923 48.5334C163.218 48.8818 163.602 49.056 164.076 49.056C164.457 49.056 164.775 48.9393 165.03 48.7058C165.285 48.4723 165.447 48.1131 165.515 47.6282ZM171.215 47.8814L172.218 48.0054C172.06 48.5909 171.767 49.0452 171.339 49.3685C170.912 49.6918 170.366 49.8534 169.701 49.8534C168.865 49.8534 168.2 49.5966 167.708 49.083C167.219 48.5657 166.975 47.8419 166.975 46.9116C166.975 45.949 167.223 45.2019 167.719 44.6702C168.214 44.1386 168.857 43.8728 169.648 43.8728C170.413 43.8728 171.038 44.1332 171.523 44.6541C172.008 45.1749 172.25 45.9077 172.25 46.8524C172.25 46.9098 172.248 46.996 172.245 47.111H167.977C168.013 47.7396 168.191 48.2209 168.511 48.5549C168.83 48.889 169.229 49.056 169.707 49.056C170.062 49.056 170.366 48.9626 170.617 48.7758C170.869 48.5891 171.068 48.2909 171.215 47.8814ZM168.031 46.3136H171.226C171.183 45.8322 171.061 45.4712 170.86 45.2306C170.551 44.857 170.15 44.6702 169.658 44.6702C169.213 44.6702 168.838 44.8193 168.532 45.1174C168.231 45.4156 168.064 45.8143 168.031 46.3136ZM173.43 49.7241V44.0021H174.303V44.8696C174.525 44.4637 174.73 44.1961 174.917 44.0668C175.107 43.9375 175.316 43.8728 175.542 43.8728C175.869 43.8728 176.201 43.977 176.539 44.1853L176.205 45.0851C175.968 44.945 175.731 44.875 175.494 44.875C175.282 44.875 175.091 44.9396 174.922 45.0689C174.754 45.1947 174.633 45.3707 174.561 45.597C174.454 45.9418 174.4 46.3189 174.4 46.7284V49.7241H173.43ZM184.103 47.8814L185.106 48.0054C184.948 48.5909 184.655 49.0452 184.227 49.3685C183.8 49.6918 183.254 49.8534 182.589 49.8534C181.752 49.8534 181.088 49.5966 180.596 49.083C180.107 48.5657 179.863 47.8419 179.863 46.9116C179.863 45.949 180.111 45.2019 180.607 44.6702C181.102 44.1386 181.745 43.8728 182.536 43.8728C183.301 43.8728 183.926 44.1332 184.411 44.6541C184.895 45.1749 185.138 45.9077 185.138 46.8524C185.138 46.9098 185.136 46.996 185.133 47.111H180.865C180.901 47.7396 181.079 48.2209 181.399 48.5549C181.718 48.889 182.117 49.056 182.595 49.056C182.95 49.056 183.254 48.9626 183.505 48.7758C183.757 48.5891 183.956 48.2909 184.103 47.8814ZM180.919 46.3136H184.114C184.071 45.8322 183.949 45.4712 183.748 45.2306C183.439 44.857 183.038 44.6702 182.546 44.6702C182.101 44.6702 181.726 44.8193 181.42 45.1174C181.119 45.4156 180.951 45.8143 180.919 46.3136ZM186.329 49.7241V44.0021H187.201V44.8157C187.622 44.1871 188.229 43.8728 189.023 43.8728C189.367 43.8728 189.684 43.9357 189.971 44.0614C190.262 44.1835 190.479 44.3452 190.623 44.5463C190.766 44.7475 190.867 44.9863 190.925 45.2629C190.96 45.4425 190.978 45.7568 190.978 46.2058V49.7241H190.009V46.2435C190.009 45.8484 189.971 45.5539 189.895 45.3599C189.82 45.1623 189.685 45.0061 189.491 44.8911C189.301 44.7726 189.076 44.7133 188.818 44.7133C188.405 44.7133 188.047 44.8445 187.746 45.1067C187.448 45.3689 187.298 45.8664 187.298 46.5991V49.7241H186.329ZM194.06 49.7241L191.884 44.0021H192.907L194.136 47.4289C194.269 47.7988 194.391 48.1832 194.502 48.5819C194.588 48.2802 194.709 47.9174 194.863 47.4935L196.135 44.0021H197.131L194.965 49.7241H194.06ZM198.328 49.7241V44.0021H199.297V49.7241H198.328ZM198.279 43.2909L198.996 41.7823H200.267L199.082 43.2909H198.279ZM204.793 49.0183C204.434 49.3236 204.087 49.5391 203.753 49.6649C203.423 49.7906 203.067 49.8534 202.686 49.8534C202.058 49.8534 201.575 49.7008 201.237 49.3955C200.899 49.0865 200.731 48.6932 200.731 48.2155C200.731 47.9353 200.793 47.6803 200.919 47.4504C201.048 47.2169 201.215 47.0302 201.42 46.8901C201.629 46.75 201.862 46.644 202.121 46.5722C202.311 46.5219 202.598 46.4734 202.983 46.4267C203.766 46.3333 204.342 46.222 204.712 46.0927C204.716 45.9598 204.718 45.8753 204.718 45.8394C204.718 45.4443 204.626 45.1659 204.443 45.0043C204.195 44.7852 203.827 44.6756 203.338 44.6756C202.882 44.6756 202.545 44.7564 202.325 44.9181C202.11 45.0761 201.95 45.3581 201.846 45.764L200.898 45.6347C200.984 45.2288 201.126 44.9019 201.323 44.6541C201.521 44.4026 201.806 44.2105 202.18 44.0776C202.553 43.9411 202.986 43.8728 203.478 43.8728C203.967 43.8728 204.364 43.9303 204.669 44.0452C204.974 44.1602 205.199 44.3057 205.343 44.4817C205.486 44.6541 205.587 44.8732 205.644 45.139C205.677 45.3042 205.693 45.6024 205.693 46.0334V47.3265C205.693 48.2281 205.713 48.7992 205.752 49.0399C205.795 49.2769 205.878 49.505 206 49.7241H204.987C204.886 49.523 204.822 49.2877 204.793 49.0183ZM204.712 46.8524C204.36 46.996 203.832 47.1182 203.128 47.2187C202.729 47.2762 202.448 47.3409 202.282 47.4127C202.117 47.4845 201.99 47.5905 201.9 47.7306C201.81 47.8671 201.765 48.0197 201.765 48.1886C201.765 48.4472 201.862 48.6627 202.056 48.8351C202.254 49.0075 202.541 49.0937 202.918 49.0937C203.292 49.0937 203.624 49.0129 203.915 48.8513C204.206 48.686 204.42 48.4615 204.556 48.1778C204.66 47.9587 204.712 47.6354 204.712 47.208V46.8524ZM134.33 62.7241V54.8254H135.3V62.7241H134.33ZM136.447 59.8631C136.447 58.8035 136.742 58.0187 137.331 57.5086C137.823 57.0848 138.423 56.8728 139.13 56.8728C139.917 56.8728 140.56 57.1314 141.059 57.6487C141.559 58.1623 141.808 58.8735 141.808 59.7823C141.808 60.5187 141.697 61.0988 141.474 61.5226C141.255 61.9429 140.934 62.2697 140.51 62.5032C140.089 62.7367 139.63 62.8534 139.13 62.8534C138.329 62.8534 137.681 62.5966 137.185 62.083C136.693 61.5693 136.447 60.8294 136.447 59.8631ZM137.444 59.8631C137.444 60.5959 137.604 61.1455 137.923 61.5118C138.243 61.8746 138.645 62.056 139.13 62.056C139.612 62.056 140.012 61.8728 140.332 61.5064C140.652 61.1401 140.811 60.5815 140.811 59.8308C140.811 59.1232 140.65 58.588 140.326 58.2252C140.007 57.8588 139.608 57.6756 139.13 57.6756C138.645 57.6756 138.243 57.857 137.923 58.2198C137.604 58.5826 137.444 59.1304 137.444 59.8631ZM142.562 61.0161L143.522 60.8653C143.575 61.2496 143.724 61.5442 143.969 61.7489C144.217 61.9536 144.561 62.056 145.003 62.056C145.449 62.056 145.779 61.9662 145.995 61.7866C146.21 61.6034 146.318 61.3897 146.318 61.1455C146.318 60.9263 146.223 60.7539 146.032 60.6282C145.899 60.542 145.569 60.4325 145.041 60.2996C144.33 60.12 143.836 59.9655 143.559 59.8362C143.286 59.7033 143.078 59.5219 142.934 59.292C142.794 59.0585 142.724 58.8017 142.724 58.5215C142.724 58.2665 142.782 58.0312 142.897 57.8157C143.015 57.5966 143.175 57.4152 143.376 57.2715C143.527 57.1602 143.732 57.0668 143.99 56.9914C144.252 56.9123 144.533 56.8728 144.831 56.8728C145.28 56.8728 145.673 56.9375 146.011 57.0668C146.352 57.1961 146.603 57.3721 146.765 57.5948C146.927 57.8139 147.038 58.1085 147.099 58.4784L146.151 58.6077C146.108 58.3132 145.982 58.0833 145.774 57.9181C145.569 57.7529 145.278 57.6702 144.901 57.6702C144.455 57.6702 144.138 57.7439 143.947 57.8911C143.757 58.0384 143.662 58.2108 143.662 58.4084C143.662 58.5341 143.701 58.6473 143.78 58.7478C143.859 58.852 143.983 58.9382 144.152 59.0064C144.249 59.0424 144.534 59.125 145.009 59.2543C145.695 59.4375 146.172 59.5883 146.442 59.7069C146.715 59.8218 146.928 59.9906 147.083 60.2133C147.237 60.436 147.315 60.7126 147.315 61.0431C147.315 61.3664 147.219 61.6717 147.029 61.959C146.842 62.2428 146.571 62.4637 146.215 62.6218C145.86 62.7762 145.458 62.8534 145.009 62.8534C144.265 62.8534 143.698 62.699 143.306 62.3901C142.918 62.0812 142.67 61.6232 142.562 61.0161ZM152.735 58.7478L151.361 58.5C151.515 57.9468 151.781 57.5373 152.158 57.2715C152.536 57.0057 153.096 56.8728 153.839 56.8728C154.515 56.8728 155.018 56.9536 155.348 57.1153C155.678 57.2733 155.91 57.4763 156.043 57.7241C156.18 57.9684 156.248 58.4192 156.248 59.0765L156.232 60.8437C156.232 61.3466 156.255 61.7184 156.302 61.959C156.352 62.1961 156.444 62.4511 156.576 62.7241H155.079C155.039 62.6235 154.991 62.4745 154.933 62.2769C154.908 62.1871 154.89 62.1279 154.879 62.0991C154.621 62.3506 154.344 62.5391 154.05 62.6649C153.755 62.7906 153.441 62.8534 153.107 62.8534C152.518 62.8534 152.052 62.6936 151.711 62.3739C151.374 62.0542 151.205 61.6501 151.205 61.1616C151.205 60.8383 151.282 60.551 151.436 60.2996C151.591 60.0445 151.806 59.8506 152.083 59.7177C152.363 59.5812 152.765 59.4626 153.29 59.3621C153.997 59.2291 154.488 59.1052 154.761 58.9903V58.8394C154.761 58.5485 154.689 58.3419 154.545 58.2198C154.402 58.0941 154.13 58.0312 153.732 58.0312C153.462 58.0312 153.252 58.0851 153.101 58.1929C152.95 58.297 152.828 58.482 152.735 58.7478ZM154.761 59.9763C154.567 60.0409 154.26 60.1182 153.839 60.208C153.419 60.2978 153.144 60.3858 153.015 60.472C152.817 60.6121 152.719 60.7899 152.719 61.0054C152.719 61.2173 152.798 61.4005 152.956 61.5549C153.114 61.7094 153.315 61.7866 153.559 61.7866C153.832 61.7866 154.093 61.6968 154.34 61.5172C154.524 61.3807 154.644 61.2137 154.701 61.0161C154.741 60.8868 154.761 60.6408 154.761 60.278V59.9763ZM159.319 62.7241L157.013 57.0021H158.602L159.68 59.9224L159.992 60.8976C160.075 60.6498 160.127 60.4863 160.149 60.4073C160.199 60.2457 160.253 60.084 160.31 59.9224L161.399 57.0021H162.956L160.682 62.7241H159.319ZM165.019 58.7478L163.645 58.5C163.8 57.9468 164.066 57.5373 164.443 57.2715C164.82 57.0057 165.38 56.8728 166.124 56.8728C166.799 56.8728 167.302 56.9536 167.633 57.1153C167.963 57.2733 168.195 57.4763 168.328 57.7241C168.464 57.9684 168.532 58.4192 168.532 59.0765L168.516 60.8437C168.516 61.3466 168.539 61.7184 168.586 61.959C168.636 62.1961 168.728 62.4511 168.861 62.7241H167.363C167.324 62.6235 167.275 62.4745 167.218 62.2769C167.192 62.1871 167.175 62.1279 167.164 62.0991C166.905 62.3506 166.629 62.5391 166.334 62.6649C166.039 62.7906 165.725 62.8534 165.391 62.8534C164.802 62.8534 164.337 62.6936 163.996 62.3739C163.658 62.0542 163.489 61.6501 163.489 61.1616C163.489 60.8383 163.566 60.551 163.721 60.2996C163.875 60.0445 164.091 59.8506 164.367 59.7177C164.648 59.5812 165.05 59.4626 165.574 59.3621C166.282 59.2291 166.772 59.1052 167.045 58.9903V58.8394C167.045 58.5485 166.973 58.3419 166.83 58.2198C166.686 58.0941 166.415 58.0312 166.016 58.0312C165.747 58.0312 165.537 58.0851 165.386 58.1929C165.235 58.297 165.113 58.482 165.019 58.7478ZM167.045 59.9763C166.851 60.0409 166.544 60.1182 166.124 60.208C165.704 60.2978 165.429 60.3858 165.3 60.472C165.102 60.6121 165.003 60.7899 165.003 61.0054C165.003 61.2173 165.082 61.4005 165.24 61.5549C165.398 61.7094 165.599 61.7866 165.844 61.7866C166.117 61.7866 166.377 61.6968 166.625 61.5172C166.808 61.3807 166.928 61.2137 166.986 61.0161C167.025 60.8868 167.045 60.6408 167.045 60.278V59.9763ZM175.235 62.7241H173.721V59.8039C173.721 59.186 173.689 58.7873 173.624 58.6077C173.559 58.4246 173.453 58.2827 173.306 58.1821C173.162 58.0815 172.988 58.0312 172.783 58.0312C172.521 58.0312 172.286 58.1031 172.078 58.2468C171.869 58.3904 171.726 58.5808 171.647 58.8179C171.571 59.0549 171.533 59.4932 171.533 60.1325V62.7241H170.019V57.0021H171.426V57.8427C171.925 57.1961 172.553 56.8728 173.311 56.8728C173.645 56.8728 173.951 56.9339 174.227 57.056C174.504 57.1746 174.712 57.3272 174.852 57.514C174.996 57.7008 175.095 57.9127 175.149 58.1498C175.206 58.3868 175.235 58.7263 175.235 59.1681V62.7241ZM181.765 58.6939L180.273 58.9633C180.222 58.6652 180.107 58.4407 179.928 58.2899C179.752 58.139 179.522 58.0636 179.238 58.0636C178.861 58.0636 178.559 58.1947 178.333 58.4569C178.11 58.7155 177.999 59.1501 177.999 59.7608C177.999 60.4396 178.112 60.9192 178.338 61.1993C178.568 61.4795 178.875 61.6196 179.26 61.6196C179.547 61.6196 179.782 61.5388 179.965 61.3771C180.149 61.2119 180.278 60.9299 180.353 60.5312L181.84 60.7845C181.686 61.4669 181.39 61.9824 180.951 62.3308C180.513 62.6792 179.926 62.8534 179.19 62.8534C178.353 62.8534 177.685 62.5894 177.185 62.0614C176.69 61.5334 176.442 60.8024 176.442 59.8685C176.442 58.9238 176.691 58.1893 177.191 57.6649C177.69 57.1368 178.365 56.8728 179.217 56.8728C179.913 56.8728 180.467 57.0237 180.876 57.3254C181.289 57.6235 181.585 58.0797 181.765 58.6939ZM186.232 60.903L187.74 61.1562C187.546 61.7094 187.239 62.1314 186.819 62.4224C186.402 62.7098 185.88 62.8534 185.251 62.8534C184.256 62.8534 183.52 62.5284 183.042 61.8782C182.665 61.3574 182.476 60.7001 182.476 59.9062C182.476 58.958 182.724 58.2162 183.22 57.681C183.715 57.1422 184.342 56.8728 185.1 56.8728C185.951 56.8728 186.623 57.1548 187.115 57.7187C187.607 58.2791 187.843 59.1394 187.821 60.2996H184.028C184.039 60.7485 184.161 61.0988 184.394 61.3502C184.628 61.598 184.919 61.722 185.267 61.722C185.504 61.722 185.704 61.6573 185.865 61.528C186.027 61.3987 186.149 61.1904 186.232 60.903ZM186.318 59.3728C186.307 58.9346 186.194 58.6024 185.978 58.3761C185.763 58.1462 185.501 58.0312 185.192 58.0312C184.861 58.0312 184.588 58.1516 184.373 58.3922C184.157 58.6329 184.051 58.9598 184.055 59.3728H186.318ZM188.527 61.0916L190.046 60.8599C190.111 61.1544 190.242 61.3789 190.44 61.5334C190.637 61.6843 190.914 61.7597 191.269 61.7597C191.661 61.7597 191.955 61.6878 192.153 61.5442C192.286 61.4436 192.352 61.3089 192.352 61.1401C192.352 61.0251 192.316 60.9299 192.245 60.8545C192.169 60.7827 192 60.7162 191.738 60.6552C190.517 60.3858 189.743 60.1397 189.416 59.917C188.963 59.6081 188.737 59.1789 188.737 58.6293C188.737 58.1336 188.933 57.7169 189.324 57.3793C189.716 57.0416 190.323 56.8728 191.145 56.8728C191.928 56.8728 192.51 57.0003 192.891 57.2554C193.272 57.5104 193.534 57.8876 193.678 58.3868L192.25 58.6508C192.189 58.4281 192.072 58.2575 191.9 58.139C191.731 58.0205 191.488 57.9612 191.172 57.9612C190.774 57.9612 190.488 58.0169 190.316 58.1282C190.201 58.2072 190.143 58.3096 190.143 58.4353C190.143 58.5431 190.194 58.6347 190.294 58.7101C190.431 58.8107 190.901 58.9526 191.706 59.1358C192.514 59.3189 193.078 59.5434 193.398 59.8093C193.714 60.0786 193.872 60.454 193.872 60.9353C193.872 61.4598 193.653 61.9105 193.214 62.2877C192.776 62.6649 192.128 62.8534 191.269 62.8534C190.49 62.8534 189.872 62.6954 189.416 62.3793C188.963 62.0632 188.667 61.634 188.527 61.0916Z" fill="#7561E5"/>
<path d="M44.7586 30.8966C53.2905 30.8966 60.2069 23.9801 60.2069 15.4483C60.2069 6.91643 53.2905 0 44.7586 0C36.2268 0 29.3104 6.91643 29.3104 15.4483C29.3104 23.9801 36.2268 30.8966 44.7586 30.8966Z" fill="#7561E5"/>
<mask id="path-12-inside-1" fill="white">
<path fill-rule="evenodd" clip-rule="evenodd" d="M49.4752 22.1496C50.4422 21.2053 51.1796 20.0563 51.6672 18.7348C52.5557 16.3251 52.5056 13.6731 52.4652 11.5421L52.4648 11.5282C52.4566 11.3537 52.4514 11.1695 52.4485 10.9644C52.4337 9.96416 51.6384 9.13666 50.638 9.08088C48.5523 8.96449 46.9388 8.28424 45.5599 6.9405L45.5482 6.92942C45.3274 6.72722 45.0517 6.62439 44.7749 6.62079V6.62105C44.7747 6.62104 44.7744 6.62104 44.7741 6.62104C44.4871 6.61675 44.1987 6.71972 43.9698 6.92968L43.9577 6.94075C42.5791 8.28449 40.9656 8.96474 38.8799 9.08113C37.8795 9.13691 37.0843 9.96441 37.0695 10.9646C37.0665 11.1684 37.0613 11.3529 37.0531 11.5285L37.0524 11.5612C37.0119 13.6881 36.9615 16.3349 37.8469 18.7376C38.3338 20.059 39.071 21.2074 40.0384 22.1517C41.1403 23.2265 42.5834 24.0802 44.3274 24.6884C44.3843 24.708 44.4431 24.7243 44.503 24.7363C44.5879 24.7529 44.6734 24.7615 44.7585 24.7615H44.7741C44.854 24.7604 44.9346 24.752 45.0137 24.7363C45.0682 24.7254 45.1224 24.7109 45.1747 24.6934C45.1802 24.6916 45.1857 24.6897 45.1912 24.6878M49.4752 22.1496C48.4486 23.152 47.1258 23.9624 45.5392 24.5613L49.4752 22.1496Z"/>
</mask>
<path d="M49.4752 22.1496L50.0517 23.0905L48.9127 21.2003L49.4752 22.1496ZM45.7537 25.6371L50.0376 23.099L48.9127 21.2003L44.6288 23.7384L45.7537 25.6371ZM48.8987 21.2087L44.9627 23.6204L46.1157 25.5022L50.0517 23.0905L48.8987 21.2087ZM51.6672 18.7348L53.7376 19.4988L53.7378 19.4983L51.6672 18.7348ZM49.4752 22.1496L51.017 23.7286L51.017 23.7286L49.4752 22.1496ZM52.4652 11.5421L54.6717 11.5002L54.6715 11.4881L54.6711 11.476L52.4652 11.5421ZM52.4648 11.5282L54.6707 11.4621L54.6701 11.4436L54.6693 11.4251L52.4648 11.5282ZM52.4485 10.9644L54.6551 10.9331L54.6551 10.9317L52.4485 10.9644ZM50.638 9.08088L50.5151 11.2844L50.5152 11.2844L50.638 9.08088ZM45.5599 6.9405L47.1002 5.35997L47.0864 5.34657L47.0724 5.33341L45.5599 6.9405ZM45.5482 6.92942L47.0607 5.32234L47.0498 5.31212L47.0388 5.30205L45.5482 6.92942ZM44.7749 6.62079L44.8036 4.41408L42.568 4.38501V6.62079H44.7749ZM44.7749 6.62105L44.7418 8.8277L46.9818 8.86132V6.62105H44.7749ZM44.7741 6.62104L44.8073 4.41439L44.8071 4.41439L44.7741 6.62104ZM43.9698 6.92968L42.4781 5.30326L42.4759 5.3052L43.9698 6.92968ZM43.9577 6.94075L42.4639 5.31627L42.4403 5.33799L42.4173 5.36037L43.9577 6.94075ZM38.8799 9.08113L39.0027 11.2846L39.0029 11.2846L38.8799 9.08113ZM37.0695 10.9646L34.8628 10.932L34.8628 10.9332L37.0695 10.9646ZM37.0531 11.5285L34.8486 11.426L34.8473 11.4539L34.8467 11.4817L37.0531 11.5285ZM37.0524 11.5612L34.846 11.5144L34.8459 11.5191L37.0524 11.5612ZM37.8469 18.7376L39.9177 17.9746L39.9176 17.9745L37.8469 18.7376ZM40.0384 22.1517L38.4969 23.7309L38.4974 23.7314L40.0384 22.1517ZM44.3274 24.6884L43.6006 26.7723L43.6113 26.7759L44.3274 24.6884ZM44.503 24.7363L44.0683 26.9L44.079 26.9021L44.503 24.7363ZM44.7741 24.7615V26.9684H44.7895L44.8048 26.9682L44.7741 24.7615ZM45.0137 24.7363L45.4415 26.9014L45.4484 26.9L45.0137 24.7363ZM45.1747 24.6934L44.4761 22.6L44.4747 22.6005L45.1747 24.6934ZM49.5967 17.9709C49.2176 18.9983 48.6557 19.8653 47.9333 20.5707L51.017 23.7286C52.2287 22.5453 53.1416 21.1143 53.7376 19.4988L49.5967 17.9709ZM50.2587 11.5839C50.3004 13.7796 50.3186 16.0133 49.5966 17.9713L53.7378 19.4983C54.7929 16.6369 54.7109 13.5665 54.6717 11.5002L50.2587 11.5839ZM50.2589 11.5944L50.2593 11.6082L54.6711 11.476L54.6707 11.4621L50.2589 11.5944ZM50.2418 10.9957C50.245 11.2198 50.2508 11.4284 50.2603 11.6314L54.6693 11.4251C54.6624 11.279 54.6578 11.1192 54.6551 10.9331L50.2418 10.9957ZM50.5152 11.2844C50.4331 11.2798 50.3647 11.2425 50.3217 11.1978C50.2787 11.153 50.2431 11.082 50.2418 10.9971L54.6551 10.9317C54.6231 8.77054 52.9154 6.99753 50.7609 6.87741L50.5152 11.2844ZM44.0197 8.52102C45.8138 10.2694 47.9459 11.141 50.5151 11.2844L50.761 6.87741C49.1588 6.788 48.0638 6.29909 47.1002 5.35997L44.0197 8.52102ZM44.0357 8.53651L44.0474 8.54758L47.0724 5.33341L47.0607 5.32234L44.0357 8.53651ZM44.7462 8.8275C44.4921 8.82419 44.2444 8.72801 44.0575 8.5568L47.0388 5.30205C46.4104 4.72642 45.6114 4.42458 44.8036 4.41408L44.7462 8.8275ZM46.9818 6.62105V6.62079H42.568V6.62105H46.9818ZM44.741 8.82769L44.7418 8.8277L44.808 4.4144L44.8073 4.41439L44.741 8.82769ZM45.4615 8.55609C45.267 8.73448 45.0069 8.83166 44.7412 8.82769L44.8071 4.41439C43.9673 4.40184 43.1304 4.70495 42.4781 5.30327L45.4615 8.55609ZM45.4515 8.56522L45.4636 8.55415L42.4759 5.3052L42.4639 5.31627L45.4515 8.56522ZM39.0029 11.2846C41.572 11.1412 43.7042 10.2697 45.4981 8.52112L42.4173 5.36037C41.454 6.29932 40.3592 6.78825 38.7569 6.87766L39.0029 11.2846ZM39.2761 10.9973C39.2748 11.0822 39.2392 11.1533 39.1962 11.198C39.1532 11.2428 39.0849 11.28 39.0027 11.2846L38.757 6.87766C36.6025 6.99779 34.8948 8.77079 34.8628 10.932L39.2761 10.9973ZM39.2576 11.631C39.2671 11.4274 39.2729 11.2189 39.2761 10.9961L34.8628 10.9332C34.8601 11.1179 34.8555 11.2783 34.8486 11.426L39.2576 11.631ZM39.2588 11.6079L39.2595 11.5752L34.8467 11.4817L34.846 11.5144L39.2588 11.6079ZM39.9176 17.9745C39.1987 16.0236 39.2171 13.7953 39.2589 11.6032L34.8459 11.5191C34.8066 13.5809 34.7243 16.6463 35.7761 19.5006L39.9176 17.9745ZM41.58 20.5724C40.8572 19.8669 40.2958 19.001 39.9177 17.9746L35.7761 19.5006C36.3717 21.1171 37.2848 22.5478 38.4969 23.7309L41.58 20.5724ZM45.0542 22.6047C43.5552 22.0819 42.4085 21.3807 41.5795 20.5719L38.4974 23.7314C39.872 25.0723 41.6115 26.0785 43.6006 26.7722L45.0542 22.6047ZM44.9377 22.5727C44.9816 22.5815 45.0169 22.5918 45.0434 22.6009L43.6113 26.7759C43.7516 26.8241 43.9045 26.8671 44.0683 26.9L44.9377 22.5727ZM44.7585 22.5546C44.8217 22.5546 44.8782 22.561 44.927 22.5705L44.079 26.9021C44.2975 26.9449 44.525 26.9684 44.7585 26.9684V22.5546ZM44.7741 22.5546H44.7585V26.9684H44.7741V22.5546ZM44.586 22.5713C44.637 22.5612 44.6894 22.5556 44.7435 22.5548L44.8048 26.9682C45.0186 26.9652 45.2321 26.9427 45.4415 26.9014L44.586 22.5713ZM44.4747 22.6005C44.5088 22.5891 44.5432 22.5799 44.579 22.5727L45.4484 26.9C45.5931 26.8709 45.7359 26.8328 45.8746 26.7864L44.4747 22.6005ZM44.4642 22.6041C44.4683 22.6026 44.4723 22.6013 44.4761 22.6L45.8733 26.7868C45.8882 26.7819 45.9031 26.7767 45.9183 26.7715L44.4642 22.6041ZM47.9333 20.5707C47.1608 21.325 46.1128 21.9859 44.7599 22.4966L46.3186 26.626C48.1389 25.9389 49.7365 24.979 51.017 23.7286L47.9333 20.5707Z" fill="white" mask="url(#path-12-inside-1)"/>
<path d="M47.8606 14.7743L44.5664 18.0689L43.8546 18.7807C43.6864 18.9489 43.4658 19.0329 43.2455 19.0329C43.025 19.0329 42.8046 18.9489 42.6363 18.7807L41.1058 17.2496C40.7695 16.9133 40.7695 16.3685 41.1058 16.032C41.4417 15.6957 41.9871 15.6957 42.3234 16.032L43.2455 16.9541L46.6429 13.5566C46.9793 13.2201 47.5247 13.2201 47.8606 13.5566C48.1969 13.893 48.1969 14.4384 47.8606 14.7743Z" fill="white"/>
<circle cx="402.276" cy="15.4483" r="15.4483" fill="#7561E5"/>
<path fill-rule="evenodd" clip-rule="evenodd" d="M398.903 5.51724C398.384 5.51724 397.962 5.93866 397.962 6.45872V6.46411C397.962 7.72645 398.311 8.94295 398.954 9.99323H398.903C398.384 9.99323 397.962 10.4149 397.962 10.9347C397.962 11.2105 398.081 11.4586 398.27 11.6308L396.442 12.8599C394.568 14.1197 393.449 16.2204 393.449 18.4783C393.449 20.1196 394.043 21.7042 395.123 22.9399C396.204 24.1783 397.696 24.9772 399.323 25.189C400.298 25.3159 401.279 25.3793 402.261 25.3793C403.242 25.3793 404.223 25.3159 405.198 25.189C406.825 24.9772 408.317 24.1783 409.399 22.9399C410.478 21.7042 411.072 20.1196 411.072 18.4783C411.072 16.2204 409.953 14.1197 408.08 12.8599L406.252 11.6308C406.44 11.4586 406.559 11.2105 406.559 10.9347C406.559 10.4149 406.138 9.99323 405.618 9.99323H405.568C406.21 8.94314 406.559 7.72648 406.559 6.46411V6.45872C406.559 5.93872 406.138 5.51724 405.618 5.51724H398.903ZM401.351 9.99323C400.617 9.29112 400.126 8.38584 399.935 7.4002H404.586C404.395 8.38631 403.904 9.29176 403.17 9.99323H401.351ZM397.492 14.4226L401.279 11.8762H403.242L407.029 14.4226C408.382 15.3322 409.189 16.8479 409.189 18.4783C409.189 20.9261 407.367 23.008 404.955 23.3218C403.167 23.5545 401.354 23.5546 399.566 23.3218C397.154 23.008 395.332 20.9261 395.332 18.4783C395.332 16.8479 396.139 15.3322 397.492 14.4226ZM402.26 13.3875C401.74 13.3875 401.319 13.809 401.319 14.329V14.7348C400.656 15.0768 400.2 15.7688 400.2 16.5671C400.2 17.7036 401.124 18.6274 402.26 18.6274C402.358 18.6274 402.438 18.7075 402.438 18.805C402.438 18.9026 402.358 18.9825 402.26 18.9825H401.141C400.621 18.9825 400.2 19.404 400.2 19.924C400.2 20.444 400.621 20.8655 401.141 20.8655H401.319V21.043C401.319 21.563 401.74 21.9845 402.26 21.9845C402.78 21.9845 403.202 21.563 403.202 21.043V20.6372C403.865 20.2951 404.321 19.6033 404.321 18.805C404.321 17.6685 403.397 16.7445 402.26 16.7445C402.163 16.7445 402.083 16.6644 402.083 16.5671C402.083 16.4694 402.163 16.3895 402.26 16.3895H403.38C403.899 16.3895 404.321 15.9679 404.321 15.448C404.321 14.928 403.899 14.5065 403.38 14.5065H403.202V14.329C403.202 13.809 402.78 13.3875 402.26 13.3875Z" fill="white"/>
<path d="M368.294 49.7241V41.8901H369.889V48.3933H373.855V49.7241H368.294ZM374.986 43.2263V41.8254H376.5V43.2263H374.986ZM374.986 49.7241V44.0021H376.5V49.7241H374.986ZM377.992 49.7241V41.8254H379.506V44.6702C379.973 44.1386 380.527 43.8728 381.166 43.8728C381.863 43.8728 382.439 44.1261 382.896 44.6325C383.352 45.1354 383.58 45.8592 383.58 46.8039C383.58 47.7809 383.346 48.5334 382.879 49.0614C382.416 49.5894 381.852 49.8534 381.188 49.8534C380.861 49.8534 380.537 49.7726 380.218 49.611C379.902 49.4457 379.629 49.2033 379.399 48.8836V49.7241H377.992ZM379.496 46.7392C379.496 47.3319 379.589 47.7701 379.776 48.0539C380.038 48.4562 380.387 48.6573 380.821 48.6573C381.155 48.6573 381.439 48.5154 381.672 48.2317C381.91 47.9443 382.028 47.4935 382.028 46.8793C382.028 46.2256 381.91 45.755 381.672 45.4677C381.435 45.1767 381.132 45.0312 380.762 45.0312C380.399 45.0312 380.097 45.1731 379.857 45.4569C379.616 45.7371 379.496 46.1645 379.496 46.7392ZM388.116 47.903L389.625 48.1562C389.431 48.7094 389.124 49.1314 388.704 49.4224C388.287 49.7098 387.764 49.8534 387.136 49.8534C386.141 49.8534 385.404 49.5284 384.927 48.8782C384.55 48.3574 384.361 47.7001 384.361 46.9062C384.361 45.958 384.609 45.2162 385.105 44.681C385.6 44.1422 386.227 43.8728 386.985 43.8728C387.836 43.8728 388.508 44.1548 389 44.7187C389.492 45.2791 389.727 46.1394 389.706 47.2996H385.913C385.924 47.7485 386.046 48.0988 386.279 48.3502C386.513 48.598 386.804 48.722 387.152 48.722C387.389 48.722 387.588 48.6573 387.75 48.528C387.912 48.3987 388.034 48.1904 388.116 47.903ZM388.203 46.3728C388.192 45.9346 388.079 45.6024 387.863 45.3761C387.648 45.1462 387.385 45.0312 387.077 45.0312C386.746 45.0312 386.473 45.1516 386.258 45.3922C386.042 45.6329 385.936 45.9598 385.94 46.3728H388.203ZM392.394 49.7241H390.88V44.0021H392.287V44.8157C392.527 44.4314 392.743 44.1781 392.933 44.056C393.127 43.9339 393.346 43.8728 393.591 43.8728C393.935 43.8728 394.268 43.968 394.587 44.1584L394.119 45.4784C393.864 45.3132 393.626 45.2306 393.407 45.2306C393.195 45.2306 393.016 45.2899 392.869 45.4084C392.721 45.5233 392.605 45.7335 392.518 46.0388C392.436 46.3441 392.394 46.9835 392.394 47.9569V49.7241ZM396.376 45.7478L395.002 45.5C395.157 44.9468 395.422 44.5373 395.8 44.2715C396.177 44.0057 396.737 43.8728 397.481 43.8728C398.156 43.8728 398.659 43.9536 398.989 44.1153C399.32 44.2733 399.551 44.4763 399.684 44.7241C399.821 44.9684 399.889 45.4192 399.889 46.0765L399.873 47.8437C399.873 48.3466 399.896 48.7184 399.943 48.959C399.993 49.1961 400.085 49.4511 400.218 49.7241H398.72C398.68 49.6235 398.632 49.4745 398.574 49.2769C398.549 49.1871 398.531 49.1279 398.521 49.0991C398.262 49.3506 397.985 49.5391 397.691 49.6649C397.396 49.7906 397.082 49.8534 396.748 49.8534C396.159 49.8534 395.694 49.6936 395.352 49.3739C395.015 49.0542 394.846 48.6501 394.846 48.1616C394.846 47.8383 394.923 47.551 395.078 47.2996C395.232 47.0445 395.448 46.8506 395.724 46.7177C396.004 46.5812 396.407 46.4626 396.931 46.3621C397.639 46.2291 398.129 46.1052 398.402 45.9903V45.8394C398.402 45.5485 398.33 45.3419 398.186 45.2198C398.043 45.0941 397.772 45.0312 397.373 45.0312C397.103 45.0312 396.893 45.0851 396.742 45.1929C396.592 45.297 396.469 45.482 396.376 45.7478ZM398.402 46.9763C398.208 47.0409 397.901 47.1182 397.481 47.208C397.06 47.2978 396.786 47.3858 396.656 47.472C396.459 47.6121 396.36 47.7899 396.36 48.0054C396.36 48.2173 396.439 48.4005 396.597 48.5549C396.755 48.7094 396.956 48.7866 397.2 48.7866C397.473 48.7866 397.734 48.6968 397.982 48.5172C398.165 48.3807 398.285 48.2137 398.343 48.0161C398.382 47.8868 398.402 47.6408 398.402 47.278V46.9763ZM401.274 44.0021H402.669V44.7834C403.168 44.1763 403.763 43.8728 404.453 43.8728C404.819 43.8728 405.137 43.9483 405.406 44.0991C405.676 44.25 405.897 44.4781 406.069 44.7834C406.32 44.4781 406.592 44.25 406.883 44.0991C407.174 43.9483 407.484 43.8728 407.815 43.8728C408.235 43.8728 408.591 43.959 408.881 44.1314C409.172 44.3003 409.39 44.5499 409.533 44.8804C409.638 45.1246 409.69 45.5197 409.69 46.0657V49.7241H408.176V46.4536C408.176 45.8861 408.124 45.5197 408.019 45.3545C407.879 45.139 407.664 45.0312 407.373 45.0312C407.161 45.0312 406.962 45.0959 406.775 45.2252C406.588 45.3545 406.453 45.5449 406.371 45.7963C406.288 46.0442 406.247 46.4375 406.247 46.9763V49.7241H404.733V46.5883C404.733 46.0316 404.706 45.6724 404.652 45.5108C404.598 45.3491 404.514 45.2288 404.399 45.1498C404.287 45.0707 404.135 45.0312 403.941 45.0312C403.707 45.0312 403.497 45.0941 403.31 45.2198C403.124 45.3455 402.989 45.5269 402.906 45.764C402.827 46.0011 402.788 46.3944 402.788 46.9439V49.7241H401.274V44.0021ZM410.853 46.7823C410.853 46.2794 410.977 45.7927 411.225 45.3222C411.473 44.8516 411.823 44.4924 412.276 44.2446C412.732 43.9968 413.24 43.8728 413.801 43.8728C414.666 43.8728 415.376 44.1548 415.929 44.7187C416.482 45.2791 416.759 45.9885 416.759 46.847C416.759 47.7126 416.478 48.431 415.918 49.0021C415.361 49.5697 414.659 49.8534 413.811 49.8534C413.287 49.8534 412.786 49.7349 412.308 49.4978C411.834 49.2608 411.473 48.9141 411.225 48.458C410.977 47.9982 410.853 47.4396 410.853 46.7823ZM412.405 46.8631C412.405 47.4307 412.54 47.8653 412.809 48.167C413.079 48.4687 413.411 48.6196 413.806 48.6196C414.201 48.6196 414.532 48.4687 414.797 48.167C415.067 47.8653 415.202 47.4271 415.202 46.8524C415.202 46.292 415.067 45.861 414.797 45.5593C414.532 45.2575 414.201 45.1067 413.806 45.1067C413.411 45.1067 413.079 45.2575 412.809 45.5593C412.54 45.861 412.405 46.2956 412.405 46.8631ZM417.416 48.0916L418.935 47.8599C419 48.1544 419.131 48.3789 419.329 48.5334C419.526 48.6843 419.803 48.7597 420.158 48.7597C420.55 48.7597 420.845 48.6878 421.042 48.5442C421.175 48.4436 421.241 48.3089 421.241 48.1401C421.241 48.0251 421.205 47.9299 421.134 47.8545C421.058 47.7827 420.889 47.7162 420.627 47.6552C419.406 47.3858 418.632 47.1397 418.305 46.917C417.852 46.6081 417.626 46.1789 417.626 45.6293C417.626 45.1336 417.822 44.7169 418.213 44.3793C418.605 44.0416 419.212 43.8728 420.035 43.8728C420.818 43.8728 421.399 44.0003 421.78 44.2554C422.161 44.5104 422.423 44.8876 422.567 45.3868L421.139 45.6508C421.078 45.4281 420.961 45.2575 420.789 45.139C420.62 45.0205 420.378 44.9612 420.061 44.9612C419.663 44.9612 419.377 45.0169 419.205 45.1282C419.09 45.2072 419.032 45.3096 419.032 45.4353C419.032 45.5431 419.083 45.6347 419.183 45.7101C419.32 45.8107 419.79 45.9526 420.595 46.1358C421.403 46.3189 421.967 46.5434 422.287 46.8093C422.603 47.0786 422.761 47.454 422.761 47.9353C422.761 48.4598 422.542 48.9105 422.103 49.2877C421.665 49.6649 421.017 49.8534 420.158 49.8534C419.379 49.8534 418.761 49.6954 418.305 49.3793C417.852 49.0632 417.556 48.634 417.416 48.0916ZM429.216 48.8567L429.356 49.7133C429.083 49.7708 428.838 49.7996 428.623 49.7996C428.271 49.7996 427.998 49.7439 427.804 49.6325C427.61 49.5212 427.473 49.3757 427.394 49.1961C427.315 49.0129 427.276 48.6304 427.276 48.0485V44.7564H426.565V44.0021H427.276V42.5851L428.24 42.0032V44.0021H429.216V44.7564H428.24V48.1024C428.24 48.3789 428.256 48.5567 428.289 48.6358C428.325 48.7148 428.38 48.7776 428.456 48.8243C428.535 48.871 428.646 48.8944 428.79 48.8944C428.898 48.8944 429.04 48.8818 429.216 48.8567ZM433.919 49.7241V48.8836C433.474 49.5302 432.869 49.8534 432.103 49.8534C431.766 49.8534 431.45 49.7888 431.155 49.6595C430.864 49.5302 430.647 49.3685 430.503 49.1746C430.363 48.977 430.264 48.7363 430.207 48.4526C430.167 48.2622 430.148 47.9605 430.148 47.5474V44.0021H431.117V47.1756C431.117 47.6821 431.137 48.0233 431.177 48.1993C431.238 48.4544 431.367 48.6555 431.565 48.8028C431.762 48.9465 432.007 49.0183 432.297 49.0183C432.588 49.0183 432.861 48.9447 433.116 48.7974C433.371 48.6465 433.551 48.4436 433.655 48.1886C433.763 47.9299 433.817 47.5564 433.817 47.0679V44.0021H434.787V49.7241H433.919ZM364.485 64.917V57.0021H365.369V57.7457C365.577 57.4547 365.812 57.2374 366.074 57.0937C366.337 56.9465 366.654 56.8728 367.028 56.8728C367.517 56.8728 367.948 56.9985 368.321 57.25C368.695 57.5014 368.977 57.857 369.167 58.3168C369.357 58.773 369.453 59.274 369.453 59.82C369.453 60.4055 369.347 60.9335 369.135 61.4041C368.926 61.871 368.621 62.2302 368.219 62.4817C367.82 62.7295 367.4 62.8534 366.958 62.8534C366.635 62.8534 366.344 62.7852 366.085 62.6487C365.83 62.5122 365.62 62.3398 365.455 62.1314V64.917H364.485ZM365.363 59.8955C365.363 60.6318 365.512 61.176 365.81 61.528C366.109 61.88 366.47 62.056 366.893 62.056C367.324 62.056 367.693 61.8746 367.998 61.5118C368.307 61.1455 368.461 60.5797 368.461 59.8146C368.461 59.0855 368.31 58.5395 368.009 58.1767C367.711 57.8139 367.353 57.6325 366.936 57.6325C366.523 57.6325 366.157 57.8265 365.837 58.2144C365.521 58.5988 365.363 59.1591 365.363 59.8955ZM374.361 62.0183C374.002 62.3236 373.655 62.5391 373.321 62.6649C372.991 62.7906 372.635 62.8534 372.254 62.8534C371.626 62.8534 371.143 62.7008 370.805 62.3955C370.467 62.0865 370.299 61.6932 370.299 61.2155C370.299 60.9353 370.361 60.6803 370.487 60.4504C370.616 60.2169 370.783 60.0302 370.988 59.8901C371.197 59.75 371.43 59.644 371.689 59.5722C371.879 59.5219 372.166 59.4734 372.551 59.4267C373.334 59.3333 373.91 59.222 374.28 59.0927C374.284 58.9598 374.286 58.8753 374.286 58.8394C374.286 58.4443 374.194 58.1659 374.011 58.0043C373.763 57.7852 373.395 57.6756 372.906 57.6756C372.45 57.6756 372.112 57.7564 371.893 57.9181C371.678 58.0761 371.518 58.3581 371.414 58.764L370.466 58.6347C370.552 58.2288 370.694 57.9019 370.891 57.6541C371.089 57.4026 371.374 57.2105 371.748 57.0776C372.121 56.9411 372.554 56.8728 373.046 56.8728C373.535 56.8728 373.932 56.9303 374.237 57.0452C374.542 57.1602 374.767 57.3057 374.911 57.4817C375.054 57.6541 375.155 57.8732 375.212 58.139C375.245 58.3042 375.261 58.6024 375.261 59.0334V60.3265C375.261 61.2281 375.281 61.7992 375.32 62.0399C375.363 62.2769 375.446 62.505 375.568 62.7241H374.555C374.454 62.523 374.39 62.2877 374.361 62.0183ZM374.28 59.8524C373.928 59.996 373.4 60.1182 372.696 60.2187C372.297 60.2762 372.015 60.3409 371.85 60.4127C371.685 60.4845 371.558 60.5905 371.468 60.7306C371.378 60.8671 371.333 61.0197 371.333 61.1886C371.333 61.4472 371.43 61.6627 371.624 61.8351C371.822 62.0075 372.109 62.0937 372.486 62.0937C372.86 62.0937 373.192 62.0129 373.483 61.8513C373.774 61.686 373.987 61.4615 374.124 61.1778C374.228 60.9587 374.28 60.6354 374.28 60.208V59.8524ZM376.592 63.1983L377.535 63.3383C377.574 63.6293 377.684 63.8412 377.863 63.9741C378.104 64.1537 378.433 64.2435 378.849 64.2435C379.298 64.2435 379.645 64.1537 379.889 63.9741C380.133 63.7945 380.299 63.5431 380.385 63.2198C380.435 63.0223 380.458 62.6074 380.455 61.9752C380.031 62.4745 379.503 62.7241 378.871 62.7241C378.084 62.7241 377.475 62.4404 377.044 61.8728C376.613 61.3053 376.398 60.6246 376.398 59.8308C376.398 59.2848 376.496 58.782 376.694 58.3222C376.892 57.8588 377.177 57.5014 377.551 57.25C377.928 56.9985 378.37 56.8728 378.876 56.8728C379.551 56.8728 380.108 57.1458 380.546 57.6918V57.0021H381.441V61.9483C381.441 62.8391 381.349 63.4695 381.166 63.8394C380.986 64.213 380.699 64.5075 380.304 64.723C379.912 64.9386 379.429 65.0463 378.855 65.0463C378.172 65.0463 377.621 64.8919 377.2 64.583C376.78 64.2776 376.577 63.8161 376.592 63.1983ZM377.394 59.7608C377.394 60.5115 377.543 61.0593 377.842 61.4041C378.14 61.7489 378.513 61.9213 378.962 61.9213C379.408 61.9213 379.781 61.7507 380.083 61.4095C380.385 61.0646 380.536 60.5258 380.536 59.7931C380.536 59.0927 380.379 58.5646 380.067 58.209C379.758 57.8534 379.384 57.6756 378.946 57.6756C378.515 57.6756 378.149 57.8516 377.847 58.2036C377.545 58.5521 377.394 59.0711 377.394 59.7608ZM382.551 59.8631C382.551 58.8035 382.845 58.0187 383.434 57.5086C383.926 57.0848 384.526 56.8728 385.234 56.8728C386.021 56.8728 386.663 57.1314 387.163 57.6487C387.662 58.1623 387.912 58.8735 387.912 59.7823C387.912 60.5187 387.8 61.0988 387.578 61.5226C387.359 61.9429 387.037 62.2697 386.613 62.5032C386.193 62.7367 385.733 62.8534 385.234 62.8534C384.433 62.8534 383.785 62.5966 383.289 62.083C382.797 61.5693 382.551 60.8294 382.551 59.8631ZM383.547 59.8631C383.547 60.5959 383.707 61.1455 384.027 61.5118C384.347 61.8746 384.749 62.056 385.234 62.056C385.715 62.056 386.116 61.8728 386.435 61.5064C386.755 61.1401 386.915 60.5815 386.915 59.8308C386.915 59.1232 386.753 58.588 386.43 58.2252C386.11 57.8588 385.712 57.6756 385.234 57.6756C384.749 57.6756 384.347 57.857 384.027 58.2198C383.707 58.5826 383.547 59.1304 383.547 59.8631ZM395.859 62.0183C395.5 62.3236 395.153 62.5391 394.819 62.6649C394.489 62.7906 394.133 62.8534 393.752 62.8534C393.124 62.8534 392.64 62.7008 392.303 62.3955C391.965 62.0865 391.796 61.6932 391.796 61.2155C391.796 60.9353 391.859 60.6803 391.985 60.4504C392.114 60.2169 392.281 60.0302 392.486 59.8901C392.694 59.75 392.928 59.644 393.186 59.5722C393.377 59.5219 393.664 59.4734 394.049 59.4267C394.832 59.3333 395.408 59.222 395.778 59.0927C395.782 58.9598 395.783 58.8753 395.783 58.8394C395.783 58.4443 395.692 58.1659 395.509 58.0043C395.261 57.7852 394.893 57.6756 394.404 57.6756C393.948 57.6756 393.61 57.7564 393.391 57.9181C393.176 58.0761 393.016 58.3581 392.912 58.764L391.963 58.6347C392.05 58.2288 392.191 57.9019 392.389 57.6541C392.587 57.4026 392.872 57.2105 393.246 57.0776C393.619 56.9411 394.052 56.8728 394.544 56.8728C395.033 56.8728 395.43 56.9303 395.735 57.0452C396.04 57.1602 396.265 57.3057 396.408 57.4817C396.552 57.6541 396.653 57.8732 396.71 58.139C396.742 58.3042 396.759 58.6024 396.759 59.0334V60.3265C396.759 61.2281 396.778 61.7992 396.818 62.0399C396.861 62.2769 396.944 62.505 397.066 62.7241H396.053C395.952 62.523 395.888 62.2877 395.859 62.0183ZM395.778 59.8524C395.426 59.996 394.898 60.1182 394.194 60.2187C393.795 60.2762 393.513 60.3409 393.348 60.4127C393.183 60.4845 393.055 60.5905 392.966 60.7306C392.876 60.8671 392.831 61.0197 392.831 61.1886C392.831 61.4472 392.928 61.6627 393.122 61.8351C393.319 62.0075 393.607 62.0937 393.984 62.0937C394.357 62.0937 394.69 62.0129 394.981 61.8513C395.272 61.686 395.485 61.4615 395.622 61.1778C395.726 60.9587 395.778 60.6354 395.778 60.208V59.8524ZM398.246 62.7241V54.8254H399.216V62.7241H398.246ZM404.027 62.7241V57.7564H403.17V57.0021H404.027V56.3933C404.027 56.009 404.061 55.7234 404.129 55.5366C404.223 55.2852 404.386 55.0822 404.62 54.9278C404.857 54.7697 405.187 54.6907 405.611 54.6907C405.884 54.6907 406.186 54.723 406.516 54.7877L406.371 55.6336C406.17 55.5977 405.979 55.5797 405.8 55.5797C405.505 55.5797 405.297 55.6426 405.175 55.7683C405.052 55.894 404.991 56.1293 404.991 56.4741V57.0021H406.107V57.7564H404.991V62.7241H404.027ZM406.856 62.7241V57.0021H407.728V57.8696C407.951 57.4637 408.156 57.1961 408.343 57.0668C408.533 56.9375 408.741 56.8728 408.968 56.8728C409.295 56.8728 409.627 56.977 409.964 57.1853L409.63 58.0851C409.393 57.945 409.156 57.875 408.919 57.875C408.707 57.875 408.517 57.9396 408.348 58.0689C408.179 58.1947 408.059 58.3707 407.987 58.597C407.879 58.9418 407.825 59.3189 407.825 59.7284V62.7241H406.856ZM410.546 55.9407V54.8254H411.516V55.9407H410.546ZM410.546 62.7241V57.0021H411.516V62.7241H410.546ZM412.976 62.7241V54.8254H413.946V62.7241H412.976ZM419.189 62.0183C418.829 62.3236 418.483 62.5391 418.149 62.6649C417.818 62.7906 417.463 62.8534 417.082 62.8534C416.453 62.8534 415.97 62.7008 415.633 62.3955C415.295 62.0865 415.126 61.6932 415.126 61.2155C415.126 60.9353 415.189 60.6803 415.315 60.4504C415.444 60.2169 415.611 60.0302 415.816 59.8901C416.024 59.75 416.258 59.644 416.516 59.5722C416.707 59.5219 416.994 59.4734 417.378 59.4267C418.161 59.3333 418.738 59.222 419.108 59.0927C419.111 58.9598 419.113 58.8753 419.113 58.8394C419.113 58.4443 419.022 58.1659 418.838 58.0043C418.591 57.7852 418.222 57.6756 417.734 57.6756C417.278 57.6756 416.94 57.7564 416.721 57.9181C416.505 58.0761 416.346 58.3581 416.241 58.764L415.293 58.6347C415.379 58.2288 415.521 57.9019 415.719 57.6541C415.916 57.4026 416.202 57.2105 416.575 57.0776C416.949 56.9411 417.382 56.8728 417.874 56.8728C418.362 56.8728 418.759 56.9303 419.065 57.0452C419.37 57.1602 419.595 57.3057 419.738 57.4817C419.882 57.6541 419.982 57.8732 420.04 58.139C420.072 58.3042 420.088 58.6024 420.088 59.0334V60.3265C420.088 61.2281 420.108 61.7992 420.148 62.0399C420.191 62.2769 420.273 62.505 420.396 62.7241H419.383C419.282 62.523 419.217 62.2877 419.189 62.0183ZM419.108 59.8524C418.756 59.996 418.228 60.1182 417.524 60.2187C417.125 60.2762 416.843 60.3409 416.678 60.4127C416.513 60.4845 416.385 60.5905 416.295 60.7306C416.205 60.8671 416.161 61.0197 416.161 61.1886C416.161 61.4472 416.258 61.6627 416.452 61.8351C416.649 62.0075 416.936 62.0937 417.314 62.0937C417.687 62.0937 418.019 62.0129 418.31 61.8513C418.601 61.686 418.815 61.4615 418.952 61.1778C419.056 60.9587 419.108 60.6354 419.108 60.208V59.8524ZM421.597 62.7241V57.0021H422.47V57.8157C422.89 57.1871 423.497 56.8728 424.291 56.8728C424.636 56.8728 424.952 56.9357 425.239 57.0614C425.53 57.1835 425.748 57.3452 425.891 57.5463C426.035 57.7475 426.135 57.9863 426.193 58.2629C426.229 58.4425 426.247 58.7568 426.247 59.2058V62.7241H425.277V59.2435C425.277 58.8484 425.239 58.5539 425.164 58.3599C425.088 58.1623 424.954 58.0061 424.76 57.8911C424.569 57.7726 424.345 57.7133 424.086 57.7133C423.673 57.7133 423.316 57.8445 423.014 58.1067C422.716 58.3689 422.567 58.8664 422.567 59.5991V62.7241H421.597ZM431.473 60.6282L432.427 60.7521C432.323 61.4095 432.055 61.9249 431.624 62.2985C431.197 62.6684 430.67 62.8534 430.045 62.8534C429.262 62.8534 428.632 62.5984 428.154 62.0883C427.68 61.5747 427.443 60.8401 427.443 59.8847C427.443 59.2669 427.545 58.7263 427.75 58.2629C427.955 57.7996 428.265 57.4529 428.682 57.223C429.102 56.9896 429.559 56.8728 430.051 56.8728C430.672 56.8728 431.18 57.0309 431.575 57.347C431.971 57.6595 432.224 58.1049 432.335 58.6832L431.392 58.8286C431.302 58.4443 431.143 58.1552 430.913 57.9612C430.686 57.7672 430.412 57.6702 430.088 57.6702C429.6 57.6702 429.203 57.8462 428.898 58.1983C428.592 58.5467 428.44 59.0998 428.44 59.8577C428.44 60.6264 428.587 61.185 428.881 61.5334C429.176 61.8818 429.56 62.056 430.035 62.056C430.415 62.056 430.733 61.9393 430.988 61.7058C431.243 61.4723 431.405 61.1131 431.473 60.6282ZM437.174 60.8814L438.176 61.0054C438.018 61.5909 437.725 62.0452 437.297 62.3685C436.87 62.6918 436.324 62.8534 435.66 62.8534C434.823 62.8534 434.158 62.5966 433.666 62.083C433.177 61.5657 432.933 60.8419 432.933 59.9116C432.933 58.949 433.181 58.2019 433.677 57.6702C434.172 57.1386 434.815 56.8728 435.606 56.8728C436.371 56.8728 436.996 57.1332 437.481 57.6541C437.966 58.1749 438.208 58.9077 438.208 59.8524C438.208 59.9098 438.206 59.996 438.203 60.111H433.935C433.971 60.7396 434.149 61.2209 434.469 61.5549C434.788 61.889 435.187 62.056 435.665 62.056C436.021 62.056 436.324 61.9626 436.575 61.7758C436.827 61.5891 437.026 61.2909 437.174 60.8814ZM433.989 59.3136H437.184C437.141 58.8322 437.019 58.4712 436.818 58.2306C436.509 57.857 436.109 57.6702 435.616 57.6702C435.171 57.6702 434.796 57.8193 434.49 58.1174C434.189 58.4156 434.022 58.8143 433.989 59.3136ZM439.388 62.7241V57.0021H440.261V57.8696C440.484 57.4637 440.688 57.1961 440.875 57.0668C441.065 56.9375 441.274 56.8728 441.5 56.8728C441.827 56.8728 442.159 56.977 442.497 57.1853L442.163 58.0851C441.926 57.945 441.689 57.875 441.452 57.875C441.24 57.875 441.049 57.9396 440.88 58.0689C440.712 58.1947 440.591 58.3707 440.519 58.597C440.412 58.9418 440.358 59.3189 440.358 59.7284V62.7241H439.388Z" fill="#7561E5"/>
</svg>
