<svg width="94" height="80" viewBox="0 0 94 80" fill="none" xmlns="http://www.w3.org/2000/svg">
<circle opacity="0.6" cx="52.2853" cy="33.5714" r="33.5714" fill="#C6BBFF"/>
<path d="M34.9064 50.9113H37.8153C38.3604 50.9113 38.8946 51.0645 39.357 51.3535L58.1773 63.1169V24.1614L39.357 35.9249C38.8946 36.2138 38.3604 36.367 37.8153 36.367H34.9064V50.9113ZM29.0887 50.9113V36.367H13.0986C11.1689 36.3662 9.31784 37.1319 7.95249 38.4956C6.58714 39.8593 5.81927 41.7094 5.81773 43.6392C5.81773 47.6476 9.08148 50.9113 13.0986 50.9113H29.0887ZM34.9064 56.7291V72.7133C34.9072 74.6436 34.1417 76.4952 32.7782 77.8615C31.4146 79.2278 29.5645 79.9969 27.6342 80H24.7254C19.1054 80 14.5443 75.4403 14.5443 69.8233V56.7291H13.0986C5.86864 56.7291 0 50.8604 0 43.6392C0 36.4106 5.86573 30.5493 13.0986 30.5493H36.9804L59.5445 16.4471C61.4818 15.2356 63.995 16.6289 63.995 18.9138V68.3645C63.995 70.648 61.4818 72.0428 59.5445 70.8313L36.9804 56.7291H34.9064ZM20.3621 56.7291V69.8233C20.3636 70.9797 20.8239 72.0882 21.642 72.9054C22.4601 73.7227 23.569 74.1819 24.7254 74.1823H27.6342C28.4313 74.1823 29.0887 73.5234 29.0887 72.7133V56.7291H20.3621Z" fill="#7561E5"/>
<path d="M84.7273 45.6364C83.1206 45.6364 81.8182 44.3339 81.8182 42.7273C81.8182 41.1206 83.1206 39.8182 84.7273 39.8182H90.5455C92.1521 39.8182 93.4545 41.1206 93.4545 42.7273C93.4545 44.3339 92.1521 45.6364 90.5455 45.6364H84.7273ZM76.8521 62.2389C75.716 61.1028 75.716 59.2608 76.8521 58.1248C77.9881 56.9887 79.8301 56.9887 80.9661 58.1248L85.3298 62.4884C86.4658 63.6245 86.4658 65.4664 85.3298 66.6025C84.1937 67.7386 82.3518 67.7386 81.2157 66.6025L76.8521 62.2389ZM80.9661 27.3298C79.8301 28.4658 77.9881 28.4658 76.8521 27.3298C75.716 26.1937 75.716 24.3518 76.8521 23.2157L81.2157 18.8521C82.3518 17.716 84.1937 17.716 85.3298 18.8521C86.4658 19.9881 86.4658 21.8301 85.3298 22.9661L80.9661 27.3298Z" fill="#7561E5"/>
</svg>
