<svg width="68" height="64" viewBox="0 0 68 64" fill="none" xmlns="http://www.w3.org/2000/svg">
<path d="M17.2307 57.5627L32.1138 49.7774C32.5499 49.5494 33.0346 49.4302 33.5267 49.4302C34.0188 49.4302 34.5036 49.5494 34.9396 49.7774L49.8227 57.5627C49.9995 57.6542 50.1596 57.7273 50.3028 57.7822C50.2916 57.6156 50.2712 57.4497 50.2419 57.2853L47.4009 40.7972C47.3167 40.3087 47.3529 39.8069 47.5064 39.3355C47.6599 38.8641 47.9261 38.4372 48.2818 38.0919L60.3225 26.4155C60.4536 26.2875 60.5648 26.1686 60.6548 26.0604C60.4925 26.0197 60.3282 25.9876 60.1625 25.9644L43.522 23.5578C43.0335 23.4874 42.5694 23.2994 42.1695 23.01C41.7697 22.7206 41.4462 22.3385 41.2266 21.8965L33.7858 6.89442C33.7084 6.73711 33.6219 6.58444 33.5267 6.43718C33.4316 6.58446 33.3451 6.73713 33.2676 6.89442L25.8268 21.8965C25.6073 22.3385 25.2837 22.7206 24.8839 23.01C24.4841 23.2994 24.0199 23.4874 23.5314 23.5578L6.89247 25.9644C6.70501 25.9903 6.54192 26.0238 6.39866 26.0604C6.4901 26.1686 6.59984 26.289 6.73092 26.4155L18.7716 38.0904C19.1279 38.4357 19.3945 38.8627 19.5482 39.3345C19.702 39.8062 19.7383 40.3083 19.654 40.7972L16.8115 57.2853C16.7795 57.4713 16.7597 57.6359 16.7506 57.7822C16.8938 57.7273 17.0554 57.6542 17.2307 57.5627ZM33.5267 55.9182L20.0564 62.9642C14.5238 65.857 9.74413 62.3942 10.8034 56.2504L13.3716 41.3475L2.4862 30.7913C-2.00389 26.4369 -0.165788 20.8235 6.01915 19.9303L21.0776 17.7539L27.8066 4.18603C30.5775 -1.39839 36.479 -1.3923 39.2468 4.18603L45.9774 17.7539L61.0343 19.9303C67.2253 20.825 69.0527 26.4414 64.5672 30.7913L53.6818 41.3475L56.25 56.2504C57.3108 62.4003 52.5235 65.854 46.9985 62.9642L33.5267 55.9197V55.9182Z" fill="#7561E5"/>
</svg>
