<svg width="76" height="81" viewBox="0 0 76 81" fill="none" xmlns="http://www.w3.org/2000/svg">
<circle opacity="0.6" cx="24.4988" cy="24.4988" r="24.4988" fill="#C6BBFF"/>
<path d="M17.1564 32.6262L20.7273 30.4822V24.2669C20.7296 22.3403 21.4959 20.4933 22.8582 19.131C24.2206 17.7687 26.0676 17.0023 27.9942 17H60.0058C60.9603 16.9992 61.9056 17.1867 62.7876 17.5516C63.6696 17.9165 64.4711 18.4518 65.146 19.1267C65.8209 19.8017 66.3562 20.6031 66.7211 21.4851C67.086 22.3671 67.2735 23.3124 67.2727 24.2669V30.4822L70.8436 32.6262C73.792 34.3949 76 38.2887 76 41.7171V73.7316C75.9994 74.6872 75.8105 75.6333 75.4442 76.5158C75.0778 77.3983 74.5411 78.2 73.8647 78.875C73.1884 79.55 72.3856 80.0851 71.5023 80.4497C70.6191 80.8144 69.6726 81.0013 68.7171 81H19.2829C15.2655 81 12 77.7389 12 73.7331V41.6429C12.032 38.2393 14.2356 34.3775 17.1564 32.6247V32.6262ZM20.7273 37.2676L20.1498 37.6138C18.9629 38.3265 17.8225 40.3324 17.8182 41.7055V43.192C17.8182 44.568 18.96 46.5811 20.1498 47.2938L20.7273 47.6415V37.2676ZM67.2727 37.2676V47.6415L67.8502 47.2953C69.04 46.5811 70.1818 44.568 70.1818 43.192V41.7055C70.1774 40.3324 69.0371 38.3265 67.8502 37.6138L67.2727 37.2676ZM70.1818 52.6815L45.4982 67.4945C45.0457 67.7664 44.5278 67.91 44 67.91C43.4722 67.91 42.9543 67.7664 42.5018 67.4945L17.8182 52.68V73.7316C17.8182 74.5214 18.4771 75.1804 19.2829 75.1804H68.7171C68.9083 75.1817 69.098 75.1453 69.2752 75.0733C69.4523 75.0012 69.6136 74.8949 69.7496 74.7605C69.8857 74.6261 69.9939 74.4661 70.068 74.2898C70.1422 74.1135 70.1809 73.9243 70.1818 73.7331V52.68V52.6815ZM61.4545 24.2669C61.4553 24.0764 61.4184 23.8877 61.3458 23.7116C61.2733 23.5355 61.1666 23.3755 61.0319 23.2408C60.8972 23.1061 60.7372 22.9994 60.5611 22.9269C60.385 22.8544 60.1963 22.8174 60.0058 22.8182H27.9942C27.2015 22.8182 26.5455 23.4727 26.5455 24.2669V51.1324L44 61.608L61.4545 51.1324V24.2669ZM35.2727 37.3636C34.5012 37.3636 33.7612 37.0571 33.2157 36.5116C32.6701 35.966 32.3636 35.2261 32.3636 34.4545C32.3636 33.683 32.6701 32.9431 33.2157 32.3975C33.7612 31.8519 34.5012 31.5455 35.2727 31.5455H52.7273C53.4988 31.5455 54.2387 31.8519 54.7843 32.3975C55.3299 32.9431 55.6364 33.683 55.6364 34.4545C55.6364 35.2261 55.3299 35.966 54.7843 36.5116C54.2387 37.0571 53.4988 37.3636 52.7273 37.3636H35.2727ZM35.2727 46.0909C34.5012 46.0909 33.7612 45.7844 33.2157 45.2389C32.6701 44.6933 32.3636 43.9534 32.3636 43.1818C32.3636 42.4103 32.6701 41.6703 33.2157 41.1248C33.7612 40.5792 34.5012 40.2727 35.2727 40.2727H52.7273C53.4988 40.2727 54.2387 40.5792 54.7843 41.1248C55.3299 41.6703 55.6364 42.4103 55.6364 43.1818C55.6364 43.9534 55.3299 44.6933 54.7843 45.2389C54.2387 45.7844 53.4988 46.0909 52.7273 46.0909H35.2727Z" fill="#7561E5"/>
</svg>
