<svg width="44" height="45" viewBox="0 0 44 45" fill="none" xmlns="http://www.w3.org/2000/svg">
<path d="M32.107 24.805L42.518 35.216C43.4658 36.164 43.9986 37.4494 43.9996 38.79C44.0005 40.1305 43.4695 41.4166 42.523 42.366L42.366 42.523C41.8964 42.9925 41.3388 43.3648 40.7252 43.6187C40.1116 43.8725 39.454 44.0029 38.79 44.0025C38.1259 44.002 37.4685 43.8707 36.8552 43.616C36.242 43.3612 35.685 42.9881 35.216 42.518L24.805 32.107C22.3929 33.355 19.7159 34.0043 17 34C7.611 34 0 26.389 0 17C0 7.611 7.611 0 17 0C26.389 0 34 7.611 34 17C34 19.813 33.317 22.467 32.107 24.805ZM29.815 28.17C29.305 28.755 28.755 29.305 28.17 29.815L38.045 39.69C38.1425 39.7887 38.2586 39.8671 38.3865 39.9208C38.5144 39.9745 38.6517 40.0024 38.7905 40.0028C38.9292 40.0033 39.0667 39.9763 39.195 39.9235C39.3232 39.8707 39.4398 39.793 39.538 39.695L39.695 39.538C39.8913 39.3388 40.0009 39.0701 39.9999 38.7905C39.999 38.5108 39.8876 38.2429 39.69 38.045L29.815 28.17ZM17 30C24.18 30 30 24.18 30 17C30 9.82 24.18 4 17 4C9.82 4 4 9.82 4 17C4 24.18 9.82 30 17 30Z" fill="#7561E5"/>
</svg>
