<svg width="113" height="175" viewBox="0 0 113 175" fill="none" xmlns="http://www.w3.org/2000/svg">
<g style="mix-blend-mode:multiply">
<path d="M78.266 3.47142H23.027C17.2058 3.47142 12.4868 8.38028 12.4868 14.4357V144.999C12.4868 151.055 17.2058 155.964 23.027 155.964H78.266C84.0871 155.964 88.8061 151.055 88.8061 144.999V14.4357C88.8061 8.38028 84.0871 3.47142 78.266 3.47142Z" fill="#E2E2E2"/>
</g>
<path d="M77.6675 0H16.6376C12.4156 0 8.99292 3.56036 8.99292 7.95228V144.54C8.99292 148.932 12.4156 152.492 16.6376 152.492H77.6675C81.8895 152.492 85.3122 148.932 85.3122 144.54V7.95228C85.3122 3.56036 81.8895 0 77.6675 0Z" fill="#31425E"/>
<path d="M76.6648 3.47142H17.6405C14.448 3.47142 11.8601 6.16352 11.8601 9.4844V143.007C11.8601 146.328 14.448 149.02 17.6405 149.02H76.6648C79.8572 149.02 82.4452 146.328 82.4452 143.007V9.4844C82.4452 6.16352 79.8572 3.47142 76.6648 3.47142Z" fill="#FFC800"/>
<path d="M33.1226 2.34502H61.1825V5.38879C61.1827 5.81061 61.1029 6.22832 60.9478 6.61806C60.7927 7.0078 60.5653 7.36193 60.2786 7.66022C59.9919 7.9585 59.6515 8.1951 59.2768 8.35649C58.9022 8.51788 58.5006 8.6009 58.0951 8.60081H36.2093C35.8039 8.60081 35.4024 8.51772 35.0279 8.35629C34.6533 8.19485 34.313 7.95824 34.0263 7.65997C33.7397 7.36169 33.5123 7.00759 33.3573 6.6179C33.2022 6.22821 33.1225 5.81055 33.1226 5.38879V2.34502Z" fill="#31425E"/>
<path d="M50.6461 4.19735H39.032V5.17849H50.6461V4.19735Z" fill="#9878EF"/>
<path d="M55.2727 4.68828C55.2727 4.82572 55.2335 4.96008 55.1601 5.07435C55.0867 5.18863 54.9823 5.27769 54.8603 5.33027C54.7382 5.38285 54.6039 5.39659 54.4743 5.36975C54.3447 5.34291 54.2257 5.2767 54.1323 5.17948C54.0389 5.08227 53.9753 4.95843 53.9495 4.82362C53.9238 4.68881 53.9371 4.54909 53.9877 4.42212C54.0383 4.29516 54.1239 4.18666 54.2338 4.11035C54.3437 4.03405 54.4729 3.99335 54.605 3.99342C54.6927 3.99342 54.7796 4.01139 54.8606 4.04632C54.9416 4.08124 55.0153 4.13243 55.0773 4.19696C55.1393 4.26148 55.1884 4.33809 55.222 4.42239C55.2555 4.50669 55.2727 4.59705 55.2727 4.68828V4.68828Z" fill="#9878EF"/>
<path d="M21.7857 6.79315C21.909 6.84417 22.0033 6.9207 22.0687 7.02274C22.1359 7.12477 22.1695 7.24768 22.1695 7.39146C22.1695 7.53292 22.1387 7.65699 22.0771 7.76367C22.0154 7.86802 21.9267 7.94919 21.8109 8.00717C21.697 8.06282 21.5625 8.09065 21.4075 8.09065C21.1722 8.09065 20.9873 8.02804 20.8528 7.90281C20.7183 7.77758 20.6511 7.60713 20.6511 7.39146C20.6511 7.24536 20.6828 7.12245 20.7463 7.02274C20.8117 6.9207 20.906 6.84417 21.0293 6.79315C20.9284 6.74445 20.8518 6.67488 20.7995 6.58444C20.7472 6.49168 20.7211 6.38268 20.7211 6.25745C20.7211 6.06034 20.7827 5.9038 20.906 5.78785C21.0311 5.6719 21.1983 5.61392 21.4075 5.61392C21.5457 5.61392 21.6662 5.64059 21.7689 5.69393C21.8735 5.74495 21.9547 5.81916 22.0126 5.91656C22.0705 6.01396 22.0995 6.12759 22.0995 6.25745C22.0995 6.38268 22.0724 6.49168 22.0182 6.58444C21.9641 6.67488 21.8866 6.74445 21.7857 6.79315ZM20.9228 6.26441C20.9228 6.39892 20.9658 6.50559 21.0517 6.58444C21.1376 6.66329 21.2562 6.70271 21.4075 6.70271C21.5588 6.70271 21.6774 6.66329 21.7633 6.58444C21.8511 6.50559 21.895 6.40008 21.895 6.26789C21.895 6.13107 21.8501 6.02323 21.7605 5.94438C21.6727 5.86554 21.555 5.82611 21.4075 5.82611C21.2581 5.82611 21.1395 5.86554 21.0517 5.94438C20.9658 6.02323 20.9228 6.12991 20.9228 6.26441ZM21.4075 7.87846C21.5812 7.87846 21.7166 7.8344 21.8137 7.74628C21.9127 7.65815 21.9622 7.53872 21.9622 7.38798C21.9622 7.23725 21.9127 7.11898 21.8137 7.03317C21.7166 6.94505 21.5812 6.90099 21.4075 6.90099C21.2357 6.90099 21.1002 6.94505 21.0013 7.03317C20.9041 7.11898 20.8556 7.23725 20.8556 7.38798C20.8556 7.54104 20.9041 7.66163 21.0013 7.74975C21.0984 7.83556 21.2338 7.87846 21.4075 7.87846Z" fill="#321F6A"/>
<path d="M22.6001 6.60531C22.559 6.60531 22.5235 6.58676 22.4937 6.54965C22.4656 6.51255 22.4516 6.46733 22.4516 6.41399C22.4516 6.36065 22.4656 6.31659 22.4937 6.2818C22.5235 6.2447 22.559 6.22615 22.6001 6.22615C22.6412 6.22615 22.6767 6.2447 22.7066 6.2818C22.7365 6.31659 22.7514 6.36065 22.7514 6.41399C22.7514 6.46733 22.7365 6.51255 22.7066 6.54965C22.6767 6.58676 22.6412 6.60531 22.6001 6.60531ZM22.6001 8.08717C22.559 8.08717 22.5235 8.06862 22.4937 8.03152C22.4656 7.99441 22.4516 7.94919 22.4516 7.89585C22.4516 7.84252 22.4656 7.79845 22.4937 7.76367C22.5235 7.72656 22.559 7.70801 22.6001 7.70801C22.6412 7.70801 22.6767 7.72656 22.7066 7.76367C22.7365 7.79845 22.7514 7.84252 22.7514 7.89585C22.7514 7.94919 22.7365 7.99441 22.7066 8.03152C22.6767 8.06862 22.6412 8.08717 22.6001 8.08717Z" fill="#321F6A"/>
<path d="M23.7093 6.67836C23.9147 6.69227 24.0707 6.76184 24.1772 6.88707C24.2855 7.00998 24.3397 7.17115 24.3397 7.37059C24.3397 7.50973 24.3126 7.6338 24.2584 7.7428C24.2042 7.84947 24.1239 7.93412 24.0175 7.99673C23.911 8.05934 23.7812 8.09065 23.6281 8.09065C23.4861 8.09065 23.3516 8.06282 23.2246 8.00717C23.0995 7.94919 22.9986 7.87266 22.9221 7.77758L23.0201 7.5793C23.0855 7.66279 23.1723 7.7312 23.2807 7.78454C23.389 7.83556 23.5048 7.86107 23.6281 7.86107C23.7887 7.86107 23.9129 7.81817 24.0007 7.73236C24.0884 7.64424 24.1323 7.52365 24.1323 7.37059C24.1323 7.21985 24.0884 7.10158 24.0007 7.01578C23.9129 6.92997 23.7803 6.88707 23.6028 6.88707H23.4628V6.70271L24.0063 5.85742H23.0033V5.63479H24.264V5.8122L23.7093 6.67836Z" fill="#321F6A"/>
<path d="M25.4055 8.09065C25.2542 8.09065 25.1188 8.04079 24.9993 7.94107C24.8816 7.84136 24.7892 7.69873 24.7219 7.51321C24.6566 7.32537 24.6239 7.10506 24.6239 6.85229C24.6239 6.59951 24.6566 6.38036 24.7219 6.19484C24.7892 6.007 24.8816 5.86322 24.9993 5.7635C25.1188 5.66378 25.2542 5.61392 25.4055 5.61392C25.5568 5.61392 25.6913 5.66378 25.809 5.7635C25.9285 5.86322 26.0219 6.007 26.0891 6.19484C26.1564 6.38036 26.19 6.59951 26.19 6.85229C26.19 7.10506 26.1564 7.32537 26.0891 7.51321C26.0219 7.69873 25.9285 7.84136 25.809 7.94107C25.6913 8.04079 25.5568 8.09065 25.4055 8.09065ZM25.4055 7.86107C25.5195 7.86107 25.6194 7.82164 25.7053 7.7428C25.7931 7.66395 25.8613 7.54916 25.9098 7.39842C25.9584 7.24768 25.9827 7.06564 25.9827 6.85229C25.9827 6.63894 25.9584 6.45689 25.9098 6.30615C25.8613 6.15542 25.7931 6.04062 25.7053 5.96178C25.6194 5.88293 25.5195 5.84351 25.4055 5.84351C25.2916 5.84351 25.1907 5.88293 25.103 5.96178C25.017 6.04062 24.9498 6.15542 24.9012 6.30615C24.8527 6.45689 24.8284 6.63894 24.8284 6.85229C24.8284 7.06564 24.8527 7.24768 24.9012 7.39842C24.9498 7.54916 25.017 7.66395 25.103 7.7428C25.1907 7.82164 25.2916 7.86107 25.4055 7.86107Z" fill="#321F6A"/>
<path d="M64.9932 7.24928H64.4401V8.19083H64.9932V7.24928Z" fill="#321F6A"/>
<path d="M65.7856 6.86969H65.2325V8.19083H65.7856V6.86969Z" fill="#321F6A"/>
<path d="M66.5775 6.50351H66.0243V8.19081H66.5775V6.50351Z" fill="#321F6A"/>
<path d="M67.3697 6.08505H66.8165V8.19082H67.3697V6.08505Z" fill="#321F6A"/>
<path d="M68.5737 7.15563C68.9026 6.82052 69.3446 6.63284 69.805 6.63284C70.2653 6.63284 70.7074 6.82052 71.0363 7.15563L71.41 6.76685C70.9823 6.32901 70.4063 6.08362 69.8062 6.08362C69.2061 6.08362 68.63 6.32901 68.2023 6.76685L68.5737 7.15563Z" fill="#321F6A"/>
<path d="M69.0711 7.67274C69.268 7.47437 69.5314 7.36344 69.8055 7.36344C70.0796 7.36344 70.343 7.47437 70.5399 7.67274L70.9136 7.28396C70.6179 6.98289 70.2206 6.81429 69.8069 6.81429C69.3931 6.81429 68.9957 6.98289 68.7 7.28396L69.0711 7.67274Z" fill="#321F6A"/>
<path d="M69.5688 8.19085C69.6329 8.12865 69.7174 8.09406 69.8051 8.09406C69.8928 8.09406 69.9773 8.12865 70.0414 8.19085L70.4151 7.80209C70.251 7.63817 70.0323 7.54663 69.8048 7.54663C69.5772 7.54663 69.3585 7.63817 69.1944 7.80209L69.5688 8.19085Z" fill="#321F6A"/>
<path d="M75.6305 6.34026H72.2607C72.219 6.34026 72.1853 6.37538 72.1853 6.41872V7.85755C72.1853 7.90089 72.219 7.93601 72.2607 7.93601H75.6305C75.6721 7.93601 75.7059 7.90089 75.7059 7.85755V6.41872C75.7059 6.37538 75.6721 6.34026 75.6305 6.34026Z" fill="#321F6A"/>
<path d="M75.9947 6.79439H75.8626C75.8209 6.79439 75.7871 6.82952 75.7871 6.87285V7.40265C75.7871 7.44598 75.8209 7.48111 75.8626 7.48111H75.9947C76.0364 7.48111 76.0701 7.44598 76.0701 7.40265V6.87285C76.0701 6.82952 76.0364 6.79439 75.9947 6.79439Z" fill="#321F6A"/>
<g opacity="0.5">
<path opacity="0.5" d="M18.8575 34.6688V70.5512H112.975V34.6688H18.8575Z" fill="url(#paint0_linear)"/>
</g>
<path d="M20.6511 32.7021V66.6439H84.8064C87.37 66.8178 89.9417 66.8178 92.5052 66.6439H110.469V32.7021H20.6511Z" fill="white"/>
<path d="M51.6456 40.5906H32.8133V59.3037H51.6456V40.5906Z" fill="#ECEFF1"/>
<path d="M42.155 52.1749L51.2761 59.6901V44.8506L42.155 52.1749Z" fill="#CFD8DC"/>
<path d="M52.0355 40.6542H51.2751L42.1549 48.1694L33.0338 40.6542H32.2742C31.6694 40.6545 31.0895 40.9052 30.6619 41.3514C30.2343 41.7976 29.9939 42.4026 29.9937 43.0336V57.3089C29.9939 57.9399 30.2343 58.5449 30.6619 58.9911C31.0895 59.4372 31.6694 59.688 32.2742 59.6883H33.0338V44.8506L42.1549 52.1703L51.276 44.8488V59.6873H52.0364C52.6409 59.6868 53.2204 59.4361 53.6478 58.9901C54.0752 58.5442 54.3156 57.9395 54.316 57.3089V43.0336C54.3158 42.4026 54.0755 41.7976 53.6478 41.3514C53.2202 40.9052 52.6403 40.6545 52.0355 40.6542V40.6542Z" fill="#FB5643"/>
<path d="M99.7727 40.5906H57.4189V45.1164H99.7727V40.5906Z" fill="#E0E0E0"/>
<path d="M103.414 47.2141H57.4189V51.7398H103.414V47.2141Z" fill="#E0E0E0"/>
<path d="M96.9075 54.0023H57.4189V58.528H96.9075V54.0023Z" fill="#E0E0E0"/>
<path opacity="0.6" d="M0 167.876C7.7607 170.598 17.2289 168.943 26.0334 169.135C27.2077 169.089 28.3793 169.284 29.4815 169.709C30.2848 170.202 30.9978 170.84 31.5871 171.594C34.0542 174.022 39.1093 174.802 43.5277 174.39C47.9461 173.978 51.9986 172.612 56.1597 171.578C63.368 169.782 71.6075 168.966 78.7172 170.923C79.3735 171.152 80.0636 171.259 80.7555 171.238C82.315 171.077 82.7787 169.776 83.8683 169.033C85.8412 167.69 90.1107 168.055 90.9734 166.286C91.481 165.256 90.3143 164.185 89.0453 163.479C84.1857 160.765 77.2348 160.322 70.8758 160.74C64.5167 161.158 58.2635 162.311 51.8713 162.316C43.907 162.316 36.2118 160.546 28.3247 159.822C22.8615 159.32 16.8988 159.381 11.7774 160.851C6.24066 162.459 5.01746 166.05 0 167.876Z" fill="#7561E5"/>
<defs>
<linearGradient id="paint0_linear" x1="65.9162" y1="70.5512" x2="65.9162" y2="34.6688" gradientUnits="userSpaceOnUse">
<stop stop-color="#808080" stop-opacity="0.251"/>
<stop offset="0.54" stop-color="#808080" stop-opacity="0.122"/>
<stop offset="1" stop-color="#808080" stop-opacity="0.102"/>
</linearGradient>
</defs>
</svg>
