<svg width="62" height="80" viewBox="0 0 62 80" fill="none" xmlns="http://www.w3.org/2000/svg">
<path d="M7.27273 41.82V70.9091C7.27273 71.3913 7.46429 71.8538 7.80526 72.1947C8.14624 72.5357 8.6087 72.7273 9.09091 72.7273H52.7273C53.7273 72.7273 54.5455 71.9091 54.5455 70.9073V41.8182C54.5455 41.336 54.3539 40.8735 54.0129 40.5325C53.6719 40.1916 53.2095 40 52.7273 40H9.09091C8.09091 40 7.27273 40.8182 7.27273 41.82ZM9.09091 32.7273V21.8182C9.09091 9.76727 18.8582 0 30.9091 0C42.9618 0 52.7273 9.76364 52.7273 21.8182V32.7273C53.9213 32.7273 55.1036 32.9625 56.2066 33.4194C57.3097 33.8764 58.312 34.5462 59.1562 35.3906C60.0004 36.2349 60.6699 37.2373 61.1267 38.3405C61.5835 39.4437 61.8184 40.626 61.8182 41.82V70.9091C61.8167 73.3197 60.8585 75.6312 59.1539 77.3357C57.4494 79.0403 55.1379 79.9986 52.7273 80H9.09091C7.89692 80 6.71463 79.7648 5.61155 79.3078C4.50847 78.8508 3.50622 78.1811 2.66202 77.3367C1.81783 76.4923 1.14824 75.4899 0.691483 74.3868C0.234729 73.2836 -0.000238616 72.1013 1.81835e-07 70.9073V41.8182C0.00144525 39.4076 0.959698 37.0961 2.66426 35.3915C4.36882 33.687 6.68029 32.7287 9.09091 32.7273ZM16.3636 32.7273H45.4545V21.8182C45.4545 13.78 38.9455 7.27273 30.9091 7.27273C27.0514 7.27273 23.3517 8.80519 20.6239 11.533C17.8961 14.2608 16.3636 17.9605 16.3636 21.8182V32.7273Z" fill="#7561E5"/>
</svg>
