<svg width="56" height="56" viewBox="0 0 56 56" fill="none" xmlns="http://www.w3.org/2000/svg">
<path d="M28 56C43.464 56 56 43.464 56 28C56 12.536 43.464 0 28 0C12.536 0 0 12.536 0 28C0 43.464 12.536 56 28 56Z" fill="#FFE588"/>
<path opacity="0.5" d="M11.8049 37.6298L30.097 55.9219C44.5815 54.8495 56 42.7585 56 28C56 27.2136 55.9659 26.4352 55.9024 25.6652L44.0927 13.7329L11.8049 37.6298Z" fill="#E59405"/>
<path d="M41.5598 12.7791H14.6241C12.5034 12.7791 10.7842 14.4982 10.7842 16.619V35.0238C10.7842 37.1445 12.5033 38.8638 14.6241 38.8638H16.3484L21.4439 46.1565L26.5393 38.8638H41.5598C43.6805 38.8638 45.3997 37.1446 45.3997 35.0238V16.619C45.3997 14.4983 43.6805 12.7791 41.5598 12.7791Z" fill="white"/>
<path d="M41.5598 12.7791H27.8906V38.8637H41.5598C43.6804 38.8637 45.3997 37.1445 45.3997 35.0237V16.619C45.3997 14.4983 43.6804 12.7791 41.5598 12.7791Z" fill="#E9EDF5"/>
<path d="M35.7916 33.0164C39.9011 33.0164 43.2326 29.6849 43.2326 25.5754C43.2326 21.4658 39.9011 18.1344 35.7916 18.1344C31.682 18.1344 28.3506 21.4658 28.3506 25.5754C28.3506 29.6849 31.682 33.0164 35.7916 33.0164Z" fill="#8B74FF"/>
<path d="M35.7915 18.1343C35.7645 18.1343 35.738 18.136 35.7109 18.1364V33.0144C35.7378 33.0148 35.7645 33.0165 35.7915 33.0165C39.9011 33.0165 43.2326 29.685 43.2326 25.5755C43.2326 21.4659 39.9011 18.1343 35.7915 18.1343Z" fill="#7868CC"/>
<path d="M35.7915 27.2766C37.5576 27.2766 38.9892 25.8449 38.9892 24.0789C38.9892 22.3129 37.5576 20.8812 35.7915 20.8812C34.0255 20.8812 32.5938 22.3129 32.5938 24.0789C32.5938 25.8449 34.0255 27.2766 35.7915 27.2766Z" fill="#DBEEFF"/>
<path d="M35.7915 20.8811C35.7645 20.8811 35.7378 20.8824 35.7109 20.8832V27.2746C35.7378 27.2753 35.7645 27.2767 35.7915 27.2767C37.5576 27.2767 38.9892 25.845 38.9892 24.0789C38.9892 22.3128 37.5576 20.8811 35.7915 20.8811Z" fill="#BFE1FF"/>
<path d="M35.7915 33.0164C37.7696 33.0164 39.5636 32.2331 40.8842 30.9615C40.0793 28.9364 38.1034 27.5039 35.7915 27.5039C33.4797 27.5039 31.5036 28.9363 30.6988 30.9615C32.0194 32.2331 33.8134 33.0164 35.7915 33.0164Z" fill="#DBEEFF"/>
<path d="M40.8842 30.9613C40.0793 28.9363 38.1034 27.5038 35.7915 27.5038C35.7645 27.5038 35.7378 27.505 35.7109 27.5053V33.0143C35.7378 33.0146 35.7645 33.0163 35.7915 33.0163C37.7696 33.0164 39.5636 32.233 40.8842 30.9613Z" fill="#BFE1FF"/>
<path d="M24.5078 21.0443H15.567V24.4088H24.5078V21.0443Z" fill="#7561E5"/>
<path d="M24.5078 26.7419H15.567V30.1064H24.5078V26.7419Z" fill="#7561E5"/>
</svg>
