<svg width="56" height="56" viewBox="0 0 56 56" fill="none" xmlns="http://www.w3.org/2000/svg">
<path d="M28 56C43.464 56 56 43.464 56 28C56 12.536 43.464 0 28 0C12.536 0 0 12.536 0 28C0 43.464 12.536 56 28 56Z" fill="#FFE588"/>
<path opacity="0.5" d="M11.8047 37.6298L30.0968 55.9219C44.5813 54.8495 55.9999 42.7585 55.9999 28C55.9999 27.2136 55.9657 26.4352 55.9022 25.6652L39.1998 11.6667L11.8047 37.6298Z" fill="#E59405"/>
<path d="M28.3169 48.2342C39.3168 48.2342 48.234 39.3171 48.234 28.3172C48.234 17.3173 39.3168 8.40015 28.3169 8.40015C17.3171 8.40015 8.3999 17.3173 8.3999 28.3172C8.3999 39.3171 17.3171 48.2342 28.3169 48.2342Z" fill="#8B74FF"/>
<path d="M28.3168 8.39999C28.2445 8.39999 28.1734 8.40468 28.1011 8.40556V48.2291C28.1731 48.23 28.2445 48.2347 28.3168 48.2347C39.3167 48.2347 48.2339 39.3175 48.2339 28.3176C48.2339 17.3178 39.3167 8.39999 28.3168 8.39999Z" fill="#7868CC"/>
<path d="M28.3169 32.871C33.044 32.871 36.8761 29.039 36.8761 24.3119C36.8761 19.5848 33.044 15.7528 28.3169 15.7528C23.5899 15.7528 19.7578 19.5848 19.7578 24.3119C19.7578 29.039 23.5899 32.871 28.3169 32.871Z" fill="#DBEEFF"/>
<path d="M28.3163 15.7524C28.244 15.7524 28.1726 15.756 28.1006 15.758V32.8657C28.1726 32.8675 28.244 32.8713 28.3163 32.8713C33.0435 32.8713 36.8755 29.0391 36.8755 24.3119C36.8755 19.5847 33.0435 15.7524 28.3163 15.7524Z" fill="#BFE1FF"/>
<path d="M28.3165 48.2346C33.6111 48.2346 38.4133 46.1378 41.948 42.7342C39.7936 37.3138 34.5046 33.4795 28.3165 33.4795C22.1285 33.4795 16.8392 37.3135 14.6851 42.7342C18.2198 46.1378 23.0217 48.2346 28.3165 48.2346Z" fill="#DBEEFF"/>
<path d="M41.9478 42.7338C39.7934 37.3134 34.5044 33.4791 28.3163 33.4791C28.244 33.4791 28.1726 33.4823 28.1006 33.4832V48.2289C28.1726 48.2298 28.244 48.2342 28.3163 48.2342C33.6109 48.2345 38.4131 46.1378 41.9478 42.7338Z" fill="#BFE1FF"/>
</svg>
