<?xml version="1.0" encoding="utf-8"?>
<!-- Generator: Adobe Illustrator 24.0.2, SVG Export Plug-In . SVG Version: 6.00 Build 0)  -->
<svg version="1.1" id="Capa_1" xmlns="http://www.w3.org/2000/svg" xmlns:xlink="http://www.w3.org/1999/xlink" x="0px" y="0px"
	 viewBox="0 0 82 130" style="enable-background:new 0 0 82 130;" xml:space="preserve">
<style type="text/css">
	.st0{fill:#F8F8F8;}
	.st1{fill:#0C1937;}
	.st2{fill:#DE9673;}
	.st3{fill:#FFC800;}
	.st4{fill:#EEA886;}
	.st5{fill:#DED1C5;}
	.st6{fill:#A77860;}
	.st7{fill:#23344A;}
</style>
<path class="st0" d="M59.1,114.6l-5.6-36.8l1.1-0.2l5.6,36.8L59.1,114.6z"/>
<path class="st0" d="M52.3,114.6l-5.6-36.8l1.1-0.2l5.6,36.8L52.3,114.6z"/>
<path class="st0" d="M18.6,114.6l-1.1-0.2l5.6-36.8l1.1,0.2L18.6,114.6z"/>
<path class="st0" d="M55.3,78.2l4.4-45.6c0,0-7.7-1-12.3-0.7l-7,46.4H55.3z"/>
<path class="st0" d="M55.3,75.9H40.4v2.3h14.9V75.9z"/>
<path class="st0" d="M30.7,76.3l-2.3-43.5c0,0,19.4-2.1,31.3-0.3L30.7,76.3z"/>
<path class="st1" d="M46.2,18.8c0,0,3-8.7-2.7-11.4C37.7,4.7,32.9,8.6,32,10.7c-0.9,2.1-0.7,5.9,0.1,8.6c0.8,2.7,0.7,6.7-1,8.1
	c-1.7,1.4-3.8,3.6-3.7,8.2c0.1,2.9,11.4-7.3,11.4-7.3L46.2,18.8z"/>
<path class="st1" d="M38.5,112.3c0,0-0.2,6.1,0.7,6.5c0.9,0.4,4.2-1.8,5.7-3.9c1.5-2.1-1.9-7-2.4-9.7c-0.2-1.1-2.8-3.2-4.1-2.6
	c-1.3,0.6-2.2,2.1-2.2,2.1S39.5,106.9,38.5,112.3z"/>
<path class="st2" d="M36.3,104.7c0.6,1.2,1.2,2.4,1.7,3.7c0.6,1.6,0.7,6.1,1,6.4c0.4,0.3,3.2-1.1,3.5-2.8c0.4-1.7-0.8-5-1.9-6.8
	c-0.6-1-1.3-1.9-2.2-2.7C38.5,102.6,36.5,103,36.3,104.7z"/>
<path class="st1" d="M42.6,105.2l3,4.4l-0.6,0.4l-2.3-3.4L42.6,105.2z"/>
<path class="st2" d="M31.7,57c0,0,1.5,2.5,0,4.3C30.2,63,20.3,68,20.3,70.8c0.1,2.9,1.9,7.3,2.5,8.4c0.7,1.1,3.1,5.8,4.3,8.6
	c1.3,2.7,8.5,15.9,9.9,18.9c1.4,3,0.5-11.9,0.5-11.9l-7.2-21l16.9-16.3C47.4,57.5,45.3,53,31.7,57z"/>
<path class="st3" d="M38.1,29.1c0,0-4.7,1-6.6,2.1c-1.9,1.1-6,6-6,8.2c0,2.1,18.1,4.1,18.1,4.1l3.4,12.4c0,0,9.2-2.2,10.2-4
	c1.1-1.8-3.6-14.9-4.3-17.6c-0.7-2.7-4.1-4.6-7.9-5.1C42.9,28.8,40.5,28.8,38.1,29.1z"/>
<path class="st4" d="M49.2,57.4c0,0-0.3,2.1,0.5,3c0.9,0.9,4.9,6.1,2.8,11.3c-2,4.7-5.7,4.6-5.7,4.6h-5.9c0,0,1.7,8.5,1.2,14.1
	c-0.5,5.6-3.1,18.4-3.2,19.1c-0.1,0.6-2.5,2.7-3.2,1.6c0,0-0.1-7.7-0.4-10.6c-0.4-2.9-2-14.6-2.5-16.3c-0.5-1.7-3.4-7-3.4-7.5
	c0-0.5-2.8-9,3.3-11.1S41.1,57.4,49.2,57.4z"/>
<path class="st1" d="M32.8,117.1c0,0-4,4.7-3.6,5.5c0.5,0.8,4.4,1.3,6.9,0.5s3-6.6,4.3-9.1c0.5-1-0.2-4.2-1.5-4.6
	c-1.4-0.3-3,0.3-3,0.3S37,113.5,32.8,117.1z"/>
<path class="st4" d="M35.9,109.7c-0.3,1.3-0.6,2.6-1.1,3.9c-0.6,1.6-3.4,5.2-3.3,5.6c0.1,0.5,3.2,1.1,4.5,0c1.4-1.1,2.6-4.4,2.9-6.5
	c0.2-1.1,0.2-2.3,0-3.4C38.9,109.5,37.2,108.6,35.9,109.7z"/>
<path class="st3" d="M52.5,71.7c-1.8,4.8-5.7,4.6-5.7,4.6h-5.9c0,0-2.4-3.8-8.4-4.5c-1.5-0.2-3-0.1-4.5,0.1c0,0,0,0-0.1,0
	c-8,1.2-6.4,4.1-6.4,4.1c-0.7-1.6-1.4-4.1-1.2-5.5c0.8-6.2,9.9-7.5,11.3-9.3c1.5-1.8,0-4.3,0-4.3c13.6-4,15.7,0.5,15.7,0.5
	c0.6-0.1,2.1-1,2.8-1c0,0,0.7,1.5,1.2,2.8C51.7,60.5,54.5,66.5,52.5,71.7z"/>
<path class="st5" d="M46.9,37.4l2,18.5H22.4l-2-18.5H46.9z"/>
<path class="st5" d="M51,54.3h-4.4v1.7H51V54.3z"/>
<path class="st1" d="M77.2,55.9H4.1v2.5h73.1V55.9z"/>
<path class="st4" d="M41.1,8.9c0,0,5.9,1.7,5.1,9.9c-0.8,8.2-4.7,7.7-5.1,7.8c-0.4,0.1-5,0.4-6.4-9.5C33.2,7.2,41.1,8.9,41.1,8.9z"
	/>
<path class="st4" d="M43.9,25.1c0,0-0.3,2.7,0.2,4.4c0.5,1.7-6.9,1.7-6.9,0.3c0-1.6,0.8-2.9,0-5.6C36.5,21.6,43.9,25.1,43.9,25.1z"
	/>
<path class="st1" d="M39.5,12.6c0,0,3.2,5.1,6.6,6.3c0,0,1.9-8.5-5.8-10.3s-6.5,8.6-5.9,11.4C35.6,17.1,37.4,14.6,39.5,12.6z"/>
<path class="st6" d="M38.1,25.5c0.7,0.7,1.6,1.1,2.6,1.1c1,0,2-0.3,2.7-0.9c0,0-0.2,1.5-2.4,1.8C38.9,27.7,38.1,25.5,38.1,25.5z"/>
<path class="st7" d="M35.2,11.8c0,0,1.7-3.3,4.6-3.4c2.9-0.1,4.6,2.3,4.6,2.3c-0.4-0.9-1.1-1.6-1.9-2.1c-0.8-0.5-1.8-0.7-2.7-0.7
	C36.3,7.9,35.2,11.8,35.2,11.8z"/>
<path class="st4" d="M44.9,29.1c0,0-0.1,5.6-4.6,5.8c-4.5,0.2-3.6-5.4-3.6-5.4S40,28.2,44.9,29.1z"/>
<path class="st1" d="M77.2,58.5h-1.9v58h1.9V58.5z"/>
<path class="st1" d="M5.9,58.5H4.1v58h1.9V58.5z"/>
</svg>
