<svg width="50" height="64" viewBox="0 0 50 64" fill="none" xmlns="http://www.w3.org/2000/svg">
<path d="M5.81818 33.456V56.7273C5.81818 57.113 5.97143 57.483 6.24421 57.7558C6.51699 58.0286 6.88696 58.1818 7.27273 58.1818H42.1818C42.9818 58.1818 43.6364 57.5273 43.6364 56.7258V33.4545C43.6364 33.0688 43.4831 32.6988 43.2103 32.426C42.9376 32.1532 42.5676 32 42.1818 32H7.27273C6.47273 32 5.81818 32.6545 5.81818 33.456ZM7.27273 26.1818V17.4545C7.27273 7.81382 15.0865 0 24.7273 0C34.3695 0 42.1818 7.81091 42.1818 17.4545V26.1818C43.137 26.1818 44.0828 26.37 44.9653 26.7356C45.8478 27.1011 46.6496 27.637 47.3249 28.3125C48.0003 28.988 48.536 29.7899 48.9014 30.6724C49.2668 31.5549 49.4547 32.5008 49.4545 33.456V56.7273C49.4534 58.6558 48.6868 60.5049 47.3231 61.8686C45.9595 63.2322 44.1103 63.9988 42.1818 64H7.27273C6.31754 64 5.3717 63.8118 4.48924 63.4463C3.60678 63.0807 2.80497 62.5448 2.12962 61.8694C1.45426 61.1939 0.918589 60.392 0.553186 59.5094C0.187783 58.6269 -0.000190893 57.681 1.45468e-07 56.7258V33.4545C0.0011562 31.5261 0.767758 29.6769 2.13141 28.3132C3.49506 26.9496 5.34423 26.183 7.27273 26.1818ZM13.0909 26.1818H36.3636V17.4545C36.3636 11.024 31.1564 5.81818 24.7273 5.81818C21.6411 5.81818 18.6814 7.04415 16.4991 9.22639C14.3169 11.4086 13.0909 14.3684 13.0909 17.4545V26.1818Z" fill="#7561E5"/>
</svg>
