<?xml version="1.0" encoding="utf-8"?>
<!-- Generator: Adobe Illustrator 24.1.2, SVG Export Plug-In . SVG Version: 6.00 Build 0)  -->
<svg version="1.1" id="Capa_1" xmlns="http://www.w3.org/2000/svg" xmlns:xlink="http://www.w3.org/1999/xlink" x="0px" y="0px"
	 viewBox="0 0 135.6 142" style="enable-background:new 0 0 135.6 142;" xml:space="preserve">
<style type="text/css">
	.st0{fill:#8B74FF;}
	.st1{fill:#7868CC;}
	.st2{fill:#FFFFFF;}
	.st3{fill:#E1EBF0;}
	.st4{fill:#B4D2D7;}
	.st5{fill:#6FA5AA;}
	.st6{clip-path:url(#SVGID_2_);}
	.st7{fill:#E59405;stroke:#FFC800;stroke-width:0.5;stroke-linejoin:round;}
	.st8{fill:#FFC800;}
	.st9{fill:#0C1937;}
	.st10{fill:#EEA886;}
	.st11{fill:#7561E5;}
	.st12{fill:#A77860;}
	.st13{fill:#E59405;}
	.st14{fill:#EEA987;}
	.st15{fill:#1E2E4C;}
	.st16{opacity:0.6;fill:#E59405;enable-background:new    ;}
</style>
<g>
	<path class="st0" d="M37.5,60.5c-1.2,3.4-3.1,6.3-5.6,8.8c-2.8,2.8-6.5,4.9-11,6.5c-0.1,0.1-0.3,0.1-0.5,0.1
		c-0.2,0-0.4,0.1-0.6,0.1h0c-0.2,0-0.4,0-0.7-0.1c-0.2,0-0.3-0.1-0.4-0.1c-4.5-1.6-8.2-3.8-11-6.5c-2.5-2.4-4.4-5.4-5.6-8.8
		c-2.3-6.2-2.1-13-2-18.4l0-0.1c0-0.5,0-0.9,0-1.4c0-2.6,2.1-4.7,4.6-4.8c5.3-0.3,9.5-2,13-5.5l0,0c0.6-0.5,1.3-0.8,2.1-0.8
		c0.7,0,1.4,0.3,2,0.8l0,0c3.5,3.4,7.7,5.2,13,5.5c2.6,0.1,4.6,2.3,4.6,4.8c0,0.5,0,1,0,1.4l0,0C39.7,47.5,39.8,54.3,37.5,60.5z"/>
	<path class="st1" d="M37.5,60.5c-1.2,3.4-3.1,6.3-5.6,8.8c-2.8,2.8-6.5,4.9-11,6.5c-0.1,0.1-0.3,0.1-0.5,0.1
		c-0.2,0-0.4,0.1-0.6,0.1V29.4c0.7,0,1.4,0.3,2,0.8l0,0c3.5,3.4,7.7,5.2,13,5.5c2.6,0.1,4.6,2.3,4.6,4.8c0,0.5,0,1,0,1.4l0,0
		C39.7,47.5,39.8,54.3,37.5,60.5z"/>
	<path class="st2" d="M31.4,52.7c0,6.4-5.2,11.6-11.5,11.6h0c-6.4,0-11.6-5.2-11.6-11.6c0-6.4,5.2-11.6,11.6-11.6h0
		C26.3,41.1,31.4,46.3,31.4,52.7z"/>
	<path class="st3" d="M31.4,52.7c0,6.4-5.2,11.6-11.5,11.6V41.1C26.3,41.1,31.4,46.3,31.4,52.7z"/>
	<path class="st4" d="M25.1,51l-5.2,5.2l-1.1,1.1c-0.3,0.3-0.6,0.4-1,0.4c-0.3,0-0.7-0.1-1-0.4l-2.4-2.4c-0.5-0.5-0.5-1.4,0-1.9
		c0.5-0.5,1.4-0.5,1.9,0l1.5,1.5l5.4-5.4c0.5-0.5,1.4-0.5,1.9,0C25.6,49.6,25.6,50.5,25.1,51z"/>
	<path class="st5" d="M25.1,51l-5.2,5.2v-3.9l3.3-3.3c0.5-0.5,1.4-0.5,1.9,0C25.6,49.6,25.6,50.5,25.1,51z"/>
</g>
<g>
	<defs>
		<rect id="SVGID_1_" x="28.6" width="107" height="142"/>
	</defs>
	<clipPath id="SVGID_2_">
		<use xlink:href="#SVGID_1_"  style="overflow:visible;"/>
	</clipPath>
	<g class="st6">
		<path class="st7" d="M71,19.6c-0.3-0.3-0.6-0.6-0.8-0.9c-0.2-0.4-0.3-0.8-0.3-1.2c-0.2-1.3-0.5-2.7-1-3.9
			c-1.2-0.9-2.1-2.2-2.5-3.6c-0.5-1.4-0.4-3,0-4.4C66.8,4.2,67.7,2.9,69,2c1.2-0.9,2.7-1.4,4.2-1.4c1.5,0,3,0.5,4.2,1.4
			c1.2,0.9,2.1,2.1,2.6,3.6c0.5,1.4,0.5,3,0.1,4.4c-0.4,1.4-1.3,2.7-2.5,3.6c-0.4,1.2-0.7,2.5-0.8,3.8c0,1.7-1.5,3-3.4,3.1
			c0,0,0,0,0,0l0-0.2c-0.1,0-0.2,0-0.3,0L71,19.6z M71,19.6c0.6,0.5,1.4,0.8,2.1,0.8L71,19.6z M69.7,2.8c1.1-0.7,2.4-1.1,3.7-1.1
			c0,0,0,0,0,0c1.3,0.1,2.5,0.5,3.5,1.3c1,0.8,1.7,1.9,2.1,3.1c0.4,1.2,0.4,2.5-0.1,3.8c-0.4,1.2-1.2,2.3-2.2,3l-0.1,0.1
			c0,0-0.1,0.1-0.1,0.1l0,0.1c-0.5,1.4-0.8,2.8-0.9,4.2c0,0,0,0,0,0v0h0l0,0c0,1.1-1,2-2.4,2.1l0,0c-0.6,0-1.3-0.2-1.8-0.6l0,0
			c-0.2-0.2-0.4-0.4-0.5-0.6c-0.1-0.2-0.2-0.5-0.2-0.8h0l0,0l0,0h0l0,0c-0.2-1.5-0.6-2.9-1.2-4.3l0-0.1c0,0,0-0.1-0.1-0.1l-0.1,0
			c0,0,0,0,0,0c-1.1-0.8-1.9-1.9-2.3-3.2c-0.4-1.3-0.4-2.6,0.1-3.9C67.8,4.6,68.6,3.5,69.7,2.8z"/>
		<path class="st8" d="M73.5,1.5c-1.4-0.1-2.7,0.3-3.9,1.1s-2,1.9-2.4,3.2c-0.5,1.3-0.5,2.7-0.1,4c0.4,1.3,1.2,2.5,2.3,3.3l0.1,0
			l0,0.1c0.6,1.4,1,2.8,1.1,4.3l0,0c0,0.3,0.1,0.6,0.2,0.9c0.1,0.3,0.3,0.5,0.6,0.7c0.5,0.4,1.2,0.6,1.9,0.6c1.5,0,2.6-1.1,2.6-2.3
			v0c0.1-1.4,0.4-2.8,0.9-4.1l0-0.1l0.1-0.1c1.1-0.8,1.9-1.9,2.3-3.1c0.4-1.3,0.4-2.6,0.1-3.9c-0.4-1.3-1.1-2.4-2.2-3.2
			C76.1,2,74.8,1.5,73.5,1.5L73.5,1.5z"/>
		<path class="st9" d="M75.8,19.5l-4.9,0.1l0.1,2l4.9-0.1L75.8,19.5z"/>
		<path class="st9" d="M76.6,17.4l-6.5,0.2l0.1,3.2l6.5-0.2L76.6,17.4z"/>
		<path class="st10" d="M133.7,131.4l-1-3.3l-4.5,0.6l0.6,3L133.7,131.4z"/>
		<path class="st10" d="M104.4,131.7l-0.3,1.8l-4.8-0.9l0.3-2.7L104.4,131.7z"/>
		<path class="st8" d="M115.8,74.2c0,0,0.8,6.4,1.6,13c0.2,1.5,0.4,3,0.6,4.4c0.6,4.7,1.2,8.8,1.4,9.5c0.7,1.9,7.9,28.2,7.9,28.2
			s6.2,0.6,6.4-0.1c0,0-4.9-29.6-4.8-30.7c0.1-1.1-1-31.5-1-31.5S116.2,72.4,115.8,74.2z"/>
		<path class="st8" d="M109.3,64.9c0,0-6.3,29.7-6.9,32c-0.5,2.3-3.9,33.6-3.9,33.6s2,1.4,6.7,1.1c0,0,7.2-32.9,7.8-33.9
			c2.2-4.2,10-25.2,11-28.1c1.1-2.9,4.1-5.9,4.1-5.9S120.3,59.1,109.3,64.9z"/>
		<path class="st10" d="M81.6,38.4c0,0-5-0.9-5.4-0.7c-0.4,0.2-0.4,0.5,0.1,0.6c0.5,0.1,4.8,1,4.8,1s-6.1-0.1-6.4,0.1
			c-0.2,0.1-0.3,0.6,0,0.7c0.2,0.1,6.3,0.5,6.3,0.5s-5.7,0-5.9,0.1c-0.1,0.1-0.1,0.1-0.1,0.2c0,0.1,0,0.2,0,0.2
			c0,0.1,0.1,0.1,0.1,0.2c0.1,0,0.1,0.1,0.2,0.1c0.4,0,5.7,0.4,5.7,0.4s-4.1,0.2-4.2,0.5c-0.1,0.2-0.1,0.6,0.9,0.6
			c1.1-0.1,3.6,0,3.6,0L81.6,38.4z"/>
		<path class="st10" d="M87.2,40.4c0,0-1.6-0.4-1.9-1.4c-0.2-0.8-1-1.8-1.3-2.1c-0.3-0.4-1-2-1.4-1.5c-0.5,0.4,0.9,2.6,1.1,3.2
			c0.2,0.5-2.1-0.3-2.6-0.2c-0.5,0.2-1.5,4.1,0.2,4.5c1.6,0.4,3.5-0.2,3.8-0.1c0.4,0.1,0.8,0.3,1.2,0.3L87.2,40.4z"/>
		<path class="st10" d="M108.7,32.4c0,0-6.2,9.7-6.9,9.9c-0.6,0.2-15.7-2.4-15.7-2.4s-0.9,2.9-0.3,3.1c0.9,0.2,17.7,6,18.6,5.2
			c0.9-0.8,8.8-8.3,8.8-8.3S112.1,31.7,108.7,32.4z"/>
		<path class="st10" d="M111.4,19.7c0,0,0,0.3,0.1,0.8c0,0.4,0,0.8,0.1,1.3c0,1.3,0.1,2.9-0.1,3.6c-0.3,1.4,5.8-4.2,5.8-4.2
			c-0.2-3.2-0.1-6.3,0.2-9.5C117.9,6.8,111.4,19.7,111.4,19.7z"/>
		<path class="st11" d="M108.4,47.2c0.1,0.6,0.3,1.2,0.4,1.8c0.1,0.3,0.1,0.6,0.2,0.9c0.8,4.4,0.1,11.4-0.6,18.5
			c0,0,4.1,2.1,20.4,4.8c0.6-21.1-4.1-42.7-4.1-42.7c-1.2-4.6-3.7-6.2-7.5-9.1c0,0-0.4,0-5.6,3.6c-0.4,0.3-2.2,3.6-3.2,7.3
			C106.6,38.7,107.1,42.1,108.4,47.2z"/>
		<path class="st12" d="M111.5,20.5c0,0.4,0.1,1.1,0.1,1.5c2-1.4,2.9-2.7,3.4-3.3C114.1,19.7,111.5,20.5,111.5,20.5z"/>
		<path class="st10" d="M113.4,29.5c0,0,1.5-5.1,6.8-2.8c2.9,1.2,3,5-1.7,17.9c0,0-3.3,8.8-4.1,9.8c-2.9,3.5-15.4,15.9-16.9,15.7
			l-3-1.2c0,0,6.1-7.5,8.4-10.5c2.3-3,6.1-9.3,6.1-9.3L113.4,29.5z"/>
		<path class="st13" d="M117.4,87.2c0.2,1.5,0.4,3,0.6,4.4v0c2.3-5.8,4.6-18,4.6-18.2C122.3,74.3,117.4,87.2,117.4,87.2z"/>
		<path class="st10" d="M117.2,21.2c0,0-6.3,7-9.1,12c0,0,0.4-2.8,3.4-8.3C111.5,24.8,113.9,21.2,117.2,21.2z"/>
		<path class="st10" d="M107.6,7.1c0,0-2.1,3.6-2.1,4.3c0,0.8,0.9,0.8,0.4,1.5c-0.5,0.8-1.4,2.3-1,2.7c0.5,0.5,1.6,0.2,1.8,1.3
			c0.2,1,1.5,4.1,2.9,4.1c1.4,0,6.3-2.5,6.6-3.5c0.3-1,2.2-6.6,2.8-7.7c0.6-1.1-9.7-6.3-10.6-4.6L107.6,7.1z"/>
		<path class="st9" d="M107.8,6.7c0,0-1.5-0.7-1-2.3c0.5-1.5,1.8-3.5,4.8-2.6c3,1,5.2,3,7.3,3.3c2.1,0.3,2.5,2.3,0.7,6.1
			c-1.8,3.7-2.5,5.6-2.5,5.6s-0.6-3.2-1.4-3.1c-0.8,0.1-2-2-2-2l-0.2,0.6l-1.4-0.1c0,0,1.8-3.9,0.9-4.4C112,7.4,108,7.2,107.8,6.7z"
			/>
		<path class="st10" d="M113.7,11.3c0,0,1-1.8,2.7-0.6c1.3,0.9-0.4,4-1.7,3.9C113.4,14.6,113,12.9,113.7,11.3z"/>
		<path class="st11" d="M121.4,38.4L111,36.5c0,0,0.6-11.9,6.8-11.4C123.9,25.6,123,31.3,121.4,38.4z"/>
		<path class="st10" d="M95.1,68.3c0,0-1.1,0.5-1.6,0.5c-0.5,0-3.7-0.3-4.2,0.2c-0.4,0.6-3.5,3.7-3.1,4.1c0.4,0.5,0.7,0.2,0.9,0
			c0.2-0.2,2.6-2.2,2.9-2.3c0,0-2.1,2.4-1.8,3.1c0.4,0.7,1,0.6,1.4,0.7c0.4,0.1,1,0.6,1.8,0.3c0.7-0.3,3.6-3.2,4.2-3.6
			c0.7-0.4,3.6-2.1,3.6-2.2S95.1,68.3,95.1,68.3z"/>
		<path class="st9" d="M104.1,133.4c0,0-3.7-0.8-3.8-0.9c-0.1-0.1-0.9-1.6-1.5-1.3c-0.6,0.2-0.6,2-1.2,2.3c-0.6,0.3-5,3.2-5.5,3.7
			c-0.5,0.5-3.9,0.2-4.3,1.1c-0.4,0.9-0.5,3.1,4.5,2.7c5-0.4,10.6,0.5,11.7-0.1S104.4,134.9,104.1,133.4z"/>
		<path class="st9" d="M133.7,131.4c0,0-3.7-0.2-3.9-0.3c-0.1-0.1-1.1-1.4-1.7-1.1c-0.5,0.3-0.3,2.1-0.8,2.5
			c-0.5,0.4-4.4,3.9-4.9,4.5c-0.5,0.6-3.8,0.8-4,1.8c-0.2,1,0,3.2,4.9,2c4.8-1.2,10.5-1.2,11.5-2
			C135.8,138.1,134.2,132.8,133.7,131.4z"/>
		<path class="st14" d="M38.1,57.5c0,0-3.2,4-4.3,6.7c-1.1,2.7-3,8.5-2.7,13.1c0.2,4.5,1.7,13.1,1.3,15c-0.4,1.9-0.9,5.9-1.3,7.3
			c-0.5,1.4-2.3,5.4-2.5,9.5c-0.2,4.1,2.6,22.2,2.5,23.8c-0.1,1.7,3.2,0.7,3.2,0.7s1.1-16.3,1.7-19.1c0.6-2.8,1.4-12.3,1.9-13
			c0.6-0.7,2.1-7.8,1.8-8.9c-0.2-1.1,6.1-17.9,6.4-21.3c0.4-3.4,5.4-13.8,5.4-13.8C45.8,55.6,43.9,55.6,38.1,57.5z"/>
		<path class="st14" d="M51.9,57.2c0.1,0.8-1,2.7,0.3,2.7c-1.3,1.5,5.8,16.4,6.2,22.5c0.4,6.1,1.5,11.3,1.7,12.6
			c0.2,1.3-0.2,5.7-0.6,6.8c-0.4,1.1,1.9,27.6,2,28.2c0.2,0.6-1.5,0.8-2.7,0.6c-1.2-0.2-7.1-19.4-6.7-22.7
			c0.4-3.2,0.7-10.1-0.3-12.9c-1.1-2.8-10.5-23.1-10.6-24.3C41.3,69.4,36,47.7,51.9,57.2z"/>
		<path class="st0" d="M63.7,136.5c0,0,3.2,4.3,2.7,5c-0.4,0.7-3.8,0.8-5.8,0c-2-0.8-2.1-5.8-3-8c-0.4-0.9,0.4-3.6,1.6-3.8
			c1.2-0.2,2.4,0.4,2.4,0.4S60.5,133.1,63.7,136.5z"/>
		<path class="st10" d="M61.7,130.1c0.3,1.1,0.5,2.3,0.7,3.5c0.2,1.4,2.5,4.6,2.4,5c-0.1,0.4-2.7,0.7-3.8-0.3c-1.1-1-1.8-3.9-2-5.7
			c-0.1-0.8-0.3-1.6-0.5-2.4C58.5,130.2,60.7,129,61.7,130.1z"/>
		<path class="st0" d="M57.6,133.5v4.5h0.6v-3.5L57.6,133.5z"/>
		<path class="st0" d="M36,136.6c0,0,3.1,4.2,2.6,4.9c-0.4,0.7-3.8,0.8-5.8,0c-2-0.8-2.1-5.8-3-8c-0.4-0.9,0.4-3.6,1.6-3.8
			c1.2-0.2,2.5,0.4,2.5,0.4S32.8,133.2,36,136.6z"/>
		<path class="st10" d="M34,130.1c0.1,1.1,0.4,2.3,0.6,3.4c0.4,1.4,2.5,4.6,2.4,5c-0.1,0.4-2.7,0.7-3.8-0.3c-1.1-1-1.9-3.9-2-5.7
			c-0.1-1,0-2,0.2-2.9C31.4,129.7,32.9,129.1,34,130.1z"/>
		<path class="st0" d="M29.8,133.5v4.5h0.6v-3.5L29.8,133.5z"/>
		<path class="st0" d="M34,129.9c0,0-0.7,0.4-2.6,0l-0.2,0.4c0,0,1.8,0.6,2.8,0c0-0.1,0-0.1,0-0.2S34,130,34,129.9z"/>
		<path class="st0" d="M61.7,130.1c0,0-0.8,0.5-3.2,0.1l-0.1,0.4c0,0,2.2,0.7,3.4-0.1C61.8,130.4,61.8,130.2,61.7,130.1z"/>
		<path class="st10" d="M66.7,47.4c0,0,1.7-0.7,2-1.3c0.3-0.5,4.2-0.8,4.6-0.9c0.4-0.1,0.8,0.2,0.7,0.4c-0.1,0.2-2.1,0.6-2.7,0.9
			c-0.5,0.3-0.7,0.5-0.5,0.5c0.2,0.1,2.3-0.3,3.4-0.5c1-0.2,4.2-0.2,4,0.4c-0.2,0.6-5.1,1.9-6.6,2.1c-1.6,0.2-3.6,0-3.6,0L66.7,47.4
			z"/>
		<path class="st15" d="M52.8,15.3c0,0,1.8-3.5,0.9-7.2c-0.9-3.7-5.4-7.7-10.4-5.9c-3.5,1.3-5,5.8-4.5,8.2c1.2,5.3-2.8,8-1.9,10.9
			c0.8,2.5,0.9,4.4,0.3,4.9c-0.6,0.5-2.6,2.3-2.4,4.4c0.2,2.1,9.8-6.2,9.8-6.2S49.9,14,52.8,15.3z"/>
		<path class="st8" d="M52.9,57.7l-18.5-0.9c0,0-4.6,7.1-4.3,20.1c0.2,11,1.4,15,1.4,15s7.4,5.8,19.4,4.8c12-0.9,12.3-3.2,15.2-2
			c0,0-3.4-6.1-6.5-14.1c-3.1-8-3.3-13.1-4-15.5C54.9,62.8,54,60.1,52.9,57.7z"/>
		<path class="st10" d="M60.6,65.7c0,0-0.6,1.7-1.1,2c-0.5,0.3-0.7,4.2-0.7,4.7c0,0.4,0.2,0.8,0.4,0.7c0.1-0.1,0.5-2.1,0.8-2.7
			c0.2-0.5,0.4-0.7,0.5-0.5s-0.2,2.3-0.4,3.5c-0.1,1-0.1,4.3,0.4,4c0.5-0.2,1.7-5.1,1.8-6.7c0.1-1.6-0.3-4.5-0.3-4.5L60.6,65.7z"/>
		<path class="st8" d="M34.6,37.7c0,0,0.3,0.9,0.9,5.2c0.3,2.7,0.3,4.8,0.2,7.9c-0.1,2.1-0.5,4.2-1.3,6.1l18.9,3.4
			c-0.1-0.5-0.6-3.6-0.8-7c0-0.4,0-0.8-0.1-1.2c0-1.1,0-3.3,0-4.6c0-0.1,0.4-0.4,0.4-0.4c1.3-1.3,1.7-1.6,2.2-2.2
			c2.2-3.1,0.3-6.8,0.2-8.9c0,0,1,4.7,1.1,6.1c0.4,4.9,0.4,7.5,0.9,12.9l2.2,12.4l3.1-0.4l-1.3-24c0-2.7-0.4-6.6-0.9-9.1
			C60,31.6,59,29.7,58,28.7c-1-1-5-3.3-9-4.6c-2.4-0.8-4.9-0.9-7.3-0.4c0,0-4.8,0.9-8.6,2.4c-2.4,1-4.8,4-3.1,7.7"/>
		<path class="st8" d="M30,33.8c0.2,2.6,17.1,11.2,18,11.6c4.9,2.4,19.8,4,20.1,3.6c0.1-0.2,0.2-3.5-0.1-3.3
			c-0.1,0.1-11.5-1.8-16.6-4.5c-3.2-1.7-9.8-5.6-9.8-5.6"/>
		<path class="st10" d="M40,24c0,0,2.2,9.6,6.2,11.4c0,0,4.4-5.6,2.9-11.4C49.1,24.1,44.4,22.3,40,24z"/>
		<path class="st10" d="M45.6,26.9c3.2-0.6,2.5-2.4,2.5-2.4s-0.1-1-0.2-2.3c0-0.3,0-0.7,0-1c0-0.5,0-1,0.1-1.6
			c0.3-2.1-5.8-0.9-5.8-0.9s0.3,4.3-0.5,5.6C40.8,25.8,42.4,27.5,45.6,26.9z"/>
		<path class="st10" d="M51.5,6.7c0,0,3.3,6.4,0,12.5c-3.3,6.1-9.8-2.7-10.2-3.7c-0.4-1-2.7-6.8,1.8-8.6C47.5,5.2,50.5,4.9,51.5,6.7
			z"/>
		<path class="st15" d="M50.4,8.9c0,0,2.3,3,2.6,5.2c0.5-2.9-0.1-5.8-1.7-8.3c-2.6-4.1-9.2-0.2-10,1.4c-0.9,1.6-3.5,3,0.9,10
			C42.1,17.4,49.9,11.9,50.4,8.9z"/>
		<path class="st12" d="M45,19.8c0,0,0.6,1.3,2.8,2.4c0-0.3,0-0.7,0-1C46.8,21.1,45.8,20.6,45,19.8z"/>
		<path class="st15" d="M44.5,13.1c0,0-1.3,2-0.1,3.7c1.2,1.7-0.3,3.4-0.6,5.2c-0.3,1.8,4.7,7.8-1.1,10.2c-5.8,2.4-6.9-3.6-6-6.1
			c0.8-2.4,2.6-2.8,2.7-6C39.7,17,40.7,12.1,44.5,13.1z"/>
		<path class="st16" d="M35.5,43.4l0.1,1.9l16.8,3.1c0-0.4,0-0.8,0-0.9c0-0.1,0.4-0.4,0.4-0.4s-2.7-0.9-4.9-1.6
			c-2.5-1.1-13.4-7.7-13.4-7.7L35.5,43.4z"/>
	</g>
</g>
</svg>
