<svg width="118" height="175" viewBox="0 0 118 175" fill="none" xmlns="http://www.w3.org/2000/svg">
<g style="mix-blend-mode:multiply">
<path d="M81.6841 3.47142H24.0503C17.9768 3.47142 13.0532 8.38028 13.0532 14.4357V144.999C13.0532 151.055 17.9768 155.964 24.0503 155.964H81.6841C87.7577 155.964 92.6812 151.055 92.6812 144.999V14.4357C92.6812 8.38028 87.7577 3.47142 81.6841 3.47142Z" fill="#E2E2E2"/>
</g>
<path d="M81.0598 0H17.3839C12.9789 0 9.40784 3.56036 9.40784 7.95228V144.54C9.40784 148.932 12.9789 152.492 17.3839 152.492H81.0598C85.4648 152.492 89.0359 148.932 89.0359 144.54V7.95228C89.0359 3.56036 85.4648 0 81.0598 0Z" fill="#31425E"/>
<path d="M80.0135 3.47142H18.4303C15.0995 3.47142 12.3993 6.16352 12.3993 9.4844V143.007C12.3993 146.328 15.0995 149.02 18.4303 149.02H80.0135C83.3444 149.02 86.0445 146.328 86.0445 143.007V9.4844C86.0445 6.16352 83.3444 3.47142 80.0135 3.47142Z" fill="#FFC800"/>
<path d="M34.5836 2.34502H63.8601V5.38879C63.8602 5.81061 63.777 6.22832 63.6152 6.61806C63.4534 7.0078 63.2161 7.36193 62.9169 7.66022C62.6178 7.9585 62.2626 8.1951 61.8717 8.35649C61.4809 8.51788 61.0619 8.6009 60.6388 8.60081H37.8042C37.3812 8.60081 36.9623 8.51772 36.5715 8.35629C36.1807 8.19485 35.8256 7.95824 35.5265 7.65997C35.2275 7.36169 34.9902 7.00759 34.8285 6.6179C34.6667 6.2282 34.5835 5.81055 34.5836 5.38879V2.34502Z" fill="#31425E"/>
<path d="M52.8668 4.19736H40.7491V5.17849H52.8668V4.19736Z" fill="#9878EF"/>
<path d="M57.6939 4.68828C57.6939 4.82572 57.653 4.96008 57.5764 5.07435C57.4998 5.18863 57.391 5.27769 57.2636 5.33027C57.1363 5.38285 56.9961 5.39659 56.8609 5.36975C56.7257 5.34291 56.6015 5.2767 56.5041 5.17948C56.4066 5.08227 56.3402 4.95843 56.3134 4.82362C56.2865 4.68881 56.3004 4.54909 56.3532 4.42212C56.406 4.29516 56.4954 4.18666 56.61 4.11035C56.7247 4.03405 56.8595 3.99335 56.9973 3.99342C57.0888 3.99342 57.1794 4.01139 57.264 4.04632C57.3485 4.08124 57.4253 4.13243 57.49 4.19696C57.5547 4.26148 57.606 4.33809 57.641 4.42239C57.676 4.50669 57.694 4.59705 57.6939 4.68828Z" fill="#9878EF"/>
<path d="M22.7552 6.79315C22.8839 6.84417 22.9823 6.9207 23.0505 7.02274C23.1206 7.12477 23.1557 7.24768 23.1557 7.39146C23.1557 7.53292 23.1235 7.65699 23.0592 7.76367C22.9949 7.86802 22.9024 7.94919 22.7816 8.00717C22.6627 8.06282 22.5224 8.09065 22.3606 8.09065C22.1151 8.09065 21.9222 8.02804 21.7819 7.90281C21.6416 7.77758 21.5714 7.60713 21.5714 7.39146C21.5714 7.24536 21.6045 7.12245 21.6708 7.02274C21.739 6.9207 21.8374 6.84417 21.966 6.79315C21.8608 6.74445 21.7809 6.67488 21.7263 6.58444C21.6718 6.49168 21.6445 6.38268 21.6445 6.25745C21.6445 6.06034 21.7088 5.9038 21.8374 5.78785C21.968 5.6719 22.1424 5.61392 22.3606 5.61392C22.5048 5.61392 22.6305 5.64059 22.7377 5.69393C22.8468 5.74495 22.9316 5.81916 22.992 5.91656C23.0524 6.01396 23.0826 6.12759 23.0826 6.25745C23.0826 6.38268 23.0544 6.49168 22.9979 6.58444C22.9413 6.67488 22.8605 6.74445 22.7552 6.79315ZM21.8549 6.26441C21.8549 6.39892 21.8998 6.50559 21.9894 6.58444C22.079 6.66329 22.2028 6.70271 22.3606 6.70271C22.5185 6.70271 22.6422 6.66329 22.7319 6.58444C22.8234 6.50559 22.8692 6.40008 22.8692 6.26789C22.8692 6.13107 22.8225 6.02323 22.7289 5.94438C22.6373 5.86554 22.5146 5.82611 22.3606 5.82611C22.2047 5.82611 22.081 5.86554 21.9894 5.94438C21.8998 6.02323 21.8549 6.12991 21.8549 6.26441ZM22.3606 7.87846C22.5419 7.87846 22.6831 7.8344 22.7845 7.74628C22.8878 7.65815 22.9394 7.53872 22.9394 7.38798C22.9394 7.23725 22.8878 7.11898 22.7845 7.03317C22.6831 6.94505 22.5419 6.90099 22.3606 6.90099C22.1814 6.90099 22.0401 6.94505 21.9368 7.03317C21.8355 7.11898 21.7848 7.23725 21.7848 7.38798C21.7848 7.54104 21.8355 7.66163 21.9368 7.74975C22.0381 7.83556 22.1794 7.87846 22.3606 7.87846Z" fill="#321F6A"/>
<path d="M23.605 6.60531C23.5621 6.60531 23.5251 6.58676 23.4939 6.54965C23.4647 6.51255 23.45 6.46733 23.45 6.41399C23.45 6.36065 23.4647 6.31659 23.4939 6.2818C23.5251 6.2447 23.5621 6.22615 23.605 6.22615C23.6478 6.22615 23.6849 6.2447 23.716 6.2818C23.7472 6.31659 23.7628 6.36065 23.7628 6.41399C23.7628 6.46733 23.7472 6.51255 23.716 6.54965C23.6849 6.58676 23.6478 6.60531 23.605 6.60531ZM23.605 8.08717C23.5621 8.08717 23.5251 8.06862 23.4939 8.03152C23.4647 7.99441 23.45 7.94919 23.45 7.89585C23.45 7.84252 23.4647 7.79845 23.4939 7.76367C23.5251 7.72656 23.5621 7.70801 23.605 7.70801C23.6478 7.70801 23.6849 7.72656 23.716 7.76367C23.7472 7.79845 23.7628 7.84252 23.7628 7.89585C23.7628 7.94919 23.7472 7.99441 23.716 8.03152C23.6849 8.06862 23.6478 8.08717 23.605 8.08717Z" fill="#321F6A"/>
<path d="M24.7622 6.67836C24.9766 6.69227 25.1393 6.76184 25.2504 6.88707C25.3634 7.00998 25.4199 7.17115 25.4199 7.37059C25.4199 7.50973 25.3917 7.6338 25.3352 7.7428C25.2786 7.84947 25.1948 7.93412 25.0838 7.99673C24.9727 8.05935 24.8373 8.09065 24.6775 8.09065C24.5294 8.09065 24.3891 8.06282 24.2565 8.00717C24.126 7.94919 24.0208 7.87266 23.9409 7.77758L24.0432 7.5793C24.1114 7.66279 24.202 7.7312 24.315 7.78454C24.428 7.83556 24.5489 7.86107 24.6775 7.86107C24.8451 7.86107 24.9746 7.81817 25.0662 7.73236C25.1578 7.64424 25.2036 7.52365 25.2036 7.37059C25.2036 7.21985 25.1578 7.10158 25.0662 7.01578C24.9746 6.92997 24.8363 6.88707 24.6512 6.88707H24.505V6.70271L25.0721 5.85742H24.0256V5.63479H25.341V5.8122L24.7622 6.67836Z" fill="#321F6A"/>
<path d="M26.532 8.09065C26.3742 8.09065 26.2329 8.04079 26.1082 7.94107C25.9854 7.84136 25.8889 7.69873 25.8188 7.51321C25.7506 7.32537 25.7165 7.10506 25.7165 6.85229C25.7165 6.59951 25.7506 6.38036 25.8188 6.19484C25.8889 6.007 25.9854 5.86322 26.1082 5.7635C26.2329 5.66378 26.3742 5.61392 26.532 5.61392C26.6898 5.61392 26.8302 5.66378 26.9529 5.7635C27.0776 5.86322 27.1751 6.007 27.2452 6.19484C27.3154 6.38036 27.3505 6.59951 27.3505 6.85229C27.3505 7.10506 27.3154 7.32537 27.2452 7.51321C27.1751 7.69873 27.0776 7.84136 26.9529 7.94107C26.8302 8.04079 26.6898 8.09065 26.532 8.09065ZM26.532 7.86107C26.6509 7.86107 26.7551 7.82164 26.8448 7.7428C26.9364 7.66395 27.0075 7.54916 27.0582 7.39842C27.1088 7.24768 27.1342 7.06564 27.1342 6.85229C27.1342 6.63894 27.1088 6.45689 27.0582 6.30615C27.0075 6.15542 26.9364 6.04062 26.8448 5.96178C26.7551 5.88293 26.6509 5.84351 26.532 5.84351C26.4131 5.84351 26.3079 5.88293 26.2163 5.96178C26.1267 6.04062 26.0565 6.15542 26.0059 6.30615C25.9552 6.45689 25.9299 6.63894 25.9299 6.85229C25.9299 7.06564 25.9552 7.24768 26.0059 7.39842C26.0565 7.54916 26.1267 7.66395 26.2163 7.7428C26.3079 7.82164 26.4131 7.86107 26.532 7.86107Z" fill="#321F6A"/>
<path d="M67.836 7.24928H67.2589V8.19083H67.836V7.24928Z" fill="#321F6A"/>
<path d="M68.6627 6.86969H68.0856V8.19083H68.6627V6.86969Z" fill="#321F6A"/>
<path d="M69.4889 6.50351H68.9117V8.19081H69.4889V6.50351Z" fill="#321F6A"/>
<path d="M70.3154 6.08505H69.7383V8.19082H70.3154V6.08505Z" fill="#321F6A"/>
<path d="M71.5717 7.15563C71.9148 6.82052 72.376 6.63284 72.8564 6.63284C73.3367 6.63284 73.7979 6.82052 74.141 7.15563L74.531 6.76685C74.0847 6.32901 73.4837 6.08362 72.8576 6.08362C72.2315 6.08362 71.6305 6.32901 71.1842 6.76685L71.5717 7.15563Z" fill="#321F6A"/>
<path d="M72.0906 7.67274C72.2961 7.47437 72.5709 7.36344 72.8569 7.36344C73.1429 7.36344 73.4177 7.47437 73.6231 7.67274L74.0131 7.28396C73.7045 6.98289 73.29 6.81429 72.8583 6.81429C72.4266 6.81429 72.012 6.98289 71.7035 7.28396L72.0906 7.67274Z" fill="#321F6A"/>
<path d="M72.6099 8.19085C72.6768 8.12865 72.7649 8.09406 72.8564 8.09406C72.9479 8.09406 73.0361 8.12865 73.103 8.19085L73.4929 7.80209C73.3217 7.63817 73.0935 7.54663 72.8561 7.54663C72.6187 7.54663 72.3905 7.63817 72.2192 7.80209L72.6099 8.19085Z" fill="#321F6A"/>
<path d="M78.9344 6.34026H75.4185C75.3751 6.34026 75.3398 6.37538 75.3398 6.41872V7.85755C75.3398 7.90089 75.3751 7.93601 75.4185 7.93601H78.9344C78.9779 7.93601 79.0131 7.90089 79.0131 7.85755V6.41872C79.0131 6.37538 78.9779 6.34026 78.9344 6.34026Z" fill="#321F6A"/>
<path d="M79.3145 6.79439H79.1766C79.1331 6.79439 79.0979 6.82952 79.0979 6.87285V7.40265C79.0979 7.44598 79.1331 7.48111 79.1766 7.48111H79.3145C79.3579 7.48111 79.3932 7.44598 79.3932 7.40265V6.87285C79.3932 6.82952 79.3579 6.79439 79.3145 6.79439Z" fill="#321F6A"/>
<g opacity="0.5">
<path opacity="0.5" d="M19.7001 34.6688V70.5512H117.898V34.6688H19.7001Z" fill="url(#paint0_linear)"/>
</g>
<path d="M21.5714 32.7021V66.6439H88.5082C91.1829 66.8178 93.8661 66.8178 96.5408 66.6439H115.283V32.7021H21.5714Z" fill="white"/>
<path d="M53.9096 40.5906H34.2609V59.3037H53.9096V40.5906Z" fill="#ECEFF1"/>
<path d="M44.0076 52.1749L53.5241 59.6901V44.8506L44.0076 52.1749Z" fill="#CFD8DC"/>
<path d="M54.3166 40.6542H53.5231L44.0075 48.1694L34.491 40.6542H33.6985C33.0675 40.6545 32.4624 40.9052 32.0163 41.3514C31.5701 41.7975 31.3193 42.4026 31.3191 43.0336V57.3089C31.3193 57.9398 31.5701 58.5449 32.0163 58.9911C32.4624 59.4372 33.0675 59.688 33.6985 59.6882H34.491V44.8506L44.0075 52.1702L53.5241 44.8487V59.6873H54.3175C54.9481 59.6868 55.5528 59.4361 55.9988 58.9901C56.4447 58.5442 56.6954 57.9395 56.6959 57.3089V43.0336C56.6957 42.4026 56.4449 41.7975 55.9988 41.3514C55.5526 40.9052 54.9475 40.6545 54.3166 40.6542Z" fill="#FB5643"/>
<path d="M104.123 40.5906H59.9332V45.1164H104.123V40.5906Z" fill="#E0E0E0"/>
<path d="M107.922 47.2141H59.9332V51.7398H107.922V47.2141Z" fill="#E0E0E0"/>
<path d="M101.134 54.0023H59.9332V58.528H101.134V54.0023Z" fill="#E0E0E0"/>
<path opacity="0.6" d="M0.0250244 167.876C8.12218 170.598 18.0008 168.943 27.1871 169.135C28.4123 169.089 29.6347 169.284 30.7847 169.709C31.6228 170.202 32.3667 170.84 32.9816 171.594C35.5556 174.022 40.8299 174.802 45.4398 174.39C50.0498 173.978 54.278 172.612 58.6195 171.578C66.1403 169.782 74.7371 168.966 82.1549 170.923C82.8398 171.152 83.5597 171.259 84.2817 171.238C85.9088 171.077 86.3925 169.776 87.5294 169.033C89.5878 167.69 94.0424 168.055 94.9425 166.286C95.4721 165.256 94.2548 164.185 92.9309 163.479C87.8605 160.765 80.6083 160.322 73.9736 160.74C67.3388 161.158 60.8145 162.311 54.1452 162.316C45.8356 162.316 37.8068 160.546 29.5777 159.822C23.8777 159.32 17.6565 159.381 12.313 160.851C6.53624 162.459 5.26001 166.05 0.0250244 167.876Z" fill="#7561E5"/>
<defs>
<linearGradient id="paint0_linear" x1="68.799" y1="70.5512" x2="68.799" y2="34.6688" gradientUnits="userSpaceOnUse">
<stop stop-color="#808080" stop-opacity="0.251"/>
<stop offset="0.54" stop-color="#808080" stop-opacity="0.122"/>
<stop offset="1" stop-color="#808080" stop-opacity="0.102"/>
</linearGradient>
</defs>
</svg>
