<?xml version="1.0" encoding="UTF-8" standalone="no"?><!DOCTYPE svg PUBLIC "-//W3C//DTD SVG 1.1//EN" "http://www.w3.org/Graphics/SVG/1.1/DTD/svg11.dtd"><svg width="100%" height="100%" viewBox="0 0 512 512" version="1.1" xmlns="http://www.w3.org/2000/svg" xmlns:xlink="http://www.w3.org/1999/xlink" xml:space="preserve" xmlns:serif="http://www.serif.com/" style="fill-rule:evenodd;clip-rule:evenodd;stroke-linejoin:round;stroke-miterlimit:2;"><g><circle cx="256" cy="256" r="256" style="fill:#7561e5;"/><path d="M292.057,237.596c-2.929,-2.945 -6.176,-5.556 -9.68,-7.784c-9.285,-5.946 -20.078,-9.105 -31.103,-9.105c-15.3,-0.028 -29.981,6.051 -40.782,16.889l-52.398,52.441c-10.783,10.804 -16.843,25.44 -16.853,40.703c-0.02,31.851 25.784,57.688 57.636,57.709c15.277,0.053 29.943,-5.997 40.739,-16.808l43.255,-43.253c0.786,-0.779 1.224,-1.841 1.218,-2.948c-0.014,-2.276 -1.868,-4.109 -4.143,-4.096l-1.648,0c-9.037,0.031 -17.994,-1.704 -26.364,-5.108c-1.543,-0.636 -3.316,-0.277 -4.49,0.906l-31.101,31.143c-9.657,9.658 -25.316,9.658 -34.975,0c-9.657,-9.659 -9.657,-25.315 0,-34.975l52.605,-52.563c9.651,-9.637 25.283,-9.637 34.933,0c6.504,6.122 16.649,6.122 23.151,0c2.799,-2.8 4.495,-6.514 4.779,-10.462c0.301,-4.719 -1.44,-9.341 -4.779,-12.689Z" style="fill:#fff;fill-rule:nonzero;"/><path d="M371.523,158.134c-22.523,-22.523 -59.041,-22.523 -81.563,0l-43.213,43.17c-1.187,1.194 -1.529,2.988 -0.865,4.532c0.657,1.55 2.189,2.546 3.872,2.513l1.525,0c9.025,-0.016 17.968,1.733 26.322,5.15c1.543,0.634 3.316,0.277 4.49,-0.906l31.02,-30.978c9.657,-9.658 25.316,-9.658 34.973,0c9.657,9.658 9.657,25.316 0,34.973l-38.64,38.598l-0.33,0.371l-13.512,13.43c-9.65,9.638 -25.282,9.638 -34.932,0c-6.504,-6.121 -16.647,-6.121 -23.151,0c-2.816,2.821 -4.513,6.568 -4.778,10.546c-0.302,4.719 1.439,9.339 4.778,12.687c4.768,4.788 10.347,8.693 16.477,11.534c0.865,0.413 1.73,0.741 2.595,1.112c0.866,0.371 1.771,0.66 2.636,0.989c0.865,0.33 1.773,0.618 2.638,0.865l2.429,0.658c1.648,0.413 3.297,0.742 4.984,1.031c2.036,0.302 4.084,0.495 6.139,0.576l3.13,0l2.472,-0.288c0.906,-0.04 1.854,-0.247 2.926,-0.247l1.4,0l2.842,-0.411l1.319,-0.248l2.389,-0.494l0.453,0c10.119,-2.542 19.358,-7.781 26.734,-15.159l52.441,-52.441c22.525,-22.522 22.525,-59.04 0,-81.563Z" style="fill:#fff;fill-rule:nonzero;"/></g></svg>